<svg xmlns="http://www.w3.org/2000/svg" viewBox="0 0 177.00768 113.56424" height="429.219" width="669.005">
    <path d="M158.057 18.448l-4.425.458 1.038 2.625c1.471.315 2.524-.124 3.6-.52zM152.747 19.394l-4.303.397c.067.789.362 1.602 1.16 2.472 1.342.337 2.22.023 3.173-.183z" fill="#0000d4" fill-rule="evenodd"/>
    <path d="M153.822 51.033l-2.287-2.801c-1.618.906-3.385 1.627-6.802.286l.515 1.486c-1.886-.041-4.67-1.326-4.744 1.143-5.424-2.151-6.68-.829-5.716 2.344-3.986-.633-4.847 1.86-5.545 4.515-2.27.598-6.98-.118-3.772 3.43-1.78 1.704-5.621 2.699-2.915 5.944-1.087 2.411-4.96 6.772 1.029 4.23-.656-.175-5.166 4.952-1.43 6.002-.356 7.133 2.864 1.478 2.973.171-1.735 10.111 1.238 4.249 3.6.457 1.076 2.562 1.584.585 2.23-.285 2.749 1.248 4.537.576 6.573.4-1.045 3.719 1.195 2.181 3.087 1.2 2.879 4.247 5.43 1.79 7.202.686 1.896 1.7 3.15-.67 4.63-1.6 4.299 6.073 4.12 1.814 4.63-.858 3.485 6.697 4.355 2.408 5.659-.057 5.223 5.252 5.298 2.211 5.144-1.2 1.197 2.145 1.89 2.102 2.172.285 2.512 2.397.26-1.984-.972-4.915 1.002.46 2.17 1.254 2-.629 1.433 2.015 4.152 9.172 2.63-.629 5.684 6.163 2.957-2.629-.303-3.251-1.825-.348-3.437-2.26-3.812-3.78 6.408 3.595 2.98-.314.743-3.315 3.163 1.603 9.694 5.814 1.372-1.486 3.864-1.18.611-2.65-6.63-4.287 4.274-2.574-1.538-4.431-6.231-2.686-1.532-.845-3.193-1.174-5.03-.8z" fill="#6f6f91" fill-rule="evenodd"/>
    <g fill="#333">
        <path d="M157.723 21.78c1.188 1.66 3.156 2.19 4.808 3.092 1.427 1.576-1.986 2.079-3.068 2.274-2.98-.148-5.796-1.46-8.38-2.765-1.458 1.425-2.244-1.016-3.11-1.386 1.488 3.722 2.773 1.461 3.92 2.31 2.568 1.33 5.573 2.614 8.509 2.215 1.6-.138 4.429-1.711 2.241-3.223-1.591-.694-3.336-1.314-4.469-2.77.01-.368-.64.302-.45.252z"/>
        <path d="M159.768 24.378c1.056 1.245.693-1.254 0 0zM158.282 24.727c1.509 1.312.56-1.397 0 0zM155.924 18.643c-.623-1.662-2.723-1.175-2.416-.181.725-1.6 2.062.714 2.416.18z"/>
        <path d="M151.798 14.182c1.51.303 2.762 5.396 2.311 2.038-.079-.573-2.062-3.401-2.31-2.038z"/>
        <path d="M151.903 15.5c1.883 3.774 2.047-.105 0 0zM152.154 25.394c-.869 1.304-4.36 2.603-4.037 3.5 1.199-.558 4.615-2.685 4.037-3.5z"/>
        <path d="M147.543 28.401c1.228 1.695-.14 2.357-1.615 1.902.248.535 1.64.645 2.509.161.23-1.026-.153-1.843-.894-2.063z"/>
        <path d="M146.432 30.578c-1.779 5.207 1.013 10.593 3.404 15.122 1.183 2.525 3.025 4.632 4.622 6.888.475-1.506-2.881-3.909-3.56-5.911-2.438-4.664-5.65-9.946-4.228-15.408.186-.302.477-.895-.238-.69zM152.03 13.812c-2.031-.991-3.322.975-4.018 2.398-.864 1.91-5.626-.671-1.83 1.136 2.904.508 2.717-4.543 5.711-3.237l.147-.112-.01-.185z"/>
        <path d="M152.553 17.133c-1.571-3.643-4.522.326-6.756-.508-2.773-2.698 1.536 2.773 3.118-.373 1.67-1.225 2.662.403 3.638.881zM158.083 18.378c-1.6.505-5.925-.57-4.017 2.275.352 1.93 3.463 1.76 4.275.461.353-1.975-.55-3.992-.277-1.023.479 1.863-2.468 2.086-3.457 1.095-.14-1.016-1.797-2.645.327-2.187.846-.303 2.997.212 3.15-.621zM152.44 19.087c-1.722.332-5.534-.26-3.567 2.534.749 1.355 4.146 1.531 4.063-.387-.356-3.054-.528-1.178-.425.72-1.532.85-3.744.169-3.86-1.794.072-1.227 3.822.164 3.79-1.073z"/>
        <path d="M148.368 19.614c-1.74-.703-1.45 2.442-.55.108.074.3.692.212.55-.108zM153.896 19.908c-2.846-.867-.653.89 0 0zM151.696 17.419c-1.318-.92-4.283 1.803-1.43.352.437-.65 1.41.274 1.43-.352zM148.2 20.554c-3.507 1.794-4.904 5.816-6.575 9.112-.853 4.105-1.363 8.515-.288 12.624 1.284 3.627 3.389 6.875 5.097 10.302-.224-2.297-3.01-5.543-3.932-8.219-2.256-4.53-1.5-9.839-.58-14.618 1.657-3.217 3.014-7.162 6.443-8.924l-.01-.182-.156-.095z"/>
        <path d="M145.582 50.35c-1.805-2.286-6.675.52-5.192 1.086.128-2.929 4.127-.817 5.192-1.086z"/>
        <path d="M140.695 51.443c-3.58-2.65-8.517-.157-4.886 3.886-1.063-.943-6.587 1.142-2.642.09 4.64 1.716 1.96-1.715 1.582-3.844 1.226-2.423 4.659.21 5.946-.132z"/>
        <path d="M134.93 53.567c-3.687-1.166-4.898 2.677-5.759 4.498-2.505-1.41-5.944 2.54-4.71 2.066.314-3.446 7.464.289 5.863-4.452.754-2.09 3.54-1.717 4.605-2.112zM124.575 60.762c1.77 1.241-5.077 5.2-2.727 5.335-1.245-2.878 6.406-3.516 2.727-5.335zM122.57 66.858c-1.942 1.967-3.277 9.376.99 4.669-.148 1.24-4.354 6.292-1.287 6.533.72-1.944-1.57 3.876 1.186 3.134.242-2.26 2.723-5.122 1.188-.94-1.973 4.667 3.407 3.957 3.043-.268.79-3.995 1.838 2.415 3.023-1.24-.736-2.537.519-4.855 2.098-2.852 2.628-1.55 2.492-4.935 3.376-7.04 1.552 2.006 3.047-1.525 3.6-2.164 1.915 2.593 6.171-2.31 4.814-2.034-.285 3.675-4.613 1.304-5.508 2.212-.16 2.539-1.858 2.486-3.038 1.698-1.42 1.75-.336 5.45-3.237 6.762.244 1.27-2.505-2.563-2.497.801.795 1.886-.652 5.183-1.631 2.01-1.937.435-1.873 7.461-4.065 4.463.486-1.673 1.463-7.704-.78-3.458-.93 3.923-1.778-.526-1.393-1.93-2.2 2.065.101-4.5 1.366-4.955.606-3.127-3.942 3.43-3.022-1.123-.224-1.36 2.992-3.563 1.773-4.278zM154.332 51.174c2.21.675 4.638 1.263 6.832.205 1.345.17 6.361 1.61 4.855 2.714-3.873 1.04 2.722.855 3.73 1.804.873 1.33 5.767 1.734 1.603 1.772-2.772.845 5.336.699 1.075-.967-2.477-.517-4.34-2.621-7.177-2.186-.597.776 3.954-.983.505-2.115-1.983-.835-4.21-2.168-6.329-1.018-1.665.632-4.32-1.147-5.094-.209z"/>
        <path d="M171.283 58.935c2.054.003 6.172 6.484 2.314 2.829-1.596-1.516-5.467-3.178-2.63.27 1.13 1.325 3.215 5.048.22 1.793-3.828-3.391-.815 3.193 1.522 3.616 1.802.521 4.77 5.285 3.514 5.777-.91-2.315-4.009-4.603-2.622-.36 1.095 2.706-.337 4.348-.852.717-.16-2.497-2.497-3.696-2.355-.962-3.203-3.32-.256 2.057.271 3.81.756 2.621.56 1.675-.652.23-.956 2.89-.598 1.759-1.756-.354-2.04-.186-.022 3.35-.93 4.608-1.392-.865-5.6-6.076-6.251-1.509-.247 4.696-2.545-1.554-4.266-1.807-1.817 1.029 1.138 6.433-2.572 2.993-1.42-4.32-2.862-1.203-4.703.277-2.28-2.92-3.249 2.174-5.66.501-2.564.986-1.659-1.974-3.566-1.837-1.976 1.691-3.911 1.41-2.548-1.034-1.918-1.082-4.421.644-6.348-.864-.966.957 3.422 1.606 4.714.958 3.098-.687-1.318 3.504 2.24 2.592 1.893-1.43 3.01-1.763 3.328.746 2.033-.576 4.52 1.377 5.663-1.5 2.256 2.275 3.963-.735 5.121-1.651.58 2.831 6 5.09 4.058.453.532-3.323 2.343 2.726 3.946 2.63 1.797-.478.257-3.748 2.252-4.03 1.672 1.373 6.083 6.07 5.223.859-.54-3.536.342-1.258 1.21.36 1.199-1.351.226-2.909 1.83-.367 2.122-.799-2.73-7.972-1.723-6.459 2.233 3.042 1.45-3.429 2.753.584-.268 2.606 3.138 5.537 2.283 1.168-.45-1.687-1.223-5.351.648-1.685 3.386 4.694 1.664-4.225-1.171-4.55-.896-.605-5.172-3.92-3.815-4.483 1.326 2.303 5.098 3.168 2.2-.15-1.203-2.065-3.417-4.274-.02-1.747 1.294 1.428 5.27 3.133 2.724-.07-.178-.578-3.728-4.049-3.594-2.352z"/>
        <path d="M158.313 80.266c-.567 4.267-2.162 8.327-4.373 12.004-1.153 1.28-1.909 4.43-.287 1.563 2.01-3.642 4.078-7.3 4.76-11.472.033-.343 1.039-2.733-.1-2.095z"/>
        <path d="M152.66 95.266c2.796 3.713 7.22 5.702 10.23 9.238.763.81 3.479 3.674 1.873 1.14-3.089-3.34-6.767-6.082-10.291-8.946-.525-.142-1.367-2.55-1.812-1.432zM148.358 80.622c-1.946 2.782-3.131 6.069-5.19 8.828-.912 1.307-3.736 5.254-1.028 2.4 2.33-3.13 4.106-6.647 6.002-10.022.227-.23 1.31-1.445.216-1.206z"/>
        <path d="M140.611 93.098c.513 4.123 1.504 8.184 3.14 12-.406 1.388 2.59 3.611 1.136 1.572-1.82-4.366-3.36-8.92-3.773-13.681l-.28-.079-.222.188z"/>
        <path d="M145.065 107.69c1.72.968 5.71.97 5.93 2.911-2.05-.291-4.431.546-6.168-.88-.248 1.642 3.17 1.332 4.543 1.344 3.034.878 2.325-1.978.071-2.666-1.21.215-3.885-1.452-4.376-.71z"/>
        <path d="M144.202 110.103c-.691 2.164 1.384.355 0 0zM165.154 106.817c1.654 1.44 4.19.88 5.882 2.422.898.488 2.217 1.796.159 1.465-.941.595-4.072-1.304-3.048.084 1.246.529 5.431 1.13 4.378-1-1.695-1.682-4.01-2.424-6.294-2.758-.376-.094-.903-1.134-1.077-.213z"/>
        <path d="M167.083 109.59c1.327 2.021-.765 2.01-2.208 1.856-.366.855 3.577.857 3.065-.663-.168-.354-.215-2.211-.857-1.193zM143.924 110.935c-1.544.084-4.44.124-1.283.66.322.056 2.183.017 1.283-.66zM161.227 110.87c-1.416.485-3.131-.56-4.392-.018 1.065.691 3.132.617 4.53.517.39-.289-.177-.306-.138-.498z"/>
        <path d="M163.355 109.534c-2.621.7-2.208 2.047.138.494l.062-.284-.2-.21zM140.602 109.85c-1.685.983-3.606 1.118-5.505.915.125 1.055 3.116.543 4.225.175.369-.294 2.201-.48 1.28-1.09zM153.896 81.286c-.58 4.287-2.212 8.412-4.92 11.795-3.206.602-1.586 4.015 1.019 2.973-.6-.176-4.268-.65-1.837-2.177 2.424-1.198 3.189-4.21 4.495-6.4.569-1.837 1.68-4.806 1.243-6.191z"/>
        <path d="M149.948 96.043c2.771 3.674 6.19 6.783 9.458 9.983 1.027 1.192 2.359 1.343.614.067-3.027-2.637-5.772-5.592-8.505-8.54-.463-.184-1.118-2.162-1.567-1.51z"/>
        <path d="M160.775 107.056c-.566 1.462-4.552 2.323-3.712 3.675.434-1.787 4.211-2.21 3.712-3.675zM163.4 109.843c.576 1.975 1.979 2.67.555.385-.115-.252-.29-.915-.554-.385zM142.61 81.937c-1.076 2.804-2.75 5.388-4.096 8.082-1.022 1.269-3.732.799-3.613 2.902.05 1.187 3.883 1.88 1.927.948-2.751-.29-1.218-2.875.737-2.824 2.465-1.16 2.415-4.47 4.187-6.313-.008-.583 1.852-2.774.858-2.795z"/>
        <path d="M137.216 94.399c.716 3.404 1.946 6.726 2.948 10.09.925 2.95-2.783 3.976-4.421 5.673-1.709 1.188-.228.993.653-.123 1.714-1.544 5.058-2.765 4.084-5.616-1.009-3.395-2.25-6.744-2.976-10.185l-.187.004-.101.156zM140.534 110.238c-.014 2.328 1.112.427 0 0z"/>
    </g>
    <g>
        <path d="M104.296 40.776c5.783-1.915 14.662-2.192 12.108 3.302 2.796.503 9.825-1.223 5.425 3.067 3.868.342 10.194-.036 5.976 2.673.874.557 2.413 1.012.707 1.966 4.893 1.663 6.055 3.158 1.73 4.403 2.5 1.687 8.68 3.024-1.258 5.897.428.786 2.64 1.572-.786 2.358 7.887 3.172.85 4.97-3.774 2.83 6.026 6.421 1.513 6.937-2.752 4.797-1.756 5.016-4.548 4.16-7.548 2.123-3.222 1.948-4.041.159-5.504-.63-1.282 3.374-4.151.082-6.369-.47 1.748 2.131.48 2.517-1.73 2.358-2.66 2.426-4.268-.05-6.368-.236-3.4.523-1.452-1.36-.944-2.595-4.272.771-3.95-.602-1.965-2.751-6.512.78-4.473-2.489-3.303-5.347-1.337-.35-1.49-1.356-.943-2.752-1.907 2.376-2.726 2.432-1.494-1.887-3.25-1.306-.175-4.117.55-6.369-6.621 1.89.71-4.725 3.617-4.796 1.267-2.063 1.48-6.318 5.268-3.145l1.66-5.25c2.182.513 4.388.8 6.981-2.391z" fill="#6c5353" fill-rule="evenodd"/>
        <path d="M104.121 52.37l7.512-35.357 3.922 1.256-7.341 33.91-.87.885z" fill="#ffe62e" fill-rule="evenodd"/>
        <path d="M97.511 6.262c.522-2.131 5.483-3.84 1.702-1.318-.634.18-1.072 2.323-1.702 1.318z" fill="#333"/>
        <path d="M98.14 5c-.597-.413-2.924-.485-1.754-1.204.308.566 2.771.26 1.754 1.204z" fill="#333"/>
        <path d="M96.74 4.731c-.719.632-3.149 4.567-2.256 2.259.597-.615 1.348-3.433 2.256-2.259z" fill="#333"/>
        <path d="M95.613 7.732c-1.994.051-2.735 2.478-4.795 2.306-2.393 1.558.247 1.03 1.665 1.147 2.953.357 5.774-1.03 8.562-.837 1.951 1.125.654 1.383-.556.363-3.533.623-7.34 1.478-11.052.772-.474-1.189 1.875-2.423 3.028-2.445 1.01-.49 2.57-2.83 3.148-1.306z" fill="#333"/>
        <path d="M94.232 9.95c-.89.816-.428-1.272 0 0zM93.05 9.823c-.707 1.152-.867-1.166 0 0zM96.736 5.2c.33 2.807-1.635.085-.333 1.017.24-.32-.457-1.238.333-1.017zM99.429 5.59c-1.09 1.441 1.59-.062.01.967-.146.095-.469.28-.658.16-.43-.227.293-2 .648-1.126zM98.74 3.969c.216-2.938 2.522-3.893.483-.877-.127.205.18 1.327-.483.877zM98.075 3.65c-2.454-4.577.676-1.482 0 0zM97.736 11.299c1.45 1.45 2.419 4.147 1.214 5.884-.453-.99.478-2.684-.46-3.837.041-.631-1.819-1.858-.754-2.047z" fill="#333"/>
        <path d="M100.088 17.004c-1.624.345-2.454 1.335-1.189 2.734 1.142 2.32-1.925-.965-1.066-2.116.496-.128 2.256-1.612 2.255-.618z" fill="#333"/>
        <path d="M98.769 20.182c.49 6.413-2.055 12.577-1.717 18.985-.822 2.2-.87 4.92-2.125 6.796-.005-2.132 1.379-4.86 1.64-7.256-.326-6.25 2.264-12.265 1.68-18.525l.26-.139.262.139zM100.102 4.228c2.75-.297 3.524 3.319 4.593 5.26 2.065 4.14-.592 8.664-.192 13.01-.602 4.172-.918 8.359-.84 12.578-.76-1.308-.066-3.924-.251-5.7.617-5.533 1.062-11.11 1.785-16.62-.269-2.73-1.646-5.376-3.235-7.564-.5-.655-1.428-.689-1.86-.964z" fill="#333"/>
        <path d="M103.683 34.738c-.065 1.806-.147 4.061.12 5.681.671.043 3.236-1.085 2.481-.178-1.776.762-3.755.667-2.882-1.927.157-1-.709-3.298.281-3.576zM94.987 45.964c-2.217-4.042-6.175 4.923-4.622.693.521-2.464 5.135-2.68 4.622-.693z" fill="#333"/>
        <path d="M90.83 47.855c-2.648 3.009-.104-2.125 0 0z" fill="#333"/>
        <path d="M90.84 49.195c-3.075-.307-7.253 1.672-6.637 5.123 3.951-2.711 2.549.647-.524.186-.825-3.81 4.892-6.898 7.162-5.31z" fill="#333"/>
        <path d="M86.549 53.148c-1.19 1.645-3.352 9.321-2.509 3.425 1.056-.894 1.714-2.775 2.509-3.425z" fill="#333"/>
        <path d="M84.834 58.547c-1.53 5.432-1.472-1.459 0 0zM86.192 59.207c-1.593 1.724-.535 3.673-1.226 3.364-1.128-1.805 1.174-2.349 1.226-3.364zM85.443 64.163c.264-.709.594-1.407 1.077-1.994.127-.14.257-.3.442-.361.192-.025.138.241.107.354-.141.497-.407.947-.664 1.391a5.433 5.433 0 0 0-.316.559c-.082.138-.163.314-.332.36-.168.009-.252-.184-.314-.309z" fill="#333"/>
        <path d="M87.496 61.774c-2.66 3.394 2.534 1.163.093 5.185.173 2.494-.573 5.952-.531 1.233.935-3.154.795-3.756-.892-4.532.547-.357.564-2.34 1.33-1.886zM92.094 70.153c-.553-.124-1.188-.024-1.594.398-.583.595-.779 1.433-1.076 2.186-.098.25-.203.5-.35.725.714-.385 1.5-.611 2.276-.84.69-.182 1.386-.38 2.102-.406.31-.065.332.243.088.356-.213.122-.42.393-.677.346-.72-.084-1.418.183-2.096.387-.531.155-1.061.39-1.625.38-.354.013-.46-.388-.37-.666.073-.346.219-.671.37-.99-.14-.46.153-.913.44-1.25.484-.533 1.098-.98 1.8-1.173.26-.078.659-.047.71.285a.828.828 0 0 1 .002.262zM115.256 11.287c-1.19 1.925-2.469 3.81-3.344 5.907-.907-1.194 1.76-3.766 2.377-5.3.221-.278.6-1.555.967-.607zM111.55 17.796c-.85 5.013-1.622 10.035-3.392 14.828-.986 5.843-2.212 11.648-3.266 17.47-1.062-1.365.89-5.054.868-7.25 1.086-6.181 2.384-12.286 4.182-18.295.547-1.78.254-6.24 1.609-6.753zM104.77 50.09c-.062 2.855-1.518-.176 0 0zM100.892 75.533c-.115 4.436.267 8.88.925 13.27-1.588-2.306-1.116-7.918-1.386-11.422.062-.305-.512-2.647.461-1.848zM108.68 51.412c-.703 3.31-4.046 1.25-5.915.86-.588-.869 2.371.41 3.444.744 1.346.18 1.904-1.094 2.472-1.604zM102.497 52.395c-1.462 2.388-2.368 1.18 0 0zM101.459 52.123c-1.686 3.285-3.07 2.012 0 0z" fill="#333"/>
        <path d="M100.068 54.427c4.189-2.381.323 2.102 2.062 2.63.368 1.107-2.374-1.334.124-2.901-.695-.534-2.014 1.142-2.186.27zM106.847 59.879c2.586-2.556 1.002.818 0 0z" fill="#333"/>
        <path d="M107.404 59.78c.019 3.589 6.426.151 1.727 2.313-.832.152-2.897-2.062-1.727-2.313z" fill="#333"/>
        <path d="M111.14 60.118c.358 4.979 2.074-2.47 3.71.71.458-4.303 3.414 2.655 2.891-2.653.944-3.165 3.426 4.186 3.519-1.76 1.094 1.54-1.859 4.205-2.945 1.044.204 2.108-1.332 5.122-2.458 1.854-.47 3.54-2.253-.524-2.84 1.84-1.292 2.6-2.49.491-1.876-1.035zM115.624 18.305c-1.365 5.226-1.84 10.662-3.897 15.715-1.43 5.861-2.03 11.895-3.417 17.757-.54-1.431 1.008-3.937.826-5.776.888-6.825 2.677-13.438 4.614-20.019.466-2.59.745-5.221 1.552-7.739l.322.062zM115.185 11.145c-.058 2.19.352 4.356.415 6.546-.826-1.232-.457-4.159-.745-6.009l.002-.524.328-.013z" fill="#333"/>
        <path d="M114.348 13.105c2.39.634-.534 1.006 0 0zM111.334 39.435c2.427-.61 6.927 2.024 4.672 4.707 2.457.1 11.314-.982 5.594 2.997 1.689.143 6.068-1.07 7.751 1.327-2.443 1.456-1.219 1.023.335 2.494-1.113 1.9.164-1.279-2.24-.98 1.346-.997 2.308-2.101-.536-2.546-3.125-.37-8 .985-3.499-2.605-1.901-1.679-9.517 1.925-7.016-2.512-.356-1.959-4.26-2.117-5.061-2.882z" fill="#333"/>
        <path d="M128.244 51.572c3.691 1.094 7.22 3.632 1.698 4.625 1.276 1.2 6.626 3.692 2.883 5.602-3.14-.267-5.394.574-2.706 2.893-6.045-1.814 4.873 3.075.229 2.947-1.687-.698-6.737.47-6.692-.294 1.795-1.192 10.897 1.78 5.97-1.662-5.017-2.548 3.02-.17-1.084-2.439-1.127-3.284 7.25.153 4.9-4.22-3.585-1.117-5.007-3.907-.562-4.201.404-1.56-4.508-1.974-4.636-3.25z" fill="#333"/>
        <path d="M125.494 67.252c2.35 1.952-.325 3.478 1.304 5.54-2.153 1.1-6.423-2.398-4.882 1.324-2.427 1.906-6.21 1.125-8.483 0 2.638.353 6.042 1.869 8.387-.412-2-3.524 3.212-.115 4.881-1.221-2.28-1.892.777-2.643-.847-4.713l-.41-.192.05-.326zM113.818 74.36c-1.015 2.427-6.117-2.862-5.207.48-2.184-.328-4.273-1.646-6.645-1.55 2.022 2.28-1.316 3.21-1.308 1.98 3.478 1.768-.792-3.946 3.299-2.009 1.616-.403 3.37 1.691 4.639 1.113-1.497-3.039 4.611 1.666 5.222-.015z" fill="#333"/>
        <path d="M102.513 57.778l3.45 1.579-3.555 18.88-3.723-1.193z" fill="#ffe62e" fill-rule="evenodd"/>
        <path d="M105.765 74.681c-.11 5.009-1.143 9.982-.986 15.002-.908-2.094.11-5.78.204-8.403.42-2.032-.088-5.221.782-6.599z" fill="#333"/>
        <path d="M98.368 77.166l4.117 1.126-1.419 5.183-3.27-.526z" fill="#faa" fill-rule="evenodd"/>
        <path d="M99.172 76.884c3.602.703 2.5 1.89-.343.39l.068-.286.275-.104z" fill="#333"/>
        <path d="M102.636 57.765c.008 5.074-2.744 9.685-2.57 14.76-.425.968-.548 5.284-1.204 3.666.937-3.894.7-7.926 2.084-11.73 1.101-1.945.538-5.596 1.69-6.696zM98.829 77.483c.08 1.808-1.71 4.298-.65 5.725.91.604 4.482-.3 2.093.73-1.429.34-3.491-.339-2.873-1.999.351-1.344.406-4.265 1.43-4.456z" fill="#333"/>
        <path d="M103.33 56.254c-1.947 2.724 3.424 2.224 2.237 4.356-.131-2.637-4.812-1.285-2.237-4.356zM106.367 59.926c-1.845 5.966-1.833 12.35-3.863 18.251-.312-1.671 1.322-4.289 1.221-6.411.53-4.006 1.349-7.973 2.314-11.9l.328.06zM102.535 78.493c.172 1.08-1.273 5.812-1.42 4.489.895-1.262.576-3.722 1.42-4.49zM104.874 88.729c2.44.241 1.088 4.14-.422 3.075 2.274-.245 1.438-2.45.422-3.075zM114.434 74.687c-.605 5.021-.225 10.14-1.354 15.106-.52-2.182 1.012-5.859.633-8.62.237-1.987-.298-5.183.721-6.486zM113.322 89.632c2.396.342 1.75 4.028.136 2.752 3.191-.362.025-1.852-.136-2.752zM113.378 92.857c-.092 5.075-1.304 10.332-.086 15.318-1.55-1.187-.516-5.205-.746-7.393.249-2.402.05-6.121.832-7.925zM104.532 106.787c-.119 2 2.5 1.505 3.612 2.543-.865.092-4.872-1.065-3.612-2.543z" fill="#333"/>
        <path d="M113.178 108.039c1.076 1.578 3.625 1.665 4.506 3.598-1.106-.171-2.357-2.459-4.028-2.508-.212-.137-1.323-1.038-.478-1.09zM113.028 111.483c.911 2.185-.592 1.757 0 0zM105.056 110.914c1.45 1.878-.257 1.695 0 0zM104.82 92.459c-.525 4.79-.679 9.637-.153 14.427-.853-.993-.435-3.847-.655-5.568.146-2.793-.122-6.684.808-8.86zM101.557 89.223c-3.02.456 2.1 4.413-.99 2.402-1.521-.849.518-4.01.99-2.402z" fill="#333"/>
        <path d="M101.9 92.403c.69 5.15-.158 10.31.007 15.475-1.29-.607-.058-5.019-.358-6.888.48-2.854-.164-6.048.076-8.692l.275.106zM109.366 74.362c-.37 5.04 1.95 10.039 1.092 15.008-.895-.141.153-3.808-.595-5.41-.368-3.17-1.403-6.789-.761-9.738l.264.14z" fill="#333"/>
        <path d="M109.96 89.885c-1.83-.582-2.174 3.01-.086 2.173-.512 2.191-3.747-1.97-.778-2.654.356-.054 1.428-.25.864.481zM110.157 92.564c.49 5.33.333 10.822.076 16.197-1.197-1.015.194-4.774-.315-6.795.66-2.738-.89-7.904.239-9.402zM110.069 108.648c-.223 1.967-3.003 2.196-4.085 3.267.861.984 4.179-.694 3.578.534-1.2.614-5.635.261-3.334-1.373 1.327-.637 3.02-1.36 3.594-2.6l.247.173z" fill="#333"/>
        <path d="M110.04 111.803c-.912 1.849 2.32 1.157 3.24.907-.137 1.298-2.39.763-3.462.645-.936.02-.486-2.577.222-1.552zM113.354 111.082c.86.671 5.47.038 3.3.993-.811-.212-3.85.134-3.3-.993zM101.89 111.427c-.92 2.072 3.136-.006 3.763.906-1.228.505-5.458 1.32-4.219-1.16l.295.007.16.248z" fill="#333"/>
        <path d="M101.501 108.282c-2.46.467-5.726 1.064-6.604 3.718 1.915.13 5.2-.779 6.412.211-2.23-.112-5.265.883-6.966-.27.977-2.855 4.54-4.01 7.176-3.952l-.018.291zM111.817 17.236c.111.359.115.917.565 1.015.425.086.664-.314.936-.53.381-.116.295.471.641.485.32.122.544-.204.836-.22.302.064.153.612.513.59.664-.417-.248.544-.5-.003-.081-.143-.034-.375-.221-.167-.383.197-.97.148-1.178-.278.006-.32-.054.112-.237.147-.347.337-1.015.412-1.32-.018-.155-.302-.338-.707-.26-1.02.057-.063.17-.078.225-.001z" fill="#333"/>
        <path d="M96.544 5.807a.382.229 53.742 0 1 .024.433.382.229 53.742 0 1-.409-.185.382.229 53.742 0 1-.033-.437.382.229 53.742 0 1 .408.176M99.597 6.072a.318.321 0 0 1-.315.321.318.321 0 0 1-.322-.314.318.321 0 0 1 .308-.328.318.321 0 0 1 .328.307" fill="#333" fill-rule="evenodd"/>
        <path d="M93.48 72.596c-.224.33-.485.636-.748.937-.363.39-.802.71-1.117 1.144-.118.183-.15.404-.146.617.03.165.216.23.353.29.197.065.408.113.615.059.588-.142 1.108-.463 1.662-.694.166-.088.436-.318.536-.026.16.248-.162.32-.325.4-.398.18-.797.358-1.196.534-.354.135-.725.291-1.112.225-.34-.06-.704-.201-.9-.501-.108-.222-.084-.486-.026-.718.078-.316.288-.575.519-.795.178-.184.372-.352.557-.527.188-.197.384-.386.55-.602.158-.177.29-.376.412-.579.124-.073.413.08.367.236zM87.373 70.235c.313.088.66.11.976.02.581-.2 1.146-.458 1.755-.572.262-.03.526-.155.789-.087.342.094.085.467-.168.413-.147-.07.154.051-.008.001-.535.077-1.069.19-1.569.403-.444.163-.9.36-1.384.305-.264.012-.752-.036-.513-.41.025-.04.069-.087.122-.073zM85.429 62.633c-.16.365-.31.735-.424 1.117-.04.202-.092.408-.068.615.033.182.27.05.323-.057.125-.101.126-.384.325-.352.114.028.288.109.258.25-.113.2-.22.416-.406.56a.67.67 0 0 1-.477.122c-.254-.012-.442-.251-.453-.494-.024-.283.042-.565.116-.836.1-.328.238-.642.355-.964 0-.164.154-.24.29-.157.074.034.19.097.16.196zM84.1 60.359c.079.034.151.016.23.004.085-.013.15-.02.227-.057.133-.059.244-.155.365-.233.108-.069.212-.148.31-.23.113-.09.218-.183.332-.27a.472.472 0 0 1 .152-.096c.14-.074.35.321.21.395-.044.013-.076.04-.111.068-.051.031-.075.06-.12.101-.052.047-.12.077-.173.124-.102.116-.234.195-.36.282-.15.076-.271.197-.43.256a1.625 1.625 0 0 1-.75.084c-.152-.042-.032-.47.119-.428z" fill="#333"/>
        <path d="M94.735 74.822c.479.43 1.042.783 1.673.934.534.15 1.074.286 1.623.368.451.023.92.044 1.349-.125.216-.057.291.3.11.385-.151.019-.3.066-.454.09-.403.062-.812.034-1.216.007a19.099 19.099 0 0 1-1.709-.43c-.391-.13-.773-.3-1.102-.552-.172-.124-.338-.256-.512-.377-.041-.132.088-.336.238-.3zM98.212 3.517c.152-.557.43-1.105.378-1.693-.036-.3-.153-.585-.206-.882-.037-.184-.077-.37-.105-.554-.007-.117.128-.292.254-.194.114.107.064.272.094.406.011.241.067.477.15.704.12.395.18.823.045 1.22-.086.35-.173.702-.21 1.06-.088.152-.37.099-.4-.067z" fill="#333"/>
    </g>
    <g>
        <path d="M63.3 39.99c5.784-1.916 14.664-2.192 12.11 3.302 2.795.503 9.824-1.223 5.424 3.066 3.868.343 10.194-.035 5.976 2.674.875.557 2.413 1.011.708 1.965 4.893 1.664 6.054 3.159 1.73 4.403 2.5 1.688 8.68 3.025-1.259 5.897.428.787 2.64 1.573-.786 2.36 7.887 3.171.85 4.97-3.774 2.83 6.026 6.42 1.513 6.936-2.752 4.796-1.756 5.016-4.547 4.16-7.548 2.123-3.222 1.948-4.04.159-5.504-.63-1.282 3.374-4.151.082-6.368-.47 1.747 2.131.48 2.517-1.73 2.358-2.66 2.426-4.27-.05-6.369-.236-3.4.523-1.452-1.36-.943-2.595-4.273.771-3.95-.602-1.966-2.752-6.512.781-4.473-2.488-3.302-5.346-1.337-.35-1.491-1.356-.944-2.752-1.906 2.376-2.726 2.432-1.494-1.887-3.25-1.306-.175-4.117.55-6.369-6.621 1.89.71-4.725 3.617-4.796 1.268-2.064 1.48-6.319 5.268-3.145l1.66-5.25c2.182.513 4.389.8 6.982-2.391z" fill="#6c5353" fill-rule="evenodd"/>
        <path d="M62.935 50.093l13.079-33.698 3.67 1.869L67.006 50.56l-1.001.734zM60.666 56.366l3.137 2.135-6.673 18.017-3.47-1.802z" fill="#ffe62e" fill-rule="evenodd"/>
        <path d="M53.326 74.783l3.87 1.801-2.268 4.872-3.137-1.068z" fill="#faa" fill-rule="evenodd"/>
        <path d="M56.765 5.673c.493-2.132 5.183-3.841 1.609-1.319-.6.18-1.014 2.323-1.609 1.319z" fill="#333"/>
        <path d="M57.308 4.613c-.438-.545-2.544-1.184-1.29-1.592.135.621 2.463.928 1.29 1.592zM56.036 4.141c-.68.632-2.976 4.568-2.132 2.26.564-.615 1.274-3.434 2.132-2.26z" fill="#333"/>
        <path d="M54.97 7.143c-1.884.05-2.584 2.477-4.53 2.305-2.263 1.559.232 1.03 1.573 1.148 2.79.357 5.457-1.031 8.093-.838 1.843 1.125.617 1.384-.527.364-3.339.622-6.936 1.477-10.445.771-.448-1.188 1.284-2.179 2.374-2.2.955-.492 2.917-3.075 3.463-1.55z" fill="#333"/>
        <path d="M53.76 9.364c-.84.642-.405-1.001 0 0zM52.548 9.234c-.667 1.152-.819-1.167 0 0zM56.22 4.734c-.56 2.768-1.498-.39-.61.873.313-.235-.035-1.311.61-.873zM58.577 5.001c-1.029 1.44 1.504-.063.01.966-.138.096-.443.281-.621.161-.408-.227.276-2 .611-1.127zM57.908 2.723c.204-2.938 2.383-3.892.456-.877-.12.206.17 1.327-.456.877zM57.298 3.06c-2.319-4.576.64-1.481 0 0zM56.74 10.71c1.45 1.45 2.42 4.147 1.215 5.884-.453-.99.478-2.685-.459-3.838.04-.63-1.82-1.858-.755-2.047z" fill="#333"/>
        <path d="M59.093 16.414c-1.624.346-2.454 1.335-1.188 2.735 1.141 2.32-1.925-.966-1.067-2.117.496-.128 2.256-1.612 2.255-.618z" fill="#333"/>
        <path d="M57.774 19.592c.49 6.413-2.055 12.577-1.717 18.986-.821 2.2-.87 4.92-2.125 6.795-.005-2.132 1.379-4.86 1.64-7.256-.325-6.249 2.264-12.264 1.68-18.525l.26-.138.262.138zM59.108 3.639c2.75-.298 3.523 3.318 4.592 5.26 2.065 4.14-.591 8.664-.191 13.01-.603 4.172-.92 8.358-.84 12.578-.76-1.309-.067-3.924-.252-5.701.617-5.533 1.062-11.11 1.785-16.62-.269-2.73-1.646-5.375-3.235-7.563-.5-.655-1.428-.69-1.86-.964z" fill="#333"/>
        <path d="M62.736 34.41c.136 1.804.306 4.053.753 5.633.671-.032 3.094-1.44 2.445-.453-1.68.955-3.657 1.081-3.08-1.593.045-1.012-1.072-3.199-.118-3.586zM53.992 45.374c-2.217-4.042-6.175 4.924-4.622.694.521-2.465 5.136-2.68 4.622-.694z" fill="#333"/>
        <path d="M49.836 47.266c-2.649 3.008-.105-2.125 0 0z" fill="#333"/>
        <path d="M49.846 48.605c-3.075-.307-7.254 1.672-6.638 5.123 3.951-2.71 2.55.647-.524.187-.825-3.811 4.892-6.899 7.162-5.31z" fill="#333"/>
        <path d="M45.554 52.558c-1.19 1.646-3.352 9.322-2.508 3.425 1.056-.893 1.713-2.775 2.508-3.425z" fill="#333"/>
        <path d="M43.84 57.957c-1.532 5.432-1.473-1.458 0 0zM45.197 58.617c-1.593 1.724-.534 3.673-1.225 3.364-1.128-1.805 1.173-2.348 1.225-3.364zM44.448 63.574c.264-.71.594-1.407 1.077-1.995.127-.14.257-.299.442-.36.192-.026.138.24.107.353-.141.497-.407.947-.664 1.391a5.433 5.433 0 0 0-.316.559c-.082.139-.163.315-.332.36-.168.01-.251-.184-.314-.308z" fill="#333"/>
        <path d="M46.501 61.184c-2.66 3.395 2.534 1.164.093 5.185.173 2.495-.573 5.952-.53 1.233.934-3.153.794-3.755-.892-4.532.546-.357.564-2.34 1.329-1.886zM51.1 69.564c-.554-.125-1.189-.024-1.595.397-.583.595-.778 1.434-1.076 2.186-.097.25-.202.5-.35.725.714-.385 1.5-.61 2.276-.839.69-.182 1.386-.38 2.103-.406.31-.065.33.242.087.355-.213.122-.42.393-.677.346-.72-.083-1.418.184-2.095.388-.532.154-1.062.39-1.625.379-.355.013-.46-.387-.371-.665.073-.347.22-.672.37-.99-.14-.461.153-.914.44-1.25.484-.534 1.098-.981 1.8-1.173.26-.079.659-.048.71.284a.828.828 0 0 1 .003.263zM80.508 11.52c-1.484 1.71-3.048 3.365-4.247 5.295-.704-1.324 2.34-3.435 3.195-4.85.263-.24.842-1.44 1.052-.445zM75.807 17.352c-1.641 4.812-3.209 9.645-5.724 14.093-1.909 5.61-4.05 11.143-6.022 16.722-.83-1.518 1.689-4.847 2.018-7.018 2.063-5.928 4.322-11.746 7.059-17.389.825-1.67 1.25-6.12 2.67-6.408zM63.942 48.142c-.52 2.809-1.47-.416 0 0zM60.79 56.57c-.844 5.004-4.33 9.087-5.01 14.12-.582.882-1.428 5.117-1.803 3.411 1.578-3.681 2.02-7.696 4.023-11.214 1.412-1.732 1.47-5.426 2.79-6.317zM53.728 75.37c-.225 1.795-2.408 3.95-1.602 5.534.796.749 4.469.457 1.941 1.072-1.466.094-3.385-.92-2.496-2.453.571-1.267 1.115-4.137 2.157-4.153z" fill="#333"/>
        <path d="M54.167 74.837c3.432 1.297 2.147 2.282-.404.327l.115-.27.289-.057zM64.106 59.327c-2.82 5.571-3.88 11.866-6.872 17.344-.027-1.7 2.023-4.007 2.28-6.116 1.194-3.86 2.667-7.633 4.278-11.343l.314.115zM57.212 76.987c-.012 1.093-2.23 5.516-2.153 4.187 1.093-1.094 1.192-3.573 2.153-4.187zM67.59 50.073c-1.225 3.155-4.195.586-5.978-.098-.44-.952 2.275.784 3.28 1.287 1.3.393 2.055-.775 2.698-1.189zM61.328 50.054c-1.826 2.122-2.526.786 0 0zM60.464 51.533c-1.686 3.285-3.07 2.013 0 0zM59.073 53.837c4.189-2.38.323 2.103 2.062 2.63.369 1.107-2.374-1.333.125-2.9-.696-.535-2.014 1.142-2.187.27z" fill="#333"/>
        <path d="M62.336 55.664c-1.948 2.724 3.423 2.225 2.236 4.356-.131-2.636-4.812-1.284-2.236-4.356z" fill="#333"/>
        <path d="M64.586 59.36c2.978-2.085.85.975 0 0zM66.409 59.19c.02 3.59 6.426.151 1.727 2.313-.832.153-2.897-2.061-1.727-2.313z" fill="#333"/>
        <path d="M70.146 59.529c.358 4.978 2.074-2.47 3.71.71.458-4.303 3.413 2.654 2.89-2.653.944-3.166 3.426 4.185 3.52-1.76 1.093 1.54-1.86 4.205-2.946 1.043.204 2.108-1.332 5.122-2.458 1.854-.469 3.54-2.252-.523-2.84 1.84-1.292 2.6-2.49.491-1.876-1.034zM79.747 18.507c-2.185 4.94-3.525 10.23-6.364 14.887-2.35 5.557-3.909 11.417-6.218 16.981-.304-1.5 1.626-3.725 1.741-5.569 1.97-6.595 4.795-12.836 7.761-19.021.875-2.483 1.572-5.035 2.771-7.391l.309.113zM80.46 11.369c-.408 2.153-.35 4.356-.639 6.528-.618-1.348.215-4.178.227-6.05l.086-.518.326.04z" fill="#333"/>
        <path d="M79.32 13.17c2.258 1.008-.688.907 0 0zM70.933 39.935c2.428-.61 6.333.934 4.078 3.617 2.457.1 11.315-.982 5.595 2.998 1.688.142 6.067-1.071 7.75 1.326-2.443 1.456-1.219 1.024.335 2.494-1.113 1.9.165-1.278-2.24-.98 1.346-.997 2.308-2.101-.536-2.546-3.125-.369-8 .985-3.499-2.605-1.9-1.678-9.517 1.925-7.016-2.512-.356-1.958-3.665-1.027-4.467-1.792z" fill="#333"/>
        <path d="M87.249 50.983c3.692 1.093 7.22 3.632 1.698 4.625 1.276 1.2 6.627 3.692 2.884 5.601-3.141-.266-5.395.574-2.707 2.894-6.044-1.814 4.873 3.074.229 2.946-1.687-.697-6.737.47-6.692-.293 1.796-1.193 10.897 1.779 5.97-1.663-5.017-2.548 3.02-.17-1.084-2.438-1.127-3.285 7.25.152 4.9-4.221-3.585-1.116-5.007-3.906-.562-4.201.404-1.559-4.507-1.973-4.636-3.25z" fill="#333"/>
        <path d="M84.5 66.662c2.35 1.953-.326 3.479 1.303 5.54-2.153 1.101-6.423-2.398-4.882 1.325-2.427 1.905-6.21 1.124-8.483 0 2.639.352 6.042 1.868 8.387-.413-2-3.524 3.212-.114 4.881-1.22-2.28-1.892.777-2.643-.847-4.714l-.41-.192.05-.325zM72.823 73.77c-1.015 2.427-6.117-2.862-5.207.481-2.183-.329-4.273-1.647-6.644-1.551 2.02 2.28-1.317 3.21-1.308 1.98 3.477 1.769-.793-3.946 3.298-2.008 1.616-.404 3.37 1.69 4.639 1.113-1.497-3.04 4.611 1.665 5.222-.015z" fill="#333"/>
        <path d="M64.77 74.092c-.109 5.008-1.143 9.98-.985 15.002-.908-2.094.11-5.78.204-8.404.42-2.032-.088-5.221.78-6.598z" fill="#333"/>
        <path d="M63.88 88.139c2.439.241 1.087 4.14-.423 3.075 2.275-.244 1.439-2.449.422-3.075zM73.262 74.102c-.593 5.071-.22 10.241-1.327 15.257-.51-2.204.992-5.917.62-8.706.233-2.007-.291-5.235.707-6.551zM72.172 89.196c2.349.346 1.715 4.068.134 2.78 3.127-.366.024-1.87-.134-2.78zM72.227 92.454c-.09 5.125-1.278 10.435-.084 15.47-1.52-1.199-.506-5.256-.731-7.466.244-2.426.05-6.183.815-8.004zM63.537 106.197c-.118 2 2.5 1.505 3.612 2.544-.865.092-4.872-1.066-3.612-2.544z" fill="#333"/>
        <path d="M72.031 107.787c1.055 1.594 3.553 1.682 4.417 3.634-1.085-.172-2.31-2.483-3.948-2.533-.208-.138-1.297-1.048-.469-1.101zM71.885 111.266c.892 2.207-.581 1.774 0 0zM64.15 110.283c1.45 1.935-.257 1.746 0 0zM63.825 91.87c-.524 4.789-.678 9.636-.153 14.427-.853-.994-.435-3.847-.654-5.569.145-2.792-.122-6.684.807-8.859zM59.898 74.943c-.116 4.437.266 8.881.924 13.27-1.588-2.306-1.116-7.917-1.386-11.422.062-.305-.512-2.647.462-1.848zM60.563 88.633c-3.02.456 2.099 4.413-.99 2.403-1.522-.85.517-4.01.99-2.403z" fill="#333"/>
        <path d="M60.905 91.814c.69 5.15-.158 10.31.007 15.475-1.29-.608-.058-5.02-.357-6.888.48-2.855-.165-6.048.075-8.693l.275.106zM68.295 73.774c-.362 5.09 1.912 10.14 1.07 15.158-.876-.143.15-3.846-.582-5.464-.361-3.203-1.376-6.857-.746-9.835l.259.141z" fill="#333"/>
        <path d="M68.877 89.452c-1.793-.588-2.13 3.04-.084 2.195-.502 2.213-3.672-1.99-.762-2.68.349-.056 1.4-.254.846.485zM69.07 92.158c.482 5.382.327 10.93.075 16.358-1.173-1.024.19-4.821-.309-6.863.647-2.764-.872-7.983.235-9.495zM68.984 108.402c-.218 1.987-2.943 2.219-4.002 3.3.843.993 4.094-.701 3.506.54-1.177.62-5.523.263-3.268-1.387 1.3-.643 2.96-1.375 3.523-2.626l.241.174z" fill="#333"/>
        <path d="M68.956 111.589c-.894 1.867 2.274 1.168 3.176.916-.135 1.31-2.343.77-3.393.651-.918.021-.477-2.602.217-1.567zM72.204 110.86c.843.679 5.36.039 3.234 1.004-.795-.215-3.773.134-3.234-1.003zM60.895 110.838c-.92 2.072 3.136-.006 3.763.905-1.227.506-5.458 1.32-4.218-1.159l.295.006.16.248z" fill="#333"/>
        <path d="M60.507 107.692c-2.46.467-5.727 1.065-6.605 3.718 1.915.13 5.201-.778 6.412.212-2.23-.113-5.265.882-6.966-.271.977-2.854 4.54-4.01 7.176-3.952l-.017.292zM76.16 16.841c.053.372-.034.924.395 1.094.406.152.706-.205 1.009-.375.395-.052.216.514.555.582.296.172.57-.114.86-.084.289.113.053.63.412.666.722-.306-.331.497-.493-.083-.057-.154.026-.376-.191-.2-.41.133-.982-.01-1.118-.463.057-.314-.072.101-.258.106-.396.278-1.068.245-1.3-.228-.104-.323-.22-.752-.093-1.048.066-.054.18-.05.222.033z" fill="#333"/>
        <path d="M55.87 5.315a.22.375 0 0 1-.218.375.22.375 0 0 1-.223-.367.22.375 0 0 1 .213-.383.22.375 0 0 1 .227.358M58.736 5.482a.301.321 0 0 1-.297.322.301.321 0 0 1-.305-.315.301.321 0 0 1 .291-.328.301.321 0 0 1 .311.307" fill="#333" fill-rule="evenodd"/>
        <path d="M52.486 72.006c-.225.331-.485.637-.748.938-.364.39-.802.71-1.118 1.143-.117.184-.15.404-.146.617.03.166.216.231.353.29.198.065.408.113.615.06.588-.142 1.109-.464 1.662-.695.166-.088.436-.318.536-.026.16.248-.161.32-.325.4-.398.18-.796.358-1.195.534-.354.136-.725.292-1.113.226-.34-.061-.704-.202-.9-.502-.107-.221-.084-.485-.026-.718.078-.316.288-.574.519-.795.178-.183.372-.352.557-.527.188-.197.384-.385.55-.602.158-.177.291-.375.413-.578.123-.074.412.08.366.235zM46.378 69.645c.313.089.661.11.976.02.582-.2 1.147-.458 1.755-.571.262-.03.527-.155.79-.088.341.095.084.468-.169.414-.147-.071.154.05-.008 0-.534.077-1.069.19-1.568.404-.445.163-.9.359-1.385.305-.264.012-.751-.037-.512-.41.024-.041.068-.087.12-.074zM44.434 62.043c-.159.365-.31.736-.424 1.117-.039.202-.092.409-.068.615.034.182.27.05.324-.056.124-.102.125-.385.324-.353.114.028.288.11.258.25-.113.2-.22.417-.405.56a.67.67 0 0 1-.478.122c-.254-.012-.442-.25-.452-.494-.025-.283.041-.565.115-.836.1-.328.238-.642.355-.963 0-.165.154-.24.29-.158.074.034.19.098.161.196zM43.106 59.77c.078.034.15.015.23.003.084-.013.149-.02.227-.057.132-.059.243-.154.364-.232.108-.07.212-.148.31-.232.113-.088.219-.182.333-.268a.472.472 0 0 1 .152-.097c.14-.074.348.322.209.396-.044.013-.076.04-.111.068-.051.03-.075.06-.12.1-.052.048-.12.078-.173.125-.102.115-.234.195-.36.282-.15.076-.27.197-.43.256a1.625 1.625 0 0 1-.75.084c-.151-.043-.032-.47.12-.428z" fill="#333"/>
    </g>
    <g>
        <path d="M20.93 40.58c5.784-1.916 14.663-2.193 12.109 3.302 2.796.502 9.824-1.223 5.425 3.066 3.867.342 10.193-.035 5.976 2.673.874.557 2.413 1.012.707 1.966 4.893 1.664 6.055 3.158 1.73 4.403 2.5 1.688 8.68 3.025-1.258 5.897.428.786 2.64 1.573-.786 2.359 7.886 3.172.849 4.97-3.774 2.83 6.026 6.42 1.512 6.937-2.752 4.797-1.756 5.015-4.548 4.16-7.548 2.122-3.222 1.949-4.041.16-5.504-.629-1.283 3.373-4.152.082-6.369-.471 1.748 2.132.48 2.518-1.73 2.358-2.66 2.426-4.269-.049-6.368-.235-3.4.523-1.453-1.36-.944-2.595-4.273.77-3.95-.603-1.966-2.752-6.511.78-4.473-2.488-3.302-5.347-1.337-.349-1.49-1.356-.943-2.752-1.907 2.376-2.726 2.432-1.494-1.887-3.25-1.305-.175-4.116.55-6.368-6.621 1.89.71-4.725 3.617-4.796 1.267-2.064 1.48-6.319 5.268-3.145l1.66-5.25c2.182.513 4.388.8 6.981-2.392z" fill="#6c5353" fill-rule="evenodd"/>
        <path d="M21.725 51.37l3.158-36.01 4.046.77-3.165 34.552-.756.984z" fill="#ffe62e" fill-rule="evenodd"/>
        <path d="M30.453 74.163c-1.015 2.427-6.117-2.861-5.208.481-2.183-.328-4.272-1.647-6.644-1.551 2.021 2.28-1.316 3.21-1.308 1.98 3.477 1.769-.792-3.946 3.298-2.008 1.617-.404 3.37 1.69 4.64 1.113-1.497-3.04 4.61 1.665 5.222-.015z" fill="#333"/>
        <path d="M25.666 74.025c-.63 2.89.386 6.437.746 9.544.733 1.57-.294 5.164.583 5.302.841-4.87-1.432-9.77-1.07-14.708zM22.567 74.485c-.808 1.337-.336 4.433-.726 6.406-.087 2.547-1.034 6.126-.19 8.159-.146-4.875.815-9.702.916-14.565zM17.712 75.152c-.426.046-.054 1.704-.103 1.953.251 3.403-.187 8.851 1.289 11.09-.612-4.26-.967-8.576-.86-12.883-.141-.122-.247-.168-.326-.16z" fill="#333"/>
        <path d="M21.74 88.123c.944.608 1.721 2.748-.393 2.986 1.403 1.033 2.66-2.751.392-2.986zM18.287 88.168c-.664-.054-1.7 2.097-.55 2.767 2.87 1.952-1.888-1.89.92-2.332-.083-.293-.217-.423-.37-.435zM26.227 88.841c-.206.004-.436.044-.567.064-2.909.67.261 4.747.763 2.6-2.046.82-1.709-2.7.084-2.129.346-.448.065-.541-.28-.535zM26.7 92.001c-1.107 1.468.413 6.531-.234 9.213.5 1.982-.864 5.666.31 6.66.25-5.267.405-10.65-.075-15.873z" fill="#333"/>
        <path d="M18.719 91.589c-.223 2.567.376 5.668-.07 8.439.278 1.815-.867 6.098.332 6.687-.153-5.014.635-10.024-.006-15.024zM21.69 91.745c-.865 2.111-.616 5.89-.752 8.601.204 1.672-.184 4.442.61 5.407-.49-4.651-.346-9.358.141-14.008z" fill="#333"/>
        <path d="M21.421 105.655c-1.17 1.435 2.554 2.56 3.358 2.47-1.034-1.008-3.468-.528-3.358-2.47zM26.372 107.595c-.563 1.215-2.222 1.924-3.523 2.549-2.255 1.6 2.092 1.947 3.268 1.345.589-1.204-2.663.44-3.506-.524 1.06-1.049 3.784-1.274 4.003-3.201z" fill="#333"/>
        <path d="M18.62 106.823c-2.45-.057-5.762 1.065-6.67 3.836 1.567 1.11 4.352.173 6.42.262.344 1.126 3.157.522 4.093.12a.403.403 0 0 0-.08-.088c.142-.066.125-.479-.475-1.29-.085.59.064.987.228 1.175-1.081-.262-3.925 1.098-3.17-.677l-.15-.24-.274-.006c-.193.403-.24.715-.186.955-1.176-.873-4.145-.03-5.89-.153.816-2.577 3.852-3.157 6.138-3.61v-.002z" fill="#333"/>
        <path d="M21.296 58.025l3.607 1.176-1.381 19.163-3.835-.762z" fill="#ffe62e" fill-rule="evenodd"/>
        <path d="M19.385 77.76l4.22.65-.82 5.31-3.31-.15z" fill="#faa" fill-rule="evenodd"/>
        <path d="M13.877 6.06c.921-1.984 5.862-2.692 1.846-.959-.623.053-1.47 2.065-1.846.96z" fill="#333"/>
        <path d="M14.627 5.135c-.317-.624-2.247-1.682-.935-1.824.004.636 2.219 1.416.935 1.824zM13.48 4.412c-.796.478-3.853 3.857-2.553 1.771.68-.485 1.954-3.097 2.552-1.771z" fill="#333"/>
        <path d="M11.819 7.13c-1.855-.338-3.04 1.892-4.91 1.323-2.534 1.06.017 1.056 1.304 1.447 2.658.924 5.553.114 8.092.846 1.573 1.48.32 1.481-.59.247-3.395-.078-7.091.019-10.38-1.395C5.14 8.343 7.04 7.731 8.112 7.933c1.035-.283 3.486-2.408 3.707-.804z" fill="#333"/>
        <path d="M10.176 9.054c-.954.456-.19-1.063 0 0zM9.017 8.677c-.89.99-.56-1.31 0 0zM13.536 5.03c-1.117 2.593-1.384-.691-.776.728.356-.165.236-1.29.776-.729zM15.789 5.776c-1.304 1.198 1.484.248-.189.948-.155.065-.492.183-.642.03-.351-.307.683-1.902.83-.978zM14.999 3.165c-.708-2.491-2.756-2.918-.552-.672.141.155.095 1.173.552.672zM15.363 3.436c-1.328-4.956.93-1.318 0 0zM14.37 11.102c1.45 1.451 2.42 4.148 1.215 5.885-.454-.99.478-2.685-.46-3.838.04-.63-1.819-1.858-.755-2.047z" fill="#333"/>
        <path d="M16.723 16.807c-1.624.346-2.455 1.335-1.189 2.735 1.142 2.32-1.925-.965-1.067-2.117.497-.128 2.257-1.612 2.256-.618z" fill="#333"/>
        <path d="M15.404 19.985c.49 6.413-2.056 12.578-1.717 18.986-.822 2.2-.87 4.92-2.125 6.795-.005-2.132 1.378-4.86 1.64-7.256-.326-6.249 2.264-12.264 1.679-18.525l.261-.138.262.138zM16.737 4.032c2.75-.298 3.524 3.318 4.593 5.26 2.065 4.14-.592 8.664-.192 13.01-.603 4.172-.919 8.358-.84 12.578-.76-1.309-.067-3.924-.251-5.7.617-5.534 1.062-11.11 1.785-16.62-.269-2.73-1.646-5.376-3.235-7.564-.5-.655-1.428-.69-1.86-.964z" fill="#333"/>
        <path d="M20.351 34.3c-.054 1.807-.123 4.063.155 5.68.67.04 3.229-1.104 2.48-.192-1.772.773-3.752.69-2.895-1.91.151-1-.728-3.293.26-3.578zM11.622 45.767c-2.217-4.041-6.175 4.924-4.622.694.52-2.465 5.135-2.68 4.622-.694z" fill="#333"/>
        <path d="M7.465 47.659c-2.648 3.008-.104-2.125 0 0z" fill="#333"/>
        <path d="M7.476 48.998C4.4 48.691.222 50.67.838 54.121c3.95-2.71 2.549.647-.525.187-.824-3.811 4.893-6.899 7.163-5.31z" fill="#333"/>
        <path d="M3.184 52.951C1.993 54.597-.168 62.273.675 56.376c1.056-.893 1.714-2.775 2.509-3.425z" fill="#333"/>
        <path d="M1.469 58.35c-1.531 5.433-1.472-1.458 0 0zM2.826 59.01c-1.592 1.724-.534 3.674-1.225 3.364-1.128-1.805 1.174-2.348 1.225-3.364zM2.078 63.967c.264-.71.593-1.407 1.077-1.995.127-.14.257-.299.442-.36.191-.026.138.24.107.353-.142.497-.407.947-.665 1.391a5.434 5.434 0 0 0-.315.56c-.083.138-.163.314-.332.36-.168.008-.252-.185-.314-.31z" fill="#333"/>
        <path d="M4.13 61.577c-2.66 3.395 2.534 1.164.094 5.185.172 2.495-.573 5.952-.531 1.233.935-3.153.795-3.755-.892-4.532.547-.357.564-2.34 1.33-1.886zM8.729 69.957c-.554-.125-1.188-.024-1.595.397-.583.595-.778 1.434-1.075 2.186-.098.25-.203.5-.35.725.714-.385 1.5-.61 2.275-.839.69-.182 1.387-.38 2.103-.406.31-.065.331.242.088.355-.214.122-.42.393-.677.346-.72-.083-1.418.184-2.096.388-.532.154-1.062.39-1.625.379-.355.013-.46-.387-.37-.665.073-.347.219-.672.37-.99-.141-.461.152-.914.44-1.25.484-.534 1.098-.981 1.799-1.173.261-.079.66-.047.71.284a.828.828 0 0 1 .003.263zM27.784 9.237c-.948 2.055-1.988 4.08-2.601 6.269-1.045-1.075 1.29-3.951 1.715-5.55.186-.302.407-1.616.886-.72zM24.897 16.148c-.234 5.079-.39 10.157-1.565 15.13-.269 5.92-.78 11.83-1.118 17.738-1.22-1.226.27-5.125-.02-7.301.327-6.269.873-12.486 1.927-18.669.327-1.834-.507-6.225.776-6.898zM22.092 49.025c.286 2.843-1.528.011 0 0zM21.416 57.998c.587 5.04-1.622 9.935-.871 14.957-.313 1.01.056 5.312-.78 3.78.488-3.976-.207-7.955.735-11.892.873-2.057-.103-5.62.916-6.845zM19.88 78.022c.285 1.787-1.21 4.464.006 5.762.973.496 4.418-.808 2.162.487-1.38.5-3.507.06-3.081-1.66.195-1.375-.083-4.283.913-4.589z" fill="#333"/>
        <path d="M20.153 77.388c3.658.287 2.698 1.592-.297.426l.035-.292.262-.134zM25.37 59.72c-1.154 6.138-.415 12.479-1.76 18.573-.5-1.625.825-4.411.483-6.509.07-4.04.432-8.074.944-12.086l.333.023zM23.677 78.603c.293 1.053-.603 5.919-.9 4.621.745-1.355.148-3.763.9-4.62zM26.134 49.863c-.296 3.37-3.865 1.732-5.767 1.573-.69-.79 2.403.118 3.509.32 1.358.015 1.757-1.317 2.258-1.893zM18.958 50.447c-1.826 2.123-2.527.786 0 0zM18.093 51.926c-1.686 3.285-3.07 2.013 0 0zM16.702 54.23c4.19-2.38.324 2.103 2.063 2.63.368 1.107-2.374-1.333.124-2.9-.696-.535-2.014 1.142-2.187.27z" fill="#333"/>
        <path d="M18.475 55.787c-1.787 2.832 3.545 2.024 2.483 4.22-.283-2.625-4.877-1.005-2.483-4.22zM27.776 59.922c.357 4.978 2.073-2.47 3.709.71.458-4.303 3.414 2.654 2.891-2.653.944-3.166 3.425 4.185 3.519-1.76 1.093 1.54-1.86 4.205-2.945 1.043.203 2.108-1.332 5.122-2.459 1.854-.469 3.54-2.252-.523-2.84 1.84-1.291 2.6-2.49.491-1.875-1.034zM29.002 16.158c-.72 5.353-.53 10.806-1.958 16.072-.707 5.992-.568 12.054-1.233 18.04-.711-1.354.522-4.03.118-5.833.051-6.883 1.023-13.664 2.146-20.431.148-2.628.105-5.273.6-7.87l.327.022zM27.696 9.104c.209 2.181.879 4.281 1.208 6.448-.97-1.123-.96-4.073-1.47-5.874l-.063-.521.325-.053z" fill="#333"/>
        <path d="M27.104 11.152c2.449.338-.408 1.063 0 0zM26.855 39.441c.221-.055 2.618.145 2.858.124 2.393-.205 4.977 1.942 2.927 4.38 2.457.101 11.315-.982 5.595 2.998 1.689.142 6.068-1.071 7.75 1.326-2.442 1.456-1.218 1.024.336 2.494-1.113 1.901.164-1.278-2.241-.98 1.347-.996 2.309-2.101-.535-2.546-3.126-.369-8 .985-3.5-2.605-1.9-1.678-9.516 1.925-7.015-2.512-.309-1.696-2.332-2.153-3.57-2.214-2.843-.139-2.498-.362-2.605-.465z" fill="#333"/>
        <path d="M44.878 51.376c3.692 1.093 7.22 3.632 1.699 4.625 1.276 1.2 6.626 3.692 2.883 5.601-3.14-.266-5.394.574-2.707 2.894-6.044-1.814 4.873 3.074.23 2.946-1.687-.697-6.738.47-6.692-.293 1.795-1.193 10.897 1.78 5.97-1.662-5.017-2.549 3.02-.17-1.085-2.44-1.126-3.284 7.251.153 4.9-4.22-3.585-1.116-5.007-3.906-.561-4.2.404-1.56-4.508-1.974-4.637-3.251z" fill="#333"/>
        <path d="M42.129 67.055c2.35 1.953-.326 3.479 1.303 5.54-2.152 1.101-6.422-2.398-4.881 1.325-2.428 1.905-6.21 1.124-8.483 0 2.638.352 6.042 1.868 8.386-.413-2-3.524 3.212-.114 4.882-1.22-2.281-1.892.777-2.643-.847-4.714l-.41-.192.05-.325zM30.892 74.481c-.593 4.921-.22 9.938-1.327 14.804-.51-2.138.992-5.741.62-8.447.232-1.947-.292-5.08.707-6.357zM29.802 89.128c2.348.335 1.715 3.947.133 2.697 3.128-.356.025-1.815-.133-2.697zM29.857 92.288c-.09 4.974-1.279 10.126-.085 15.012-1.519-1.163-.505-5.1-.73-7.245.243-2.354.049-5.999.815-7.767z" fill="#333"/>
        <path d="M29.661 107.166c1.055 1.547 3.552 1.633 4.416 3.526-1.085-.167-2.31-2.409-3.948-2.457-.208-.134-1.296-1.017-.468-1.069zM29.514 110.542c.893 2.141-.58 1.721 0 0z" fill="#333"/>
        <path d="M26.585 110.856c-.893 1.811 2.275 1.133 3.177.889-.135 1.271-2.343.747-3.394.631-.917.021-.476-2.525.217-1.52zM29.833 110.149c.844.658 5.36.037 3.234.973-.795-.208-3.772.131-3.234-.973zM25.093 15.56c.154.342.226.896.685.939.432.033.62-.393.864-.64.364-.162.35.432.695.403.332.082.516-.269.804-.32.307.027.226.589.58.524.608-.495-.18.57-.497.058-.097-.132-.079-.368-.24-.14-.355.243-.944.265-1.202-.132-.032-.318-.04.118-.217.174-.303.377-.958.533-1.312.143-.19-.28-.422-.66-.383-.98.049-.07.16-.099.223-.03z" fill="#333"/>
        <path d="M13.074 5.526a.22.375 11.877 0 1-.29.322.22.375 11.877 0 1-.142-.405.22.375 11.877 0 1 .287-.33.22.375 11.877 0 1 .148.397M15.845 6.28a.301.321 11.877 0 1-.357.253.301.321 11.877 0 1-.233-.37.301.321 11.877 0 1 .352-.262.301.321 11.877 0 1 .241.365" fill="#333" fill-rule="evenodd"/>
        <path d="M10.116 72.4c-.225.33-.486.636-.749.937-.363.39-.802.71-1.117 1.143-.118.184-.15.404-.146.618.03.165.216.23.353.29.197.065.408.112.615.058.588-.141 1.108-.463 1.662-.694.166-.088.436-.318.536-.025.16.248-.162.32-.325.4-.398.18-.797.357-1.196.533-.354.136-.725.292-1.113.226-.34-.061-.704-.202-.9-.502-.107-.221-.083-.485-.025-.718.078-.316.287-.574.518-.795.179-.183.372-.352.558-.527.187-.197.384-.385.549-.602.159-.177.292-.375.413-.578.124-.074.413.08.367.235zM4.008 70.038c.313.089.66.11.975.02.582-.2 1.147-.458 1.756-.571.261-.03.526-.155.789-.088.342.095.085.468-.168.414-.147-.071.153.05-.008 0-.535.077-1.07.19-1.569.404-.444.163-.9.359-1.385.305-.264.012-.75-.037-.512-.41.025-.041.068-.087.121-.074zM2.064 62.436c-.16.365-.31.736-.425 1.117-.038.202-.092.409-.067.615.033.182.27.051.323-.056.124-.102.126-.385.325-.353.114.028.288.11.257.25-.113.2-.22.417-.405.56a.67.67 0 0 1-.478.122c-.253-.012-.442-.25-.452-.494-.024-.283.042-.565.116-.836.1-.328.238-.642.355-.963-.001-.165.153-.24.29-.158.074.034.19.098.16.196zM.736 60.162c.078.035.15.016.229.004.085-.013.15-.02.227-.057.133-.059.244-.154.364-.232.109-.07.213-.148.311-.231.112-.09.218-.183.332-.269a.472.472 0 0 1 .152-.097c.14-.074.349.322.209.396-.043.013-.076.04-.11.068-.052.03-.075.06-.12.1-.052.048-.121.078-.174.125-.101.115-.233.195-.36.282-.149.076-.27.197-.43.256a1.624 1.624 0 0 1-.75.084c-.15-.043-.032-.47.12-.428zM15.68 3.22c.592-.655 1.043-1.526 1.926-1.834.285-.076 1.027-.443 1.027.047-.277.299-.767.098-1.089.377-.477.24-.834.655-1.118 1.095-.107.293-.618.892-.746.315z" fill="#333"/>
        <path d="M11.384 74.632c.632.374 1.156 1.023 1.911 1.123.812.046 1.644.137 2.448-.023.328-.031 1.249-.713.985.046-.403.38-1.058.376-1.595.45-.715.006-1.439.004-2.146-.101-.656-.107-1.013-.709-1.596-.961-.26-.124-.395-.466-.007-.534zM25.32 61.314c.16.717 1.274.846 1.617.203.38-.369.413-1.049.671-1.386.467.175-.03.785-.136 1.1-.25.54-.744 1.113-1.402 1.022-.441.01-1.364-.62-.904-1.02a.166.166 0 0 1 .154.081z" fill="#333"/>
    </g>
</svg>
