<svg xmlns="http://www.w3.org/2000/svg" viewBox="0 0 105.83334 177.27083" height="670" width="400">
    <g fill="#ccc">
        <path d="M54.14 54.444c9.598-.546 19.245-.83 28.852-.705 9.758 1.565 19.608.92 29.383 1.57.06.048 4.85-1.07 3.059 1.612-5.158-.168-10.27-.374-15.839-.536-10.035.187-19.939-2.106-29.991-1.01-4.458-1.12-13.32 2.206-15.464-.93zm-62.558.636c9.347-.145 18.743.16 28.031.445 4.115 1.95-3.26 1.298-4.842 1.26-7.7-.134-15.4-.543-23.1-.284l-.09-1.42zM48.911 82.8c16.228-1.656 32.71-.288 48.868-.1 2.057.723 10.602-1.004 8.832 1.614-10.64-.692-21.35-.476-32.189-.931-8.454-.035-16.919-.39-25.355.67L48.91 82.8z"/>
        <path d="M107.681 83.42c1.977 9.067-1.786 18.469-2.532 27.618.033 7.158-.671 14.146-1.96 21.164.722 4.405-3.506 5.532-1.315-.007.67-7.28 2.656-14.306 2.302-21.754.92-8.501 3.585-16.953 3.08-25.514l-.463-.985.888-.521zm-60.466-3.26c13.127-.587 26.237-1.769 39.372-.982 8.325.161 16.679.647 24.923.975-2.28 2.48-9.278.255-13.322.56-13.695-.552-27.44-1.116-41.136.081-2.824-.657-8.337 1.185-9.837-.634zm65.675-.216c-.918 13.29-1.7 26.68-4.052 39.794.326 5.51-1.96 10.798-1.38 16.284-3.315.99-.661-7.174-.513-10.088.625-9.393 3.074-18.612 3.346-28.097.792-5.94 1.21-11.925 1.512-17.893h1.087zM48.973 84.09c-.754 5.212-.565 11.228-1.796 16.672-1.479 3.432.11 14.178 1.115 5.266-.544-6.666 3.642-17.092.681-21.939zm-2.088-2.738c-5.677.615.662-3.58 0 0z"/>
        <path d="M44.958 80.817c-.983 7.66-.732 16.006-1.11 23.969-.307 7.417 2.46 3.99 1.29-1.269.148-7.51.389-15.015.829-22.52l-1.008-.18z"/>
        <path d="M38.623 77.626c3.062-1.167 12.918 5.819 5.128 3.107-1.465-1.379-6.232-.486-5.128-3.107z"/>
        <path d="M39.537 77.479c10.687-.612 21.384-.62 32.065-.144 3.62-.41 7.249-.437 10.874-.322.945.218 1.291.586.502 1.237-9.306.464-18.617.322-27.95-.126-4.513-1.03-12.98 2.234-15.491-.645z"/>
        <path d="M38.938 78.12c-.733 2.454-.574 5.363-.331 8.344.42.336.847.542 1.317.065a35.125 35.125 0 0 0-.31-2.948c-.6-1.078 1.5-6.06-.676-5.462zM98.8 84.118c-.705 6.7-.648 13.49-1.788 20.166.294 7.137-1.759 14.104-1.772 21.23.097 1.843-.89 6.772-1.803 3.161a892.252 892.252 0 0 0 2.407-21.127c.18-7.656 1.68-15.198 1.666-22.876l.166-.779 1.125.225z"/>
        <path d="M94.288 128.737c1.249 3.507 5.05 2.902 7.035 5.356 3.286 2.026 1.07 3.5-.987.415-1.42-1.584-9.45-2.968-6.048-5.77zm8.847 6.776c6.18-1.566 6.706 4.25 0 0zM55.48 40.065c-.571 7.682-.543 14.988-.907 22.656 1.454 4.613.042 9.284.006 13.783-2.414 1.102-1.379-2.492-1.36-3.825 1.463-4.907-.74-9.954.319-14.965.036-6.095.32-11.78.985-17.827zM54.126 84.94c-1.018 5.346-1.492 11.035-1.807 16.576-1.403 5.162-1.729-5.671-.594-7.251 1.41-2.206-1.206-10.578 2.4-9.326z"/>
        <path d="M61.559 72.165a99.516 99.516 0 0 0-6.195-.36c-.588.057-1.54.284-1.466-.114l.257-1.392c1.592.19 3.215.333 4.853.461zm22.851-1.522l1.008-.884c.352.031.704.063 1.055.096-.338.59-.935 1.215-1.694 1.8-.254-.322-.62-.95-.369-1.012zM72.731 72.33l-4.971.49c2.95.352 5.9.74 8.853 1.076 2.2.678 5.173-.279 7.335-1.66l-2.81.07c-2.742.708-6.2.585-8.407.024zM61.869 39.79c-.003.864.01 1.73.042 2.597-.878 3.68-1.24 7.763-1.617 11.297-2.166-.855-.46-5.269-.306-7.35.507-2.193.704-4.42.813-6.659zM59.99 56.065c-.834 3.431 1.266 8.961-.06 12.064l-1.105-.046c-.21-1.788.537-4.068-.085-5.887.166-1.745-1.301-6.794 1.25-6.13z"/>
        <path d="M59.84 72.803c.236 1.471.246 2.407.136 2.947-.174.846-.644.725-1.012.177-.457-.68-.58-3.866.037-4.825.226-.352.262.484.777.24zM59.053 84.1c-.086.256-.157.663-.219 1.173-.27 2.238-.516 16.37-.946 18.278-.263 1.166-.654 1.476-1.29-.04.628-1.766.228-16.228 1.064-18.322.278-.697.71-1.124 1.391-1.09z"/>
        <path d="M57.704 104.157c11.592-.767 22.204 5.188 33.683 5.495 2.067.183 4.557 2.523.977 1.664-3.388-1.387-7.262-.646-10.742-1.893-7.938-1.65-15.652-4.49-23.872-4.389l-.046-.877zm-5.822-1.215c1.062 1.384-.42 4.542-1.035 2.29.218-.813-.876-2.987 1.035-2.29z"/>
        <path d="M52.793 104.905c3.598-2.946 7.994-.537 1.66.472l-1.262.509-.398-.98zM15.294 153.65c9.243-1.876 18.96.159 28.254-1.47 5.599.867 11.54 1.71 17.099 1.107-1.55-2.628-.878-10.306-1.161-14.93.082-6.501.184-13.644 1.115-19.744.189-.57-8.18.003-11.096-.308-8.242-.173-16.377 1.62-24.623 1.471-3.094.452-6.47.237-9.379-.104 2.492.917-.142 9.889-.941 13.473-1.59 6.863-1.417 13.925-1.45 20.88-.23 1.043 3.716-2.1 3.673.92-1.784.52-6.476 1.514-4.987-1.51-.761-9.675.825-19.44 3.163-28.839-.46-3.49-.22-7.835 4.07-6.06 8.585-.107 17.17-.607 25.71-1.566 5.577.035 11.169.14 16.738.32 1.274 2.533-.434 5.966-.14 8.807-.354 9.328-.494 18.854.352 28.185-2.856 1.655-6.8.12-10.007.564-5.36-1.294-10.725-1.143-16.173-.6-5.421-.39-14.102.102-18.955.652-.984-.108-.443-1.015-1.262-1.248z"/>
        <path d="M40.777 108.81c3.147-.234 6.282-.223 9.392.595 1.875 2.568 5.677 2.23 7.163 5.185 2.53 1.36 3.517 5.346.378 2.308-1.844-3.331-5.587-4.219-8.282-6.39-2.803-.619-5.615-.674-8.434-.518zm-10.322 2.073c-1.645.082-3.291.09-4.938-.047-5.402.935-10.84-.267-16.251.014 1.01-.216 1.512 2.738 3.082 3.242.32 1.652 5.055 3.074 2.915 4.479-1.81-2.553-8.205-5.469-6.407-8.897 5.98-.338 12.017.88 17.983-.049 1.819.156 3.64.117 5.459-.008z"/>
        <path d="M9.075 110.386c-.055 8.577.461 17.24-1.563 25.636.265 2.75-2.06 5.59-1.419 7.682 2.29 3.723 3.391 8.136 6.668 11.193-2.28 2.655-5.356-5.46-6.454-7.64-2.265-2.96-2.015-6-.472-9.233 1.487-7.67 2.334-15.435 1.966-23.296.766-1.11-1.55-5.454 1.274-4.342zM31.57 89.062c-6.142-.047-12.513-2.097-18.665-2.494-8.36-1.088-16.654-3.044-25.153-2.524l7.363-1.285c8.98 1.21 17.878 2.623 26.86 3.827 3.033.543 6.991.727 9.973.964.555.563.39 1.063-.377 1.512zm9.912-24.675c.95.02 1.9.024 2.85.01 2.705.718 6.01.728 7.952 2.793-.54 1.613-2.688-.78-4.032-.61-2.281-.531-4.6-.896-6.942-1.156zm-4.625 2.376c.596.067 1.193.141 1.789.222 4.217-.997 8.751-.258 13.139-.339l-.078 1.25c-4.76-.288-9.424-.156-14.007.424a47.22 47.22 0 0 0-1.781-.28zm-6.915.757c-7.093-.32-14.235.18-21.3-.982-5.262.27-.695-3.293 2.421-2.527 2.641-.446 5.299-.645 7.968-.692l-.047.892c-3.677-.095-7.626 1.098-11.445 1.492-2.81-1.164 6.55.14 8.634.27 3.196.034 6.386.04 9.57.111zM5.297 36.42c5.787-1.15 11.654-2.27 17.514-3.031 6.722-.14 13.465-.165 20.167-.86 9.496-.81 19.034-.25 28.522.349 8.582.02 17.354.534 25.68 2.227 0-.022 2.678.385 2.211.283-.932.533.482-3.789.45-5.178.14-2.975.969-5.266 1.563-8.243.49-1.203 1.465-5.845 2.479-4.062-3.023-.553-6.531-1.4-9.831-1.21-4.643-.378-9.21-1.502-13.901-1.28-4.723.073-9.416-.429-14.117-.604-2.33-.09-6.83-.166-10.033-.197-6.569-.022-13.188-.728-19.696.395-3.572.219-6.411.832-10.062 1.491-2.557.395-4.377 1.139-7.106 1.59-3.995.518-8.046 1.232-11.88 2.48-.926.416-3.923 1.222-4.094 1.632-.048 2.834.973 5.492 1.406 8.21.093 2.32 2.168 5.457 1.326 7.272-2.717-.187-1.689-5.043-2.846-7.042-.478-2.8-1.554-5.826-1.448-8.493.171-2.091 3.064-2.052 4.73-2.848 2.822-1.095 6.557-1.716 9.037-2.234 4.906-.516 9.565-2.154 14.463-2.808 3.547-.673 7.134-.837 10.725-1.35 9.13-.075 18.255.302 27.397.492 5.538.494 11.098.524 16.653.689 4.029.286 7.981 1.416 12.048 1.206 2.56.68 6.226-.004 8.057 1.878-.333 2.075-1.842 4.047-1.947 6.327-.533 2.75-1.268 5.555-1.41 8.425-.334 1.526-.136 6.052-2.537 4.909-.12.236-3.168-.444-4.204-.73-11.154-2.278-22.628-1.74-33.93-2.692-12.108-.63-24.18 1.341-36.283 1.123-4.411.172-8.245 1.038-11.884 1.627-1.934-.223-6.648 2.453-7.219.257z"/>
        <path d="M8.914 21.272c.686 1.492.242 6.017-.251 2.646.33-.68-.793-2.6.251-2.646z"/>
        <path d="M6.357 21.522c1.35-.338 7.096-1.72 3.176-.063-.699-.117-3.551 1.63-3.176.063z"/>
        <g stroke-width="1.483">
            <path d="M11.55 20.027c.526 2.122.467 6.69-.244 2.272.343-.5-.936-2.503.245-2.272zm1.647-.041c-.178 1.017.138 3.692.282 3.922-.536.774.094-1.136-.34.553.077-.511.212-.905.02-.022.112-.55.113-.757-.004.023.444-1.614-.325.623-.277-.519.13-.348-.761-4.087.319-3.957z"/>
            <path d="M11.41 22.414c1.435-1.488 3.446.37 0 0z"/>
        </g>
        <g stroke-width="1.483">
            <path d="M15.523 19.874c-2.438-.182-.79.87-.918 2.91-.435 1.305 2.4-.986 1.233.66-1.981 1.475-1.874-1.165-1.925-2.58-1.58-1.454 1.938-2.14 1.61-.99z"/>
            <path d="M14.171 21.478c3.2-1.117.036 1.785 0 0z"/>
        </g>
        <path d="M6.826 34.371c-.05-1.891-1.31-3.708-.933-5.574 1.215-1.512 4.512-.1 2.897 1.956-1.328 1.848-1.872-.458.011-.126 1.65.468 1.208 3.34-.383 3.632-1.55 1.038-1.766-.951-.111-.736 1.192-.164 1.342-2.607-.05-2.224-1.649.01.09-.736.421-1.404.27-1.624-3.072-1.522-2.346.082.126 1.301 1.384 3.561.494 4.394zm3.723-6.304c.552 1.434.571 3.732.704 4.897.445-.175 2.029-.273 2.67-.768.67.071.25 1.013-.286.886-1.116.355-3.383 1.419-3.036-.936.224-1.276-.831-3.325-.052-4.079z"/>
        <path d="M12.572 27.222c.276 1.355.455 3.644 1.94 3.924 1.037-1.462.089-3.796.431-5.141.843-.959.515 2.847.64 3.787.253 2.383-2.34 2.708-2.809.557-.09-.707-1.359-3.082-.202-3.127z"/>
        <g stroke-width="1.483">
            <path d="M19.049 25.356c-2.755-.448-2.942 1.498-2.13 3.937-.565 2.198.354 2.48 1.915 1.722.866.612-.769 1.188-2.193 1.162-.834-1.796.166-4.212-.686-6.162.112-1.636 2.17-.908 3.153-1.386l-.061.727z"/>
            <path d="M16.446 28.697c1.53-1.158 2.398.803.52.606-.338-.003-.747.507-.52-.606z"/>
        </g>
        <path d="M21.663 30.976c.192-2.02-.4-4.047-.586-6.055-.892-1.881 2.147-1.313 3.004-1.429 1.182-.05 2.29-.212 1.763.608-1.526.184-3.147-.153-4.68.247.683-1.036.565 2.326.704 3.072-.177.499 1.127 4.062-.205 3.557z"/>
        <path d="M21.472 27.138c.72.146 1.886-.7 1.917.386-.446-.024-2.413.791-1.917-.386zm3.747-.864c-1.572 1.21.364 4.816 1.536 2.336 1.127-1.965-1.146-2.126-2.04-2.599 2.002-1.596 3.71 1.692 2.256 3.404-1.921 2.455-4.055-1.88-2.18-3.438l.054-.108.374.405z"/>
        <path d="M28.952 25.564c-.89.985-1.082 4.526.932 3.416 2.39-1.672-2.841-3.688-.687-3.737 2.255.494 2.314 4.749-.248 4.66-1.773-.27-1.196-4.93.002-4.339z"/>
        <g stroke-width="1.483">
            <path d="M28.677 23.662c1.825-.513 3.762-.654 5.576-1.19.173 1.644-2.715.847-3.688 1.445-.573-.24-1.942.882-1.888-.255z"/>
            <path d="M31.561 23.993c-.261 1.804.521 4.01.187 5.555-1.077.383-.187-1.975-.646-2.611.154-.655-.722-3.577.459-2.944z"/>
        </g>
        <g stroke-width="1.483">
            <path d="M34.963 24.716c-1.52.354-2.848-.071-1.851 2.04.311 1.03-.727 2.719.658 2.213 2.29-.063-.253 1.496-1.181.497-.185-1.35.132-2.808-.309-4.152-.316-1.079 3.125-1.746 2.683-.598z"/>
            <path d="M32.663 26.962c2.87-1.513 1.806 1.62 0 0z"/>
        </g>
        <path d="M35.38 29.083c.869-1.507-1.162-4.85.452-5.48 2.582-.18 4.356 4.072 2.004 5.676-.618.246-3.248.498-2.018-.505 1.21.33 2.956-.32 2.592-1.996.135-1.846-2.382-2.537-2.656-2.835.008 1.165.336 3.086.196 4.495 1.376 1.14-.965.573-.57.645zm6.138-.723c-.36-2.01-1.214-4.051-1.081-6.163 1.69-3.044 6.188.379 3.26 2.714-1.847 2.27-1.96-1.152.014.468 2.225.9.967 4-1.355 3.144-1.34-.482.07-1.098 1.445-.905 1.539-.409-.646-2.22-1.428-1.928-1.07-1.116 2.088-.946 1.717-2.54.472-2.082-3.508-1.97-3.11-.096-.298 1.622 1.806 5.117.538 5.305z"/>
        <path d="M46.344 24.864c-1.4 1.24.316 3.69 1.696 2.61 2.347-3.144-3.336-2.094-1.856-3.29 2.371-1.105 3.804 3.003 1.772 4.18-2.155 1.038-3.836-3.489-1.612-3.5z"/>
        <path d="M50.664 24.25c-1.026.867-1.414 3.915.53 3.491 1.867-.514 1.038-4.088-.824-3.409-1.041-.996 1.914-1.036 2.083.268 1.207 1.744-.668 4.982-2.582 3.43-1.114-.681-.288-4.644.793-3.78z"/>
        <path d="M53.224 28.15c.06-1.853-.447-3.696-.249-5.584-.583-2.307 3.607-2.153 4.122-.458.18 1.466-1.103 2.789-2.433 2.722.222-1.83 2.594.543 2.415 1.737-.01 1.85-2.509 1.993-3.71 1.576.125-1.423 2.274.004 3.06-1.12.566-1.69-1.99-1.906-1.733-2.915.967.252 2.733-1.516 1.373-2.297-.886-.286-3.22-.599-2.523.699-.193 1.93.419 3.834.17 5.738l-.495-.098zm13.339-7.06c-2.32-1.766-3.79.373-1.259 1.778 2.688 1.612 1.264 6.546-1.894 5.722-2.264.111-1.177-1.691.564-.754 2.387.253 3.018-3.354.986-4.494-2.8-1.073-1.57-5.06 1.248-3.076.307.221 1.05.082.355.825z"/>
        <g stroke-width="1.483">
            <path d="M67.77 21.926c-.087 2.268.343 4.565-.06 6.808-1.008-.587.14-3.056-.356-4.275.095-.72-.513-2.739.417-2.533zm2.83-.966c.014 2.701-.472 5.383-.73 8.067-1.248-.27.055-2.743-.138-3.96.366-1.212.146-3.473.868-4.107z"/>
            <path d="M67.455 24.64c.958.616 3.68-1.01 3.292.811-.82-.308-3.88.77-3.292-.81z"/>
        </g>
        <path d="M72.42 24.98c-.95.96-1.38 3.668.422 3.736 1.975.234 1.95-4.45-.199-3.524-.106-2.163 3.711.8 1.958 2.809-.274 2.362-3.845 1.679-3.558-.56-.134-.717.589-3.455 1.377-2.46z"/>
        <g stroke-width="1.483">
            <path d="M78.64 20.944c-2.128-.834-2.108.464-1.868 2.43.053 1.759-.669 3.845-.976 5.35-.013-.27 2.884-.613 2.658.088-.318.84-3.84 1.177-3.214-.61.91-2.453 1.003-5.064 1.013-7.664.2-.71 3.104-.663 2.387.406z"/>
            <path d="M76.427 24.454c1.05-.77 2.865.597 1.227.8-.438-.1-1.887.24-1.227-.8z"/>
        </g>
        <path d="M86.456 21.287c-.835-1.94-5.813-2.195-4.067.522 1.284 2.095 3.582 4.108 3.4 6.815-1.091 1.97-3.611 1.145-5.273.703-.147-1.523 1.986-.043 3.09-.32 3.298-.144.355-3.843-.6-5.28-2.26-1.586-2.17-5.4 1.227-4.668.461.242 3.357 1.387 2.223 2.228z"/>
        <g stroke-width="1.483">
            <path d="M87.12 23.682c-.239 2.118.263 4.604-.389 6.553-1.03-1.03.199-3.702-.25-5.304.081-.49-.27-1.92.638-1.249zm2.715.021c-.62 1.553.079 7.292-1.398 6.635.42-1.88.14-5.865 1.398-6.635z"/>
            <path d="M86.554 26.83c1.438-.608 4.706 1.367 1.47.952-.474-.313-2.044.346-1.47-.951z"/>
        </g>
        <path d="M91.918 25.287c-1.568 1.176-1.605 5.317.917 4.319 1.329-.958 1.373-3.95-.591-4.115-2.182-.986 1.333-1.142 1.715.295 1.147 1.786-.258 5.779-2.63 4.563-2.048-1.004-1.112-4.359.287-5.56l.303.497z"/>
        <path d="M94.258 30.984c.794-1.946.644-4.202.926-6.291.188-.923-1.09-3.162.53-3.181 2.382-.526 4.996 1.805 3.45 4.38-.534.682-3.455 2.118-3.552.654.558-.736 2.094-.188 2.875-.941 1.923-2.465-1.763-3.664-2.972-3.388.23.83.471 2.955.174 4.184-.365 1.146.117 5.528-1.43 4.583z"/>
        <g stroke-width="1.698">
            <path d="M57.208 23.795c.433.799 1.558 1.728 1.962 2.316-.98-.112.372-1.123.554-1.702.214-.546.659-1.616.953-.712-.47.943-.993 1.95-1.692 2.789-.541-.043-.98-.922-1.495-1.457-.098-.347-1.338-1.149-.282-1.234z"/>
            <path d="M59.241 26.354c-.013.87-.134 2.77-.255 3.19-.23.642-.665.28-.472-.847.528-.54-.46-2.52.727-2.343z"/>
        </g>
        <path d="M50.908 106.287c-1.947-.11-1.74-1.026-2.73-.83-.862-1.534.905-1.554 1.493-.82-.038.488 2.668-.103 1.237 1.65zm10.491-65.698c-5.716.956-11.43-.358-17.199.091-8.327.058-16.654.168-25.004.46-8.64.59-17.323-.076-25.98-.393l-5.039-1.59c8.691.518 17.371 1.24 26.095 1.023 8.068-.099 16.111-.49 24.195-.406 6.59-.314 13.213.138 19.755.146.853.432 3.592-1.246 3.177.669z"/>
        <path d="M101.618 76.614c.506.09 1.014-.107 1.52-.013 1.38-.11 1.565-.076 2.012-.046.469.338.227 1.138-.258 1.231-.37.102-.756.153-1.138.112-.395-.007-.79-.032-1.184-.05-.281-.048-.567.11-.843.01-.178-.11-.097-.352-.135-.525-.021-.24-.04-.485.026-.719z" fill-opacity=".883"/>
    </g>
    <g fill="#ccc">
        <g stroke-width="1.483">
            <path d="M13.062 70.552c-1.084-.267-4.145 1.295-1.595 1.451 1.654.237 3.434.607 5.061.35-.092-1.006-1.55-1.5-2.435-1.625-.669.177-2.989-.217-1.207-.578 1.557-.16 3.225.338 4.166 1.638.428 1.859-2.232 1.108-3.295 1.083-1.283-.325-3.299.048-3.993-1.248.366-1.214 2.631-1.83 3.341-1.313l-.043.242z"/>
            <path d="M17.294 72.177c-.42 1.157-.597 2.428.004 3.561.407.922-.018 1.985.482 2.865.085.594.328 1.448-.449 1.689-.565.798-2.882.279-1.352-.213.388.063 1.347-.345 1.297-.441.102-1.023-.592-1.92-.374-2.955-.194-1.153-.883-2.275-.475-3.488.27-.41.057-1.586.867-1.018zm-7.491 4.696c-1.5.024-2.676.112-4.092.454-1.536.462-3.222.02-4.734.617-.875.19-1.818.147-2.669.297-.101.239-.197-.367.207-.055 1.176.317 2.486.006 3.597.513.547 1.332 2.625-.037 3.6 1.204.651.254 2.804.861 1.025.935-1.412-.255-2.608-1.523-4.14-.938-.899-.314-1.003-1.272-2.31-.905-.83-.2-2.17.081-2.619-.736.14-1.136 1.81-.506 2.642-.826 1.027-.112 2.056-.529 3.133-.412 1.759.07 3.432-.719 5.208-.592.416.097 1.512-.475 1.152.444z"/>
            <path d="M-1.72 78.152c-.015.596.105 3.414-.456 2.215 1.157-.101 2.484.01 3.486.564.823 1.149-.201.65-.827.297-.948-.657-3.451.316-2.782-1.4.186-.51-.436-2.085.58-1.676zm12.042-5.967c-.92 1.367.337 2.873.066 4.328-.983.289-.273-1.268-.713-1.765-.293-.542-.441-3.294.647-2.563z"/>
            <path d="M13.016 73.546c-.797.256-2.337 2.376-2.725 1.16.781-.178 2.252-2.1 2.725-1.16z"/>
            <path d="M10.927 73.306c.364.418 2.438 1.976.98 1.677-.34-.433-2.06-1.253-.98-1.677z"/>
            <path d="M12.515 75.553c-.626.468-2.94 1.809-1.99.511.58-.089 1.832-1.597 1.99-.511z"/>
            <path d="M10.632 75.191c.684.014 2.777 1.614 1.131 1.22-.357-.495-1.794-.406-1.131-1.22zm-2.284 4.75c1.73-1.018 3.655-1.727 5.636-2.01.602-.452.888.709.183.47-1.878.264-3.752.805-5.389 1.814-.272.392-.363-.121-.43-.274zm7.532.691c-1.703.699-3.58.763-5.202 1.675-.973.5-2.293.646-3.184 1.04-1.166-.238-2.334-1.17-3.7-1.168-.9-.078-1.824-.174-2.652-.371-.332-1.195 1.276.06 1.89-.254.998.064 1.958.377 2.934.578.497.286 1.045.529 1.331.764.06.006 1.107-.365 1.58-.489 1.631-.375 3.024-1.497 4.745-1.586.68-.021 2.171-1.172 2.259-.189z"/>
        </g>
        <g stroke-width="1.483">
            <path d="M20.153 72.66c-1.101-.202-3.195.88-1.268 1.603 1.744.736 3.73.56 5.569.391 1.794-.615-.742-1.788-1.584-1.835-.995-.41-2.167-.291-3.122-.595.559-.962 1.993-.095 2.978-.034 1.367.063 4.365 1.75 2.11 2.927-1.692.334-3.495.291-5.193-.019-1.942.026-3.055-2.722-.535-2.728.357.07 1.236-.439 1.045.29z"/>
            <path d="M17.694 73.554c.502 1.317.904 2.717.613 4.205-.168 1.347.049 2.805-.705 3.998.056.84-.655.487-.298.56.525.69-.824-.497.186-.004-.258-.2 1.371.124 1.694.073 1.41-.128 2.714.52 4.058.845 1.314.43 2.693.83 3.881 1.554 1.05.16 1.43 1.304 2.625 1.079.699.055 1.143.346 1.665.436.927.26-.596.412-.254-.563-.112-.54-.49-2.697.42-2.208-.24.991.66 2.505.127 3.315-.524.21-.978-.29-1.829-.424-.845-.058-1.786-.165-2.28-.917-1.34-.479-2.563-1.274-4.002-1.548-1.552-.423-3.062-1.135-4.703-.99-.59-.1-1.411-.008-1.86-.235.693.181-.726-.503.13.03-.642-.169-.285-.758-.139-1.113.821-1.414.538-3.044.79-4.608.668-1.03-1.318-3.25-.119-3.485z"/>
            <path d="M31.27 83.284c.934-.315 1.349-.457 1.968-.93-.207-1.577 1.14-2.183 2.18-2.962-.22-.826 1.31-2.116 1.066-1.005-.333-.069-.557 1.07-.841 1.52-.581.618-1.769.574-1.795 1.622.252.796-.906 1.592-.678 1.337-.236.441-1.95 1.248-1.9.418zm6.12-5.174c-.246.797.239 2.439-.518 2.772-.464-.48.06-2.308.29-2.785l.228.013zm-.127 3.24c-1.024.822-2.134 1.417-2.367 2.745-.362.64-1.395.697-1.411 1.623-.025.984-2.39 1.52-1.113.399.797-.505.773-1.844 1.744-2.01.727-.966.875-2.331 2.288-2.712.347-.338.536-.596.86-.046zm-6.46 2.374c-1.858-.083-3.671-.59-5.237-1.61-1.36-.603-2.918-.31-4.292-.915-.578-.038-1.936-.24-.982-.714-.012-.204 1.258.148 1.675.266 1.434.508 3.1.15 4.375 1.09a9.811 9.811 0 0 0 4.479 1.312l.021.286-.039.285z"/>
            <path d="M36.84 78.21c-1.875-.348-3.793-.23-5.675-.331-1.376.166-2.752-.012-4.121.286-.81.057-1.388-.174-2.214-.216-.705.384-.858-1.122-.32-.275-.771-.859 1.185-.19 1.617-.215 1.186.132 2.538-.278 3.798-.143 1.68-.164 3.372-.022 5.061.064.508.277 2.485-.178 1.854.83z"/>
            <path d="M25.867 73.717c-.14 1.686-.68 3.272-1.203 4.856-1.241-.266.521-2.176.361-3.167.304-.503-.083-2.104.842-1.689z"/>
            <path d="M18.4 75.247c1.186 1.307 3.12.836 4.68.996.828.337 2.145-.95 2.51-.072-1.113.453-2.434.751-3.672.577-1.223-.022-3.578-.049-3.73-1.337l.212-.164z"/>
            <path d="M18.923 76.933c1.435.793 3.15.318 4.678.126 1.655-.61.043 1.066-.785.676-1.004.089-4.456.63-3.893-.802zm-1.103 1.539c1.617.606 3.442.913 5.132.565.379-.2 1.673-1.436 1.124-.343-.883 1.285-2.586.952-3.926.868-.534-.204-2.779-.299-2.33-1.09zm8.272 1.073c1.9.727 3.955.93 5.899 1.454-.258 1.098-2.452-.264-3.441-.179-.515-.387-3.136-.231-2.458-1.275zm3.226-.686c1.666.198 3.357.216 5.019.392.132 1.047-2.401.11-3.347.27-.526-.206-2.061.323-1.672-.662z"/>
        </g>
        <g stroke-width="1.483">
            <path d="M25.098 49.254c1.813.232 3.992 2.265 5.616.948-.76-1.923-3.507-1.773-5.163-1.317-.918.418 1.392 1.158-.174 1.043-2.02-1.291 1.457-2.345 2.554-1.848 1.421-.074 4.03 1.072 3.003 2.772-2.033 1.125-4.014-.812-5.982-1.165l.145-.433z"/>
            <path d="M31.23 50.81c.027 1.484-.078 3.037-.832 4.296-.752 1.362-1.502 2.65-1.646 4.245-.322.647-.877 3.697-1.245 1.926.285-1.312.99-2.453 1.082-3.805.556-1.74 2.095-3.142 2.045-5.09.3-.49-.394-1.902.597-1.572zm-5.824-1.348c-.465 1.51.173 3.14-.574 4.594-1.055 1.972-.532 4.464-1.684 6.37.34-.394-1.432 1.405-1.57 2.03-.624.107-.393-.26-.114-.899.172-.723 1.062-1.085 1.52-1.64-.47.35.388-1.175.311-1.623.252-1.862.767-3.67 1.38-5.438.38-.865-.513-3.543.73-3.394z"/>
            <path d="M27.746 61.53c-.355 1.4-2.776.846-.777.333.293-.137.32-.98.777-.333zm.271-.493c1.999-.265 3.936.23 5.865.658 1.925.395 3.84.614 5.786.794 2.384.188-.217 1.019-1.168 1.3.587 1.092-.532 1.215-1.654.966-.817-.126.8 1.171-.548 1.019-.694.456-2.04.346-.68-.56 1.675-.217.23.88.387-.607.712-1.275 3.08.503 2.02-.098-.45-1.329 1.122-1.734 2.276-1.84.11 1.04-2.812-.232-3.78.037-2.121-.371-4.238-.827-6.35-1.277-.618-.256-2.265.493-2.154-.392z"/>
            <path d="M21.541 62.105c2.153.785 4.406 1.29 6.55 2.123 1.53.332 3.013.911 4.417 1.483.87.006 1.467.688 2.35.647.092.334-.443-.597-.04-.988.842-.064.74 2.015-.287 1.562-.837-.117-1.787-.695-2.738-.784-2.028-1.129-4.417-1.395-6.55-2.312-1.05-.605-3.84-.486-3.702-1.73zm19.553 1.038c-.533.743-.507 1.68-.183 2.263-.37.683-1.853.41-1.95 1.126-1.478-.757-1.526.604-2.525 1.098-.225.897-.358 1.015-.938 1.356.235-.617-.239-.44-.03-.691.272-.093.801-1.79 1.152-1.317-.226-1.622 2.279-.968 2.51-1.075-.87 1.56.156-1.683 1.393-.56.1.71-.277-.034-.46-.636.03-.533.26-2.32 1.031-1.564z"/>
            <path d="M34.989 67.096c.414.955-.427 2.096-.467.518-.443-.59.195-.53.467-.518z"/>
            <path d="M21.352 62.39c.445 1.15-.639 2.795.991 2.34 2.752.668 5.247 2.108 8.048 2.56 1.81.34 3.7.515 5.412 1.178-.341 1.014-2.36-.45-3.368-.242-3.075-.352-6.01-1.47-8.891-2.599-1.587-.27-3.09-.521-2.65-2.36.138-.27-.331-1.317.458-.877zm5.131-10.435c.433 1.525-.325 2.943-.449 4.454-.54 1.389-1.062 2.75-1.312 4.237-.159.458-.274 1.408-.65 1.47-.88-.21.057-.74.004-1.287.525-1.34.533-2.9 1.37-4.168.71-1.371.17-4.051 1.038-4.705z"/>
            <path d="M26.51 52.346c-.242.388-.71 1.961-.918.927.048-.398.435-1.729.918-.927z"/>
        </g>
        <g stroke-width="1.483">
            <path d="M94.826 43.283c.927 1.662 3.695 1.522 5.435 1.8 1.114-.05 2.768-.218 3.372-1.034-1.449-1.669-3.897-1.389-5.871-1.287-1.024.177-2.596.48-2.767 1.243-.997-1.645 2.64-1.826 3.816-1.903 1.814-.082 5.336.036 5.36 2.44-1.6 1.168-3.843 1.283-5.773.971-.934-.41-5.152-.963-3.572-2.23z"/>
            <path d="M98.649 43.271c-1.138.03-2.207.996-.51.789.85-.15 3.457.256 3.447.011-.831-.396-4.785-1.205-2.203-1.266.845.454 3.238.454 2.524 1.81-1.695-.248-3.548.199-5.152-.34-.812-.882 2.047-1.871 1.894-1.004zm4.838 1.856c-1.156 1.297-1.463 3.022-1.412 4.681-.713 1.211-.813-1.049-.534-1.801.076-.861 1.027-3.576 1.946-2.88zm-7.987-.594c1.09 1.51.964 3.53 1.165 5.297.468.68-.384 2.532-.556 1.018.04-1.759-.209-3.536-.553-5.252-.127-.48-.853-.756-.056-1.063zm-2.616 7.227c-.007 1.058 1.097 3.706.538 2.83 2.553-.272 5.102-.101 7.632.294 1.649-.04 3.347.183 4.952 0-.812-.258.428-2.328-.035-2.246-.048-.206-1.783.49-2.429.672-.356-.026-1.509-.723-2.347-.464-1.008.785-2.152-.538-3.282.209-1.427-.307-2.836-.699-4.316-.605-1.093.3-.887-.915.032-.655 1.381.006 2.749.16 4.063.633 1.294-.796 2.507.672 3.374-.194.712-.538 2.88.676 2.169.465 1.042-.157 2.095-1.03 3.162-.546.227.36.482.697.02 1.405-.014.793.474 2.228-.854 1.967-.876.137-2.173-.1-3.19 0-2.32-.015-4.62-.63-6.938-.42-1.21-.015-2.638.252-2.473-.386.013-.736-1.327-3.09-.078-2.96z"/>
            <path d="M93.002 51.236c1.208.401 2.854-1.188 3.676-.34-.7.302-3.612 1.4-3.676.34zm9.3-1.236c.805 1.21 2.57 1.05 3.38 1.977-.448.685-2.03-.522-2.86-.759-.285-.38-1.632-.81-.52-1.218zm-1.916.473c.651.966-.249 2.088-.431.49-.906-.532.743-.48.43-.49zm-1.824.519c-.086 1.36-1.328 1.067-.448-.131l.448.131z"/>
        </g>
        <g stroke-width="1.212">
            <path d="M34.737 88.744c1.945 1.273 4.394 2.382 6.835 1.633 3.379-.723-.475-2.95-2.254-2.548-1.47-.12-3.771-.13-3.619 1.377-1.76-1.107.774-2.662 2.273-2.078 2.087-.054 5.04.06 5.902 2.13-.167 2.068-3.48 2.17-5.266 1.92-1.41-.42-3.614-1.07-4.119-2.175.061-.1.17-.17.248-.259z"/>
            <path d="M43.787 89.77c-1.719 2.332-2.445 5.104-2.8 7.846-.647 2.077-.09 4.197.232 6.267.352.716-.278 2.64-.991 1.285.575-2.196-.833-4.409-.2-6.632.505-3.046 1.053-6.17 2.932-8.815.043-.673.62-.09.827.049zm-8.335-.72c-.525 1.996-.169 4.104-.947 6.066.082 2.17.138 4.394.334 6.579.152.828.577 3.893-.66 3.15.495-2.066-.419-4.14-.148-6.23-.139-1.736-.408-3.473.244-5.16.681-1.2-.368-4.115 1.177-4.405z"/>
            <path d="M40.884 105.244c-.132 2.664.906 5.241.833 7.886.528 2.09-1.968 2.618-3.612 2.202-.355-1.766-.53-3.732-.15-5.47.466.674-.03-1.39.783.09-.522 1.42.229 4.194-.152 4.788 1.612-.117 2.648-.183 2.338-1.941-.016-2.451-.894-4.861-.681-7.313-.028-.308.441-.267.641-.242z"/>
            <path d="M38.523 109.83c-1.958 2.063-2.437 5.454-5.72 6.276-2.166-.012-4.918.801-6.721.45.251-1.164 3.137-.714 4.406-.992 2.807.28 4.803-1.663 5.777-3.819.649-.557.97-2.74 2.258-1.914zm-3.662-5.134c-.746 2.276-1.397 5.333-3.94 6.433-2.708.986-5.706.776-8.48 1.507-1.123.044-4.336 1.132-4.078-.214 2.571-.31 5.143-.743 7.72-1.113 2.491-.263 5.959-.38 6.574-3.146 1.165-.917.913-2.973 1.912-3.603z"/>
            <path d="M18.918 112.405c2.43.19 4.74.673 7.114.979 2.181.05-.018 1.984.518 3.12-1.421.826-.427-2.606-.125-2.53-1.986.039-3.558-.84-5.529-.733-.581-.227-2.802.194-1.978-.836z"/>
            <path d="M18.27 113.254c.545 1.218-1.447 2.68.623 2.114 2.283.042 4.534.344 6.79.617 2.152-.297.91 1.033-.526.507-1.915-.344-3.843-.533-5.8-.484-1.742.398-2.759-.592-1.718-2.103.154-.509-.24-.882.63-.651zm8.56.615c2.542-.786 6.082-.14 7.537-2.718 1.515-1.55-.626 2.19-1.877 2.173-1.615.324-4.559 1.2-5.66.545zm10.672-22.296c-.086.898-2.671 3.565-2.322 1.66 1.124-.302 1.1-2.484 2.322-1.66z"/>
            <path d="M35.809 92.286c.967.337 2.226 2.825.486 1.552-.469-.336-1.609-1.18-.486-1.552zm1.036 3.564c-.354.634-2.564 2.705-1.857.966.303-.465 1.197-1.786 1.857-.967z"/>
            <path d="M35.12 95.93c.685.464 3.176 2.931 1.052 1.882-.566-.405-2.045-1.192-1.052-1.882zm1.665 3.288c-.481.848-3.26 2.846-1.85.781.365-.456 1.307-1.731 1.85-.781z"/>
            <path d="M35.105 99.123c-.122.916 2.886 2.44 1.381 2.556-.554-.267-3.214-2.519-1.38-2.556zm2.255 3.548c-.255.78-3.088 2.814-1.984 1.117.391-.4 1.275-1.894 1.983-1.117z"/>
            <path d="M35.54 102.735c.612.543 2.838 3.35.929 2.206-.407-.412-1.964-1.758-.928-2.206zm1.306 3.178c-.572.552-2.616 2.647-2.635 1.46.676-.404 1.895-2.424 2.635-1.46z"/>
            <path d="M34.812 105.829c.575.515 2.26 2.693.46 1.563-.368-.319-1.657-1.38-.46-1.563z"/>
        </g>
        <g stroke-width="1.388">
            <path d="M107.17 64.888c-1.386 3.141-.921 6.572-.455 9.825.155.825.315 1.944.468 2.6.192.44-.652.675-1.08.682-.76-.2-.062-1.187-.445-1.844-.506-1.123-.706-2.365-1.237-3.491-.319-.284-.129-.375-.56-.288-1.579.762-2.658 2.197-2.836 3.769-.534 1.672-2.292 2.994-4.32 2.914-1.058.146-2.13.265-3.15.026-.426-.007-.233.038-.842.141-.52.18-1.672.015-1.339-.572.354-.478-.025-2.612.588-1.86-.736-.959.57-.628.354-.035.078.625-.26 1.87-.286 2.146-1.04-.551.756-.181 1.027-.457.514-.117 1.349.188 1.904.1 1.135-.133 2.393-.057 3.442-.49 1.366-.526 2.047-2.054 2.257-3.354.652-1.246 1.79-2.623 3.347-2.993.804.144.78.308 1.211.875.332 1.23.845 2.385 1.216 3.596.162.58.119 1.041-.04 1.498-1.659-.378 1.316-.59-.028-.22-.052-.309-.152-1.104-.221-1.572-.299-1.387-.37-2.835-.588-4.248-.052-2.34-.011-4.736.993-6.943l.322.069.298.126z"/>
            <path d="M91.63 76.613c-1.506.038-2.922.218-4.04-.599-1.611-.266-3.072-1.093-4.308-1.927-.344-1.306.75 1.253-.184 1.84.301-.568-.401 1.056.763.474 1.89-.47 3.44.645 4.929 1.443.8.368 2.902.567 2.904 1.301-1.346-.037-2.733-.735-3.976-1.263-1.369-1.487-3.878-.441-5.191-1.37-.11-.698.176-.908.19-1.218-.084-.843.128-3.079 1.193-1.46.736.497 1.744.668 2.423 1.277 1.347.086 2.405 1.084 3.79.946.544.173 1.96-.398 1.506.556z"/>
            <path d="M83.652 72.99c1.287.493 2.733.267 4.08.521.403-.04.542.103.906.01 1.17-.087 2.402-.346 3.4-.946 1.589-.657 2.715-1.832 4.01-2.793.406-.847 3.086-1.336 1.768-.36-1.63.743-2.705 2.212-4.295 3.035-1.31.923-2.83 1.441-4.475 1.614-.599-.043-.686-.068-1.082-.014-1.322-.15-2.67-.16-3.983-.41-.588-.085-.74-.205-.329-.656zm7.969 3.313c1.463-.532 3.212.26 4.55-.28.91-.86 1.433-1.928 1.876-3.017.28-.89 2.256-2.416 2.823-1.747-.799.775-2.183.944-2.402 2.198-.488 1.25-1.252 2.528-2.521 3.262-1.313-.325-3.567.177-4.326-.416z"/>
            <path d="M89.846 75.503c.929.21 3.011-.657 3.38.111-.86-.058-3.488.899-3.38-.111zm-1.109-.639c.757-.418 3.62-.034 1.395.235-.51-.163-1.509.597-1.395-.235zm9.666-6.399c1.133.13 1.109-.85 1.519-1.509.067-.948.338-1.855.499-2.76 1.041-.722 2.55.187 3.723.343 1.11.5 4.67-.268 1.838-.713-1.485-.305-3.446-.725-4.624.376-.828-1.235 2.535-1.414 3.628-1.062 1.635-.044 4.038 1.568 1.338 1.953-1.881.441-3.558-.746-5.4-.67.115.325-.421 1.193-.304 1.76-.3.87-.386 2.416-1.671 2.58-.219.038-.798.285-.546-.298z"/>
        </g>
        <g stroke-width="1.483">
            <path d="M65.203 72.895c4.556-.479 9.135-1.066 13.723-.832 1.757-.043 3.551.102 5.267-.241 1.149.379-.638-.763-.135-1.758-.44-.608-.155-2.214.12-.943-3.169 1.222-6.666.737-9.968 1.33-2.408.201-4.804.628-7.21.745-.746-.575-3.11.767-2.693-.54.996.177 1.353 1.285 1.023 2.084-.633.94-.726-.514-.568-1.062-2.1-1.246.885-1.371 1.864-1.182 2.278.103 4.553-.477 6.839-.58 2.874-.481 5.812-.338 8.677-.85 1.164-.42 2.801-.999 2.35.252.218.517.154 1.622.295 1.739.757.95-.104 1.572-1.074 1.404-1.828.315-3.771.099-5.643.136-4.29-.266-8.552.45-12.822.672l-.044-.374z"/>
            <path d="M64.403 70.726c-1.882.386-3.278-.911-4.896-1.403-1.126-.165-2.522.081-3.41-.754.84-.32.308.698.02 1.216.266.889-.927 1.13-.046.507 1.701-.27 3.29.259 4.747 1.083 1.291.74 2.854.745 4.177 1.426-.412.955-1.81-.415-2.687-.275-1.842-.399-3.353-2.009-5.327-1.746-1.552.437-1.811-.702-1.048-1.78-.01-1.014.565-.764 1.19-.53 1.385.473 3.25-.115 4.363 1.161.74.878 2.96.057 2.917 1.095z"/>
            <path d="M58.073 68.036a5.806 5.806 0 0 0-1.588.312c-.18.857 1.065.022 1.447.123 1.58.04 3.142-.12 4.7-.127 1.846.424 3.704.046 5.528-.239.33-.044.66-.076.99-.103l-.236-.468c-.61.05-1.221.116-1.83.207-1.784.661-3.667.137-5.482.113-1.155.241-2.352.099-3.53.182zm13.362-.705c.046.138.189.436.184.583.73.002 1.464.021 2.2.04 2.422-.158 4.85-.032 7.239-.47.868.52 2.161-.016 2.756.956-.433 1.069 1.329.372.3-.563-.795-.947-2.242-.64-3.33-.985-2.055.48-4.17.396-6.26.513-1.053-.004-2.195-.09-3.089-.074z"/>
            <path d="M64.71 67.607c1.072-1.305 3.335-2.093 4.438-.382 1.094.808.848 2.26 1.193 3.39-.706.888-.715-.708-.87-1.29.14-1.173-.89-2.135-1.836-2.608-1.124-.503-2.326 1.62-2.925.89z"/>
            <path d="M64.943 67.859c-.585.463-.278-.78 0 0zm2.311-1.936c1.54-.51 3.377-.161 4.239 1.324.7.927 1.15 1.71 1.22 2.867-1 .934-.613-2.117-1.722-2.64-.749-1.294-2.327-1.465-3.644-1.103l-.094-.448z"/>
        </g>
        <g stroke-width="1.483">
            <path d="M80.943 41.767c.256.192.533.333.84.422.22.082.445.101.676.125.035.005.07.015.106.015.07 0 .137-.02.206-.024.082-.005.163.005.245.003.134-.025.266-.014.402-.006.127-.004.26-.013.385.007.119 0 .226-.021.345-.033.1-.027.222-.032.3-.1.129.019.208-.126.321-.14.044-.07 0-.017.006-.053.003-.033.014-.182 0-.174-.022-.01 0 .022-.007.02-.077-.023-.16-.072-.235-.104-.255-.078-.494-.193-.762-.218-.251-.015-.485-.12-.737-.087-.038-.01-.075-.024-.113-.028-.039-.003-.078.007-.117.005-.165-.005-.323-.039-.489-.032-.127-.02-.259.008-.386-.002-.045-.004-.087-.024-.13-.025-.077-.002-.152.02-.228.021-.205-.007-.362.111-.544.18a4.48 4.48 0 0 1-.33.236c-.008.018-.264-.073-.258-.09-.012-.04-.034-.078-.037-.12-.014-.192.122-.402.258-.519.246-.215.533-.338.863-.348.056-.001.112.001.168-.004.045-.004.089-.025.134-.024.046 0 .088.028.134.03.045.003.09-.015.135-.015.09 0 .177.036.267.026.256.01.505.027.76.036.27.036.537.09.805.14.293.07.582.145.862.258.255.085.511.191.603.467.004.014.05.174.05.199.002.089-.042.184-.013.276a.662.662 0 0 1-.285.456 1.286 1.286 0 0 1-.454.258c-.13.05-.274.066-.406.114-.151.045-.305.037-.46.034-.2-.005.065-.004-.132.015-.084.008-.17-.039-.25.008-.218-.008.102.01-.125-.026-.133-.022.008.024-.128.034-.051.003-.096-.05-.15-.035-.1.017-.192-.001-.293.006-.118.009-.226.034-.34-.018-.09-.006-.18.006-.269 0-.303-.02.019-.027-.284-.084-.441-.082.119.102-.317-.057-.453-.186.137.067-.31-.16-.055-.028-.119-.038-.173-.07-.055-.032-.096-.085-.15-.118-.67-.415.273.227-.304-.173-.035-.024.31-.528.345-.503z"/>
            <path d="M85.494 41.804c.12.378.235.756.348 1.137.02.057.043.113.057.172.014.059.011.12.025.178.103.426.014-.097.114.336.014.059.017.12.025.179l.043.175c.007.06.01.122.022.182.012.06.037.118.05.178.05.244.072.493.103.74.058.354.102.71.102 1.07.012.353.058.71.036 1.064.035.163.002.33.01.493.005.152.04.29.038.443.017.269.025.538.04.808-.01.248-.004.494-.018.743.022.19.042.39.006.579.038.182.008.368-.014.551-.009.033-.025.064-.027.098-.002.036.017.072.015.11a2.991 2.991 0 0 1-.08.41c-.017.032-.037.063-.049.097-.036.105-.007.093-.029.202-.02.105-.074.203-.101.307-.105.173-.113.379-.198.558l-.02.094c-.014.03-.033.057-.042.088-.009.031-.001.066-.01.097-.027.095-.083.154-.1.254-.06.146-.09.303-.188.43.011.097-.07.165-.093.252-.005.02.005.045-.005.064-.008.017-.029.024-.044.037.002.11-.061.193-.115.284-.011.058-.058.1-.078.156-.039.077-.09.146-.13.227-.04.033-.059.082-.08.116-.021-.003.005.016.01-.031-.236-.018-.476-.004-.708-.054-.036-.007-.047-.361-.042-.412.003-.028.017-.054.025-.08.062-.146.06-.299.072-.452.016-.166.01-.336.011-.505.01-.215.017-.427.074-.637.002-.034.008-.068.008-.102 0-.035-.01-.07-.005-.105.039-.306.02.114.066-.18-.01-.125-.014-.065.011-.181-.006-.082.038-.158.049-.237.003-.026-.007-.053-.002-.079.035-.188.036.05.026-.145-.028-.076.02-.155.013-.23-.003-.027-.025-.05-.025-.078 0-.053.026-.103.028-.155-.003-.14.014-.287-.014-.425.038-.127-.01-.254.025-.381-.014-.021-.036-.038-.041-.063-.005-.019.014-.037.015-.057.006-.078-.029-.153-.04-.229.023-.07-.037-.125-.049-.188-.003-.017.004-.034.007-.05a13.922 13.922 0 0 1-.012-.051 1.01 1.01 0 0 0-.074-.221.547.547 0 0 1-.101-.211.845.845 0 0 1-.137-.203.172.172 0 0 0-.058-.138c-.044-.042.054.05.075.068-.004 0 .005.003.008.005-.014.03-.048.001-.077-.012-.016-.008-.035.006-.053.006-.04-.017-.088.016-.128.01-.018-.002-.031-.024-.049-.021-.142.021.041.066-.1.019-.048-.032-.156.025-.182.025-.127-.002.026-.052-.088-.006-.108.03-.203.05-.313.084-.105.035-.2.12-.311.128-.088.063-.153.146-.23.22-.074.027-.144.14-.164.217-.093.09-.13.21-.187.325-.005.02-.004.045-.015.063-.014.021-.044.03-.057.051-.03.048-.02.113-.047.162-.016.028-.043.049-.064.074l-.046.095c-.116.097-.138.253-.214.374-.236.374.085-.194-.116.17-.087.168-.219.312-.294.488-.012.025-.018.053-.036.074-.02.023-.055.03-.073.053-.017.02-.017.05-.029.075-.036.077-.09.146-.138.215-.105.159-.21.315-.322.47a2.597 2.597 0 0 1-.276.425c-.054.035-.042.104-.073.15-.014.02-.041.026-.058.043-.047.051-.053.11-.104.16-.068.112-.168.201-.244.311-.09.06-.145.16-.234.224-.106.057-.057.025-.148.096a1.05 1.05 0 0 1-.402.263c-.041.068-.13.05-.185.083-.022.013-.03.043-.053.057-.233.148.123-.14-.113.06-.092.006-.17.06-.254.086-.164.054.019-.052-.136.05-.084.038-.182.03-.264.073-.018.01-.031.033-.052.037-.026.005-.052-.007-.079-.01-.082.06-.163.032-.251.04-.032.003-.061.021-.093.028-.051.01-.147.012-.198.014-.107-.022-.214.026-.319.026-.036 0-.072-.02-.108-.017-.44.031.215.046-.222.028-.207.011-.413.043-.622.047-.195.046-.403.043-.605.052-.236-.022-.472-.019-.708-.017-.139.067-.265.002-.402-.003-.131-.005-.28.015-.41.03-.046-.005-.092-.014-.139-.015-.088-.001-.175.015-.263.02-.123.007-.238-.004-.36.012-.226.003-.45.03-.676.054-.23.018-.465.05-.696.048-.21-.026-.42.017-.63.009-.158-.003-.32-.03-.478-.026-.084.001-.168.02-.253.023-.202-.035-.41.011-.611-.006-.064.023-.122-.004-.18-.01-.09-.01-.105.03-.192-.013-.124.041-.25.014-.378.025-.143-.001-.277.005-.42-.017-.021-.002-.043-.008-.065-.007-.053.003-.057.024-.111.017-.066-.009-.062-.05-.135-.036-.038-.04-.077.01-.094-.022.053-.001.028.01.054.015a.454.454 0 0 1-.289-.117c-.007-.005.013.013.017.02.117.096.15.036.013.026-.045-.002.009-.001-.052-.036-.047-.01-.014.017-.006.032.016-.042.012 0 .026.004.065.015.083-.025.052.022-.16-.067.037.054.12-.102-.109-.097-.039-.034-.205-.191a.416.416 0 0 1-.094-.147c-.124-.18-.09-.097-.132-.23.042-.045.078-.092.138-.117.045-.019.16-.066.147-.018-.007.024-.03-.025-.01.011.132.024.063-.029.12.023.011-.003.117-.006.09.032-.008-.027.074.021.08.018-.107-.025.008-.02.027-.013.007.002.113.082.116.084.142.103-.11-.078-.183-.055.056-.014.094.018.153.012.011.003.02.013.03.014.006 0 .016-.023.022-.018.008.006 0 .021.008.028.004.004.012-.001.019-.002.059.031.14 0 .2.032l.048.007c.011-.006.02-.018.033-.018.023 0 .043.017.066.017.063-.001.127-.029.193-.008.144-.031-.023-.005.123.008.083.008.173-.027.256-.005.14-.008.277 0 .418-.012.055.004.11.02.165.023.148.006.299-.022.447-.013.084.004.168.021.252.016.043-.003.083-.024.126-.027.116-.01.236.022.352.015.186.014.371-.017.557-.023.216.011.427-.026.641-.028.145-.03.349-.088.493-.088.043 0 .085.02.128.021.04.002.082-.007.123-.011.134-.02.227.017.357.005.043-.004.083-.026.125-.025.306.007-.04.077.268-.005.139.009.291.021.43.01.056-.005.11-.029.166-.03.045-.002.09.012.134.019l.107-.006c.23-.006.46-.007.688-.015.034.01.066.03.1.03.064.003.122-.036.184-.043.093-.01.084.008.177.007.031 0 .061-.006.092-.01.13-.014.267-.017.395-.044.038-.008.073-.03.112-.036.04-.005.08.004.12.006.223-.026.442-.049.664-.038.137-.02.273-.01.397-.062a2.41 2.41 0 0 0 .323-.1c.23-.121-.145.069.127-.04.02-.008.033-.032.054-.04.021-.008.047.002.068-.007.154-.062-.054-.03.11-.047.116-.025-.017.012.09-.043.059-.03.135-.023.183-.08.11-.069.219-.141.332-.206.089-.085.185-.134.247-.237a.64.64 0 0 0 .202-.238.772.772 0 0 0 .175-.202c.01-.021-.003-.051.012-.07.016-.02.047-.021.07-.032.024-.131.072-.09.134-.191.016-.026.017-.058.032-.084.016-.026.04-.046.06-.069l.047-.083c.093-.164.19-.329.325-.46.005-.031.001-.064.015-.092.013-.024.042-.034.06-.055.069-.08.1-.192.177-.27.09-.166.21-.314.296-.481.145-.134.193-.35.322-.503.03-.072.06-.172.102-.236.014-.023.044-.033.058-.056.023-.038.001-.097.049-.127.023-.041.034-.09.06-.13.015-.021.043-.032.055-.055.013-.023.005-.053.017-.077.021-.045.075-.07.083-.124.047-.12.194-.3.297-.374.093-.134.244-.205.37-.3.143-.073.3-.109.427-.207.145.004.282-.077.427-.098l.07-.006c.023-.007.043-.018.066-.021.025-.003.05.01.075.006.022-.004.04-.027.064-.026.023 0 .04.027.063.029.019.001.036-.013.053-.02.093-.013.184.009.278-.005.075-.013.156.027.226-.003.05.045.142-.007.2.054.1.037.224.144.27.237.011.007.028.01.032.023.006.017-.007.036-.004.055.006.037.05.064.069.091.006.01.006.021.009.032.027.072.094.118.096.196.072.067.08.181.134.263.076.1.057.229.127.332-.02.13-.007-.028.024.094.004.019-.008.038-.006.056a.66.66 0 0 0 .05.179c-.01.144.062.29.03.44.03.136.015.272.016.41-.007.145-.022.287 0 .433.02.236.002-.078-.01.166-.005.12.02.241-.028.36.007.174-.027.348-.074.513-.01.182-.067.36-.077.542-.006.097-.033.185-.044.282-.003.03-.002.062-.003.093.004.03.013.059.01.089-.004.031-.02.06-.03.09.005.186.016.37-.004.554-.014.176-.067.345-.066.519-.071.304-.019.076-.71.16.029-.03-.008-.07.039-.098.04-.054.084-.096.112-.162.045-.02.086-.057.073-.101 0-.095-.013.013.044-.056.016-.02.03-.117.06-.14.075-.038.07-.157.1-.23.018-.014.042-.022.053-.04.01-.017.002-.04.006-.058.02-.08.096-.135.075-.227.058-.144.138-.277.188-.424.091-.149.115-.322.187-.48.039-.206.142-.382.196-.584.067-.174.136-.349.156-.534l.036-.089c.001-.03-.004-.06.004-.088.01-.031.039-.053.048-.084a.764.764 0 0 0 .01-.256c.04-.155.014-.332.029-.492.02-.193.007.017-.008-.18-.017-.23.02.047.022-.19 0-.035-.011-.068-.017-.102l.006-.107c.017-.246-.007-.489-.007-.734.003-.262-.01-.521-.023-.782-.015-.319-.02-.638-.04-.957-.01-.347.04-.697-.024-1.04-.023-.344-.024-.69-.09-1.029a10.622 10.622 0 0 0-.153-1.05c-.05-.143-.07-.174-.09-.324-.008-.056 0-.113-.013-.168-.013-.056-.044-.106-.06-.16-.017-.057-.026-.114-.04-.171l-.053-.177c-.086-.384-.212-.757-.32-1.135-.013-.04.571-.213.583-.172zM62.845 53.973c-.037-.108-.029-.223-.052-.332-.013-.059-.043-.113-.054-.172-.01-.054 0-.11-.009-.164-.056-.184-.037-.093-.06-.272-.02-.18-.075-.355-.097-.533-.008-.076-.041-.153-.05-.227-.004-.026.01-.052.008-.078-.02-.202-.037.053-.015-.15-.029-.1.015-.215-.026-.306.001-.047 0-.083.01-.128-.012-.007-.032-.059-.03-.07.004-.013.03-.013.032-.027.002-.011-.02-.016-.021-.028-.004-.018.004-.036.006-.054.025-.111.09-.21.133-.318.04-.06.077-.123.13-.168.056-.033.111-.104.178-.098.02-.031.08-.031.117-.059.045.024.06-.059.08-.065.016-.005.035.012.052.007.025-.007.041-.034.065-.046.056-.02.138-.036.182-.074a.2.2 0 0 0 .15-.053c.082-.015.164-.027.244-.05.113-.027.208-.051.325-.03.147-.016.293-.005.44-.004.109-.01.218-.013.327-.03.016.005.03.015.046.016.022 0 .072-.027.091-.031.053-.011.085.02.138.015.087-.01.17-.071.251-.04.068.001.129-.013.195-.022.064-.016.133-.031.203-.042.062-.01.164-.028.206-.063.093-.035.2.02.285-.025.127.03.255-.018.38.01.076.04.138.001.212-.005.023-.002.045.01.068.008.023-.004.043-.03.067-.027.024.001.042.024.063.036.067-.036.12-.008.185-.002.052.004.121-.013.175-.016.092-.008.177.018.27-.004.086.034.203-.034.265.039.06-.035.141.008.198-.022.064.007.12.021.183.033.01.005.017.018.027.015.015-.004.019-.025.032-.032.049-.024.086.025.144-.01.056.028.108.003.165.009.016.002.027.017.04.025l.049.003c.077-.025.145.006.225-.005.11.01.23.008.347.014.151-.036.303.008.457-.007.068.008.23.008.297-.005.073.03.149 0 .224.007.009.004.017.013.026.012.01-.002.014-.014.023-.018.026-.013.043.005.067.008.026.005.106-.018.116-.002.046-.022.099.017.15.008.039-.039.072-.007.118-.026.037.047.093-.012.122.02.041 0 .048.014.083-.016.032.016.055.011.059.015.028.01.014-.03.03 0l.003.036c.039-.001.056.544.017.545 0 .014 0 .024-.001.016 0 .009-.014.014-.03.001-.031.018-.064-.004-.097.01-.03 0-.056-.011-.083.006a.14.14 0 0 0-.083-.006c-.033.024-.04-.031-.075-.012-.01.005-.011.021-.022.026-.007.003-.015-.006-.023-.01-.042-.019-.104-.005-.148.005a.354.354 0 0 0-.155-.002c-.019-.027-.094-.016-.116.011-.044-.052-.118-.017-.186-.023-.056.015-.225-.024-.296.002-.168-.012-.33-.005-.495 0a1.727 1.727 0 0 0-.362.003c-.08-.02-.167 0-.252-.017-.06-.023-.146.035-.214-.007-.071-.009-.156-.017-.22.015-.057-.023-.12-.02-.176-.021a.91.91 0 0 1-.254-.026.5.5 0 0 1-.16-.016c-.108.011-.201 0-.308.02-.11-.043-.242.022-.359-.02-.312.052.187-.026-.13.002-.024.002-.046.022-.07.02-.024-.003-.042-.032-.067-.034-.349-.03.196.084-.143.005a.863.863 0 0 1-.33.006c-.06-.003-.11.032-.163.017-.054-.01-.135.061-.2.045a.446.446 0 0 1-.258.047c-.047.035-.135.027-.202.038-.095-.025-.206.065-.309.032-.19-.03.078 0-.093.02-.016.003-.132-.031-.16-.014-.094.031.008.006-.1.001-.085-.004-.176.036-.263.025a2.092 2.092 0 0 0-.44-.003c-.036-.002-.07-.028-.105-.023-.017.002-.023.027-.04.032-.032.009-.06-.046-.09-.007-.05-.02-.143.005-.19.037-.04-.013-.068.028-.115.017-.049.03-.093.06-.151.068-.06.04-.105.041-.167.077-.023.042-.117.04-.16.088-.022.036-.094.019.007-.012-.016-.032-.034.028-.055.05-.006.023-.072.113-.056.092-.03.02.002.097.005.128-.003.01.015.02.01.028-.005.01-.022.005-.028.013-.008.014.065.044 0 .059.044.094.01.198.033.298.002.138.004.273.037.406.047.177.048.354.073.535.049.318.113.631.159.951.005.035-.486.11-.491.076z"/>
            <path d="M80.95 41.774c-.156.285-.28.587-.423.878-.053.179-.148.35-.185.532a2.113 2.113 0 0 0-.077.387c.018.074-.032.147-.032.218 0 .028.019.053.017.08-.017.342-.04-.174-.02.151-.026.147-.024.295-.04.443-.018.128.002.272-.035.392-.007.024-.021.048-.021.074 0 .028.019.054.02.082 0 .04-.035.112-.043.148-.014.054-.011.094-.012.15-.069.112-.088.253-.1.383-.01.018-.023.033-.03.053-.014.042 0 .076-.008.12-.01.058-.043.12-.062.176-.016.128-.085.24-.124.36a3.31 3.31 0 0 1-.135.42c-.046.165-.13.313-.175.479-.012.024-.03.046-.037.072-.007.029 0 .06-.007.089-.026.11-.102.209-.136.318-.067.143-.113.293-.207.424-.091.114-.16.244-.243.363a1.67 1.67 0 0 0-.178.252c-.026.12.016-.027-.052.077-.01.014-.006.035-.012.052-.025.06-.082.11-.12.162a2.3 2.3 0 0 0-.247.325c-.072.044-.082.134-.127.195-.093.124-.01-.056-.075.11a6.841 6.841 0 0 1-.33.316c-.098.053-.182.128-.279.18-.092.025-.049.007-.13.054-.121.052-.246.104-.365.173-.12.065-.208.17-.329.237-.053 0-.057.062-.093.082-.016.01-.039-.002-.056.006-.05.02-.062.05-.138.072-.04.009-.176.049-.211.046-.106-.008.008-.054-.09 0-.093-.012-.201-.029-.293-.01-.09.014-.186-.038-.276.008-.036-.003-.09-.017-.126-.01-.01.001-.011.018-.02.018-.094-.001.013-.048-.074 0-.068-.034-.123.006-.2-.014-.011 0-.023.004-.035.002-.04-.006-.03-.024-.07-.02-.036.005-.052.033-.09.03-.055-.002-.081.022-.135.023-.042.046-.12.02-.16.05-.028.001-.043.003-.068.005a.372.372 0 0 1-.168-.116c-.017.009-.132-.23-.115-.238-.03-.06-.06-.115-.054-.184.056-.005.053-.03.1-.05.041-.018.079.004.109-.041.063-.009.117-.033.186-.029.084-.046.077-.01.126-.024.017-.004.023-.03.04-.036.03-.01.067.03.098-.002.07.038.047.006.112.001.04-.003.064.043.105.007.065-.012.133.017.199-.004.056.034.19.012.26.002.046.003.092.02.136.023.033.003.065-.015.094-.027.017.001.03.017.046.025.08-.01.17-.025.247.001.043-.003.087-.015.126-.018.054-.008.102-.01.133-.07.14-.036.242-.179.375-.237.132-.086.267-.153.415-.208.08-.03.045-.007.106-.07.018-.008.04.004.06-.001.059-.018.059-.094.127-.094.022-.022.085-.096.105-.11.015-.011.04-.003.055-.016.012-.01.01-.028.016-.043l.04-.023c.033-.138.134-.198.19-.324.083-.117.18-.22.267-.332.051-.083.092-.176.167-.24.074-.094.09-.216.174-.307.087-.153-.023.02.089-.1.054-.057.079-.145.147-.193.026-.13.15-.211.155-.353.085-.147.114-.303.177-.46.046-.158.135-.3.167-.46.066-.138.1-.285.149-.426a2.09 2.09 0 0 0 .091-.223c.003-.02-.014-.04-.01-.06.005-.018.023-.029.035-.043.032-.108.046-.213.073-.325.058-.117.058-.256.091-.381.016-.125.05-.247.06-.374.019-.127.021-.255.036-.383.017-.152.001-.307.046-.456.008-.16.023-.317.051-.475.031-.159.04-.329.108-.477.046-.207.16-.385.243-.58.136-.296.33-.571.41-.888.017-.035.516.194.5.23z"/>
            <path d="M71.35 50.26c.548.057-.256-.018.352.01.061.003.122.02.183.025.165.014.31-.006.472.03.106.02.223-.017.329-.001.026.004.048.028.075.03.241.011-.073-.062.132-.007.086-.014.153.067.228.056.02.012.029-.02.045-.018.012.002.016.02.027.024.038.017.06.001.098.024.056.001.107.021.164.027.085-.011.18.025.263.004.071-.001.158.028.22-.004.108.003.206.036.313.016.093-.012.193.018.286.002.069-.025.142.018.205-.007.026-.003.133 0 .134-.014.04.005.058.048.085.006.013.012.012-.018.018-.014.008.005.006.018.012.026.016.026.01-.01.03.01.05 0 .043.034.046.075.002.075 0 .032 0 .126.012 0 .007.16-.004.16-.006.104-.002.06-.009.132-.003.03-.014.08-.013.087-.04.022-.048-.04-.06.026-.027-.031-.063-.031-.084.003-.066-.031-.107-.004-.174-.023-.075.03-.132-.025-.205.005-.08.005-.164-.027-.248-.013-.055.007-.115-.01-.168.002-.018.004-.033.021-.051.023-.017.001-.033-.01-.049-.016l-.043.005c-.094 0-.17-.014-.26-.003-.096.01-.195-.03-.29.002-.056 0-.154.015-.205.002-.013-.004-.018-.023-.031-.027-.01-.002-.018.006-.027.009-.035-.017-.075-.001-.108-.016-.015-.006-.025-.022-.04-.028-.014-.006-.031-.003-.047-.004-.063.008-.104-.036-.163-.029-.155-.046-.325-.036-.486-.07-.215-.001-.427-.04-.642-.043-.06-.001-.12.007-.18.005-.053-.001-.106-.01-.16-.014-.042-.002-.011-.602.031-.6zm9.022-6.692c.234.207.479.399.746.559.132.078.285.146.44.143.09-.008.166.026.254 0 .04.004.088-.016.097-.002.025.006.04-.008.069-.008a.52.52 0 0 0 .16.012c.091.01.19.003.273.071.037 0 .13.026.155.062.054.035.078.09.12.133.029.082-.037.127-.09.179.01.014-.196.145-.206.13-.052.039-.111.06-.107.13-.023.04-.005.059-.046.05-.032-.007-.053-.028-.085-.036-.008-.002-.021.01-.026.002-.005-.01.012-.022.007-.032-.003-.006-.013.005-.02.008.045.019.044-.016.003.011-.042-.02-.092.001-.116-.01-.02.026-.044.022-.052.007-.035 0-.072.01-.107.017-.133-.049-.268-.022-.404-.043-.242-.048-.483-.108-.684-.261-.14-.09-.3-.164-.426-.273-.047-.04-.082-.093-.129-.134-.087-.076-.195-.125-.273-.211-.036-.032.411-.536.447-.504zm-.086 1.9c.048.032.1.06.145.097.166.138.11.149.298.266.143.09.335.17.495.223.178.109.372.157.57.203.12.051.101.006.1.1a.547.547 0 0 0-.006.032c.03-.004.086.406.057.41l-.014.057a.467.467 0 0 1-.259.05c-.164.016-.296-.057-.45-.103-.325-.098.001.05-.326-.117a8.38 8.38 0 0 1-1.08-.706c-.036-.033.434-.545.47-.512zm-1.266 1.96c.213.264.499.451.793.615.138.088.281.175.43.245.06.044.091.11.106.182a.482.482 0 0 1-.014.203.278.278 0 0 1-.247.139c-.098-.005-.158-.047-.251-.073-.134-.039-.268-.061-.385-.147-.293-.236-.61-.437-.878-.706-.033-.031.413-.49.445-.458z"/>
        </g>
        <g stroke-width="1.483">
            <path d="M.652 54.92c4.687-.228 9.399-.503 14.078 0 1.645.076 3.3.285 4.942.06.995.259-.72-1.237-.03-1.764-.4-.334-.06-2.14.175-.934-3.327 1.04-6.849.336-10.255.74-2.34.069-4.673.334-7.016.309-.754-.658-2.32.514-2.715-.487.784-.537 1.66 1.577.73 2.162-.884-.053.196-1.588-.814-1.777-.39-1.046 1.498-.736 2.15-.683 2.427.372 4.877-.157 7.315-.122 2.851-.286 5.728.017 8.577-.317.714-.187 2.707-.981 2.33.39.053.92.295 1.812.386 2.673-.684.847-1.972.293-2.922.482-3.297-.132-6.576-.635-9.883-.505-2.342.036-4.683.166-7.026.148-.008-.124-.012-.253-.022-.376z"/>
            <path d="M.302 52.637c-1.346.71-2.845.197-4.22-.102-1.308-.296-2.705.812-3.944.04 1.038-.369-.245 1.183-.058 1.665-.192.603-.69.616-.07.096 1.593-.714 3.419-.593 5.032-.02 1.229.259 2.508-.045 3.727.28-.691 1.07-2.146.028-3.166.396-1.562-.17-3.147-1.085-4.713-.394-.965.837-1.94-.23-1.145-1.185.13-1.083.925-1.438 1.954-1.204 1.198-.067 2.555-.797 3.657-.026.806.881 2.183-.463 2.939.282l.007.172z"/>
            <path d="M17.028 50.003c-.43-.003-.855.03-1.256.089-1.58.269-3.303.38-4.902.44-.077.316.12.171.034.513 1.908-.082 3.82-.162 5.702-.495.877.356 2.905-.158 2.937 1.174.56.722 1.051-.876.19-1.052-.787-.478-1.758-.662-2.705-.67zm-7.847.579c-.503.014-1.006.03-1.508.048l.006.013c.12.315.075.257.079.489.525-.02.999.016 1.46-.007a1.773 1.773 0 0 1-.037-.543zm-1.502.06zm-2.27.117a28.05 28.05 0 0 0-2.547.31c-1.699.674-3.542.249-5.307.232-1.737.362-3.585-.026-5.275.607-.146.752.828.182 1.159.122 1.611-.047 3.227-.182 4.84-.257 1.307.219 2.65.177 3.955-.06a25.815 25.815 0 0 1 3.168-.465c-.022-.163-.003-.342.007-.49z"/>
            <path d="M-.733 51.465c1.206-1.168 2.643-2.276 4.336-2.572 1.285-.127 2.084 1.34 2.142 2.459-.05.486.513 2.145-.372 1.703-.441-.923.125-2.087-.595-2.89-.76-1.075-2.085-.847-2.934-.016-.804.399-1.633 1.607-2.577 1.316z"/>
            <path d="M3.344 48.854c1.154-.3 2.674-.716 3.597.31.713 1.007 1.41 2.144 1.374 3.426-1.074.41-.64-1.584-1.11-2.191-.528-1.085-1.641-1.87-2.869-1.248-.319.106-1.001.165-.992-.297zm4.156-.517c1.211.272 1.368 1.65 2.048 2.481.027.594.907 2.197-.195 1.906.076-1.172-.556-2.167-1.072-3.16.002-.646-1.276-.623-.781-1.227z"/>
            <path d="M7.462 48.332c1.01.176 2.561-.59 3.104.598.446.936.684 1.965 1.055 2.937.352.817-.81.701-.565-.074-.403-.98-.515-2.087-1.13-2.968-.277-.422-2.498.41-2.464-.493z"/>
            <path d="M7.639 48.63c-.465.035-2.048.805-1.33-.106.387-.088 1.48-.739 1.33.107z"/>
        </g>
    </g>
</svg>
