<svg xmlns="http://www.w3.org/2000/svg" viewBox="0 0 508.00001 251.35416" height="950" width="1920">
    <g fill="#ececec">
        <path d="M508.11 37.73c-18.18.075-28.141 26.175-47.887 17.122-12.455-3.286-23.921 1.593-34.56 7.586-12.857 4.268-26.98.166-39.444 2.955-11.552 4.193-21.53 13.93-33.884 14.884-8.977-1.612-14.864-8.304-21.98-13.144-8.734-12.833-19.666-5.111-29.343.803-12.973 4.573-20.644-7.377-29.655-13.943-5.957-3.995-15.37-6.592-17.995-15.06 8.416-2.017-8.283 16.276-16.262 14.345-3.146 12.23-22.498 3.812-27.81-4.009-6.98-8.01-11.726 7.433-20.574 9.362-11.502 4.972-16.569-4.164-26.202 3.27-8.544.101-15.2 13.198-23.768 6.864-7.343-9.546-16.27-16.71-26.178-21.889-6.817-5.284-13.223-8.021-20.144-12.956-6.75-5.017-10.271-7.854-15.092.472-4.083 4.921-11.107.733-14.076 1.32-6.232 7.908-15.041 8.364-23.575 6.162-14.067 4.337-18.135 23.981-33.2 29.555-1.712 1.996-5.603 7.687-6.515 7.807l.026-4.087c1.1-4.068 9.725-12.036 14.543-13.45 11.349-6.3 12.121-22.98 26.69-23.381 7.61 4.555 14.411 1.607 19.792-4.748 8.779 1.702 15.464-1.22 22.935-8.315 7.368 6.534 18.154 8.732 23.778 15.99 7.987 6.404 20.065 7.516 25.189 17.438 7.822 18.146 19.868.82 31.452-.043 8.036-6.743 17.76 4.52 25.881-5.015 8.586-2.386 12.707-14.594 20.844-6.648 5.228 6.688 15.297 12.216 23.236 7.9 3.327-7.425 19.393-9.679 21.348-18.26 4.942 12.375 19.437 13.521 27.711 23.157 8.968 12.664 23.562 1.527 33.36-3.406 14.771 2.72 22.725 19.103 37.776 21.28 11.798-4.064 22.733-12.362 34.858-16.776 16.523 2.186 34.557 1.82 48.837-7.84 11.556-5.65 24.432 1.767 36.27-.089 11.243-4.696 21.795-22.514 33.62-16.836z"/>
        <path d="M52.312 42.664c11.91 5.903 20.643 15.274 28.278 25.738 9.27 4.378 18.094 20.164 3.837 6.931-11.72-7.27-15.437-21.889-28.886-27.17-1.107-2.105-7.907-2.87-3.229-5.5zM71.239 35.519c4.4 2.985 24.694 20.075 11.61 15.554.065-5.482-17.231-12.587-11.61-15.554zM142.291 68.713c15.912 8.68 32.78 16.24 48.352 24.733 11.303 2.938 12.88 10.904.268 3.857-13.635-8.574-29.049-14.949-43.629-22.62-1.632-.921-11.414-4.294-4.99-5.97zM204.626 55.743c7.972 14.478 25.339 16.943 37.151 26.448 13.26 4.813 26.144 10.579 39.185 15.345 10.4-.056 18.762 8.738 2.369 3.466-12.79-3.34-24.48-9.519-36.87-14.394-13.125-7.195-28.06-11.759-39.15-22.737-1.117-2.022-8.742-7.887-2.685-8.128zM291.44 66.424c5.429 5.157 38.21 19.621 14.181 12.77-.914-4.7-22.168-8.75-14.182-12.77zM350.598 76.878c13.041 4.31 22.133 16.319 36.61 16.829 9.823 7.243-22.308-.842-24.766-8.166-2.108-2.135-18.607-4.5-11.844-8.663zM396.297 65.579c7.104 11.547 21.66 9.268 30.087 19.03-2.339 6.15-15.928-9.668-23.445-8.904-.894-2.377-13.42-8.46-6.642-10.126zM3.617 100.596c15.914-8.732 34.555-8.665 51.89-12.03 17.493 1.131 27.256 16.63 44.716 18.372 13.973 10.098 35.873 8.3 47.436 20.76 6.983 6.366 29.895 15.455 26.683 23.3-16.088-7.605-26.188-24.075-43.232-27.642-18.433-5.275-35.042-14.169-53.669-19.418-8.874-13.094-27.76-13.064-41.19-7.809-12.102-2.913-27.213 9.239-36.43 8.368l.055-2.257c1.065-.586 2.688-1.108 3.74-1.644z"/>
        <path d="M126.82 116.612c19.556-5.46 38.814-22.936 60.073-15.057 24.62 10.936 51.219 17.171 74.701 30.68 28.38 11.78 57.858 20.725 88.207 25.593 11.248 7.778 36.195 2.192 41.202 11.018-21.434 1.643-41.534-8.342-62.64-11.035-31.284-7.344-61.886-17.934-90.424-32.685-18.646-7.444-37.976-13.184-56.378-21.16-19.581-2.597-36.101 11.966-54.033 16.195-.773-.852-1.842-2.495-.707-3.55z"/>
        <path d="M283.728 136.248c16.793-6.402 32.21-16.612 50.471-18.871 24.16-7.256 48.934-14.078 74.415-12.003 32.276-1.56 64.365 3.747 95.56 11.457a39.87 39.87 0 0 1 3.797.804l.007 4.812c-2.313-.126-5.18-.846-8.054-2.48-29.787-7.22-60.388-12.363-91.185-10.58-30.917-2.825-60.212 8.672-89.704 15.904-9.527-.388-33.004 21.609-35.308 10.957zM3.455 124.82c20.48-1.395 40.354 2.968 59.979 8.173 30.726 2.272 59.106 14.885 88.304 23.42 20.782 8.362 42.006 16.33 60.603 29.04 32.516 18.094 69.76 23.711 105.601 31.675 23.224.408 45.873 6.217 68.958 8.024-2.466 13.326-31.279-1.719-43.516-.256-20.475-.392-40.327-4.537-60.098-9.696-32.973-5.013-64.284-17.825-92.334-35.65-16.885-8.154-34.423-15.23-52.132-21.472-24.39-6.598-47.742-17.382-73.296-18.98-19.507-4.662-38.918-9.581-59.207-8.532-2.19.398-5.145.207-6.286-.357l-.01-5.274c.532-.369 2.11-.129 3.434-.115z"/>
        <path d="M107.068 140.695c22.278-10.676 46.151 2.57 68.777 5.037 25.296 3.183 50.119 9.302 75.725 9.657 24.342 2.31 49.011 1 73.086 6.373 22.51 2.557 44.96 6.009 67.766 4.622 27.885 4.54 55.954.41 83.887-.565 10.317-.317 21.254-2.396 31.772-3.503l.005 6.596c-11.988 1.603-24.9.497-36.504 3.314-26.344-.042-52.745 4.84-78.976.034-21.32.973-42.457-1.122-63.468-4.19-22.76-3.837-45.735-6.283-68.849-5.871-22.653-2.634-45.492-2.833-67.782-8.248-24.38-1.556-47.6-11.5-71.99-11.507-4.501-.766-16.102 9.311-13.45-1.749z"/>
    </g>
    <g fill="#ececec">
        <g stroke-width="1.076">
            <path d="M66.982 187.575c-1.67-2.56-2.597-5.578-3.462-8.55-1.237-1.162-2.481.373-2.682 1.723-.474 1.61-1.033 3.41-2.518 4.205-.677.322-1.74 1.413-.33 1.065 2.327-.391 3.825-2.769 4.57-5.048.957-.95.326-3.326-.677-1.877.778 2.989 1.883 5.905 3.416 8.516.422.715 1.277.671 1.683-.034z"/>
            <path d="M67.602 187.17c-1.826-6.228 1.918-20.204-.113-26.323-.618-1.465-7.074 4.58-11.152 6.758 2.58-.243 10.338-5.713 10.32-4.096.274 5.872-1.51 18.119-.648 23.945.436.53 1.336.553 1.593-.284zM64.631 187.575c-1.123-3.273-2.168-6.679-4.198-9.432-.354-1.406-1.732-3.057-3.077-2.488-1.395.764-1.4 1.214-3.121 3.559 1.67-.473 4.552-3.897 3.46-2.969.674.838 2.095 2.185 2.467 4.006 1.244 2.282 2.047 4.81 2.763 7.34.31.649 1.457.736 1.706-.016zM71.394 187.113c-.623-4.197 1.257-8.12 2.665-11.876.88-2.077 9.752-4.61 11.328-5.92-3.772.594-9.375 2.231-10.37 3.007-1.562.89-2.597 2.546-3.178 4.336-.814 2.578-2.025 5.058-2.155 7.837-.209 1.285-.248 4.07 1.584 2.848z"/>
            <path d="M74.008 186.024c.233-2.456 1.94-4.655 4.17-5.116 1.565-.63 3.062-1.464 4.665-1.979-1.923-.626-3.582 1.03-5.362 1.524-1.981.719-4.39 1.76-4.876 4.28-.841 1.182.505 2.692 1.403 1.291zM69.837 186.024c-.356-6.414 1.528-12.613 3.117-18.687.625-3.538 4.019-5.642 4.086-6.782-1.73.295-4.775 4.655-5.182 5.629a42.38 42.38 0 0 0-1.614 5.337c-1.117 4.287-1.968 8.682-2.173 13.142-.282 1.288.707 2.783 1.766 1.361zM62.974 185.641c-1.456-1.633-2.551-3.897-4.593-4.72a9.08 9.08 0 0 0-5.908.732c.87 1.084 2.198-.479 3.227-.658.699-.082 1.295-.313.252-.251-.879.078 1.33.063 1.615.616 1.674 1.15 2.604 3.18 4.04 4.598.445.388 1.108.251 1.367-.317z"/>
            <path d="M73.824 187.302c.19-1.898-.051-3.97.897-5.67 1.5-1.513 3.286-2.622 4.83-4.074-2.462.08-3.853 2.725-5.919 3.809-1.516 1.053-1.089 3.237-1.384 4.888-.859 1.344 1.206 2.636 1.576 1.047zM64.958 184.09c-1.288-4.87-1.972-9.896-2.659-14.897-.496-2.15-5.502-6.59-6.835-8.087.316 1.705 1.797 2.944 2.67 4.18 2.035 1.545 2.813 4.309 3.085 6.888.511 3.245.856 6.532 1.647 9.716-.109 1.16.821 3.932 2.092 2.2z"/>
        </g>
        <g stroke-width="1.473">
            <path d="M108.72 167.278c.867-4.142 2.758-12.057 4.032-16.1.058 1.743-.31 3.107-.357 4.496-1.147 3.623-1.486 7.957-2.072 11.697-.36.477-1.333.468-1.604-.093z"/>
            <path d="M111.021 167.483c.592-3.438-1.273-7.266-2.608-10.343-.835-1.701-2.748-2.47-4.242-3.543 1.961.103 2.39.522 3.334 1.157 1.481.73 2.463 2.085 3.013 3.552.773 2.111 1.921 4.143 2.044 6.42.198 1.052.317 3.95-1.42 2.947zM107.738 167.465c-.2-2.078-1.58-5.488-2.933-7.083.643-.208 2.106.131.864.726-1.29 1.538-2.78 3.285-4.972 3.55-.52.382-1.998.849-2.303.351.94-.485 2.111-.48 2.953-1.185 1.01-.689 1.817-1.604 2.47-2.596.696-.926 2.378-1.442 3.127-.296.796 1.434 2.315 4.35 2.247 6.06.051.906-.979 1.305-1.453.473z"/>
            <path d="M110.943 166.657c-.007-1.923-.111-5.986.746-7.85 1.05-1.589 2.572-2.883 4.317-3.622.068 1.21-1.728 1.23-2.51 1.832-.509.431-1.037.708-.315.03.624-.557-.837.945-.697 1.453-.423 1.798-.348 5.615-.455 7.402-.063.524-.58.9-1.086.755z"/>
        </g>
        <g stroke-width="1.276">
            <path d="M116.959 167.932c-.847-5.658-2.693-16.471-3.938-21.994-.056 2.38.304 4.244.349 6.142 1.12 4.95 1.452 10.87 2.024 15.979.351.652 1.3.64 1.565-.127z"/>
            <path d="M114.712 168.213c-.578-4.697 1.242-9.927 2.546-14.13.816-2.325 2.683-3.376 4.142-4.841-1.915.14-2.333.712-3.255 1.58-1.446.996-2.405 2.85-2.942 4.853-.755 2.885-1.876 5.66-1.996 8.77-.193 1.439-.309 5.396 1.387 4.028zM117.917 168.187c.195-2.839 1.543-7.496 2.863-9.676-.627-.284-2.055.18-.843.992 1.26 2.102 2.713 4.488 4.855 4.85.508.523 1.95 1.16 2.247.48-.917-.663-2.06-.655-2.882-1.62-.987-.94-1.775-2.19-2.412-3.546-.68-1.265-2.321-1.97-3.053-.405-.777 1.96-2.26 5.944-2.194 8.28-.05 1.237.956 1.783 1.42.645z"/>
            <path d="M114.788 167.084c.007-2.628.108-8.178-.728-10.723-1.025-2.172-2.511-3.94-4.215-4.95-.067 1.652 1.687 1.68 2.45 2.503.497.589 1.013.967.308.04-.61-.76.817 1.292.68 1.987.413 2.455.34 7.67.445 10.112.062.716.566 1.23 1.06 1.03z"/>
        </g>
        <g stroke-width="1.849">
            <path d="M428.736 190.12c.793-2.878 2.523-8.377 3.688-11.185.053 1.21-.284 2.158-.326 3.123-1.05 2.517-1.36 5.527-1.896 8.126-.329.331-1.219.325-1.466-.065z"/>
            <path d="M430.841 190.262c.541-2.389-1.164-5.048-2.385-7.186-.764-1.182-2.513-1.716-3.88-2.461 1.794.07 2.186.362 3.05.803a4.967 4.967 0 0 1 2.755 2.468c.707 1.467 1.757 2.878 1.87 4.46.18.732.289 2.744-1.3 2.048zM427.839 190.249c-.182-1.444-1.445-3.812-2.682-4.92.587-.145 1.925.09.79.504-1.18 1.069-2.542 2.282-4.548 2.466-.476.266-1.827.59-2.105.244.859-.337 1.93-.333 2.7-.824a7.608 7.608 0 0 0 2.26-1.803c.635-.643 2.173-1.002 2.859-.206.727.997 2.117 3.023 2.055 4.211.046.63-.896.906-1.33.328z"/>
            <path d="M430.77 189.688c-.007-1.336-.102-4.159.682-5.453.96-1.105 2.352-2.004 3.948-2.517.062.84-1.58.854-2.296 1.272-.465.3-.948.492-.287.02.57-.386-.766.658-.638 1.011-.387 1.249-.318 3.9-.416 5.142-.058.365-.53.626-.994.525z"/>
        </g>
    </g>
</svg>
