<svg xmlns="http://www.w3.org/2000/svg" viewBox="0 0 508.00001 251.35416" height="950" width="1920">
    <g fill="#ccc">
        <path d="M407.924 64.326c14.234-.81 28.538-1.232 42.785-1.046 14.47 2.32 29.075 1.364 43.571 2.328.09.072 7.192-1.586 4.536 2.39-7.649-.248-15.229-.553-23.487-.794-14.881.277-29.567-3.122-44.473-1.498-6.61-1.66-19.753 3.272-22.932-1.38zM250.95 64.794c14.907 2.214 30.522 1.499 45.187 3.082-5.424 4.565-18.804-.116-26.866.728-4.996-1.283-17.933 1.302-18.32-3.81zM315.158 65.27c13.861-.216 27.794.235 41.567.66 6.102 2.89-4.833 1.923-7.18 1.867-11.417-.198-22.837-.805-34.253-.421l-.134-2.106zM400.171 106.375c24.064-2.456 48.505-.428 72.464-.15 3.05 1.073 15.722-1.487 13.098 2.394-15.78-1.026-31.661-.706-47.732-1.38-12.537-.052-25.09-.578-37.6.993l-.23-1.856z"/>
        <path d="M487.32 107.295c2.93 13.443-2.65 27.386-3.756 40.953.05 10.614-.995 20.976-2.905 31.383 1.07 6.532-5.2 8.204-1.951-.01.993-10.795 3.938-21.214 3.414-32.26 1.363-12.605 5.316-25.137 4.566-37.834l-.685-1.459 1.315-.773zM397.655 102.459c19.466-.87 38.907-2.622 58.385-1.456 12.345.24 24.732.96 36.957 1.446-3.382 3.677-13.758.378-19.755.83-20.307-.818-40.69-1.655-60.999.12-4.187-.974-12.364 1.757-14.588-.94zM495.044 102.139c-1.361 19.708-2.52 39.564-6.009 59.01.483 8.171-2.907 16.012-2.047 24.147-4.915 1.468-.98-10.638-.76-14.96.926-13.928 4.558-27.6 4.962-41.664 1.174-8.807 1.793-17.683 2.241-26.533h1.613zM400.263 108.286c-1.118 7.73-.838 16.65-2.663 24.723-2.193 5.09.161 21.024 1.652 7.809-.806-9.885 5.4-25.345 1.01-32.532zM397.166 104.227c-8.418.912.982-5.309 0 0z"/>
        <path d="M394.31 103.433c-1.459 11.359-1.087 23.735-1.647 35.543-.455 10.999 3.647 5.917 1.914-1.881.217-11.136.575-22.265 1.228-33.394l-1.495-.268z"/>
        <path d="M384.915 98.702c4.54-1.73 19.155 8.629 7.603 4.606-2.172-2.044-9.24-.72-7.603-4.606z"/>
        <path d="M386.27 98.484c15.847-.907 31.71-.92 47.548-.214 5.37-.607 10.75-.648 16.125-.477 1.402.323 1.915.868.745 1.835-13.8.687-27.606.476-41.446-.188-6.693-1.526-19.247 3.313-22.973-.956z"/>
        <path d="M385.382 99.433c-1.088 3.64-.851 7.953-.492 12.375.623.497 1.257.803 1.953.096a52.09 52.09 0 0 0-.458-4.372c-.89-1.598 2.225-8.987-1.003-8.099zM474.151 108.328c-1.047 9.935-.962 20.004-2.652 29.904.435 10.584-2.609 20.915-2.629 31.482.145 2.733-1.318 10.041-2.673 4.688a1323.09 1323.09 0 0 0 3.569-31.33c.268-11.353 2.49-22.537 2.471-33.922l.246-1.155 1.668.333z"/>
        <path d="M467.459 174.493c1.852 5.2 7.488 4.303 10.432 7.943 4.873 3.004 1.586 5.19-1.463.615-2.105-2.349-14.014-4.402-8.97-8.558zM480.578 184.54c9.164-2.321 9.944 6.302 0 0zM409.912 43.004c-.848 11.391-.805 22.225-1.345 33.596 2.156 6.84.062 13.766.01 20.438-3.582 1.634-2.046-3.696-2.018-5.673 2.17-7.275-1.098-14.76.473-22.19.053-9.039.474-17.468 1.46-26.436zM407.903 109.547c-1.509 7.928-2.212 16.365-2.679 24.581-2.08 7.654-2.563-8.41-.88-10.753 2.09-3.27-1.79-15.686 3.56-13.828z"/>
        <path d="M418.926 90.604c-3.06-.265-6.12-.459-9.187-.535-.871.086-2.282.423-2.173-.169l.381-2.064c2.36.284 4.767.495 7.197.685zm33.885-2.257l1.495-1.312c.522.047 1.044.095 1.565.144-.501.875-1.388 1.801-2.513 2.668-.377-.477-.92-1.409-.547-1.5zm-17.318 2.502l-7.372.726c4.375.522 8.75 1.099 13.128 1.596 3.264 1.005 7.67-.414 10.877-2.461l-4.167.104c-4.066 1.048-9.195.867-12.466.035zM419.386 42.596a94.345 94.345 0 0 0 .062 3.851c-1.302 5.456-1.84 11.511-2.398 16.751-3.212-1.266-.681-7.812-.453-10.898.752-3.253 1.044-6.555 1.204-9.874zM416.6 66.73c-1.237 5.088 1.876 13.288-.088 17.888l-1.64-.067c-.312-2.652.797-6.032-.126-8.73.245-2.587-1.93-10.074 1.855-9.091z"/>
        <path d="M416.377 91.55c.35 2.182.365 3.569.201 4.37-.257 1.255-.954 1.075-1.5.262-.677-1.007-.86-5.732.055-7.155.335-.522.388.719 1.152.356zM415.21 108.302c-.128.379-.233.984-.324 1.74-.4 3.318-.766 24.274-1.404 27.104-.39 1.728-.969 2.187-1.913-.061.931-2.618.339-24.063 1.578-27.168.412-1.034 1.053-1.667 2.064-1.615z"/>
        <path d="M413.21 138.044c17.19-1.137 32.926 7.694 49.948 8.149 3.064.27 6.757 3.74 1.447 2.467-5.023-2.057-10.767-.958-15.927-2.807-11.772-2.448-23.21-6.658-35.4-6.508l-.069-1.301zM492.732 151.468c5.297 2.217 16.38 1.467 18.701 6.22-5.053-1.218-17.62-2.075-18.7-6.22zM404.576 136.242c1.575 2.052-.624 6.736-1.535 3.397.324-1.207-1.3-4.43 1.535-3.397z"/>
        <path d="M405.928 139.154c5.335-4.37 11.854-.798 2.46.699l-1.87.755-.59-1.454zM171.218 122.196c.388-.536.583-1.178.921-1.74.135-.225.324-.414.448-.644.26-.485.418-1.018.638-1.522.755-1.637 1.55-3.26 2.089-4.986.623-1.098.868-2.35 1.32-3.515-.006-.108.175-.924.226-.965-.246.425.292-.634.522-.902.173.008.265-.166.388-.224.23-.108.13.055.327-.217.294-.142-.104.17-.188.285.004-.025-.004-.055.01-.076.027-.037.082-.048.107-.086.105-.16.088-.369.175-.548.274-.601.355-1.265.627-1.862.322-1.033.77-2.007 1.203-2.996.326-.557.764-1.023 1.163-1.522.133-.167.23-.363.371-.524.276-.31.611-.562.91-.851.775-.712 1.59-1.383 2.665-1.503.951-.245 2.024-.235 2.96.058.187.012.376.007.562.036.187.03.364.107.55.136.667.105.459-.014 1.124.045 1.142.1-.055.112 1.006.073.603-.026 1.095-.241 1.592-.556.424-.275.587-.817 1.008-1.076.152-.214.386-.575.67-.633.08-.006.068-.206.12-.23.027-.013.06.033.087.02.05-.025.056-.1.099-.135.056-.013.207-.082.168-.04-.997 1.041-.38.164-.243-.08.667-.743-.327.327.49-.414.086-.079.14-.188.222-.273.284-.297.629-.553.945-.814.768-.563 1.37-1.312 2.185-1.81.465-.277.778-.754 1.198-1.077.467-.36.123.094.43-.388.146-.18.411-.316.45-.56.366-.565.698-.572 1.32-.616.242-.003.495.072.733.07.097 0 .188-.066.284-.059 1.24.097-.642.172.73.082.881.155 1.782-.002 2.635.287.76.144 0-.034.705.234.12.046.26.04.372.104.341.197.561.628.74.957.165 1.124-.085-.35.169.591.057.211-.024.33.155.497l.101.098c.018.06.008.136.052.181.052.053.145.041.207.082.065.043.1.124.167.164.317.103.169.032.445.21.445.155.864.371 1.32.497.188-.017.33.154.484.202.058.019.127-.017.183.006.103.044.169.15.266.205.596.286-.143-.115.362.318.065.056.169.052.233.11.17.15.169.335.3.51.068.09.161.156.242.235l.232.28c.1.09.212.168.3.269.096.107.148.25.25.352.11.107.263.16.375.264.117.108.206.244.308.366l.384.325c.782.697 1.565 1.383 2.258 2.17.362.3.647.698.992 1.012.112.102.26.16.372.262.722.655-.153.08.706.588.743.601-.039.01.77.5.125.076.225.19.357.256.13.066.287.067.419.131.44.315.21.179.688.412.462.238.87.54 1.304.82.597.386.093-.08.58.424.61.48.918 1.099 1.18 1.813.064.114.154.217.191.343.008.028.032.724.036.752.047.365.14.695.154 1.068.01.572.126 1.113.216 1.674.12.236.094.514.162.761.025.092.09.17.11.263.115.547-.157.01.148.51-.138.31.043.531.127.809.156.516-.137-.06.134.417.193.529.546.954.793 1.457.527.597.806 1.363 1.32 1.962.096.373.457.602.63.921.051.097.048.215.091.316.042.096.108.18.162.272l.114.296c.16 1.002-.042 1.619-.733 2.349-.31.29-.544.585-.713.967-.166.186-.15.437-.143.682a4.962 4.962 0 0 0-.038 1.165c.029.153-.021.349.042.498.017.042.067.067.08.11.025.088-.003.183.012.272.156.196.162.472.271.688.215.423.083-.1.171.366.085.197.047.432.097.632.017.066.077.118.088.186.08.522-.168-.131.039.348.077.145-.105.382-.063.518.116.375.086-.115.093.166-.155.15-.032.442-.133.61-.1.166-.41.478-.596.667-.214-.114-.373.19-.552.199-.064.003-.12-.056-.185-.053-.55.03.287.172-.377.024-.089.018-.176.049-.267.052-.224.01-.447-.06-.671-.056-.394.007-.804.044-1.196.082-.75-.007-1.479.168-2.217.27-.491-.03-.874.45-1.348.402-.273.152.014.098-.202.162-.207.114-.352.311-.48.506-.279.14-.56.263-.777.494-.462.168-.922.393-1.374.623-.557.377-1.188.53-1.807.768-.4-.128-.703.152-1.064.214-.141.025-.287-.019-.43-.013-.3.011-.596.057-.895.077-.158.004-.317-.01-.474.01-.156.021-.304.09-.46.112-.306.044-.62.003-.925.046-.984.139.113.094-.844.107-.733.064-1.456-.088-2.188.033-.857-.002-1.715-.1-2.577-.067-.775.097-1.55-.051-2.326-.036-.356.007-.71.054-1.065.077-.061.005-.832.066-.913.089-.121.034-.215.141-.338.17-.108.026-.224-.027-.334-.01-.3.13-.151.092-.444.129-.206.185-.435.208-.665.361-.628.323-1.256.617-1.876.983-.434.005-.572.355-.875.562-.159.108-.433.206-.616.281-.359.307-.981.503-1.436.381-.68.175-1.41.055-2.09-.092-.415-.116-.859-.127-1.276-.223-.147-.034-.28-.118-.428-.142-.155-.025-.314-.001-.471-.002l-.468-.08c-1.01-.196-2.044-.206-3.055-.382-.506.084-.977-.161-1.457-.221-.153-.019-.307.028-.46.019-.36-.021-.484-.09-.815-.209-.515-.12-1.078-.103-1.57-.317-.677-.295-.02-.185-.78-.24-.366-.23-.8-.273-1.194-.412-.144-.05-.263-.16-.41-.201-1.408-.39.47.353-.876-.216-.53-.014-1-.298-1.505-.41-.544-.119-.139.099-.572-.194-.276-.165-.622-.177-.906-.31-1.143-.539.665.178-.48-.26-.493-.219-.96-.506-1.447-.748-.356-.14-.561-.454-.838-.682-.729-.6.262.392-.44-.34-.486-.465-1.051-.807-1.617-1.164-.495-.266-.947-.62-1.458-.866-.102-.288-.444-.312-.619-.513-.076-.087-.115-.2-.186-.291-.047-.037-.106-.063-.142-.111-.036-.047-.04-.112-.07-.163-.025-.041-.063-.074-.094-.111-.05-.041-.117-.068-.152-.123-.215-.34.209.028-.133-.233-.019-.164-.214-.214-.065-.383-2.007-2.169 1.224-1.437 1.604-1.457.147-.106.394-.018.527-.154.043-.044.053-.113.094-.16.135-.211.248-.44.357-.678.146-.241.326-.432.478-.677.304-.196.514-.066.812.073.04-.035.536.54.495.576.103.167.175.31.262.47.14.196.002.415-.19.55-.103.18-.174.442-.29.602-.178.244-.53.355-.64.66-.5.336-1.146.607-1.752.573-.999-.003-1.224.5.236-1.458.16-.023.074.053.196.134.127.148.261.347.322.486.076.08.053.032.065.146.038.045.13.009.169.054.169.19-.12.085.211.153.255.423.926.545 1.281.888.354.229.692.464 1.037.702.111.076.244.12.35.204.1.079.163.2.265.277.089.068.199.102.298.154.124.152.192.26.351.375.054.038.126.049.175.092.15.132.173.26.418.264.337.341.787.502 1.232.658.209.078.346.262.554.325.08.024.17-.006.248.02.154.053.248.233.432.227.33.118.677.274 1.016.352.125.03.26.02.382.059.137.042.26.121.39.182.904.219 1.776.524 2.684.72.622.305 1.323.396 1.99.571.683.195.058.047.78.125.588.063 1.152.263 1.75.277 1.121-.042-.138-.045 1.002.122.717.105 1.478-.002 2.182.233a77.26 77.26 0 0 0 2.608.405l.313.07c.092-.01.185-.046.277-.032.093.014.164.105.258.113.172.016.418-.2.614-.08.176.019.227.038.348-.035.188-.107.44-.188.611-.302.104-.068.162-.194.27-.257.24-.142.563-.109.773-.325.608-.308 1.194-.62 1.787-.946.364-.28.821-.414 1.243-.598.843-.16 1.693-.278 2.552-.319 1.203-.025 2.405 0 3.606-.009.202.004.745.02.957.002.142-.012.28-.065.422-.07.348-.01.705.114 1.05-.026.687.184 1.402-.047 2.107.082.827-.14-.078-.017.788-.035.589-.012 1.171-.213 1.766-.136.28-.043.554-.133.837-.15.124-.008.247.046.37.036.285-.023.507-.227.782-.278.524-.059.942-.362 1.43-.557.393-.255.822-.436 1.222-.661.155-.048.176-.241.35-.226.208-.122.353-.348.575-.46.079-.055.174-.086.247-.148.05-.043.163-.256.224-.284.123-.057.286.037.402-.066.235-.149.452-.153.717-.237.216-.07.418-.185.639-.233.127-.028.26-.022.389-.033.8-.28 1.681-.23 2.517-.288.689-.17 1.394-.031 2.09-.187.268.03.587-.165.2.056-.289.117-.196.055-.478.557-.04.07-.038.157-.057.235.006.02.022.039.018.058-.005.023-.066.058-.044.053.028-.006.042-.038.063-.057-.028-.023-.076-.035-.085-.07-.024-.093.164-.343.041-.465.181-.223.04.018-.052-.175-.015-.031.047-.055.055-.09.029-.112-.126-.158-.08-.274-.013-.361-.36-.68-.347-1.067-.305-.5-.283-1.077-.356-1.64.005-.46.098-.911.074-1.366.044-.558.063-1.122.426-1.588.197-.506.57-1.003.992-1.343.048-.052.1-.1.143-.154.222-.274-.045.072.154.076.022 0 .016-.041.024-.062-.285-.395-.489-.884-.696-1.325-.531-.572-.888-1.311-1.288-1.978-.173-.182-.347-.338-.463-.568-.056-.11-.054-.248-.121-.353-.067-.106-.203-.156-.27-.261-.129-.2-.085-.484-.28-.656-.06-.201-.141-.398-.18-.604-.078-.402.043-.184-.102-.571-.03-.082-.094-.15-.116-.235-.02-.079-.006-.163-.01-.244-.15-.455-.12-.962-.314-1.407-.024-.34-.118-.646-.171-.982-.019-.117-.03-.234-.044-.352.006-.114.035-.23.02-.343-.016-.112-.075-.214-.112-.321.05-.543-.029-1.055-.176-1.576-.037-.102-.036-.224-.107-.306-.039-.046-.12-.043-.155-.091-.097-.128-.108-.4-.256-.51-.527-.284-.935-.733-1.524-.912-.38-.222-.772-.429-1.151-.65-.148-.087-.276-.205-.426-.288-.162-.09-.349-.13-.507-.227-.16-.098-.294-.234-.442-.352-1.768-1.645.944.843-.883-.716-.52-.445-.934-.988-1.422-1.462-.288-.347-.585-.761-.922-1.06-.366-.326-.857-.63-1.194-1.008-.104-.148-.186-.315-.312-.445-.245-.253-.573-.415-.821-.665-.511-.514-.126-.193-.556-.732-.082-.103-.184-.189-.276-.283-.202-.179-.5-.54-.625-.674-.034-.017-.128-.115-.137-.117-.05-.015-.105.026-.155.013-.109-.027-.173-.16-.294-.164-.526-.182-1.061-.355-1.537-.654-.728-.353-1.467-.735-1.822-1.51-.486-.638-.285-.557-.423-1.208-.007-.035-.03-.063-.046-.095l-.027-.002c.239.038-.037-.034.115.11.063.058.08-.141-.362-.123-.156-.06-1.003-.295-1.124-.3-.153-.008-.299.084-.452.088-.27.007-.53-.133-.801-.114-.31.008-.615-.016-.924-.017-.496-.002.177.021-.38.085-.054.006-.109-.02-.163-.028-.035.003-.069.01-.103.008-.389-.034.33-.122.532-.286.039-.031.006-.1.017-.149.005-.02.003.04.004.06-.286.29-.486.681-.827.929-.536.562-1.225.973-1.81 1.486-.7.591-1.381 1.206-2.098 1.774-.407.409-.905.796-1.217 1.272-.098.113-.156.36-.26.445-.213.173-.46.3-.676.468-.031.025.075-.022.113-.033.128.002.172-.042.142-.092-.026.033-.022.094-.06.112-.155.07-.301.038-.402.242-.137.27-.33.355-.539.569-.274.282-.486.628-.834.837-.115.075-.69.46-.805.514-.649.302-1.44.33-2.13.444-.586-.035-1.153-.178-1.734-.216-.592-.039-1.2.078-1.778-.135-1.77-.266.61.067-.954-.082-.374-.036-.71-.207-1.084-.044-.693.012-1.304.572-1.802 1.002-.394.332-.857.667-1.166 1.085-.106.144-.163.318-.262.467-.191.284-.46.513-.613.827-.43.85-.736 1.741-.983 2.66l-.106.396c-.061.117-.144.224-.184.349-.037.116-.016.244-.044.362-.063.273-.226.52-.187.815-.04.163-.158.327-.188.482-.009.049.027.103.008.15-.082.205-.133-.117-.063.149-.173.356-.392.664-.739.867-.212.115-.514.22-.633.429.132-.78.458-1.093.268-.502-.1.401-.246.767-.37 1.16-.302 1.002.092-.215-.356.875-.077.187-.115.387-.193.573-.298.711-.695 1.386-.95 2.117a34.36 34.36 0 0 1-2.133 5.091c-.623 1.602.027.051-.735 1.54-.432.843-.788 1.727-1.259 2.55-.07.128-1.865-.878-1.794-1.005z"/>
        <path d="M197.68 110.59c.861-.489 1.666-1.082 2.547-1.538 1.74-.903-.196.218 1.434-.753 1.087-.526 2.135-1.11 3.244-1.588.337-.187 1.041-.323 1.338-.55.527-.108.312-.157.97-.067.473.18.675.502.918.898-.004.224.269.37.348.533.023.047-.02.114.01.157.032.043.1.041.15.062.023.209.137.29.271.219.11.134.186.026.32.05.07.013.12.082.188.1.173.046.358.035.534.067.526.058 1.023.215 1.534.344.376.037.723.163 1.069.31.343.152.645.475.756.84.164.542-.159-.02.128.422-.086.227-.09.348.04.518-.112.143.059.135.085.221.063.204-.104.034.08.18.188.323.529.454.836.636.213.285.585.343.868.515.25.236.112.138.416.296.078.041.165.07.234.124.067.053.108.133.17.192.187.178.434.275.588.48.203.163.275.453.462.613-.015.274.042-.052-.208.395.072.054-.694 1.07-.766 1.016-.45.233-.662.048-.881-.364-.05-.08-.093-.132-.128-.212-.133-.205-.29-.206-.376-.29-.29-.289.201-.046-.224-.218-.264-.148-.14-.053-.363-.297-.081-.047-.19-.027-.275-.067-.238-.113-.42-.372-.694-.432-.46-.364-.913-.738-1.363-1.114-.222-.393-.452-.777-.617-1.197.024-.058.073-.11.07-.173-.003-.046-.184-.511-.13-.64-.01.078.257.408.441.418-.173-.088-.527-.157-.774-.2-.453-.07-.881-.255-1.344-.287-.558-.02-1.075-.17-1.621-.244-.34-.362-.903-.467-1.121-.982-.13-.184-.229-.372-.353-.558-.063-.094-.058-.221-.12-.315-.024-.035-.073-.043-.11-.065-.09-.056-.031-.113-.105-.132-.015-.004.443.238.41.243.176.008.549.084.521-.09-.005-.03-.05.143-.077.049-.388.227-.83.363-1.269.453-.525.22-.26.088-.79.403-.17.075-.36.1-.533.172-.615.258-1.15.685-1.784.906a24.696 24.696 0 0 0-3.694 2.25c-.12.09-1.382-1.62-1.26-1.71zM177.336 104.75c-.642-.691-1.389-1.27-2.08-1.91-2.417-2.238 1.173.93-1.416-1.33-1.604-1.397-3.237-2.768-4.972-4-1.663-.979-3.187-2.167-4.727-3.326-1.05-.842-2.004-1.788-3-2.691-.444-.448-.955-.818-1.417-1.241-.252-.13-.546-.223-.74-.44-.127-.043-.265-.275-.375-.278-.134-.078-.293-.37-.31-.269-.07-.101-.254-.397-.304-.298.182.138.019.01-.052-.066-.195-.102-.448-.108-.684-.128-.596-.118-1.21-.068-1.824-.084-.685-.068-1.336.215-2.007.241a1.637 1.637 0 0 0-.573.218c-.031-.016.066-.075.042-.065-.401.185-.403.041-.761.116-.156-.112-.372.012-.551-.001-.11-.008-.215-.075-.325-.066-.118.01-.222.079-.333.119l-.375.009c-.385.038-.757.14-1.135.198-.438.068-.667.007-1.104.174-.568.22-1.197.198-1.776.393-.17 0-.424.15-.571.03-.193.115-.568-.005-.825-.174-.092-.042-.202-.056-.276-.125-.063-.058-.057-.163-.107-.233-.043-.063-.117-.098-.166-.156-.142-.17-.245-.382-.381-.559-.139-.422-.475-.789-.82-1.066-.28-.228-.548-.367-.915-.401-.12.04-.184-.116-.287-.115-.066 0-.116.065-.18.08-.217.057-.446.004-.654-.05-.483-.02-.902.09-1.377-.007-.103.138-.23.008-.318.024-.09.017-.018.1-.104-.003-.054.111-.133-.002-.22-.004-.146.06-.277-.023-.444.021-.108-.017-.16.013-.257.098-.358.131-.668.359-.952.633-.104.124-.294.112-.41.213-.07.06-.337.449-.38.542-.16.188-.177.417-.283.632-.015.057.056.404.052.432-.012.08-.09.139-.111.218.005.416-.03.723-.291 1.096-.307.44-.84.627-1.238.958-.246.247-.68.367-.787.738-.227.044-.174.272-.26.441-.104.38-.233.727-.29 1.117-.005.587-.146 1.136-.277 1.71-.147.73-.297 1.457-.653 2.116-.156.666-.363 1.293-.566 1.944-.186.391-.253.856-.522 1.208-.854 1.119.3-.582-.404.48-.308.301-.65.605-1.068.733-.255.207-.598.213-.86.414-.17.249.064-.028-.206.064-.066.022-.097.193-.171.223.016.196-.09.34-.098.54.019.07.06.14.058.213-.006.211-.175.434-.183.656-.03.81.14-.243-.025.608-.006.361-.144.703-.175 1.06-.019.22.025.542-.032.76-.031.123-.105.23-.158.346-.147.806-.679 1.352-1.162 1.97-.546.355-.961.88-1.493 1.246-.107.263-.39.299-.483.559-.179.277-.335.556-.46.864-.045.04-.107.067-.133.121-.025.052.012.12-.007.173-.073.195-.273.435-.411.592-.017.358-.322.581-.494.874-.198.175-.32.617-.522.739.015.067-.167.11-.175.12-.014.02.033.055.015.071-.064.057-.106-.131-.047.048l-.022.03c-.118.106-1.607-1.562-1.49-1.667l-.006.031c.036-.012.077-.014.107-.036.137-.16.24-.334.393-.488.129-.25.432-.414.409-.721.272-.204.335-.64.587-.898.188-.335.4-.666.643-.965.522-.543-.223.267.226-.335.185-.248.493-.374.686-.614.44-.334.955-.581 1.294-1.04.356-.295.666-.67.796-1.116.055-.183.13-.362.17-.549.102-.46-.01-.952.229-1.38.06-.547.111-1.084.212-1.616.21-.438.274-.966.648-1.305.293-.223.595-.395.934-.531.219-.03.439-.03.546-.25.092-.11.033-.07.18-.112.036-.04.02-.11.054-.151.077-.092.307-.242.363-.387.125-.228.037-.135.267-.273.04-.054.017-.134.044-.195.097-.22.334-.351.317-.627.255-.64.352-1.334.631-1.959.082-.69.537-1.207.55-1.913.064-.192.216-.628.223-.822.004-.097-.07-.188-.063-.285.013-.186.214-.335.13-.544.024-.177-.005-.358.02-.535.04-.271.196-.554.244-.824.211-.83-.134.403.195-.385.03-.071 0-.157.027-.229.067-.174.255-.338.354-.494.314-.408.773-.66 1.131-1.024.188-.101.422-.306.597-.388.051-.024.116.001.168-.02.019-.006.073-.094 0-.06.114.39-.078.132-.019-.125-.06-.314-.001-.65-.038-.966.164-.493.259-.98.557-1.419.322-.468.707-.969 1.244-1.189.328-.371.79-.565 1.18-.865.2-.124.836-.32 1.073-.328.244.008.404-.057.636-.016.148.005.03-.113.088.021.006-.037-.015-.094.018-.112.026-.015.01.065.034.083.03.023.33-.076.366-.028.257-.017.123-.032.399.066.084 0 .157-.072.241-.078.09-.006.177.047.267.045.698-.015-.206-.154.612.014.529-.042 1.064-.093 1.577.08.311.067.652.148.928.316.097.06.168.157.265.216.655.396.034-.139.596.396.667.606-.114-.143.456.53.241.285.524.533.673.893.07.053.48.497.242.301-.205-.127-.092-.1-.343-.071-.146-.076.184-.112.141-.084-.127.084-.122.072-.176.013.05.044.206.059.345-.018.575.026 1.133-.245 1.7-.3.281-.035.551-.137.832-.166.145-.015.29.037.435.027.14-.01.274-.072.414-.09.838-.107 0 .105.787-.125.344 0 .735.01 1.075-.04.103-.014.193-.083.296-.09.18-.013.35.146.536.042.23-.233-.507.033-.088.024.201-.245.596-.103.85-.265.5.036.98-.145 1.485-.176.15-.01.301.02.451.005.15-.016.297-.064.445-.096.748.075 1.504.022 2.25.126.955.07-.319-.053.58.128.086.017.177-.015.263.002.37.075.068.094.39.21.063.023.134.014.2.021.2.11.453.366.638.514.098.196.075.036.1.166.002.012.017-.016.026-.025.038.04.36.328.109.143.194.09-.068-.053.018.086.053.084.258.179.355.204.254.186.473.404.706.615.464.493.954.965 1.428 1.448a30.463 30.463 0 0 0 2.757 2.73c1.481 1.189 2.974 2.356 4.6 3.346 1.649 1.4 3.415 2.656 5.09 4.026.949.721 1.917 1.447 2.828 2.217.172.145.312.326.492.46.146.11.318.178.477.266.104.094-1.215 1.556-1.318 1.463z"/>
        <path d="M125.457 112.844c.927.693 1.966 1.153 3.06 1.506.492.339 1.12.317 1.643.576.157.078.282.21.433.3.562.284.292.131.812.455.469.245.712.7.978 1.127.053.085.15.142.186.235.035.086.014.185.02.278.228.394.289.887.277 1.336.057.426-.041.867.028 1.288.124.154-.06.331 0 .49.044.114.065.037.055.136.109.06.328.09.493.107.198.18.423.156.66.201.198.038.27.148.473.114.216.122.337-.074.286.136-.207-.429.81 1.21.763.454-.554-.482-.118-.1.063.09.092.301.065-.01.148.21.176.1.172.337.345.436.18.24.405.382.714.452.944.252 1.974.382 2.954.356 1.616.223 3.247.226 4.874.277 2.153.245-.55-.019 1.445.046.19.006.377.061.567.08.368.039.72-.007 1.084.05.383.028.85.01 1.114.372.134.184.175.42.263.631-.123.505.054.38-.089-.015-.125-.276-.384-.609-.63-.606.364.06.732.014 1.097.042.238-.078.471.057.706.036.124-.01.236-.08.358-.103.396-.077.783-.106 1.178-.207.966-.208-.164.072.722-.26.203-.045.446-.09.642-.167.548-.215-.024-.068.537-.189.466-.23.908-.48 1.37-.72.178-.12.397-.079.587-.145.096-.034.17-.118.269-.146.099-.028.208.001.309-.019.093-.019.18-.065.27-.097l.287-.054c.256-.061.521-.145.78-.184.238-.035.397.04.629-.045.305-.062.617-.048.932-.064.29-.055.582.067.863.075.155.004.307-.047.461-.051.243.055.48-.084.714-.092.206-.007.294.057.496-.026.118.056.342-.178.444-.163.048.007.07.082.118.09.027.003.036-.041.054-.061.11-.005.261.017.315-.058.033.002.283-.19.136-.115.017.014.03.052.051.043.038-.018.038-.08.074-.102.18-.108.4-.102.597-.183.512-.067 1.001-.246 1.513-.315.761-.06 1.485-.324 2.242-.407.58-.079 1.1-.364 1.654-.527.076.01.362-.185.403-.194.03-.006.047.057.076.049.022-.006-.017-.041-.025-.062.222-.084.474-.143.742-.155.209-.074.455-.076.668-.037.177-.061.471-.051.65.064.162.36.074.11.125.784.02 0 .01.278-.009.278-.094.624.019.408-.174.708-.022.022-.293.19-.311.194-.008.002-.117-.208-.194-.057-.143.014-.312.015-.44-.04-.097.105-.254.133-.393.115-.035.02-.065.055-.105.06-.032.004-.061-.069-.084-.047-.023.022-.02.07-.049.08-.038.012-.078-.017-.117-.025l-.136.063c-.572.225-1.221.197-1.784.46-1.142.426.362-.105-.817.218-.49.134-.969.327-1.472.423-.463.07-.933.122-1.374.283-.149.05-.249.198-.214.05.004-.015-.003.034-.004.05-.1.039-.026-.01-.256.12-.142.245-.548.165-.733.37-.085.013-.278.081-.362.072-.04-.004-.072-.065-.112-.053-.105.03-.11.247-.281.173-.499-.028-.995.133-1.5.09-.51.058-1.029-.056-1.521.044-.306-.135.207.066-.21.017-.047-.006-.069-.071-.114-.083-.078-.02-.248.033-.33.04-.354-.119-.75.086-1.11.122-.469.073-.899.237-1.349.372-.25.132-.117.081-.402.148-.343.156-.62.444-1.024.48-.2.113-.385.255-.593.352-.506.237-1.09.292-1.627.418-.607.18-1.223.326-1.857.37-.147.011-.294-.024-.44-.013-.13.01-.255.05-.382.075-.466-.027-.93-.007-1.378-.01-.518-.002-.952-.328-1.17-.785-.014-.039-.205-.835-.03-.483.06.18.08.383.184.542.17.256.74.304.277.186-.595.002.22.029-.55-.133-.326-.068-.666-.022-.998-.056-1.468-.15.216-.061-1.396-.12-1.629-.176-3.278-.08-4.912-.2-1.177-.02-2.337-.114-3.482-.399-.633-.15-1.22-.47-1.64-.974-.207-.141-.311-.325-.462-.52-.028-.069-.276-.39-.199-.222.378.159.163.23-.07-.157-.483-.826 1.15.456.56.316-.144-.052-.258-.036-.366-.17-.469 0-.866-.26-1.315-.355-.61-.22-1.21-.569-1.524-1.159-.22-.468-.34-.964-.272-1.484-.02-.404.025-.792-.045-1.182.014-.228.026-.54-.113-.724.002-.08-.144-.518-.177-.558-.453-.545.126.54-.272-.288-.763-.487-1.558-.869-2.44-1.104-.633-.283-1.33-.469-1.947-.783-.607-.31-1.162-.75-1.747-1.1-.096-.093 1.205-1.45 1.301-1.358zM137.662 100.465c1.644-.504 3.183-1.303 4.572-2.313a13.333 13.333 0 0 0 2.186-1.266c.183-.133.327-.315.513-.444 1.34-.935-.202.34.861-.57.362-.287.726-.56 1.124-.796.637-.162 1.237.078 1.532.663.124.251.367.445.5.685.246.442-.179-.106.16.301.169.124.327.317.53.39.092.034.2.009.292.048.813.343-.349.057.569.247.507.155 1.07.235 1.551.455.385.042-.009-.045.288.166.052.037.135.02.184.062.044.038.028.121.072.16.056.047.149.015.215.046-.004.034-.023.07-.01.102.008.024.058-.008.075.01.048.052.05.105.108.142.125-.028.116.12.178.155.137.077.162-.076.268.066.183.087.387-.007.508.163.254.028.375.258.59.35.138.194.373.17.555.261.095.048.157.143.241.208.194 0 .308.203.47.263.294.11.048-.088.238.088.104.1.19.113.354.157.252.177.474.35.592.645.13.324-.105-.009.11.26.162.3-.141.527-.327.736.026.035-.462.397-.488.362-.445.109-.756.18-.957-.32-.07-.442-.112-.052.219-.024-.028.008-.418-.281-.54-.26-.116-.227-.4-.256-.565-.433-.546-.321.363.19-.29-.088-.207-.087-.336-.37-.595-.372-.023-.028-.47-.37-.348-.215.172-.014-.308-.09-.355-.082-.495-.18.131.07-.339-.193-.2-.111-.457-.118-.63-.292-.163-.129-.334-.253-.496-.381.001-.024.136.082.01-.07a9.285 9.285 0 0 0-1.492-.424c-.503-.257-.236-.162-.803-.279-.133-.057-.228-.179-.354-.249-.359-.2-.726-.327-.99-.672-.162-.158-.638-.719-.704-.94-.017-.056.038-.12.02-.177-.01-.037-.061-.044-.092-.067.068.01.471.13.608.036a25.65 25.65 0 0 0-.802.48c-1.187.828-2.491 1.488-3.693 2.3-1.792 1.116.173-.068-1.71.943-.997.536-1.961 1.14-2.963 1.667-.12.053-.87-1.637-.75-1.69zM133.212 91.048c-.39-.631-.74-1.29-1.145-1.91-.66-1.008-.047.147-.557-.877-.351-.713-.889-1.26-1.453-1.804-.588-.387-1.174-.736-1.857-.93-.285-.212-.658-.091-.965-.177-.332-.092.041-.103-.275-.07-.204.014-.455-.041-.65.01l-.14.024c-.049-.016-.096-.051-.148-.049-.178.008-.116.126-.305.092-.335-.06.011-.158-.318-.019-.214.003-.463-.05-.674.01-.174-.087-.527-.046-.68-.075-.125-.024-.228-.116-.35-.155-.427-.104-.838-.206-1.28-.226-.459-.044-.915-.11-1.374-.137-.104-.014-.138.114-.223.132-.12.027-.109-.105-.191.04.11 0 .15-.118-.024.134-.368.269-.722.228-1.137.24-.325-.119-.665.017-.994.008-.207-.005-.412-.054-.62-.06-.695.093-1.398.045-2.1-.026-.746.1-1.48-.112-2.207-.248-.348-.023-.617-.228-.92-.364-.317-.144-.548-.171-.83-.394-.605-.865-.418-1.165-.165-2.083.064-.177.385-.539.332-.714.093-.196-.054-.062-.006.101.018.063.19.27.233.324.237.25-.365.075-.453.06-.356-.007-.682.073-1.03.136-.206.09-.459.1-.669.181-.56.219.27.012-.335.145-.412.112-.762.355-1.175.46-.27.162-.598.346-.915.352-.141.06-.235.15-.384.147-.259.073-.485.096-.753.139-.236.052-.459.187-.7.212-.483.049.102-.124-.33.023-.23.059-.48.164-.738.15-.298.019-.574.078-.871.093-.308.14-.685-.03-.933.203-.194-.075-.412.132-.551.11-.162.105-.35.213-.54.23-.135.376-.226-.122-.308.16-.123-.027-.48.194-.519.126.058.068-.04.098-.126.152.164.108-.012.034-.055.064-.022.015-.062.147-.086.179-.027.186-.227.19-.324.31-.037.044-.026.116-.06.162-.056.077-.155.112-.226.175-.191.225-.372.399-.519.65-.21.04-.19.282-.312.395-.037.035-.108.026-.136.068-.027.042-.005.1-.008.15-.356.203.049.167-.174.2-.046.137.08.347.008.461.054.09-.027.153.047.26-.043.182-.03.388-.008.575.033.528-.232.898-.48 1.33-.245.422-.5.824-.764 1.23-.318.292-.3.79-.622 1.046-.048.254-.243.746-.402.922.05.476-.195.918-.218 1.394.026.302-.157.572-.169.87-.022.542.109-.067-.015.414-.034.061-.083.116-.1.183-.017.067.013.14-.001.207-.058.283-.24.51-.352.769-.08.175-.26.284-.368.427-.08.108-.107.341-.154.47-.118.162-.298.517-.287.73-.006.087-.185.391-.197.43-.183.552.132-.112-.024.203-.065.186-.237.57-.418.663-.091.316-.453.467-.683.682-.197.119-.247.348-.444.464-.046.214-.207.382-.3.586-.024.14-.228.523-.312.58.016.091-.072.312-.134.325.02-.044.165-.299.081-.156.084.273-.013.075-.02-.098-.065-.115.397.248.445.293.339.11.639.284.969.418.345.168.693.331 1.069.413.141.007.275.191.399.22.052.012.107-.036.16-.025.087.019.155.094.242.114.161.166.408.046.609.1.532.14-.177.116.374.106.354.071.631.163.97.266.326.136.536.392.794.619-.043.226.085.281.165.457.069.152-.025.2.076.349.029.188.151.357.198.52-.206-.273-.048-.137.017-.139.177-.018.385.044.557.024.048-.006.08-.064.129-.068.276.054.139.052.413.008.41-.088.832-.126 1.236-.272.279-.084.587-.031.865-.08.25-.104.124-.073.378-.1.215.151.384-.018.579-.018.04 0 .074.034.111.051l.167-.014c.372-.044.673.184 1.023.241.19.233.562.165.762.382.167.173.403.157.604.27.227.21.551.165.774.343.067-.002.135-.015.2-.005.406.064.04.088.474.14.281.032.562.036.847.08.1-.02.198-.062.3-.06.098 0 .188.06.286.067.097.006.192-.037.289-.033.097.004.188.05.285.055.197.01.393-.028.59-.035.598.078 1.204-.003 1.807.04.433-.084.984.123 1.376-.088.257.032.525-.033.777.024.26.125.58-.021.87.072.302.078.653.295.941.141.266.132.579.229.882.219.227.082.47-.007.708.093.052-.01.103-.022.155-.033.044.017.084.054.13.051.05-.003.085-.056.134-.065.13-.023.266.08.41.071.291-.016.58.136.854.092.442.013.846.196 1.266.267.299-.065.445.194.67.28.076.028.164-.01.242.009.139.033.257.123.39.175.651.437-.314-.165.416.133.064.026.088.112.149.146.126.07.365.116.51.136.187.227.426.296.685.4.14-.013.28.124.395.072.266.158.237.357.32.683.034-.014.234.478.199.492-.088.538-.153.748-.725.732a2.324 2.324 0 0 1-.972-.164c-.273-.146-.548-.304-.849-.38-.137-.166-.235-.124-.419-.226-.104-.058-.173-.179-.287-.214-.065-.02-.135.01-.202.014-.277-.27-.694-.267-1.052-.402-.188-.085-.327-.078-.525-.116-.102-.02-.188-.104-.292-.115-.05-.005-.096.025-.144.038-.301-.046-.59.041-.869-.121-.269.007-.505-.02-.766-.038-.31.018-.638.044-.916-.116-.307-.082-.61.002-.914-.112a7.227 7.227 0 0 0-.889-.157c-.084-.02-.199-.092-.263-.104-.093-.016-.205.132-.304.04-.22.017-.428-.064-.65.013-.472-.116-.902.041-1.38-.038-.418-.04-.827.016-1.246.004-.126-.003-.25-.039-.377-.035-.107.004-.21.04-.315.06-.406-.02-.203.001-.607-.063-.317-.022-.638.062-.948.05-.112-.004-.219-.046-.329-.07-.641-.069-1.27-.121-1.896-.273-.383-.086-.727-.294-1.09-.395-.258-.18-.07-.07-.337-.139-.153-.039-.101-.281-.31-.182-.18-.195-.43-.202-.62-.318-.322-.021-.074.004-.22-.105-.02-.015-.047.02-.071.031-.122-.11-.482-.005-.65.02-.34-.129-.602.104-.96.038-.302.112.002.02-.359.06-.328.037-.61.249-.96.205-.128.033-.454.124-.586.121-.127-.003-.249-.061-.376-.063-.102-.002-.2.053-.303.054-.184 0-.36-.113-.55-.06-.61-.068-1.087-.33-1.412-.867-.095-.288-.253-.542-.305-.855.005-.185-.157-.22-.022-.238-.014.056-.028.07.03.051-.117-.063-.324-.1-.488-.115-.442-.103-.897-.153-1.338-.25-.274-.146-.54-.3-.838-.39-.406-.067-.714-.401-1.135-.438-.376-.174-.777-.326-1.118-.556-.413-.227-.794-.436-1.109-.79-.142-.29-.414-.731-.264-1.054-.022-.135.033-.15.042-.269.014-.168-.05-.208.07-.382.013-.1.112-.17.116-.29.096-.207.29-.347.3-.604.198-.268.227-.641.53-.845.222-.264.376-.568.705-.723.125-.153.296-.322.37-.466a.175.175 0 0 0 .111-.218c.146-.094.157-.32.21-.484.12-.353.354-.67.399-1.055.226-.281.371-.703.633-.99.015-.056.042-.212.088-.257.035-.034.102-.037.122-.08.017-.04-.02-.084-.03-.125l.07-.117c.11-.39.04-.833.18-1.223.15-.532.131-1.1.347-1.613.095-.425.296-.834.443-1.246.188-.223.266-.505.431-.75.048-.071.126-.12.164-.198.04-.083.042-.179.063-.268.175-.208.243-.45.402-.659.126-.168.336-.27.39-.496.104-.116.09-.144.127-.279.013-.048.066.05.076-.034.004-.028-.033-.045-.05-.067.026-.12-.064-.216-.022-.318.013-.03.065-.04.063-.072 0-.03-.098-.023-.06-.066.124-.055-.002-.036-.002-.113 0-.318.142.156.015-.193.04-.29.02-.572.035-.863-.026-.476-.045.033.132-.416.032-.079.001-.174.034-.253.058-.143.238-.199.315-.329.167-.262.373-.489.518-.771.298-.138.333-.6.704-.683.108-.125.304-.266.326-.409.15-.25-.046.033.15-.131.095-.079.084-.296.245-.33.188-.208.382-.376.608-.544.54-.11-.102.064.268-.159.093-.056.233.171.297-.052.137-.083.339-.217.478-.136.054-.106.334-.04.397-.216.156-.06.293-.129.46-.16.12-.022.246 0 .363-.03.059-.016.107-.058.16-.086.326-.052.65-.177.984-.131.31-.149.631-.074.947-.154.195-.02.416.015.542-.139.351.046.662-.06 1-.158.229-.059.406-.14.628-.153.13-.05.25-.079.388-.133.262-.066.524-.13.784-.207.358-.246.797-.334 1.183-.523.427-.15.834-.349 1.288-.43.497.102 1.022-.267 1.553-.136.515.043 1.005.008 1.46.317.414.405.648.931.39 1.487-.05.38-.311.725-.525 1.036-.071.305-.086-.082-.12-.11-.007.338.788.39 1.011.452.351.191.377.12.743.134.302.01.6.117.908.032.7-.034 1.394.015 2.089-.03.528-.014 1.055.073 1.576-.045.754-.13.032.078.023.085-.052.037-.068.108-.102.162-.04.014-.092.011-.122.042-.013.014.037.054.045.037.023-.045-.017-.108.011-.15.072-.106.383-.072.402-.235.537-.286.887-.411 1.512-.354.17-.015.337-.069.506-.054.358.03.722.194 1.096.133.936.257-.434-.091.557.067.328.052.642.262.983.203.19.111.32.157.392.103.223.038.438.019.672.048.318.034.598.012.91.02.327-.012.655.006.982.052.553.086 1.067.265 1.6.44.817.377 1.65.705 2.326 1.324.645.677 1.318 1.35 1.686 2.23.53.888 1.015 1.818 1.754 2.558.07.097-1.312 1.08-1.381.982z"/>
        <path d="M107.454 89.632c.684-.172 1.29-.545 1.935-.808.243-.1.5-.158.746-.25.46-.17.907-.37 1.36-.553.861-.388 1.794-.638 2.624-1.092.246.108.393-.132.608-.16.626-.077-.336.135.239-.001.289-.033.645.017.893.163.249.191.531.384.757.607.275.206.613.313.915.483.353.267.68.54 1.049.799.383.418.892.388 1.347.69.501.17 1.015.288 1.454.596.425.206.848.433 1.251.684.168.252.517.316.725.506.008.008.187.324.204.355.267.214.469.471.6.786.035.035.077.064.104.105.028.043.027.103.059.143.06.087.189.1.253.181.067.084.093.195.155.283.198.19.403.406.541.643.037.323.073.559-.158.808.016.029-.388.26-.405.231-.342.086-.427-.012-.716-.058-.116-.191-.428-.273-.53-.5-.172-.19-.1-.083-.21-.324-.047-.057-.125-.08-.178-.131-.151-.148-.183-.36-.352-.492-.128-.364.054.05-.183-.217-.083-.094-.13-.295-.207-.397-.218-.17-.447-.303-.642-.5-.374-.171-.658-.476-1.053-.606-.277-.135-.553-.292-.845-.387-.083-.027-.177-.015-.258-.049-.09-.037-.162-.106-.243-.16-.57-.293-1.235-.417-1.73-.851-.326-.221-.66-.432-.967-.678-.193-.089-.108-.023-.247-.206-.056-.03-.13.002-.189-.02-.228-.083-.29-.354-.56-.35-.172-.102-.474-.342-.531-.458.034.083.172.06.044.018-.13.057-.282.108-.42.076-.323.126-.655.168-.982.29-.545.2-1.056.493-1.642.574-.673.275-1.387.5-2.045.809-.599.28-1.148.676-1.784.88-.104.056-.89-1.406-.786-1.461zM350.321 211.436c13.706-2.782 28.114.235 41.897-2.18 8.302 1.286 17.111 2.536 25.355 1.641-2.298-3.896-1.3-15.283-1.721-22.14.122-9.64.272-20.231 1.654-29.276.28-.847-12.13.004-16.454-.458-12.223-.255-24.286 2.402-36.513 2.182-4.588.67-9.595.351-13.908-.155 3.694 1.36-.21 14.664-1.396 19.98-2.358 10.176-2.1 20.65-2.151 30.961-.34 1.547 5.512-3.113 5.448 1.366-2.646.771-9.603 2.245-7.396-2.24-1.128-14.346 1.225-28.826 4.691-42.764-.682-5.176-.327-11.619 6.036-8.987 12.73-.16 25.46-.9 38.123-2.322 8.27.052 16.563.209 24.821.475 1.89 3.755-.643 8.846-.206 13.06-.526 13.832-.733 27.957.52 41.794-4.235 2.455-10.083.177-14.839.836-7.947-1.919-15.903-1.695-23.982-.89-8.039-.577-20.912.152-28.108.968-1.46-.16-.657-1.505-1.87-1.85z"/>
        <path d="M388.109 144.943c4.667-.346 9.315-.33 13.926.883 2.781 3.808 8.419 3.306 10.622 7.689 3.753 2.017 5.217 7.927.562 3.423-2.736-4.94-8.286-6.257-12.281-9.477-4.158-.917-8.328-1-12.508-.768zm-15.306 3.074c-2.44.123-4.88.134-7.323-.07-8.01 1.387-16.075-.395-24.098.022 1.499-.32 2.241 4.06 4.57 4.807.475 2.45 7.496 4.558 4.323 6.642-2.683-3.785-12.168-8.11-9.501-13.193 8.867-.5 17.82 1.306 26.667-.072 2.697.23 5.396.173 8.094-.012z"/>
        <path d="M341.098 147.28c-.08 12.719.685 25.565-2.316 38.016.393 4.078-3.055 8.288-2.105 11.391 3.396 5.521 5.028 12.064 9.888 16.599-3.38 3.936-7.943-8.097-9.572-11.33-3.358-4.39-2.987-8.896-.699-13.692 2.205-11.373 3.462-22.888 2.916-34.545 1.135-1.647-2.298-8.087 1.888-6.439zM374.457 115.66c-9.11-.07-18.557-3.11-27.679-3.698-12.398-1.614-24.696-4.514-37.299-3.744-9.026-2.09-18.203-1.773-26.877-5.27-6.088.789-7.466-4.063-1.076-4.007 2.997-1.379 6.05-2.099 9.139-2.372.763.509.609 1.127.14 1.782-4.339.233-10.075 4.179-13.27 2.732 2.042-3.332 9.89 1.724 14.169 2.362 9.481 1.265 18.993 3.32 28.694 2.869 13.317 1.794 26.51 3.889 39.83 5.675 4.497.805 10.367 1.077 14.79 1.43.822.833.577 1.575-.56 2.241zM389.154 79.07c1.41.029 2.818.036 4.225.015 4.012 1.065 8.914 1.08 11.794 4.14-.8 2.393-3.986-1.156-5.979-.903-3.384-.788-6.822-1.33-10.295-1.714zm-6.858 3.523c.884.1 1.768.21 2.652.33 6.254-1.478 12.978-.383 19.484-.503l-.115 1.853c-7.058-.427-13.976-.23-20.772.63a70.06 70.06 0 0 0-2.64-.417zm-10.254 1.123c-10.518-.474-21.11.267-31.586-1.456-7.802.4-1.03-4.883 3.591-3.747 3.916-.663 7.858-.957 11.816-1.027l-.07 1.323c-5.453-.14-11.309 1.629-16.972 2.212-4.167-1.725 9.713.209 12.804.4 4.739.052 9.468.059 14.191.166zM335.496 37.598c8.582-1.705 17.281-3.364 25.971-4.494 9.969-.209 19.967-.245 29.906-1.275 14.08-1.203 28.224-.371 42.295.517 12.725.03 25.733.792 38.08 3.302-.002-.033 3.97.571 3.278.42-1.382.79.715-5.619.667-7.678.207-4.411 1.437-7.809 2.319-12.224.725-1.784 2.172-8.667 3.675-6.023-4.482-.82-9.684-2.076-14.578-1.795-6.885-.56-13.656-2.226-20.613-1.896-7.004.106-13.963-.637-20.934-.897-3.455-.132-10.13-.246-14.878-.293-9.74-.032-19.556-1.079-29.206.587-5.297.324-9.508 1.234-14.922 2.21-3.79.586-6.49 1.69-10.537 2.358-5.923.768-11.93 1.827-17.617 3.679-1.372.616-5.817 1.81-6.07 2.42-.071 4.201 1.443 8.143 2.085 12.173.138 3.441 3.214 8.092 1.966 10.784-4.028-.277-2.504-7.478-4.22-10.442-.71-4.154-2.304-8.64-2.147-12.594.254-3.102 4.543-3.043 7.015-4.225 4.184-1.623 9.721-2.543 13.4-3.311 7.274-.766 14.184-3.195 21.447-4.165 5.259-.997 10.578-1.241 15.903-2.002 13.54-.11 27.07.448 40.626.73 8.213.732 16.457.777 24.694 1.022 5.975.423 11.836 2.1 17.867 1.789 3.797 1.008 9.232-.007 11.947 2.784-.493 3.077-2.731 6.001-2.888 9.382-.79 4.08-1.88 8.237-2.09 12.493-.496 2.263-.201 8.975-3.762 7.28-.178.35-4.697-.659-6.234-1.084-16.54-3.377-33.555-2.578-50.313-3.99-17.956-.934-35.856 1.988-53.805 1.665-6.54.255-12.225 1.538-17.621 2.412-2.87-.33-9.86 3.637-10.706.381z"/>
        <path d="M340.86 15.136c1.017 2.213.36 8.922-.372 3.923.488-1.01-1.175-3.856.373-3.923z"/>
        <path d="M337.068 15.506c2-.501 10.523-2.549 4.71-.093-1.037-.174-5.266 2.416-4.71.093z"/>
        <path d="M344.77 13.29c.78 3.147.69 9.92-.363 3.368.508-.742-1.388-3.711.363-3.368zM347.212 13.228c-.265 1.509.204 5.475.417 5.817-.794 1.147.14-1.685-.504.82.115-.758.314-1.342.03-.032.165-.817.167-1.123-.007.033.66-2.393-.48.923-.41-.77.193-.515-1.129-6.06.473-5.868z"/>
        <path d="M344.562 16.83c2.128-2.208 5.11.548 0 0z"/>
        <path d="M350.66 13.062c-3.614-.27-1.171 1.291-1.361 4.316-.645 1.935 3.558-1.462 1.828.977-2.938 2.188-2.778-1.726-2.854-3.823-2.344-2.157 2.874-3.174 2.388-1.47z"/>
        <path d="M348.656 15.442c4.744-1.657.052 2.646 0 0zM337.764 34.56c-.074-2.804-1.942-5.498-1.384-8.265 1.802-2.243 6.691-.149 4.295 2.9-1.969 2.74-2.774-.679.018-.187 2.446.695 1.791 4.954-.57 5.385-2.298 1.54-2.617-1.41-.163-1.09 1.767-.244 1.99-3.866-.073-3.298-2.446.013.131-1.091.623-2.082.4-2.408-4.555-2.257-3.48.12.188 1.931 2.053 5.282.734 6.517zM343.284 25.212c.82 2.126.848 5.533 1.044 7.262.66-.26 3.01-.405 3.96-1.14.994.106.37 1.503-.425 1.315-1.655.526-5.016 2.103-4.502-1.388.332-1.893-1.232-4.932-.077-6.049z"/>
        <path d="M346.284 23.959c.41 2.009.675 5.404 2.877 5.818 1.538-2.167.132-5.628.64-7.623 1.25-1.422.763 4.222.949 5.616.374 3.533-3.47 4.016-4.165.826-.134-1.049-2.016-4.57-.301-4.637zM355.888 21.192c-4.084-.664-4.361 2.222-3.158 5.838-.837 3.26.525 3.676 2.84 2.553 1.285.908-1.14 1.761-3.252 1.723-1.237-2.663.247-6.245-1.016-9.137.165-2.426 3.216-1.347 4.675-2.055l-.092 1.078z"/>
        <path d="M352.028 26.146c2.27-1.716 3.557 1.191.772.9-.502-.006-1.107.75-.772-.9zM359.765 29.525c.284-2.994-.593-6-.868-8.978-1.324-2.79 3.182-1.947 4.454-2.119 1.752-.075 3.397-.315 2.614.901-2.263.274-4.667-.227-6.94.367 1.013-1.536.838 3.449 1.044 4.556-.262.738 1.671 6.022-.304 5.273z"/>
        <path d="M359.482 23.835c1.067.216 2.797-1.039 2.843.572-.662-.036-3.578 1.173-2.843-.572zM365.038 22.553c-2.33 1.795.54 7.142 2.278 3.464 1.67-2.913-1.7-3.152-3.024-3.854 2.968-2.367 5.5 2.508 3.344 5.047-2.848 3.642-6.012-2.787-3.232-5.098l.08-.16.554.601z"/>
        <path d="M370.573 21.5c-1.32 1.46-1.604 6.712 1.382 5.065 3.545-2.48-4.212-5.468-1.017-5.541 3.343.734 3.431 7.042-.37 6.91-2.628-.399-1.773-7.309.005-6.433zM370.167 18.68c2.705-.761 5.577-.97 8.267-1.765.258 2.438-4.026 1.256-5.468 2.143-.85-.357-2.88 1.307-2.8-.378z"/>
        <path d="M374.443 19.17c-.387 2.676.773 5.948.277 8.238-1.597.568-.277-2.928-.958-3.872.228-.972-1.07-5.304.68-4.365zM379.487 20.243c-2.254.525-4.223-.106-2.745 3.026.462 1.525-1.077 4.03.977 3.28 3.394-.093-.376 2.218-1.752.737-.275-2.002.195-4.163-.458-6.156-.469-1.6 4.633-2.59 3.978-.887z"/>
        <path d="M376.076 23.574c4.257-2.244 2.678 2.402 0 0zM380.105 26.719c1.29-2.234-1.722-7.193.67-8.127 3.83-.268 6.46 6.04 2.973 8.417-.917.365-4.816.738-2.993-.748 1.796.489 4.383-.474 3.844-2.96.2-2.738-3.533-3.762-3.94-4.204.013 1.728.5 4.575.292 6.666 2.04 1.69-1.43.848-.846.956zM389.208 25.645c-.535-2.98-1.8-6.006-1.604-9.138 2.507-4.514 9.177.562 4.835 4.025-2.74 3.367-2.907-1.708.02.694 3.3 1.335 1.435 5.932-2.009 4.663-1.986-.716.103-1.63 2.143-1.344 2.282-.605-.958-3.29-2.117-2.858-1.586-1.654 3.095-1.403 2.546-3.766.7-3.087-5.202-2.922-4.61-.142-.444 2.404 2.677 7.587.796 7.866z"/>
        <path d="M396.364 20.463c-2.076 1.838.469 5.471 2.515 3.87 3.48-4.663-4.947-3.106-2.753-4.878 3.517-1.64 5.642 4.453 2.629 6.196-3.197 1.54-5.689-5.172-2.39-5.188z"/>
        <path d="M402.77 19.552c-1.521 1.285-2.096 5.805.785 5.177 2.77-.762 1.54-6.063-1.221-5.055-1.544-1.477 2.838-1.536 3.089.397 1.79 2.586-.99 7.388-3.829 5.086-1.651-1.01-.427-6.886 1.176-5.605z"/>
        <path d="M406.566 25.335c.088-2.748-.663-5.481-.369-8.28-.865-3.42 5.348-3.193 6.113-.68.267 2.174-1.636 4.136-3.61 4.037.331-2.713 3.848.805 3.583 2.575-.014 2.743-3.72 2.956-5.502 2.338.186-2.11 3.373.006 4.538-1.662.84-2.504-2.95-2.825-2.57-4.321 1.433.373 4.052-2.25 2.036-3.406-1.313-.425-4.774-.889-3.742 1.035-.285 2.863.622 5.686.252 8.509l-.733-.145zM426.347 14.867c-3.442-2.62-5.62.552-1.868 2.635 3.986 2.39 1.875 9.707-2.808 8.485-3.358.165-1.746-2.508.836-1.118 3.54.376 4.476-4.973 1.462-6.664-4.153-1.59-2.328-7.503 1.852-4.561.454.328 1.557.122.526 1.223z"/>
        <path d="M428.137 16.105c-.13 3.364.508 6.77-.091 10.096-1.493-.87.208-4.532-.527-6.34.14-1.066-.761-4.06.618-3.756zM432.333 14.673c.02 4.005-.7 7.982-1.083 11.962-1.85-.399.082-4.067-.204-5.873.542-1.796.216-5.148 1.287-6.09z"/>
        <path d="M427.67 20.131c1.42.912 5.455-1.5 4.88 1.202-1.216-.457-5.754 1.142-4.88-1.202zM435.032 20.636c-1.409 1.422-2.047 5.438.625 5.538 2.93.348 2.892-6.599-.294-5.225-.159-3.208 5.502 1.187 2.903 4.164-.407 3.504-5.702 2.49-5.276-.83-.2-1.063.873-5.122 2.042-3.647z"/>
        <path d="M444.255 14.649c-3.155-1.236-3.125.688-2.77 3.604.079 2.608-.991 5.701-1.447 7.932-.02-.4 4.276-.908 3.94.132-.47 1.246-5.692 1.745-4.764-.904 1.348-3.638 1.487-7.51 1.501-11.366.296-1.054 4.603-.983 3.54.602z"/>
        <path d="M440.974 19.855c1.557-1.143 4.248.884 1.818 1.186-.649-.148-2.797.356-1.818-1.186zM455.845 15.158c-1.238-2.876-8.62-3.255-6.03.774 1.904 3.106 5.311 6.092 5.04 10.105-1.617 2.921-5.354 1.699-7.819 1.044-.217-2.259 2.946-.064 4.583-.475 4.891-.213.526-5.699-.89-7.83-3.352-2.352-3.218-8.007 1.82-6.921.683.358 4.978 2.056 3.296 3.303z"/>
        <path d="M456.829 18.71c-.354 3.14.391 6.827-.576 9.716-1.526-1.526.294-5.488-.37-7.865.12-.727-.4-2.847.946-1.851zM460.855 18.74c-.92 2.303.118 10.814-2.072 9.84.624-2.788.207-8.697 2.072-9.84z"/>
        <path d="M455.99 23.379c2.133-.904 6.978 2.026 2.18 1.41-.702-.464-3.031.514-2.18-1.41zM463.945 21.089c-2.325 1.744-2.381 7.885 1.36 6.405 1.97-1.421 2.035-5.858-.877-6.103-3.236-1.462 1.976-1.692 2.543.439 1.701 2.649-.383 8.569-3.9 6.767-3.037-1.49-1.649-6.465.426-8.245l.45.737z"/>
        <path d="M467.415 29.538c1.177-2.886.954-6.232 1.372-9.33.279-1.367-1.616-4.688.787-4.716 3.532-.78 7.408 2.676 5.115 6.495-.79 1.011-5.122 3.14-5.266.97.827-1.092 3.104-.28 4.263-1.396 2.851-3.655-2.614-5.433-4.408-5.024.34 1.23.7 4.382.258 6.204-.541 1.7.173 8.198-2.12 6.797z"/>
        <g stroke-width="1.145">
            <path d="M412.474 18.877c.643 1.185 2.31 2.563 2.91 3.434-1.453-.165.55-1.665.821-2.523.317-.81.977-2.397 1.413-1.057-.698 1.398-1.472 2.891-2.51 4.136-.802-.063-1.453-1.367-2.216-2.16-.145-.515-1.984-1.704-.418-1.83z"/>
            <path d="M415.49 22.672c-.02 1.29-.2 4.107-.38 4.73-.34.952-.985.416-.7-1.255.783-.802-.683-3.738 1.08-3.475z"/>
        </g>
        <path d="M403.132 141.202c-2.888-.163-2.581-1.52-4.048-1.231-1.28-2.275 1.342-2.304 2.214-1.216-.056.724 3.955-.153 1.834 2.447zM374.983 133.395c-6.613-1.527-12.543-2.89-19.215-4.223-12.624-1.403-25.128-3.624-37.664-5.67-12.784-1.268-25.5-3.854-38.418-2.984-13.786.25-27.66.744-41.06 3.85-3.968.8-8.637.848-12.763.854-1.028-4.749 6.414-1.575 9.085-2.743 8.32-1.495 16.687-3.183 25.237-3.582 11.28-.471 22.668-1.2 33.975-.499 10.423 1.261 20.924 2.5 31.297 3.975 13.891 3.135 28.311 3.243 41.971 7.357 2.74.46 5.42 1.173 8.101 1.889.687.081 1.636 1.922-.546 1.776zM132.857 61.85c6.182.504 12.4.06 18.587.455 3.294.21 6.432 1.207 9.66 1.756.438.03 2.688.333 3.762.812 1.595.693 3.212 1.431 4.745 2.18-1.163.48-.223-1.717-.742-2.427-.674-2.467-1.308-4.981-1.137-7.542-.062-2.404.256-4.794.414-7.19-.81-1.212 1.208-.259.239-.083-3.347-.57-6.687-1.343-10.122-1.239-4.255-.378-8.518-.742-12.799-.725-3.747-.092-7.51-.166-11.252.068-.937.31-4.169.68-2.468-.311.826 1.874 1.008 3.93 1.421 5.903.427 1.926.615 3.872.504 5.836.253 1.121.315 4.35-1.594 2.953-.237-2.545.275-5.13-.383-7.65-.462-2.105-.577-4.3-1.449-6.305-.352-1.889 2.025-1.71 3.357-1.948 3.37-.289 6.776-.187 10.16-.185 3.37.192 6.754.082 10.114.447 2.656.256 5.318.44 7.984.577 2.362.24 4.66.834 7.006 1.158 1.638.802.474 2.737.678 4.081-.202 2.766-.354 5.571.095 8.321.39 2.305 1.507 4.595.987 6.955-.841 1.832-2.922-.108-4.172-.542-1.898-.943-3.939-1.659-6.105-1.86-3.792-.725-7.52-1.844-11.43-1.918-5.411-.317-10.843.096-16.25-.302-.048-.43.014-.873.19-1.275z"/>
        <g>
            <path d="M137.453 54.854c-.027-1.659-.3-3.313-.458-4.943-.536-.724.56-1.215 1.252-.987.76.24 2.295-.428 2.547.47-.148.91-1.725-.016-2.39.28-.715.19-1.517-.18-.84-.478.454 1.725.441 3.547.598 5.33.19.534-.43.328-.71.328z"/>
            <path d="M137.827 52.28c.634.026 2.044-.725 1.578.48-.606-.118-1.803.723-1.578-.48zM142.431 50.639c-.234.949.182 2.037.316 2.867-.128.464-1.105.589-.837-.234-.09-.808-.848-3.304.521-2.633zM142.911 49.293c1.573.067 3.211.01 4.739-.052.076.499-.283.737-.015.175.24 1.261-1.693.251-2.365.57-.599-.235-2.964.617-2.359-.693z"/>
            <path d="M145.05 49.784c-.163 1.216.23 2.426.318 3.624-.075.126.264.861-.631.245-.23-1.15-.41-2.366-.38-3.557-.081-.6.317-.383.693-.312zM148.33 49.264c1.641.254 3.303.145 4.953.166-.048.687.005.028.005.728-1.557-.048-3.14.024-4.694-.178-.549.116-.324-.366-.265-.716z"/>
            <path d="M150.755 49.965c-.04 1.044-.039 1.799-.043 2.779.04.548.028 1.293-.266 1.116-.56.56-.428-1.067-.363-1.546.215-.658-.482-2.793.672-2.35zM153.839 50.823c-.067 1.096-.034 2.243-.035 3.286-.667.35-.85-.24-.692-.729.048-.843-.065-1.908.176-2.615.18.012.388-.01.55.058zM155.223 54.161c-.014-1.077-.037-2.16-.186-3.227-.002-.36-.434-1.11.485-.955.25.87 1.075 1.476 1.454 2.305.14.494 1.413 1.55 1.014 1.757-.993.463-.23-1.542-.433-2.123-.033-.625.164-1.553.295-1.987 1.213-.369.301 1.136.385 1.75-.216.902.548 2.544-.596 2.809-.8-1.243-1.53-2.443-2.408-3.64-.601-.372-.15-1.408.313-.901.242 1.365.23 2.77.303 4.167a1.304 1.304 0 0 1-.626.045zM162.54 50.884c-.595-.397-1.28-.772-1.981-.432-.71.163-1.017 1.066-.862 1.803-.142.953.745 1.678 1.423 2.02.534.168 1.252-.09 1.255-.811.098-.37.062-1.727.477-.797-.617-.277-1.976.515-1.827-.522.422-.204 1.91-.265 1.946-.043.44.48.03 1.378-.075 1.926-.181.736-1.008 1.104-1.628.93-.717.028-1.514-.824-1.924-1.503-.33-.844-.309-1.839-.002-2.686.51-.836 1.63-1.22 2.535-.882.398.275 1.446.387.663.997zM139.169 60.549c.756-1.398 1.119-2.969 1.495-4.502.435-.616.93.305 1.084.715.513 1.145 1.145 2.235 1.722 3.328-.51.229-.79.188-.144-.057.57.847-.872.574-.813-.199-.545-1.114-1.206-2.318-1.591-3.44.537-.25-.075.642-.023 1-.334 1.167-.715 2.306-1.243 3.392a1.14 1.14 0 0 1-.487-.237z"/>
            <path d="M140.008 58.722c.693-.032 1.556.136 2.114-.038.632-.22.456 1.027-.073.773-.632-.198-2.497.52-2.04-.735zM144.227 61.02c.003-1.582-.226-3.15-.236-4.726.049-1.082 1.479-.392 2.147-.396.936.21 1.313 1.396.807 2.198-.642.567-1.579.659-2.3.854.395-1.052 1.615.363 2.24.651.404.38 1.831 1.426.75 1.598-.853-.718-1.576-1.661-2.683-2-.873-.142-.455-1.18.185-1.03.599-.155 1.744-.27 1.366-1.202-.447-.882-1.678-.41-2.373-.767.98-.752.308 1.468.577 2.012.071.771.202 1.914.055 2.789-.176.013-.359.066-.535.019zM150.99 56.614c-.907.075-2.656-.614-1.776.886.26 1.13.242 2.295.223 3.447-.35-.48 1.477-.2 1.648-.11.435 1.098-1.509.42-2.079.523-.562-.402-.096-1.285-.262-1.913.103-1.019-.332-1.898-.315-2.912.363-1.088 1.99-.555 2.655-.474-.024.183-.008.386-.094.553z"/>
            <path d="M148.79 58.294c.706.023 2.402-.287 1.63.66-.543-.265-1.984.517-1.63-.66zM151.713 60.666c.752-1.155 1.113-2.373 1.48-3.69.083-.675.779-1.823 1.101-.653.619 1.25 1.616 2.312 2.024 3.66.076.216.236.355.307.763-.017.165.078.238-.278.405-.537.243-.536-.629-.686-.87-.356-1.487-1.522-2.55-2.018-3.957-.195-.413.895-.147.37.223-.346.695-.557 1.741-.868 2.581-.36.453-.671 2.494-1.432 1.538z"/>
            <path d="M152.772 58.841c.827.12 2.039-.14 2.666.066.512 1.095-1.618.382-2.243.534-.543.063-.561-.041-.423-.6zM162.07 56.9c.082 1.516.007 3.154.103 4.616-.055.233.081.474-.013.29.358.613-.116-.084-.383.52-.339-.15-.157.004-.394-.763.01-1.52.049-3.115.062-4.663.199-.05.426-.05.626 0z"/>
            <path d="M160.217 59.935c.37.668 1.557 1.925 1.618 2.23-.034-.375 1.446-1.082 1.931-1.594-.022-.705 1.168-.21.631.262-.581.847-1.709 1.089-2.295 1.975-.98.332-1.401-1.264-2.002-1.816-.324-.497-.753-.793.117-1.057z"/>
        </g>
        <path d="M418.689 43.78c-8.476 1.418-16.95-.53-25.504.135-12.348.086-24.696.25-37.079.682-12.812.874-25.687-.113-38.525-.582-13.57-1.131-27.27-.522-40.858-.506-2.876-1.282-11.888 3.674-11.482-.596 14.656-2.46 29.952-.981 44.869-1.255 12.888.768 25.76 1.838 38.696 1.516 11.963-.147 23.89-.727 35.877-.602 9.772-.466 19.593.204 29.294.216 1.265.64 5.327-1.847 4.712.993z"/>
        <path d="M488.427 96.976c1.768 1.285 3.57 2.344 5.108 3.734.967.925-.021 2.107-1.04 2.156-1.453-1.707-3.95-2.782-5.321-4.187-.299-.964.17-1.543 1.253-1.703zM478.328 97.2c.75.133 1.505-.158 2.254-.018 2.046-.164 2.321-.113 2.984-.068.695.5.336 1.687-.382 1.825-.548.151-1.121.226-1.688.167-.586-.01-1.171-.048-1.756-.075-.417-.071-.841.163-1.25.014-.264-.164-.143-.521-.2-.778-.031-.354-.06-.72.038-1.066z" fill-opacity=".883"/>
    </g>
    <g fill="#ccc">
        <path d="M347.01 88.212c-1.606-.396-6.145 1.92-2.365 2.152 2.454.351 5.093.9 7.506.52-.138-1.494-2.3-2.225-3.61-2.411-.993.263-4.433-.322-1.791-.857 2.308-.238 4.782.5 6.178 2.429.635 2.756-3.31 1.642-4.887 1.606-1.903-.482-4.891.071-5.92-1.85.542-1.801 3.901-2.714 4.954-1.947l-.065.358z"/>
        <path d="M353.286 90.622c-.622 1.715-.884 3.6.006 5.28.603 1.367-.026 2.944.715 4.249.126.88.487 2.146-.666 2.504-.837 1.184-4.273.414-2.004-.315.575.092 1.997-.513 1.923-.655.15-1.517-.879-2.847-.554-4.38-.288-1.71-1.31-3.375-.706-5.174.401-.608.086-2.351 1.286-1.51zM342.179 97.584c-2.225.037-3.97.167-6.068.674-2.278.685-4.779.03-7.02.916-1.298.281-2.697.217-3.958.44-.15.354-.293-.544.306-.083 1.745.47 3.687.01 5.334.762.811 1.975 3.892-.055 5.338 1.785.967.377 4.16 1.277 1.52 1.387-2.093-.378-3.867-2.258-6.138-1.39-1.333-.467-1.488-1.887-3.425-1.344-1.232-.295-3.22.122-3.884-1.09.207-1.685 2.683-.75 3.917-1.225 1.524-.166 3.05-.784 4.646-.611 2.609.103 5.09-1.066 7.722-.878.618.144 2.243-.704 1.71.657z"/>
        <path d="M325.092 99.481c-.022.884.154 5.063-.676 3.286 1.714-.15 3.682.015 5.168.836 1.221 1.703-.299.964-1.226.44-1.406-.974-5.118.468-4.126-2.075.276-.756-.646-3.093.86-2.487zM342.948 90.633c-1.365 2.028.5 4.26.098 6.419-1.457.428-.405-1.882-1.057-2.618-.435-.804-.655-4.884.96-3.801z"/>
        <path d="M346.943 92.652c-1.181.38-3.465 3.522-4.041 1.72 1.158-.264 3.34-3.115 4.041-1.72z"/>
        <path d="M343.846 92.295c.54.62 3.615 2.93 1.452 2.488-.504-.642-3.054-1.859-1.452-2.488z"/>
        <path d="M346.2 95.627c-.928.695-4.36 2.683-2.95.759.858-.132 2.716-2.368 2.95-.759z"/>
        <path d="M343.407 95.091c1.014.021 4.119 2.393 1.678 1.809-.529-.734-2.66-.602-1.678-1.809zM340.02 102.135c2.567-1.51 5.42-2.562 8.359-2.982.892-.669 1.316 1.052.27.698-2.785.392-5.563 1.194-7.99 2.69-.404.58-.538-.18-.638-.406zM351.19 103.16c-2.526 1.035-5.31 1.131-7.714 2.483-1.443.742-3.4.957-4.722 1.544-1.729-.354-3.46-1.736-5.486-1.733-1.335-.116-2.705-.258-3.932-.55-.493-1.772 1.891.088 2.803-.378 1.478.096 2.902.56 4.35.858.737.424 1.55.784 1.973 1.133.09.009 1.641-.542 2.343-.725 2.419-.557 4.485-2.22 7.036-2.353 1.009-.03 3.22-1.737 3.35-.28z"/>
        <g>
            <path d="M357.526 91.338c-1.633-.3-4.738 1.305-1.88 2.376 2.586 1.093 5.532.832 8.258.58 2.66-.912-1.1-2.65-2.349-2.721-1.475-.608-3.213-.431-4.63-.882.83-1.426 2.955-.14 4.416-.05 2.028.094 6.474 2.595 3.129 4.34-2.509.495-5.182.432-7.7-.027-2.88.037-4.53-4.038-.794-4.046.53.103 1.833-.65 1.55.43z"/>
            <path d="M353.88 92.663c.744 1.954 1.34 4.029.908 6.236-.248 1.997.073 4.16-1.045 5.928.083 1.247-.972.722-.441.831.778 1.022-1.222-.737.275-.006-.382-.297 2.033.183 2.513.109 2.09-.19 4.024.772 6.017 1.253 1.948.637 3.993 1.23 5.755 2.304 1.557.236 2.12 1.933 3.892 1.6 1.037.08 1.695.513 2.469.646 1.375.386-.883.61-.377-.835-.165-.802-.727-4 .623-3.274-.357 1.47.98 3.714.189 4.917-.778.31-1.45-.43-2.712-.63-1.254-.086-2.648-.245-3.38-1.36-1.988-.71-3.801-1.89-5.935-2.295-2.303-.628-4.542-1.683-6.975-1.468-.875-.148-2.092-.011-2.758-.348 1.028.268-1.077-.746.194.043-.953-.25-.423-1.123-.207-1.65 1.218-2.096.798-4.514 1.172-6.833.99-1.526-1.956-4.818-.177-5.168z"/>
            <path d="M374.01 107.092c1.387-.467 2-.678 2.92-1.38-.307-2.337 1.691-3.236 3.233-4.391-.327-1.226 1.943-3.138 1.58-1.49-.493-.103-.826 1.587-1.247 2.252-.862.917-2.623.853-2.662 2.407.374 1.18-1.344 2.36-1.005 1.983-.35.653-2.892 1.85-2.818.62zM383.085 99.419c-.363 1.183.355 3.617-.767 4.111-.688-.713.089-3.422.431-4.13l.337.019zM382.898 104.223c-1.518 1.22-3.164 2.102-3.51 4.071-.537.95-2.07 1.034-2.093 2.407-.037 1.46-3.543 2.254-1.65.592 1.182-.749 1.147-2.734 2.586-2.982 1.078-1.432 1.299-3.455 3.393-4.02.515-.501.795-.884 1.274-.068zM373.319 107.744c-2.756-.123-5.444-.876-7.766-2.387-2.017-.894-4.327-.459-6.364-1.356-.858-.057-2.871-.355-1.456-1.06-.018-.303 1.865.22 2.482.395 2.127.753 4.598.223 6.489 1.615 2 1.166 4.305 1.843 6.64 1.947l.033.424-.058.422z"/>
            <path d="M382.27 99.568c-2.78-.516-5.624-.342-8.414-.491-2.041.247-4.081-.018-6.112.424-1.2.085-2.057-.257-3.282-.32-1.046.57-1.273-1.664-.475-.408-1.144-1.274 1.757-.28 2.398-.32 1.759.197 3.763-.411 5.632-.21 2.49-.244 5-.033 7.505.095.752.409 3.684-.266 2.749 1.23z"/>
            <path d="M365.999 92.906c-.207 2.5-1.01 4.85-1.784 7.2-1.84-.395.773-3.226.536-4.696.45-.746-.123-3.12 1.248-2.504z"/>
            <path d="M354.926 95.174c1.76 1.939 4.628 1.239 6.94 1.478 1.228.499 3.18-1.41 3.722-.108-1.65.671-3.609 1.114-5.445.856-1.814-.033-5.306-.073-5.532-1.983l.315-.243z"/>
            <path d="M355.702 97.674c2.128 1.176 4.672.472 6.936.187 2.456-.904.065 1.581-1.162 1.002-1.49.132-6.609.935-5.774-1.19zM354.066 99.956c2.398.898 5.104 1.354 7.611.839.561-.298 2.48-2.13 1.667-.509-1.31 1.905-3.835 1.411-5.823 1.287-.792-.302-4.12-.443-3.455-1.617zM366.332 101.548c2.818 1.077 5.866 1.38 8.748 2.155-.382 1.628-3.636-.39-5.102-.265-.764-.574-4.65-.343-3.646-1.89zM371.117 100.53c2.47.293 4.977.32 7.442.58.195 1.554-3.56.166-4.964.403-.779-.307-3.056.478-2.478-.983z"/>
        </g>
        <g>
            <path d="M364.86 56.63c2.688.344 5.918 3.359 8.327 1.406-1.127-2.852-5.2-2.63-7.656-1.953-1.361.62 2.064 1.717-.258 1.546-2.997-1.914 2.16-3.477 3.787-2.74 2.108-.11 5.975 1.589 4.453 4.111-3.015 1.667-5.953-1.204-8.87-1.728l.215-.642z"/>
            <path d="M373.953 58.936c.038 2.201-.117 4.504-1.235 6.372-1.115 2.02-2.227 3.929-2.44 6.295-.479.96-1.3 5.482-1.847 2.856.423-1.946 1.469-3.639 1.604-5.642.825-2.581 3.108-4.66 3.033-7.55.445-.725-.584-2.819.885-2.33zM365.315 56.938c-.689 2.239.257 4.656-.85 6.812-1.565 2.924-.789 6.62-2.498 9.445.504-.584-2.124 2.084-2.329 3.012-.924.158-.582-.387-.167-1.333.254-1.072 1.573-1.61 2.254-2.431-.699.517.574-1.744.46-2.409.373-2.76 1.137-5.442 2.047-8.062.563-1.284-.761-5.255 1.083-5.034z"/>
            <path d="M368.785 74.834c-.526 2.076-4.115 1.254-1.152.493.435-.203.474-1.454 1.152-.493zM369.187 74.102c2.964-.393 5.837.343 8.697.976 2.856.586 5.695.91 8.581 1.177 3.534.279-.323 1.511-1.732 1.928.87 1.619-.79 1.802-2.454 1.432-1.21-.187 1.187 1.737-.812 1.511-1.03.677-3.025.514-1.009-.828 2.484-.323.34 1.303.575-.901 1.056-1.891 4.567.745 2.995-.146-.668-1.97 1.663-2.571 3.375-2.728.163 1.542-4.17-.344-5.606.055-3.145-.55-6.284-1.227-9.416-1.895-.916-.378-3.359.732-3.194-.581z"/>
            <path d="M359.585 75.687c3.192 1.163 6.533 1.912 9.713 3.147 2.268.492 4.467 1.351 6.549 2.2 1.29.008 2.175 1.02 3.485.958.137.496-.658-.884-.058-1.465 1.247-.095 1.095 2.988-.427 2.316-1.241-.172-2.65-1.03-4.06-1.162-3.008-1.673-6.55-2.069-9.714-3.427-1.557-.898-5.695-.722-5.488-2.567zM388.579 77.225c-.79 1.102-.752 2.491-.272 3.356-.549 1.012-2.747.608-2.891 1.67-2.192-1.123-2.263.896-3.745 1.628-.332 1.33-.53 1.505-1.39 2.01.349-.914-.354-.651-.046-1.024.405-.137 1.19-2.655 1.709-1.952-.335-2.406 3.38-1.436 3.722-1.595-1.29 2.312.232-2.496 2.066-.83.15 1.054-.41-.05-.683-.944.045-.79.386-3.44 1.53-2.319z"/>
            <path d="M379.525 83.088c.614 1.415-.632 3.107-.692.768-.657-.875.29-.787.692-.768z"/>
            <path d="M359.304 76.109c.66 1.704-.947 4.144 1.47 3.469 4.08.991 7.78 3.127 11.934 3.798 2.684.504 5.488.762 8.025 1.745-.506 1.504-3.5-.666-4.994-.358-4.56-.523-8.914-2.181-13.185-3.854-2.353-.4-4.582-.773-3.928-3.5.203-.399-.492-1.953.678-1.3zM366.912 60.635c.643 2.262-.481 4.364-.665 6.605-.8 2.06-1.575 4.077-1.946 6.283-.235.68-.407 2.088-.965 2.18-1.303-.312.086-1.097.007-1.909.779-1.987.79-4.301 2.032-6.181 1.054-2.033.251-6.007 1.54-6.977z"/>
            <path d="M366.953 61.215c-.36.575-1.053 2.908-1.36 1.374.07-.59.643-2.563 1.36-1.374z"/>
        </g>
        <g>
            <path d="M468.256 47.775c1.376 2.466 5.48 2.257 8.06 2.67 1.652-.074 4.105-.324 5-1.534-2.148-2.474-5.778-2.06-8.706-1.909-1.518.263-3.849.714-4.103 1.843-1.477-2.439 3.916-2.707 5.66-2.821 2.689-.12 7.911.053 7.947 3.62-2.372 1.73-5.698 1.9-8.56 1.439-1.386-.61-7.64-1.429-5.298-3.308z"/>
            <path d="M473.925 47.758c-1.686.044-3.271 1.476-.756 1.17 1.261-.223 5.126.38 5.112.016-1.233-.588-7.095-1.787-3.267-1.877 1.254.673 4.802.673 3.743 2.683-2.513-.366-5.26.295-7.64-.504-1.204-1.307 3.036-2.774 2.808-1.488zM481.1 50.51c-1.714 1.923-2.169 4.48-2.093 6.941-1.059 1.796-1.206-1.555-.793-2.67.114-1.278 1.524-5.303 2.885-4.271zM469.256 49.63c1.617 2.238 1.43 5.234 1.728 7.853.694 1.008-.57 3.756-.825 1.51.058-2.608-.31-5.244-.82-7.787-.188-.712-1.264-1.121-.083-1.577zM465.377 60.344c-.01 1.57 1.627 5.497.798 4.199 3.785-.404 7.566-.15 11.316.435 2.446-.058 4.964.272 7.344.001-1.204-.383.635-3.453-.051-3.332-.072-.306-2.644.728-3.602.997-.528-.039-2.238-1.071-3.481-.688-1.494 1.165-3.192-.798-4.866.31-2.116-.455-4.206-1.036-6.4-.898-1.622.445-1.316-1.356.046-.97 2.049.008 4.077.237 6.025.938 1.92-1.18 3.719.996 5.003-.287 1.056-.799 4.272 1.002 3.217.689 1.546-.233 3.108-1.527 4.69-.81.336.535.714 1.034.03 2.084-.021 1.176.702 3.304-1.267 2.917-1.299.203-3.223-.15-4.73 0-3.441-.023-6.851-.936-10.29-.624-1.795-.021-3.911.374-3.667-.572.02-1.091-1.967-4.583-.115-4.389z"/>
            <path d="M465.552 59.569c1.791.594 4.231-1.763 5.451-.505-1.039.449-5.357 2.076-5.451.505zM479.343 57.736c1.194 1.795 3.811 1.557 5.012 2.932-.664 1.015-3.009-.775-4.242-1.126-.421-.564-2.42-1.201-.77-1.806zM476.501 58.437c.967 1.432-.368 3.096-.64.727-1.343-.789 1.103-.713.64-.727zM473.797 59.208c-.127 2.014-1.97 1.581-.665-.196l.664.196z"/>
        </g>
        <g stroke-width=".817">
            <path d="M379.153 115.189c2.883 1.886 6.515 3.531 10.134 2.42 5.01-1.072-.704-4.373-3.341-3.777-2.18-.178-5.593-.193-5.367 2.041-2.609-1.64 1.148-3.947 3.37-3.08 3.096-.08 7.473.087 8.752 3.156-.247 3.068-5.159 3.22-7.809 2.85-2.092-.624-5.358-1.589-6.107-3.227.09-.148.25-.253.368-.383z"/>
            <path d="M392.572 116.71c-2.549 3.458-3.625 7.569-4.15 11.634-.962 3.08-.136 6.223.342 9.294.522 1.061-.412 3.913-1.47 1.905.853-3.257-1.234-6.537-.296-9.835.75-4.516 1.561-9.147 4.348-13.07.063-.998.918-.135 1.226.071zM380.212 115.642c-.778 2.96-.25 6.086-1.404 8.995.122 3.219.205 6.515.496 9.756.225 1.227.854 5.774-.978 4.67.733-3.063-.622-6.139-.22-9.236-.207-2.576-.605-5.15.36-7.652 1.011-1.78-.545-6.102 1.746-6.533z"/>
            <path d="M388.268 139.656c-.197 3.95 1.344 7.772 1.235 11.694.783 3.1-2.918 3.882-5.356 3.265-.527-2.619-.787-5.534-.222-8.113.69 1.002-.045-2.059 1.16.134-.774 2.106.34 6.22-.224 7.101 2.39-.174 3.925-.27 3.466-2.879-.024-3.634-1.326-7.208-1.01-10.843-.041-.456.655-.396.951-.36z"/>
            <path d="M384.766 146.457c-2.903 3.058-3.613 8.087-8.483 9.306-3.21-.017-7.292 1.188-9.965.666.372-1.725 4.651-1.058 6.534-1.47 4.162.417 7.122-2.466 8.567-5.662.961-.827 1.437-4.064 3.347-2.84zM379.337 138.843c-1.107 3.375-2.073 7.908-5.844 9.54-4.014 1.461-8.46 1.15-12.574 2.234-1.665.065-6.43 1.679-6.047-.316 3.812-.46 7.627-1.103 11.447-1.652 3.694-.39 8.836-.563 9.749-4.665 1.728-1.359 1.353-4.408 2.835-5.343z"/>
            <path d="M355.694 150.274c3.605.282 7.03.999 10.55 1.452 3.234.074-.026 2.943.769 4.628-2.108 1.224-.634-3.866-.186-3.754-2.945.058-5.277-1.243-8.199-1.086-.862-.337-4.155.288-2.934-1.24z"/>
            <path d="M354.733 151.533c.809 1.806-2.145 3.976.924 3.135 3.386.063 6.724.51 10.07.916 3.19-.44 1.35 1.531-.78.752-2.84-.51-5.7-.79-8.6-.718-2.585.59-4.092-.879-2.55-3.12.23-.754-.354-1.306.936-.965zM367.427 152.445c3.77-1.165 9.02-.208 11.176-4.03 2.248-2.298-.928 3.247-2.782 3.222-2.396.482-6.761 1.78-8.394.808zM383.252 119.384c-.127 1.33-3.96 5.286-3.443 2.461 1.667-.447 1.631-3.683 3.443-2.461z"/>
            <path d="M380.742 120.44c1.434.5 3.3 4.19.72 2.302-.695-.498-2.385-1.75-.72-2.301zM382.278 125.725c-.524.94-3.802 4.012-2.753 1.434.45-.69 1.774-2.649 2.753-1.434z"/>
            <path d="M379.72 125.844c1.015.688 4.71 4.347 1.56 2.791-.84-.601-3.032-1.768-1.56-2.791zM382.189 130.72c-.714 1.258-4.835 4.22-2.742 1.159.54-.678 1.936-2.568 2.742-1.16z"/>
            <path d="M379.698 130.58c-.18 1.358 4.28 3.618 2.048 3.79-.821-.397-4.767-3.736-2.048-3.79zM383.04 135.84c-.376 1.156-4.577 4.174-2.94 1.657.58-.594 1.89-2.81 2.94-1.656z"/>
            <path d="M380.344 135.935c.907.805 4.207 4.967 1.376 3.271-.603-.61-2.912-2.607-1.376-3.271zM382.28 140.647c-.848.82-3.879 3.927-3.907 2.167 1.002-.6 2.81-3.595 3.907-2.167z"/>
            <path d="M379.264 140.523c.852.765 3.351 3.993.68 2.318-.544-.472-2.455-2.047-.68-2.318z"/>
        </g>
        <g stroke-width=".936">
            <path d="M486.56 79.813c-2.054 4.658-1.365 9.745-.673 14.57.23 1.223.466 2.882.693 3.854.285.652-.966 1.001-1.602 1.012-1.127-.297-.091-1.76-.658-2.735-.751-1.665-1.047-3.507-1.835-5.177-.473-.42-.19-.556-.83-.426-2.342 1.129-3.942 3.258-4.205 5.588-.793 2.48-3.4 4.44-6.407 4.322-1.569.217-3.157.393-4.67.038-.632-.01-.346.056-1.249.21-.77.265-2.48.021-1.986-.849.525-.708-.038-3.873.871-2.757-1.09-1.423.847-.932.526-.053.116.928-.385 2.772-.425 3.182-1.543-.817 1.122-.268 1.524-.677.762-.173 2 .279 2.823.15 1.683-.199 3.548-.087 5.104-.728 2.025-.781 3.036-3.046 3.347-4.974.967-1.848 2.654-3.89 4.964-4.438 1.19.214 1.157.456 1.795 1.298.493 1.823 1.253 3.536 1.803 5.331.24.861.176 1.545-.06 2.222-2.459-.561 1.951-.874-.041-.326-.077-.458-.225-1.637-.328-2.331-.442-2.057-.549-4.204-.871-6.3-.078-3.47-.017-7.022 1.473-10.295l.476.102.442.186z"/>
            <path d="M463.516 97.2c-2.232.056-4.331.323-5.99-.888-2.388-.395-4.554-1.621-6.387-2.858-.51-1.937 1.112 1.857-.273 2.727.446-.84-.595 1.568 1.132.704 2.8-.698 5.1.956 7.308 2.14 1.188.546 4.304.84 4.306 1.93-1.995-.055-4.052-1.09-5.895-1.874-2.03-2.205-5.75-.654-7.698-2.032-.164-1.034.26-1.345.281-1.805-.123-1.25.191-4.566 1.77-2.165 1.092.736 2.586.99 3.592 1.893 1.998.128 3.567 1.608 5.62 1.403.808.256 2.907-.59 2.234.824z"/>
            <path d="M451.687 91.828c1.908.73 4.053.394 6.05.772.598-.059.803.153 1.343.015 1.736-.13 3.563-.513 5.043-1.403 2.356-.975 4.025-2.716 5.946-4.141.601-1.257 4.575-1.982 2.621-.535-2.418 1.102-4.011 3.28-6.37 4.5-1.942 1.369-4.195 2.138-6.635 2.394-.887-.063-1.017-.101-1.603-.02-1.961-.224-3.961-.239-5.908-.609-.872-.126-1.096-.304-.487-.973zM463.505 96.74c2.168-.788 4.762.386 6.747-.416 1.348-1.275 2.124-2.858 2.781-4.472.415-1.32 3.346-3.583 4.187-2.591-1.186 1.149-3.237 1.4-3.563 3.259-.724 1.855-1.856 3.749-3.739 4.836-1.946-.481-5.288.263-6.413-.617z"/>
            <path d="M460.872 95.553c1.377.312 4.465-.974 5.012.165-1.276-.085-5.172 1.333-5.012-.165zM459.227 94.606c1.123-.62 5.368-.05 2.07.348-.756-.24-2.238.886-2.07-.348zM473.562 85.117c1.679.193 1.643-1.261 2.251-2.237.1-1.406.502-2.751.74-4.095 1.545-1.068 3.782.28 5.52.511 1.648.742 6.927-.398 2.726-1.058-2.2-.452-5.109-1.076-6.856.558-1.228-1.831 3.759-2.097 5.38-1.576 2.425-.064 5.987 2.326 1.984 2.897-2.79.654-5.275-1.106-8.008-.993.171.481-.624 1.768-.45 2.61-.445 1.289-.573 3.582-2.479 3.826-.324.056-1.183.422-.808-.443z"/>
        </g>
        <g>
            <path d="M424.33 91.686c6.756-.71 13.545-1.58 20.35-1.233 2.605-.065 5.265.15 7.81-.358 1.703.562-.946-1.132-.201-2.607-.652-.901-.23-3.283.177-1.397-4.698 1.812-9.884 1.091-14.78 1.971-3.572.298-7.123.93-10.693 1.105-1.106-.852-4.61 1.137-3.993-.8 1.477.26 2.007 1.905 1.518 3.089-.939 1.393-1.077-.762-.842-1.574-3.113-1.849 1.312-2.034 2.764-1.754 3.377.153 6.751-.707 10.14-.86 4.262-.713 8.619-.5 12.868-1.258 1.727-.625 4.154-1.482 3.485.372.323.766.228 2.406.437 2.579 1.123 1.408-.154 2.33-1.592 2.082-2.711.467-5.592.146-8.369.202-6.36-.396-12.68.666-19.013.996l-.064-.555z"/>
            <path d="M423.143 88.47c-2.79.572-4.86-1.351-7.26-2.08-1.67-.246-3.74.12-5.058-1.12 1.247-.473.458 1.037.032 1.804.393 1.319-1.375 1.676-.07.753 2.524-.4 4.879.383 7.04 1.606 1.915 1.097 4.232 1.103 6.195 2.114-.611 1.417-2.685-.616-3.985-.408-2.732-.591-4.972-2.979-7.9-2.589-2.301.648-2.685-1.04-1.553-2.64-.016-1.503.837-1.133 1.763-.786 2.055.702 4.821-.17 6.471 1.722 1.098 1.302 4.389.085 4.325 1.624z"/>
            <path d="M413.756 84.481c-.793.057-1.58.183-2.354.463-.267 1.27 1.58.033 2.146.182 2.341.06 4.659-.178 6.97-.188 2.737.629 5.491.068 8.197-.354.49-.066.978-.114 1.468-.154-.13-.258-.23-.453-.35-.694a41.19 41.19 0 0 0-2.715.307c-2.645.981-5.436.204-8.129.168-1.711.358-3.486.146-5.233.27zm19.815-1.045c.068.204.28.646.273.864 1.083.003 2.17.032 3.262.06 3.59-.235 7.19-.048 10.734-.698 1.288.772 3.206-.024 4.087 1.419-.642 1.584 1.97.55.444-.837-1.177-1.403-3.323-.949-4.938-1.46-3.046.713-6.182.588-9.283.76-1.56-.004-3.253-.133-4.579-.108z"/>
            <path d="M423.598 83.845c1.59-1.935 4.946-3.103 6.581-.566 1.622 1.197 1.258 3.35 1.77 5.028-1.047 1.316-1.061-1.052-1.29-1.914.207-1.74-1.321-3.166-2.723-3.868-1.667-.746-3.45 2.402-4.338 1.32z"/>
            <path d="M423.944 84.218c-.867.687-.412-1.156 0 0zM427.37 81.347c2.285-.756 5.008-.239 6.287 1.963 1.038 1.376 1.704 2.536 1.81 4.252-1.485 1.386-.91-3.14-2.554-3.914-1.11-1.919-3.45-2.172-5.404-1.636l-.14-.665z"/>
        </g>
        <g>
            <path d="M447.67 45.528c.38.284.791.493 1.244.626.328.12.661.15 1.003.184.053.008.105.022.158.023.103.001.203-.031.306-.037.12-.006.241.01.362.005.2-.036.395-.02.597-.008.188-.006.386-.019.57.01.177 0 .336-.031.512-.05.148-.038.33-.047.447-.147.19.028.306-.188.475-.208.065-.103 0-.025.009-.078.005-.05.02-.27-.001-.258-.032-.016 0 .032-.01.029-.115-.035-.237-.106-.348-.154-.378-.116-.733-.287-1.131-.323-.372-.023-.72-.18-1.093-.129-.056-.014-.11-.036-.167-.041-.058-.006-.116.01-.173.007-.245-.008-.48-.058-.725-.048-.19-.028-.385.012-.574-.003-.065-.006-.127-.036-.193-.037-.113-.003-.224.029-.337.031-.304-.01-.536.165-.806.268a6.643 6.643 0 0 1-.491.35c-.01.026-.39-.109-.38-.136-.02-.058-.052-.115-.056-.176-.02-.285.18-.596.382-.77a1.99 1.99 0 0 1 1.28-.516c.084-.002.167.002.25-.006.066-.006.131-.037.199-.036.067.002.13.042.197.046.067.004.134-.024.201-.023.133 0 .262.053.396.039.38.015.749.04 1.128.052.4.055.796.135 1.192.207.435.104.863.216 1.279.384.378.127.758.283.894.693.006.02.074.257.075.295.002.131-.063.272-.02.409-.05.28-.18.516-.422.676a1.907 1.907 0 0 1-.674.382c-.192.075-.407.099-.602.17-.224.067-.453.054-.682.05-.297-.008.096-.006-.196.022-.125.012-.252-.057-.372.012-.322-.012.152.016-.185-.039-.197-.032.012.037-.19.05-.075.006-.141-.074-.22-.05-.15.024-.286-.003-.435.008-.175.013-.335.05-.505-.027-.133-.008-.266.01-.399 0-.449-.03.028-.04-.42-.124-.656-.122.175.15-.47-.084-.673-.277.202.099-.46-.238-.082-.042-.177-.057-.257-.103-.082-.048-.142-.126-.223-.176-.992-.616.405.336-.45-.256-.053-.036.458-.783.511-.747z"/>
            <path d="M454.418 45.582c.178.56.35 1.122.517 1.686.028.085.064.168.084.256.02.086.017.177.038.263.152.632.02-.143.168.499.02.087.025.176.037.264l.064.26c.011.09.016.182.033.27.018.09.054.175.073.264.075.362.107.73.154 1.097.086.525.151 1.054.15 1.586.018.525.087 1.054.054 1.579.052.242.004.489.014.732.01.224.062.43.058.656.025.399.036.798.059 1.198-.016.369-.006.733-.027 1.103.032.28.062.578.01.858.055.27.01.546-.021.817-.014.048-.038.095-.04.144-.003.055.024.108.021.163a4.436 4.436 0 0 1-.12.609c-.023.048-.053.093-.07.143-.055.157-.011.139-.044.3-.03.157-.11.301-.15.456-.155.256-.167.561-.293.828l-.03.139c-.021.043-.05.084-.062.13-.013.046-.002.098-.016.144-.04.14-.122.228-.147.377-.089.216-.132.449-.279.637.017.144-.103.245-.138.374-.008.03.007.066-.007.095-.012.025-.043.036-.065.054.002.163-.092.287-.17.421-.018.087-.086.148-.117.232-.058.115-.133.217-.193.336-.058.05-.087.122-.12.172-.03-.004.009.024.016-.046-.35-.026-.706-.005-1.049-.079-.054-.011-.07-.536-.062-.611.004-.042.024-.08.036-.12.092-.216.089-.442.108-.67.023-.245.015-.497.016-.748.015-.32.025-.633.109-.945.004-.05.012-.1.013-.151 0-.052-.015-.104-.008-.156.057-.454.03.169.097-.267-.013-.185-.02-.096.017-.268-.009-.122.056-.235.072-.35.005-.04-.01-.08-.003-.118.053-.28.054.073.04-.216-.042-.112.029-.23.019-.34-.004-.04-.037-.076-.037-.117 0-.077.038-.151.041-.229-.005-.208.021-.425-.02-.63.056-.189-.015-.377.037-.566-.021-.03-.054-.056-.062-.092-.006-.029.02-.056.023-.085.009-.115-.043-.228-.06-.34.034-.104-.054-.185-.072-.278-.005-.025.006-.05.01-.076l-.018-.074a1.497 1.497 0 0 0-.109-.328.81.81 0 0 1-.15-.314 1.253 1.253 0 0 1-.204-.3.255.255 0 0 0-.085-.204c-.066-.063.08.074.11.1-.004 0 .009.004.013.007-.022.044-.072.003-.115-.017-.024-.011-.052.01-.078.008-.06-.024-.131.025-.19.016-.026-.004-.046-.036-.072-.032-.21.031.06.098-.15.028-.07-.047-.23.038-.268.038-.189-.003.038-.077-.13-.009-.161.045-.302.075-.465.124-.156.053-.298.179-.462.19-.13.093-.226.217-.34.326-.11.04-.215.208-.243.322-.138.132-.193.313-.278.482-.008.03-.006.066-.023.093-.02.032-.064.045-.084.077-.043.07-.03.166-.07.239-.024.042-.063.073-.095.11l-.067.141c-.173.144-.205.375-.318.555-.35.553.126-.288-.173.251-.128.25-.324.464-.436.724-.017.037-.026.08-.053.11-.029.034-.08.044-.108.079-.025.03-.025.074-.042.11-.054.114-.134.217-.205.32-.156.235-.312.466-.478.696a3.85 3.85 0 0 1-.409.631c-.08.051-.062.154-.109.221-.02.03-.06.04-.085.065-.07.076-.08.163-.154.236-.101.168-.25.3-.363.463-.134.089-.215.236-.346.331-.158.086-.085.037-.22.143-.155.163-.38.32-.596.39-.061.101-.192.074-.274.123-.033.02-.046.064-.078.085-.347.219.182-.21-.168.087-.136.01-.254.09-.377.13-.243.079.028-.079-.201.073-.125.057-.27.044-.392.109-.028.015-.047.048-.078.054-.038.008-.077-.01-.116-.016-.121.09-.242.049-.373.06-.047.005-.09.032-.137.042-.076.015-.218.018-.294.022-.159-.033-.317.038-.473.038-.054 0-.107-.03-.16-.026-.652.047.318.068-.329.042-.308.016-.613.063-.923.07-.289.068-.598.063-.897.077-.35-.033-.7-.028-1.05-.025-.206.098-.392.002-.596-.005-.195-.007-.414.022-.608.044-.069-.007-.137-.02-.206-.021-.13-.002-.26.022-.39.03-.182.01-.353-.008-.533.016-.336.006-.669.045-1.004.08-.34.028-.69.075-1.032.072-.31-.039-.621.025-.933.013-.235-.003-.475-.043-.709-.039-.126.003-.25.03-.375.036-.3-.053-.608.016-.907-.01-.095.035-.18-.006-.268-.016-.131-.015-.154.045-.284-.017-.183.06-.37.02-.56.036-.212-.002-.41.008-.622-.025-.032-.004-.065-.012-.097-.01-.079.003-.085.035-.165.024-.098-.012-.091-.073-.2-.053-.055-.059-.114.016-.14-.033.079-.001.042.015.08.023a.673.673 0 0 1-.427-.173c-.01-.008.019.018.024.03.173.14.223.052.02.037-.066-.002.012-.001-.078-.053-.068-.015-.02.025-.008.048.023-.063.017 0 .038.005.097.023.123-.037.077.033-.237-.1.056.08.18-.151-.163-.143-.06-.05-.306-.284-.015.01-.155-.208-.14-.218-.182-.265-.133-.144-.195-.342.062-.066.116-.135.205-.172.067-.028.237-.097.218-.027-.01.035-.043-.036-.014.017.195.036.093-.043.176.034.017-.005.175-.009.136.048-.013-.04.108.03.116.026-.158-.038.013-.029.04-.02.011.003.168.122.173.125.21.154-.162-.116-.271-.08.083-.022.139.025.227.016.016.005.029.02.045.021.008.001.023-.034.032-.026.011.009.001.031.011.041.007.007.02-.002.029-.003.087.047.207.001.296.047l.072.01c.016-.008.03-.026.049-.026.033 0 .064.026.097.026.093-.002.188-.043.287-.012.213-.047-.035-.008.182.011.123.012.256-.04.38-.006.208-.013.411 0 .62-.018.082.006.162.03.245.033.218.01.442-.033.661-.019.125.005.25.032.374.024.064-.005.124-.035.187-.04.172-.015.35.032.523.022.275.02.55-.026.825-.035.32.017.634-.038.95-.041.215-.045.518-.13.732-.13.064 0 .126.029.19.031.06.003.121-.01.182-.016.2-.03.337.024.53.007.063-.006.122-.039.185-.037.454.01-.058.115.397-.008.206.013.433.032.639.015.082-.007.162-.042.244-.045.068-.002.134.02.2.03l.158-.01c.341-.008.681-.01 1.021-.022.05.015.097.043.15.045.092.003.178-.054.27-.064.14-.015.125.012.264.01.045 0 .09-.009.136-.014.193-.022.396-.025.586-.066.056-.012.108-.046.165-.053.06-.008.12.005.18.008.33-.038.654-.072.983-.056.203-.03.405-.014.589-.091.168-.039.318-.088.478-.148.342-.18-.214.101.19-.06.03-.013.048-.047.079-.059.032-.012.07.002.101-.01.228-.093-.08-.045.163-.07.173-.038-.025.017.134-.065.087-.044.2-.034.27-.12.166-.1.326-.207.493-.303.132-.127.275-.2.366-.352a.948.948 0 0 0 .3-.354c.084-.073.213-.197.26-.299.015-.031-.005-.075.017-.102.024-.03.07-.033.105-.049.035-.194.106-.133.198-.284.023-.037.024-.085.047-.123.024-.039.06-.068.09-.103l.07-.123c.136-.243.28-.488.48-.683.008-.045.002-.095.024-.135.018-.036.062-.05.088-.081.102-.12.15-.286.262-.401.135-.246.31-.466.44-.714.215-.199.286-.518.477-.745.043-.107.088-.255.15-.35.023-.034.067-.049.087-.083.035-.058.002-.144.072-.188.036-.062.052-.134.09-.193.022-.032.064-.048.082-.082.018-.034.008-.08.024-.115.032-.066.111-.104.124-.184.07-.178.287-.445.44-.553.138-.2.363-.305.55-.445.21-.109.444-.162.632-.308.215.006.418-.114.633-.145l.105-.008c.032-.01.063-.028.097-.032.037-.004.074.014.11.008.034-.005.061-.039.096-.038.034 0 .06.04.094.043.028.002.052-.019.079-.028.137-.02.271.012.412-.01.111-.018.23.041.334-.004.075.068.211-.01.298.08.148.056.33.214.4.352.016.011.041.016.047.034.01.026-.011.054-.007.081.01.056.076.095.103.136.01.013.01.031.013.047.04.107.14.175.143.291.106.099.117.27.198.39.113.148.086.34.19.492-.031.193-.012-.042.034.14.007.027-.012.055-.009.083.01.087.04.185.074.265-.015.214.093.43.045.652.044.202.022.404.024.61-.01.214-.032.424 0 .64.03.351.003-.114-.014.247-.008.179.029.357-.043.533.011.258-.039.516-.11.762-.014.27-.098.533-.113.803-.009.144-.049.275-.066.418-.005.045-.003.092-.004.138.005.044.02.088.014.132-.005.046-.03.089-.044.134.009.275.024.548-.005.821-.02.261-.1.512-.098.77-.106.45-.028.113-1.054.236.044-.042-.011-.104.059-.144.059-.08.124-.143.166-.24.067-.031.127-.085.107-.15 0-.141-.018.02.066-.084.024-.029.045-.173.088-.205.113-.059.105-.234.15-.344.026-.02.061-.031.078-.06.015-.023.002-.056.01-.084.028-.118.141-.2.11-.336.086-.215.205-.411.278-.63.136-.22.172-.477.277-.711.059-.306.212-.568.292-.866.099-.258.202-.518.231-.792l.054-.132c.002-.044-.006-.09.006-.131.014-.046.057-.079.07-.125.029-.096.031-.28.017-.38.058-.23.02-.491.041-.729.03-.285.01.026-.011-.266-.025-.341.03.069.033-.283 0-.05-.017-.1-.025-.15l.009-.159c.023-.366-.012-.725-.01-1.089.003-.387-.017-.773-.035-1.159-.023-.473-.03-.946-.06-1.419-.014-.514.06-1.034-.035-1.542-.034-.51-.036-1.023-.135-1.526a15.606 15.606 0 0 0-.226-1.557c-.074-.212-.102-.259-.134-.48-.011-.083 0-.168-.019-.25-.018-.082-.065-.157-.09-.238-.024-.083-.038-.169-.057-.253l-.08-.262c-.126-.57-.313-1.122-.475-1.683-.018-.06.848-.316.866-.255zM420.832 63.627c-.054-.16-.042-.33-.077-.492-.019-.087-.062-.167-.079-.255-.014-.08 0-.163-.013-.243-.084-.273-.055-.137-.09-.404-.029-.266-.11-.525-.143-.79-.013-.112-.061-.227-.075-.337-.005-.039.016-.077.012-.116-.03-.298-.054.08-.022-.223-.042-.147.022-.318-.039-.452.002-.07.001-.123.015-.19-.018-.01-.047-.088-.043-.103.005-.02.042-.02.046-.04.003-.018-.028-.025-.031-.043-.005-.026.007-.053.01-.08.036-.165.133-.31.197-.472.06-.087.113-.182.192-.248.083-.05.165-.155.264-.146.029-.046.119-.046.173-.087.067.035.09-.087.119-.097.024-.007.052.018.077.011.038-.01.061-.05.097-.068.082-.029.204-.054.269-.11a.297.297 0 0 0 .223-.079c.122-.021.243-.04.362-.073.167-.04.308-.077.482-.046.217-.023.434-.006.651-.005.163-.016.325-.02.487-.046.023.008.044.024.068.024.032.001.106-.04.135-.046.078-.016.126.031.204.023.128-.015.253-.105.372-.06.101.003.19-.018.29-.032.094-.023.196-.046.3-.062.093-.015.243-.042.306-.094.138-.052.296.031.422-.036.189.044.38-.027.564.015.113.06.204 0 .314-.009.034-.002.067.017.1.012.036-.005.064-.042.1-.04.036.003.063.036.094.054.1-.053.177-.011.274-.003.078.006.18-.019.259-.024.137-.011.263.027.4-.005.13.05.302-.051.394.057.09-.051.21.012.293-.032.096.01.179.031.273.048.013.008.025.027.04.023.021-.006.027-.037.047-.047.072-.036.127.037.214-.015.081.041.158.004.244.013.023.002.04.025.06.037l.071.004c.116-.037.215.01.334-.007.164.016.34.012.515.021.224-.054.45.012.678-.01.1.012.34.01.44-.008.108.045.22 0 .333.01.012.006.024.02.038.018.014-.002.02-.02.034-.027.038-.018.064.008.1.012.038.008.156-.027.171-.002.069-.034.147.025.221.012.059-.058.108-.01.177-.039.055.07.137-.019.18.028.062.001.072.022.123-.022.047.024.082.017.088.022.042.015.02-.045.044.001.005.04.004.027.005.052.057-.002.083.807.025.81 0 .019.001.033-.002.022 0 .013-.02.021-.044.002-.046.027-.095-.007-.144.015-.045 0-.082-.017-.123.009a.207.207 0 0 0-.122-.01c-.05.036-.059-.045-.113-.018-.014.008-.016.033-.031.039-.011.004-.023-.009-.034-.013-.063-.03-.154-.009-.22.006-.097-.014-.147-.023-.23-.003-.028-.04-.14-.024-.172.016-.065-.077-.175-.025-.275-.034-.084.022-.334-.036-.44.004-.249-.02-.49-.008-.734-.001a2.56 2.56 0 0 0-.536.005c-.12-.03-.249 0-.374-.026-.09-.033-.217.053-.317-.01-.106-.013-.232-.025-.326.022-.085-.034-.178-.029-.262-.031a1.348 1.348 0 0 1-.376-.039.741.741 0 0 1-.238-.024c-.16.017-.298 0-.457.032-.163-.065-.36.03-.532-.033-.463.078.277-.036-.194.004-.035.003-.066.033-.101.03-.038-.004-.064-.047-.102-.05-.516-.045.292.124-.211.007a1.28 1.28 0 0 1-.49.01c-.088-.005-.163.046-.241.024-.08-.015-.2.091-.298.067-.116.052-.26.097-.38.07-.07.052-.201.04-.301.056-.14-.036-.305.096-.458.048-.283-.044.116 0-.137.03-.025.003-.197-.047-.239-.021-.138.046.013.009-.147.001-.126-.006-.261.053-.39.037-.22-.03-.436-.02-.654-.004-.052-.003-.102-.042-.154-.035-.025.003-.034.041-.059.048-.047.013-.09-.067-.135-.01-.073-.03-.21.007-.281.054-.06-.019-.101.042-.17.025-.073.045-.138.09-.225.102-.087.06-.156.06-.248.114-.033.062-.172.058-.236.13-.033.054-.14.028.01-.017-.024-.049-.05.04-.08.074-.01.033-.108.167-.084.136-.045.03.003.144.007.19-.004.014.022.028.015.042-.007.013-.033.006-.041.02-.013.02.096.063 0 .085.065.14.014.295.049.443.002.204.005.405.054.603.07.262.071.525.109.792.072.473.167.937.235 1.41.008.052-.72.164-.728.113z"/>
            <path d="M447.682 45.538c-.233.423-.416.87-.629 1.302-.079.264-.219.52-.275.788a3.133 3.133 0 0 0-.113.575c.026.11-.048.217-.047.323 0 .04.027.078.025.119-.026.506-.061-.259-.03.224-.039.217-.035.436-.06.655-.027.19.003.404-.052.582-.01.037-.03.072-.031.11 0 .041.028.08.029.122 0 .058-.05.166-.063.219-.02.08-.016.14-.018.223-.102.166-.13.375-.148.568-.014.026-.034.05-.044.078-.021.063-.001.113-.013.177-.015.087-.062.178-.09.262-.024.19-.127.356-.185.535-.055.21-.115.415-.2.622-.068.245-.193.463-.26.71-.018.035-.044.069-.054.108-.011.042 0 .088-.01.13-.04.163-.153.31-.203.473-.1.211-.168.434-.306.628-.136.17-.238.362-.361.539a2.476 2.476 0 0 0-.264.373c-.038.178.024-.04-.076.114-.015.022-.01.052-.019.077-.037.088-.12.164-.176.241a3.339 3.339 0 0 0-.368.482c-.107.064-.121.198-.189.288-.138.184-.015-.082-.111.163-.158.161-.319.318-.489.47-.145.078-.27.19-.413.266-.137.038-.073.01-.193.08-.18.078-.366.155-.542.256-.178.098-.308.254-.487.352-.079.002-.084.092-.138.122-.024.014-.058-.003-.084.009-.072.03-.091.075-.204.107-.058.013-.26.072-.314.068-.156-.012.013-.08-.134-.001-.136-.016-.297-.041-.433-.013-.133.02-.276-.058-.41.012-.053-.006-.133-.027-.187-.017-.013.003-.016.027-.03.027-.138-.001.02-.07-.108 0-.101-.05-.182.01-.297-.02-.017.001-.035.006-.052.003-.058-.01-.043-.035-.104-.028-.053.006-.077.047-.132.043-.082-.003-.122.032-.202.034-.061.068-.177.028-.237.075-.041 0-.063.003-.1.006-.101-.028-.167-.087-.25-.17-.025.011-.195-.342-.17-.354-.044-.09-.089-.17-.08-.273.083-.008.078-.046.149-.076.06-.025.116.007.16-.06.094-.012.175-.049.276-.042.126-.068.115-.016.187-.035.026-.007.034-.046.06-.054.046-.014.099.045.145-.003.103.056.07.009.166.001.06-.004.096.063.155.011.097-.018.198.025.296-.007.083.051.282.018.386.003.068.005.135.03.2.035.05.005.098-.022.14-.04.026.002.046.025.069.037.119-.015.252-.038.366.001.064-.004.13-.021.188-.026.08-.012.15-.014.196-.104.207-.054.359-.265.557-.351.195-.129.395-.227.615-.309.119-.044.066-.01.156-.103.027-.012.06.006.09-.003.087-.026.087-.14.188-.138.033-.034.126-.143.155-.164.024-.016.06-.005.083-.023.017-.014.015-.043.023-.064l.058-.035c.05-.205.2-.294.283-.48.123-.174.267-.326.397-.493.075-.122.135-.26.246-.355.11-.14.134-.32.258-.456.13-.227-.034.03.132-.147.08-.086.118-.216.218-.286.039-.193.222-.314.23-.525.126-.217.17-.449.263-.683.068-.233.2-.444.248-.682.097-.203.149-.421.22-.63.02-.04.131-.291.136-.331.004-.03-.022-.06-.015-.09.006-.026.034-.042.05-.063.049-.16.07-.316.11-.48.085-.175.086-.38.135-.567.024-.185.074-.366.088-.554.028-.189.032-.378.054-.568.025-.226.002-.455.068-.676.012-.237.035-.47.076-.704.046-.236.059-.488.16-.707.069-.308.236-.572.36-.86.202-.44.491-.848.61-1.318.024-.052.764.288.74.34z"/>
            <path d="M433.446 58.123c.812.084-.38-.028.52.014.092.004.181.029.272.036.245.02.459-.01.7.044.157.03.33-.024.487-.001.04.006.072.042.113.044.357.017-.11-.091.195-.01.127-.02.227.1.338.084.03.017.043-.031.067-.027.017.003.023.029.04.036.056.024.089.001.146.034.083.003.157.033.242.041.126-.016.268.038.39.005.106-.001.234.042.327-.005.16.004.306.053.463.023.14-.017.287.028.424.004.103-.038.212.027.304-.01.04-.006.198 0 .2-.021.059.007.085.071.126.009.019.018.017-.027.027-.021.012.007.009.027.016.039.024.037.016-.016.047.014.072-.001.063.05.066.11.003.112.002.05.002.189.017 0 .009.236-.007.235-.009.155-.003.09-.014.197-.004.045-.02.12-.02.129-.059.033-.07-.06-.087.038-.041-.045-.094-.045-.126.006-.097-.047-.158-.007-.257-.036-.111.047-.197-.036-.304.009-.12.007-.243-.04-.369-.02-.081.01-.17-.015-.248.003-.027.006-.049.032-.076.034-.025.002-.048-.016-.072-.023l-.064.007c-.14.001-.252-.02-.387-.004-.14.014-.288-.046-.43.002-.082 0-.227.022-.303.003-.02-.005-.027-.033-.046-.04-.014-.003-.027.01-.04.014-.051-.025-.11-.002-.16-.023-.023-.01-.036-.034-.059-.043-.022-.008-.046-.004-.07-.006-.094.012-.155-.053-.242-.042-.23-.069-.482-.055-.72-.103-.319-.003-.633-.06-.952-.065-.089-.002-.178.01-.267.008-.08-.002-.158-.015-.238-.022-.063-.003-.016-.893.046-.89zM446.823 48.198c.347.307.71.591 1.107.829.195.115.421.216.652.211.134-.01.247.04.376 0 .06.007.13-.023.145-.002.037.01.057-.011.101-.012.037.02.184.02.239.018.135.015.28.004.403.105.056-.001.193.04.23.092.081.052.117.134.178.198.044.121-.055.187-.133.265.014.021-.29.215-.305.193-.077.057-.165.09-.159.193-.034.058-.008.086-.067.073-.049-.01-.08-.04-.127-.053-.013-.003-.032.014-.038.003-.008-.014.018-.033.01-.047-.005-.01-.02.007-.03.011.067.029.066-.024.004.017-.062-.03-.136.002-.171-.014-.029.038-.065.032-.078.01-.052 0-.106.014-.159.024-.197-.072-.396-.032-.598-.063-.36-.072-.717-.16-1.014-.388-.208-.133-.445-.243-.633-.404-.07-.06-.121-.139-.19-.199-.13-.112-.29-.185-.406-.313-.053-.047.61-.794.663-.747zM446.696 51.016c.071.047.148.088.214.143.247.205.164.221.442.395.212.132.497.253.735.331.264.16.55.232.846.3.176.076.15.01.147.148a.81.81 0 0 0-.008.049c.043-.006.126.6.083.607l-.02.084a.693.693 0 0 1-.384.076c-.243.023-.439-.086-.667-.155-.482-.144.002.074-.484-.172a12.426 12.426 0 0 1-1.6-1.047c-.054-.05.643-.809.697-.76zM444.818 53.922c.316.392.74.67 1.176.911.205.132.417.261.638.364a.42.42 0 0 1 .156.27c.022 0 .002.302-.02.301a.413.413 0 0 1-.366.206c-.145-.008-.235-.07-.372-.109-.199-.056-.397-.09-.57-.217-.436-.35-.906-.648-1.303-1.047-.048-.047.613-.725.66-.679z"/>
        </g>
        <g stroke-width="1.046">
            <path d="M290.245 30.875c.46 2.802 1.154 5.655.621 8.515-.368.973.658 2.997-.413 2.234.775-1.341.826-2.888 1.03-4.401.207-1.578.635-3.1.76-4.688.215-.689.278-2.057 1.024-2.1-.142.717-.004.99.176.846-.427 1.041-.48 2.284-.68 3.534a41.774 41.774 0 0 0-.743 4.968c-.366.879-.62 3.188-1.786 2.467-.694-1.917.246-4.067.008-6.09-.043-1.746-.498-3.442-.777-5.149.235-.112.532-.163.78-.136z"/>
            <path d="M293.268 30.568c1.325-.009 2.25.06 3.615.594 2.285.686 4.109 2.543 5.426 4.622.556 1.288 1.438 2.455 2.689 2.984.774.542 1.443.934 2.392 1.342 1.982 1.006 4.188.997 6.312 1.343 1.89.122 3.823.285 5.71.158.796-.175 1.847-.188 2.47-.257-.853.1 1.354.055-.064.163-.64-.19 1.664.602.16.437-1.399-.126 1.504-.26.083-.138-1.51-.066 1.396.414-.235.371-.55.154 1.016.002.083.159-.877.154-1.677.074-2.606.299-2.885.145-5.751-.154-8.61-.549-2.564-.235-4.84-1.61-7.002-3.01-.995-.647-1.723-1.988-2.3-3.155-1.254-1.906-2.996-3.538-5.12-4.098-.883-.895-3.148.356-3.003-1.265z"/>
            <path d="M321.937 41.6c-.163-1.633.361-3.164.426-4.761-.06-.61.649.723-.198.25-2.06-.165-4.137-.183-6.192-.507-1.538.1-3.088-.384-4.492-.615-.57-.12-.333.01-.81-.25-.844-.481-1.672-.952-2.567-1.378-1.096-.896-2.293-1.69-3.073-2.95-.802-1.383-1.99-2.326-3.239-3.186-.993-.654-2.122-.806-3.228-1.06-.538-.283-.827-.298-1.286-.339-.996-.019-1.92-.114-2.865-.346-1.132-.04-.022-1.725.724-.85.387.016.813.14 1.425.166.476-.015 1.131.064 1.417.095.812.247 1.51.544 2.36.635 2.072.614 3.827 2.093 5.204 3.875.436 1.001 1.303 1.708 2.077 2.32.712.763 1.645 1.136 2.485 1.525.345.29 1.258.752 1.296.719.437.101 1.416.297 2.054.41.955.317 1.927.225 2.81.311 2.154.297 4.329.369 6.491.488.82.495.315 1.57.25 2.38-.639.83.472 3.708-1.069 3.068zM289.37 31.584c-.456-1.334-.973-2.656-1.248-4.025.085-.787-.307-1.545-.14-2.346.083-.476 1.078-.159.76.255-.093.653.232 1.543.171 2.27.115 1.21 1.316 2.902.798 3.764l-.34.082zM288.553 23.197c1.1.625 2.656.435 3.722.529 1.374-.108 2.915.26 4.154-.559.338-.543.45-1.11.301-.942-.154-.666.244.505-.016 0 .073-.754.451-1.086.738-.248.04-.49.112 1.94-.88 2.004-1.539.836-3.38.523-5.055.56-.833-.168-3.924.203-2.965-1.344z"/>
            <path d="M296.721 21.483c-1.357 1.375-3.273.67-4.915 1.026-1.242-.008-2.741.144-3.77-.599-.313-.55.033 1.921 1.031 1.733 1.475 1.101-1.994.75-1.77-.672-.252-1.04.213-1.99.995-1.917.724.366 1.574.593 2.376.529 1.447-.013 2.869-.16 4.315-.118.81.1 1.286-1.318 1.738.018z"/>
            <path d="M297.178 21.206c.494.862-1.015.6 0 0zM288.074 18.24c1.542.342 3.418.894 4.98.576 1.155-.182 2.437-.283 3.504-.766.19-.243.495-.6.375-.863.29.658-.865-.65.168-.32-.82-.764 1.014-.108.587.535-.007.69-.516 1.215-1.039 1.534-.718.233-1.27.33-2.108.494-1.057.161-2.358.35-3.303.267-1.036-.298-2.86-.202-3.267-1.094l.105-.362z"/>
            <path d="M296.966 16.667c-1.165.64-2.441.949-3.711 1.248-1.23.017-2.507.262-3.692-.226-.514-.178-2.26-.547-1.457-.66-.112.603.965 1.784-.266 1.42-1.385-1.099-.075-3.067 1.292-1.797.78.168 1.462.544 2.249.467 1.387.115 2.765-.167 4.028-.663.8.083 1.27-1.095 1.557.211z"/>
        </g>
        <g>
            <path d="M318.155 78.77c-2.86.202-6.423 2.786-8.879.93 1.328-2.523 5.628-2.158 8.194-1.45 1.41.613-2.265 1.464.2 1.404 3.262-1.604-2.12-3.22-3.877-2.622-2.225-.184-6.397 1.19-4.907 3.523 3.111 1.623 6.356-.844 9.467-1.198l-.197-.587z"/>
            <path d="M308.424 80.48c-.146 1.98-.09 4.062 1.004 5.789 1.083 1.864 2.169 3.628 2.283 5.768.46.884 1.115 4.99 1.819 2.647-.356-1.77-1.382-3.336-1.43-5.147-.75-2.357-3.067-4.323-2.85-6.922-.437-.67.751-2.515-.826-2.135zM317.658 79.03c.623 2.044-.493 4.183.577 6.17 1.516 2.696.52 5.993 2.194 8.607-.506-.546 2.148 1.963 2.321 2.808.97.179.634-.326.24-1.195-.218-.976-1.588-1.513-2.27-2.28.715.493-.524-1.594-.373-2.189-.263-2.501-.944-4.948-1.782-7.344-.535-1.179 1.055-4.702-.907-4.578z"/>
            <path d="M313.137 95.008c.457 1.89 4.295 1.295 1.195.49-.45-.2-.432-1.328-1.195-.49zM312.746 94.332c-3.117-.473-6.192.073-9.248.528-3.05.412-6.07.59-9.136.713-3.753.109.27 1.374 1.741 1.807-.997 1.423.75 1.655 2.529 1.389 1.29-.12-1.338 1.516.788 1.394 1.057.65 3.176.584 1.106-.706-2.613-.39-.422 1.16-.565-.834-1.028-1.747-4.868.486-3.163-.253.8-1.747-1.637-2.383-3.441-2.593-.246 1.382 4.429-.142 5.929.276 3.354-.37 6.707-.851 10.053-1.326.987-.304 3.519.795 3.407-.395z"/>
            <path d="M322.831 96.148c-3.432.918-7.004 1.458-10.427 2.442-2.423.351-4.79 1.036-7.034 1.716-1.366-.044-2.35.831-3.733.723-.168.441.738-.77.131-1.317-1.315-.136-1.3 2.647.342 2.103 1.322-.105 2.853-.821 4.352-.883 3.261-1.385 7.028-1.598 10.44-2.694 1.69-.746 6.06-.42 5.93-2.09zM292.08 96.362c.783 1.024.676 2.274.128 3.033.533.934 2.877.66 2.98 1.621 2.372-.923 2.352.899 3.885 1.618.288 1.21.49 1.377 1.375 1.867-.326-.838.406-.573.097-.921-.422-.14-1.132-2.44-1.715-1.828.469-2.152-3.508-1.43-3.863-1.586 1.255 2.134-.127-2.258-2.147-.832-.208.944.437-.028.768-.822-.01-.714-.245-3.114-1.509-2.15z"/>
            <path d="M301.38 102.008c-.716 1.25.522 2.824.697.72.736-.762-.27-.72-.696-.72z"/>
            <path d="M323.108 96.54c-.779 1.508.805 3.77-1.72 3.064-4.364.729-8.38 2.503-12.808 2.94-2.864.344-5.842.464-8.574 1.247.465 1.375 3.736-.458 5.301-.12 4.85-.288 9.536-1.605 14.135-2.94 2.508-.265 4.884-.51 4.322-2.994-.196-.367.614-1.739-.656-1.198zM313.183 80.842c-.096 1.424-.08 2.878.42 4.235.232 1.258.663 2.473.95 3.722.295 1.256.563 2.513.93 3.758.4.805.711 1.646 1.301 2.329.583.698-.976 1.059-.79.476a8.344 8.344 0 0 1-1.002-1.736c-.607-1.17-.753-2.49-1.096-3.751-.164-.928-.525-2.041-.765-3.142a49.471 49.471 0 0 1-.697-2.947c-.035-.967-.176-2.188.105-2.995.213 0 .44-.02.644.05zM316.552 79.854c-.377 1.46-.412 2.963-.297 4.46.298 1.56.588 3.129.674 4.717.367 1.456 1.13 2.735 1.734 4.091.17.68 1.229 1.459.77 2.083-.751.47-.793-.362-1.135-.768-.43-.84-.805-1.733-1.242-2.599-.468-1.108-1.01-2.225-1.015-3.458-.103-1.648-.55-3.25-.648-4.889.051-.85.013-1.35.12-2.263.237-.555.016-1.932.936-1.43l.1.056zM298.467 97.032c2.2.026 4.4-.19 6.547-.661 1.067-.067 2.134-.115 3.17-.399 1.27-.084 2.482-.57 3.77-.524.553-.143 1.59.022 1.113.805-.989.066-2.004-.07-2.97.227-.651.178-1.856.298-2.742.45-1.123.265-2.323.13-3.436.468-1.793.285-3.612.312-5.421.383a1.613 1.613 0 0 1-.031-.749zM301.526 99.335c1.004-.182 1.747-.416 2.611-.576.721-.17.192-.057.957-.238 2.044-.39 4.06-.935 6.075-1.392.945-.138 1.91-.236 2.8-.53.674-.245 1.646-.402 1.197.601-.524.026-1.187.225-1.779.357-1.009.28-2.075.233-3.069.547-2.032.507-4.095.936-6.153 1.345-.807.076-1.994.69-2.57.355-.032-.154-.088-.31-.069-.47z"/>
        </g>
        <g>
            <path d="M328.608 65.03c6.951-.337 13.938-.745 20.877.001 2.438.113 4.893.423 7.328.088 1.475.386-1.067-1.833-.045-2.614-.593-.496-.09-3.175.26-1.385-4.933 1.543-10.156.498-15.207 1.098-3.47.101-6.93.494-10.404.457-1.118-.976-3.44.763-4.026-.722 1.163-.796 2.462 2.339 1.083 3.206-1.311-.078.29-2.355-1.207-2.634-.579-1.552 2.221-1.093 3.186-1.014 3.6.552 7.234-.232 10.849-.181 4.228-.423 8.494.026 12.718-.47 1.06-.277 4.014-1.455 3.456.579.078 1.364.437 2.687.572 3.963-1.014 1.256-2.924.435-4.333.716-4.889-.197-9.751-.942-14.655-.75-3.473.054-6.944.247-10.419.22-.011-.185-.018-.375-.032-.557z"/>
            <path d="M328.09 61.646c-1.996 1.052-4.219.292-6.259-.151-1.94-.438-4.01 1.204-5.847.06 1.539-.547-.364 1.753-.086 2.469-.286.893-1.025.913-.104.141 2.362-1.057 5.069-.878 7.462-.029 1.821.384 3.719-.067 5.527.414-1.026 1.587-3.184.042-4.696.589-2.316-.251-4.667-1.609-6.989-.585-1.431 1.242-2.878-.342-1.698-1.756.193-1.608 1.372-2.134 2.898-1.787 1.777-.098 3.789-1.182 5.423-.038 1.196 1.307 3.238-.687 4.358.418l.01.255z"/>
            <path d="M352.892 57.74a12.21 12.21 0 0 0-1.863.132c-2.344.399-4.897.563-7.268.652-.114.47.178.255.05.761 2.829-.121 5.664-.239 8.455-.734 1.3.528 4.309-.234 4.355 1.741.83 1.071 1.56-1.298.282-1.56-1.167-.708-2.607-.981-4.01-.992zm-11.636.858c-.746.022-1.491.045-2.236.073l.008.018c.179.467.111.382.118.725.778-.03 1.48.025 2.165-.01-.073-.274-.066-.533-.055-.806zm-2.228.09zm-3.366.173a42.356 42.356 0 0 0-3.776.459c-2.52 1-5.253.37-7.87.346-2.576.535-5.316-.039-7.822.899-.216 1.116 1.228.27 1.719.18 2.389-.068 4.785-.268 7.178-.38 1.937.325 3.929.262 5.864-.088a38.28 38.28 0 0 1 4.697-.69c-.032-.242-.004-.508.01-.726z"/>
            <path d="M326.554 59.909c1.789-1.732 3.92-3.375 6.43-3.815 1.906-.188 3.09 1.987 3.176 3.646-.075.721.762 3.18-.55 2.526-.655-1.368.185-3.095-.883-4.285-1.126-1.595-3.092-1.257-4.35-.025-1.192.593-2.423 2.383-3.823 1.953z"/>
            <path d="M332.6 56.037c1.712-.445 3.966-1.062 5.334.459 1.058 1.493 2.092 3.18 2.037 5.081-1.592.609-.949-2.349-1.644-3.25-.784-1.609-2.435-2.774-4.256-1.85-.472.157-1.484.245-1.47-.44zM338.763 55.27c1.796.403 2.03 2.448 3.037 3.679.04.881 1.344 3.258-.288 2.826.111-1.738-.825-3.214-1.59-4.685.002-.958-1.892-.925-1.159-1.82z"/>
            <path d="M338.707 55.263c1.499.26 3.798-.875 4.602.885.661 1.389 1.015 2.915 1.565 4.357.522 1.211-1.2 1.04-.838-.11-.597-1.453-.763-3.095-1.675-4.402-.41-.626-3.705.608-3.654-.73z"/>
            <path d="M338.969 55.706c-.689.05-3.037 1.192-1.973-.158.575-.131 2.197-1.096 1.973.158z"/>
        </g>
    </g>
</svg>
