<svg xmlns="http://www.w3.org/2000/svg" viewBox="0 0 178.27917 195.69047" height="739.618" width="673.811">
    <g fill-rule="evenodd">
        <path d="M57.396 164.279c.478 1.68 1.354 2.165 2.182 2.796-2.136 2.213-4.273 5.15-6.41 5.864-.826-.992-1.572-2.065 1.16-6.614 1.716.558 1.3-.78 1.5-1.569.818.874 1.073-.22 1.568-.477zm-1.705-4.57c1.421-1.637 2.577-3.837 5.387-2.522.758-.712 1.699-1.059 3-.682.94.25 2.172-1.001 3.001 2.182.032 1.791-.668 3.164-1.91 4.228l1.297 2.046c1.94-.375 2.72.284 7.705-2.796 2.308-1.812 4.768-3.531 6.206-5.865l1.295-2.114c.85.737.808 1.696.205 2.796 1.974 1.59-.144 1.253-1.023 1.5-4.07 3.106-7.848 7.676-12.41 8.32 2.444 3.837 7.883 6.516 2.454 13.911l2.114 4.092-.546 6.41 3.751-.75 1.705 1.704-2.455.614.273.818-4.978-1.364.682-6.614-2.25-3.887-3.274.955-3.137 4.5 3.41 5.183-2.046 2.387-.818-.478-1.978 1.228-1.57-1.258.798-.468-.387-.866 3.546-.682-2.728-4.5 2.796-5.183c-1.592.15-2.457-.792-3.341-1.705-1.428 1.254-1.709 6.754-3.683 8.115-2.337.86-4.404 2.439-7.774.546-2.936-2.455-2.003-4.91-2.045-7.365.948-1.716 1.964-2.848 3.273-1.5-1.961.917-1.896 2.848-2.114 4.637 1.584 1.264-.494 3.505 5.933 3.478 2.514 1.19 3.604-5.907 3.341-6.82-.387-1.34 1.93-4.336 2.114-3.136-.932-2.306-1.652-4.709-.614-7.91l-5.319 3.682c-1.963 1-2.53-.33-3.477-1.023.472-2.862.002-5.409 2.727-9.138l1.91-1.977c-1.159-.682-.215-1.688.954-2.728z" fill="#ac9393"/>
        <path d="M79.58 121.992c8.996-10.8 18.726-12.58 24.95-4.678l12.476 27.29-2.859 28.329c-10.112 6.142-17.573 3.142-27.03 2.079-2.312-17.606-8.942-34.795-7.537-53.02zM125.323 113.675c7.793-9.077 13.129-4.636 18.193 1.3 9.628 13.33 19.477 25.712 34.578 33.569-6.912 2.531-13.464 3.785-21.063-.562-13.372-2.506-19.947-12.942-29.629-19.752z" fill="#ffd42a"/>
        <path d="M78.02 127.97c-2.873-9.748-7.656-9.26-16.373-9.876l15.854-2.6c-3.708-23.767 4.762-46.817 12.475-69.913 13.986-24.56 33.852-34.95 53.28-45.223 4.395-.71 20.437-.213 11.176 15.075-14.835 11.538-21.032 28.833-27.81 45.742-4.27 14.128-7.759 28.333-5.198 43.144 5.225-4.248 12.548-1.895 16.894-.78 12.164 7.12 15.652 29.554 39.279 44.158-8.686-1.455-25.75-15.784-30.702-26.485-7.442-15.759-14.295-13.256-21.052-7.797 3.684 19.354 7.171 35.45 5.198 62.377-1.215 1.38-3.042.31-4.938-1.04-4.85-19.545-12.654-38.499-24.431-56.658-5.484-4.762-11.957-6.061-21.572 3.638z" fill="#fff6d5"/>
        <path d="M77.241 127.155c-3.842-13.623-18.902-8.353-18.902-8.353-9.21 6.392-19.678 12.361-27.1 16.445l-.78 3.639c8.516 3.216 18.47-.032 28.33-2.86z" fill="#ffd42a"/>
        <path d="M13.947 165.343c-1.14-1.636-2.338-3.213-4.373-3.954-2.85-.912-4.493-.194-5.626 1.217.071.35-.34.82.456.988 1.489-.48 2.679-2.094 5.36-.646 1.424 1.184 1.812 2.872 2.966 3.573z" fill="#916f6f"/>
        <path d="M14.677 167.077l1.088 1.689.802-2.605zm-2.64 3.547c.498.428 1.037.612 1.861.062-.39 1.705 1.524 3.883 3.35 2.171l1.18.497c.623 2.354.264 5.316 4.134 5.546l.85-.289c.839 1.587 1.265 3.146 3.537 4.828l-2.396 4.106 1.56 3.764-3.232 1.292c-.128.563.33.717 1.216.57.01.767-.508 2.033 1.217 1.18.63.671 1.141.739 1.368-.61 1.467.165.89-.92.609-1.824-.999-1.604-.71-3.048-.989-4.562l2.737-3.84 3.004-.798-3.27 4.638 2.395 4.182c-.193.56-2.034 1.395-.532 1.673.482.69.963 2.115 1.445.722 1.043.122 2.755.726 1.407-.874.704-.31 2.37-.395.228-1.369-2.4-1.68-2.053-2.61-3.08-3.916 1.236-1.876 2.681-4.17 4.22-6.653.534-.797 1.022-1.625 1.255-2.623.366.524 1.116.302 5.474-6.957.56-2.718.553-5.507.304-8.326-.9-2.203-1.536-4.143-4.22-5.855-2.097-.26-4.023-.348-5.018.494-.006.569-.12 1.226.95.913 2.744-1.058 3.767.142 4.943 1.14 1.384 2.05 2.086 4.339 1.749 6.996.277 3.89-1 6.803-3.46 8.972-.144-3.196.158-6.248-3.003-10.417.482-1.961 1.539-4.061-1.179-5.247-1.768-.793-3.11.543-4.486 1.711-3.4-.89-6.783-1.526-9.884 1.863-1.852-.158-3.072.735-4.334 1.559-1.879.716-1.972 3.108-1.91 5.28zm17.985-7.956l2.605 1.574c.512-2.544-1.308-3.244-2.605-1.574z" fill="#ac9393"/>
        <path d="M7.005 171.256c-.67 1.664-.779 3.241-.458 4.752-1.934.232-3.419-.699-4.437-2.834-.064-1.121-.945-1.981.744-3.664.716.316 1.432-.08 2.147-.43l-.172.716c-.225 1.803.417 2.405 2.176 1.46zm5.032-.756c.498.428 1.037.736 1.861.186-.39 1.705 1.524 3.883 3.35 2.171l1.18.497c.623 2.354.264 5.316 4.134 5.547.989 5.717-1.927 6.482-4.32 7.922l-1.368 2.623 3.117 2.965c1.903.183 1.028.481.609.76-.044.631-.162 1.146-1.103.38-.279.812-.71.812-1.293 0-2.31.599-1.355-.256-.076-1.254-.757-1.617-4.318-1.784-2.243-4.866-.925.384-1.799.25-2.623-.38.07 2.069-.727 4.046-1.026 5.93.719.128 2.725-.155 1.444.609-.507 1.495-1.064 1.724-1.672.684-.62.672-1.151.963-1.369-.076-.72-.015-1.995.21.19-1.064.641-1.94.61-4.383.608-6.805-2.72-2.243-2.16-4.668-1.292-7.11-1.551.429-2.23-.889-3.232-1.558-1.712-.047-3.329-.962-4.942-1.901-3.137-2.315-.824-6.615-.722-7.338 1.224-1.026 2.514-.87 3.84-.076.757-.625 1.39-.385 2.052-.342 1.122-1.245 2.363-2.31 5.475-.57z" fill="#916f6f"/>
    </g>
    <g fill="#333">
        <path d="M6.715 169.12c.14-1.398 1.428-2.406 2.702-2.747 1.156-.237 2.264.327 3.182.938.018.695-.592.097-.905-.06-1.52-1.116-3.812-.264-4.454 1.424-.08.314-.106.975-.525.445z"/>
        <path d="M6.914 168.427c-.263-.611-1.297-.475-1.51.02-.9-.666 1.319-1.253 1.756-.48.317.284.12.696-.246.46zM5.11 169.776c-.11.659-.414 1.897.642 1.882.514-.088 1.823-1.678 1.224-.307-.695 1.4-2.91.566-2.382-.92.091-.284-.015-1.18.515-.655z"/>
        <path d="M7.21 171.438c-.802 1.901-.723 4.103-.115 6.039.725.935 1.88 1.639 3.099 1.405.807-.012 1.612-.457 2.143-1.044.772-.177.094.822-.353.825-.89.735-2.11.733-3.194.578-1.223-.512-2.458-1.482-2.406-2.948-.314-1.68-.242-3.538.519-5.058.117.004.313.047.308.203z"/>
        <path d="M7.535 171.743c.663-.71 2.493.639 1.17.322-.36-.312-1.37.476-1.17-.322zM10.102 171.744c.743-.475 1.695.04 1.99.737-.466.52-.747-.67-1.315-.479-.286-.02-.853.386-.675-.258zM4.114 167.689c.73.528 2.148.597 2.238 1.686-.445.648-1.295-.028-1.852-.166-.057-.803 1.285.083 1.428.097-.322-.753-1.497-.76-2.04-1.324.013-.118.07-.31.226-.293z"/>
        <path d="M4.676 168.983c.56 1.385-1.722.334-.582.502.212 1.41-2.052-.15-.793.038.559.668.238-.81.792-.184.572.344-.11-.537.583-.356z"/>
        <path d="M4.057 168.088c-1.113-.473-2.583.098-2.948 1.28-1.196 2.056-.866 5.045 1.205 6.42 1.037.87 2.756 1.225 4.022 1.602 1.25.043-.124.685-.804.237-1.716-.552-3.587-1.098-4.656-2.67-1.383-1.956-1-4.631.255-6.541.793-.813 2.012-1.154 3.084-.722.127.11.008.402-.158.394z"/>
        <path d="M3.038 169.77c-1.305.62-1.21 2.485-.664 3.603.424 1.035 1.24 1.847 2.332 2.128.464.462 1.743-.045 1.721.695-1.141.138-2.414-.402-3.352-1.084-1.362-1.334-2.147-3.733-.815-5.344.185-.232.967-.695.778.002zM14.314 171.019c-.357.789.008 1.57.652 2.01.506.393 1.614.455 1.944-.186.714-.89.357 1.257-.608.857-1.38.328-2.943-1.103-2.446-2.511-.163-.365.394-.467.458-.17z"/>
        <path d="M16.916 171.55c.068.875.933 1.433 1.687 1.659-.078.739-1.126-.01-1.438-.324-.337-.18-1.223-1.831-.25-1.335z"/>
        <path d="M18.677 173.479c-.336 1.26.582 2.406 1.016 3.527.617 1.071 1.862 1.759 3.11 1.532.974.048 1.633-.707 2.208-1.338.655.487-.802 1.36-1.28 1.598-1.148.269-2.486.346-3.411-.506-1.152-.853-1.601-2.327-2.065-3.622-.125-.318-.214-1.888.422-1.191zM18.463 172.563c.215-.705 1.68-.817 1.929-.231-.305.449-1.34-.33-1.56.435-.125.112-.399-.044-.37-.204zM21.838 171.735c.305-.585 2.43-1.144 1.767-.259-.67-.445-1.354.994-1.795.363l.028-.104zM17.968 163.93c-1.324.039-2.516.608-3.59 1.33-1.387.611-1.92 2.261-1.738 3.658.438.76-.55.571-.481-.115-.05-1.524.512-3.241 2.006-3.913 1.145-.747 2.526-1.458 3.898-1.312.033.111.054.312-.095.353zM14.42 169.268c.777.235 1.563.745 1.903 1.497-.25.89-1.506.302-2.098.066-.967-.242-.05-.842.404-.287.355.209 1.011.245 1.28.272-.252-.76-1.65-.878-1.584-1.517l.094-.032z"/>
        <path d="M13.966 170.331c.748 1.636-2.078.105-.704.339-.57.93-1.946-.331-.97-1.015.115-1.288.957.015.128.553-.133.19.167.485.457.316-.04-.156.55.158.715.199.28.143-.36-.498.374-.392zM16.54 166.413c-.827.173-1.579.723-2.227 1.263-.34.54-.325 1.306.238 1.612.074.881-1.167-.3-.89-.844-.035-1.307 1.375-1.785 2.311-2.326.313-.238 1.06-.162.568.295zM14.928 169.408c.707-1.132.778.726 0 0z"/>
        <path d="M15.616 169.408c-.292-1.412 1.235-2.184 2.193-2.862 1.835-.791 4.17-.988 5.891.141-.177.697-.917-.207-1.368-.163-1.574-.42-3.393-.21-4.773.668-.657.56-1.794 1.117-1.521 2.163-.036.165-.35.2-.422.053z"/>
        <path d="M15.922 167.615c.328-1.16.899-2.222 1.625-3.189.878-1.46 2.3-2.73 3.97-3.182 1.715-.155 3.506-.532 5.168.086.41.153 2.124.23 1.403.81a29.78 29.78 0 0 0-3.036-.758c-1.863.153-4.038-.096-5.47 1.368-1.3.932-2.029 2.393-2.816 3.739-.227.326-.319 1.94-.844 1.126zM30.494 162.686c.722.455 1.68.8 2.105 1.563-.675.301-1.456-1.021-2.283-1.172-.282-.099-.081-.54.178-.391zM17.428 173.312c-.043.872-.279 1.848-.852 2.507-.55-.236.173-.92.228-1.366.255-.423.05-1.077.413-1.365.153-.202.182.334.211.224zM18.618 175.311c-.234.803-.649 2.016-1.455 2.235-.045-.752.985-1.26.974-2.113-.076-.372.556-.655.481-.122zM10.344 179.215c-.616 1.433-.808 3.148-.396 4.662.578 1.787 2.33 2.925 4.081 3.336 1.59.4 3.218-.042 4.664-.72 1.193-.483 2.353-1.322 2.993-2.433 1.047-1.346 1.305-3.302.715-4.892-.367-.984.837.081.685.8.133 1.593-.113 3.301-1.201 4.54-.84 1.28-2.23 2.148-3.671 2.616-1.465.72-3.238.824-4.789.378-1.879-.644-3.676-2.02-4.035-4.085-.166-1.483-.005-3.028.584-4.41.12-.27.537-.036.37.208zM32.548 182.291c-1.77.855-3.96 1.693-5.867.631-1.484-.507-1.933-2.213-2.808-3.358-.062-.657-.794-1.311-.554-.249.435 1.024 1.178 1.955 1.752 2.935.86 1.088 2.348 1.514 3.68 1.573 1.883-.158 3.471-.805 5.276-1.85 1.448-.915 2.001-2.639 2.53-4.103.762-2.56.236-5.215-.1-7.813-.43-1.436-1.349-2.681-1.961-4.046-.78-1.159-.933-.098-.222.468.634 1.562 1.902 2.899 1.926 4.665.222 2.68.794 5.262-.507 7.948-.722 1.613-1.46 2.552-3.145 3.2z"/>
        <path d="M11.147 185.92c.036.047-.003.001 0 0zm.007.024c.376 1.847.798 3.847-.047 5.625-.025.583-.586 1.199-.362 1.707.712-.218.538-1.378.923-1.961.632-1.68.254-3.508-.074-5.206-.042.456-.432-.246-.44-.165zm.163.173c.079.073.014.003 0 0zM15.974 187.435c-.72.164-.994 1.328-.981 2.004.489 1.12 1.782 1.584 2.311 2.691.53.896 1.119.268.321-.273-.522-1.052-1.698-1.541-2.235-2.56.003-.564.493-1.245.584-1.862zm-.135.014c-.033.013-.002.007 0 0zm.043.023c-.065.011 0 .013 0 0zM27.007 183.404c-.478 1.426-1.374 2.884-2.13 4.07.234 1.003.783 1.903 1.094 2.875.512.514.028 1.535-.221.585-.396-1.146-.99-2.23-1.298-3.406.53-1.283 1.58-2.46 2.041-3.842.025-.353.553-.92.514-.282zM32.188 182.936c-1.177 1.358-2.166 3.025-3.224 4.382.15.743.586 1.481 1.038 2.132.309.715.838 1.345 1.115 2.054-.53.477-.713-.714-1.03-1.034-.564-1.067-1.378-2.064-1.54-3.283 1.192-1.48 2.187-3.208 3.469-4.61.18-.02.312.225.172.359z"/>
        <path d="M27.48 191.934c.236.637.673 2.546-.575 1.754.155.642-.625 1.902-1.35.951-.464-.547-1.579.893-1.817-.35-.118-.551.637-1.115-.253-.86-.94.121-1.353-.96-.297-1.172.903-.342 2.16-1.175 2.927-1.003-.565.837-1.898.671-2.679 1.324-1.122.502.281.42.748.366.638.304-.679 2.06.5 1.206.55-.414 1.288.106 1.5.402.161-.716.58-1.37 1.2-1.143.043-.319-.738-1.862.095-1.475zM31.17 191.584c-.124.527-1.22 1.347-1.017 1.46 1.025-.558.959 1.717 1.618 1.158-.03-1.064 1.746-.254 1.534-.466-.872-1.2.947-.874 1.16-1.089-.414-.016-1.727-1.37-.705-1.043.762.2 1.682 1.429.437 1.655-.515-.047-.93-.238-.47.374.458 1.052-.934.46-1.402.381-.145.683-.845 1.147-1.313.356-.35-.455-.334-1.273-1.052-.843-.9-.687.648-1.692 1.059-2.25.117.058.122.2.152.307zM34.92 158.142c-.51-.231-2.24.78-1.14.736.96-.527 2.173-.32 3.154.02 2.273 1.082 2.755 3.875 3.078 6.116.178 2.236.406 4.579-.643 6.658-.482 1.521-1.365 2.84-2.475 3.966-.676 1.016 1.088-.28 1.144-.666 1.3-1.616 1.905-3.697 2.408-5.677.144-3.125-.004-6.47-1.596-9.247a4.431 4.431 0 0 0-3.93-1.906zm1.87 17.91c.006.028.054-.011 0 0zm-.005.123c-.019.002-.001.003 0 0zM61.1 157.122c-1.349-.411-3.058-.199-3.952.981-.543.566-.844 1.28-1.326 1.878-.68-.412.524-1.212.68-1.758.711-1.017 1.862-1.705 3.124-1.705.274-.042 2.56.106 1.475.604z"/>
        <path d="M56.093 160.381c-.866-.391-1.894.848-1.463 1.717.017 1.202-1.062-.875-.252-1.346.064-.94 2.731-1.131 1.715-.37zM60.336 158.802c-.37-.224-.45.89-.354.148.517-1.302.822.495-.127.591-1.147-.595 1.283-1.944.481-.74zM56.066 164.603c.539.623 1.068.11 1.23-.453 1.334 1.128-2.422 1.416-1.23.453z"/>
        <path d="M57.57 164.462c.465.857 1.177 1.689 2.035 2.21.331.853-1.093-.072-1.248-.519-.302-.276-1.99-2.137-.787-1.691zM56.127 161.399c-.405.3-.96.879-.558-.169.193-.39 1.168-.25.558.169z"/>
        <path d="M53.044 164.016c.449-.99 1.273-1.71 2.266-2.137.525-.31 1.3-.38 1.717.103.048.881-1.532 1.028-1.657 1.762.63.216.468 1.253-.035 1.232.472.036.798 1.37-.06 1.504-1.065.139-.604-.436.143-.588.042-.463-1.051-1.181-.036-1.38-.23-.454-.691-1.022-.076-1.432.374-.342 1.015-.736 1.338-.903-.203-.264-1.049-.074-1.396.24-.867.339-1.47 1.055-1.87 1.87-.171.248-.532-.062-.334-.271z"/>
        <path d="M53.234 164.292c-1.421 1.847-2.133 4.124-2.6 6.379-.136 1.12-.657 2.429.092 3.441.583.645 1.635.622 2.401.41 1.383-.62 2.467-1.69 3.704-2.541.63-.555 1.288-1.193 1.992-1.572.478.64-1.248 1.12-1.648 1.822-.988.724-1.928 1.515-2.952 2.176-1.022.735-2.531.94-3.595.202-1.122-1.012-.609-2.635-.441-3.92.509-2.18 1.14-4.409 2.45-6.256.032-.414.876-.843.597-.14z"/>
        <path d="M54.571 166.551c-.986.964-1.428 2.374-1.832 3.672-.023.762-.421 1.593-.076 2.309.689.7 1.445-.307 2.05-.64 1.563-.962 2.417-2.619 3.61-3.936.357-.38.642-1.15 1.202-1.104.014.643-.867 1.14-1.19 1.731-1.124 1.269-1.978 2.782-3.462 3.694-.679.5-1.6 1.359-2.423.647-.697-.74-.16-1.78-.152-2.663.373-1.376.897-2.777 1.81-3.878.168-.312.85-.278.463.168zM59.078 169.89c-.537 2.566-.554 5.314.25 7.831.65 1.44 1.113 3.193 2.492 4.112 1.1.237.466 1.007-.306.312-1.164-.788-1.644-2.185-2.231-3.398-.938-2.149-1.105-4.56-.919-6.877.33-.57-.148-2.353.72-2.163l-.004.184z"/>
        <path d="M62.528 182.172c1.854.824 3.974.409 5.806-.28 1.457-.374 2.526-1.516 3.463-2.605.612.45-.582 1.145-.909 1.561-1.42 1.43-3.529 1.856-5.439 2.187-1.088-.02-2.364.061-3.25-.643-.046-.174.177-.34.329-.22z"/>
        <path d="M63.74 183.037c-1 1.426-1.74 3.015-2.544 4.55.268 1.355 1.339 2.47 2.2 3.521.68.531.84 1.835.032.847-.858-1.42-2.26-2.58-2.666-4.246.329-1.145 1.085-2.134 1.577-3.225.22-.216 1.253-2.527 1.402-1.447z"/>
        <path d="M66.15 183.062c-.792.65-1.197 1.663-1.892 2.416-.287.763-1.211 1.249-1.14 2.084.701 1.422 1.915 2.513 2.694 3.886 1.094 1.466-.725.358-.862-.596-.736-1.125-1.824-2.073-2.284-3.36.066-1.016 1.022-1.61 1.405-2.504.775-.681 1.049-1.926 2.04-2.322.176.042.215.318.04.396zM69.408 182.096c1.02 1.207 2.274 2.496 2.439 4.154-.106 2.007-.734 3.96-.77 5.979-.812.507-.18-1.59-.2-2.183.095-1.649 1.045-3.405.214-5.001-.127-1.17-2.343-2.29-1.81-3.08l.127.13zM59.121 179.284c-.822.253-.909 1.36-1.239 2.04-.742 1.881-.625 3.965-1.314 5.85-.67 1.654-2.57 2.303-4.24 2.049-2.207-.146-4.372-1.941-4.278-4.283-.037-1.013-.067-2.043.47-2.95.205-.974 2.7-1.591 1.073-.473-.87.444-1.144 1.581-1.152 2.483-.055 1.37.148 2.959 1.385 3.79 1.413 1.201 3.669 1.417 5.296.539 1.23-.892 1.47-2.467 1.618-3.874.297-1.765.697-3.593 1.573-5.157.166-.492 1.597-.598.808-.014z"/>
        <path d="M49.925 180.792c-.612-1.008-1.996-.231-2.25.668-.414.852-.772 1.728-.734 2.69.044 1.714.707 3.405 1.695 4.79 1.09 1.07 2.728 1.371 4.198 1.16 1.297-.084 2.748-.361 3.663-1.366 1.115-.768 1.5-2.122 1.933-3.324.497-1.522.501-3.33 1.632-4.538 1.172-.268-.06.55-.265 1.097-.626 1.513-.672 3.244-1.433 4.708-.352 1.445-1.545 2.477-2.745 3.23-1.406.566-2.905.682-4.405.649-1.54-.25-3.117-1.047-3.68-2.605-.924-1.9-1.493-4.252-.439-6.217.294-1.141 1.596-2.384 2.774-1.602.429.096.709 1.149.056.66zM66.27 192.145c.273.94-.778 1.547-1.26 2.221-.395.475-1.438.804-1.493.16-.93.03-1.426 1.152-2.359 1.164-.673-.64.14-1.047-.99-.912-1.462-.028.024-1.843.129-1.101-.786-.714.139-1.135.874-1.115.936-.177 1.873-.434 2.82-.436.145.78-1.305.348-1.84.65-.394.37-2.493.015-1.531.622.522.694-1.575.581-.285.996.817-.291.986.644.95.88.86-.29 1.458-1.4 2.474-1.124.273.642.204.312.726.073.592-.419 1.079-1.12 1.45-1.672-.158-.272.006-.822.334-.406zM56.116 162.945c1.574 1.14-1.447.29 0 0zM63.567 157.004c-.358 1.532-.717-.638-.116.491-.912 1.045-.25-1.585.116-.49zM65.698 157.637c.76-1.297.51 1.321.085-.104.486.198.292.047-.084.103zM24.339 171.796c1.446.96 1.394 2.818 1.18 4.335.185.796-.978 2.283-.39.747.252-1.272.46-2.722-.087-3.948-.063-.358-1.383-1.125-.703-1.134zM21.998 175.358c-.712-.051-2.228.634-.831-.204.209-.108 1.392-.12.83.204zM20.675 175.666c.956-.103.602.473-.077.167-.088.01.077-.234.077-.167zM8.547 175.62c.347-.657 2.055.214 1.043.065-.27-.296-1.301.496-1.043-.065z"/>
        <path d="M8.623 175.745c1 .034.3.583.27.223-.151.141-.608-.08-.27-.223zM5.974 169.907c.227.406 1 .344.02.452-.277-.046-.385-.829-.02-.452zM15.7 171.323c.026.59 1.136.379-.02.617-.334-.082-.289-1.162.02-.617zM13.47 187.116c-.656.205.483.86 0 0zM139.653 2.464c-11.834 4.127-21.196 12.77-30.893 20.365-6.508 6.986-12.895 14.174-17.048 22.849-8.85 13.831-11.653 30.441-13.928 46.426-1.193 10.001-.335 19.972 1.457 29.789-.217 6.66-2.305-6.865-2.097-8.932-2.044-10.15-.465-20.756 1.277-30.859 1.987-13.923 6.236-27.754 13.97-39.586 4.05-8.01 10.314-14.633 16.509-21.032 8.464-6.606 16.601-14.18 26.658-18.3.702.163 5.233-3.15 4.095-.72z"/>
        <path d="M139.733 1.118c7.358-3.288 21.574.773 17.359 10.875-.132 3.79-10.012 10.318-3.663 3.957 7.796-6.417.67-16.924-8.36-14.832-.822-.562-6.825 2.401-5.336 0z"/>
        <path d="M150.667 19.338c-7.025 6.171-11.23 14.584-15.202 22.897-8.772 16.223-13.306 34.598-14.332 52.94.87 3.978.034 15.213-.729 4.682-.848-13.098 2.375-26.136 5.859-38.684 4.304-12.429 10.26-24.182 17.023-35.421 1.139-.173 7.175-9.608 7.381-6.414zM79.081 133.699c-.94-6.85-4.51-16.238-12.985-15.382-10.189-.145-17.312 8.11-25.23 13.153-3.903 1.095-16.407 7.107-5.439 7.49 12.47 1.395 24.474-3.781 35.562-8.854 2.825-3.105 10.25-4.163 2.792-.682-8.63 5.338-18.63 8.462-28.536 10.47-4.376 1.075-22.055.709-12.389-5.874 6.581-2.491 12.328-6.361 17.69-10.889 6.973-5.714 22.043-10.022 26.215.903.942 1.455 5.405 10.56 2.32 9.665z"/>
        <path d="M77.592 116.89c-4.38-3.076-12.625 2.396-15.143.554 3.12-1.308 15.525-4.147 15.143-.555zM79.483 122.618c3.517-6.348 6.394-15.21 15.019-15.732 9.416-3.292 19.614-.697 28.665 2.48 7.46 7.962 4.074 19.905 8.104 29.333 1.125 11.44.57 23.004.471 34.502-2.684 10.018-.352-9.563-.672-12.266-.48-9.079.829-18.451-2.186-27.186-2.119-7.941-.043-18.228-7.092-24.01-9.305-2.81-19.453-5.193-28.874-1.403-7.927.578-8.936 11.398-13.425 14.703l-.01-.421z"/>
        <path d="M129.57 176.841c-6.821-2.268-4.778-13.629-9.281-19.08-2.597-8.567-6.5-16.546-10.455-24.572-3.776-7.234-8.193-17.938-17.455-18.497-4.551-1.25-10.352 8.81-11.047 6.455 4.762-9.135 17.695-9.48 22.62-.213 5.815 8.415 9.566 18.07 14.037 27.216 2.41 9.046 7.423 17.162 9.057 26.444-.154 1.949 4.24.582 2.523 2.247zM79.301 124.32c-.459 2.736 1.583 13.934-.836 5.621-.112-.629-1.123-7.74.836-5.621zM120.875 104.106c8.65-5.292 21.53-2.012 25.372 7.72 6.062 7.748 9.825 17.3 17.431 23.783 3.57 5.519 11.963 7.85 14.601 12.955-8.338 4.967-19.424 1.587-27.654-2.405-8.103-4.555-15.03-10.999-21.698-17.38 4.124 1.011 11.74 10.328 17.306 13.65 8.682 5.775 20.007 9.573 30.251 6.354-1.69-4.651-12.713-9.54-16.752-15.776-5.342-5.802-8.688-13.188-13.455-19.455-3.536-9.201-15.067-14.016-23.85-9.058-2.02 2.13-1.487.419-1.552-.388z"/>
        <path d="M116.214 146.873c1.257 8.312-2.31 16.231-2.474 24.436-2.125 6.23-.514-8.323.436-10.204 1.935-3.61.084-13.262 2.038-14.232zM80.06 133.936c-.708 9.21 3.496 17.562 4.441 26.475-.879 3.019 5.325 14.68 2.197 12.852-3.542-8.378-2.654-17.725-6.458-26.012.437-2.633-2.954-13.759-.18-13.315z"/>
        <path d="M85.212 174.233c8.826.122 18.554 3.222 26.798-1.303 7.827-.356-1.419 14.315-7.753 11.977-8.098 1.486-21.448.686-20.43-10.47 1.935 4.206 3.653 10.975 10.967 9.862 6.815.292 17.69.611 18.814-8.301 1.887-6.303-8.743 3.142-12.261.29-4.146-.768-14.656.457-16.135-2.055z"/>
        <path d="M112.367 181.186c2.772 4.842 7.692 14.065-2.336 11.357-3.934-.427-4.195-13.398-1.716-4.117-.857 4.606 10.967 4.931 6.272.752.84-1.875-4.75-8.336-2.22-7.992z"/>
        <path d="M105.837 185.067c4.604 6.33-1.23 14.28-6.522 7.766-1.608-4.565-.277-12.516.563-3.266-2.176 5.94 10.143 6.481 6.202.276.343-.39-2.558-6.718-.243-4.776zM93.467 185.04c.9 6.074-7.487 12.45-8.643 5.281.769-3.95 4.469-9.89 1.941-2.146-4.94 5.79 6.973 5.803 4.851-1.11.128-.519 1.382-4.403 1.851-2.024zM103.4 34.677c-5.416 6.468-9.556 13.899-13.598 21.247-3.304 7.256-5.107 14.973-6.392 22.715-2.795 4.703 1.312-7.183.538-9.006a89.91 89.91 0 0 1 10.218-23.418c2.406-2.734 6.776-12.66 9.235-11.538zM103.665 108.483c7.883.686 10.145 11.316 12.575 17.669-.068 4.427 4.037 12.075 3.146 14.364-4.245-7.062-2.87-16.13-7.569-23.051-.942-4.734-6.45-7.99-8.152-8.982zM114.689 110.69c4.985 6.41 8.593 15.126 7.46 23.037-1.46-7.127-2.454-16.378-8.236-22.409-.483-.497.39-1.205.776-.628zM121.89 104.628c.289 7.441-3.593 4.77 0 0zM125.804 113.741c4.986-9.797 17.305-3.666 20.15 4.597 5.056 7.138 9.35 14.885 17.087 19.63 2.509 4.752 11.846 7.865 13.095 10.103-8.485-1.905-13.108-9.899-19.989-14.453-6.26-6.306-10.064-14.466-15.745-21.332-5.156-5.933-11.978-.698-14.598 1.455zM13.5 165.438c-.24-.534-.365-.627-.543-.897-.207-.318-.489-.592-.749-.872-.528-.693-1.16-1.323-1.935-1.736a4.908 4.908 0 0 0-1.718-.523c-.397-.075-.789-.192-1.196-.196-.301-.024-.64-.03-.894.082-.372.156-.764.248-1.122.427-.387.127-.69.412-1.018.643-.298.183-.36.689-.118.892.38.226.824-.02 1.179-.187.325-.141.591-.412.963-.44a9.129 9.129 0 0 1 1.634-.191c.536.012 1.063.17 1.51.469.371.184.72.424.932.792.297.404.644.768.964 1.15.222.22.428.508.699.696.314.21.45.686.702.96.137.43-.442.338-.53.027-.353-.45-.797-.886-1.132-1.355-.27-.277-.497-.59-.757-.878-.275-.324-.446-.693-.831-.892-.434-.249-.874-.525-1.39-.543-.396-.024-.794.034-1.187.08-.398.081-.852.082-1.162.387-.47.22-.976.52-1.514.408-.45-.062-.703-.549-.64-.972.032-.54.541-.842.946-1.107.28-.245.612-.291.877-.461.407-.095.777-.33 1.191-.388.36-.054.719-.017 1.08.007.435.064.858.193 1.296.243.38.072.75.2 1.108.344.263.117.61.3.871.502.588.4 1.078.924 1.508 1.487.274.294.573.585.79.92.216.337.38.616.568.966.085.248-.278.377-.383.157zM23.738 167.146c-.09-.345-.168-.722-.035-1.068.217-.375.594-.692 1.04-.724.331-.036.721-.096.992.152.242.12.402.329.537.552.06.387-.464.292-.517-.013-.214-.224-.502-.359-.817-.297-.233.02-.476.082-.636.246-.213.17-.286.387-.25.659-.009.222.257.6-.098.664-.104.01-.196-.07-.216-.17zM27.436 167.722c-.106.275.071.55.076.828.078.258.12.55.106.837-.007.34-.068.694-.283.971-.152.259-.433.396-.68.54-.415.192-.88-.059-1.16-.369-.282-.242-.39-.611-.568-.92-.22-.237.155-.625.34-.315.066.269.244.495.35.75.145.19.332.372.554.462.287.15.537-.149.752-.292.297-.317.294-.778.268-1.187-.075-.333-.138-.67-.195-1.004-.025-.226.025-.708.36-.536.077.049.104.15.08.235z"/>
        <path d="M25.272 169.232c-.01.109-.004.218-.003.326 0 .09.003.18.002.27.007.08-.003.16.004.24.002.07-.003.141 0 .212 0 .077-.015.152-.026.228-.02.07-.02.148-.058.212-.013.06-.047.11-.069.166-.02.044-.048.085-.062.13-.036.074-.079.142-.119.213l-.016.025c-.011.022-.02.045-.03.067-.016.028-.041.055-.045.087-.04.055-.066.12-.115.167a.904.904 0 0 0-.09.106c-.041.06-.1.102-.153.15-.013.013-.033.018-.042.035-.211.211-.509-.088-.297-.299a.634.634 0 0 1 .078-.066c.03-.026.052-.04.071-.075.027-.021-.012.01.04-.053.012-.015.049-.042.057-.06.008-.008.019-.014.026-.023.016-.02.025-.044.044-.064.032-.068.077-.13.11-.198.033-.056.062-.115.091-.172.024-.055.05-.108.071-.162.005-.008.008-.017.014-.025 0 0 .003.003.004.002.016-.033.021-.061.037-.092.003-.008.01-.014.012-.022.01-.033.01-.068.028-.098.003-.06.023-.118.023-.179a4.391 4.391 0 0 1 0-.212c.004-.08-.003-.16.001-.239-.004-.044.002-.082.004-.127.002-.048-.008-.095-.003-.143.01-.109-.003-.217-.001-.326 0-.292.413-.292.413 0z"/>
        <path d="M24.435 171.739c.006.009.011.02.018.028l.074.074c.041.042.077.086.116.13.065.07.115.15.169.229.053.055.088.126.143.18.061.05.11.116.161.177.064.063.092.147.131.225.025.07.052.14.08.208.024.066.057.127.084.19.04.07.079.145.099.222.032.066.044.14.077.207.027.073.049.148.073.222.026.074.052.148.071.225.03.068.031.144.051.215.022.078.032.16.034.241 0 .071.003.142.002.214-.005.069.005.138-.002.207 0 .084.003.169-.004.253-.02.08-.016.165-.032.247-.02.079-.037.158-.05.24-.01.076-.024.154-.049.228-.004.051-.032.096-.043.145-.014.057.006 0-.013.05-.023.068-.032.137-.049.205-.006.059-.038.116-.048.172-.012.052-.038.1-.04.153-.006.06-.028.116-.035.176-.01.054-.006.11-.009.165.005.09-.035.17-.06.254-.04.075-.077.15-.123.221-.043.062-.082.126-.134.181-.045.04-.077.09-.121.13-.016.03-.048.048-.072.072-.002.002-.005.006-.003.007.002.002.003-.004.005-.006l-.022.03c-.18.242-.521-.013-.341-.254a.06.06 0 0 0 .01-.007c.037-.058.08-.095.127-.144.018-.01.027-.03.04-.044.023-.024.049-.043.067-.07.006-.007.015-.01.02-.016.028-.032.045-.071.071-.105.034-.05.07-.097.088-.155.014-.03.019-.069.031-.098.003-.075-.002-.15.012-.223.008-.062.025-.12.036-.18.01-.073.03-.142.05-.212.018-.06.002-.011.02-.056.012-.03.004-.07.027-.097a1.53 1.53 0 0 1 .048-.194c.02-.07.043-.141.062-.213.017-.064.034-.128.043-.194.007-.079.036-.153.046-.23.01-.037.008-.07.01-.107.003-.04.017-.078.018-.118.008-.069 0-.138.002-.207a7.569 7.569 0 0 1 0-.207v-.194a.927.927 0 0 0-.022-.165 3.925 3.925 0 0 0-.045-.193c-.021-.07-.037-.14-.063-.208-.019-.071-.055-.137-.072-.208-.032-.067-.049-.14-.07-.211a3.011 3.011 0 0 0-.094-.195c-.03-.074-.072-.143-.1-.218-.018-.067-.054-.126-.072-.193-.024-.038-.036-.082-.065-.119-.049-.057-.095-.116-.148-.17-.061-.07-.116-.145-.173-.22-.051-.063-.094-.133-.142-.2a1.785 1.785 0 0 0-.228-.227c-.188-.232.14-.498.328-.266zM24.415 167.483c.208-.249.478-.527.834-.49.294-.004.416.292.53.509.077.376-.455.316-.482-.006-.033-.212-.332-.013-.446.1-.07.28-.54.323-.483-.027-.009.02.048-.121.047-.086z"/>
        <path d="M26.995 164.557c-.187.55-.201 1.157-.497 1.668-.199.6-.301 1.232-.557 1.814-.06.388.256-.027.34-.155.22-.187.35-.446.391-.732.033-.223.22-.591.487-.442.284.09.695-.18.573-.498-.328-.292.144-.466.294-.676.127-.21-.287-.606.067-.667.27.034.344.382.284.61-.06.26-.196.57-.488.622.018-.127.092-.286.156-.071.195.27.045.582-.148.802-.18.21-.497.31-.755.187-.173.191-.16.488-.283.713-.113.227-.32.384-.47.586-.153.172-.43.37-.647.187-.268-.224-.153-.613-.027-.882.209-.453.247-.961.424-1.426.107-.356.343-.668.358-1.05.046-.29.057-.68.37-.815.098.02.159.132.128.225z"/>
        <path d="M26.762 164.429c.039-.612.459-1.086.757-1.589.35-.34.566-.776.772-1.21a5.037 5.037 0 0 1 1.062-.987c.482-.244.925-.616 1.484-.652.384-.047.78-.04 1.165-.009.575.152 1.218.334 1.587.835.14.347.232.705.405 1.04.147.366.247.753.204 1.15.021.473.003.946-.064 1.414-.045.55-.144 1.094-.183 1.647-.03.827-.409 1.595-.453 2.422-.183.396-.06 1.13-.503 1.27-.277-.217.05-.627.056-.93.158-.457.124-.95.283-1.409.138-.529.293-1.058.292-1.61.08-.674.162-1.348.226-2.023-.044-.542.097-1.117-.134-1.63-.192-.415-.29-.893-.531-1.27-.385-.323-.896-.5-1.393-.576-.593-.003-1.244-.042-1.741.344a3.9 3.9 0 0 0-1.12.786c-.447.33-.515.927-.885 1.32-.32.37-.585.789-.813 1.222-.12.214-.121.916-.468.526l-.005-.083z"/>
        <path d="M28.06 164.68c.093-.426.393-.746.623-1.1.241-.336.434-.739.842-.905.637-.375 1.193-1.034 1.99-1.019.449-.042.947.102 1.177.52.268.433.202.968.22 1.453-.034.384-.216.734-.242 1.121-.057.375-.076.83-.114 1.157-.068.572-.181 1.136-.274 1.704-.146.551-.107 1.158-.396 1.667-.313.314-.435-.184-.212-.374.142-.46.149-.944.276-1.41.115-.762.283-1.516.32-2.289.031-.508.125-1.01.282-1.494-.02-.495.094-1.088-.272-1.486-.355-.325-.945-.263-1.35-.064-.514.268-.931.684-1.448.948-.299.283-.49.666-.73 1-.313.164-.253.98-.673.72.003-.014-.069-.136-.02-.149zM12.924 173.198c.052.184.184.335.244.517.083.189.162.386.197.593.04.184.033.364.06.548.018.406 0 .812.009 1.218-.011.243-.06.482-.076.725-.042.269-.104.544-.261.771-.06.181-.208.333-.338.446-.113.131-.256.448-.46.252-.124-.168.075-.323.16-.454.135-.132.28-.26.346-.444.12-.19.172-.416.204-.639.016-.2.05-.41.072-.613-.003-.411.006-.822-.004-1.233-.027-.16-.028-.322-.05-.482a3.106 3.106 0 0 0-.259-.725c-.064-.173-.301-.405-.11-.569.095-.066.231-.015.266.089zM13.33 187.316c.48 1.437-.343 2.862-.563 4.27-.118.316-.194 1.87-.58 1.096.152-.888.332-1.786.61-2.655.417-.887.226-1.989.296-2.816.096-.047.205.014.237.105z"/>
        <path d="M12.408 192.704c.553.137 2.483.061 1.537 1-.601.272-.504 1.966-1.533 1.21-.336-.367-.368-.864-.589-.094-.466.848-1.094.04-1.208-.497-1.055.667-1.659-.867-.423-1.077.548-.456.964.292.144.32-.73.08-.647.833.057.444.853-.443.473 1.133 1.07.757.099-.794.958-.889 1.171-.127.766.396.359-1.363 1.256-1.325-.257-.272-2.092.043-1.563-.63l.081.02zM18.273 187.091c-.163.863-.842 1.514-1.196 2.263.419.682 1.257 1.025 1.847 1.575.379.387 1.297 1.072.978 1.607-.511-.375-.795-1.185-1.422-1.542-.628-.399-1.249-.82-1.694-1.429-.133-.795.785-1.373 1.01-2.11.035-.23.302-1.011.477-.364z"/>
        <path d="M17.82 192.714c.05.46-1.567.849-.727.948.625-.174 1.302-.384 1.668.324.634.531.38-.91 1.059-.463.552.614.778-.029.68-.419.435.093 1.18-.614.361-.532-.556.413-1.395-.367-.445-.302.803-.518 1.79.705.69 1.012-.671.39-.21-.437-.234.32.015.962-1.3.283-1.245.236-.173 1.013-1.293.403-1.596-.054-.505.505-2.18.174-1.294-.614.41-.008.999-1.164 1.083-.456zM28.876 184.205c-.567.896-1.272 1.687-1.873 2.555-.667.741-.545 1.827-.195 2.684.162.825.157 1.723.494 2.49.211.853-.79-.187-.558-.679-.213-.895-.229-1.81-.544-2.684-.125-.565.046-1.154.254-1.673.678-1.004 1.531-1.87 2.152-2.917.142-.196.437.05.27.224zM34.604 181.905a37.59 37.59 0 0 1-3.079 4.76c-.521.506-1.076 1.295-.442 1.969.642.873 1.162 1.925 2.133 2.47.566.252.479 1.243-.076.454-.542-.486-1.2-.895-1.525-1.597-.51-.614-1.055-1.307-1.191-2.107.093-.74.732-1.255 1.156-1.826.991-1.406 1.973-2.833 2.77-4.358.153-.125.36.08.254.235zM33.593 158.875c-.783.756-1.77-.446-.937-1.08.685-.914 1.932-.846 2.953-.853 1.084.003 2.08.46 3.043.91.874.578 1.275 1.605 1.967 2.357.645 1.09 1.331 2.245 1.359 3.546.149 1.357.072 2.723.132 4.083-.025 1.25-.278 2.485-.523 3.707-.334 1.046-.778 2.072-1.501 2.909-.593.778-1.012 1.664-1.64 2.416-.614.807-1.229 1.775-2.285 2.023-.548-.47.947-.557 1.09-1.075.682-.831 1.36-1.676 1.893-2.612.639-1.01 1.502-1.892 1.853-3.062.468-1.143.547-2.391.73-3.6.081-1.114-.048-2.234-.004-3.352-.085-1.187-.038-2.462-.707-3.507a7.37 7.37 0 0 0-1.148-1.864c-.543-.72-.979-1.651-1.922-1.909-.89-.418-1.856-.682-2.846-.613-.852-.002-1.895.095-2.336.949-.324.76.578.307.874.376.063.077.037.205-.045.25zM70.848 180.88c.305.55.499 1.154.827 1.693.277.534.691.98 1.004 1.492.487.432.434 1.082.54 1.665.027.607.108 1.21.074 1.82.014.869-.317 1.69-.423 2.545-.092.492-.303.947-.402 1.433-.576.195-.166-.728-.072-1.003.213-.78.323-1.585.51-2.372a9.255 9.255 0 0 0-.03-2.096c-.071-.532-.012-1.15-.344-1.595-.29-.4-.639-.93-.96-1.37-.345-.56-.6-1.169-.864-1.769-.233-.19-.27-.758.14-.443z"/>
        <path d="M70.985 192.162c.436.282.967.39 1.444.594.536.083 1.032.299 1.543.454.476.164 1.189.231 1.546.221-.016-.15-.645-.785.01-.791.693-.122 1.431-.099 2.065-.436.02 0-.726-.355-.441-.728.294-.354-.613-.16-.785-.327-.018-.57-.488-.308-.84-.142-.64.196-1.316.16-1.964.308-.446-.111-1.09.474-1.37.072.327-.444 1.062-.333 1.571-.46.664-.136 1.385-.073 2.003-.403.315-.308 1.008.139.82.345.358-.018 1.02.033 1.002.556-.416.373.377.36.38.795-.151.461-.772.5-1.177.605-.35.012-1.116.223-1.243.123.047-.345.613.741.068.82-.878.065-1.743-.175-2.55-.501a8.994 8.994 0 0 1-2.171-.747c-.325-.075-.227-.56.09-.358zM65.312 163.252c.411.52.822 1.042 1.18 1.602.73.954 1.682 1.686 2.565 2.487.764.894 1.456 1.845 2.28 2.687.68.883.892 2.017 1.25 3.05.296.929.428 1.909.4 2.881-.146.65-.228 1.309-.28 1.968-.135.628-.45 1.185-.761 1.73-.446.459-.378-.474-.038-.637.302-.56.532-1.19.502-1.835.107-.737.34-1.475.19-2.225-.085-1.274-.581-2.461-.965-3.666-.202-.631-.599-1.165-1.089-1.601-.655-.75-1.241-1.563-1.92-2.291-.93-.8-1.903-1.574-2.596-2.6-.302-.51-.717-.938-1.05-1.422-.043-.194.232-.298.332-.128z"/>
        <path d="M61.18 156.946a2.897 2.897 0 0 1 2.838-.59c.97-.206 2.084.003 2.79.752.968 1.638.387 3.805-.907 5.093-.248.76-1.577 1.297-.782.417.756-.896 1.577-1.802 1.765-3.005.133-.982.047-2.438-1.104-2.765-.883-.42-1.832-.036-2.751-.268-.588-.357-2.019 1.267-1.85.366zM80.632 158.782c-1.526.747-2.542 2.222-4.006 3.08-1.419 1.462-3.102 2.65-4.906 3.584-.782.609-1.742.942-2.634 1.362-.961.478-1.014-.284.007-.388.972-.394 1.923-.864 2.785-1.468 1.715-.865 3.238-2.069 4.6-3.414 1.467-.859 2.466-2.337 4.006-3.08.216-.122.379.242.148.324zM80.542 156.59c-.943.8-1.625 1.89-2.611 2.627-1.205.814-2.305 1.8-3.398 2.743-.895 1.003-2.257 1.435-3.43 2.039-1.231.334-2.356 1.04-3.638 1.17-.843.256-1.546-.429-.939-.312.866.076 2.43-.347 3.47-.838 1.423-.428 2.73-1.161 3.977-1.948.98-1.106 2.246-1.929 3.367-2.898.885-.428 1.413-1.29 2.099-1.959.143-.168 1.266-1.524 1.103-.623z"/>
        <path d="M80.3 156.233c.906-.368.433-2.8 1.767-1.975.65.726.276 2.389-.356 2.65-.102-.708.993-2.372-.235-2.38-.194.641-.4 2.187-1.217 1.843l.041-.138z"/>
        <path d="M81.842 156.798c1.479-.11 1.194 2.388-.237 1.785-.408.208-1.676-.004-.605-.295.974.492 2.3-.856.77-1.128-.268-.093-.233-.443.072-.362zM81.564 148.114c2.343.176 4.621-.491 6.912-.858 1.08-.3 2.146-.666 3.249-.867.903.617.193 2.031.398 2.962.06 1.081.34 2.144.394 3.219-.881.342-2.036.005-2.998.374-1.567.42-3.148.81-4.767.967-.436.177-2.108.532-1.433-.01.03.762-.498-.435.301-.055 1.583-.467 3.263-.46 4.843-.962 1.203-.334 2.441-.614 3.694-.49.058-.162-.278-1.65-.275-2.254-.249-1.105.112-2.268-.16-3.357-.6.006-1.403.33-2.061.487-1.566.484-3.203.654-4.804.984-.938.152-1.872.252-2.823.198-.243.127-1.028-.059-.47-.338z"/>
        <path d="M87.889 149.342c-.019.367.059 1.642-.193 1.071.617-.238 2.153-.753 1.853.453.527 1.123-.986 1.064-1.692 1.167-.49-.502.38-.282.235-.267-.65-.286 1.579-.008 1.17-.464-.215-.653.34-1.112-.589-.792-.49.037-1.453.65-1.127-.312.027-.218-.147-1.537.343-.856z"/>
        <path d="M87.854 148.856c.35-.108 1.727-.226.962.252-.233-.05-1.59.351-.962-.252zM89.882 148.422c.722.051 1.99-.386 1.678.837.67 1.02-1.448.982-1.432.838.255.375-.164 1.579.375 1.416.33-.038 1.656-.306.99.215-.833.294-1.87.224-1.642-.928-.524-1.133.688-1.056 1.443-1.084-.327-.106.27-1.362-.358-.978-.269-.007-1.708.223-1.054-.316zM85.168 149.064c.782-.518 1.993.199 1.318 1.046-.777.332-1.865-.187-1.186-1.014.52.252-.238 1.13.675.691.81.292.125-.978-.508-.454-.218.22-.641-.071-.3-.27zM85.526 151.133c.804-.458 1.452-.095 1.371.83 0 .795-1.92.716-1.476-.332-.273-.866.608-.425.364.262-.255.477.893.095.764.107-.106-.7.064-.934-.74-.584-.235.231-.65-.114-.283-.283zM82.92 149.413c.618.104 2.061-.598 1.602.635-.26.765.226 1.828-.167 2.429-.513-.705-.147-2.213-.086-2.893.269.048-2.312.455-1.35-.171zM14.93 167.2c.049.104.132.185.187.285.121.163.23.335.336.509.063.09.11.191.164.287.07.123.12.256.164.39.027.116.117.224.079.348-.044.142-.26.177-.345.055-.12-.212-.146-.466-.282-.67a5.398 5.398 0 0 0-.239-.393c-.067-.09-.115-.193-.18-.285a3.051 3.051 0 0 0-.229-.326c-.06-.104-.004-.252.113-.286.085-.03.186.01.232.087z"/>
    </g>
    <path d="M89.975 154.117c-.977.591.213 1.93 1.067 1.31 1.01-.219.928-1.446-.069-1.442-.379-.26-1.79.527-1.242-.218.855-.47 2.878-.046 2.348 1.258-.52.739-1.588 1.132-2.399.626-.894-.385-.13-2.41.357-1.59l-.062.055z"/>
    <path d="M90.674 154.532c-.43.29.495-.008-.13-.07.175-1.041 1.198.887-.07.534-1.015-.23.599-1.36.2-.464zM87.073 158.682c1.367.037 2.68-.435 4.038-.449.325.886-.078 2.088.246 3.077.013 1.17.438 2.34.272 3.499-.913.254-1.923.232-2.865.437-1.088-.039-.809-1.63-1.232-2.407-.237-1.11-.638-2.174-.812-3.292-.551-.528.407-1.172.56-.527-.655.371-.28-.412-.211.47.201 1.17.577 2.305.874 3.457.135.548.386 1.747.552 1.9.783.074 1.602-.229 2.407-.239.924.308.192-1.049.283-1.719a34.684 34.684 0 0 1-.32-3.292c-.155-.615.536-1.361-.444-.97-1.134.158-2.269.398-3.418.398-.188-.07-.115-.352.07-.343z"/>
    <path d="M88.316 159.674c.204.333.853 1.947.125 1.404.145-.306-.998-1.844-.125-1.404z"/>
    <path d="M88.116 159.4c.862-.177 1.636-.091 1.44.993.383.585.317 1.18-.587.932-1.1-.15.956-.707.515-.166-.425-.34-.271-1.623-.366-1.437-.226-.093-1.636.252-1.002-.322z"/>
    <path d="M89.598 159.947c1.222-.122.411 1.599.748 2.301.821.908-1.233.984-1.328.412.22-.388-.495-1.986.22-1.478.398.518-.358 1.921.653 1.424.747.235.002.093.08-.536-.326-.648.484-2.028-.503-1.82-.117-.109-.02-.316.13-.303zM93.43 167.54c-.78 1.097 1.788.933.644-.01-.287-.182-1.138.033-.535-.47.942-.282 1.738 1.381.59 1.629-.908.387-1.716-1.118-.761-1.4.096.046.116.173.062.252zM91.58 167.4c-1.145-.096-1.024 1.353.107 1.07.536-.263-.25-1.187-.695-1.081.244-.937 1.698.618 1.16 1.26-.706.621-2.505-.326-1.543-1.189.114-.402 1.68-.636.97-.06zM88.801 167.945c-1.44.454.954 1.964.912.638-.105-.728-1.82-.25-.928-.861 1.027-.281 1.97 1.59.59 1.714-1.207.367-2.017-1.646-.586-1.843.199.022.2.317.012.352zM89.063 170.562c-.153 1.42-.704-.818 0 0zM89.072 169.909c1.033-.291.315.79-.16.2-.02-.103.065-.192.16-.2zM89.275 170.983c-.002.496.005.546 0 0z"/>
    <path d="M89.32 170.422c.783-.585.86.443.075.251l-.051-.099zM91.183 170.009c.215.355.2 1.761-.196.906.014-.234-.428-1.47.196-.906z"/>
    <path d="M90.647 170.792c1.471-.313-.486.952 0 0zM90.562 169.704c.443-.271 1.337.261.484.324-.238.134-1.04-.033-.484-.324zM92 169.85c.05.274.372 1.369-.167.846-.126-.212-.374-1.497.166-.846zM92.908 170.092c.12.428-.205 1.23-.382.416-.13-.272.217-1.021.382-.416z"/>
    <path d="M92.472 169.502c.416-.194 1.438.19.557.31-.231.04-1.146.098-.557-.31zM94.565 169.55c.234.775-.624.556-.318-.104.099-.127.317-.049.318.105zM94.564 170.146c1.272.08-.696.744 0 0zM85.62 155.003c-.912.415.944.884.876.144-.345.017-1.726-.53-.622-.623.911-.096 1.517 1.071.443 1.402-.997.517-2.134-1.142-.712-1.344.233.027.244.376.015.42z"/>
    <path d="M87.1 155.01c.236.27.962 1.479.16 1.054-.198-.23-1.047-1.505-.16-1.054zM85.472 155.492c.606.315.344 1.793-.056.762-.113-.258-.712-1.121.056-.762z"/>
    <path d="M87.564 156.076c.102 1.067-2.114 1.368-2.165.259.406-.434.635.69 1.272.189.618.237.379-1.289.893-.448zM94.832 153.503c-.767.671-.652 2.334.493 2.514.88.253 2.141-.178 2.098-1.26-.125-.753-.745-1.672-1.645-1.451-.576-.386-1.784 1.091-1.5.005.78-.604 2.266-.698 2.965.1.676.738.916 2.04-.032 2.672-.983.754-2.843.53-3.22-.784-.46-.589.584-2.858.84-1.795z"/>
    <path d="M96.188 153.488c.13.424-.346 1.658-.517.81.015-.28.098-1.674.517-.81z"/>
</svg>
