<svg xmlns="http://www.w3.org/2000/svg" viewBox="0 0 22.489584 26.458333" height="100" width="85">
    <path d="M7.006 19.004l.065-4.139 2.684 2.134 3.104-2.263-.097 4.235s.29.259.582 0c.29-.258.258-1.002.258-1.002l-.032-4.074s-.259-.614-.55-.582c-.29.032-3.007 2.49-3.136 2.457-.13-.032-3.427-2.392-3.427-2.392l-.485.194v5.173c.403.848.714.49 1.034.259z" fill="#f14336" fill-rule="evenodd"/>
    <path d="M20.974 18.745c.318.017.759-.336.84.388l.292.614-1.1.744c.005-.487.047-1.093-.032-1.746zM19.454 20.911c-.255.608-.39.977-.388 1.067-.368.143-.547.095-.485-.194l.55-1.26z" fill="#d40000" fill-rule="evenodd"/>
    <path d="M13.669 14.365c.119 1.338-.07 2.678.052 4.007-.714-.048-.22-1.516-.331-2.138.228-.487-.426-1.94.279-1.869zm-.863 4.534c.573.27.56-.373.68-.61.923.084-.703 1.786-.68.61zm.106-3.957c.053 1.387-.05 2.78.016 4.156-.663.24-.258-1.14-.297-1.564.145-.793-.392-2.3.282-2.592zm.586-.57c-1.053 1.024-2.362 1.714-3.517 2.612-.382-.556 1.05-.909 1.383-1.36.738-.297 1.486-1.362 2.071-1.326l.063.073zm-3.846 1.396c1.013-.683 1.909-1.518 2.928-2.192.951-1.278 1.499 1.297.78.578.276-.482-.294-.756-.566-.347-1.032.663-1.922 1.509-2.94 2.196l-.202-.235zm-3.468-1.885c-.087 1.563.02 3.125.05 4.684-.647-.142-.18-1.534-.383-2.167.07-.811-.151-1.88.132-2.517h.201zm.963 5.33c-.57.445-.982.143-1.138-.231-.135-.324-.05-.66.201-.381-.104.604.344.462.673.347.138-.048.258.07.264.264zm-.038-4.181c-.07 1.39.002 2.8.084 4.19-.754-.13-.186-1.799-.408-2.513.155-.378-.382-1.996.324-1.677zm-.938-1.266c.101.46-.277.28-.221-.03.022-.125.025-.246.198-.407.274-.134.765-.014.416.307-.24-.142-.329-.074-.393.13zm.852 1.07c.862.528 1.551 1.27 2.465 1.726 1.05.992-.54.13-.997-.244-.347-.425-1.735-1.005-1.468-1.482zm-.369-1.483c.822.652 1.67 1.26 2.526 1.862.436.124 1.054 1.081.302.639-.98-.802-2.053-1.46-3.03-2.266l.202-.235zM20.011 22.85c.21-1.03 1.097-1.925.909-3.042.147-1.021-.877-1.557-1.172-2.432-.528-.871-1.465-1.413-1.993-2.303-.5-.773-1.75-1.165-2.17-1.773.498-.192 1.418.74 1.921 1.121.774.757 1.414 1.652 2.24 2.365.39.915 1.211 1.584 1.47 2.54.187 1.197-.312 2.303-.887 3.324.143.323-.185.162-.318.2z"/>
    <path d="M15.452 13.414c-.764-.978-1.98-1.816-3.191-1.895-.967.173-1.232-.705-.162-.276 1.447-.04 2.805.919 3.642 2.05l-.29.12z"/>
    <path d="M11.22 11.438c-1.05.007-2.102.1-3.156.026-.666.05-1.13.678-.41 1.111.778.284 2.058.173 1.07 1.086.548.123.832.559.972 1.03-.03.057-.955-.408-.666-.709-.777.393-.701-1.225-.138-.86-.776.07-2.095-.284-1.88-1.302.462-.959 1.63-.502 2.472-.647.441.092 1.739-.283 1.737.265z"/>
    <path d="M1.55 10.114c-.337-.61-1.436-1.208-1.347-2.1-.14-1.165.55-2.32 1.836-1.774 1.501.19 2.377 1.574 3.49 2.41 1.744.807 3.733 1.092 5.34 2.212.34.083.293.137.17.401-1.588-.99-3.386-1.536-5.163-2.091-1.5-.639-2.265-2.57-4.06-2.646-.426-.07-1.186-.219-1.137.44-.518 1.168.333 2.407 1.248 3.09M4.021 15.495c-.107 1.168.027 2.473 1.033 3.28.867.937 2.135 1.058 3.197 1.628.649.391 1.056.912 1.55 1.464 1.117.653 2.931.075 3.335-1.205.715.55-.885 1.582-1.532 1.662-1.012.389-2.297-.035-2.675-1.082-.744-.406-1.377-1.047-2.277-1.11-1.656-.67-3.375-2.295-2.866-4.25-.117-.384-.08-.295.235-.387z"/>
    <path d="M20.018 22.778c-.283-.765-.548-1.61-1.09-2.228-.76-.634-1.707-.87-2.683-.746-1.01-.042-1.934.396-2.666 1.065-.651.596-.745-.132-.032-.353 1.124-1.126 2.857-1.167 4.327-.913.816.358 1.698.847 1.904 1.796.13.353.815 1.227.24 1.379zM20.97 20.564c.06-.434 1.307-.785.966-1.136-.684-.217-.1-.827-.95-.505-.185-.618 1.431-.431.827.208.497-.214.79.867.014 1.063-.407.081-.467.73-.856.37zM20.07 20.44c1.348-.33-.546 1.282-.004.013.357.159-.036.33.323.186-.18.201-.216-.124-.318-.198zM20.603 19.942c-.381-.197-1.474.31-.582-.372.273-.243 1.249.128.582.372z"/>
    <path d="M19.437 21.166c.243.945-1.126 1.653-.982.292.104-.143.364-.506.423-.575.14-.165.187.012.177.132-.014.174-.365.695-.225.8.25.061.074-.337.258-.581.18-.403.235-.172.349-.068zM12.146 22.282c-.288.744-.183 1.565-.11 2.338-.669.08-.34-1.776-.191-2.422l.301.084z"/>
    <path d="M10.995 22.306c.29.826.779 1.618 1.05 2.42-.497.38-.581-1.078-.945-1.398-.01-.346-.726-.95-.105-1.022zM9.75 22.077c.474.913.933 1.846 1.307 2.804-.656.168-.722-1.325-1.152-1.83.02-.362-.73-.817-.154-.974z"/>
    <path d="M10.897 22.347c-.21.7.716 2.402-.099 2.611.203-.722-.596-2.458.1-2.611z"/>
    <path d="M11.083 24.83c.591-.025 1.126 1.404.45.706-.126-.334-.939-.318-.45-.705z"/>
    <path d="M10.92 24.85c.73.681.074 1.754-.05.5-.153-.285-.412-.396.05-.5z"/>
    <path d="M10.969 24.66c1.058-.413.18.844 0 0zM10.728 25.056c-1.065.14-1.644-.583-.204-.34.306.033.32.025.204.34zM11.744 24.71c.879-.327 1.769 1.454.6.436-.245-.293-.718.121-.6-.436z"/>
    <path d="M11.852 24.66c.562-.393 2.124.379.897.259-.326-.12-.976.321-.897-.26z"/>
    <path d="M11.884 24.538c.474-.47 2.435-.185 1.077.054-.363-.123-1.015.51-1.077-.054z"/>
    <path d="M11.822 25.018c-1.03.067.185-.792 0 0zM1.91 10.051c.198.285.022.674-.227.864-.25.195-.11.562.185.6.223.042.646.151.464.463-.105.182-.509.459-.118.558.215.07.523.097.58.365.08.185-.107.422.019.559.232.11.54.296.438.603-.118.173-.243.532.094.524.283-.068.514.208.364.468-.074.15-.145.303.074.343.119.153-.057.408-.237.238-.277-.093-.272-.433-.148-.648.025-.109.127-.087-.014-.08-.287 0-.628-.232-.597-.544.053-.18.292-.475-.004-.561a.46.46 0 0 1-.281-.677c.017-.29-.314-.26-.497-.35-.197-.072-.391-.3-.265-.51.049-.151.249-.38.329-.387-.218-.005-.423-.12-.603-.235a.546.546 0 0 1-.153-.737c.11-.216.423-.349.336-.635-.074-.126-.095-.342.124-.273.047.015.09.037.137.052z"/>
    <g>
        <path d="M15.437 24.05c-1.179-.031-1.1 1.97.1 1.346.562.714-2.015.465-1.296-.603-.148-.482 1.296-1.703 1.196-.743z"/>
        <path d="M16.435 23.71c.212.625-.71 2.108.393 1.733.976.473-1.54.73-.867-.355.322-.414-.267-1.596.474-1.377z"/>
        <path d="M17.394 23.764c.283.549-.41 1.95-.391.855.158-.394-.272-1.015.39-.855zM18.818 23.959c-.932.271-1.095 1.963.138 1.414.777.787-1.809.54-1.3-.462.123-.365.804-1.708 1.162-.952zM19.549 23.729c.143.513-.04 2.369-.363 1.365.222-.435-.38-1.589.363-1.365z"/>
        <path d="M20.719 23.787c-.283.627-1.83.99-.595 1.096.613.07 1.366 1.057.3.597-.835-.27-1.666-.955-.444-1.45.364-.225.323-.598.739-.243zM17.16 22.955c.013.123.086.067.068.051-.728.627.141-1.05.297.055-.048.5-.906.344-.366-.106zM21.472 23.028c.132.436.229 2.328-.255 1.32.137-.418-.475-1.447.255-1.32z"/>
        <path d="M21.543 25.007c.004.52-.326-.272.082-.179.848.798-1.014.838-.382.095l.3.084z"/>
    </g>
</svg>
