<svg xmlns="http://www.w3.org/2000/svg" viewBox="0 0 22.489584 26.458333" height="100" width="85">
    <path d="M13.999 3.461s-.288-1.223-.54-1.18c-.368-.043-.295.323-.29.327-.198-.06-.39-.168-.606-.086l-.136.55c-.488.052-.382.308-.356.536.628-.237 1.264-.375 1.928-.147zM15.092 6.064c-.56.357-.378.738-.166 1.234l-.354.196c-.358-.321-.46-.718-.289-1.279z" fill="#d20000" fill-rule="evenodd"/>
    <path d="M12.266 22.223c.667.067 1.335.003 1.996.673.395-.55.453-1.283 1.48-1.484.638.051 1.235.167 1.152 1.368-.392.79-1.03 1.216-1.76 1.507-.665.055-.7-.21-.927-.376-.914.622-1.722.62-2.556.774.21-.793.45-1.435.615-2.462zM11.538 22.36l.015 2.31c-.632-.007-.743-.24-.939-.473.133-.475.294-.872.364-1.524.186-.127.369-.394.56-.313zM10.241 22.926c-.512.557-.56.87-.935 1.103-.924.096-.976-.484-1.317-.841-.148-.557-.326-1.11.376-1.802.435.153.861.333 1.379.254-.018.275.258.795.497 1.286z" fill="#deaa87" fill-rule="evenodd"/>
    <g stroke-width=".973">
        <path d="M8.482 21.29c-.88.326-.867 1.376-.483 2.07.21.6.926 1.021 1.515.662.28-.25 1.01-.956.67-1.111-.335-.105-.464.934-.99.952-.7.13-1.095-.652-1.21-1.21-.22-.53.274-1.061.597-1.258-.003-.042-.083-.054-.099-.106zM12.34 22.093c-.25.486.897.126 1.16.443.551.115 1.09.988.496 1.375-.814.5-1.824.688-2.768.581-.26.055-.583-.645-.641-.294-.091.466.682.649 1.077.599.877-.005 1.796-.195 2.52-.7.631-.39.235-1.314-.22-1.6-.493-.261-1.067-.374-1.624-.404zm-.837.145c-.53 0-.845 1.135-.25.396.247-.165.27-.128.25-.396z"/>
        <path d="M14.227 22.737c.306-.74.966-1.534 1.85-1.41.758.017 1.026.967.864 1.588-.35.951-1.406 1.59-2.406 1.454-.377-.103-.426-.67-.056-.403.261.322.75.074 1.08-.02.661-.305 1.337-.968 1.118-1.768-.138-.865-1.288-.706-1.703-.169-.263.148-.663 1.397-.747.728zM11.79 7.484c1.11.881 1.86 2.111 2.714 3.234.4.681.893 1.396.842 2.218.147.334.284 1.659-.162.804-.193-.657-.02-1.383-.44-1.966-.432-1.013-1.185-1.855-1.828-2.735-.173-.61-1.39-1.048-1.126-1.555z"/>
        <path d="M15.524 12.987c.564.616 1.197 1.217 1.537 1.992.183.576.258 1.383.313 2.055.042.671-.063 1.437-.62 1.89-.326.379.18 1.044-.469 1.304-.29.331-.64.52-1.065.479-.167.635-.88.371-1.332.726-.719.386-1.608.189-2.42.38-1.2 0-2.562.207-3.563-.611-.562-.434-1.367-.532-1.695-1.244a8.527 8.527 0 0 1-.653-1.84c-.181-.518.343-1.116.292-.221-.033.537.366.979.426 1.515.222.64.787 1.056 1.408 1.27.599.448 1.26.857 2.043.853.968-.044 1.982.147 2.907-.202.762.34 1.232-.407 1.96-.38.385-.066.403-.831 1.059-.545.095-.251.854-.462.73-.916-.24-.832.992-1.272.712-2.189a11.603 11.603 0 0 0-.226-2.155c-.261-.749-.91-1.321-1.422-1.935-.21-.051.032-.177.078-.226zM11.927 7.654c.006 1.196-.589 2.287-1.071 3.35-.394.787-.881 1.5-1.528 2.103-.458.713-.68.045-.137-.282 1.111-1.064 1.724-2.527 2.251-3.947.298-.311-.09-1.414.485-1.224z"/>
        <path d="M12.698 3.616c-.947.08-1.567.908-2.308 1.406-.717.96-1.605 1.792-2.19 2.852-.491.72-1.063 1.374-1.338 2.21-.403.647-.497 1.408-.788 2.092-.286.589-.47 1.224-.61 1.863a14.271 14.271 0 0 1-.158 1.662c-.106.568.118 1.352.781 1.435.331.118.789.13.807-.316.199-.366-.608-.759.13-.938.124-.455-.278-.745-.06-1.14-.314-.292-.556-1.044.01-1.093-.561.576.825 1.168-.007 1.593-.06-.671.764.753.115.88-.324.091.397.632-.036 1.021-.238.518-.89.28-1.303.174-.788-.392-.78-1.354-.62-2.118.077-.736.048-1.503.36-2.193.164-.69.599-1.265.684-1.979.245-.668.63-1.286.866-1.955.654-.774 1.138-1.65 1.735-2.46.617-.637 1.09-1.409 1.762-1.99.588-.325 1.644-1.558 2.168-1.006z"/>
        <path d="M12.686 3.413c.656-.26 1.424-.164 1.775.435.392.589.749 1.248 1.29 1.723.218.117.754.148.602.495-.599.182-1.246.172-1.874.149.059-.538 1.13-.128 1.586-.321.386.286-.454-.053-.72-.349a15.975 15.975 0 0 1-1.2-1.727c-.37-.379-1.006-.414-1.467-.206l-.28-.134z"/>
        <path d="M13.991 4.816c.793.604-.793.755-.299-.001.602-.17.329.187.19.258.31.265-.234-.078.11-.257zM13.856 4.316c-.62-.208-.525 1.388-.754.4-.162-.396.837-.988.754-.4zM13.855 3.302c-.013-.367-.293-.862-.581-.892.187.324-.418.309-.612.261-.095.205-.06.51-.367.53.003.434-.562.25-.212-.145.24-.239.319.001.281-.332.065-.472.505-.329.706-.24-.154-.405.746-.365.832.153.065.19.386.736-.047.665zM14.607 6.1c-.67.149-.737.982-.804 1.54-.033.747-.153 1.517.167 2.225-.336.342-.38-.388-.434-.608-.113-.397.034-.962.02-1.423.062-.653.113-1.569.798-1.855l.2-.064.053.186zM11.562 21.784c.07.996.177 1.982.104 2.982.157.263-.167.604-.246.266-.007-.915.06-1.824-.066-2.738.06-.215-.223-.636.208-.51z"/>
        <path d="M12.663 21.569c-.47.87-.525 2.115-.842 3.041.07.513-.21.688-.152.668-.397-.379.187-1.347.245-1.9.114-.422.264-1.916.75-1.81zM9.797 21.762c.512.607.559 1.336.705 2.072-.132.344.304 1.302-.244 1.243-.017-.707.07-1.449-.162-2.145.078-.425-.657-.936-.3-1.17z"/>
        <path d="M11.263 21.779c-.266.867-.23 1.805-.657 2.624-.027.124-.083 1.169-.338.704-.011-.645.423-1.321.512-1.964.147-.37.05-1.443.483-1.364z"/>
        <path d="M10.53 25.13c.324.493-.304.998-.228.203-.175-.214.13-.186.228-.202zM11.804 25.102c1.194 1.125-.668.325 0 0z"/>
        <path d="M10.305 25.262c-.483-.12-1.568-.086-1.52.005-.204-.484 1.07-.31 1.448-.233l.125.022-.053.206z"/>
        <path d="M10.232 25.044c-.379-.422-.725-.484-.487-.647.143.102.888.496.487.647zM10.431 25.014c.38-.56.895-.268.265-.028l-.185.172-.152-.062zM11.515 25.199c-1.127-.233.169-.575 0 0zM11.744 24.984c.991-.647.261.604-.032.067zM15.076 6.254c-.675.349.289.92-.217 1.262-.552.32-.898-.62-.528-.946.293-.06-.111.546.164.722.227.231.434-.155.22-.287-.286-.192.114-1.117.36-.751z"/>
    </g>
    <path d="M5.718 7.467c-.121.203.012.482.245.496.09-.085.168-.237.405-.277-.01.226-.31.478-.2.718.054.107.22.3.434.206.214-.084.294-.354.302-.563-.024-.123-.097-.127-.168.038-.067.074-.356-.165-.168-.25.13-.154.219-.354.355-.483.162.092.245.236.086.354.14.183.218.351.156.579-.087.25-.23.54-.5.63-.265.08-.54-.089-.666-.277-.123-.156-.054-.433-.29-.445-.217-.124-.366-.382-.302-.641.014-.185.12-.373.306-.429.163-.045.243-.003.382.081-.147.172-.318.104-.377.263zM8.676 3.79c-.476-.16-.258-.18-.053.226.012.046.037.096.065.155.12-.165.219-.263.29-.31a.94.94 0 0 0-.302-.071zm.165.598c.197.273.401.564.058.678-.143-.467-.78-1.127-.756-1.47.405-.42 1.201.086 1.723.2-.002.428-.338.3-.679.15.015.159-.206.405-.346.442zm-.956.515c.383.18.688.47 1.013.734-.216-.045.342-.456.433-.631.558.153-.39 1.139-.695.857-.205-.322-1.386-.887-1.11-1.25zm-1.245.913c.266.494 1.798.613 1.451 1.154-.235.074-.54-.077-.615-.25-.219-.217-1.425-.513-.836-.904zm-.216.506C6.27 5.181 8.204 4.99 8.056 6.14c-.743.984.131-.869-.94-.501-.497-.04-.256.909-.692.683zM9.98 2.217c.044.681.72 1.407.683 1.917-.543-.184-.726-1.239-.957-1.841l.134-.052.14-.024zm-.8.74c.303.1 1.418.045.763.398-.237-.127-1.084.127-.762-.398zM2.679 15.054c.513-.014 1.331-.148 1.668-.137-.088.427-1.567-.53-.529-.541.364-.003 1.158-.503.812-.048-.62-.245-1.24-.552-1.691-1.067.436-.395.895.7 1.5.678.478.035.63.54.045.548-.403.396-1.234-.071-.484.15.481-.02.825.697.131.582-.4-.15-1.497.482-1.452-.165zm1.954-5.871c.266.225.28.766.434 1.032-.215-.068-.455-.122-.578-.238-.02.075-.263.32-.033.32.48.097 1.227.668 1.503.524.025-.239-.24-.355-.549-.456.335-.291 1.13-.365.952-.832-.429.072-.772.38-1.123.639.008-.277-.303-.894-.348-1.125l-.136.053zm-.905 3.61c.345.938 1.79.034.692-.343-.51-.285-.985 1.129-.863.102.375-.757 1.937-.402 1.5.548-.16.815-1.77.185-1.33-.307zm.258-.866c-.82-1.316 1.344-1.584 1.06-.131-.59.084.37-.701.753-.757.575.424-.685.479-.792.893-.446.104-.4-1.42-.865-.661-.188.244.343.607-.156.656zm.134-.336c.44.038 2.115.639.89.551-.219-.134-1.194-.16-.89-.551z"/>
</svg>
