<svg xmlns="http://www.w3.org/2000/svg" viewBox="0 0 22.489584 26.458333" height="100" width="85">
    <path d="M2.113 7.57c.43.013.82.148 1.164.42-.121.494-.29.818-.582.711-.252-.088-.414-.626-.582-1.131zM2.533 5.76c.222-.555.557-1.073 1.293-1.456.361.502.493.584 1.067.55-.187.26-.536.39-.323.97-.735-.805-1.386-.44-2.037-.065z" fill="#d40000" fill-rule="evenodd"/>
    <path d="M9.517 13.163c.722-.324 1.39.368 1.552 1.455l-.776 1.358c.311.593-.129.929 1.875 2.166.738.246 1.046-.424 1.39-.808.96-.097 1.943.769 1.908 1.326-.474.942-1.34 1.164-2.328 1.164-2.788.087-4.093-3.42-4.527-3.718-.199-1.331.25-2.125.906-2.943z" fill="#8a0" fill-rule="evenodd"/>
    <path d="M9.671 13.193c-1.044 1.004-1.345 2.952-.247 3.995.601.566-.372.332-.475-.136-.873-1.2-.493-3.017.513-4.028l.21.169zm5.934 5.487c-.515 1.353-2.303 1.493-3.509 1.103-1.11-.367-1.972-1.228-2.6-2.183-.216-.842.8.607 1.043.914 1.122 1.057 2.947 1.663 4.329.741.362-.11.366-.896.737-.575zm-6.087-5.6c.877-.532 1.521.695 1.668 1.426.115.736-1.216 1.297-.534 2.029.437.644 1.014 1.391 1.82 1.505.762.076.833-1.357 1.74-.713.594.148 1.644.81 1.256 1.367-.296-.158-.32-.924-.928-.928-.344-.146-1.007-.567-1.15-.006-.353.811-1.414.64-1.92.102-.573-.536-1.431-1.248-1.227-2.114.247-.535 1.02-.986.536-1.643-.201-.759-.82-.87-1.261-1.025z"/>
    <path d="M17.04 12.41c.703-.093 1.185.95.384.989.582.939-.74 1.416-1.436 1.15.073 1.062-.947 1.089-1.59.667-.127.818-1.714.327-1.564-.286 1.02.854 1.543-.332 2.586.268.204-.896.808-.985 1.654-1.006.309-.446.062-1.24.472-1.195-.153-.344-.75-.1-.507-.586zM2.078 6.376C1.81 6.672.89 7.94.86 7.57c1.115-.355 1.858.236.33.288-1.46.165.529-1.428.747-1.597l.1.08.041.035z"/>
    <path d="M1.764 6.204c.7-.67 1.763-1.281 2.69-.657 1.485.573 2.598 1.766 3.756 2.792 1.377.834 2.177 2.36 3.443 3.305.873.913-1.222-.212-1.315-.884-.831-1.04-1.882-1.854-2.897-2.677-1.085-1.107-2.424-2.264-4.005-2.497-.666-.073-1.237 1.052-1.672.618zM12.025 11.703c.976.215 2.048-.171 2.925.46.615.315 1.64.043 2.08.342-.205.452-1.373.06-1.936.023-.907-.686-2.317-.232-3.097-.645l.02-.126.008-.054z"/>
    <path d="M16.816 12.354c1.095-.312 1.027-1.836 1.974-2.389.385-1.144 3.549-1.355 2.016.047-1.381 1.04 1.553.878.94 1.86-.88.24.72 1.09-.692 1.531.478 1.02-1.03 1.006-.486 1.835.459.717-1.79 2.112-1.34 1.242.686-.361 1.444-.925.858-1.762.358-.492 1.005-.527.679-1.439 1.029-.543.481-.704.377-1.416 1.44-.591-2.036-.597-.855-1.773 1.718-.93-.412-1.014-.99-.248-.932.675-1.168 1.832-1.938 2.615-.25.146-.586.405-.543-.103zM2.493 5.37c.354-.516 1.519-1.777 1.69-.67 1.132-.16.805.687.403 1.037-.2-.246.05-.696.176-.705-.926.377-.665-.95-1.226-.352-.35.176-.728 1.28-1.043.69zM2.192 7.57c.23.501.817 1.458.846.503.884.143-.598 1.493-.79.26.003-.334-.443-.525-.056-.762zM2.418 6.328c1.307-.548-.027.993.062.14.178-.037.498-.065.142.096l-.204-.236z"/>
    <path d="M3.253 5.83c.776.852-.397 1.791-.085.366-.29-.115.03-.245.085-.366zM3.231 7.948c1.386.716 1.788 2.468 2.233 3.847.616 1.453.507 3.054.95 4.55.395 1.19.648 2.539 1.572 3.45-.652.456-.988-1.015-1.247-1.467-.633-1.625-.953-3.34-1.176-5.054-.435-1.738-.87-3.637-2.173-4.95-.312.012-.165-.197-.159-.376z"/>
    <path d="M7.876 19.778c1.228.688 2.397 1.624 3.839 1.794.462.067 1.064.38 1.575-.014.889.586 1.112-.32 1.893-.129.675.052 1.515-.673 1.96.002-.709-.177-1.302.381-2.106.294-.529-.11-.97.685-1.704.138-.738.38-1.404-.034-2.146-.069-1.282-.3-2.354-1.128-3.488-1.761l.177-.255z"/>
    <path d="M19.328 16.871c.155.536.168 1.105-.393 1.407.57.796-.286 1.123-.202 1.868-.325.562-1.007.869-1.512 1.26-1.138.13.46-.581.736-.901.507-.18.627-.714.546-1.185.897-.2-.514-1.418.65-1.627.042-.246-.543-1.39.175-.822zM11.448 21.8c-.273 1.213-.852 2.345-1.417 3.442-.698-.11.28-.818.279-1.21.391-.627.586-2.166 1.138-2.232z"/>
    <path d="M12.893 22.105c-1.061.906-1.818 2.132-2.613 3.263-.578-.492.717-1.223.895-1.786.48-.485 1.105-1.841 1.69-1.525l.028.048zM9.781 25.288c-.65-.379-1.518.503-1.94.085.348-.362 1.583-.608 1.946-.267l-.004.128-.002.054z"/>
    <path d="M9.945 25.305c-.88.932-1.778.753-.423-.095.251-.444.307-.043.423.095zM10.11 25.13c1.169-.009 1.237.971.266.31-.376.192-.23-.154-.266-.31zM15.02 21.579c.892.74 1.724 1.664 2.935 1.838-.065.737-1.254-.213-1.701-.375-.241-.426-1.707-1.065-1.233-1.463z"/>
    <path d="M16.119 21.502c.623.673 1.214 1.532 2.12 1.806-.37.797-1.373-.682-1.847-1.033-.16-.256-.816-.547-.273-.773z"/>
    <path d="M18.046 23.366c.001-1.733.824-.295 0 0zM18.355 23.42c-.104.783 1.024 1.068.99 1.71-.4-.052-1.941-1.71-.99-1.71z"/>
    <path d="M18.27 23.66c-.613.521.814 1.636 0 1.45-.448-.232-.687-1.76 0-1.45z"/>
    <path d="M17.972 23.845c-.172 1.308-.951 1.004-.271-.152l.271.152zM2.862 7.556c.59.112.978 1.086.231.528-.23-.213-.595-.189-.231-.528z"/>
    <g>
        <path d="M8.824 5.502c-.876-.79-2.116.781-.799 1.087-.037.91-1.833-.956-.593-1.3.201-.463 2.092-.451 1.392.213z"/>
        <path d="M9.803 5.893c-.244.612-1.909 1.14-.828 1.572.435.994-1.645-.447-.427-.834.513-.105.834-1.386 1.255-.738z"/>
        <path d="M10.497 6.556c-.141.601-1.579 1.217-.852.396.375-.196.452-.948.852-.396zM11.453 7.63c-.885-.4-2.109.78-.814 1.165.078 1.103-1.726-.766-.688-1.196.33-.198 1.721-.776 1.502.031zM12.157 7.93c-.224.484-1.57 1.775-1.162.803.451-.187.743-1.455 1.162-.803z"/>
        <path d="M13.009 8.735c-.623.293-2.034-.436-1.164.447.42.45.35 1.69-.16.648-.46-.748-.646-1.808.605-1.39.422.065.634-.244.719.295zM10.845 5.789c-.07.103.022.108.018.084-.96.003.79-.706.19.234-.36.35-.911-.327-.208-.318zM14.075 8.648c-.184.418-1.34 1.918-1.052.837.376-.228.58-1.408 1.052-.837z"/>
        <path d="M12.842 10.199c-.336.397-.07-.419.179-.084.125 1.158-1.315-.022-.352-.175l.173.259z"/>
    </g>
</svg>
