<svg xmlns="http://www.w3.org/2000/svg" viewBox="0 0 22.489584 26.458333" height="100" width="85">
    <path d="M13.342 17.609c-.21.274-.522.47-.923.501-1.117.178-1.866-.904-1.697-1.93.014-.146.092-.417.197-.575.095-.142.212-.192.324.03l.177.224c-.308.622-.265 1.7.65 1.712.423.085.76-.036.967-.252z" fill="#f1613c"/>
    <path d="M9.188 16.604c-.003-.433-.01-.867-.001-1.306-.06-.269.027-.772.13-1.056.101-.275.389-.441.403.111-.09.731-.036 1.49-.02 2.237zm4.752-2.72c-.831-.202-1.66.094-2.592-.02-.506-.099-1.17.234-1.63.283-.182.02-.25-.109-.389-.17 1.272-1.042 3.181-.605 4.69-.805z" fill="#893dab"/>
    <path d="M9.664 17.753c-.102.742.385 1.48 1.24 1.346 1.25-.13 1.905.24 3.137-.122.142-.084.299-.195.37-.303l.628.448c-1.02 1.131-3.118.566-4.067.603-1.036.04-2.134-.586-1.938-1.702.029-.456.072-.951.154-1.419l.512-.014a9.33 9.33 0 0 1-.036 1.163z" fill="#fcad4b"/>
    <path d="M14.411 18.73c.302-.457.197-1.05.37-1.623.097-1.001.188-1.936-.204-2.874-.204-.122-.435-.3-.637-.349l.008-.67c1.09.006 1.538 1.203 1.405 2.17.109 1.242-.058 2.534-.314 3.738zm-1.374-1.41c.353-.367.333-1.006-.267-1.362-.473-.407-.97-.48-1.393-.075-.275-.19-.421-.425-.143-.555.412-.192 1.398-.325 1.66-.092.937.376 1.27 1.799.448 2.373zm.786-2.893c.486.254.348.588.044.737-.235.116-.472-.037-.542-.279-.02-.189.058-.366.185-.432.062-.019.102-.044.313-.026z" fill="#d42f84"/>
    <path d="M9.272 5.26l.01.893c-.265.224-.434-.104-.616-.404.146-.366.171-1.174.606-.49zM9.027 2.332c.204-.314.128-.659.086-1-.397-.738-.533-.136-.713.234-.624-.787-.684.334-.511.798.35-.065.73-.164 1.138-.032z" fill="#d40000" fill-rule="evenodd"/>
    <path d="M9.225 3.957c1.095-.67 1.7.898 1.458 1.76-.44.672-.242-.387-.303-.718.037-.49-.454-1.15-.952-.807l-.203-.235z"/>
    <path d="M9.443 4.196c-.083.441.627.723.815 1.133.09.798-1.375-.806-1.102-1.254l.287.12z"/>
    <path d="M9.276 4.671c-.133.474.728.74 1.081 1.036.261.807-1.216-.414-1.465-.753.002-.357.055-.605.384-.283zM9.1 2.324c.366.204 1.247 1.5.632 1.478.017-.55-1.023-1.152-.633-1.478z"/>
    <path d="M8.93 2.257c.242-.896-.458-1.65-.435-.43-.536-.666-.686-.334-.417.364-.845.38-.304-1.936.346-.754-.475.524.402-1.648.86.045-.073.294.19 1.024-.354.775z"/>
    <path d="M7.99 2.375c-1.208.863-1.145 2.684-.665 3.955.25 1.293.33 2.62.278 3.924-.666-.18-.116-1.546-.325-2.177-.1-1.791-1.202-3.759-.012-5.412.128-.244.623-.937.725-.29z"/>
    <path d="M7.462 10.316c-.746 1.084-.85 2.488-1.695 3.52-.601-.38.892-1.487.732-2.284.328-.234.454-1.793.963-1.236zM5.654 14.148c-.451.176-.65.78-.745 1.26.202.63-.532 1.106.26 1.663-.595.31-1.156-1.05-.403-1.252-.433-.616.347-2.055.861-1.843l.02.133.007.04z"/>
    <path d="M6.919 10.367c-.634-.702-1.02-1.612-1.853-2.146-.151-.44.802 1.083.015 1.052.142.766.603 1.43.398 2.25-.223.517.474 2.284-.187 1.967-.334-1.242.196-2.583-.41-3.729-.1-.89.47-.75-.05-1.65.445-.618 1.322.777 1.677 1.198.02.429.902.767.41 1.058zM8.43 3.861c.026.51.142.117-.116.029-.706.174.548-.742.418.268-.374.472-1.023-.513-.302-.297zM8.252 3.281c-.577.212-.58 1.993-.694.349-.097-.4.951-1.102.694-.349zM10.295 6.054c.266 1.851 2.037 2.894 3.175 4.216 1.735 1.504 3.086 3.56 3.204 5.912.374 1.842-.487 3.665-1.937 4.786-.82.916-2.087 1.21-3.253 1.378.017-.66 1.52-.386 2.074-.868 1.522-.997 3.083-2.585 2.857-4.567.028-2.427-1.152-4.713-2.987-6.269-1.26-1.421-3.145-2.58-3.444-4.588h.31z"/>
    <path d="M6.698 20.865c.868.344 1.44 1.355 2.469 1.196.423.555 1.172-.09 1.806.094.638-.443.76.44-.164.263-.576-.057-1.203.257-1.735.026-.182-.326-1.088.03-1.403-.555-.193-.374-1.31-.599-.973-1.024z"/>
    <path d="M8.933 22.253c.151.737.88 2.572.248 2.804.02-.896-.629-2.28-.248-2.804z"/>
    <path d="M9.949 22.587c-.527.563.056 2.203-.666 2.28.061-.557.004-2.513.666-2.28zM10.32 22.614c.374.553.253 3.597-.108 1.703.25-.473-.51-1.698.108-1.703z"/>
    <path d="M11.383 22.44c-.239.509-.508 2.897-.914 2.099.415-.468.258-2.429.914-2.1z"/>
    <path d="M10.51 24.827c.44-.415 2.113.595 1.274.57-.35-.468-1.197-.074-1.275-.57z"/>
    <path d="M10.862 24.962c.902 1.164-.194 1.3-.147.096l.113-.074.034-.022zM10.421 24.984c.192 1.746-.94.591-.04.005zM9.59 24.955c.453 1.224-.639.974-.176 0H9.59z"/>
    <path d="M9.376 25.08c-1.132 1.747-1.339.33-.125-.122l.096.094.029.027zM9.182 24.883c-.566-.232-2.295 1.398-1.66.319.293-.21 1.778-.996 1.66-.32zM9.404 5.387c.51 1.913-1.632.472-.48-.11-.127.213.165 1.27.208.568-.074-.274-.208-.724.272-.458zM5.433 17.259c-.102.17-.134.374-.177.563-.04.144-.028.294-.028.442.025.146.029.296.07.44.03.132.049.264.066.399a.83.83 0 0 0 .142.384c.099.17.2.337.307.503.093.126.156.279.286.376.115.09.219.193.33.286.058.034-.048.08-.07.12-.04.036-.085.096-.125.12-.124-.09-.223-.205-.347-.294-.189-.165-.293-.398-.436-.6-.106-.179-.22-.352-.317-.536-.09-.262-.094-.543-.164-.81-.026-.181-.06-.364-.052-.548-.005-.195.045-.4.097-.593.054-.106.07-.33.161-.36l.257.108z"/>
    <path d="M9.036 12.422c-.294.229-.432.607-.494.963-.058.29-.076.586-.103.88a.59.59 0 0 1-.515.562c-.166.05-.17-.028-.152.154-.013.195.024.389-.019.588-.065.255-.345.399-.596.378-.113.021-.26-.033-.187.024-.06.28-.17.55-.3.804-.161.245-.443.36-.688.498-.236.103-.51.06-.755.013-.12.028-.187-.029-.15-.173-.052-.201.157-.139.291-.116.235.063.49.03.69-.116.217-.104.4-.276.462-.515.123-.21.1-.487.258-.673.193-.126.52.028.656-.156.066-.22.006-.465.032-.694 0-.27.286-.302.487-.344.221-.087.176-.366.202-.554.049-.486.12-.991.388-1.413.09-.083.227-.417.34-.286.052.058.102.117.153.176zM9.337 13.6c1.611-.651 3.423-.686 5.122-.436 1.083.25 1.183 1.585 1.136 2.497-.21 1.257-.147 2.583-.573 3.787-.827.764-2.083.393-3.107.551-.927-.1-2.083-.02-2.717-.844-.58-.745-.397-1.69-.252-2.544.135-.858-.164-2.888.537-2.935-.114.912-.263 1.812-.218 2.743-.123.97-.395 2.129.474 2.852 1.134.517 2.449.447 3.666.34 1.062.26 1.66-.591 1.614-1.564.097-1.035.286-2.058.266-3.1.087-1.106-.915-1.761-1.93-1.59-1.306-.068-2.67-.004-3.886.526l-.065-.144-.067-.14z"/>
    <path d="M9.933 14.171c-.054 1.303-.224 2.615-.06 3.914.27 1.25 1.746.655 2.629.82.854.122 2.036.004 2.026-1.119-.047-.566.67-1.026.355-.19.043 1.286-1.14 1.854-2.28 1.629-.974-.17-2.499.404-2.952-.806-.387-1.313-.016-2.697-.065-4.038-.027-.197.176-.336.347-.21z"/>
    <path d="M9.868 14.024c1.333-.335 2.73-.415 4.096-.328.624.145 1.299 1.658.631 1.858.074-1.084-.736-1.943-1.863-1.576-.914-.102-2.125.354-2.822.195l-.042-.149z"/>
    <path d="M14.853 15.117c.117.556.196 2.547-.307 2.363.218-.498-.002-1.598.082-2.014a.785.785 0 0 1 .225-.349zM11.732 15.848c-.887.705.254 2.073 1.146 1.35.802-.776-.256-1.373-1.037-1.349-.172.006-.304-.088-.388-.118.785-.573 2.214.24 2.017 1.26-.446 1-2.355.869-2.344-.353-.057-.327.142-1.183.606-.79z"/>
    <path d="M11.19 15.415c-.784.685-.273 2.416.85 2.493 1.13.257 2.314-1.114 1.331-2.048-.387-.833-1.486-.798-2.195-.49-.097.042-.111-.04-.205-.03.328-.678 1.542-.533 2.175-.192.697.515 1.254 1.62.622 2.4-.773.993-2.642.916-3.085-.357-.351-.513-.19-2.313.506-1.776zM13.62 14.597c-.395.746 1.033.224.111.003-.887-.74 1.524.073.262.756-.697.38-1.138-1.338-.373-.759z"/>
    <g>
        <path d="M13.11 6.592c-.81-.859-2.174.606-.886 1.018-.11.904-1.75-1.102-.485-1.343.238-.445 2.122-.28 1.37.325z"/>
        <path d="M14.053 7.061c-.294.591-1.996.982-.953 1.5.352 1.026-1.603-.58-.358-.866.52-.063.944-1.314 1.31-.634z"/>
        <path d="M14.69 7.78c-.19.587-1.672 1.083-.881.324.39-.165.528-.908.881-.325zM15.556 8.928c-.85-.471-2.165.605-.907 1.094-.011 1.105-1.657-.904-.587-1.248.345-.17 1.778-.633 1.494.154zM16.233 9.284c-.262.463-1.708 1.64-1.224.705.465-.149.86-1.39 1.224-.705z"/>
        <path d="M17.016 10.155c-.644.241-1.991-.6-1.196.35.382.484.212 1.715-.213.634-.396-.783-.496-1.855.717-1.337.416.1.652-.191.692.353zM15.1 7.043c-.078.096.013.11.011.085-.958-.075.845-.64.171.249-.389.319-.883-.4-.182-.334zM18.086 10.156c-.217.4-1.492 1.802-1.117.748.394-.197.692-1.356 1.117-.748z"/>
        <path d="M16.731 11.6c-.367.37-.036-.423.185-.068.03 1.164-1.309-.13-.337-.204l.152.272z"/>
    </g>
</svg>
