<svg xmlns="http://www.w3.org/2000/svg" viewBox="0 0 22.489584 26.458333" height="100" width="85">
    <path d="M12.718 4.117c.747-.448 1.494-.836 2.23-.272.116-.458.012-.634-.303-.54-.366-.175-.656-.852-1.172-.03-.903-.545-.709.301-.755.842zM12.363 6.768c.489.04.982.064 1.222.922-.272.294-.538.597-.976.607-.535-.328.415-.835-.246-1.53z" fill="#d20000" fill-rule="evenodd"/>
    <path d="M17.63 13.42c.878.336 1.25 1.091 1.092 2.287-.931.742-1.878 1.424-3.305.15-.25-.812.151-1.58.901-2.24.452-.271.839-.278 1.313-.196z" fill="#ffd42a" fill-rule="evenodd"/>
    <path d="M20.08 15.518c.059 1.856-.728 3.694-2.14 4.901-.555.59-1.367.83-2.03 1.265-.854.345-1.805.216-2.7.35-.756.142-1.42-.287-2.153-.312-.5-.146-.867-.586-1.251-.897-.049-.01.08-.509.282-.16.429.28.8.82 1.392.759.878.333 1.81.33 2.732.207.943.062 1.834-.27 2.594-.809.982-.433 1.687-1.332 2.285-2.192a6.38 6.38 0 0 0 .827-3.112h.163z"/>
    <path d="M9.876 20.768c-.802.01-1.482-.278-1.923-.944-.622-.298-1.384-.523-1.206-1.392-.454-.388-.193-1.012-.52-1.441-.215-.512-.064-1.123-.154-1.673.124-.526.117-1.1.41-1.56.457.035-.068.624-.036 1.03-.147.656-.074 1.356-.012 2.012.27.679.433 1.39.63 2.087.033.486.661.377.913.624.561.449.926 1.068 1.76.988l.199.037-.06.232z"/>
    <path d="M6.257 5.958c.108.713-.227 1.343-.537 1.957-.329.723-.508 1.638.037 2.294.321.395-.401.997.142 1.25.472.389-.43.994.134 1.32.251.293.681.604.599 1.033-.354.05-.255-.503-.58-.651-.257-.27-.634-.615-.366-1.026.35-.588-.637-.905-.1-1.59-.076-.53-.598-.973-.39-1.565.035-1.09 1.023-1.911.86-3.02l.201-.002z"/>
    <path d="M6.357 5.897c.717.668 1.25 1.498 1.741 2.338.586.716 1.586.795 2.335 1.223-.12.475-.73-.15-1.066-.14-.922-.26-1.64-.957-1.988-1.84-.183-.564-1.175-1.103-1.022-1.58z"/>
    <path d="M13.527 9.841c-.947.313-1.813-.58-2.766-.245-.55.722-1.447 1.086-2.284 1.365-1.048.226.021.819.183 1.525-.412.659 1.365.364.447 1.874.597-.091 1.2.212 1.013.867.283-.032 1.26.485.583.564-.293-.32-1.107-.162-.861-.849.01-.524-.997.008-1.046-.56.975-1.227-.865-1.281-.542-1.7.269-.704-.714-.78-.568-1.445.378-.778 1.574-.622 2.228-1.206.492-.358.867-.935 1.558-.743.626.285 1.668.272 2.055.553zM13.794 21.952c.478.783.798 1.734.667 2.649-.504-.243-.08-1.525-.614-2.038-.027-.163-.534-.665-.053-.61z"/>
    <path d="M15.252 21.89c-.35.795-.295 1.679-.606 2.475-.185.765-.467-.011-.2-.384.388-.62.097-2.01.806-2.092zM13.658 21.906c-.128.914-.365 1.82-.41 2.74-.401.304-.224-.533-.204-.728.206-.552.102-1.95.614-2.012z"/>
    <path d="M12.314 21.817c.653.76.88 1.784.852 2.771-.44.18-.138-.793-.323-1.103.09-.64-.862-1.332-.529-1.668z"/>
    <path d="M13.172 24.762c-.31.3-.732.62-1.128.731-.35-.226.226-.424.415-.528.277-.032.485-.649.713-.203z"/>
    <path d="M13.192 24.704c.31.432-.147 1.557-.205.557.113-.164-.252-.712.205-.557z"/>
    <path d="M13.277 24.535c.24.187 1.119.843.557.949-.077-.38-1.117-.665-.557-.949z"/>
    <path d="M14.6 24.643c.224.794-.941 1.176-.304.277.093-.133-.12-.516.303-.277z"/>
    <path d="M14.557 24.525c.592-.163 1.464 1.42.704.776-.09-.44-1.029-.37-.704-.776z"/>
    <path d="M14.567 24.544c.448-.138 1.607-.36 1.656.288-.465-.216-1.373.016-1.656-.288zM14.204 24.737c-.695-.193-.372-.774.169-.19l-.17.19zM13.121 24.583c.071-.522.552-.292.245.012-.098.049-.077.305-.245-.012zM12.349 5.44c-.31.346-.933.944-1.223 1.129-.138-.49 1.093-.012 1.446.122.01.468-.548-.034-.803.026-.464.1-.918-.382-.774-.382.424-.187.994-1.19 1.354-.895z"/>
    <path d="M11.986 5.43c.377-.528.328-1.416 1.063-1.663.66-.402 1.659-.55 2.17.14.636.452 1.38.825 1.805 1.517.698.705.983 1.694 1.468 2.535.553 1.29.9 2.644 1.174 4.007.215 1.082.539 2.184.474 3.285-.025.176-.058.295-.03.36-.36.403-.424-.267-.309-.51-.04-1.678-.551-3.322-.908-4.968-.292-1.095-.759-2.115-1.26-3.12-.335-.822-.88-1.548-1.51-2.167a18.59 18.59 0 0 1-1.492-1.104c-.694-.218-1.485.123-1.957.632-.161.312-.206 1.48-.688 1.056z"/>
    <path d="M17.636 13.2c.963.354 1.544 1.525 1.209 2.48-.434.723-1.381 1.166-2.22 1.008-.778-.1-1.599-.785-1.358-1.65 0-.813.747-1.408 1.416-1.706.264.375-.632.524-.757.913-.401.41-.523 1.209-.148 1.653.671.718 1.835.59 2.523-.04.584-.46.339-1.437-.09-1.938-.094-.303-1.008-.38-.575-.72z"/>
    <path d="M19.155 10.327c-.05 1.097-.564 2.148-1.282 2.955-.52.595-.674-.015-.127-.26.62-.753 1.128-1.69 1.161-2.698l.248.003zM18.851 9.15c-.03 1.17-.53 2.296-1.114 3.295-.205.147-.629 1.056-.737.468.908-.984 1.483-2.28 1.674-3.609l-.005-.148.182-.006z"/>
    <path d="M13.956 9.034c.032 1.445 1.437 2.14 2.352 3.016.225.279 1.182.528.863.944-.954-.52-1.699-1.38-2.55-2.065-.417-.35-1.205-1.62-.665-1.895z"/>
    <path d="M13.467 9.485c.458.443.26 1.141.7 1.602.5.982 1.646 1.382 2.206 2.304.437.261-.18.656-.341.097-.313-.49-.797-.928-1.286-1.27-.553-.509-1.017-1.154-1.183-1.89.177-.334-.583-.74-.096-.843zM16.71 13.333c.58-.3 1.492.256.485.23-.158-.097-.66.196-.485-.23zM13.192 4.627c.798-.112.658.804.502 1.083a1.727 1.727 0 0 0-.12-.55c-.147-.407-.54-.059-.382-.533zM12.53 4.193c-.146-.607.356-1.719.977-.995.252-.902.91-.228 1.154.004.644-.258.401 1.055.188.213-.19.085-.653 0-.708-.393-.304-.29-.634.86-.956.156-.735-.189-.119 1.19-.656 1.015zM12.445 6.73c.537.403.354.777.223 1.308.308.297 1.087-1.272.618.07-.911.713-1.085-.13-.784-.71.125-.306-.54-.49-.057-.668z"/>
    <path d="M12.56 6.64c.752.011 1.257.737 1.257 1.436.287.557.111 1.563-.52 1.78-.427-.224.265-.397.268-.685.362-.506-.053-1.08-.108-1.615-.145-.386-.495-.691-.927-.716l.03-.2z"/>
    <path d="M12.852 5.72c-.09-.043-.09-.1-.064-.255.024-.147.266-.268.357-.227.09.04.035.24-.029.382-.067.14-.175.144-.264.1z" fill-rule="evenodd"/>
    <path d="M12.023 24.163c-.337-.651-.413.159-.225.365.103.55-.521.712-1.029.394-.667-.418.174-.653.512-.173.361.138-.32-1.013.401-1.155.313-.13 1.056.565.34.569zm-2.617-.652c.378-.565 1.078-.948 1.158-.678.052.178.209.429.118.943-.025.16.006.165-.026.26-.033.099-.134.279-.385.076.336-.272.568-.743.937-.904.345.195-.192.867-.638 1.054-.154.065-.253.021-.362-.052.11-.167.11-.185.104-.522-.005-.269.107-.748-.001-.554-.26.139-.683.93-.905.377zm-.118-1.41c-.411.082-.589.835-.107.83.314-.206.71-.688.125-.861-.893-.407 1.104-.27.637.453-.185.535-1.138 1.153-1.404.305-.16-.367.422-1.314.749-.727zm-.468-.362c-.493.767-.836-.776 0 0zm-.398.354c-.259.368-.466.577-.739.332.094-.19.496-.873.74-.332zm-1.019-1.587c.246.296 1.565.594.858.987-.279-.336-1.305-.552-.858-.987zm.456.562c-.097.36-.377.848-.683 1.01-.702-.22.583-1.147.683-1.01zm-1.833-.457c-.291.207-.601.423-.723.108.498-.171 1.202-.823 1.567-.829.448.348-.092 1.138-.214 1.639-.456.032-.32-.295-.16-.628-.169.027-.432-.16-.47-.29zm.638-.204c.17-.46.19-.256-.242-.031-.048.015-.102.042-.165.074.175.1.28.185.33.248a.845.845 0 0 0 .077-.29zM4.073 7.047c-.432.083-2.38.34-1.432-.202.386.061 1.614-.461 1.432.201zm-.045-.343c.896.424.21 2.011-.588 1.21-.781-.82.386-.672-.32.057-.173.487-.55.107-.376-.091.24-.225.406-1.12.757-.603-.004.525.84.714.623.027.001-.259-.548-.39-.096-.6zm-.78 1.957c-.411.179-.676-.195-.368.038.352.561-.358.977-.329.266-.38-.887.61-.574 1.092-.682.322-.065.894-.205.821.31.055.231.203.665-.293.454-.012-.953.063-.472-.51-.384.348.608-.567.318-.356.003a.295.295 0 0 1-.057-.005zm.901 1.686c.67-.775-1.08-1.142-1.008-.284-.242 1.18-.667-.977.304-.792.866-.457 1.665 1.343.704 1.076zm.057.769c-.428-.567-1.169.465-.488.567.81.164.433-1.645.936-.284-.128 1.029-1.97.727-1.518-.292.07-.609 1.556-.62 1.07.009zm-.954 1.1c.448.124 1.132.094 1.392.024.402-.056.117.725-.452.838-.14-.365.58.08.685.08.081.393-1.34 1.397-1.828 1.019.29-.497 2.182-1.217 1.642-.704-.716-.02-1.174-.769-.224-.977.359-.489.505.248.2.115-.433-.02-1.8.304-1.415-.395zm.733 4.54c-.155.523-.514-.241-.37-.526.27-.411.908-.198 1.275-.527.694-.442.882 1.301.259.995.175-.816-.11-.705-.593-.502.142.246.117.355.042.383-.133.049-.424-.154-.293-.285-.486.06-.342-.003-.32.462zm-.072.605c.546-.134 1.07-.323 1.612-.451.503.5-.525.94-.713 1.412-.168.282-.474.672-.38.078.278-.195 1.566-.504 1.086.077-.423.023-1.203.629-1.215-.061.056-.093.425-.662.685-.873.418-.816.923-.11-.053-.076-.322-.044-1.132.615-1.022-.106zm.49 1.713c.488-.115 1-.371 1.388-.604.884.226.415 1.776-.534 1.645-.765.044-1.046-1.523-.347-.657.213.52.86.281 1.033-.078-.266-.397.142-1.005.028-.627-.413.159-1.476 1.007-1.567.32zm-1.03-4.697c.408.24 2.025-.437 1.497.304-.633.142-.454.552.123.446 0 0 .64-.124.335.313-.618-.205-1.65.706-1.932.14.6-.325 1.32-.36 1.982-.431.31.669-.396.14-.801.214-1.062-.04.137-1.268.4-.913.023.04.015.13.02.202-.03-.013 0 .03-.143.017-.513.003-1.608.232-1.482-.292z"/>
</svg>
