<svg xmlns="http://www.w3.org/2000/svg" viewBox="0 0 22.489584 26.458333" height="100" width="85">
    <path d="M7.706 14.842l.097-1.714c.301-.529.745-.715 1.131-.905l1.488.097v1.164c-.7-.059-1.398-.117-1.423 1.002v.42l1.455-.032-.323 1.455-1.132-.032-.032 3.233-1.164.097v-3.169l-1.132-.097-.13-1.39z" fill="#3a589b" fill-rule="evenodd"/>
    <path d="M6.574 6.015c.647-.32 1.293-.412 1.94-.388-.001-.675-.29-.823-.808-.55-.127-.474-.22-1.06-.68-.452-.242.44-.54.867-.452 1.39zM6.348 7.89l.84.388c-.035.49-.342.761-.808.906-.315-.24.03-.657-.032-1.294z" fill="#d40000" fill-rule="evenodd"/>
    <g stroke-width="1.045">
        <path d="M4.853 7.923c.757-1.023 1.61-2.532 3.09-2.42 1.431-.09 2.481 1.286 2.44 2.637.163 1.07.16 2.173.082 3.249-.728-.114-.044-1.467-.293-2.036-.075-1.235-.066-2.943-1.51-3.403-1.085-.433-2.212.196-2.767 1.154-.484.164-.55 1.35-1.042.819z"/>
        <path d="M6.299 5.777c.089-.613 1.221-2.456 1.466-1.049-.463.47 1.392-.412.795.803-.572.188-.007-.696-.62-.413-.77.546-.323-.916-.636-.514-.495.2-.396 1.759-1.005 1.173zM7.308 6.57c.101-.028.08.062-.02.002-.656.089.45-.703.371.232-.764.284-.672-.618-.304-.245zM7.867 5.778c.912.168.18 2.092.132.94.17-.514-.549-.543-.132-.94zM4.964 7.84c1.006-.396 2.731-.116 2.554 1.288-.335 1.605-1.787 2.736-2.113 4.367-.543 1.432-.738 3.064.046 4.454.65 1.463 1.74 2.848 3.294 3.379-.33.741-1.541-.494-2.01-.905-1.588-1.616-2.678-4.102-1.838-6.34.309-1.692 1.411-3.035 2.18-4.516.529-1.02-.574-1.823-1.525-1.51-.336.034-.564.283-.588-.217zM10.509 11.101c.99.464 2.381.29 3.356-.19 1.187-.144.204 1.45-.042 1.547.983 1.06-.965.652-.743 1.051-.02.406-1.21.747-1.206.43.051-.2.63-.416.876-.413-.174-1.062.674-.203.918-.561.204-.049-.753-1.135.329-1.183.187-.104.14-1.012-.106-.502-.808.408-3.643.76-3.382-.179z"/>
        <path d="M6.372 7.91c.548.216-.268 1.482.216 1.107.24-.256.35-1.038.713-.677-.058 1.103-1.67 1.48-1.092.057-.108-.332-.194-.295.163-.488zM12.502 11.274c.694-1.793 2.862-1.844 4.205-2.91.824-.852 1.182-.216.428.527-1.317 2.146-1.183 4.801-.677 7.168-.739.759.337 1.477-.136 2.286.27.504.207 1.398-.252 1.938-.4.377-.669.866-1.076 1.21-.847-.013-1.103 1.1-2.062.992-.524-.161-.946-.012-1.52.028-.75-.251-1.474 0-2.268-.453-.594-.12-.863-.943-.156-.497.407.252.97.42 1.392.563.557-.38 1.175.245 1.674.048.581-.202 1.237.138 1.788-.373.253-.76 1.241-.359 1.425-1.158.77-.457.782-1.267.995-1.898-.524-.442.213-1.427-.456-2.09.761-1.242-.405-2.818-.006-4.217a8.317 8.317 0 0 1 1.528-4.44c.444.556-1.557 1.23-2.196 1.554-1.118.162-1.93 1.424-2.57 1.747l-.06-.025z"/>
        <path d="M12.82 22.347c-.526.679.073 2.397-.7 2.555-.01-.844.1-1.948.45-2.586l.25.031z"/>
        <path d="M11.81 22.23c.052.77.576 1.447.601 2.235-.74-.067-.586-1.596-.936-2.2-.028-.088.276-.008.336-.035z"/>
        <path d="M11.753 22.924c-.023.507-.586 2.444-.61 1.065.218-.283.048-1.437.61-1.065z"/>
        <path d="M10.823 22.233c.18.739.44 1.485.64 2.21-.592.303-.448-.774-.69-1.136.026-.331-.647-1.18.05-1.074zM12.298 25.02c-.575.666-1.873.666-.61-.067.352-.157.462-.394.61.068z"/>
        <path d="M12.433 25.074c-.286.63-1.1 1.33-.598.183.247-.297.332-.644.598-.183z"/>
        <path d="M12.583 25.002c.321.8-.24 1.477-.33.272-.226-.408.164-.236.33-.272z"/>
        <path d="M12.292 24.781c.477-.75 1.364-.131.405.067-.1.343-.271-.01-.405-.067zM11.228 24.571c-.56-.153-.803 1.067-1.15.517.122-.356 1.096-1.333 1.15-.517z"/>
        <path d="M11.065 24.524c-.572-.37-1.17.349-1.6.256-.137-.467 1.074-.808 1.596-.622.313-.026.012.248.004.366z"/>
        <path d="M11.066 24.354c-.571-.53-1.526.185-1.772-.33.423-.423 1.91-.263 1.8.27l-.028.06zM11.27 24.206c1.25-.402.35.797.02.065l-.02-.065z"/>
    </g>
    <path d="M9.154 16.269c.025 1.092-.135 2.197.059 3.274-.645.007-.216-1.27-.355-1.744.197-.427-.28-1.577.296-1.53zm-1.43 3.264c.39.106 1.314-.412 1.382.07-.1.028-1.521.41-1.382-.07zm.074-3.137c.11 1.06.073 2.149.12 3.206-.663.031-.085-1.346-.297-1.831.175-.341-.412-1.522.177-1.375zm-1.22-.13c.46-.169 1.711.132.663.26-.258-.07-.784.196-.663-.26zm.089-1.254c.057.318.17 1.831-.211 1.182.195-.29-.396-1.414.21-1.182zm1.08.03c-.366.153-1.81-.04-.88-.238.27.103 1.053-.277.88.239zm2.378 1.339c-1.15.268-1.156-.382-.04-.257l.04.257zm.354-1.48c.054.507-.5 2.13-.398.857.106-.229-.069-1.162.398-.856zm-1.44-.056c.607-.228 2.072.229.718.24-.254-.102-.848.243-.718-.24zm1.274-1.223c-.712-.11-1.321.181-1.097.968-.118.946-.428-.102-.249-.658-.12-.613 1.52-.76 1.346-.31zm.258-1.282c-.127.33.145 1.48-.3 1.063.107-.237-.244-1.324.3-1.063zm-.232.132c-.84-.2-2.063-.133-2.338.866-.32.482.084 1.285-.353 1.611-.182-.228-.039-1.089.044-1.538.191-.945 1.217-1.43 2.102-1.26.242.057.738-.092.545.32z"/>
    <g>
        <path d="M11.869 8.4c-1 .626.172 2.25.827 1.066.864.284-1.421 1.502-1.412.214-.39-.32.137-2.135.585-1.28z"/>
        <path d="M12.513 7.565c.522.403.575 2.148 1.285 1.226 1.076-.146-.88 1.46-.918.183.039-.522-1.106-1.18-.367-1.409z"/>
        <path d="M13.34 7.08c.54.3.739 1.85.148.927-.086-.415-.788-.694-.147-.928zM14.635 6.454c-.627.741.174 2.241.898 1.102 1.082.225-1.209 1.45-1.339.333-.1-.372-.275-1.867.441-1.435zM15.116 5.858c.404.348 1.278 1.995.454 1.338-.056-.485-1.196-1.113-.454-1.338z"/>
        <path d="M16.123 5.26c.112.678-.976 1.836.111 1.241.549-.281 1.723.125.58.331-.845.237-1.916.127-1.172-.962.18-.388-.06-.677.481-.61zM12.697 6.535c.08.095.11.008.086.005-.26.925-.463-.953.278-.12.237.444-.564.789-.364.115zM16.331 4.21c.352.29 1.479 1.813.517 1.24-.116-.423-1.196-.942-.517-1.24z"/>
        <path d="M17.485 5.82c.29.431-.422-.047-.031-.195 1.148.196-.381 1.259-.265.29l.296-.095z"/>
    </g>
</svg>
