<svg xmlns="http://www.w3.org/2000/svg" viewBox="0 0 22.489584 26.458333" height="100" width="85">
    <path d="M9.106 9.513c-.13.73-.126 1.455-.696 2.197l-1.026.555c-.203.203-.673.206-.255.877.279.612.835 1.307-.276 1.505-1.013-.125-1.377-1.564-1.277-1.96.024-.22.106-.499.78-1.373 1.502.302 1.979-.976 2.75-1.801z" fill="#ff6464" fill-rule="evenodd"/>
    <path d="M5.765 1.378C5.623.664 4.648.328 4.243 1.023 3.307 2.275 3.066 3.872 2.197 5.17c.047 1.124 1.337.114 1.704-.353 1.003-.638.123.459-.334.72C2.596 6.76 1.195 5.3 2.303 4.299c.821-1.25.88-3.043 2.234-3.896.535-.437 1.916.59 1.228.976z"/>
    <path d="M5.662 1.367C6.707.568 8.295.732 9.21 1.658c-.516.419-1.149-.748-1.862-.481-.58-.26-1.479.689-1.685.19z"/>
    <path d="M9.022 1.583c.651-1.124 2.48-1.327 2.522.28.125 1.247.984 2.286 1.08 3.519-.606 1.021-2.165.194-2.488-.751-.168-.428-.728-1.44-.108-1.452.062 1.134.95 2.802 2.279 2.237-.086-1.206-.926-2.246-1.058-3.467.024-.93-.893-1.362-1.521-.629-.292.147-.405.733-.706.263zM4.92 3.177c-.671 1.39-.551 3.125.397 4.346-.608.474-.879-1.178-1.08-1.66-.073-.862-.076-2.516.62-2.727l.064.04zM5.633 6.125c.02-.125.008-.274.113-.365a.276.276 0 0 1 .309-.04c.162.08.25.27.24.446.001.13-.027.294-.159.356-.181.081-.396-.043-.465-.22a.387.387 0 0 1 .057-.387c.026-.018.063.035.094.048l.166.114c-.09.052.005.162.02.159-.048.03-.036.046-.026-.018.02-.074-.015-.204-.06-.214.058-.007.041-.067.022.01-.014.055.035.156-.056.126l-.255-.015zM5.114 4.365c.324-1.178 1.571.089.378-.155.069.443-.215.178-.378.155z"/>
    <path d="M5.257 7.546c.177 1.118-.086 2.39.623 3.355.954.769 2.202-.08 2.633-1.026.299-.248.552-1.391.917-.818-.736 1.01-1.336 2.556-2.848 2.449-1.185-.045-1.45-1.375-1.55-2.321.203-.463-.378-1.655.225-1.64z"/>
    <path d="M5.727 11.066c-1.03-1.34 1.039-.887 1.77-1.028 1.362.399-.994 1.542.079.5-.022-.483-1.13.1-1.538-.198-.736-.03.148.482-.311.726zM9.748 7.356c.017.641-.71 2.71-.538 1.134.114-.321-.006-1.538.538-1.134z"/>
    <path d="M9.455 8.978c-.454 1.179-.363 2.997-1.895 3.364-1.065.398.052.984.09 1.61.083.957-1.42 1.126-1.674.224-.834-.752-.65-2.183.265-2.792.542.451-.806.806-.48 1.465-.058.683.482 1.34 1.01 1.641.816.009.608-.925.134-1.257-.576-1.011.983-1.156 1.428-1.744.613-.674.32-2.407 1.122-2.511zM11.744 5.728c.894 1.713 1.489 3.696 3.124 4.898 1.586 1.8 3.425 3.449 4.542 5.599.666 1.917 1.65 4.064.739 6.063-.157.907-.839 1.641-1.702 1.929-.13-.624 1.29-.762 1.286-1.633.571-1.318.691-2.813.095-4.153-.411-2.247-1.862-4.054-3.39-5.666-1.327-1.71-3.322-2.923-4.06-5.046-.04-.475-1.282-1.876-.634-1.991z"/>
    <path d="M17.266 7.253c2.044 1.528 1.898 4.32 1.945 6.61.252.554-.287 2.358-.32.99-.001-2.192.214-4.572-.947-6.535-.04-.41-1.215-.7-.678-1.065z"/>
    <path d="M20.283 19.596c.019-2.193-.448-4.353-.69-6.52-.308-1.379-.54-2.792-1.192-4.06-.641-.911.201-.944.34.025.8 1.573 1.005 3.356 1.3 5.068.193 1.82.572 3.632.552 5.471l-.31.016zM14.52 21.636c.3.907.766 1.841 1.723 2.185-.324.513-.94-.24-1.248-.526-.162-.335-1.128-1.61-.475-1.66z"/>
    <path d="M16.203 23.822c.717.4 1.736-.04 2.324.11.083.415-.727.26-1.067.366-.337-.044-1.614.119-1.257-.476z"/>
    <path d="M18.616 23.987c1.255.832-.657 1.625-1.472 1.504-.996.09-2.008.02-2.976.281-.906.02-.492-1.036.046-1.328.37-.322 1.324-.937 1.53-.417-.576.186-1.609.544-1.84 1.344.462.246 1.444-.29 2.086-.106.882-.18 2.133.117 2.744-.672.07-.351-.419-.194-.118-.606z"/>
    <path d="M12.154 22.23c.63.902 1.63 1.737 2.805 1.688-.067.64-1.229.091-1.67-.154-.42-.415-1.581-.99-1.203-1.496l.068-.038zM7.79 14.055c.853 1.315.868 2.982 1.4 4.435.335 1.524.54 3.076.875 4.596-.328 1.022-.47-1.225-.658-1.698-.265-2.19-.916-4.299-1.47-6.418-.011-.367-.55-.638-.147-.915zM9.853 16.359c.187 1.36.755 2.662.901 4.03.07.81.454 1.597.463 2.434.372 1.035-.405 1.217-.301.075-.05-1.078-.54-2.066-.522-3.147-.257-1.056-.874-2.522-.737-3.403l.117.006.079.005z"/>
    <path d="M11.459 16.059c.359 1.851.472 3.737.738 5.603.13.833.21 1.717.404 2.525-.76.297-.318-1.437-.637-1.932-.31-2.047-.403-4.141-.812-6.18l.307-.016z"/>
    <path d="M12.63 24.266c.717.596-.19 1.923-.75 1.302.13-.222 1.048-.237.63-.803-.175-.223-.399-.655.12-.499zM11.642 25.019c-.98.798.053.306.293.685-.855.871-1.338-1.093-.345-.742l.052.057z"/>
    <path d="M11.092 24.911c-.788.406.577 1.276-.592.707-.167-.292.31-1.31.592-.707z"/>
    <path d="M11.361 23.726c.018.412-.435 1.712-.551.952.286-.267-.031-1.298.551-.952zM10.44 25.432c-.843.602-1.688-.308-.583-.82.815-.01-.934.92.021.673.31-.026.544-.367.561.147z"/>
    <path d="M10.065 23.504c-.134.631-.635 1.118-1.146 1.47-.056.28.986.431.216.563-1.16-.341-.026-1.09.372-1.537.234-.176.234-1.228.558-.496zM14.533 24.404c-.624-.3-1.747.282-2.02-.26.582-.106 1.97-.386 2.02.26zM7.749 6.069c.072-.105.124-.245.259-.282a.276.276 0 0 1 .295.096c.112.142.11.351.026.506-.054.119-.15.255-.296.253-.199-.003-.34-.208-.326-.396a.387.387 0 0 1 .218-.327c.03-.005.042.06.064.084l.101.174c-.103.009-.065.149-.05.153-.056.006-.052.026-.016-.028.05-.058.074-.19.038-.22.055.02.066-.041.015.02-.036.043-.035.155-.104.09-.074-.042-.15-.083-.224-.123zM7.782 4.187c.83-.897 1.354.802.407.036-.142.425-.273.059-.407-.036z"/>
    <g stroke-width=".892">
        <path d="M9.405 12.457c.238.7-.795 2.363.44 1.942 1.095.53-1.727.818-.971-.398.36-.464-.3-1.79.531-1.544z"/>
        <path d="M10.48 12.517c.318.614-.459 2.186-.438.958.177-.442-.305-1.138.438-.958zM12.077 12.735c-1.045.304-1.228 2.201.155 1.586.87.882-2.028.605-1.457-.518.137-.41.9-1.915 1.302-1.068zM12.896 12.477c.161.575-.044 2.656-.406 1.531.249-.488-.427-1.781.406-1.531z"/>
        <path d="M14.207 12.542c-.316.703-2.05 1.11-.666 1.229.687.078 1.532 1.185.336.67-.936-.303-1.868-1.071-.498-1.627.408-.251.363-.67.828-.272zM10.217 11.61c.015.137.097.075.077.057-.817.703.158-1.177.333.06-.054.562-1.016.387-.41-.118zM15.053 11.691c.147.49.256 2.61-.287 1.48.154-.468-.533-1.622.287-1.48z"/>
        <path d="M15.132 13.91c.004.584-.365-.305.091-.2.951.894-1.136.938-.427.106l.336.094z"/>
    </g>
</svg>
