<svg xmlns="http://www.w3.org/2000/svg" viewBox="0 0 22.489584 26.458333" height="100" width="85">
    <path d="M4.06 16.03c.296-.66.88-1.014 1.707-1.106-.237-1.025-.62-.94-1.045-.547-1.808-.635-.537 1.03-.662 1.653zM4.766 18.688c.433-.035.466-.73.79-.95-.162.753.288 1.294-.083 1.653-.37.305-.444-.463-.707-.703z" fill="#d20000" fill-rule="evenodd"/>
    <path d="M6.69 15.48a9.233 9.233 0 0 1 3.9-2.088c1.747-.37 3.525-.452 5.307-.43.645-.152 1.647-.556 1.789.419.211.56-.18 1.079-.71 1.16.255.364-.332.985-.85.758-.369.08-.022 1.023-.705.97-.181.4-.707.218-.904.566-.265-.214.064-.502.591-.573.157-.32.679-.507.597-1.073.384-.316 1.2-.04 1.011-.815.39-.224.883-.465.637-1.019-.176-.754-1.03.027-1.533-.067-2.08-.059-4.2 0-6.197.647-1.007.371-2.169 1.303-2.934 1.546z"/>
    <path d="M17.495 13.099c1.374-.93 3.326-.713 4.5-1.993.474-.714.65.117.287.614-.35.417-.522.825-.396 1.388.089.69-1.084.803-.676 1.563.472.686-.578 1.74-.982 1.327.135.547-.362 1.4-.366 2.077-.184.715-1.178.78-.43 1.773.593.87-1.383 1.306-.893.633 1.423.06-.555-1.943.777-2.139.489-.534.325-1.865.791-2.58.406.39 1.089-.48.754-1.082-.456-.868.86-1.096.65-1.888-.17-.729.594-1.092.686-1.784.69-.193-.009.386-.377.67-1.182 1.01-2.91.794-4.177 1.627l-.148-.206zM4.414 17.497c.36-.081.395-1.251.687-.617-.049.27-.424 1.205-.687.617zM5.737 17.817c-.509.533.477 1.276-.236 1.75-.616.578-1.145-1.13-.49-.675.031.915.8.029.318-.392-.17-.16.118-1.22.408-.683zM2.62 19.985C2.204 20.678 1.246 22.431.533 22c.938-.313 1.417-2.018 2.087-2.015z"/>
    <path d="M.337 20.348c.767.996 2.15 1.765 2.804 2.658-1.122-.452-1.906-1.475-2.813-2.249-.051-.148-.451-.306.009-.409zM1.214 20.014c.726 1.122 2.744 2.028 3.201 2.635-1.122-.368-3.25-1.68-3.201-2.635z"/>
    <path d="M3.564 20.234c-.525.837-1.31 2.79-2.069 2.675.864-.639 1.316-2.455 2.069-2.675zM4.774 20.84c-.544.778-1.683 2.453-2.224 2.42.837-.575 1.496-2.245 2.224-2.42zM6.252 20.895c-.623 1.239-1.595 2.403-2.71 3.17.908-.953 1.963-2.506 2.71-3.17zM5.044 21.274c-.516.988-2.073 2.715-2.663 2.586 1.12-.55 1.925-2.14 2.663-2.586z"/>
    <path d="M1.724 21.682c1.622 1.492 3.736 2.272 5.718 3.11-1.686-.114-3.24-1.151-4.697-1.988-.195-.28-1.502-.808-1.021-1.122zM4.698 21.299c-.094 1.223 2.304 2.102 2.104 2.299-.933-.126-2.665-1.565-2.104-2.3z"/>
    <path d="M8.685 21.798c-1.302 1.114-2.176 1.88-3.59 3.082-.975.378 1.258-1.2 1.584-1.555.666-.362 1.428-1.684 2.006-1.527z"/>
    <path d="M3.635 23.686c.798-.053 3.24-.72 3.084-.495-.942-.02-2.526 1.007-3.084.495zM9.118 21.169c-1.575.868-3.134 1.826-4.867 2.343.788-.866 2.628-1.11 3.731-1.928.318-.005 1.033-.98 1.136-.415zM2.733 24.399c2.194.616 4.575.457 6.801.397-1.982.64-4.148.261-6.184.042-.103-.077-1.105-.113-.617-.439zM11.742 22.562c-1.032 1.8-3.359 1.597-5.11 1.331-.79-.475 1.722.039 2.21-.132 1.28.326 2.183-1.298 2.9-1.199z"/>
    <path d="M6.17 21.429c1.408 1.2 2.779 2.511 4.456 3.324-1.123.3-2.209-1.23-3.197-1.851-.294-.4-1.787-1.057-1.259-1.473zM8.982 21.366c.11 1.605 2.483 2.615 3.01 3.12-1.295-.073-3.717-2.076-3.01-3.12z"/>
    <path d="M15.13 21.742c-1.356.711-2.576 1.962-3.61 2.718-.698.746-1.834.979-.505.064 1.358-1.012 2.58-2.213 3.998-3.137l.116.355zM7.872 24.992c.96.08 3.178-1.105 3.213-1.088-.762.64-2.484 1.447-3.213 1.088zM11.148 21.619c-.464.757-2.178 2.485-2.433 2.127.868-.46 1.722-2.217 2.433-2.127z"/>
    <path d="M7.825 21.66c1.958.03 3.6 1.15 5.243 2.064.777.303 2.717.799.744.528-1.9-.469-3.277-2.179-5.308-2.3-.193-.141-.91.208-.68-.292zM16.888 22.647c-1.56.51-3.274-.006-4.812-.408-1.391-.859 1.905.358 2.592.279.692.309 1.803-.36 2.22.13z"/>
    <path d="M11.196 21.439c.589.423 3.866 1.263 1.687.774-.426-.25-1.804-.273-1.687-.774zM17.944 21.427c-1.853 1.129-3.542 2.504-5.243 3.842.851-1.336 2.678-2.249 3.976-3.342.385-.048 1.035-1.212 1.267-.5zM14.225 22.347c.815-.012 2.83-2.71 1.691-.9-.425.258-1.347 1.34-1.69.9z"/>
    <path d="M15.979 20.634c-.873 2.043-2.765 3.567-4.837 4.212 1.88-.996 3.794-2.269 4.616-4.329l.22.117zM10.144 24.693c.875-.467.305.478 0 0z"/>
    <path d="M11.128 21.114c1.195.79 2.716 1.414 3.762 2.235-1.4-.437-2.594-1.338-3.9-1.98l.138-.255zM13.352 20.6c1.158 1.219 2.757 1.897 4.342 2.357-1.537.171-3.348-1.057-4.574-2.133l.232-.223z"/>
    <path d="M19.469 21.563c-1.64 1.134-3.395 2.416-5.373 2.744 1.639-.793 3.328-1.566 4.778-2.711.212-.066.475-.648.595-.033z"/>
    <path d="M14.35 24.071c1.051.287 3.262-.737 3.459-.842-.71.758-2.855 1.365-3.459.842zM19.889 21.163c.13 1.19-2.174 2.55-2.292 2.369 1.084-.462 1.658-1.966 2.292-2.369zM21.614 21.301c-.305.76-2.221 1.948-.838.614.332-.114.439-1.162.838-.614zM17.462 21.602c.722-.193 2.6-1.78 2.563-1.462-.753.498-1.876 1.477-2.563 1.462z"/>
    <path d="M20.962 19.629c-.532.976-1.52 2.394-2.518 2.522.94-.652 1.75-2.344 2.518-2.522zM17.738 20.52c-.724.78-3.114 2.44-3.212 2.153 1.147-.375 2.351-2.388 3.212-2.152zM14.728 20.147c-1.15 1.06-2.75 1.485-4.178 2.049-1.948.288 1.202-.642 1.722-.941.871-.142 1.797-1.283 2.456-1.108zM8.358 21.542c.8-.072 3.009-.957 2.956-.701-.827.161-2.465 1.191-2.956.701z"/>
    <path d="M12.556 20.127c-.751.52-2.735 1.489-2.969 1.214 1.041-.065 2.253-1.308 2.97-1.214zM1.583 18.15c.486.822 2.184 2.247 2.305 2.453-.844-.492-2.42-1.628-2.305-2.452zM.264 18.521c.754 2.091 3.183 2.6 4.97 3.5-1.518-.437-3.278-1.056-4.51-2.203-.181-.253-1.195-1.279-.46-1.297zM20.914 18.808c-1.437 1.189-3.09 2.159-4.663 3.123 1.383-1.245 3.042-2.136 4.437-3.364l.226.24zM15.138 23.091c.686-.138 4.104-.85 1.81-.22-.501-.024-1.567.564-1.81.22zM21.522 21.106c-1.184.817-3.025 2.14-4.072 2.289 1.256-.8 2.983-1.944 4.072-2.289zM17.034 23.944c.936-.17.128.3 0 0zM13.238 24.71c.97.386 3.265-.75 3.386-.356-.779.288-3.177 1.262-3.386.357zM19.787 23.71c-.68.55-3.078 1.125-1.119.31.309.054 1.025-.85 1.12-.31z"/>
    <path d="M12.381 23.032c.843.942 3.58.89 3.747 1.24-1.153.134-3.616-.2-3.747-1.24zM1.462 22.736c1.661.753 3.286 1.67 5.103 1.979-1.648.219-3.199-.968-4.718-1.556-.098-.162-.795-.093-.385-.423zM6.414 22.719c.518 1.452 2.414 1.788 3.21 2.793-1.153-.426-3.473-1.637-3.21-2.793zM7.393 20.527c-.522.837-2.466 2.694-2.655 2.538.954-.656 1.895-2.275 2.655-2.538zM6.771 15.495c-.76-.529-1.921-.502-2.421.368-.57.922-.452 1.714-.543 2.755-.129.35-.069.776-.249 1.09-.305-.443.586-.713.94-1.005.331-.217.343.238.038.292-.36.202-.694.468-1.014.737-.313-.162-.123-.311-.107-.69.286-1.152.003-1.47.27-2.383.238-1.147 1.447-2.215 2.632-1.651.114.145.793.185.454.487z"/>
    <path d="M3.875 15.942c-.409-.515-.465-2.395.616-1.734.345.267.578-.6.987-.125.369.273.473 1.223-.024.452-.036-.302-.462-.524-.544-.117-.37.45-.842-.57-1.082.14-.13.418.539 1.317.047 1.384zM3.756 17.11c-1.248.43-1.868 1.971-1.78 3.215-.117.415 1.192 1.728.371 1.453-.615-.824-.86-1.892-.446-2.874.26-.64 1.164-2.256 1.855-1.793zM8.055 15.916c-.183.616 1.058 1.708.37 2.063-.27-.455-1.032-1.963-.37-2.063zm1.085-.39c-.053.52.936 2.524.25 2.172-.041-.568-.854-1.944-.25-2.172zm-.873 1.33c.287-.143.857-.706.933-.112-.207.14-.858.736-.933.112zm1.569-.822c-.167.577.688 1.027.815.39.05-.439-.447-.91-.74-.503-.288 1.102-.61-.705.318-.526.866.033 1.138 1.815.007 1.693-.448.13-1.024-1.114-.4-1.054zm1.527.979c0-.503-.58-1.716-.285-1.837.099-.04.294.04.638.306.316.328-.249-1.33.504-.427.003.585 1.582 1.368.623 1.475-.64-.208-.87-1.518-.703-1.231.246 1.165-1.326.161-.885-.06-.03.1.861 1.762.108 1.774zm2.401-2.615c-.78.284-1.14-.08-.665.706.218.196.155.844.509.56.965-.202-.14.85-.512.278-.196-.509-.727-1.116-.413-1.651.312-.032 1.197-.554 1.081.107zm-.658.683c1.323-.871.45.957 0 0z"/>
</svg>
