<svg xmlns="http://www.w3.org/2000/svg" viewBox="0 0 22.489584 26.458333" height="100" width="85">
    <path d="M13.999 3.461s-.288-1.223-.54-1.18c-.368-.043-.295.323-.29.327-.198-.06-.39-.168-.606-.086l-.136.55c-.488.052-.382.308-.356.536.628-.237 1.264-.375 1.928-.147zM15.092 6.064c-.56.357-.378.738-.166 1.234l-.354.196c-.358-.321-.46-.718-.289-1.279z" fill="#d20000" fill-rule="evenodd"/>
    <path d="M12.266 22.223c.667.067 1.335.003 1.996.673.395-.55.453-1.283 1.48-1.484.638.051 1.235.167 1.152 1.368-.392.79-1.03 1.216-1.76 1.507-.665.055-.7-.21-.927-.376-.914.622-1.722.62-2.556.774.21-.793.45-1.435.615-2.462zM11.538 22.36l.015 2.31c-.632-.007-.743-.24-.939-.473.133-.475.294-.872.364-1.524.186-.127.369-.394.56-.313zM10.241 22.926c-.512.557-.56.87-.935 1.103-.924.096-.976-.484-1.317-.841-.148-.557-.326-1.11.376-1.802.435.153.861.333 1.379.254-.018.275.258.795.497 1.286z" fill="#deaa87" fill-rule="evenodd"/>
    <g stroke-width=".973">
        <path d="M8.482 21.29c-.88.326-.867 1.376-.483 2.07.21.6.926 1.021 1.515.662.28-.25 1.01-.956.67-1.111-.335-.105-.464.934-.99.952-.7.13-1.095-.652-1.21-1.21-.22-.53.274-1.061.597-1.258-.003-.042-.083-.054-.099-.106zM12.34 22.093c-.25.486.897.126 1.16.443.551.115 1.09.988.496 1.375-.814.5-1.824.688-2.768.581-.26.055-.583-.645-.641-.294-.091.466.682.649 1.077.599.877-.005 1.796-.195 2.52-.7.631-.39.235-1.314-.22-1.6-.493-.261-1.067-.374-1.624-.404zm-.837.145c-.53 0-.845 1.135-.25.396.247-.165.27-.128.25-.396z"/>
        <path d="M14.227 22.737c.306-.74.966-1.534 1.85-1.41.758.017 1.026.967.864 1.588-.35.951-1.406 1.59-2.406 1.454-.377-.103-.426-.67-.056-.403.261.322.75.074 1.08-.02.661-.305 1.337-.968 1.118-1.768-.138-.865-1.288-.706-1.703-.169-.263.148-.663 1.397-.747.728zM11.79 7.484c1.11.881 1.86 2.111 2.714 3.234.4.681.893 1.396.842 2.218.147.334.284 1.659-.162.804-.193-.657-.02-1.383-.44-1.966-.432-1.013-1.185-1.855-1.828-2.735-.173-.61-1.39-1.048-1.126-1.555z"/>
        <path d="M15.524 12.987c.564.616 1.197 1.217 1.537 1.992.183.576.258 1.383.313 2.055.042.671-.063 1.437-.62 1.89-.326.379.18 1.044-.469 1.304-.29.331-.64.52-1.065.479-.167.635-.88.371-1.332.726-.719.386-1.608.189-2.42.38-1.2 0-2.562.207-3.563-.611-.562-.434-1.367-.532-1.695-1.244a8.527 8.527 0 0 1-.653-1.84c-.181-.518.343-1.116.292-.221-.033.537.366.979.426 1.515.222.64.787 1.056 1.408 1.27.599.448 1.26.857 2.043.853.968-.044 1.982.147 2.907-.202.762.34 1.232-.407 1.96-.38.385-.066.403-.831 1.059-.545.095-.251.854-.462.73-.916-.24-.832.992-1.272.712-2.189a11.603 11.603 0 0 0-.226-2.155c-.261-.749-.91-1.321-1.422-1.935-.21-.051.032-.177.078-.226zM11.927 7.654c.006 1.196-.589 2.287-1.071 3.35-.394.787-.881 1.5-1.528 2.103-.458.713-.68.045-.137-.282 1.111-1.064 1.724-2.527 2.251-3.947.298-.311-.09-1.414.485-1.224z"/>
        <path d="M12.698 3.616c-.947.08-1.567.908-2.308 1.406-.717.96-1.605 1.792-2.19 2.852-.491.72-1.063 1.374-1.338 2.21-.403.647-.497 1.408-.788 2.092-.286.589-.47 1.224-.61 1.863a14.271 14.271 0 0 1-.158 1.662c-.106.568.118 1.352.781 1.435.331.118.789.13.807-.316.199-.366-.608-.759.13-.938.124-.455-.278-.745-.06-1.14-.314-.292-.556-1.044.01-1.093-.561.576.825 1.168-.007 1.593-.06-.671.764.753.115.88-.324.091.397.632-.036 1.021-.238.518-.89.28-1.303.174-.788-.392-.78-1.354-.62-2.118.077-.736.048-1.503.36-2.193.164-.69.599-1.265.684-1.979.245-.668.63-1.286.866-1.955.654-.774 1.138-1.65 1.735-2.46.617-.637 1.09-1.409 1.762-1.99.588-.325 1.644-1.558 2.168-1.006z"/>
        <path d="M12.686 3.413c.656-.26 1.424-.164 1.775.435.392.589.749 1.248 1.29 1.723.218.117.754.148.602.495-.599.182-1.246.172-1.874.149.059-.538 1.13-.128 1.586-.321.386.286-.454-.053-.72-.349a15.975 15.975 0 0 1-1.2-1.727c-.37-.379-1.006-.414-1.467-.206l-.28-.134z"/>
        <path d="M13.991 4.816c.793.604-.793.755-.299-.001.602-.17.329.187.19.258.31.265-.234-.078.11-.257zM13.856 4.316c-.62-.208-.525 1.388-.754.4-.162-.396.837-.988.754-.4zM13.855 3.302c-.013-.367-.293-.862-.581-.892.187.324-.418.309-.612.261-.095.205-.06.51-.367.53.003.434-.562.25-.212-.145.24-.239.319.001.281-.332.065-.472.505-.329.706-.24-.154-.405.746-.365.832.153.065.19.386.736-.047.665zM14.607 6.1c-.67.149-.737.982-.804 1.54-.033.747-.153 1.517.167 2.225-.336.342-.38-.388-.434-.608-.113-.397.034-.962.02-1.423.062-.653.113-1.569.798-1.855l.2-.064.053.186zM11.562 21.784c.07.996.177 1.982.104 2.982.157.263-.167.604-.246.266-.007-.915.06-1.824-.066-2.738.06-.215-.223-.636.208-.51z"/>
        <path d="M12.663 21.569c-.47.87-.525 2.115-.842 3.041.07.513-.21.688-.152.668-.397-.379.187-1.347.245-1.9.114-.422.264-1.916.75-1.81zM9.797 21.762c.512.607.559 1.336.705 2.072-.132.344.304 1.302-.244 1.243-.017-.707.07-1.449-.162-2.145.078-.425-.657-.936-.3-1.17z"/>
        <path d="M11.263 21.779c-.266.867-.23 1.805-.657 2.624-.027.124-.083 1.169-.338.704-.011-.645.423-1.321.512-1.964.147-.37.05-1.443.483-1.364z"/>
        <path d="M10.53 25.13c.324.493-.304.998-.228.203-.175-.214.13-.186.228-.202zM11.804 25.102c1.194 1.125-.668.325 0 0z"/>
        <path d="M10.305 25.262c-.483-.12-1.568-.086-1.52.005-.204-.484 1.07-.31 1.448-.233l.125.022-.053.206z"/>
        <path d="M10.232 25.044c-.379-.422-.725-.484-.487-.647.143.102.888.496.487.647zM10.431 25.014c.38-.56.895-.268.265-.028l-.185.172-.152-.062zM11.515 25.199c-1.127-.233.169-.575 0 0zM11.744 24.984c.991-.647.261.604-.032.067zM15.076 6.254c-.675.349.289.92-.217 1.262-.552.32-.898-.62-.528-.946.293-.06-.111.546.164.722.227.231.434-.155.22-.287-.286-.192.114-1.117.36-.751z"/>
    </g>
    <path d="M2.568 12.424c.463.457 2.198.113 1.999.81-.235.154-.623.083-.766-.083-.316-.168-1.752-.118-1.233-.727zm-.067.62c-.559-1.199 1.514-2.004 1.743-.704-.485 1.303-.15-.989-1.21-.256-.564.11.027 1.07-.533.96zm1.145-2.099c.323 1.096 2.065.226.827-.314-.567-.375-1.23 1.172-1.005.024.493-.815 2.27-.251 1.688.777-.251.903-2.058.023-1.51-.487zm.318-1.4c.505.09 2.391.943.984.716-.243-.174-1.367-.306-.984-.716zm-.182.366c-.843-1.572 1.68-1.648 1.234-.037-.687.033.484-.753.931-.776.63.539-.83.469-.986.926-.524.07-.35-1.646-.947-.838-.236.257.349.721-.232.725zm1.337-2.088c.584.331 1.465.386 1.398.893-.41-.131-1.709-.369-1.398-.893zm-.544.702c.357-.302.274-1.19.747-1.272.311.205-.235.736-.309 1.075-.12.137-.145.646-.438.197zm2.201-.473c-.39-.557-1.036-.916-1.57-1.208-.02-.35.976-1.449.92-.849.249.089-.677 1.152-.632.592.62.202 1.153.717 1.574 1.224l-.133.136-.159.105zm-.518-1.018c.563-.938.657.683 0 0zm.793-.975c-.227.605.917.424.582-.013-.374-.564-.572.119-.853.142-.352-.917 1.257-.93 1.27-.058.142 1.264-2.176.308-1-.071zm.323-1.262c.448.2.813.527 1.199.824-.25-.048.371-.525.468-.727.648.167-.392 1.306-.758.989-.25-.365-1.208-.668-.91-1.086zm.86-.502c.35.219.384.271.428.324.06.07.225.174.097.296-.275.188-1.028-.444-.525-.62zm-.717-.072c-.02-.113.168-.719.467-.133-.245.487-.405.272-.467.133zm.983-.627c.165.389.685.79 1.035.36.125-.303-.259-.69-.516-.82-.612.036-.535.54-.412.877-1.039-.089-.226-1.474.536-1.233.577.226 1.178 1.22.44 1.613-.54.298-1.08-.146-1.309-.636l.226-.161z"/>
</svg>
