<svg xmlns="http://www.w3.org/2000/svg" xmlns:xlink="http://www.w3.org/1999/xlink" width="840" height="710" viewBox="0 0 222.25 187.85416">
    <defs>
        <linearGradient id="d">
            <stop offset="0" stop-color="#5d6c53"/>
            <stop offset="1" stop-color="#5d6c53" stop-opacity="0"/>
        </linearGradient>
        <linearGradient id="c">
            <stop offset="0" stop-color="#5d6c53"/>
            <stop offset="1" stop-color="#5d6c53" stop-opacity="0"/>
        </linearGradient>
        <linearGradient id="b">
            <stop offset="0" stop-color="#5d6c53"/>
            <stop offset="1" stop-color="#cec0b7" stop-opacity="0"/>
        </linearGradient>
        <linearGradient id="a">
            <stop offset="0" stop-color="#fff" stop-opacity="0"/>
            <stop offset="1" stop-color="#fff"/>
        </linearGradient>
        <linearGradient gradientUnits="userSpaceOnUse" y2="96.936" x2="49.034" y1="100.71" x1="46.555" id="e" xlink:href="#a"/>
        <linearGradient gradientTransform="translate(6.815)" gradientUnits="userSpaceOnUse" y2="102.202" x2="41.837" y1="89.026" x1="60.027" id="f" xlink:href="#b"/>
        <linearGradient gradientTransform="translate(6.815)" gradientUnits="userSpaceOnUse" y2="93.22" x2="44.159" y1="84.423" x1="48.276" id="g" xlink:href="#c"/>
        <linearGradient gradientTransform="translate(6.815)" gradientUnits="userSpaceOnUse" y2="76.49" x2="102.762" y1="43.244" x1="106.947" id="h" xlink:href="#d"/>
    </defs>
    <g stroke-width="1.49">
        <path d="M166.013 82.021s-12.366 10.845-16.742 16.172c-4.376 5.327-15.981 19.596-15.981 19.596s19.976-19.216 26.635-20.928c6.66-1.712 17.884-8.562 17.884-8.562-2.424 1.515-6.563-8.979-6.088-7.99 2.266 4.719-4.598 3.043-5.708 1.712z" fill="#00c8e1" fill-rule="evenodd"/>
        <path d="M79.257 94.958c.952 0 10.464-3.234 20.167.19 9.703 3.425 26.446 2.474 31.012 1.713 4.566-.761 13.888-5.137 14.84-5.518 5.18-11.122-8.309-12.485-9.894-11.605 0 0-25.37 3.344-31.392 4.186-11.324 1.582-24.736 11.034-24.733 11.034z" fill="#917c6f" fill-rule="evenodd"/>
        <path d="M99.234 107.515s-3.615 4.376-8.942 5.327c-5.327.952-12.366-1.332-14.84-3.234-2.473-1.903-9.512-3.044-11.415-.57-1.903 2.472 8.371 9.322 8.371 9.322s-13.318-.952-16.552.57c-3.234 1.522-3.615 2.854-3.615 2.854l-13.888-6.659s14.078-8.751 17.693-10.844c3.615-2.093 9.703-3.996 14.84-3.044 5.137.951 10.084 5.517 11.035 6.468.951.952 6.088 2.283 8.752.19 2.663-2.092 8.561-.38 8.561-.38zM115.025 141.76s2.474 8.753 3.996 10.845c1.522 2.093 11.795 6.47 11.795 6.47s-9.703-2.094-11.605-.762c-1.903 1.332-4.376 4.186-4.376 4.186s-5.327-3.615-8.752-3.615c-3.424 0-10.083 1.141-10.083 1.141s5.327-6.278 9.512-7.61c4.186-1.332 5.708-2.283 5.518-4.756-.19-2.473-2.093-5.518-2.093-5.518 1.77-.3 2.916-1.015 6.088-.38z" fill="#00c8e1" fill-rule="evenodd"/>
        <path d="M169.819 70.606s1.712-2.093 5.707-1.522c3.996.57 8.371 7.04 8.371 8.37 0 1.333-.507 7.188-.507 7.188l-9.576-1.099-13.318.19z" fill="#fff" fill-rule="evenodd"/>
        <g stroke-width=".573">
            <path d="M180.693 74.087c-4.445-4.554-11.295-3.642-16.452-1.257-2.283 1.053-4.104 2.29-6.313 3.642-1.384.471-.581.72-3.421 1.577-.79.602-3.78 1.042-5.612 1.815-5.374.806-10.95.879-16.283 1.906-10.653.322-21.558-1.048-31.947 1.532-1.585.558-6.705 1.837-8.595 2.868-2.137.621-1.884 1.41-4.564 2.685-1.335 1.682-2.991 1.352-4.167 3.359-2.189 1.812-2.122 1.543-3.905 3.056-2.703 1.396.682-1.509 1.56-1.813.081.116 3.504-3.525 4.025-3.305 2.293-1.828 3.67-2.348 5.265-3.745 1.335-.846 7.769-3.055 10.637-3.815 13.32-3.024 27.272-.11 40.594-2.688 4.665.187 9.995-1.11 12.712-2.333 2.084-.494 3.668-1.737 4.827-2.4 1.532-1.185 4.288-2.301 5.79-3.263 4.775-2.515 14.336-2.482 15.849 2.18z"/>
            <path d="M79.472 96.29c6.559-4.044 14.541-1.589 21.339.527 10.025 1.662 20.76 3.109 30.595-.116 4.688-1.682 7.474-3.346 10.771-5.457.058 1.272-4.25 2.763-6.535 4.422-11.233 5.322-24.103 3.659-35.947 1.645-6.062-3.236-16.177-2.652-20.223-1.022z"/>
            <path d="M107.7 97.235c-8.429-1.541-16.918-5.067-25.548-3.263-6.071.489 7.892-2.246 10.672-.748 4.571 1.078 12.366 2.247 14.877 4.011z"/>
            <path d="M81.974 92.952c3.195-1.546 16.213-.43 13.624.559-3.95-1.314-11.597-.028-13.624-.56zM119.948 80.111c2.735-4.476 8.662-7.41 11.598-10.164 2.363 1.155-8.64 4.767-10.805 7.274-2.887 1.663-5 2.907-6.822 3.518-4.215 1.152-1.76-.584.255-.638 4.012-1.48 7.067-4.277 11.866-6.667 3.953-2.397 8.08-4.135 4.494-2.26-2.995 2.893-7.83 6.127-10.586 8.937zM83.067 96.66c-3.016 2-3.686 12.25-3.178 3.637.494-1.095 1.999-4.292 3.178-3.637zM39.013 115.22c3.977-.564 7.358.989 10.154 3.645 2.58 2.885.723 3.288-.946.22-2.133-3.418-8.016-2.797-9.208-3.865zM51.15 120.467c3.955-4.826 10.832-3.512 15.965-1.765 5.758 1.094-.571 1.283-3.182-.01-4.476-2.255-9.878-.357-12.784 1.775zM68.84 117.73c-.825-2.67-5.354-6.839-3.278-8.505 3.34-3.665 7.875-.467 11.285 1.256 4.268 3.523 10.542 2.295 15.543.836 2.787.107 7.915-6.32 6.423-3.513-3.03 3.665-10.64 6.154-16.669 5.388-5.405.213-9.156-6.446-14.76-4.637-3.114.473-1.002 3.475.617 6.37.181.502 2.573 2.984.839 2.804z"/>
            <path d="M99.37 106.264c.986 4.097-2.229.873 0 0z"/>
            <path d="M98.177 105.411c2.581 3.103-.851 2.512 0 0z"/>
            <path d="M96.91 105.365c5.726 5.335.037 2.018 0 0zM59.958 105.376c-3.086-.017-11.318 9.04-9.381 5.953 2.392-1.78 7.757-7.775 9.38-5.953z"/>
            <path d="M53.597 115.127c-2.882 10.652.234-11.89.674-2.683-2.175 1.993.858-6.068-.365-.061-.514 3.616-2.648 8.948-.69 2.569l.382.175z"/>
            <path d="M40.46 113.663c4.48-2.11 8.974-4.522 12.384-7.139 2.091-1.041 2.788-1.659 5.933-2.909 6.14-1.567 12.965-1.793 19.176-.241 3.238.992 6.3 3.03 8.787 4.571 1.422-.242 2.207-2.755 5.542-2.868 2.483-.995 5.635-.482 7.452 1.463-1.485.416-4.625-2.532-7.235-.98-3.084.915-3.472.671-4.73 2.655-2.759.82-4.792-2.571-7.66-3.178-6.266-3.234-14.88-1.844-20.69-1.183-2.789 1.208-4.777 2.093-6.813 3.514-3.187 2.25-9.703 6.245-12.146 6.295zM79.805 113.583c2.398 5.453 1.453 12.492 6.338 16.583 3.767 3.756 7.93 7.595 13.404 8.176 4.723 1.164 9.543 1.955 14.454 1.486.386.96-6.983 1.006-9.971.23-5.505-1.128-11.406-2.161-15.381-6.526-4.055-3.216-7.527-7.383-7.503-12.834-.106-1.642-2.857-6.453-1.34-7.115zM146.704 111.644c-1.998 5.225-2.754 11.751-7.014 15.801-2.121 3.101-6.655 7.334-10.688 9.628-1.254 1.002-3.125 1.847-6.655 2.801-5.761 1.89-3.81-.321 1.48-.985 4.111-1.55 4.063-1.354 7.125-3.763 2.883-1.95 5.41-4.084 7.667-7.309 2.504-1.91 4.836-7.46 5.998-11.707.734-.9.092-5.255 2.087-4.466z"/>
            <path d="M80.65 120.434c.873 3.526 4.954 14.775.755 5.79.501-1.439-2.49-5.532-.756-5.79zM82.658 120.94c-.953 5.093 9.159 11.033 7.361 12.32-4.773-1.983-7.716-15.216-3.147-4.532 3.939 4.38 4.564 6.201-.253.976-2.103-1.583-5.427-6.92-3.96-8.764z"/>
            <path d="M88.056 129.071c4.738 4.068-.542 2.818 0 0zM177.634 71.13c3.815 2.51 6.493 6.635 5.426 11.492.048 3.897-2.533 5.225-2.574 4.457 1.311-.16 2.122-3.622 1.85-6.55 1.471-4.26-4.393-7.277-4.702-9.399zM167.62 93.955c-3.37.866-12.51 9.2-11.62 6.816 3.409-2.212 9.336-6.95 11.62-6.816z"/>
            <path d="M170.57 92.796c-4.719 3.162-4.854 1.208.3-.29l-.3.29zM168.808 76.854c-.614-1.84-5.105.423-4.64 3.282.36 1.94 4.297 3.268 4.797 2.648 1.16-3.05 2.614-4.093 1.326-.492-2.266 3.372-8.949-.987-6.254-4.393.707-1.755 6.347-3.52 4.77-1.045z"/>
            <path d="M176.59 89.937c-2.842 1.307-7.092 3.897-7.176 3.241-.048-1.472 4.495-2.766 5.7-3.528 2.921-.899 3.57-2.312 5.76-3.444 1.443 1.268 1.72-6.23 2.15-1.215-1.009 2.165-3.187 1.957-3.775 2.724-2.614 2.46-3.874 2.038-7.381 3.977-1.009.85-4.422 2.191-1.282.625 1.714-.135 5.795-3.626 6.005-2.38z"/>
            <path d="M181.803 85.803c-4.64 4.35-5.108 2.007 0 0z"/>
            <path d="M176.56 88.976c3.828-.578 1.57 4.677-.134 4.026-4.348 2.047-2.59-6.458-1.947-.483 2.93.035 3.795.126 3.05-2.924 1.357-.677-2.52.656-.968-.619zM115.692 141.966c-1.053 2.712 4.322 8.582 1.572 8.97.691-2.803-4.237-6.975-1.572-8.97zM118.905 151.974c1.731 2.08 12.124 9.128 4.96 5.026-.788-.937-6.887-4.105-4.96-5.026z"/>
            <path d="M127.982 158.833c-4.798-1.937-10.204-2.976-12.296 1.987.407-5.227 9.238-5.229 12.691-2.124l-.395.137zM115.515 161.534c-1.647 1.638-5.282-5.804-9.917-3.121-4.129-.878-6.719.435-8.778 1.433-3.242 1.276 3.484-2.965 6.746-2.284 5.872-2.429 11.54 4.88 11.949 3.972zM96.096 158.804c2.5-2.792 11.108-6.793 10.45-5.372.009-.125-8.313 3.851-10.45 5.372zM108.875 151.97c.925-2.102.76-7.482 1.11-7.87 1.935 3.911-.366 10.799-.067 2.312-.144-7.79 2.138 5.021-1.043 5.558z"/>
            <path d="M111.39 146.525c1.486 4.318-.124 6.744-.549 1.43-.555-.178-.214-1.986.548-1.43zM111.522 154.418c3.726 2.57 1.68 9.331.974 2.065.192-.757-2.826-1.75-.974-2.065zM90.934 136.125c1.875 3.222 17.815 5.065 11.65 5.225-3.388-1.299-11.63-2.11-11.65-5.225zM107.241 142.231c3.292.149-1.765 1.467 0 0zM122.859 141.061c3.956-.073 13.448-4.8 5.963-.845-.654.34-7.928 2.577-5.963.845z"/>
            <path d="M127.408 139.538c-4.559 1.918-13.156 2.788-3.457.466 5.925-1.723 11.872-5.044 15.127-9.416 2.202-.561-3.171 4.223-5.112 5.336-3.668 2.424-12.554 6.786-14.85 5.161 1.625.213 9.195-3.095 8.292-1.547zM162.85 85.753c-5.478 3.814-9.339 9.354-14.148 13.842-2.752 3.648-5.359 4.76-1.148.18 4.853-3.839 8.037-9.43 13.083-13.088.01-.208 3.693-2.782 2.212-.934zM143.467 105.157c-1.146 2.555-10.667 13.87-5.988 7.347 1.954-2.076 3.677-6.651 5.988-7.347z"/>
            <path d="M144.615 105.157c-2.137 3.145-9.939 13.483-9.844 12.102 1.9-2.6 6.432-8.316 9.105-12.138l.38-.19.359.226zM168.073 92.312c-3.617 1.124-6.544 4.065-9.202 5.221-5.525 3.085-10.917 7.808-15.465 13.284-1.472.495-2.852 3.042-5.44 4.896.17.55-3.287 3.922-3.575 3.963-2.003.273.804-.837 1.005-1.507 1.543-1.756 2.374-2.972 3.697-4.185 2.452-2.645 3.487-2.861 5.518-5.51 4.273-4.734 9.393-8.896 14.594-11.702 1.601-.602 7.932-5.881 8.868-4.46z"/>
            <path d="M154.237 95.09c-6.021 5.496-9.842 13.138-16.156 18.232 2.826-3.686 7.08-8.48 10.36-12.588 1.728-1.335 3.614-5.723 5.796-5.644zM164.645 79.555c5.376-2.57-1.14 5.799-.484 1.037.232 1.304 2.54.87 2.09-1.161-.581-.081-1.287 1.275-1.606.124z"/>
            <path d="M163.91 79.824c3.245-2.698 1.84 1.246 0 0zM170.36 77.877c1.602 3.88-2.282.32 0 0z"/>
            <path d="M170.542 74.564c1.818 5.802-.769 3.134.512-1.346 2.006-.652-.703 9.227-.76 2.695-.852-.092-.516-1.849.248-1.35z"/>
            <path d="M171.488 74.43c-.01 2.828.091 6.223 2.048 7.505.574 1.019 2.179 2.538 4.365 3.68 4.625.217 5.722.22 3.904 1.59-3.79.889-7.89-1.778-9.343-4.26-.661-.492-2.908-3.217-2.126-5.756-.733-.963-.628-4.206 1.152-2.759z"/>
            <path d="M171.762 82.157c.986 1.274 2.11 2.354 3.548 4.36 2.093.706-2.468.253-2.544-2.484.414.02-3.236-1.104-1.004-1.876z"/>
            <path d="M175.285 85.646c1.869 1.984 7.94 2.648 7.07 2.318-.24 1.685-8.633-.723-7.07-2.318zM170.281 75.36c-.051 5.677-2.11 2.06 0 0z"/>
        </g>
    </g>
    <text y="184.134" x="108.109" style="line-height:6.61458302px;-inkscape-font-specification:Siddiqua" font-weight="400" font-size="10.583" font-family="Siddiqua" letter-spacing="0" word-spacing="0" stroke-width=".265"/>
</svg>
