<svg xmlns="http://www.w3.org/2000/svg" xmlns:xlink="http://www.w3.org/1999/xlink" width="840" height="710" viewBox="0 0 222.25 187.85416">
    <defs>
        <linearGradient id="d">
            <stop offset="0" stop-color="#5d6c53"/>
            <stop offset="1" stop-color="#5d6c53" stop-opacity="0"/>
        </linearGradient>
        <linearGradient id="c">
            <stop offset="0" stop-color="#5d6c53"/>
            <stop offset="1" stop-color="#5d6c53" stop-opacity="0"/>
        </linearGradient>
        <linearGradient id="b">
            <stop offset="0" stop-color="#5d6c53"/>
            <stop offset="1" stop-color="#cec0b7" stop-opacity="0"/>
        </linearGradient>
        <linearGradient id="a">
            <stop offset="0" stop-color="#fff" stop-opacity="0"/>
            <stop offset="1" stop-color="#fff"/>
        </linearGradient>
        <linearGradient gradientUnits="userSpaceOnUse" y2="96.936" x2="49.034" y1="100.71" x1="46.555" id="e" xlink:href="#a"/>
        <linearGradient gradientTransform="translate(6.815)" gradientUnits="userSpaceOnUse" y2="102.202" x2="41.837" y1="89.026" x1="60.027" id="f" xlink:href="#b"/>
        <linearGradient gradientTransform="translate(6.815)" gradientUnits="userSpaceOnUse" y2="93.22" x2="44.159" y1="84.423" x1="48.276" id="g" xlink:href="#c"/>
        <linearGradient gradientTransform="translate(6.815)" gradientUnits="userSpaceOnUse" y2="76.49" x2="102.762" y1="43.244" x1="106.947" id="h" xlink:href="#d"/>
    </defs>
    <g stroke-width="1.49">
        <path d="M119.273 141.362s-1.008 9.671-.806 10.88c.201 1.209 3.828 4.03 3.828 4.03l-6.044 3.828s-15.313-3.426-16.32-3.023c-1.008.403 15.514-1.813 15.514-1.813s.403-4.03 0-6.85c-.403-2.82-2.62-7.656-2.62-7.656z" fill="#00c8e1" fill-rule="evenodd"/>
        <path d="M88.245 118.192s8.664 21.558 9.067 23.573c.402 2.015 9.47 18.133 9.872 18.939.403.806-4.03-24.177-4.433-26.797-.215-1.4-1.576-9.668-2.724-13.317-2.022-1.58-3.857-4.447-3.723-4.614-3.685 2.368-4.875 2.855-8.059 2.216zM133.376 141.563l-2.216 9.269v3.022l9.268 4.432-6.85 1.612s-.202-.604-1.612.806c-1.41 1.41-2.015 3.022-2.015 3.022s-4.634-2.82-7.052-3.223c-2.417-.403-7.253.201-7.253.201s5.44-5.037 8.06-5.037c2.619 0 4.23-.604 4.23-.604l.202-12.694z" fill="#00c8e1" fill-rule="evenodd"/>
        <path d="M131.16 84.343s6.246 28.61 7.656 32.439c1.41 3.828 16.924 18.334 16.924 18.334s5.44-17.126 4.232-23.774c-1.21-6.65-6.65-23.775-7.657-25.387-1.007-1.612-19.543-15.715-19.543-15.715-2.2 3.514-3.164 7.91-1.612 14.103z" fill="#917c6f" fill-rule="evenodd"/>
        <g stroke-width=".573">
            <path d="M101.32 68.404c-3.295 1.679-6.075 4.872-9.677 7.009-3.37 4.131-7.692 7.806-8.913 13.195-1.197 3.654-1.273 8.329-1.137 12.473.372 3.665.338 7.585 2.161 10.825 1.02.834 1.563 2.828 3.403 2.816 2.056 1.68 4.356 1.504 6.076.886 1.838-.419 1.522-.3 3.387-1.255 1.633-.653 3.483-2.318 5.25-3.438 1.79-.695 2.184.62-.123.872-1.393 1.21-3.693 2.772-5.653 3.625-.966.612-3.405 1.143-5.3 1.356-2.465.134-4.408-1.635-6.13-2.352-1.605-2.22-2.993-4.047-3.15-6.757-.62-3.893-.857-7.904-.743-12.205.352-3.886.957-7.16 2.466-10.767 1.961-3.003 4.208-5.742 6.66-8.432 2.679-2.83 5.387-4.087 8.329-6.732.502-.078 3.72-3.33 3.094-1.12zM102.606 66.933c4.537-1.885 9.52-2.866 14.346-1.468 6.785 1.24 13.74 2.505 19.64 6.262 3.335.996 6.294 4.261 8.905 6.821 2.764 3.587 5.652 7.032 7.727 11.007a73.773 73.773 0 0 1 3.464 12.23c.51 5.018.834 10.081.655 15.19-.278 4.266 1.006 8.68-.847 12.656-1.166 2.55-2.515 7.716-3.052 5.821.406-1.094 1.079-3.257 1.629-4.155.753-1.683.944-2.753 1.427-4.477.664-4.12-.288-8.478.052-12.764.06-4.545-.092-9.09-1.087-13.432-.322-4.14-2.031-8.21-3.61-12.008-2.255-3.536-4.751-7.083-7.724-10.303-2.749-3.044-6.098-5.377-9.857-6.997-6.468-3.493-13.965-4.41-21.085-5.739-3.321-.998-8.902 2.476-10.583 1.354z"/>
            <path d="M132.037 84.17c.7 4.735.996 9.578 2.655 14.116 1.184 5.508 2.289 11.026 3.909 16.397 1.97 4.673 4.31 9.345 7.948 12.917 2.34 2.433 5.066 4.65 7.162 7.285.359 2.232-3.291-2.687-4.44-3.642-3.984-3.337-7.39-7.37-9.524-12.193-3.071-5.542-3.711-11.922-5.316-17.99-.52-3.634-2.48-8.056-2.502-12.22.206-.882-1.68-5.456.108-4.67z"/>
            <path d="M133.339 85.413c.472 4.058 1.986 8.23 3.21 11.924-2.757-1.644-2.39-7.063-3.782-10.099-.006-.502-.67-2.651.572-1.825z"/>
            <path d="M136.236 92.866c1.771 1.984 1.667 8.242.276 2.608.017-.619-1.946-2.977-.276-2.608zM134.952 107.71c1.28 4.746 3.16 9.334 5.289 13.741 2.949 1.928.805 3.3-.65.468-2.125-4.55-4.292-9.286-5.288-14.186.17-.123.5-.261.65-.023zM145.334 125.465c2.52 1.664-1.732 1.266-.203-.026zM157.024 98.981c.297 6.706 2.046 13.253 1.529 20.002-.914 2.313.44 7.588-1.65 8.314.414-4.493 1.058-9.085.883-13.707-.27-4.918-1.543-10.404-1.43-14.65.186-.108.538-.219.668.041zM141.615 40.683c-.055 5.678-.023 11.36.42 16.986-.245 5.005.809 9.764 1.26 14.684-1.213 1.97-1.145-5.03-1.657-6.707-.635-4.443-.1-9.074-.813-13.559.581-3.427-1.069-9.454.79-11.404z"/>
            <path d="M141.704 40.949c.97 7.77 3.706 15.203 4.781 22.927a66.65 66.65 0 0 0 2.779 11.969c.14 3.424 1.632 6.75 2.296 10.11-1.838-.473-1.506-4.46-2.517-6.251-.278-3.132-1.294-6.072-2.091-9.111-1.373-5.905-1.867-11.938-3.609-17.789-.77-3.9-2.456-8.282-2.06-11.99h.27l.15.135zM143.82 58.964c.902 4.705 2.06 9.44 3.2 14.016-2.505-1.708-1.743-7.523-3.333-10.622.28-.7-1.586-4.009.134-3.394zM111.068 81.795c-3.654.141-6.572 3.771-7.044 7.279-.732 4.713-.113 9.47.95 14.078-.234 2.04 1.365 7.715-.942 7.682.943-4.09.02-8.48-.845-12.608-.3-4.331-.763-9.095 1.384-13.098.783-1.462 6.25-5.964 6.497-3.333z"/>
            <path d="M108.982 83.209c-3.42.426-3.833 5.856-4.032 8.968-2.277-1.487.375-9.449 4.334-9.66 3.684-.283-2.772.878-2.591 2.786-2.382 1.001-1.293 8.818-2.565 6.193.481-3.351.909-8.974 5.08-9.022.264.173.088.743-.226.735z"/>
            <path d="M109.221 83.766c1.347-2.526 10.824-1.024 5.152-.458-1.842-.347-7.257.435-7.093-1.172 1.977.351 9.003.074 8.097.983-1.698-1.455-6.253 2.219-6.156.647zM82.7 113.53c2.237.794 3.072 1.035 5.43 1.599 2.18.083 4.801 1.141 6.485.022.93-.282.562-.114 1.886-.994-1.81.955 2.142-1.426.457-.467 1.69-1.705 2.04-1.064 1.7-1.493l.93-.476c-1.529.708 1.434-.72.167-.24.757-.394 2.589-1.557 1.404-.771 1.945-.99.767-.525 3.096-1.531 3.022-.3-1.845.755 1.46-.21.984 2.71-.167 1.487-2.653 2.714 1.612-.86-1.702.814-.544.3-1.498 1.109-.558.023-2.127 1.318.493-.278-.56.367-.748.337.22.195-2.027 1.847-1.774 1.648.016.19-2.695 1.917-1.167.729-.988 1.953-6.04 1.495-8.06 1.176-2.772-.574-5.075-1.326-6.826-2.233-.04-.507.199-1.528.884-1.428z"/>
            <path d="M97.905 116.136c-.527 1.903.408 2.83 2.474 2.876.96-.465 2.644-3.955 1.236-5.227-1.206-1.561-4.032-2.305-.7-1.812 2.384 1.368 2.25 3.872 1.232 6.16-1.232 2.32-3.98 2.045-5.03-.1.146-.559-.458-2.737.788-1.897z"/>
            <path d="M100.458 118.356c-4.834-.238 1.718-5.122 1.318-.203-2.057 2.521.278-2.279-2.103-1.63.545.268-1.608 1.479 1.076 1.235.03.212-.003.577-.291.598zM104.85 112.347c-.423 3.348-.28 7.35-2.936 9.623.143 1.04-2.43 1.434-.432-.594.647-.205 1.53-2.125 1.826-3.346.765-1.214-.08-6.092 1.541-5.683zM88.283 120.834c-1.324-2.625-1.072-4.295.733-.652 2.409 4.193 4.882 8.345 6.826 12.75 1.585 4.701 3.84 9.102 5.082 13.922 1.582 3.633 3.435 7.07 4.905 10.68.444 1.412 3.601 5.32 1.777 5.088-1.281-2.402-2.87-5.381-3.806-7.794-1.217-2.949-3.152-5.684-3.865-8.813-1.401-3.967-2.85-7.913-4.578-11.793-1.292-4.377-4.131-8.039-6.043-12.151-1.764-1.33-3.044-7.227-.816-3.126.185.483 1.142 2.44-.215 1.89z"/>
            <path d="M100.7 120.37c-.196 4.328 1.449 8.4 1.892 12.623.712 4.147 1.905 8.321 2.17 12.518.99 4.55 1.498 9.275 3.42 13.61.85 1.931 1.056 5.055-.551 1.307-1.232-3.781-2.419-7.593-3.009-11.53-.877-4.559-1.263-9.217-2.453-13.728-.539-3.991-1.457-7.94-2.234-11.95.339-.616-.709-3.695.765-2.85zM85.505 118.515c-.306 2.275 2.72 4.559 3.198 2.408 2.133-.277-.97 2.609-2.295 1.308-.652-.299-2.805-4.536-.903-3.716zM85.084 116.629c2.212.669 8.056.007 7.745 1.79-1.637.897-3.484 1.035-5.94.308-2.357-2.516 2.393.58 3.826-.294 1.152-.932 3.413.286-.276-.32-.878-.844-6.91.202-5.355-1.484zM150.245 135.807c-3.107 1.556-6.532 4.127-9.577 4.733-2.999.155-3.982.597-7.479.813-1.125-1.728 4.605-.527 5.403-1.393 4.457.26 7.833-3.556 11.74-4.822.097.195.182.556-.087.67z"/>
            <path d="M130.812 142.448c-5.36.37-10.871.711-16.167-.342-2.95-.456-5.682-.587-8.054-2.05-.576-1.41-4.803-2.29-2.93-3.1 2.359 2.47 8.407 3.361 9.456 5.029-3.283-.419-8.291-2.423-9.612-4.836 2.046.263 3.518 2.88 5.354 3.186 4.653.828 9.382 1.936 14.228 1.654 1.533.708 8.221-1.287 7.725.46z"/>
            <path d="M115.426 140.723c2.956 1.702 9.492-.469 10.531 2.066-3.262-1.335-9.106.613-10.732-2.038l.2-.028z"/>
            <path d="M107.167 137.294c4.837 1.963 10.103 3.897 15.39 2.836-2.208 2.498-8.373.303-11.776-.615-.5-.563-5.5-1.244-3.614-2.221z"/>
            <path d="M121.466 140.592c2.417-.324 9.913 1.68 3.416 1.055-.534-.528-4.873.397-3.416-1.055zM132.277 141.296c2.591-.539 5.374 1.187.925.84-.78.903-1.806-.634-.925-.84zM131.8 154.164c2.67 2.482 6.792 2.423 9.248 4.02-2.914.147-7.87-1.46-9.66-3.856-.127-.022.412-.323.413-.164z"/>
            <path d="M140.646 158.93c-3.127-1.106-6.979-.497-9.387 1.35-1.38.558-3.23 3.25-2.072.409 1.837-1.075 4.196-2.972 6.974-2.985.644-.043 6.478-.159 4.485 1.226zM126.612 161.168c-2.469-.273-5.412-1.877-8.098-.54-2.08.79-5.132.82-1.42-.478 3.414-1.593 6.958-.397 9.867.453.008.214-.061.573-.35.565zM115.785 159.113c2.498-.915 4.049-2.585 7.156-3.099 2.143-1.341 7.567-.322 2.056.228-3.687.345-6.199 2.526-9.268 3.55-.108-.192-.21-.551.056-.679zM127.008 142.693c.05 3.937 1.324 8.729-.043 12.206-.804-2.408.206-6.68-.581-10.02.3-.474-.81-2.947.624-2.186z"/>
            <path d="M128.262 161.198c2.773.416 1.048 5.122.713 1.333.655.635-2.43-1.147-.713-1.333zM129.128 157.843c1.044 2.024-1.973 2.373-.22 1.477-.735 2.398-1.084-2.78.22-1.477zM119.455 143.12c-.886 3.468-.552 7.27-.986 10.893-1.818-.762.37-6.01-.262-8.432.078-.28.088-3.69 1.248-2.46zM118.592 154.246c.22 1.545 5.818 2.054 1.372 1.994-.885.168-3.16-1.974-1.372-1.994zM113.368 155.214c-1.25-.256-6.867-.47-2.373-1.107-.607.575 4.24-.448 2.373 1.107z"/>
            <path d="M108.837 154.587c4.583-1.811-1.156 2.576 0 0zM101.464 156.642c-2-.56-4.096 3.241-2.935.444-.067-.769 4.296-2.093 2.935-.444zM101.522 157.306c3.178-.81 5.35 1.66 1.623.766-.504-.118-2.858.358-1.623-.766zM110.705 158.055c4.125.532 6.632 3.39 1.295 1.226-.475-.185-2.791-.577-1.295-1.226zM114.394 155.35c-1.658-.197-3.507 2.709-2.36.357-.002-.77 3.644-1.871 2.36-.357zM86.875 119.938c3.118.54.115 2.677.497 1.482 1.562-1.287-1.509-.156-.497-1.482zM92.396 123.221c1.195 1.241 4.793 7.783 2.55 6.673.43-1.985-4.247-6.087-2.55-6.673zM96.43 131.68c2.255 2.43.564 5.147-.184 1.147-.82-.16-.5-1.517.185-1.147zM100.853 113.471c-2.084 2.964-4.982 2.495-.787 1.081 1.534-1.438 5.189-2.919 1.847-.376-1.39 2.053-6.65 1.933-3.087.367-.424 1.104 1.249-2.885 2.027-1.072zM107.29 82.315c-2.85.717-2.87 5.297-4.103 7.932-1.87-.261 1.17-3.648.787-5.431.028-.915 3.535-4.955 3.316-2.5z"/>
            <path d="M103.033 155.695c4.927.12-2.51 1.035-3.644 1.818-2.138-1.806 9.496-2.077 3.48-1.054-.282-.152-.153-.748.164-.764zM108.048 154.793c1.86-1.607 6.647-.424 2.4.348-1.61 1.134-6.749 1.227-2.285-.049 3.263-1.399 5.247-.37.852.117-.414 1.066-1.632.045-.967-.416zM109.28 157.704c3.237-.761 4.145 1.635.91.754-.734.93-1.747-.505-.91-.754zM133.041 143.157c-1.452 3.466-1.95 6.986-1.487 10.658-2.27-.565.136-3.568.01-.206-1.748-.575-.962-5.32-.244-7.644.253-.451.662-4.228 1.721-2.808zM114.206 143.463c1.195 3.304 1.14 6.74.823 10.158-2.529 1.703.684-4.381-.35-.083-1.11-.247.339-4.451-.38-6.619.29-.46-1.96-4.101-.093-3.456z"/>
            <path d="M113.994 142.75c1.954 4.727-2.504-.468 0 0zM142.575 74.548c-1.218-4.294 2.418-.7 0 0z"/>
        </g>
    </g>
    <text y="184.134" x="108.109" style="line-height:6.61458302px;-inkscape-font-specification:Siddiqua" font-weight="400" font-size="10.583" font-family="Siddiqua" letter-spacing="0" word-spacing="0" stroke-width=".265"/>
</svg>
