<svg xmlns="http://www.w3.org/2000/svg" width="840" height="710" viewBox="0 0 222.25 187.85416">
    <g>
        <path d="M123.454 61.378s-8.697-3.148-7.673-7.44c1.217-5.095 5.892-4.522 8.832-4.683 7.94-.434 15.907 8.777 16.743 10.03 13.34 24.633 11.032 37.53 12.787 53.474-1.266 10.339-4.197 20.38-22.552 27.667-29.75 7.265-33.838.659-41.616-3.953-15.706-11.252-10.758-30.683-6.743-37.664 8.954-7.186 25.198-7.434 36.734-6.044 4.76-4.364 10.187-7.615 11.392-17.902-.24-5.692-1.528-10.86-7.904-13.485z" fill="#fafafa" fill-rule="evenodd"/>
        <path d="M132.702 83.45s-5.15 10.3-15.45 11.587c-10.3 1.287-24.28-1.472-26.67-.368-2.391 1.104-6.07 3.863-6.07 3.863l3.127-8.461s5.518-3.31 9.932-3.495c4.414-.184 18.76.736 18.76.736s6.07-.92 8.83-2.575a143.051 143.051 0 0 1 5.15-2.943z" fill="#917c6f" fill-rule="evenodd"/>
        <path d="M110.63 114.533s-7.909-7.357-10.668-12.139c-2.943-1.84-.326-16.466 1.104-18.945 1.427-2.473 5.334-6.805 5.334-6.805s-8.093 1.104-9.565 0c-1.471-1.104-4.046-4.598-4.046-4.598s-4.465 5.612-6.438 7.357c-4.782 4.23-9.748 2.759-9.748 2.759s10.484 4.23 13.06 8.093c2.574 3.862 3.862 14.53 3.862 14.53s6.437 3.31 8.276 6.438c1.84 3.127.736 4.046.736 4.046s-2.943 2.023-2.023 4.966c.92 2.943 4.598 2.76 6.805 1.656 2.207-1.104 3.495-3.863 4.23-5.15.736-1.288-.919-2.208-.919-2.208zM120.378 53.837s-30.532 3.127-32.003 3.31c-1.472.184-8.83.92-8.83.92s15.267 1.104 20.785 1.472c5.518.367 20.232 1.655 20.232 1.655 3.593-.682 3.58-3.67-.184-7.357zM125.16 142.675s-2.023 5.15-2.39 6.989c-.369 1.84-.552 2.943-.552 2.943l11.771 6.99s-4.414-1.472-6.805-.553c-2.391.92-5.886 1.656-5.886 1.656-3.931-1.273-8.034-1.836-13.427-.184 0 0 2.943-5.886 5.702-6.254 2.759-.368 5.518-1.655 5.518-1.655l.735-9.013z" fill="#00c8e1" fill-rule="evenodd"/>
        <g>
            <path d="M80.723 58.503c.816.072 7.681-.865 12.574-.765 2.583-.52 5.345-.826 8.039-1.13 3.296-.63 6.63-.83 9.945-1.383 2.59-.197 5.092-.695 7.577-1.217.779-.558 4.235-.586.871.462-1.824.724-5.36.96-7.842 1.53-6.017.467-12.014 1.593-18.033 2.229-4.395.354-8.858.528-13.28.97-.256-.138-.14-.677.15-.696zM83.837 59.243c4.231-.164 8.425-.361 12.612-.684 5.319-.636 10.808-.42 16.275-.458 3.94-.835 7.779.033 11.657.196.65 1.853-4.277.02-5.955.153-5.688.31-11.425.529-17.188.342-4.52.606-9.115.838-13.713.933-.337-.061-5.128.97-3.688-.482zM130.413 52.386c2.171 1.897.836 5.601-.843 5.49-.937.62-4.36.721-4.926-1.58-1.448-2.709.022-2.876.949.002.684 2.525 3.928.625 4.383.837 1.397-.803.704-3.262.043-4.661-.117-.039.42-.23.394-.088zM115.75 53.379c-.276-2.579 3.227-3.635 4.857-.832-1.066-.424-3.061-1.535-4.255-.566.786-.985.228 2.558-.602 1.398z"/>
            <path d="M112.595 59.24c2.89-.249 5.688.408 8.408.367 2.167-.067 4.451.99.773.967-2.896-.507-5.516-.585-8.705-.632-.66.537-1.08-.56-.476-.702zM121.533 60.592c2.82.841 5.416 2.555 7.564 4.6 2.226 3.088 1.908 6.938 2.175 10.49-.618 3.603-1.772 7.438-4.503 9.984-1.63 1.213-3.279 2.707-5.777 2.79-.583.22-3.98.444-5.485.922-3.593.106-7.299.385-10.889.016-1.145.368-4.908-1.114-2.726-1.27 1.903.732 4.7.67 7.026.727 3.833.103 7.52-.364 11.285-.938 1.506.01 3.76-.844 4.815-1.712 1.75-1.03 2.879-2.868 3.91-4.802 1.062-2.708 2.055-5.655 1.408-8.62.181-3.61-1.078-7.802-4.719-9.34-.372-1.228-5.436-1.8-4.084-2.846zM84.782 96.944c-2.364 4.06-4.973 8.482-4.615 13.37.102 4.724-.15 9.43.845 14.066.553 2.56 2.008 4.813 3.44 7.052 1.69 2.578 3.89 4.815 6.837 5.88 3.508 2.414 7.629 3.72 11.683 4.958 2.68 1.214 6.75 1.155 10.049 1.081 6.648.313 13.22-1.093 19.408-3.378 2.716-.48 4.903-2.68 7.043-3.773 2.614-1.454 4.773-3.22 7.211-5.132 1.283-2.43 3.676-6.401 5.7-8.84-.284 2.412-2.917 5.04-4.407 7.858-1.286 2.316-3.078 3.217-4.886 4.639-1.351.856-2.794 1.806-4.5 2.833-2.518 1.937-5.72 3.357-9.02 4.017-7.527 2.885-15.739 2.71-23.648 2.344-5.502-1.538-11.035-3.317-15.897-6.366-3.068-1.42-5.22-4.063-6.973-6.911-1.61-2.22-2.465-4.686-3.016-7.323-.71-4.245-.528-8.599-.605-12.933-.44-4.136 1.582-7.74 3.22-11.342.911-1.49 3.937-6.552 2.13-2.1zM79.209 110.383c-.407 3.487.117 7.41-.336 10.699-1.278-2.62-.359-7.438-.265-10.784.176-.085.502-.16.6.085z"/>
            <path d="M121.154 49.926c2.423-.928 5.402-.854 8.195-.488 2.759.784 5.35 2.958 7.663 4.966 2.507 1.466 4.419 3.774 5.535 6.336.813 1.82 1.397 3.73 2.598 5.45 1.422 2.749 1.986 4.783 3.323 7.596.701 2.303 1.198 4.243 1.95 6.614.872 2.978 1.493 5.972 2.008 8.986.556 1.48.795 3.006 1.126 4.904.511 2.144.467 4.437.724 7.13.22 2.733.218 5.46-.192 8.082-.838 3.435-.511 7.06-1.028 10.541-.56 1.824-1.186 5.102-2.42 5.68-.711-.753.88-1.832 1.104-3.583.49-1.861 1.06-3.839.852-6.347.12-2.47.576-4.752.797-7.16.518-2.178.22-5.348.048-8.253-.103-2.316-.066-4.13-.63-6.078-.417-2.908-1.397-5.745-1.84-8.765-.812-3.955-2.177-7.782-3.209-11.58-1.536-3.546-2.991-7.075-4.914-10.506-.805-2.452-1.919-4.587-3.683-6.48-3.093-2.358-6.099-5.162-9.43-6.783-2.123-.424-6.054-.176-7.22-.081-.534.29-2.02 1.015-1.357-.181z"/>
            <path d="M155.41 97.935c.56 5.393.794 10.9.383 16.326-1.315 1.503-.426 7.636-1.698 6.476-.465-2.586.794-5.304.939-7.323.386-4.756.364-9.698-.356-14.441-.57-.456.253-1.692.732-1.038zM153.308 89.288c.632 3.811 1.22 8.39.599 11.91-.961-3.006-.391-7.215-1.01-10.627-.237-.435-.551-1.785.411-1.283zM101 114.283c-.277 2.283-1.546 4.9 1.542 5.963 2.09 1.101 4.828.163 5.413-.562 1.501-1.46 3.34-4.26 2.048-5.938-3.118-3.308 3.395.881.839 3.195-.807 1.322-1.638 2.778-2.782 3.457-.92 1.004-4.615 1.716-6.551.102-2.324-.961-1.711-3.887-1.327-5.503-.363-.527.485-1.317.817-.714zM109.33 75.926c-2.857 2.213-6.663 2.441-10.199 2.516-2.54.246-3.641-1.77-5.115-3.637-.454-1.003-2.87-4.208-.803-2.625 1.637 1.584 2.245 4.553 4.408 5.216 2.694.84 6.17.142 8.869-.78 1.092.632 2.392-2.198 2.84-.69z"/>
            <path d="M93.071 72.798c.465 3.366-3.317 5.61-4.775 7.268-1.256 1.038-3.351 2.247-5.86 2.942-.536.163-4.31 1.08-3.386-.19 1.32.264 3.415-.512 5.536-1.265.863-.453 2.48-1.314 3.022-1.787 1.466-1.888 4.443-3.108 4.658-6.06-.504-.503.416-1.584.805-.908z"/>
            <path d="M79.46 82.705c3.367 1.525 6.913 3.333 8.885 6.607 1.93 2.067 2.843 5.155 3.929 7.484.536 1.864.824 3.743 1.054 6.004-.559 2.53 2.083 1.786 3.21 3.13 1.411.84 3.058 2.553 4.27 4.217.648 1.817 2.325 3.334 2.26 4.907-1.483-.38-1.708-3.29-2.965-4.534-1.447-2.086-3.415-4.06-5.554-4.883-2.219.122-1.896-2.94-2.302-4.687.089-3.46-1.958-6.532-3.284-9.736-2.235-2.666-4.445-5.99-8.126-6.903-.437-.228-2.94-1.2-1.376-1.606zM108.224 77.408c-3.111 1.353-4.554 4.825-6.178 7.53-1.59 4.851-3.095 9.806-2.634 14.976-1.07 2.106.689 3.137 1.538 4.663 1.348 2.003 2.802 3.472 4.373 5.108 1.102 1.518 1.378 2.906 2.563 4.27-.144 4.272-.96-.97-2.124-2.028-.996-2.491-3.44-3.75-4.813-6.146-1.02-1.829-3.34-3.373-2.289-5.788-.004-3.158-.12-6.188.938-9.018.196-1.82.98-3.472 1.439-5.21.153-1.006 1.015-2.483 1.673-3.547 1.487-1.892 3.127-5.637 5.672-5.193.432.046-.312.402-.158.383zM119.748 144.986c-.342 2.097.645 6.54-.887 7.238.347-1.668-.672-7.124.887-7.238zM118.594 152.824c-1.44.315-3.45 1.092-4.083 1.405-2.348.82-4.857 1.7-5.682 4.582-.379 1.968-3.213 3.278-1.32.804.97-1.637 1.84-4.326 4.08-4.876 2.221-1.086 4.317-1.865 6.924-2.63.29.05.353.602.08.715z"/>
            <path d="M107.052 159.88c2.906-1.582 4.066-1.205 7.527-1.452 1.57.573 3.486.135 4.708 1.258 1.847.259 2.319 2.89.079.82-1.047-.894-3.127-.948-4.864-1.37-2.492-.382-5.013.701-7.459.933l.01-.188zM122.25 159.747c2.474-1.248 5.211-1.316 7.954-1.322 1.001.185 5.77 1.652 2.38 1.494-2.42-1.227-5.692-.782-8.756-.113-.353-.058-2.215 1.462-1.579-.059zM132.902 158.838c-2.327-2.184-5.041-3.86-8.119-4.855-1.093-.59-5.267-1.522-1.87-1.493 2.693.955 5.74 1.996 8.21 3.956.3.512 3.626 2.042 1.78 2.392zM123.002 149.788c.218-1.601 1.702-7.173 2.64-5.764-.622.708-.734 2.082-1.136 2.956-.98-.754.082 4.037-1.504 2.808z"/>
            <path d="M120.785 155.33c1.441 1.603.48 8.214.067 2.93.211-.756-1.7-3.315-.067-2.93zM126.907 143.151c-1.573 1.468-1.321 8.77-2.837 7.194.709-1.535.936-7.679 2.837-7.194zM148.6 124.412c-1.864 2.42-2.998 5.111-5.272 7.15-.48.028-5.974 5.18-3.999 2.03 1.897-1.365 3.307-2.067 4.767-3.83 1.648-1.531 2.267-4.548 4.234-5.676l.218.14.052.186zM82.745 126.157c1.133 2.342 2.604 3.617 4.013 5.051 2.11 1.405 2.427 5.197.288 1.49-1.628-2.089-3.989-3.729-4.902-6.335.124-.163.393-.387.601-.206zM119.217 49.844c2.957 1.303-2.379.948 1.494.528 1.328.988 4.971.615 5.896.217.888-.025 5.326-.544 3.453.09 2.13-2.35 3.442 1.634 1.169 1.314-.323-.254-5.54.835-7.867.773-1.533-.027-4.619-.498-3.037-1.063-1.508 1.13-3.848-1.633-1.108-1.86zM124.47 53.905c.29 2.774-1.766-.687.001 0z"/>
            <path d="M124.64 52.654c2.38-2.96 3.086-.67.238.342l-.202-.155-.036-.187zM101.861 89.94c1.172-.044 5.918-1.068 3.883.475-1.488-.894-3.17 1.139-4.057-.373l.174-.101zM131.875 82.938c-1.469 2.026-2.83 4.129-4.263 5.168-1.944 1.55-3.214 2.64-5.479 3.745-1.628.472-2.086.733-4.028 1.397-1.321.51-2.482 1.255-4.749 1.156-.975.363-4.505.62-6.632 1.044-2.89-.647-5.822 1.036-7.028-.5 2.335-.267 5.43-.216 8.408-.454 2.972-.507 4.843-.544 7.43-.997 1.549-.66 4.49-1.709 6.526-2.432 1.788-.788 2.276-1.33 3.856-2.595.953-.464 1.848-1.244 2.828-2.678.707.237 2.026-4.325 3.13-2.854zM89.322 97.139c-2.405 1.186-2.262.602-3.585 1.667-1.191 1.786-2.403 1.113-1.308-1.726.269-1.841 1.56-4.5 2.416-5.141 1.158-1.059 1.606.227.159.819-.815 1.263-1.216 2.315-1.616 3.444.099 1.832-1.642 4.47-1.018 2.79 1.252-.994 2.945-2.347 5.125-2.269.274.284-.187.255-.173.416zM125.774 55.027c4.02-3.573.954 5.588.982 2.33.92.32 1.027-4.316-.817-1.997-.01.139-.3-.345-.165-.333zM125.83 55.574c-1.32 2.398-1.035-1.457 0 0z"/>
            <path d="M122.425 52.528c5.229.977-5.798.411-.519.115 1.802.148 5.782.81 1.634.95-2.812-.027-4.638-1.65-.492-.987 3.414.03-1.858 1.569-.623-.078zM106.756 110.158c-.106 1.704 1.588 1.459 2.19 3.201-1.638.145-1.285-2.074-2.447-2.078-.854-.178-.33-1.637.257-1.123zM102.54 116.498c-.78 1.867 3.48.403 1.465 1.817.266.104-4.006-1.371-1.464-1.817zM116.936 52.663c3.648-1.284-.411 3.81.642 1.286.512-1.356.464-.536-.798-.917-.053-.13.022-.32.156-.37z"/>
        </g>
    </g>
</svg>
