<svg xmlns="http://www.w3.org/2000/svg" width="390" height="680" viewBox="0 0 103.18749 179.91666">
    <g stroke-width="1.49">
        <path d="M11.752 95.175s8.89 6.466 11.314 15.962c2.425 9.495 2.02 14.344 2.02 17.78 0 3.434 2.021 7.475 2.021 7.475s-5.86 1.616-10.102-4.445c-4.243-6.062-3.435-9.092-4.04-16.972-.607-7.88-5.456-9.496-7.274-12.93-1.819-3.435 3.434-10.91 3.434-10.91z" fill="#917c6f" fill-rule="evenodd"/>
        <path d="M18.621 62.647L41.856 31.33s-5.86 13.536-7.274 17.78c-1.414 4.242-2.626 11.111-3.434 14.142-.808 3.03-6.061-.404-7.678-.606-1.616-.202-4.849 0-4.849 0zM73.778 115.986s-4.849-6.062.202-11.315c5.051-5.253 5.051-6.465 5.051-6.465s-6.263-5.86-.606-11.718c5.657-5.86 11.92-5.455 11.92-5.455s-6.263-1.617-7.273-5.051c-1.01-3.435-1.212-4.445-1.212-4.445s-2.829-1.01-5.455-1.819c-2.627-.808-6.061-3.232-6.061-3.232s-1.01 5.859.606 10.304a140.399 140.399 0 0 0 3.232 8.081l-.808 12.123s-3.434 2.626-6.87 6.667c-3.434 4.04-2.828 12.93-2.828 12.93s5.455 3.435 10.102-.605zM46.503 140.634s2.222-2.828 6.667-1.818c4.445 1.01 2.02 3.03 2.02 3.03s-3.933 11.672-1.818 12.73c2.829 1.413 5.276.997 10.304 2.222 3.751.913-13.987 2.661-13.738 4.647L34.785 157s7.07-4.647 10.102-4.243c3.03.404 5.455 2.02 5.455 2.02z" fill="#00c8e1" fill-rule="evenodd"/>
        <g stroke-width=".573">
            <path d="M72.416 84.921c-1.85-.737-2.59-2.715-2.624-4.581-.699-2.273-1.164-4.638-1.035-7.035-.03-1.942-.111-4.004.986-5.715.272-.624.631-2.955 1.279-1.77-.035 1.302-1.379 3.006-1.54 4.515.088 2.27-.195 4.548.288 6.78.418 1.638.652 3.774 1.39 5.583-.275 1.017 2.987 1.78 1.256 2.223z"/>
            <path d="M71.958 68.902c1.246 1.66 3.316 2.39 5.315 2.564 1.444-.74 1.66.851.044.655-2.14-.09-4.361-.854-5.717-2.592-.592-.177.002-.883.358-.627zM79.074 70.199c.88-.395 2.66-.362 2.278-.842.446-.258 1.484-.784.39-.242.37-1.052 2.29-.836.78.095-1.264.504.212.278-.934.86-.433.103-3.97 1.412-2.514.129zM82.616 70.371c-.439 2.296-.416 4.85.197 7.045.974 1.417 2.163 2.905 3.88 3.36 1.3.902-1.96.684-2.243-.436-1.867-1.292-3.255-3.501-2.727-5.853-.008-1.02-.572-4.421.893-4.116z"/>
            <path d="M72.469 84.376c-1.701-1.351-1.754-3.435-2.102-5.397-.57-2.424-1.749-4.763-1.402-7.329-.301-1.826.409-3.432 1.755-4.638 1.884-1.153-.308 1.447-.867 2.073-.412 2.37-.24 4.83.429 7.14.785 1.853 1.038 3.87 1.349 5.834-.049.773 2.5 2.175.838 2.317z"/>
            <path d="M70.89 67.707c-.45 2.186.488 4.273 2.662 5.018.816.608 3.177-.257 3.186.739-1.18.677-2.986-.002-4.227-.494-1.804-.81-2.733-2.52-2.292-4.46-.133-.468.052-1.252.67-.803z"/>
            <path d="M71.835 69.504c1.744 1.912 4.394 1.973 6.794 1.99 1.017.06 3.847-.175 3.659-.187.126-1.015 2.292-1.32.822-.29 1.075-.583-1.218 1.638-2.047 1.029-2.505-.04-5.131.302-7.532-.553-.366-.279-3.491-1.868-1.696-1.99z"/>
            <path d="M82.423 70.829c-1.382 1.872.055 3.96.22 5.945-.246 1.232.794 2.433.738 3.783-1.512-.183-1.26-2.904-1.513-4.181-.463-1.813-1.526-4.362.195-5.749l.247.05.113.152zM55.436 142.349c-1.591 2.632-1.778 5.824-1.767 8.82-.034 1.563.114 3.462.392 4.678-1.832-.15-.692-3.137-1.055-4.451-.177-2.25.185-4.512.716-6.69.391-.595.71-3.125 1.714-2.357zM48.252 143.53c.736 1.738.487 3.611.79 5.429.066 1.007.801 3.845.64 3.046.16.732 1.157 3.59-.253 2.516-.404-2.569-1.243-5.058-1.34-7.683.535-1.006-1.138-2.852.002-3.407l.1.028zM47.63 153.887c-1.81-.079-3.63.147-5.418-.235-1.585.076-3.208-.116-4.761.241-1.149.855-3.127.627-3.35 2.241-1.86.821.093-2.044 1.23-1.963 1.112-.136 2.27-1.284 3.892-1.136 1.902-.091 3.783.032 5.67.198.75.205 4.018-.457 2.737.654z"/>
            <path d="M34.691 156.108c2.458.535 4.97.577 7.46.787 1.9.195 3.844.518 5.424 1.666 1.163 1.107-1.254.592-1.666-.11-3.183-1.398-6.79-.835-10.132-1.55-.474-.097-2.526-.161-1.086-.793zM49.028 159.755c.527.53 1.881 2.968.435 1.952 1.354-1.648 2.972-2.211 5.067-3.26-.967.487 1.591-1.008 2.28-.569 1.038-.494 3.432-.333 3.407-.532 1.44-.275 2.552.958 4.037.745 1.506-.066-.975.85-1.086-.407-1.535-.605-2.167-2.466-3.863-2.42-1.937-.26-4.078-.336-5.914.307-.51-.026-2.256.377-1.19.087-1.87-.161 1.236-.957 1.85-.903 1.909-.562 3.98-.316 5.93-.194 1.831.668 2.963 2.338 4.691 3.312.874 1.574-2.803.77-3.692.124-.703-.085-.753-.112-.226-.362-1.61.857-3.617.542-5.35 1.069-.879.088-1.527.827-3.002 1.38-1.176.562-1.594 1.36-3.068 2.117 1.001-.104-2.128-2.623-.306-2.446zM27.301 135.795c5.014 1.3 9.248 5.048 14.589 5.17 1.068-.059 1.862 1.147.3.757-4.943-.57-9.445-2.84-13.83-5.046-.401-.15-2.45-.242-1.059-.88z"/>
            <path d="M37.718 139.95c5.155 1.596 10.599.827 15.896.978 1.431.895-2.238.635-2.907.618-4.206-.057-8.512.341-12.604-.857-.496.004-1.452-.458-.385-.739z"/>
            <path d="M46.532 142.348c-1.122-.093-3.46-.112-3.888.736 7.272 1.036 14.543-.538 21.788-1.07.987.947-2.451.678-3.15.878-6.404.593-12.882 1.746-19.303.698-.164-2.12 3.027-2.003 4.485-1.687.461.076.532.42.068.445z"/>
            <path d="M46.64 143.824c.732 3.367 2.746 6.328 3.16 9.772.716.792-.406 3.39-.636 1.534.034-1.722-.432-3.453-1.056-5.061a41.9 41.9 0 0 1-2.144-6.055c.085-.21.514-.423.676-.19zM47.983 154.087c-1.811.579-3.66.038-5.51.197-1.802.336-3.487.887-4.544 1.821-.779.378.204.051-.86.64-.5.28-1.062.407-.422.284-1.749.651.618-1.281-.221-.532.475-.38 1.691-1.054 1.202-.867 1.351-.96 3.025-1.676 4.76-1.933 1.962-.31 3.946.37 5.868-.253.235.148-.006.71-.273.643z"/>
            <path d="M35.65 155.36c-1.256.3-2.373 2.435-3.07 2.34.191-.317-.991.318-.029-.342 1.305-1.285 2.812-2.424 4.682-2.54 2.449-.173-.353 1.943-.73 1.87-1.751 1.028-1.23.659.466.568 1.74-.037 3.447.306 5.171.42 1.698.772 3.58 1.393 5.07 2.49 1.133.859 2.428 1.72 3.395 2.555-.716 1.616-1.743-1.05-2.762-1.142-1.838-1.484-4.02-2.528-6.262-3.302-2.023-.14-4.042-.595-6.072-.239-1.668.306-.326-1.77-.267-1.114.04-.542 2.966-1.41 1.991-1.437-2.225-.12-3.188 1.698-5.088 2.758-.256-.996 1.385-2.058 2.266-2.666.307-.22.99-.92 1.239-.219zM53.675 159.09c1.248-1.124 3.316-1.681 4.576-1.764 1.884.16 4.082-.58 5.728.045.715.155 3.444-.08 1.414.798-1.615-.309-3.114-1.14-4.059-2.54-1.54-.932-3.449-1.237-5.253-1.143-2.07-.152-4.159.206-5.415.991-1.022-1.047 1.869-1.615 2.838-1.674 1.185.313 3.89-.97 4.108.496-1.623.162-3.663-.05-5.42.373-1.841.548-1.32-.077.47-.614 1.963-.34 4.088-.357 6.07-.065 2.033.042 3.483 1.414 4.81 2.754.6.512 3.432.6 1.966 1.383-1.926-.216-3.59-.376-5.594-.224-1.91.096-4.044.039-5.568 1.38-.48.508-1.604.63-.671-.196zM88.715 140.719c-3.115-1.01-6.282-1.478-9.531-1.83-3.312-.48-6.662-.06-9.794 1.079-4.418 1.803-9.256 1.797-13.925 1.353-3.163-.101-6.363-.694-9.529-.048-3.586.186-7.199.143-10.784-.013-4.465-.3-8.406-2.75-11.685-5.609-1.8-2.733 2.19.812 3.011 1.378 3.623 3.009 8.445 3.895 13.039 3.698 3.342-.043 6.681.103 9.995-.436 2.506-.03 4.98.567 7.502.42 4.753.687 9.54-.243 14.02-1.838 4.54-1.605 9.367-.476 13.982.083.519.357 5.455.99 3.7 1.763zM71.903 98.945c-1.391 1.4-2.209 3.273-3.834 4.45-1.383 1.699-2.654 3.571-2.955 5.792-.428 1.89-.334 3.795-.654 5.703-.277 1.018.78 3.16-.766 2.193-.172-2.206.467-4.329.392-6.517.403-1.853.738-4.022 2.048-5.678 1.006-1.737 2.84-2.741 3.725-4.518.618-.296 1.367-2.233 2.044-1.425zM75.791 102.646c.83.978.36.403 1.073 1.317.184.236.312.353.42.621.04.1.06.206.089.31l.156.339c.059.137.112.277.175.413.07.146.169.28.223.433.189.54.212 1.123.296 1.68.03.195.08.385.119.578.02.177.032.355.062.53.096.579.147.48.212 1.092.07.664.006 1.34-.035 2.003.066 1.553-.602 2.987-1.026 4.448-.172 1.146-.947 2.078-1.236 3.182-.039.146-.039.3-.058.45-.11 1.191-.717 2.244-1.023 3.378-.09.817-.435 1.558-.722 2.316-.085.236-.181.442-.202.692.063.281-.688.45-.752.17-.003-.285.011-.544.167-.793.254-.733-.17.454.2-.439.054-.13.081-.269.134-.399.055-.135.138-.257.189-.394.13-.345.177-.68.248-1.04.036-.184.049-.374.108-.552.061-.183.177-.342.25-.52.303-.732.535-1.5.657-2.281.022-.173.026-.35.067-.52.272-1.112 1.06-2.028 1.24-3.169.322-.981.163-.48.477-1.505.305-.93.67-1.848.577-2.85.043-.83.105-1.665-.04-2.488-.033-.184-.096-.36-.13-.543-.031-.172-.045-.346-.067-.518-.443-2.194.141.843-.154-1.136-.026-.174-.084-.342-.123-.513-.038-.165-.052-.337-.108-.497-.106-.305-.324-.563-.429-.869-.103-.269-.192-.593-.34-.844a8.86 8.86 0 0 0-1.293-1.663c-.157-.225.443-.643.6-.419z"/>
            <path d="M74.693 124.911c.774 2.212 2.915 3.364 4.044 5.36 2.046 1.87 3.918 4.048 6.35 5.43 1.925.748 3.327 1.602 5.119 3.137 1.172.258 2.797 1.825.495 1.139-2.373-1.927-5.202-3.203-7.768-4.808-2.173-2.018-4.564-3.853-6.218-6.359-.61-.55-3.78-3.703-2.022-3.899z"/>
            <path d="M76.196 128.827c1.877 3.215 5.57 4.215 8.553 6.044 2.46 1.33 5.37 2.08 7.589 3.637-1.688 1.026-5.608-1.26-6.43-1.221 1.616.228 3.533 1.795 5.414 2.122-1.143 1.129-4.803.631-5.588-.145 1.341.074 4.617-.36 5.306.415-1.279.001-5.377-.995-5.339-2.793 1.904-.06 5.092.943 6.104 1.686-1.363.182-4.44-2.076-6.495-2.667-2.937-1.948-6.662-2.805-8.886-5.698-.338-.378-1.534-1.515-.228-1.38zM77.66 99.477c-2.21 1.821-3.65 4.336-5.261 6.655-.866 1.582-1.246 3.45-1.705 5.112-.17 1.492.269 3.324-.449 3.976-1.053-.851-.104-3.224-.13-4.174.088-1.466.82-3.227 1.439-4.696 1.449-2.272 2.89-4.577 4.882-6.425.296-.292.842-1.17 1.223-.448z"/>
            <path d="M72.205 115.061c.449 2.817-2.836 1.523-4.252 2.54-1.048.15-3.092.356-3.661-.06 1.02-1.542 3.393.614.851.671-1.164.187-3.699-3.016-1.474-2.62 1.646 1.08 3.542 1.254 5.462 1.065 1.665.052 1.44-.784 3.182-1.298-.768.466.686-1.005.302-.269.262 2.195-2.229 3.02-4.078 3.17-1.716-.07-4.63 1.356-4.982-1.194-.541-1.64-1.653-3.19-.783-5.025.645-1.59.995-4.061 2.572-4.87.39.933-1.716 2.942-1.75 4.5-.52 1.432-.559 2.963.44 4.175-.089 2.983 2.783 1.924 4.802 1.746 1.588-.235 3.209-.401 2.942-2.446.603-1.528 2.68-.439.941.508-1.504.673-1.905 1.612-3.971 1.665-2.064.35-3.963-.35-5.79-1.165.215-1.53 1.817 1.873 2.663 1.538.534.298-2.177-.085-.703-.64 2.099.405 4.07-.603 6.053-.75.789 1.317.088-1.941 1.234-1.24z"/>
            <path d="M68.485 104.121c1.486-1.001 3.043-4.147 3.904-4.487-1.411 1.243-3.235 2.558-4.938 3.67-1.773 1.805-3.093 4.156-3.608 6.64.515.967-.873 2.632-.823.814.126-1.972 1.036-3.738 2.063-5.388 1.003-2.147 3.112-3.305 5.037-4.496.41-.809 3.3-2.882 2.842-1.2-1.406 1.103-2.706 4.817-4.477 4.447zM72.33 96.703c-.177-2.24-.269-4.528.048-6.755.531-1.678-.032-4.39 1.777-5.282.389.686-1.17 2.384-.788 3.717-.511 1.859-.405 3.765-.483 5.784-.335.677.787 2.941-.554 2.536zM88.225 79.543c.958-.015 3.68.8 1.4 1.249-2.094.164-4.694-.607-6.436.54-2.2 1.293-3.79 3.404-4.243 5.92-1.528 1.291-.194-1.826.102-2.608.96-1.804 2.67-2.948 4.316-4.115 2.077-.865 4.448-.26 6.652-.415.493-.16-.666.567-.062.505-.383-.377-3.37-.353-1.729-1.076z"/>
            <path d="M72.414 96.425c1.175-.786 1.235-.704.296-1.569-.532-2.543.421-5.06 1.021-7.51-.511-.844.94-3.77 1.25-2.16-1.752 1.6-2.526 4.074-2.802 6.38-.531 1.315.738 4.849-1.039 4.73.532-2.4-.076-4.977.9-7.311.391-1.506 1.864-4.361 2.73-3.722-.423.863-.313 1.872-.305 1.58-.334 2.19-1.33 4.27-1.164 6.525-.543 1.43 2.209 2.112.098 2.992-.238.254-.813.591-.985.065zM86.207 76.545c.848.715 3.153-.266 3.183.69-.737.62-3.922.309-3.373-.68l.19-.01zM87.61 80.634c1.076.312 3.967-.007 3.857.531-1.746.613-3.283-.395-5.161.006-1.898.665-3.025.85-4.886 1.87-.167.546-2.952 1.965-2.765 2.367.024.732-1.11 2.908-1.132 1.302-.074-.95 1.144-2.73 1.738-2.37.256-1.006 2.87-2.242 3.774-2.68 2.372-1.164 5.01-1.391 7.58-.99 2.542.268-.556 1.512-1.663.691-.45-.074-2.829.077-1.341-.728z"/>
            <path d="M78.69 85.724c1.48-1.323 2.96-2.69 4.865-3.384 1.528-1.078 3.446-1.537 5.293-1.23.743 1.22-2.654.118-3.449.917-1.472.705-2.997 1.337-4.32 2.299-.728.266-1.667 2.219-2.39 1.398zM77.26 76.796a9.156 9.156 0 0 0-1.58 5.244c-1.626.329-.22-2.984.141-3.828.39-.4.628-2.224 1.438-1.416zM10.772 113.651c.592 4.297-.216 8.94 2.285 12.734 1.492 3.32 3.264 6.545 6.072 8.964 1.405 1.8 3.936 1.22 5.36 2.817 2.628 1.376.319 1.873.172-.883-1.041-3.614-.92-7.44-.303-11.093.655-3.602.374-7.25-.48-10.769-.238-2.673-2.093-4.832-2.924-7.305-1.912-3.626-4.612-6.837-7.094-10.139-2.095-1.822-.321-2.861.705-.352 2.347 2.974 4.547 6.086 6.649 9.183.82 2.76 3.056 5.03 3.214 7.982.673 2.836 1.432 5.776.965 8.786-.512 3.19-.801 6.39-.783 9.682-.31 1.632 2.838 7.301.233 6.008-2.756-1.979-6.582-2.293-8.34-5.665-2.716-2.673-3.7-6.52-5.473-9.763-.543-3.217-1.339-7.595-.409-10.292l.151.105zM26.088 94.027c1.545-.96 3.247-1.535 4.85-2.377 1.576-.228 2.998-.925 4.538-1.313.876-.377 2.776-.687 3.097-.798-.19.161 2.523-.372 1.854-.33 1.634-.21 3.28-.29 4.945-.217 2.493.066 5.009-.19 7.473.233 1.7.147 3.27.867 4.945 1.102 1.514.635 2.964.647 4.452 1.254 1.396.36 2.859.561 4.135 1.233 1.212.481 2.39 1.514 3.05 1.904.848.859-1.129.78-1.393-.031a11.134 11.134 0 0 0-4.603-2.077c-1.376-.347-2.705-.782-4.1-1.08-1.523-.382-3.02-.794-4.536-1.195-2.04-.6-4.183-.783-6.301-.7-2.16.028-4.33-.053-6.483.057-1.396.12-2.756.433-4.146.635-1.569.336-3.1.821-4.622 1.31-1.281.529-2.74.55-3.903 1.402-1.205.348-2.526 1.38-3.547 1.517-.022-.182.045-.55.295-.529z"/>
            <path d="M78.877 85.76c-.937 2.238-1.882 4.607-1.485 7.086-.336 2.029.322 3.912 1.497 5.501.845 1.073-1.255 1.604-.526 1.442-.964 1.921-2.77 3.278-3.62 5.262-.844 2.13-2.562 4.081-2.2 6.516.088 1.383 1.054 3.544-.184 3.468-.754.353.698-.35-.447.527-.503.623-1.112.858-.956.829-.659.812-1.56 1.091-1.594 1.372-1.688 2.64-4.22.68-5.817-.932-1.452-1.258-.354-5.253 1.165-3.747-.565.745-1.44.245-1.147.546-.143 1.732.742 3.414 2.479 4.172.586 1.042 2.167.558 1.98.43.633-.897 1.783-1.345 1.73-1.498.417-.69 1.603-1.175 1.072-.98.588-.517 1.405-1.388 1.432-1.286.614.296-1.039-2.293-.503-3.52.029-2.497 1.8-4.45 2.605-6.738 1.286-1.599 2.433-3.493 3.728-4.898.5-.537-.155.484.226-.36-.65-1.369-1.919-2.668-1.663-4.332.035-2.415-.337-4.96.894-7.169.382-.431.417-2.478 1.334-1.691zM8.1 103.518c-1.15-5.437.474 2.71 1.603 4.427 1.803 3.046 1.502 7.226 4.099 9.68-2.49.93-2.846-5.354-3.952-7.397-.904-2.93-3.632-6.403-2.003-9.344.3.329 1.64 3.066.252 2.634zM13.416 127.892c-.946 2.49 2.878 5.172 2.442 6.456-1.891-.887-4.1-4.707-2.442-6.456zM19.406 133.735c1.371 1.488 3.392 2.183 4.78 3.63-.769-.736 1.216.035.498.702-1.447-.498-2.906-1.62-4.33-2.432-.586-.428-1.178-1.118-.948-1.9z"/>
            <path d="M24.121 133.089c-.014 1.333-.76 3.039-.757.628.01-2.52-.555-4.997-.699-7.472-.176-1.592 3.148-3.342.972-1.082-.286 3.306.789 6.67.27 9.934-1.357 3.17-1.01-2.684.214-2.008zM68.58 140.233c5.614-.282 11.244.06 16.863-.141 3.27 1.179-1.72 1.268-3.083.476-4.675-1.007-9.508-.724-14.25-.54-3.674.782-6.945 2.8-10.38 4.235-1.32 1.304-3.369.156-1.158-1.008 2.46-1.992 5.812-1.9 8.752-2.654 3.923-.966 7.952-.737 11.944-.64 2.33-.062 4.886-.006 6.834 1.404 1.612-.161 3.64 1.68 1.025 1.014-2.598-.998-5.207-2.246-8.122-1.84-3.74-.1-7.517-.379-11.198.515-1.524.264.029.022-1.839.374-2.601.615-5.659.656-7.589 2.746.633-.142 3.301-1.338 4.662-2.022 3.183-1.336 6.359-3.173 9.942-2.797 4.556-.22 9.153-.053 13.6 1.015.998-.16 3.414.377 1.29.716-2.542-.7-5.308-.203-7.941-.363-3.221.101-6.452-.24-9.664.111-.2-.191.04-.654.312-.6zM12.694 76.428c-1.22 2.464.128 7.132-1.511 8.42.206-2.542-.294-7.127 1.511-8.42z"/>
            <path d="M12.393 76.11c-1.126 4.317-1.368 8.786-1.763 13.179-1.35-1.373.151-6.202.174-8.769.957-.824.127-4.88 1.59-4.41zM8.453 97.913c.11 3.46.51 8.008.56 10.74-1.566-3.03-1.348-8.114-.706-10.855l.146.115zM9.947 106.432c1.427 1.452.285 5.833-.079 1.969.043-.502-1.29-2.301.079-1.969zM16.84 64.619c2.993-3.643 5.504-7.678 8.12-11.55 1.92-4.24 5.963-7.068 7.505-11.513 2.05-2.92 3.88-5.996 6.324-8.594.66-1.946 4.408-6.504 2.208-2.2-1.339 2.337-3.271 4.192-4.764 6.436-2.287 2.706-3.623 6.021-5.573 8.93-2.544 2.525-4.518 6.448-6.227 8.86-1.588 2.571-5.419 7.822-5.94 8.632-.456.316-1.043 1.883-1.654.999z"/>
            <path d="M41.916 29.996c-1.364 3.313-3.176 6.454-4.134 9.978-1.279 3.569-2.165 7.189-3.685 10.676-1.562 3.934-2.73 8.009-3.608 12.14-.329 1.433.5 6.84-.931 3.394-.174-2.203.379-4.208.767-6.204.758-2.477 1.497-5.083 2.284-7.59.89-2.09 1.656-4.337 2.532-6.446.751-1.983 1-4.333 2.043-6.249a38.746 38.746 0 0 1 2.532-6.579c.912-.556.891-3.851 2.2-3.12zM17.627 65.832c1.245-1.095 7.01-.116 3.423.16-.483-.508-5.03 1.183-3.423-.16zM24.412 66.929c2.16.016 3.051 2.41.417.815-1.11.618-1.179-1.003-.417-.815zM26.22 62.366c1.839-5.445 4.27-10.66 6.423-15.953.782-1.453 3.297-6.66 1.926-2.036-2.19 3.434-3.366 7.815-4.87 10.718-1.374 1.853-1.576 6.764-3.478 7.271zM16.469 63.617c-1.254-1.048-2.362.094-2.698-.317-.92-.546-2.096 4.004-.572 4.954 2.772 1.85-3.245.279-1.409-2.454-.532-2.584 2.547-3.506 2.772-2.762.142-1.109 3.718.144 1.907.579z"/>
            <path d="M14.129 65.19c-.293-3.329 3.776-1.671 1.564.896-3.635.665-.067-1.23-.081-.531.155-2.417-.906-2.246-1.076-.288l-.252.03-.155-.108zM31.147 69.71c2.259 2.35 1.486 6.2.855 9.077-.827 3.146-2.875 7.284.035 9.763-2.92.17-2.5-4.628-1.716-6.603 1.135-2.93 1.7-5.916 1.53-9.068.51-1.082-2.426-3.058-.704-3.17z"/>
            <path d="M29.93 65.483c3.114-.485 1.326 6.353.194 3.51 2.168 1.422-.39-2.006.767-2.487-.407-.37-2.351-.382-.961-1.023zM9.991 82.338c-.42-4.071.938-8.03 3.025-11.476 1.204-1.827 2.897-4.942.873-1.374-2.756 4.88-3.568 10.545-4.81 15.927.365 1.61-1.166 7.352-.926 2.821.27-4.392 1.593-8.643 2.67-12.888.918-2.49 2.172-8.314 4.806-7.776-1.93 3.254-3.84 6.685-4.934 10.435-.504.792.857 4.919-.704 4.33zM29.891 56.44c-.535 1.468-1.725 8.68-2.607 6.95 1.074-1.792.856-6.558 2.607-6.95z"/>
            <path d="M14.99 68.25c-2.238 1.57-2.689 3.113-4.216 6.02-1.16 3.517-2.47 6.996-2.916 10.674-1.073 4.035-.97 8.431-.538 12.538.477 3.013.698 6.003 1.647 8.916-.175 2.011 2.359 6.35.65 6.988-.715-3.06-1.037-6.39-2.154-9.4-.269-3.594-1.432-7.088-1.137-10.769-.477-3.637.65-6.991 1.162-10.46.533-3.08 1.833-5.963 2.702-8.957.956-2.458 2.496-3.567 3.27-5.278.355-.275 2.682-1.667 1.53-.272z"/>
        </g>
    </g>
    <text y="184.824" x="43.508" style="line-height:6.61458302px;-inkscape-font-specification:Siddiqua" font-weight="400" font-size="10.583" font-family="Siddiqua" letter-spacing="0" word-spacing="0" stroke-width=".265"/>
</svg>
