<svg xmlns="http://www.w3.org/2000/svg" width="560" height="640" viewBox="0 0 148.16666 169.33333">
    <g>
        <path d="M86.16 61.558s-8.697-3.148-7.673-7.44c1.217-5.095 5.892-4.522 8.832-4.682 7.94-.435 15.907 8.776 16.742 10.03 13.34 24.632 11.033 37.53 12.788 53.473-1.266 10.339-4.197 20.38-22.552 27.667-29.75 7.265-33.838.659-41.616-3.952C36.974 125.4 41.923 105.97 45.938 98.99c8.954-7.186 25.197-7.435 36.734-6.045 4.76-4.363 10.187-7.615 11.392-17.902-.24-5.692-1.528-10.86-7.905-13.485z" fill="#fafafa" fill-rule="evenodd"/>
        <path d="M95.407 83.63s-5.15 10.3-15.45 11.587c-10.3 1.288-24.278-1.471-26.67-.368-2.39 1.104-6.07 3.863-6.07 3.863l3.128-8.46s5.518-3.312 9.932-3.495c4.414-.184 18.76.735 18.76.735s6.07-.92 8.83-2.575a143.051 143.051 0 0 1 5.15-2.943z" fill="#917c6f" fill-rule="evenodd"/>
        <path d="M73.336 114.714s-7.91-7.357-10.668-12.14c-2.943-1.839-.326-16.466 1.103-18.944 1.427-2.474 5.334-6.806 5.334-6.806s-8.092 1.104-9.564 0c-1.471-1.103-4.046-4.598-4.046-4.598s-4.465 5.612-6.438 7.357c-4.782 4.23-9.748 2.76-9.748 2.76s10.484 4.23 13.059 8.092c2.575 3.863 3.862 14.53 3.862 14.53s6.438 3.311 8.277 6.438c1.84 3.127.736 4.047.736 4.047s-2.943 2.023-2.023 4.966c.92 2.942 4.598 2.759 6.805 1.655 2.207-1.104 3.495-3.863 4.23-5.15.736-1.288-.92-2.207-.92-2.207zM83.084 54.017s-30.532 3.127-32.004 3.31c-1.471.185-8.828.92-8.828.92s15.266 1.104 20.784 1.472c5.518.368 20.232 1.655 20.232 1.655 3.593-.682 3.58-3.67-.184-7.357zM87.866 142.855s-2.023 5.15-2.39 6.99c-.369 1.839-.553 2.942-.553 2.942l11.772 6.99s-4.414-1.472-6.806-.552c-2.39.92-5.885 1.655-5.885 1.655-3.931-1.273-8.034-1.836-13.427-.184 0 0 2.943-5.886 5.702-6.253 2.759-.368 5.518-1.656 5.518-1.656l.735-9.012z" fill="#00c8e1" fill-rule="evenodd"/>
        <g stroke-width=".573">
            <path d="M43.429 58.683c.816.073 7.68-.865 12.574-.765 2.583-.519 5.345-.826 8.039-1.129 3.296-.631 6.63-.831 9.945-1.384 2.59-.197 5.092-.695 7.576-1.217.78-.558 4.236-.586.872.462-1.824.725-5.36.96-7.843 1.53-6.016.468-12.013 1.593-18.032 2.23-4.395.354-8.858.527-13.28.97-.257-.138-.14-.678.149-.697zM46.543 59.424c4.231-.165 8.425-.362 12.612-.685 5.319-.636 10.808-.419 16.274-.458 3.94-.835 7.78.033 11.658.196.65 1.853-4.277.021-5.955.154-5.688.31-11.425.528-17.188.34-4.52.608-9.116.84-13.713.934-.337-.061-5.128.97-3.688-.481zM93.119 52.566c2.171 1.897.836 5.601-.843 5.49-.937.62-4.36.721-4.926-1.58-1.448-2.709.021-2.875.948.002.685 2.526 3.929.625 4.383.838 1.398-.804.704-3.263.043-4.662-.116-.038.42-.23.395-.088zM78.456 53.559c-.277-2.578 3.226-3.634 4.857-.832-1.066-.424-3.062-1.534-4.255-.566.786-.984.228 2.559-.602 1.398z"/>
            <path d="M75.301 59.42c2.89-.249 5.688.409 8.408.368 2.167-.068 4.451.99.773.967-2.896-.507-5.516-.586-8.705-.633-.661.537-1.08-.56-.476-.701zM84.239 60.772c2.82.841 5.416 2.555 7.564 4.6 2.226 3.089 1.908 6.938 2.175 10.49-.619 3.604-1.772 7.438-4.503 9.984-1.63 1.213-3.28 2.708-5.777 2.79-.583.22-3.98.444-5.486.922-3.592.106-7.298.385-10.888.016-1.146.368-4.909-1.113-2.726-1.27 1.903.732 4.7.67 7.026.727 3.833.103 7.52-.364 11.285-.937 1.506.01 3.76-.845 4.815-1.712 1.75-1.03 2.879-2.87 3.91-4.802 1.062-2.708 2.055-5.655 1.408-8.62.18-3.611-1.078-7.803-4.719-9.34-.372-1.23-5.436-1.8-4.084-2.847zM47.488 97.125c-2.365 4.06-4.973 8.482-4.615 13.37.102 4.724-.15 9.43.844 14.065.554 2.56 2.009 4.813 3.44 7.052 1.691 2.578 3.891 4.815 6.838 5.88 3.507 2.414 7.628 3.72 11.683 4.958 2.68 1.214 6.75 1.155 10.049 1.082 6.648.312 13.22-1.093 19.408-3.38 2.716-.479 4.903-2.678 7.043-3.771 2.614-1.454 4.772-3.222 7.211-5.133 1.283-2.43 3.676-6.4 5.7-8.84-.284 2.412-2.917 5.04-4.407 7.858-1.286 2.316-3.078 3.218-4.886 4.64-1.352.855-2.794 1.805-4.5 2.832-2.518 1.937-5.72 3.357-9.02 4.017-7.527 2.885-15.74 2.71-23.648 2.344-5.502-1.537-11.036-3.316-15.897-6.365-3.068-1.421-5.22-4.064-6.973-6.912-1.61-2.22-2.465-4.686-3.016-7.323-.71-4.245-.528-8.598-.605-12.933-.44-4.135 1.582-7.74 3.22-11.342.91-1.49 3.937-6.552 2.13-2.1zM41.914 110.563c-.406 3.487.117 7.41-.335 10.699-1.278-2.62-.359-7.438-.265-10.784.175-.085.502-.16.6.085z"/>
            <path d="M83.86 50.106c2.423-.928 5.402-.853 8.195-.487 2.759.783 5.35 2.957 7.663 4.965 2.506 1.466 4.419 3.774 5.535 6.337.813 1.819 1.397 3.728 2.598 5.45 1.422 2.748 1.985 4.782 3.323 7.595.701 2.303 1.197 4.244 1.95 6.614.872 2.978 1.493 5.972 2.008 8.986.556 1.48.795 3.007 1.126 4.905.511 2.143.467 4.436.724 7.13.22 2.733.217 5.459-.193 8.081-.837 3.435-.51 7.06-1.028 10.542-.56 1.823-1.185 5.101-2.42 5.68-.71-.754.88-1.833 1.105-3.584.49-1.86 1.06-3.839.852-6.347.12-2.47.576-4.752.797-7.16.518-2.178.22-5.347.048-8.253-.104-2.316-.066-4.13-.63-6.077-.417-2.909-1.397-5.745-1.841-8.765-.811-3.955-2.176-7.783-3.208-11.58-1.536-3.547-2.991-7.076-4.914-10.506-.805-2.453-1.919-4.588-3.683-6.48-3.093-2.359-6.1-5.163-9.43-6.784-2.123-.424-6.054-.176-7.22-.08-.534.29-2.02 1.014-1.357-.182z"/>
            <path d="M118.116 98.115c.56 5.393.794 10.9.382 16.326-1.314 1.504-.425 7.636-1.697 6.476-.465-2.586.793-5.304.938-7.323.387-4.755.365-9.697-.355-14.44-.57-.457.252-1.692.732-1.039zM116.014 89.468c.631 3.812 1.22 8.39.599 11.91-.962-3.005-.392-7.215-1.01-10.626-.237-.435-.551-1.785.411-1.284zM63.705 114.464c-.276 2.282-1.545 4.9 1.543 5.962 2.09 1.102 4.827.164 5.413-.562 1.5-1.46 3.34-4.26 2.047-5.938-3.117-3.308 3.396.882.84 3.196-.807 1.321-1.638 2.777-2.782 3.456-.92 1.004-4.616 1.717-6.551.102-2.324-.96-1.711-3.886-1.327-5.503-.363-.527.485-1.316.817-.713zM72.036 76.106c-2.857 2.214-6.663 2.442-10.2 2.516-2.54.246-3.64-1.77-5.114-3.637-.454-1.002-2.87-4.207-.803-2.625 1.637 1.584 2.244 4.553 4.408 5.216 2.694.84 6.17.142 8.869-.78 1.092.632 2.391-2.198 2.84-.69z"/>
            <path d="M55.777 72.978c.465 3.366-3.317 5.61-4.775 7.268-1.256 1.039-3.351 2.248-5.86 2.942-.536.163-4.31 1.08-3.386-.189 1.32.264 3.415-.513 5.536-1.265.863-.453 2.479-1.315 3.022-1.788 1.466-1.888 4.443-3.108 4.658-6.06-.504-.503.416-1.583.805-.908z"/>
            <path d="M42.166 82.885c3.367 1.526 6.913 3.333 8.885 6.607 1.929 2.068 2.843 5.156 3.928 7.485.537 1.863.825 3.743 1.055 6.003-.559 2.53 2.083 1.787 3.21 3.13 1.41.84 3.057 2.553 4.27 4.218.647 1.816 2.325 3.333 2.26 4.906-1.483-.38-1.708-3.289-2.965-4.534-1.447-2.086-3.415-4.06-5.555-4.883-2.218.122-1.896-2.939-2.301-4.687.089-3.46-1.958-6.531-3.284-9.736-2.235-2.666-4.446-5.99-8.126-6.902-.437-.229-2.94-1.201-1.377-1.607zM70.93 77.588c-3.111 1.353-4.554 4.825-6.178 7.53-1.59 4.852-3.095 9.806-2.635 14.977-1.07 2.105.69 3.136 1.539 4.662 1.348 2.003 2.802 3.473 4.373 5.108 1.102 1.519 1.378 2.906 2.563 4.27-.144 4.272-.96-.97-2.125-2.028-.995-2.49-3.44-3.75-4.812-6.146-1.02-1.829-3.34-3.373-2.29-5.788-.003-3.158-.12-6.188.939-9.018.195-1.82.98-3.472 1.438-5.21.153-1.006 1.016-2.483 1.674-3.546 1.487-1.892 3.127-5.638 5.671-5.193.433.046-.311.402-.157.382zM82.454 145.166c-.343 2.098.644 6.54-.887 7.239.347-1.669-.672-7.125.887-7.239zM81.3 153.004c-1.44.316-3.451 1.092-4.083 1.405-2.348.82-4.857 1.701-5.682 4.582-.379 1.968-3.213 3.278-1.32.804.97-1.637 1.84-4.326 4.08-4.875 2.221-1.087 4.317-1.865 6.923-2.63.29.05.354.601.081.714z"/>
            <path d="M69.758 160.06c2.905-1.582 4.066-1.204 7.527-1.452 1.57.573 3.486.136 4.707 1.258 1.848.26 2.32 2.89.08.82-1.048-.894-3.127-.947-4.865-1.37-2.491-.382-5.012.702-7.458.933l.009-.187zM84.955 159.928c2.475-1.249 5.212-1.316 7.955-1.323 1.001.186 5.769 1.653 2.38 1.494-2.42-1.226-5.692-.782-8.756-.113-.353-.058-2.215 1.462-1.579-.058zM95.608 159.019c-2.327-2.184-5.041-3.86-8.119-4.856-1.093-.59-5.267-1.522-1.87-1.493 2.693.955 5.74 1.996 8.21 3.956.3.513 3.626 2.042 1.779 2.393zM85.708 149.969c.217-1.602 1.702-7.173 2.64-5.764-.622.707-.734 2.081-1.136 2.955-.98-.754.082 4.037-1.504 2.809z"/>
            <path d="M83.49 155.51c1.442 1.603.48 8.215.068 2.93.21-.756-1.7-3.315-.068-2.93zM89.613 143.332c-1.573 1.468-1.321 8.77-2.837 7.194.708-1.536.936-7.68 2.837-7.194zM111.306 124.593c-1.864 2.42-2.998 5.11-5.272 7.149-.48.028-5.974 5.18-3.999 2.031 1.897-1.366 3.307-2.068 4.767-3.83 1.648-1.532 2.267-4.549 4.233-5.676l.219.139.052.186zM45.451 126.337c1.133 2.342 2.604 3.617 4.013 5.052 2.11 1.404 2.427 5.197.288 1.489-1.628-2.088-3.989-3.729-4.902-6.335.124-.163.393-.387.601-.206zM81.923 50.024c2.956 1.303-2.38.948 1.494.529 1.328.988 4.97.615 5.896.217.888-.025 5.325-.544 3.453.09 2.13-2.352 3.442 1.633 1.169 1.314-.323-.255-5.54.834-7.867.772-1.534-.027-4.62-.497-3.037-1.062-1.509 1.13-3.848-1.634-1.108-1.86zM87.176 54.086c.29 2.773-1.767-.687.001 0z"/>
            <path d="M87.346 52.834c2.38-2.959 3.086-.67.238.342l-.202-.155-.036-.187zM64.567 90.12c1.171-.044 5.918-1.068 3.883.475-1.488-.894-3.17 1.14-4.057-.372l.174-.102zM94.58 83.118c-1.468 2.026-2.828 4.13-4.262 5.169-1.944 1.55-3.214 2.639-5.479 3.745-1.628.471-2.087.732-4.028 1.396-1.322.51-2.482 1.256-4.749 1.156-.975.363-4.505.62-6.632 1.044-2.89-.647-5.823 1.037-7.028-.5 2.334-.267 5.429-.215 8.408-.453 2.971-.508 4.843-.545 7.43-.997 1.549-.662 4.49-1.71 6.525-2.432 1.789-.789 2.276-1.33 3.857-2.596.952-.464 1.848-1.244 2.828-2.677.707.237 2.026-4.325 3.13-2.855zM52.027 97.319c-2.404 1.186-2.26.602-3.585 1.667-1.19 1.786-2.403 1.113-1.308-1.725.27-1.842 1.56-4.5 2.417-5.142 1.158-1.058 1.606.227.158.82-.814 1.262-1.215 2.315-1.616 3.443.1 1.833-1.64 4.471-1.017 2.79 1.252-.994 2.944-2.346 5.125-2.269.274.284-.187.255-.174.416zM88.48 55.207c4.02-3.573.954 5.588.982 2.33.92.32 1.027-4.315-.817-1.996-.01.138-.3-.346-.165-.334zM88.535 55.754c-1.32 2.398-1.034-1.457 0 0z"/>
            <path d="M85.13 52.708c5.23.977-5.798.411-.518.116 1.801.147 5.782.809 1.634.95-2.813-.027-4.638-1.65-.493-.988 3.415.03-1.857 1.569-.622-.078zM69.462 110.338c-.106 1.705 1.588 1.46 2.19 3.202-1.638.144-1.285-2.075-2.447-2.078-.854-.179-.331-1.637.257-1.124zM65.247 116.678c-.781 1.867 3.48.403 1.464 1.817.265.105-4.007-1.37-1.464-1.817zM79.642 52.843c3.648-1.284-.411 3.81.642 1.286.512-1.356.464-.535-.798-.917-.054-.13.021-.32.156-.37z"/>
        </g>
    </g>
</svg>
