<svg xmlns="http://www.w3.org/2000/svg" width="390" height="680" viewBox="0 0 103.18749 179.91666">
    <g>
        <path d="M59.113 62.235s-8.696-3.149-7.672-7.44c1.216-5.096 5.892-4.522 8.832-4.683 7.94-.434 15.906 8.777 16.742 10.03 13.34 24.633 11.032 37.53 12.787 53.474-1.265 10.338-4.196 20.38-22.551 27.666-29.751 7.266-33.838.66-41.617-3.952-15.706-11.252-10.757-30.683-6.742-37.664 8.954-7.186 25.197-7.434 36.734-6.045 4.76-4.363 10.186-7.615 11.392-17.902-.24-5.691-1.528-10.86-7.905-13.484z" fill="#fafafa" fill-rule="evenodd"/>
        <path d="M68.1 84.139s-5.15 10.3-15.45 11.587c-10.3 1.288-24.278-1.471-26.67-.367-2.39 1.103-6.069 3.862-6.069 3.862l3.127-8.46s5.518-3.311 9.932-3.495c4.415-.184 18.761.735 18.761.735s6.07-.92 8.829-2.575a143.051 143.051 0 0 1 5.15-2.942z" fill="#917c6f" fill-rule="evenodd"/>
        <path d="M46.03 115.223s-7.91-7.357-10.669-12.14c-2.943-1.839-.326-16.466 1.104-18.944 1.427-2.473 5.334-6.805 5.334-6.805s-8.093 1.103-9.565 0c-1.47-1.104-4.046-4.599-4.046-4.599s-4.465 5.613-6.437 7.357c-4.783 4.23-9.749 2.76-9.749 2.76s10.484 4.23 13.06 8.092c2.574 3.863 3.862 14.53 3.862 14.53s6.437 3.311 8.277 6.438c1.839 3.127.735 4.047.735 4.047s-2.943 2.023-2.023 4.966c.92 2.943 4.598 2.759 6.805 1.655 2.208-1.103 3.495-3.862 4.23-5.15.737-1.287-.919-2.207-.919-2.207zM55.777 54.526s-30.532 3.127-32.003 3.311c-1.472.184-8.829.92-8.829.92s15.266 1.103 20.784 1.471c5.518.368 20.232 1.655 20.232 1.655 3.594-.682 3.58-3.67-.184-7.357zM60.56 143.364s-2.024 5.15-2.391 6.99c-.368 1.839-.552 2.942-.552 2.942l11.771 6.99s-4.414-1.472-6.805-.552c-2.391.92-5.886 1.655-5.886 1.655-3.931-1.272-8.033-1.835-13.427-.184 0 0 2.943-5.885 5.702-6.253 2.759-.368 5.518-1.656 5.518-1.656l.736-9.012z" fill="#00c8e1" fill-rule="evenodd"/>
        <g>
            <path d="M16.122 59.192c.816.073 7.681-.864 12.575-.765 2.582-.519 5.344-.826 8.038-1.129 3.297-.631 6.631-.831 9.945-1.384 2.59-.197 5.092-.694 7.577-1.217.779-.558 4.235-.585.871.463-1.824.724-5.36.96-7.842 1.53-6.017.467-12.014 1.592-18.033 2.228-4.395.355-8.858.529-13.279.971-.257-.138-.141-.678.148-.697zM19.237 59.933c4.23-.165 8.425-.362 12.61-.684 5.32-.636 10.81-.42 16.276-.459 3.94-.834 7.78.033 11.658.196.649 1.853-4.278.021-5.956.154-5.688.31-11.425.528-17.188.341-4.519.607-9.115.839-13.712.934-.338-.062-5.129.969-3.688-.482zM65.812 53.075c2.172 1.897.836 5.602-.843 5.49-.936.621-4.36.722-4.926-1.579-1.448-2.71.022-2.876.949.001.684 2.526 3.928.625 4.383.838 1.397-.804.704-3.263.043-4.662-.116-.038.42-.23.394-.088zM51.149 54.068c-.276-2.578 3.227-3.634 4.857-.832-1.066-.423-3.061-1.534-4.255-.565.786-.985.229 2.558-.602 1.397z"/>
            <path d="M47.994 59.93c2.89-.25 5.689.408 8.408.367 2.167-.067 4.451.99.773.967-2.896-.507-5.515-.585-8.705-.633-.66.537-1.08-.56-.476-.701zM56.932 61.281c2.82.842 5.416 2.556 7.564 4.6 2.226 3.089 1.908 6.938 2.176 10.49-.62 3.604-1.773 7.438-4.503 9.984-1.63 1.214-3.28 2.708-5.778 2.79-.583.22-3.98.444-5.485.922-3.592.106-7.299.385-10.888.016-1.146.369-4.91-1.113-2.727-1.27 1.903.732 4.7.67 7.027.727 3.832.103 7.519-.364 11.284-.937 1.506.01 3.76-.844 4.815-1.712 1.75-1.03 2.88-2.869 3.91-4.802 1.062-2.708 2.056-5.655 1.409-8.62.18-3.611-1.078-7.803-4.72-9.34-.371-1.229-5.436-1.8-4.084-2.847zM20.181 97.634c-2.364 4.06-4.972 8.482-4.615 13.37.103 4.724-.15 9.43.845 14.065.553 2.56 2.008 4.814 3.44 7.052 1.69 2.578 3.89 4.816 6.838 5.88 3.507 2.415 7.628 3.72 11.683 4.959 2.68 1.213 6.75 1.155 10.048 1.08 6.649.313 13.22-1.092 19.408-3.378 2.716-.48 4.903-2.679 7.043-3.772 2.614-1.454 4.773-3.221 7.212-5.133 1.282-2.43 3.675-6.4 5.7-8.84-.285 2.412-2.917 5.04-4.408 7.858-1.286 2.317-3.078 3.218-4.886 4.64-1.351.856-2.794 1.805-4.5 2.832-2.518 1.937-5.72 3.358-9.02 4.018-7.527 2.884-15.739 2.71-23.648 2.343-5.502-1.537-11.035-3.316-15.897-6.365-3.068-1.421-5.22-4.064-6.973-6.912-1.61-2.22-2.465-4.685-3.016-7.323-.71-4.245-.528-8.598-.605-12.933-.44-4.135 1.582-7.74 3.22-11.342.911-1.49 3.938-6.552 2.131-2.1zM14.608 111.072c-.406 3.487.117 7.41-.336 10.7-1.277-2.621-.358-7.439-.265-10.785.176-.085.503-.159.6.085z"/>
            <path d="M56.553 50.615c2.424-.928 5.402-.853 8.195-.487 2.76.783 5.35 2.957 7.663 4.965 2.507 1.467 4.42 3.774 5.535 6.337.813 1.819 1.398 3.729 2.598 5.45 1.422 2.748 1.986 4.782 3.323 7.595.701 2.303 1.198 4.244 1.951 6.614.871 2.979 1.492 5.973 2.008 8.986.555 1.48.794 3.007 1.125 4.905.512 2.144.468 4.436.724 7.13.22 2.733.218 5.46-.192 8.081-.838 3.435-.51 7.06-1.028 10.542-.56 1.823-1.186 5.101-2.42 5.68-.711-.754.88-1.832 1.105-3.584.489-1.86 1.059-3.839.851-6.346.12-2.47.576-4.753.797-7.16.519-2.179.221-5.348.049-8.253-.104-2.317-.066-4.131-.631-6.078-.417-2.909-1.397-5.745-1.84-8.765-.812-3.955-2.177-7.783-3.209-11.58-1.536-3.546-2.99-7.076-4.913-10.506-.806-2.453-1.92-4.587-3.684-6.48-3.093-2.359-6.099-5.162-9.43-6.783-2.123-.424-6.054-.176-7.22-.082-.534.29-2.02 1.015-1.357-.18z"/>
            <path d="M90.81 98.625c.559 5.392.793 10.9.382 16.326-1.315 1.503-.426 7.635-1.698 6.475-.465-2.586.794-5.303.939-7.323.386-4.755.364-9.697-.356-14.44-.57-.456.253-1.692.732-1.038zM88.707 89.978c.632 3.81 1.221 8.39.6 11.91-.962-3.006-.392-7.216-1.01-10.627-.238-.435-.552-1.785.41-1.283zM36.399 114.973c-.277 2.282-1.546 4.9 1.542 5.962 2.09 1.102 4.828.164 5.414-.562 1.5-1.46 3.34-4.26 2.047-5.938-3.118-3.307 3.395.882.839 3.196-.807 1.321-1.638 2.777-2.782 3.456-.92 1.004-4.615 1.717-6.551.103-2.323-.962-1.711-3.887-1.327-5.504-.363-.526.485-1.316.818-.713zM44.73 76.616c-2.857 2.213-6.663 2.44-10.2 2.515-2.54.246-3.64-1.769-5.115-3.637-.454-1.002-2.87-4.207-.803-2.625 1.637 1.584 2.245 4.553 4.408 5.217 2.694.84 6.17.141 8.869-.78 1.092.631 2.392-2.199 2.84-.69z"/>
            <path d="M28.47 73.487c.465 3.367-3.316 5.61-4.775 7.268-1.255 1.039-3.351 2.248-5.86 2.942-.535.164-4.31 1.081-3.386-.189 1.32.264 3.415-.513 5.537-1.265.863-.453 2.478-1.315 3.021-1.788 1.466-1.888 4.443-3.108 4.658-6.06-.504-.503.416-1.583.806-.908z"/>
            <path d="M14.86 83.394c3.367 1.526 6.912 3.333 8.884 6.607 1.93 2.068 2.844 5.156 3.929 7.485.537 1.863.825 3.743 1.055 6.004-.56 2.53 2.082 1.786 3.21 3.13 1.41.84 3.057 2.553 4.27 4.217.647 1.817 2.325 3.334 2.259 4.906-1.483-.379-1.708-3.289-2.965-4.534-1.447-2.086-3.415-4.06-5.554-4.883-2.219.122-1.896-2.939-2.302-4.686.089-3.46-1.958-6.532-3.283-9.736-2.236-2.667-4.446-5.991-8.127-6.903-.437-.229-2.94-1.2-1.376-1.607zM43.623 78.097c-3.111 1.353-4.554 4.826-6.178 7.53-1.589 4.852-3.095 9.806-2.634 14.977-1.07 2.106.689 3.137 1.538 4.662 1.348 2.003 2.802 3.473 4.373 5.109 1.102 1.518 1.379 2.906 2.563 4.27-.144 4.271-.96-.97-2.124-2.029-.996-2.49-3.44-3.75-4.813-6.146-1.02-1.828-3.339-3.372-2.289-5.787-.004-3.159-.12-6.189.938-9.019.196-1.82.98-3.472 1.439-5.21.153-1.006 1.015-2.483 1.673-3.546 1.488-1.892 3.128-5.638 5.672-5.193.432.046-.312.402-.158.382zM55.148 145.675c-.343 2.098.644 6.54-.888 7.239.347-1.668-.672-7.125.888-7.239zM53.993 153.513c-1.44.316-3.45 1.093-4.083 1.406-2.348.819-4.857 1.7-5.682 4.581-.378 1.968-3.213 3.279-1.32.804.97-1.637 1.84-4.325 4.08-4.875 2.221-1.087 4.318-1.865 6.924-2.63.29.05.353.602.08.714z"/>
            <path d="M42.451 160.57c2.906-1.583 4.066-1.205 7.527-1.452 1.57.572 3.486.135 4.708 1.257 1.847.26 2.32 2.89.08.821-1.048-.894-3.128-.948-4.865-1.37-2.492-.383-5.013.7-7.458.932l.008-.187zM57.648 160.437c2.476-1.249 5.213-1.316 7.955-1.323 1.002.186 5.77 1.653 2.38 1.494-2.42-1.226-5.692-.781-8.755-.113-.354-.058-2.216 1.462-1.58-.058zM68.301 159.528c-2.326-2.184-5.041-3.86-8.119-4.856-1.093-.59-5.266-1.522-1.87-1.493 2.693.956 5.74 1.996 8.21 3.956.3.513 3.626 2.042 1.78 2.393zM58.401 150.478c.218-1.602 1.702-7.173 2.64-5.764-.621.707-.734 2.081-1.136 2.956-.979-.755.082 4.036-1.504 2.808z"/>
            <path d="M56.184 156.02c1.442 1.602.48 8.214.067 2.93.211-.757-1.7-3.316-.067-2.93zM62.306 143.84c-1.573 1.469-1.32 8.771-2.837 7.195.709-1.536.937-7.68 2.837-7.194zM84 125.102c-1.865 2.42-2.999 5.11-5.273 7.15-.48.027-5.974 5.18-3.999 2.03 1.898-1.366 3.307-2.068 4.767-3.83 1.648-1.532 2.268-4.549 4.234-5.676l.218.139.052.186zM18.145 126.846c1.133 2.342 2.603 3.618 4.012 5.052 2.111 1.404 2.427 5.197.289 1.489-1.628-2.088-3.99-3.728-4.903-6.334.124-.163.393-.388.602-.207zM54.616 50.533c2.957 1.303-2.379.948 1.494.529 1.328.988 4.971.615 5.896.217.888-.025 5.326-.544 3.453.09 2.13-2.351 3.442 1.634 1.17 1.314-.324-.255-5.541.834-7.868.772-1.533-.027-4.619-.497-3.037-1.062-1.508 1.13-3.848-1.634-1.108-1.86zM59.869 54.595c.29 2.774-1.766-.687.001 0z"/>
            <path d="M60.04 53.344c2.379-2.96 3.085-.67.237.341l-.202-.154-.035-.188zM37.26 90.63c1.172-.044 5.919-1.069 3.883.474-1.487-.893-3.17 1.14-4.057-.372l.174-.102zM67.274 83.627c-1.469 2.026-2.829 4.13-4.263 5.169-1.944 1.55-3.214 2.64-5.479 3.745-1.627.471-2.086.732-4.028 1.397-1.321.51-2.482 1.255-4.749 1.155-.975.363-4.505.62-6.632 1.044-2.89-.646-5.822 1.037-7.028-.5 2.335-.267 5.43-.215 8.408-.453 2.972-.508 4.843-.544 7.43-.997 1.55-.661 4.49-1.71 6.526-2.432 1.788-.788 2.276-1.33 3.856-2.596.953-.464 1.848-1.244 2.828-2.677.708.237 2.026-4.325 3.131-2.855zM24.72 97.828c-2.404 1.186-2.26.602-3.584 1.668-1.191 1.786-2.403 1.112-1.308-1.726.269-1.842 1.56-4.5 2.416-5.142 1.159-1.058 1.606.228.159.82-.815 1.262-1.216 2.315-1.616 3.443.099 1.833-1.641 4.471-1.018 2.79 1.252-.994 2.945-2.346 5.125-2.268.274.283-.187.254-.173.415zM61.173 55.716c4.02-3.573.954 5.588.982 2.33.92.32 1.027-4.315-.817-1.996-.01.138-.299-.346-.165-.334zM61.228 56.263c-1.319 2.398-1.034-1.456 0 0z"/>
            <path d="M57.824 53.217c5.229.978-5.798.412-.518.116 1.8.147 5.781.809 1.633.95-2.812-.027-4.637-1.65-.492-.988 3.415.03-1.858 1.57-.623-.077zM42.156 110.847c-.107 1.705 1.587 1.46 2.189 3.202-1.638.145-1.285-2.075-2.447-2.078-.853-.178-.33-1.637.258-1.124zM37.94 117.188c-.781 1.866 3.48.403 1.464 1.816.266.105-4.006-1.37-1.464-1.816zM52.335 53.352c3.648-1.283-.411 3.81.642 1.286.512-1.355.464-.535-.798-.917-.053-.13.022-.32.156-.369z"/>
        </g>
    </g>
</svg>
