<svg xmlns="http://www.w3.org/2000/svg" viewBox="0 0 198.4375 187.85416" height="710" width="750">
    <g stroke-width="1.267">
        <path d="M83.615 40.651L63.482 77.523S76.15 63.498 80.448 60.105c4.298-3.393 13.798-12.894 13.798-12.894.564-.423.068-7.366-4.524-6.334-1.583-.226-6.107-.226-6.107-.226zM62.125 149.683s7.012-4.75 12.894-3.394c5.881 1.358 13.346 3.394 13.346 3.394l-.453-2.715 7.578 1.47s4.411 5.09 4.411 6.221c0 1.131-7.012.226-8.595-.226-1.584-.452-6.56-1.81-6.56-1.81l-3.846 3.393s-2.94-2.714-5.655-2.94c-2.715-.227-5.43.226-5.43.226l-1.356-3.167M105.783 149.23s4.298 4.072 4.298 6.56c0 2.488-.453 7.691-.453 7.691l-11.763 7.917s10.406.453 11.31.679c.906.226 6.56.679 6.56.679 2.415-1.507 4.215-3.505 9.501-2.715l2.941-1.13s-12.215-5.43-14.93-5.204c-2.714.227.905-10.858.905-10.858l1.358-5.202z" fill="#00c8e1" fill-rule="evenodd"/>
        <path d="M105.557 66.891s1.13 14.251 7.917 26.692c9.048 16.061 15.382 22.395 15.382 26.014 0 3.62 1.583 8.144 1.583 8.144s-12.667-12.668-14.477-14.251c-1.81-1.584-14.93-17.645-15.156-24.657-.226-7.012-.678-10.858.226-13.12.905-2.262 4.525-8.822 4.525-8.822z" fill="#917c6f" fill-rule="evenodd"/>
        <g stroke-width=".487">
            <path d="M83.412 42.492c-1.467 3.174-3.508 6.858-5.44 10.488a158.428 158.428 0 0 0-6.671 11.678c-1.358 4.58-4.722 8.193-6.342 12.598-1.617 3.25-1.58 1.095-.76-.763.991-2.452 3.052-5.201 4.29-7.926 1.954-3.36 2.95-7.191 5.363-10.327 2.674-4.728 5.434-9.39 7.873-14.266-.233 1.381.725-3.14 1.687-1.482z"/>
            <path d="M93.489 46.472c-3.026 2.42-6.435 5.596-9.696 8.928-3.116 3.513-6.204 7.098-9.415 10.556-2.125 2.547-2.833 2.688-4.513 5.293-2.05 2.667-2.996 5.404-4.988 7.041-1.233-.796.808-1.64 1.423-3.056.777-1.701 2.592-4.233 3.869-6.018 1.681-1.627 3.935-4.39 6.257-6.925 3.205-3.075 5.47-6.774 8.928-9.627 1.895-2.372 5.024-4.503 6.559-5.985.032-.713 1.644-1.175 1.576-.207zM93.77 41.887c1.62-3.357 6.033-1.421 5.757 1.244 1.927 6.446-8.27.305-4.653 1.105 1.283 1.933 5.234 1.59 3.745-1.386-.86-2.196-2.586-2.614-3.449-1.161-.088.64-1.351 1.046-1.4.198z"/>
            <path d="M94.619 42.414c4.007-4.007 3.067 5.993.408 1.507 1.867.528 1.809.126 1.274-1.65.27-.224-1.693 1.61-1.682.143zM84.942 39.348c2.298-1.371.372-1.204 2.537-3.094-1.191.976-2.689-.468-3.401 2.989-2.15.141.65-3.23 1.258-3.222 2.546-1.253 2.812 1.732 1.67 1.85.306.566-1.796 3.194-2.064 1.477z"/>
            <path d="M88.247 34.151c2.39-1.893 2.75-2.59 5.999-3.4 2.809-.522 6.501-.69 8.26 2.045 1.13 2.113 2.363 4.1 2.948 6.446.48 2.645 1.728 6.488 1.557 9.669.795 5.326.053 10.834-1.207 16.074-1.191 4.707-1.805 9.442-2.168 14.264-.517 4.44.263 8.797 1.304 13.026.053 2.427 3.743 5.1 2.379 6.658-2.037-2.582-3.526-6.321-4.006-9.705-.785-4.006-1.118-8.242-.327-12.379.17-3.87.855-7.694 1.881-11.473 1.115-5.393 2.087-10.9 1.24-16.394.135-3.405-1.092-6.73-1.563-9.99-1.105-2.299-1.94-4.99-3.692-6.6-2.585-2.1-8.022-.517-9.239.233-.176-.986-2.562 3.395-3.366 1.526z"/>
            <path d="M106.255 97.246c.954 3.491 3.427 6.093 5.933 8.303 2.926 3.314 5.422 7.132 8.554 10.082 1.89 2.28 3.081 4.79 5.332 7.031.683.882 3.459 5.131.945 3.013-1.737-2.62-4.05-5.033-5.676-7.81-2.125-2.531-4.785-5.164-6.84-8.097-1.853-2.349-3.879-4.62-6.214-6.707-.633-1.063-4.147-5.6-2.034-5.815zM136.192 77.594c-2.156 4.066-4.326 8.041-5.971 12.356-1.677 3.973-3.369 8.055-4.547 12.24-.831 1.366-3.32 10.397-3.255 6.17.964-3.263 2.418-6.404 3.347-9.659 1.41-3.082 2.026-5.862 3.562-8.979 1.723-4.31 3.728-8.507 6.15-12.453.25-.041.681-.014.714.325z"/>
            <path d="M135.831 80.022c-1.92 8.16-5.212 16.098-5.875 24.48.261 4.06-.65 8.475-.01 11.971-.163.747 1.604 4.848-.214 4.249-.322-2.78-.957-5.181-.95-8.206.554-4.786-.347-9.923 1.34-14.607 1.19-6.14 3.272-12.12 4.986-18.122.236-.067.653-.087.723.235z"/>
            <path d="M131.67 122.078c2.035 4.367 2.06 9.581 1.608 14.39-.593 4.052-3.24 7.49-6.829 8.81-2.999 1.827-7.137 2.133-10.651 3.126-4.213.795-8.606 1.118-12.96.662-3.894-.214-7.739-.631-11.525-1.49-2.814-.38-5.611-.508-8.379-1.41-3.401-.353-5.668-2.684-8.73-3.99-4.254-3.636-8.52-7.84-10.331-13.2-2.707-4.685-1.233-10.363-.515-15.351.91-4.628 2.334-9.39 5.217-13.1 2.524-3.79 4.97-7.54 7.596-11.267 2.436-3.17 4.015-9.715 6.888-11.087-1.786 4.08-4.042 7.55-6.072 11.516-2.459 3.482-4.788 7.03-7.156 10.52-2.022 2.973-4.074 6.52-4.698 9.943-.925 3.348-1.43 6.609-1.79 10.035-.664 4.428.997 8.595 3.198 12.244 1.98 2.862 5.222 7.004 8.677 9.225 3.09 1.523 5.652 3.623 9.22 3.892 3.615 1.216 6.756.685 10.578 1.872 4.565.568 9.12.876 13.777 1.01 5.606-.548 11.285-1.564 16.658-3.54 1.98-1.362 4.574-1.928 5.512-4.705 1.196-1.756 1.546-4.34 1.597-6.775.22-3.436-.24-7.015-1.356-10-.846-.364-.251-1.87.465-1.33z"/>
            <path d="M88.72 54.6c-.364 5.385.737 11.114-2.28 15.969-1.435 5.485-3.33 10.898-6.488 15.616-2.607 2.527 1.533-4.415 2.233-5.94 2.069-4.014 2.563-8.551 4.54-12.63 1.849-4.053.363-8.886 1.234-13.201.238-.089.664-.137.762.185z"/>
            <path d="M86.822 55.455c.463 4.751.054 10.514-2.213 14.401.138-4.21 2.375-9.45 1.32-14.216.03-.371.717-.513.893-.185zM105.95 67.737c.11 3.017 1.434 4.712 1.553 8.385.748 1.802.808 4.664 1.306 6.063 1.567 3.025 2.806 6.424 4.189 9.315 1.156 1.548 2.259 3.59 3.116 5.702 1.438 2.645 2.995 5.664 4.582 7.915 1.447 2.24 3.032 3.934 4.416 5.881 1.9 3.743 4.383 7.263 5.113 11.507.467 2.674-.361 6.776-.731 4.848-.328-2.416.075-5.21-.963-7.62-1.911-3.873-3.54-8.035-6.534-11.167-2.87-3.798-5.2-7.966-7.34-12.223-.68-2.616-2.878-4.203-3.271-6.369-1.402-2.61-1.921-4.257-3.04-6.872-1.277-2.773-1.333-6.046-1.94-9.008-.464-2.485-1.925-5.614-.456-6.357zM61.584 149.73c2.8-2.128 2.83-1.67 5.255-2.787 3.135-.675 2.99-.647 5.842-.921 3.493-.112 6.807-.092 9.902 1.002 2.664-.21 3.684 1.813 6.048 2.149.739 1.925-3.545-.288-3.772-.81-2.695-.518-4.783-1.196-7.201-1.424-3.686.115-6.588-.387-8.893.436-3.004.736-3.526 1.106-5.276 1.973-.562.294-1.704 1.863-1.905.383z"/>
            <path d="M86.876 147.176c3.962 5.668-2.984.578 0 0zM95.945 149.272c1.256 1.612 2.968 2.667 4.084 4.857-1.535 2.86-6.207-1.866-1.722-.099 2.167 1.084-1.036-1.732-1.656-2.7.831.48-2.936-2.275-.706-2.058zM94.694 154.682c-1.892-.943-4.773-.714-8.58-1.374-3.324-1.923-4.793 4.188-5.83 1.764-.994-1.045-1.866-3.232-4.032-2.922-2.53-.218-5.12.479-5.762 1.387-1.89 1.111-.914-3.67-3.513-3.108-2.641-.95-4.46-.372-5.226.21-1.695-1.431 3.823-1.979 5.472-1.143 3.928-.254 1.74 5.492 3.17 3.206 2.588-2.113 8.17-2.444 9.803.883 2.29 3.045-.854 2.096 1.241-.036 3.004-2.19 6.789-.811 10.051-.356 3.395.854-.472.106 3.584.67.278.243-.015.87-.378.82z"/>
            <path d="M70.257 150.566c1.956-2.172 3.946-2.009 6.118-1.41-1.751 1.105-4.461-.389-5.27 1.734-.226.296-.878.045-.848-.324zM116.199 149.703c-1.455 2.578-2.095 5.842-2.557 8.965-.486 1.836-.708 9.688-1.396 3.905-.048-2.28.554-4.171.898-6.608.692-2.34.942-4.334 2.211-6.584.224-.294.874-.045.844.322zM113.733 164.484c4.708.778 9.046 2.947 13.444 4.682 4.524 3.35-2.434.273-4.297-.857-2.113-1.55-9.504-2.04-9.147-3.825z"/>
            <path d="M124.154 169.924c-3.093-.133-6.13-.45-7.795 1.127-.706.808-4.049 2.653-1.992.491 1.631-1.759 4.164-2.825 7.486-2.604.602-.065 3.978-.213 2.301.986zM112.11 172.286c-3.072-.329-5.947-1.661-9.649-1.257-2.112-.192-4.993 1.78-6.541.979 3.2-1.94 7.806-2.303 11.59-1.602.874.72 6.245.438 4.6 1.88zM99.608 169.333c2.572-1.065 3.17-1.994 4.535-2.735 1.108-.655 2.168-.931 3.413-2.008 1.231-1.515 2.415.053.768.5-1.61 1.384-3.575 1.982-4.433 2.637-.814.034-3.278 3.193-4.283 1.606zM107.867 149.942c2.628 2.567 2.222 6.419 3.28 9.576 1.173 3.056-2.282 5.642-.781 2.13.237-2.743-1.25-5.219-1.39-7.897.42-1.346-3.148-3.534-1.109-3.81zM86.552 35.97c1.035.338.828 1.1 1.173 1.58 1.166 1.508.881 1.862 2.013 1.906 1.613.061 1.944.647 1.698.248 1.9-.707 6.461-.493 5.138-.734 4.29-1.568 2.734 2.747 1.452 2.126 1.263-1.078-4.276.41-5.211.504-3.368.837-5.418-1.071-6.378-1.559.349-.614-3.564-3.39.115-4.073z"/>
            <path d="M89.214 38.027c.813 2.217 7.505-.821 6.376 1.454-3.253-.071-5.497 1.025-6.61-1.429l.234-.025zM87.261 33.002c2.982-1.161 1.716-1.345 4.62-1.777-.057-1.97 9.713.662 4.531.146-3.584.01-4.95.412-6.617 1.296.722-1.101-2.31 2.302-2.532.337z"/>
            <path d="M92.527 29.82c2.706.78 1.696-.86 5.88-.436 5.775.369.895 1.616-2.296.81-1.622-.556-1.53 1.065-3.911.001-.253-.4.337-.196.327-.375zM102.568 89.94c.637 2.509 1.764 4.666 3.38 7.412 1.784 1.758 1.802 6.355.057 1.988-1.422-2.699-3.44-5.739-3.895-8.196-.924-.366-.191-1.8.458-1.204z"/>
            <path d="M101.909 79.74c-.871 3.203 2.321 10.593.47 11.653-.532-3.648-2.226-8.983-.62-11.818l.15.165zM114.694 95.176c-3.36-2.81-.194-3.66.71-.244-.146.193-.463.457-.71.244zM126.401 103.583c-1.38 1.165-.947 6.029-2.701 5.062-.21-1.126 1.485-3.87 1.363-2.135-.342.978.327 2.338-1.423 2.643.427-1.78.823-3.578 1.625-5.255.11-.614.846-1.116 1.136-.315zM116.413 151.505c-.417.458-.999.706-1.483 1.074.457-.056-.004.518.01.82-.448 1.878-.351 3.876-1.079 5.687-.517.602-.445 1.46-.465 2.201-.027.596.083 1.266-.254 1.795-.279.355-.948.263-.787-.288-.144-1.503.376-2.944.724-4.381.182-.519.415-1.032.485-1.586.202-1.319.081-2.7.597-3.96.078-.227.04.352.054-.093.023-.59.232-1.359.889-1.517.383-.018.657-.585 1.105-.25a.445.445 0 0 1 .205.498zM86.963 144.711c2.135.2 3.784.736 5.901 1.043 2.143.281 4.16.39 6.232.706 1.884-.01 3.583.675 5.56.402-1.12-.126 3.336-.794 1.672.677-1.568-.292-3.189.666-5.28.036-2.154-.375-4.374-.518-6.564-.68-2.636-.241-5.154-1.103-7.786-1.354-.296-.2-.09-.842.265-.83z"/>
            <path d="M103.436 148.199c-2.45-.057-4.922.213-7.332-.265-2.187-.375-5.252.175-6.813-1.175-.966.125-2.805-.625-1.036-1.071 2.283.652 4.464 1.429 7.065 1.296 2.725.43 5.52.387 8.296.365.313.17.173.822-.18.85zM112.308 166.876c.338.663.96 1.168 1.15 1.908-.013.385.221.714.329 1.07.122.228.285.46.252.733.006.218 0 .494-.22.612-.224.135-.591.09-.698-.175-.083-.247.142-.466.107-.71-.04-.216-.233-.352-.403-.468-.236-.214-.244-.557-.254-.852-.077-.49-.457-.843-.737-1.226-.122-.175-.319-.368-.267-.599.077-.231.334-.364.566-.375a.22.22 0 0 1 .175.082zM97.264 149.3c.533.518 1.063 1.048 1.492 1.66.069.251.423.452.635.644.456.262.998.389 1.367.788.31.299.442.746.367 1.168-.074.324.006.711-.229.975-.256.298-.615.502-.982.626-.513.179-.874-.316-1.331-.338-.32.026-.7.15-.957-.112-.382-.23-.873-.056-1.252-.3-.462-.146-.95-.356-1.44-.212-.43.057-.862-.03-1.292.008-.347.069-.79-.25-.555-.649.297-.302.77-.254 1.16-.239.386.058.764-.05 1.147-.062.69.01 1.31.4 1.987.451.475-.064.884.396 1.361.23.442-.06.764.47 1.212.303.328-.316.406-.924.087-1.27-.45-.399-1.104-.467-1.532-.903-.222-.098-.33-.477-.333-.42-.397-.278-.498-.808-.887-1.1-.256-.256-.641-.458-.686-.855.04-.288.383-.537.661-.394zM61.931 148.084c1.033-.884 2.244-1.484 3.435-2.09 1.404-.802 2.99-1.158 4.586-1.298 1.11-.073 2.198-.44 3.306-.403 1.062.235 2.15.3 3.18.648.775.28 3.006.188 1.837 1.442-1.015-.308-2.145-.637-3.237-.876-1.084-.115-2.184-.557-3.267-.175-2.244.335-4.658.396-6.561 1.794-1.108.29-1.947 1.267-3.011 1.452-.205-.06-.284-.304-.268-.494z"/>
        </g>
    </g>
</svg>
