<svg xmlns="http://www.w3.org/2000/svg" viewBox="0 0 198.4375 187.85416" height="710" width="750">
    <g stroke-width="1.267">
        <path d="M152.96 79.788s-14.54 12.75-19.685 19.013c-5.144 6.263-18.79 23.04-18.79 23.04s23.488-22.593 31.317-24.606c7.829-2.013 21.026-10.066 21.026-10.066-2.85 1.781-7.716-10.557-7.158-9.395 2.664 5.549-5.406 3.579-6.71 2.014z" fill="#00c8e1" fill-rule="evenodd"/>
        <path d="M50.96 94.998c1.118 0 12.302-3.802 23.71.224 11.408 4.026 31.092 2.908 36.46 2.013 5.37-.895 16.33-6.04 17.448-6.487 6.09-13.076-9.768-14.68-11.632-13.645 0 0-29.829 3.932-36.908 4.921-13.314 1.86-29.083 12.974-29.079 12.974z" fill="#917c6f" fill-rule="evenodd"/>
        <path d="M74.446 109.761s-4.25 5.145-10.513 6.264c-6.263 1.118-14.54-1.566-17.447-3.803-2.908-2.237-11.185-3.579-13.421-.671-2.237 2.908 9.842 10.96 9.842 10.96s-15.658-1.118-19.46.671c-3.803 1.79-4.25 3.356-4.25 3.356l-16.33-7.83s16.553-10.289 20.803-12.75c4.25-2.46 11.408-4.697 17.447-3.578 6.04 1.118 11.856 6.487 12.974 7.605 1.118 1.118 7.158 2.684 10.29.224 3.131-2.46 10.065-.448 10.065-.448zM93.012 150.025s2.908 10.29 4.698 12.75c1.789 2.46 13.868 7.605 13.868 7.605s-11.408-2.46-13.645-.895c-2.237 1.566-5.145 4.921-5.145 4.921s-6.263-4.25-10.289-4.25-11.855 1.342-11.855 1.342 6.263-7.381 11.184-8.947c4.921-1.566 6.71-2.684 6.487-5.592-.224-2.908-2.46-6.487-2.46-6.487 2.08-.353 3.428-1.194 7.157-.447z" fill="#00c8e1" fill-rule="evenodd"/>
        <path d="M157.433 66.366s2.014-2.46 6.711-1.789c4.697.671 9.842 8.276 9.842 9.842 0 1.566-.596 8.45-.596 8.45l-11.26-1.292-15.657.224z" fill="#fff" fill-rule="evenodd"/>
        <g stroke-width=".487">
            <path d="M170.219 70.46c-5.226-5.355-13.28-4.282-19.344-1.479-2.684 1.24-4.825 2.694-7.421 4.282-1.627.555-.684.847-4.023 1.854-.928.709-4.443 1.225-6.598 2.134-6.318.949-12.873 1.034-19.144 2.241-12.524.38-25.345-1.232-37.56 1.802-1.864.656-7.883 2.16-10.106 3.371-2.512.731-2.215 1.66-5.366 3.158-1.57 1.977-3.516 1.59-4.9 3.948-2.572 2.131-2.494 1.815-4.59 3.594-3.178 1.641.802-1.774 1.835-2.132.095.137 4.118-4.145 4.731-3.885 2.697-2.15 4.316-2.761 6.19-4.404 1.57-.994 9.134-3.592 12.507-4.485 15.66-3.555 32.064-.13 47.727-3.161 5.484.22 11.751-1.303 14.945-2.742 2.45-.582 4.313-2.043 5.676-2.823 1.8-1.392 5.04-2.705 6.806-3.835 5.615-2.958 16.856-2.918 18.635 2.563z"/>
            <path d="M51.211 96.564c7.712-4.755 17.097-1.868 25.09.619 11.786 1.955 24.408 3.656 35.97-.136 5.512-1.978 8.788-3.934 12.664-6.415.068 1.494-4.997 3.248-7.683 5.199-13.207 6.256-28.338 4.3-42.264 1.933-7.127-3.805-19.02-3.118-23.777-1.2z"/>
            <path d="M84.4 97.675c-9.91-1.812-19.89-5.958-30.037-3.836-7.138.574 9.279-2.641 12.546-.88 5.375 1.267 14.54 2.642 17.491 4.716z"/>
            <path d="M54.154 92.639c3.756-1.817 19.061-.505 16.018.657-4.644-1.544-13.636-.033-16.018-.657zM98.8 77.542c3.215-5.263 10.184-8.711 13.636-11.95 2.778 1.358-10.159 5.604-12.704 8.552-3.394 1.955-5.88 3.418-8.02 4.136-4.956 1.354-2.07-.686.3-.75 4.716-1.74 8.308-5.028 13.95-7.838 4.649-2.819 9.5-4.862 5.284-2.657-3.521 3.401-9.205 7.203-12.446 10.507zM55.438 96.999c-3.546 2.35-4.334 14.403-3.736 4.276.58-1.288 2.35-5.046 3.736-4.276zM3.643 118.82c4.676-.663 8.652 1.163 11.938 4.286 3.033 3.391.85 3.865-1.111.257-2.508-4.018-9.425-3.287-10.827-4.543zM17.912 124.99c4.651-5.675 12.737-4.13 18.771-2.076 6.77 1.286-.671 1.509-3.74-.012-5.263-2.651-11.614-.42-15.03 2.088zM38.711 121.77c-.97-3.138-6.294-8.04-3.853-9.999 3.927-4.308 9.258-.548 13.268 1.477 5.017 4.142 12.393 2.699 18.273.983 3.278.126 9.306-7.43 7.552-4.13-3.563 4.309-12.51 7.235-19.597 6.335-6.355.25-10.765-7.579-17.354-5.452-3.661.556-1.178 4.086.726 7.49.212.59 3.024 3.508.985 3.296z"/>
            <path d="M74.607 108.29c1.159 4.817-2.621 1.027 0 0z"/>
            <path d="M73.203 107.288c3.035 3.648-1 2.953 0 0z"/>
            <path d="M71.715 107.233c6.73 6.273.043 2.373 0 0zM28.268 107.246c-3.627-.02-13.306 10.629-11.029 7 2.812-2.093 9.12-9.142 11.03-7z"/>
            <path d="M20.79 118.71c-3.388 12.525.276-13.98.793-3.154-2.558 2.344 1.008-7.134-.43-.072-.604 4.252-3.113 10.52-.811 3.02l.449.206z"/>
            <path d="M5.345 116.99c5.268-2.481 10.55-5.317 14.56-8.394 2.459-1.224 3.278-1.95 6.976-3.42 7.217-1.842 15.242-2.109 22.545-.283 3.806 1.166 7.406 3.562 10.33 5.374 1.672-.285 2.595-3.24 6.517-3.373 2.919-1.169 6.625-.566 8.76 1.72-1.745.49-5.436-2.976-8.505-1.151-3.626 1.076-4.083.79-5.561 3.121-3.244.964-5.635-3.023-9.007-3.736-7.367-3.802-17.493-2.169-24.324-1.391-3.28 1.42-5.618 2.461-8.01 4.131-3.748 2.645-11.409 7.343-14.281 7.401zM51.604 116.896c2.819 6.41 1.707 14.687 7.45 19.497 4.43 4.416 9.323 8.93 15.76 9.612 5.553 1.368 11.22 2.298 16.994 1.748.454 1.128-8.21 1.182-11.723.27-6.473-1.326-13.41-2.541-18.084-7.673-4.768-3.781-8.85-8.68-8.82-15.09-.125-1.93-3.36-7.586-1.577-8.364zM130.257 114.616c-2.348 6.142-3.238 13.816-8.247 18.577-2.493 3.646-7.824 8.623-12.566 11.32-1.473 1.178-3.674 2.172-7.823 3.293-6.774 2.222-4.48-.377 1.74-1.157 4.833-1.824 4.776-1.593 8.377-4.426 3.39-2.291 6.36-4.8 9.013-8.592 2.945-2.245 5.686-8.771 7.052-13.764.863-1.06.109-6.178 2.454-5.251z"/>
            <path d="M52.596 124.95c1.027 4.146 5.826 17.372.888 6.807.59-1.691-2.928-6.503-.888-6.807zM54.958 125.545c-1.12 5.988 10.768 12.972 8.654 14.484-5.612-2.33-9.072-17.888-3.7-5.327 4.631 5.15 5.366 7.29-.298 1.147-2.472-1.862-6.38-8.136-4.656-10.304z"/>
            <path d="M61.304 135.105c5.57 4.783-.638 3.313 0 0zM166.622 66.983c4.486 2.95 7.634 7.801 6.38 13.511.056 4.582-2.98 6.143-3.027 5.24 1.542-.188 2.495-4.258 2.176-7.701 1.729-5.009-5.166-8.555-5.53-11.05zM154.848 93.819c-3.962 1.018-14.707 10.815-13.661 8.013 4.007-2.6 10.976-8.17 13.661-8.013z"/>
            <path d="M158.318 92.455c-5.549 3.72-5.708 1.42.352-.339l-.352.34zM156.245 73.712c-.722-2.162-6.002.498-5.455 3.86.424 2.281 5.053 3.841 5.64 3.112 1.364-3.585 3.074-4.811 1.559-.577-2.665 3.964-10.522-1.161-7.353-5.166.831-2.063 7.463-4.138 5.61-1.229z"/>
            <path d="M165.395 89.094c-3.342 1.537-8.338 4.582-8.437 3.811-.057-1.73 5.285-3.252 6.7-4.147 3.436-1.058 4.2-2.72 6.772-4.05 1.698 1.49 2.025-7.325 2.529-1.428-1.186 2.545-3.747 2.3-4.438 3.202-3.073 2.893-4.555 2.397-8.679 4.676-1.185.998-5.199 2.576-1.506.734 2.015-.158 6.813-4.263 7.06-2.798z"/>
            <path d="M171.523 84.234c-5.454 5.114-6.005 2.36 0 0z"/>
            <path d="M165.36 87.965c4.5-.68 1.845 5.498-.158 4.733-5.112 2.407-3.045-7.593-2.29-.568 3.446.042 4.463.148 3.586-3.437 1.596-.796-2.961.77-1.138-.728zM93.796 150.266c-1.238 3.189 5.081 10.09 1.848 10.547.813-3.297-4.981-8.201-1.848-10.547zM97.574 162.032c2.035 2.447 14.254 10.732 5.83 5.91-.926-1.103-8.096-4.826-5.83-5.91z"/>
            <path d="M108.246 170.096c-5.641-2.277-11.997-3.499-14.457 2.337.478-6.145 10.861-6.148 14.921-2.497l-.464.16zM93.588 173.272c-1.936 1.926-6.21-6.824-11.66-3.67-4.854-1.032-7.899.512-10.32 1.686-3.812 1.5 4.096-3.486 7.932-2.686 6.903-2.856 13.566 5.738 14.048 4.67zM70.757 170.062c2.94-3.282 13.06-7.986 12.286-6.316.01-.146-9.773 4.529-12.286 6.316zM85.781 162.028c1.088-2.471.894-8.797 1.304-9.254 2.277 4.599-.43 12.697-.078 2.72-.168-9.16 2.515 5.903-1.226 6.534z"/>
            <path d="M88.738 155.625c1.748 5.078-.145 7.93-.645 1.683-.652-.21-.252-2.336.645-1.683zM88.893 164.906c4.38 3.022 1.975 10.97 1.146 2.428.226-.89-3.323-2.058-1.146-2.428zM64.688 143.399c2.204 3.787 20.945 5.954 13.697 6.143-3.984-1.528-13.675-2.48-13.697-6.143zM83.86 150.578c3.87.174-2.075 1.725 0 0zM102.222 149.202c4.652-.086 15.81-5.644 7.012-.993-.77.399-9.322 3.029-7.012.993z"/>
            <path d="M107.571 147.411c-5.36 2.255-15.468 3.278-4.064.548 6.965-2.025 13.958-5.93 17.784-11.07 2.59-.66-3.728 4.965-6.01 6.273-4.312 2.85-14.76 7.979-17.458 6.068 1.91.25 10.81-3.639 9.748-1.819zM149.24 84.175c-6.44 4.484-10.98 10.998-16.634 16.274-3.235 4.29-6.3 5.597-1.349.212 5.706-4.513 9.448-11.087 15.382-15.387.012-.245 4.342-3.27 2.6-1.099zM126.451 106.989c-1.347 3.004-12.541 16.308-7.04 8.638 2.297-2.44 4.324-7.82 7.04-8.638z"/>
            <path d="M127.801 106.989c-2.513 3.698-11.685 15.853-11.574 14.229 2.235-3.058 7.562-9.778 10.705-14.271l.447-.223.422.265zM155.38 91.887c-4.251 1.321-7.693 4.779-10.817 6.138-6.496 3.627-12.836 9.18-18.183 15.618-1.73.582-3.354 3.577-6.397 5.757.2.646-3.864 4.611-4.203 4.66-2.354.32.946-.984 1.183-1.772 1.814-2.066 2.79-3.495 4.346-4.921 2.882-3.11 4.1-3.364 6.488-6.48 5.023-5.565 11.043-10.458 17.158-13.757 1.883-.708 9.326-6.914 10.426-5.243z"/>
            <path d="M139.114 95.153c-7.08 6.461-11.571 15.446-18.995 21.435 3.323-4.333 8.324-9.969 12.18-14.8 2.032-1.569 4.25-6.727 6.815-6.635zM151.35 76.889c6.322-3.023-1.34 6.817-.568 1.219.272 1.533 2.987 1.022 2.458-1.366-.684-.095-1.515 1.5-1.89.147z"/>
            <path d="M150.487 77.205c3.815-3.172 2.162 1.464 0 0zM158.07 74.915c1.884 4.561-2.683.377 0 0z"/>
            <path d="M158.284 71.02c2.137 6.822-.904 3.685.601-1.583 2.36-.766-.825 10.849-.892 3.17-1.002-.108-.607-2.174.291-1.587z"/>
            <path d="M159.396 70.863c-.012 3.325.107 7.316 2.408 8.824.675 1.198 2.562 2.984 5.132 4.327 5.438.254 6.728.257 4.59 1.869-4.456 1.045-9.275-2.09-10.985-5.01-.777-.578-3.418-3.782-2.5-6.767-.861-1.132-.738-4.944 1.355-3.243z"/>
            <path d="M159.719 79.948c1.159 1.498 2.48 2.768 4.171 5.126 2.46.83-2.901.297-2.992-2.921.488.025-3.804-1.298-1.18-2.205z"/>
            <path d="M163.86 84.05c2.198 2.332 9.335 3.113 8.314 2.725-.284 1.981-10.152-.85-8.314-2.725zM157.977 71.956c-.06 6.675-2.48 2.423 0 0z"/>
        </g>
    </g>
</svg>
