<svg xmlns="http://www.w3.org/2000/svg" width="390" height="680" viewBox="0 0 103.18749 179.91666">
    <g stroke-width="1.49">
        <path d="M54.672 142.052s-1.007 9.67-.806 10.88c.202 1.208 3.828 4.029 3.828 4.029l-6.044 3.828s-15.313-3.425-16.32-3.022c-1.007.403 15.514-1.813 15.514-1.813s.403-4.03 0-6.85c-.403-2.821-2.62-7.657-2.62-7.657z" fill="#00c8e1" fill-rule="evenodd"/>
        <path d="M23.644 118.881s8.664 21.559 9.067 23.573c.403 2.015 9.47 18.134 9.872 18.94.403.805-4.03-24.178-4.432-26.797-.216-1.4-1.577-9.668-2.725-13.318-2.022-1.58-3.857-4.446-3.723-4.614-3.685 2.368-4.874 2.855-8.059 2.216zM68.775 142.253l-2.216 9.268v3.022l9.268 4.433-6.85 1.612s-.202-.605-1.612.806c-1.41 1.41-2.015 3.022-2.015 3.022s-4.634-2.821-7.051-3.224c-2.418-.403-7.254.202-7.254.202s5.44-5.037 8.06-5.037c2.619 0 4.23-.605 4.23-.605l.202-12.693z" fill="#00c8e1" fill-rule="evenodd"/>
        <path d="M66.56 85.033s6.245 28.61 7.655 32.438c1.41 3.828 16.925 18.335 16.925 18.335s5.44-17.126 4.23-23.775c-1.208-6.649-6.648-23.774-7.655-25.386-1.008-1.612-19.544-15.716-19.544-15.716-2.199 3.515-3.163 7.91-1.612 14.104z" fill="#917c6f" fill-rule="evenodd"/>
        <g stroke-width=".573">
            <path d="M36.719 69.093c-3.294 1.68-6.075 4.873-9.677 7.01-3.37 4.13-7.691 7.806-8.913 13.194-1.197 3.654-1.273 8.33-1.137 12.473.372 3.666.338 7.586 2.162 10.826 1.018.834 1.562 2.828 3.402 2.815 2.056 1.68 4.356 1.504 6.076.887 1.838-.42 1.523-.3 3.388-1.255 1.632-.654 3.482-2.319 5.248-3.439 1.792-.694 2.185.62-.122.873-1.393 1.21-3.693 2.771-5.653 3.625-.965.611-3.405 1.142-5.3 1.356-2.465.134-4.408-1.635-6.13-2.353-1.605-2.219-2.993-4.047-3.15-6.757-.62-3.892-.857-7.904-.743-12.205.352-3.885.957-7.16 2.467-10.766 1.96-3.003 4.207-5.743 6.659-8.432 2.679-2.83 5.388-4.087 8.33-6.732.502-.078 3.72-3.33 3.093-1.12zM38.006 67.623c4.536-1.885 9.52-2.866 14.346-1.469 6.784 1.24 13.739 2.506 19.64 6.262 3.334.997 6.293 4.262 8.904 6.822 2.764 3.587 5.653 7.031 7.727 11.007a73.773 73.773 0 0 1 3.464 12.229c.511 5.018.835 10.082.655 15.19-.278 4.266 1.006 8.68-.847 12.657-1.165 2.55-2.515 7.716-3.052 5.82.406-1.093 1.079-3.257 1.63-4.154.752-1.683.943-2.754 1.427-4.477.663-4.12-.289-8.479.051-12.765.06-4.544-.092-9.089-1.087-13.432-.322-4.139-2.031-8.21-3.61-12.008-2.255-3.536-4.751-7.082-7.724-10.302-2.749-3.044-6.097-5.378-9.856-6.998-6.468-3.492-13.966-4.41-21.085-5.738-3.322-.999-8.903 2.476-10.584 1.354z"/>
            <path d="M67.437 84.86c.7 4.735.995 9.578 2.654 14.115 1.184 5.508 2.289 11.026 3.91 16.397 1.97 4.674 4.31 9.346 7.947 12.918 2.34 2.433 5.067 4.65 7.162 7.285.359 2.231-3.291-2.687-4.44-3.642-3.984-3.337-7.39-7.37-9.524-12.194-3.071-5.542-3.711-11.921-5.316-17.99-.52-3.634-2.48-8.056-2.502-12.22.206-.882-1.68-5.455.109-4.67z"/>
            <path d="M68.738 86.103c.473 4.057 1.986 8.23 3.21 11.923-2.757-1.644-2.39-7.062-3.782-10.098-.006-.502-.67-2.651.572-1.825z"/>
            <path d="M71.635 93.556c1.771 1.984 1.667 8.241.276 2.607.017-.618-1.946-2.977-.276-2.607zM70.351 108.4c1.28 4.745 3.16 9.334 5.289 13.74 2.949 1.929.806 3.3-.65.469-2.125-4.551-4.291-9.286-5.288-14.186.17-.123.5-.262.65-.023zM80.733 126.154c2.52 1.664-1.732 1.267-.203-.026zM92.424 99.67c.297 6.707 2.046 13.253 1.528 20.002-.914 2.314.44 7.588-1.65 8.314.414-4.493 1.058-9.085.883-13.706-.27-4.918-1.543-10.405-1.43-14.65.187-.109.538-.22.669.04zM77.014 41.373c-.055 5.678-.022 11.36.421 16.985-.246 5.006.808 9.765 1.26 14.685-1.214 1.97-1.145-5.03-1.658-6.708-.635-4.442-.1-9.073-.813-13.558.582-3.427-1.068-9.455.79-11.404z"/>
            <path d="M77.103 41.639c.97 7.77 3.706 15.203 4.782 22.927a66.65 66.65 0 0 0 2.778 11.968c.14 3.424 1.632 6.75 2.296 10.111-1.838-.474-1.506-4.461-2.517-6.252-.278-3.131-1.294-6.071-2.091-9.11-1.372-5.905-1.867-11.938-3.608-17.789-.771-3.9-2.457-8.283-2.062-11.99h.27l.152.134zM79.22 59.653c.9 4.705 2.06 9.441 3.2 14.017-2.506-1.709-1.744-7.524-3.334-10.623.28-.699-1.586-4.008.134-3.394zM46.467 82.484c-3.654.142-6.572 3.772-7.044 7.28-.732 4.713-.113 9.47.95 14.077-.234 2.041 1.365 7.716-.942 7.682.943-4.09.02-8.479-.845-12.608-.3-4.33-.763-9.094 1.385-13.098.783-1.461 6.25-5.963 6.496-3.333z"/>
            <path d="M44.382 83.898c-3.42.426-3.834 5.857-4.033 8.969-2.277-1.487.376-9.45 4.334-9.66 3.684-.283-2.772.878-2.591 2.786-2.382 1-1.293 8.818-2.565 6.192.481-3.35.91-8.973 5.08-9.021.264.173.088.743-.225.734z"/>
            <path d="M44.62 84.455c1.347-2.526 10.824-1.024 5.152-.458-1.842-.346-7.257.436-7.093-1.171 1.977.35 9.003.073 8.098.982-1.699-1.455-6.253 2.22-6.157.647zM18.1 114.22c2.236.793 3.07 1.035 5.429 1.599 2.18.082 4.801 1.14 6.485.021.93-.282.562-.114 1.886-.994-1.81.956 2.142-1.426.457-.466 1.69-1.705 2.04-1.065 1.7-1.493l.93-.477c-1.528.709 1.434-.719.167-.24.758-.394 2.589-1.556 1.404-.77 1.945-.99.767-.526 3.096-1.532 3.022-.299-1.845.756 1.46-.21.984 2.711-.167 1.487-2.653 2.714 1.612-.859-1.701.814-.544.3-1.497 1.11-.558.023-2.126 1.318.493-.278-.56.368-.749.338.22.194-2.026 1.847-1.774 1.647.016.191-2.695 1.917-1.166.73-.99 1.953-6.04 1.495-8.061 1.175-2.772-.574-5.075-1.325-6.826-2.233-.04-.506.199-1.528.884-1.427z"/>
            <path d="M33.304 116.826c-.527 1.902.408 2.83 2.475 2.875.959-.464 2.643-3.955 1.235-5.226-1.205-1.562-4.031-2.305-.7-1.813 2.384 1.369 2.25 3.873 1.232 6.16-1.232 2.32-3.98 2.045-5.03-.1.146-.558-.458-2.736.788-1.897z"/>
            <path d="M35.857 119.045c-4.834-.237 1.718-5.122 1.319-.202-2.058 2.52.277-2.28-2.103-1.63.544.267-1.609 1.478 1.075 1.235.03.212-.003.576-.291.597zM40.248 113.037c-.422 3.347-.279 7.35-2.935 9.622.143 1.04-2.43 1.434-.432-.594.648-.204 1.53-2.125 1.826-3.345.765-1.215-.08-6.093 1.541-5.683zM23.683 121.524c-1.325-2.626-1.073-4.296.732-.653 2.409 4.193 4.882 8.346 6.826 12.75 1.585 4.702 3.84 9.102 5.082 13.923 1.582 3.633 3.435 7.07 4.905 10.68.444 1.412 3.601 5.319 1.777 5.087-1.28-2.401-2.87-5.38-3.806-7.794-1.216-2.948-3.152-5.683-3.865-8.813-1.401-3.966-2.85-7.913-4.578-11.792-1.292-4.378-4.13-8.04-6.043-12.152-1.763-1.33-3.043-7.226-.816-3.125.185.482 1.143 2.44-.214 1.889z"/>
            <path d="M36.1 121.06c-.197 4.328 1.448 8.4 1.891 12.622.712 4.147 1.905 8.322 2.17 12.519.99 4.55 1.498 9.275 3.42 13.61.85 1.93 1.056 5.054-.551 1.307-1.232-3.782-2.419-7.594-3.009-11.53-.877-4.56-1.263-9.218-2.453-13.728-.538-3.992-1.457-7.94-2.234-11.95.339-.616-.709-3.695.766-2.85zM20.905 119.205c-.307 2.274 2.719 4.558 3.197 2.408 2.133-.278-.97 2.608-2.295 1.308-.652-.3-2.805-4.536-.902-3.716zM20.483 117.318c2.213.67 8.056.007 7.745 1.791-1.636.897-3.483 1.034-5.94.308-2.357-2.517 2.394.58 3.826-.294 1.152-.933 3.413.286-.276-.32-.878-.845-6.91.202-5.355-1.485zM85.644 136.497c-3.107 1.556-6.532 4.126-9.577 4.732-2.999.156-3.982.597-7.479.814-1.125-1.729 4.605-.528 5.403-1.393 4.457.26 7.833-3.556 11.74-4.822.097.195.183.556-.087.669z"/>
            <path d="M66.21 143.138c-5.358.37-10.87.711-16.165-.343-2.952-.455-5.682-.587-8.055-2.05-.575-1.41-4.803-2.29-2.93-3.099 2.36 2.47 8.408 3.361 9.456 5.028-3.283-.418-8.29-2.422-9.612-4.836 2.046.264 3.518 2.881 5.355 3.186 4.653.828 9.381 1.936 14.227 1.654 1.534.709 8.221-1.286 7.725.46z"/>
            <path d="M50.825 141.412c2.957 1.703 9.492-.468 10.532 2.067-3.263-1.335-9.107.612-10.733-2.038l.201-.029z"/>
            <path d="M42.566 137.983c4.838 1.964 10.103 3.898 15.39 2.836-2.208 2.498-8.373.304-11.776-.615-.5-.562-5.5-1.243-3.614-2.22z"/>
            <path d="M56.865 141.282c2.417-.325 9.913 1.68 3.416 1.055-.534-.529-4.873.397-3.416-1.055zM67.676 141.985c2.591-.538 5.374 1.188.925.841-.78.902-1.806-.635-.925-.84zM67.2 154.854c2.669 2.482 6.791 2.423 9.247 4.02-2.914.146-7.87-1.46-9.66-3.857-.127-.021.412-.322.413-.163z"/>
            <path d="M76.045 159.62c-3.127-1.106-6.979-.498-9.386 1.35-1.381.558-3.23 3.25-2.073.409 1.837-1.075 4.196-2.973 6.974-2.985.645-.043 6.478-.16 4.485 1.225zM62.01 161.857c-2.468-.272-5.41-1.877-8.097-.539-2.08.79-5.131.82-1.42-.478 3.414-1.593 6.958-.397 9.867.453.008.213-.06.573-.35.564zM51.185 159.803c2.497-.916 4.048-2.585 7.155-3.1 2.143-1.34 7.567-.321 2.056.229-3.686.344-6.199 2.526-9.268 3.55-.107-.193-.21-.552.057-.68zM62.407 143.383c.05 3.937 1.324 8.729-.043 12.206-.804-2.408.207-6.68-.58-10.02.299-.474-.812-2.948.623-2.186z"/>
            <path d="M63.661 161.887c2.773.416 1.048 5.122.713 1.334.656.634-2.43-1.148-.713-1.334zM64.527 158.532c1.044 2.025-1.973 2.373-.22 1.477-.735 2.398-1.083-2.779.22-1.477zM54.855 143.81c-.887 3.467-.553 7.27-.987 10.893-1.817-.763.37-6.01-.262-8.432.079-.28.089-3.69 1.249-2.461zM53.992 154.936c.22 1.545 5.817 2.054 1.37 1.993-.884.169-3.16-1.973-1.37-1.993zM48.767 155.904c-1.25-.257-6.867-.47-2.373-1.108-.607.576 4.24-.448 2.373 1.108z"/>
            <path d="M44.236 155.276c4.583-1.81-1.156 2.577 0 0zM36.863 157.332c-2-.561-4.096 3.24-2.935.444-.067-.77 4.297-2.093 2.935-.444zM36.92 157.996c3.179-.81 5.351 1.66 1.625.766-.505-.119-2.859.358-1.624-.766zM46.104 158.744c4.125.533 6.632 3.39 1.295 1.226-.475-.185-2.791-.577-1.295-1.226zM49.794 156.04c-1.659-.198-3.508 2.708-2.36.357-.003-.77 3.643-1.872 2.36-.357zM22.275 120.628c3.117.54.114 2.677.496 1.481 1.562-1.287-1.509-.156-.496-1.481zM27.795 123.91c1.195 1.242 4.793 7.784 2.55 6.673.43-1.984-4.247-6.087-2.55-6.672zM31.83 132.37c2.254 2.429.563 5.147-.185 1.147-.82-.16-.5-1.517.185-1.148zM36.252 114.161c-2.084 2.964-4.982 2.495-.787 1.08 1.534-1.438 5.19-2.918 1.847-.375-1.39 2.053-6.65 1.932-3.087.366-.424 1.105 1.249-2.885 2.027-1.071zM42.69 83.005c-2.852.716-2.871 5.297-4.104 7.931-1.87-.26 1.17-3.647.787-5.43.029-.915 3.535-4.955 3.316-2.501z"/>
            <path d="M38.432 156.385c4.927.12-2.51 1.034-3.644 1.818-2.138-1.806 9.496-2.077 3.48-1.055-.282-.151-.153-.748.164-.763zM43.447 155.483c1.86-1.607 6.647-.424 2.401.347-1.612 1.134-6.75 1.227-2.286-.048 3.263-1.4 5.247-.37.853.116-.415 1.066-1.633.046-.968-.415zM44.679 158.393c3.237-.76 4.145 1.635.91.754-.734.93-1.747-.504-.91-.754zM68.44 143.847c-1.451 3.466-1.95 6.985-1.487 10.657-2.27-.565.136-3.568.01-.206-1.748-.575-.962-5.32-.244-7.643.253-.451.663-4.229 1.722-2.808zM49.605 144.152c1.195 3.304 1.14 6.74.823 10.159-2.529 1.703.684-4.382-.35-.084-1.11-.246.34-4.45-.38-6.618.29-.46-1.96-4.102-.093-3.457z"/>
            <path d="M49.393 143.44c1.954 4.727-2.504-.469 0 0zM77.974 75.237c-1.217-4.294 2.419-.7 0 .001z"/>
        </g>
    </g>
    <text y="184.824" x="43.508" style="line-height:6.61458302px;-inkscape-font-specification:Siddiqua" font-weight="400" font-size="10.583" font-family="Siddiqua" letter-spacing="0" word-spacing="0" stroke-width=".265"/>
</svg>
