<svg xmlns="http://www.w3.org/2000/svg" viewBox="0 0 198.4375 187.85416" height="710" width="750">
    <g stroke-width="1.267">
        <path d="M98.006 149.556s-1.184 11.37-.947 12.791c.236 1.422 4.5 4.738 4.5 4.738l-7.106 4.5s-18.003-4.026-19.188-3.553c-1.184.474 18.24-2.132 18.24-2.132s.474-4.737 0-8.053c-.473-3.317-3.08-9.002-3.08-9.002z" fill="#00c8e1" fill-rule="evenodd"/>
        <path d="M61.526 122.314s10.186 25.347 10.66 27.715c.474 2.37 11.133 21.32 11.607 22.267.474.948-4.737-28.426-5.211-31.505-.253-1.646-1.854-11.367-3.203-15.658-2.378-1.857-4.535-5.228-4.377-5.424-4.334 2.784-5.732 3.356-9.476 2.605zM114.588 149.793l-2.606 10.896v3.553l10.897 5.212-8.054 1.895s-.237-.71-1.895.947c-1.659 1.658-2.37 3.554-2.37 3.554s-5.447-3.317-8.29-3.79c-2.843-.474-8.528.236-8.528.236s6.396-5.922 9.475-5.922c3.08 0 4.975-.71 4.975-.71l.237-14.924z" fill="#00c8e1" fill-rule="evenodd"/>
        <path d="M111.982 82.518s7.343 33.637 9.002 38.138c1.658 4.5 19.898 21.556 19.898 21.556s6.395-20.135 4.974-27.952c-1.421-7.817-7.817-27.952-9.001-29.847-1.185-1.895-22.978-18.477-22.978-18.477-2.585 4.132-3.72 9.3-1.895 16.582z" fill="#917c6f" fill-rule="evenodd"/>
        <g stroke-width=".487">
            <path d="M76.898 63.777c-3.873 1.975-7.142 5.73-11.377 8.241-3.962 4.857-9.043 9.179-10.479 15.514-1.407 4.296-1.496 9.792-1.337 14.665.438 4.309.398 8.918 2.542 12.727 1.197.98 1.837 3.325 4 3.31 2.417 1.975 5.121 1.769 7.143 1.043 2.162-.493 1.79-.353 3.983-1.476 1.92-.768 4.095-2.726 6.171-4.043 2.106-.816 2.569.73-.143 1.026-1.638 1.423-4.342 3.259-6.647 4.262-1.135.72-4.003 1.344-6.232 1.594-2.898.158-5.181-1.922-7.205-2.766-1.888-2.608-3.52-4.758-3.705-7.944-.728-4.576-1.007-9.293-.874-14.35.415-4.568 1.127-8.418 2.9-12.658 2.306-3.53 4.947-6.751 7.83-9.913 3.15-3.327 6.335-4.805 9.793-7.915.59-.092 4.374-3.915 3.637-1.317zM78.411 62.049c5.334-2.216 11.193-3.37 16.867-1.727 7.977 1.458 16.153 2.946 23.091 7.362 3.92 1.172 7.4 5.01 10.47 8.02 3.25 4.218 6.645 8.267 9.084 12.942a86.736 86.736 0 0 1 4.072 14.378c.601 5.9.982 11.853.77 17.859-.327 5.016 1.183 10.205-.995 14.88-1.37 2.999-2.957 9.072-3.588 6.845.476-1.287 1.268-3.83 1.915-4.886.885-1.978 1.11-3.237 1.678-5.264.78-4.843-.339-9.967.06-15.006.072-5.344-.107-10.687-1.277-15.793-.379-4.866-2.388-9.652-4.245-14.118-2.65-4.157-5.586-8.327-9.08-12.112-3.233-3.58-7.17-6.323-11.59-8.227-7.604-4.107-16.418-5.185-24.79-6.748-3.905-1.173-10.466 2.911-12.442 1.592z"/>
            <path d="M113.014 82.314c.823 5.568 1.17 11.262 3.12 16.596 1.392 6.476 2.691 12.964 4.597 19.278 2.317 5.495 5.068 10.988 9.344 15.188 2.752 2.86 5.957 5.467 8.42 8.565.422 2.624-3.869-3.159-5.22-4.282-4.684-3.923-8.688-8.665-11.197-14.336-3.611-6.516-4.364-14.016-6.25-21.152-.611-4.272-2.917-9.47-2.942-14.366.242-1.037-1.976-6.415.128-5.491z"/>
            <path d="M114.544 83.776c.555 4.77 2.335 9.677 3.775 14.019-3.243-1.933-2.811-8.304-4.448-11.874-.007-.59-.788-3.116.673-2.145z"/>
            <path d="M117.95 92.538c2.083 2.333 1.96 9.69.324 3.066.02-.727-2.288-3.5-.324-3.066zM116.44 109.99c1.506 5.58 3.716 10.975 6.218 16.156 3.468 2.267.948 3.879-.764.55-2.498-5.35-5.045-10.917-6.217-16.678.2-.145.587-.308.764-.027zM128.646 130.865c2.964 1.957-2.036 1.49-.238-.03zM142.391 99.728c.35 7.884 2.406 15.581 1.797 23.516-1.075 2.72.517 8.921-1.939 9.775.486-5.283 1.243-10.681 1.038-16.115-.318-5.782-1.814-12.233-1.68-17.224.218-.128.63-.258.784.048zM124.274 31.186c-.065 6.676-.026 13.357.495 19.97-.29 5.886.95 11.48 1.481 17.265-1.427 2.316-1.346-5.913-1.949-7.886-.746-5.223-.118-10.668-.956-15.94.684-4.03-1.256-11.117.93-13.409z"/>
            <path d="M124.379 31.499c1.141 9.135 4.357 17.874 5.621 26.956a78.361 78.361 0 0 0 3.267 14.07c.165 4.027 1.92 7.938 2.7 11.889-2.162-.558-1.771-5.246-2.96-7.35-.327-3.683-1.521-7.139-2.459-10.712-1.613-6.943-2.194-14.036-4.242-20.915-.906-4.585-2.888-9.738-2.423-14.096h.318l.177.158zM126.867 52.679c1.06 5.532 2.422 11.1 3.762 16.48-2.945-2.01-2.05-8.846-3.919-12.49.33-.822-1.865-4.712.157-3.99zM88.36 79.521c-4.296.167-7.727 4.435-8.283 8.558-.86 5.542-.132 11.135 1.118 16.553-.276 2.399 1.604 9.07-1.108 9.03 1.108-4.808.023-9.968-.993-14.822-.354-5.092-.897-10.693 1.628-15.4.92-1.718 7.347-7.011 7.637-3.919z"/>
            <path d="M85.908 81.184c-4.02.501-4.507 6.886-4.742 10.545-2.676-1.749.442-11.11 5.096-11.359 4.331-.332-3.259 1.033-3.046 3.277-2.8 1.177-1.52 10.367-3.016 7.28.566-3.94 1.069-10.55 5.974-10.607.309.204.102.874-.266.864z"/>
            <path d="M86.188 81.839c1.584-2.97 12.726-1.204 6.058-.539-2.167-.407-8.533.512-8.34-1.377 2.324.413 10.585.087 9.52 1.155-1.996-1.71-7.351 2.61-7.238.76zM55.007 116.833c2.63.933 3.611 1.218 6.384 1.88 2.563.097 5.645 1.342 7.625.026 1.093-.332.66-.134 2.216-1.169-2.127 1.124 2.52-1.677.538-.548 1.988-2.005 2.4-1.252 1.998-1.756l1.094-.56c-1.797.833 1.686-.846.197-.281.89-.465 3.043-1.831 1.65-.908 2.287-1.163.902-.617 3.64-1.8 3.554-.351-2.17.889 1.716-.247 1.158 3.187-.196 1.749-3.118 3.191 1.895-1.01-2 .957-.64.352-1.76 1.305-.656.028-2.5 1.55.58-.326-.658.433-.88.397.258.229-2.383 2.172-2.086 1.937.02.225-3.168 2.254-1.371.858-1.163 2.296-7.101 1.758-9.477 1.382-3.259-.675-5.967-1.558-8.026-2.625-.046-.595.234-1.797 1.04-1.679z"/>
            <path d="M72.883 119.897c-.62 2.237.48 3.328 2.91 3.381 1.128-.546 3.108-4.65 1.453-6.145-1.418-1.836-4.74-2.71-.824-2.131 2.803 1.609 2.647 4.553 1.45 7.242-1.45 2.728-4.68 2.405-5.915-.117.172-.657-.539-3.217.926-2.23z"/>
            <path d="M75.885 122.507c-5.684-.28 2.02-6.022 1.55-.238-2.419 2.964.326-2.68-2.472-1.916.64.314-1.891 1.738 1.265 1.451.034.25-.005.678-.343.703zM81.048 115.442c-.496 3.936-.328 8.643-3.451 11.314.168 1.223-2.856 1.686-.508-.698.761-.241 1.8-2.499 2.147-3.934.9-1.428-.095-7.163 1.812-6.682zM61.572 125.42c-1.557-3.086-1.262-5.05.86-.766 2.833 4.93 5.74 9.812 8.026 14.99 1.864 5.528 4.516 10.701 5.976 16.369 1.86 4.271 4.038 8.312 5.766 12.557.522 1.66 4.234 6.253 2.089 5.981-1.506-2.824-3.375-6.326-4.474-9.164-1.43-3.466-3.706-6.682-4.545-10.361-1.647-4.664-3.35-9.304-5.382-13.864-1.52-5.147-4.857-9.452-7.105-14.287-2.073-1.564-3.578-8.497-.96-3.675.218.567 1.344 2.87-.251 2.22z"/>
            <path d="M76.17 124.875c-.23 5.089 1.703 9.876 2.224 14.84.837 4.877 2.24 9.784 2.55 14.719 1.166 5.35 1.763 10.905 4.021 16.002 1 2.27 1.243 5.942-.647 1.536-1.447-4.446-2.843-8.928-3.537-13.557-1.03-5.36-1.485-10.836-2.884-16.139-.633-4.693-1.713-9.335-2.626-14.05.398-.724-.834-4.344.9-3.351zM58.305 122.695c-.36 2.674 3.197 5.359 3.76 2.83 2.508-.326-1.14 3.068-2.699 1.538-.766-.351-3.298-5.333-1.06-4.368zM57.81 120.476c2.601.787 9.471.009 9.106 2.106-1.924 1.054-4.096 1.216-6.985.362-2.77-2.959 2.815.682 4.499-.346 1.354-1.097 4.013.336-.325-.376-1.031-.993-8.123.237-6.295-1.746zM134.42 143.025c-3.652 1.829-7.68 4.851-11.26 5.564-3.525.182-4.681.702-8.792.956-1.323-2.032 5.413-.62 6.352-1.637 5.24.305 9.21-4.181 13.803-5.67.114.23.214.654-.103.787z"/>
            <path d="M111.572 150.833c-6.3.435-12.78.836-19.006-.403-3.47-.536-6.68-.69-9.47-2.41-.677-1.657-5.647-2.692-3.444-3.644 2.773 2.904 9.884 3.952 11.117 5.912-3.86-.492-9.748-2.848-11.302-5.686 2.406.31 4.137 3.387 6.296 3.746 5.47.973 11.03 2.276 16.727 1.945 1.803.833 9.666-1.513 9.082.54z"/>
            <path d="M93.483 148.804c3.476 2.001 11.16-.55 12.382 2.43-3.836-1.57-10.706.72-12.618-2.396l.236-.034z"/>
            <path d="M83.773 144.773c5.687 2.308 11.878 4.582 18.095 3.334-2.597 2.937-9.845.357-13.846-.723-.587-.662-6.467-1.462-4.249-2.611z"/>
            <path d="M100.585 148.65c2.841-.38 11.654 1.976 4.016 1.241-.628-.621-5.73.467-4.016-1.24zM113.295 149.478c3.047-.633 6.319 1.396 1.088.989-.917 1.06-2.124-.747-1.088-.99zM112.735 164.607c3.138 2.919 7.985 2.849 10.872 4.727-3.425.172-9.252-1.716-11.356-4.534-.15-.026.483-.38.484-.193z"/>
            <path d="M123.135 170.21c-3.677-1.3-8.205-.584-11.036 1.588-1.624.656-3.798 3.82-2.437.48 2.16-1.263 4.933-3.494 8.2-3.508.757-.051 7.616-.187 5.273 1.44zM106.634 172.841c-2.902-.32-6.362-2.206-9.52-.633-2.446.928-6.033.963-1.669-.563 4.013-1.873 8.18-.467 11.6.533.01.25-.071.674-.41.663zM93.906 170.426c2.936-1.077 4.76-3.04 8.412-3.644 2.52-1.577 8.897-.378 2.418.269-4.334.404-7.288 2.97-10.897 4.173-.126-.226-.246-.648.067-.798zM107.1 151.121c.06 4.629 1.557 10.262-.05 14.35-.945-2.83.243-7.853-.683-11.78.352-.557-.954-3.465.733-2.57z"/>
            <path d="M108.575 172.877c3.26.489 1.232 6.022.838 1.568.77.745-2.858-1.35-.838-1.568zM109.593 168.932c1.228 2.38-2.32 2.79-.259 1.737-.864 2.82-1.274-3.268.259-1.737zM98.22 151.623c-1.041 4.077-.65 8.547-1.159 12.807-2.137-.897.435-7.067-.308-9.914.092-.328.104-4.338 1.468-2.893zM97.206 164.704c.259 1.816 6.84 2.415 1.612 2.344-1.04.197-3.715-2.32-1.612-2.344zM91.064 165.842c-1.47-.302-8.074-.553-2.79-1.302-.714.676 4.984-.527 2.79 1.302z"/>
            <path d="M85.737 165.104c5.388-2.13-1.36 3.03 0 0zM77.068 167.52c-2.352-.659-4.815 3.811-3.451.523-.078-.904 5.052-2.46 3.45-.522zM77.136 168.301c3.736-.952 6.29 1.951 1.909.901-.593-.14-3.36.42-1.91-.9zM87.932 169.181c4.85.627 7.798 3.986 1.523 1.442-.558-.218-3.281-.678-1.523-1.442zM92.27 166.002c-1.95-.233-4.123 3.184-2.775.42-.002-.906 4.284-2.2 2.775-.42zM59.916 124.367c3.666.636.134 3.148.584 1.742 1.836-1.513-1.774-.183-.584-1.742zM66.407 128.227c1.405 1.46 5.634 9.15 2.997 7.845.506-2.333-4.992-7.157-2.997-7.845zM71.15 138.172c2.65 2.856.662 6.052-.217 1.35-.965-.188-.588-1.784.217-1.35zM76.35 116.764c-2.45 3.485-5.858 2.933-.925 1.271 1.803-1.691 6.1-3.432 2.17-.442-1.633 2.414-7.817 2.272-3.628.43-.5 1.3 1.468-3.391 2.383-1.259zM83.918 80.134c-3.352.842-3.375 6.227-4.824 9.325-2.2-.307 1.374-4.288.925-6.386.033-1.075 4.156-5.825 3.899-2.94z"/>
            <path d="M78.912 166.407c5.793.14-2.95 1.217-4.284 2.138-2.514-2.123 11.165-2.442 4.093-1.24-.333-.178-.18-.88.191-.898zM84.81 165.347c2.186-1.89 7.814-.499 2.822.409-1.895 1.333-7.936 1.442-2.688-.058 3.836-1.645 6.17-.434 1.002.137-.487 1.253-1.919.054-1.137-.488zM86.257 168.769c3.806-.895 4.874 1.922 1.07.886-.863 1.094-2.053-.593-1.07-.886zM114.194 151.666c-1.707 4.075-2.292 8.213-1.749 12.53-2.668-.664.16-4.195.012-.242-2.055-.676-1.132-6.255-.287-8.987.298-.53.779-4.97 2.024-3.3zM92.049 152.025c1.405 3.885 1.34 7.926.968 11.944-2.974 2.002.804-5.151-.413-.098-1.304-.29.4-5.233-.445-7.782.34-.54-2.306-4.822-.11-4.064z"/>
            <path d="M91.8 151.188c2.297 5.558-2.944-.55 0 0zM125.403 71.001c-1.432-5.049 2.843-.823 0 .001z"/>
        </g>
    </g>
</svg>
