<svg xmlns="http://www.w3.org/2000/svg" viewBox="0 0 198.4375 187.85416" height="710" width="750">
    <g stroke-width="1.267">
        <path d="M120.679 56.732l-.887 41.463 11.308-45.01-3.991.665-5.987-3.77c1.89 2.798 2.093 4.813-.443 6.652zM141.743 135.446s-4.213-6.209-13.747-6.652c-9.535-.444-14.19 4.434-14.856 6.873-.665 2.44-.665 5.765-.665 5.765s-5.765 3.326-4.878 5.543c.887 2.218 3.547 5.765 5.543 6.43 1.996.666 4.213-.665 4.656-4.212.444-3.548-1.552-11.087-1.552-11.087l5.1 4.657c6.76-3.94 6.09-4.147 12.195-1.774l2.882-5.322zM82.985 153.184l-7.539-1.33 2.661 11.75-10.643 7.54c5.77-.597 10.637-.29 14.634.887 4.293-1.908 9.16-2.38 14.634-1.33-3.58-7.685-7.889-7.39-14.634-8.426z" fill="#00c8e1" fill-rule="evenodd"/>
        <path d="M53.274 96.865c-5.765 12.195-9.091 31.929-9.091 31.929.572 0 24.334-24.834 25.72-27.938C72.324 86 78.425 68.262 79.66 68.262c-.445-3.05-.408-5.992-4.545-2.771 0 0-16.075 19.18-21.84 31.374z" fill="#917c6f" fill-rule="evenodd"/>
        <g stroke-width=".487">
            <path d="M121.584 59.349c-.267 5.683-.623 11.358-.448 17.088-1.017 6.098-.048 12.464-.675 18.61-.497 2.679 1.646 6.197.87 1.42.356-6.149.034-12.404.397-18.573.524-5.88.131-11.82.696-17.666.524-.591-.4-1.526-.84-.88z"/>
            <path d="M128.594 59.754c-.573 2.115-1.104 3.797-1.65 6.318-.72 3.13-1.295 6.208-2.307 9.341-.432 3.14-1.05 6.449-1.784 9.609-.67 2.961-1.414 5.993-1.742 8.932-1.054 2.532-.068 5.724.642 1.335.597-3.651 1.1-6.655 1.944-10.096 1.173-3.616 1.267-7.509 2.252-11.221 1.213-4.144 1.811-8.419 3.049-12.532-.201.466 1.174-2.69-.404-1.686zM131.037 54.002c-1.073 1.288-2.345 7.041 1.443 3.862 1.796-.918.654-6.898.244-2.916.158 1.5-2.592 4.677-2.135 2.545-.442-.668 2.49-3.694.448-3.49zM119.952 49.097c-3.46-2.01-5.79 3.744-3.426 6.128.734.944 4.338 3.291 5.548-.136.304-4.409-1.881-4.035-.868-.176-.425 2.574-3.581.276-3.648.19-2.072-1.113-1.151-6.039 1.385-5.495.495 1.068 1.706-.04 1.009-.51z"/>
            <path d="M132.783 51.418c2.993-2.224-.047-8.172-1.322-8.752-1.26-2.017-3.359-3.35-5.662-4.366-3.619-1.574-7.544-.887-11.475-1.065-3.573.503-7.414 1.198-10.121 3.82-3.31 2.502-7.166 4.28-10.164 7.152-3.342 2.784-6.3 6-9.593 8.84-2.866 3.28-5.91 6.112-9.024 8.985-2.133 1.217-3.824 4.154-5.912 5.82-3.681 5.039-8.062 9.456-10.305 15.478-3.175 6.629-7.197 12.798-9.783 19.703a33.853 33.853 0 0 0-4.176 13.537c-.942 4.309-.98 8.708-1.283 13.097 1.487 1.979.895-6.204 1.54-8.408.085-3.102 1.07-6.114 1.262-9.215 1.071-4.252 3.192-8.054 4.89-12.041 1.229-3.126 3.775-7.495 5.6-11.012 2.977-5.411 5.145-11.563 9.444-15.994 2.932-3.757 5.824-7.604 9.52-10.59 1.796-1.334 3.6-3.55 5.533-5.177 3.044-3.33 6.34-6.342 9.527-9.482 2.89-2.463 5.544-5.06 8.836-6.967 3.942-2.121 7.128-5.959 11.9-6.28 4.134-.614 8.498-.67 12.552.225 2.197.939 3.264 1.102 4.683 2.724.96.734 1.809 2.066 2.729 3.018 2.034 1.93.68 5.106.588 7.025l.208-.078z"/>
            <path d="M77.076 68.96c-1.534 3.373-3.584 6.803-4.6 10.586-1.137 5.406-2.987 10.855-3.607 16.221-.594 3.223-1.779 6.468-3.786 8.888-1.864 3.3-4.428 5.961-6.152 9.11-4.825 3.726-7.72 9.19-11.928 13.383-.935 1.214-4.033 6.104-2.012 5.213 1.539-4.091 4.825-6.665 7.307-10.113 2.083-3.249 5.407-5.877 7.762-8.91 2.138-2.983 4.445-5.766 6.134-8.986 2.587-2.908 3.373-7.135 3.879-10.886.947-5.107 2.49-10.055 3.596-15.076 1.035-3.188 3.462-6.438 3.883-9.447.245-.299-.66.03-.476.017zM120.795 51.432c-4.621-.816.675 7.65 1.128 2.512-1.089.69-1.535 1.374-1.91-.054-1.476-3.24 1.366-.455.782-2.458zM118.804 58.48c-2.626 1.764-5.275 3.737-7.233 6.222-2.074 2.274-3.805 4.884-5.31 7.592-1.208 3.704-3.455 7.647-2.868 11.888-.067 5.34 2.91 10.249 6.034 14.41 3.01 2.168 4.347 3.579 6.97 5.585 1.932 1.842 4.864 5.315 5.642 8.807 1.624 3.673 1.673 8.821.95 12.176-.007 1.71-3.852 6.349-1.028 5.141.597-2.02 1.796-4.013 2.258-6.118.055-4.098.261-8.088-1.499-11.798-.81-3.246-2.912-5.984-5.186-8.221-.723-.597-2.78-2.333-3.863-3.28-1.597-1.505-3.552-2.236-4.678-4.246-1.424-2.075-2.795-4.575-3.562-6.434-1.27-3.16-1.48-6.142-.998-9.917.986-3.354 2.061-6.727 3.8-9.784 2.531-3.55 4.946-7.148 8.711-9.527.098-1.174 3.687-1.66 1.86-2.497z"/>
            <path d="M112.794 140.548c-.686-3.142 1.687-6.23 3.788-7.579 2.571-1.824 5.482-3.69 8.844-3.308 3.653-.599 7.709-.426 10.953 1.613 1.047-.038 4.129 3.976 4.692 4.705.466 1.523 1.293-.477.173-1.075-1.54-1.635-2.19-3.367-4.323-4.122-3.712-2.86-9.553-2.43-14.33-1.788-3.558.926-6.691 2.974-9.112 5.674-.74.95-3.36 6.605-.685 5.88z"/>
            <path d="M140.986 135.983c-2.299-2.547-8.33-2.7-7.88 1.665-.018 4.562 1.752 2.245.764-.583.313-2.227 2.593-2.49 5.096-1.631.62.156 1.692 2.005 2.02.549zM132.562 139.086c-2.13-2.025-6.67-2.978-8.762.14-.623 1.481-2.612 4.355-.933 4.811.728-2.34 1.275-5.806 4.444-5.94 1.638-1.332 4.58 2.529 5.251.989zM120.757 142.687c-.757-2.995-3.894-7.915-4.551-2.9-.049 3.487 1.415 7.227-.355 9.613-1.896.067-2.1 2.687.051.798 2.218-1.344 1.678-4.742 1.436-7.11-.308-2.49-.555-6.597.816-3.952.922.325 1.135 4.576 2.603 3.55zM112.826 149.952c-2.473-1.11-3.789-3.616-3.534-6.187 1.371-1.965 4.407-.139 5.015-1.558-2.632-1.473-7.526.614-5.798 3.822.43.827 1.753 3.4 1.899 3.117.76.139 2.055 2.333 2.418.806zM131.832 136.133c-1.793-2.654-1.713-2.907-4.38-3.356-2.689-.946-5.435.434-1.097.65 2.222-.25 3.426 1.215 4.17 1.376-.895-.524.765 2.774 1.307 1.33zM46.64 131.394c1.475 3.92 3.832 7.575 6.452 10.838 1.572 2.156 4.781 4.03 5.825 4.826 1.749 1.084 4.028 2.347 6.525 3.014 2.735.8 4.07.73 6.04 1.316 3.88.634 7.524 1.547 11.375 1.875 4.147.576 8.653.609 12.77-.158 2.383-.42 4.549-1.406 7.012-2.247 1.908-1.047 4.09-1.886 5.644-3.173-1.462-1.17-3.635 1.845-5.602 2.166-1.935.598-4.648 2.174-6.628 2.041-3.993 1.563-8.63.794-12.837.611-4.329-.446-8.556-1.507-12.894-2.141-1.64-.46-5.921-1.113-7.695-2.227-2.295-.915-4.297-2.424-6.723-4.249-2.533-2.09-4.883-5.514-6.513-8.84-1.207-.393-1.463-4.824-2.75-3.652zM76.571 153.789c.7 2.851 3.354 7.59 1.374 9.463-2.113 1.635-4.574 2.84-6.755 3.805-1.582 1.197-2.871 2.197-3.91 3.859 1.386 1.428 3.612-.921 5.638-.966 3.709-.453 5.2.747 6.004 1.144 1.882 1.478 3.45 1.437 5.172-.56 1.713-.773 5.31-2.3 6.278-1.613 1.761.802 2.94 1.403 5.633 2.366 2.197-1.607-3.235-5.697-5.667-6.352-.273-.189-3.632-1.644-3.775-1.515-1.969-1.22-3.769.47-.642.588.677.173 2.55.762 3.79 1.533 1.465.243 3.99 2.061 5.538 4.015 1.92 1.988-2.55-.596-3.936-1.021-.857-1.088-5.653-.151-7.818 1.38-1.749 2.514-2.506 1.336-4.9.149-.506-.67-5.154-1.575-7.574-.391-1.27-.28-3.985 2.266-2.563 1.003 1.619-1.802 3.387-3.35 5.698-3.976 2.612-1.692 6.726-2.953 5.179-6.957-.73-1.314-1.09-6.609-2.764-5.954z"/>
            <path d="M83.008 156.133c.341 1.85-1.74 8.92.327 4.835.222-.625 1.468-5.85-.327-4.835zM76.25 155.62c.934 2.09.963 6.89 2.508 7.35.093-2.013-1.01-7.164-2.509-7.35zM80.921 166.183c-1.017 2.755 1.067 5.848.67 1.82-.092-.591.662-2.558-.67-1.82zM132.325 51.57c-3.125.458-2.412 1.857-5.25 1.429-1.627-.28 1.249.544-1.378-.742.986.234-1.658-.898-1.555-1.332.485.47-1.988-1.367-1.88-1.137-1.661-1.071-3.494-1.243-3.052-1.391-2.593-1.191 1.741.867-1.725-.798 2.98-.236-4.316.847.263 2.173-1.583-.92.39.553 2.12 1.128-2.463-1.31 2.716 1.343.545.04 1.97 1.29 1.658.758 2.077 1.331 2.392 1.457 1.292 2.05 5.875 2.898 2.08-.744 3.73-.53 4.94-2.892-.143-.298-.527-.903-.98-.707zM117.807 143.16c.764 3.229-.795 6.392-1.208 8.322 2.262-.224 3.119-8.605 1.208-8.322z"/>
            <path d="M116.117 150.678c-3.602.921-1.528.927-1.363 1.19.597-.26 2.697-.25 1.363-1.19z"/>
            <path d="M111.226 151.101c1.268 3.167 7.268 2.8 2.41 1.215-.38.218-1.84-2.92-2.41-1.215zM99.38 152.672c-4.427 1.234-9.05 2.038-13.438 1.731-5.55-.825.708 2.063 3.063.798 2.674-.052 10.036-.452 10.376-2.529z"/>
            <path d="M85.113 154.093c-1.69-.175-9.667-1.456-5.058.163.518-.074 6.727 1.599 5.058-.163zM104.848 83.781c.611 2.879.466 3.825 1.902 7.206 1.589 2.855 3.33 6.245 4.771 7.278 2.353 2.335 4.432 3.3 5.91 5.14 1.65 2.484 2.939 3.579 4.404 6.28.833 2.715 4.86 10.607 2.42 3.418-.783-1.824-1.635-4.035-2.86-5.854-.71-.47-2.008-2.554-2.593-3.379-.506-1.1-1.863-1.99-2.234-2.428-1.981-1.696-3.65-2.6-4.758-3.93-.765-.57-1.256-1.741-2.418-3.45-.721-1.175-1.381-2.657-2.07-3.82-.638-1.247-1.104-3.853-1.46-4.743-.1 1.21.303-3.264-1.014-1.718zM120.044 59.571c.632 3.645-1.28 10.527.622 12.304-.08-3.375 1.266-10.652-.622-12.304z"/>
        </g>
    </g>
</svg>
