<svg xmlns="http://www.w3.org/2000/svg" width="560" height="640" viewBox="0 0 148.16666 169.33333">
    <g>
        <path d="M143.818 87.598l-3.55 1.477c2.22 4.376-3.688 5.326-3.864 1.607-9.112-1.44-16.446 6.008-24.438 10.168-1.779 10.273-3.9 20.595-14.182 32.084-5.745 5.757-16.33 10.298-31.851 8.137-11.525-1.605-18.132-9.728-21.855-18.6-3.543-16.86-1.335-22.74 1.86-26.736l18.214-7.837L94.3 70.637 72.004 88.859l32.987-8.701c5.124 1.015 9.602-1.212 13.485-2.558 20.798-12.419 22.44-5.955 24.412-4.184 4.03 3.619 4.41 9.454.93 14.182z" fill="#fafafa" fill-rule="evenodd"/>
        <path d="M128.72 82.201s-12.367 10.845-16.743 16.172c-4.376 5.327-15.982 19.596-15.982 19.596s19.977-19.215 26.636-20.928c6.659-1.712 17.884-8.561 17.884-8.561-2.424 1.515-6.563-8.98-6.088-7.99 2.266 4.718-4.599 3.042-5.708 1.711z" fill="#00c8e1" fill-rule="evenodd"/>
        <path d="M41.963 95.139c.951 0 10.464-3.235 20.167.19 9.703 3.425 26.445 2.473 31.012 1.712 4.566-.76 13.888-5.137 14.84-5.517 5.18-11.122-8.31-12.486-9.894-11.606 0 0-25.371 3.345-31.392 4.186-11.324 1.582-24.736 11.034-24.733 11.035z" fill="#917c6f" fill-rule="evenodd"/>
        <path d="M61.94 107.695s-3.615 4.376-8.942 5.328c-5.327.95-12.367-1.332-14.84-3.235-2.473-1.902-9.513-3.044-11.415-.57-1.903 2.473 8.37 9.322 8.37 9.322s-13.317-.951-16.551.57c-3.235 1.523-3.615 2.855-3.615 2.855l-13.889-6.66s14.08-8.751 17.694-10.844c3.615-2.093 9.703-3.995 14.84-3.044 5.137.951 10.083 5.517 11.035 6.469.95.951 6.088 2.283 8.751.19 2.664-2.093 8.562-.38 8.562-.38zM77.73 141.941s2.474 8.752 3.996 10.845c1.522 2.093 11.796 6.468 11.796 6.468s-9.703-2.092-11.605-.76c-1.903 1.331-4.376 4.185-4.376 4.185s-5.327-3.615-8.752-3.615c-3.425 0-10.084 1.142-10.084 1.142s5.328-6.279 9.513-7.61c4.186-1.332 5.708-2.283 5.518-4.757-.19-2.473-2.093-5.517-2.093-5.517 1.769-.3 2.916-1.016 6.088-.38z" fill="#00c8e1" fill-rule="evenodd"/>
        <path d="M132.524 70.786s1.713-2.093 5.708-1.522c3.995.57 8.371 7.04 8.371 8.371 0 1.332-.507 7.188-.507 7.188l-9.576-1.1-13.318.19z" fill="#fff" fill-rule="evenodd"/>
        <g>
            <path d="M143.399 74.267c-4.445-4.554-11.295-3.642-16.453-1.257-2.283 1.054-4.104 2.29-6.312 3.642-1.384.472-.582.72-3.422 1.577-.79.603-3.779 1.042-5.611 1.815-5.375.807-10.95.88-16.283 1.906-10.653.323-21.558-1.048-31.947 1.533-1.585.557-6.705 1.837-8.595 2.867-2.137.622-1.884 1.41-4.564 2.686-1.336 1.681-2.991 1.351-4.168 3.358-2.188 1.813-2.122 1.543-3.904 3.057-2.704 1.395.681-1.51 1.56-1.813.081.115 3.503-3.526 4.025-3.305 2.293-1.828 3.67-2.349 5.265-3.746 1.335-.846 7.768-3.055 10.637-3.815 13.32-3.023 27.272-.11 40.594-2.688 4.664.187 9.995-1.109 12.712-2.332 2.083-.495 3.668-1.738 4.827-2.401 1.531-1.185 4.288-2.301 5.79-3.263 4.775-2.515 14.336-2.482 15.849 2.18z"/>
            <path d="M42.177 96.47c6.56-4.044 14.542-1.588 21.34.527 10.025 1.663 20.76 3.11 30.595-.116 4.687-1.682 7.474-3.345 10.771-5.456.057 1.271-4.25 2.763-6.535 4.422-11.233 5.32-24.103 3.658-35.947 1.644-6.062-3.236-16.177-2.652-20.224-1.021z"/>
            <path d="M70.406 97.416c-8.429-1.542-16.918-5.068-25.548-3.263-6.071.488 7.892-2.247 10.671-.749 4.572 1.078 12.366 2.248 14.877 4.012z"/>
            <path d="M44.68 93.132c3.195-1.546 16.213-.43 13.624.56-3.95-1.314-11.597-.03-13.624-.56zM82.654 80.292c2.734-4.477 8.662-7.41 11.598-10.165 2.363 1.156-8.64 4.767-10.806 7.274-2.886 1.663-5 2.908-6.82 3.518-4.216 1.152-1.762-.583.254-.637 4.011-1.48 7.066-4.277 11.866-6.668 3.953-2.397 8.08-4.135 4.493-2.259-2.994 2.892-7.828 6.126-10.585 8.937zM45.773 96.84c-3.016 2-3.687 12.251-3.179 3.637.495-1.095 2-4.291 3.179-3.637zM1.719 115.4c3.977-.563 7.358.99 10.153 3.645 2.58 2.885.724 3.288-.945.22-2.133-3.418-8.016-2.796-9.208-3.865zM13.855 120.648c3.956-4.826 10.833-3.513 15.965-1.765 5.759 1.093-.57 1.283-3.181-.01-4.476-2.256-9.878-.358-12.784 1.775zM31.546 117.91c-.826-2.67-5.354-6.838-3.278-8.505 3.34-3.664 7.874-.467 11.285 1.256 4.267 3.523 10.541 2.296 15.542.836 2.788.107 7.915-6.32 6.423-3.513-3.03 3.665-10.64 6.154-16.668 5.389-5.405.212-9.156-6.446-14.76-4.638-3.114.473-1.002 3.476.617 6.37.181.502 2.573 2.985.839 2.805z"/>
            <path d="M62.076 106.445c.986 4.096-2.229.872 0 0z"/>
            <path d="M60.882 105.592c2.582 3.102-.85 2.511 0 0z"/>
            <path d="M59.616 105.545c5.725 5.336.037 2.018 0 0zM22.663 105.556c-3.085-.017-11.317 9.04-9.38 5.954 2.391-1.78 7.757-7.776 9.38-5.954z"/>
            <path d="M16.303 115.307c-2.882 10.653.234-11.89.674-2.683-2.176 1.994.858-6.068-.366-.061-.513 3.616-2.648 8.948-.69 2.569l.382.175z"/>
            <path d="M3.166 113.843c4.48-2.11 8.974-4.521 12.384-7.138 2.091-1.042 2.788-1.66 5.933-2.91 6.139-1.566 12.965-1.793 19.176-.24 3.237.992 6.299 3.03 8.786 4.57 1.422-.242 2.207-2.755 5.543-2.868 2.482-.994 5.635-.482 7.452 1.463-1.486.416-4.625-2.531-7.235-.98-3.085.916-3.473.672-4.73 2.656-2.76.819-4.792-2.572-7.66-3.178-6.266-3.234-14.88-1.845-20.69-1.184-2.789 1.209-4.778 2.094-6.813 3.514-3.187 2.25-9.703 6.246-12.146 6.295zM42.511 113.764c2.398 5.452 1.452 12.491 6.337 16.583 3.767 3.756 7.93 7.595 13.404 8.175 4.724 1.164 9.543 1.955 14.455 1.487.386.96-6.984 1.005-9.971.23-5.506-1.128-11.407-2.162-15.381-6.526-4.056-3.217-7.528-7.384-7.503-12.835-.106-1.641-2.857-6.453-1.341-7.114zM109.41 111.824c-1.998 5.225-2.754 11.752-7.015 15.802-2.12 3.1-6.655 7.334-10.688 9.627-1.253 1.002-3.125 1.848-6.654 2.802-5.762 1.89-3.81-.322 1.48-.985 4.11-1.551 4.063-1.355 7.125-3.764 2.883-1.95 5.409-4.084 7.666-7.309 2.505-1.909 4.836-7.46 5.998-11.706.734-.901.093-5.255 2.088-4.467z"/>
            <path d="M43.355 120.614c.874 3.526 4.955 14.776.756 5.79.501-1.439-2.491-5.531-.756-5.79zM45.364 121.12c-.953 5.093 9.159 11.033 7.361 12.32-4.774-1.982-7.717-15.215-3.148-4.532 3.94 4.38 4.565 6.201-.252.977-2.103-1.584-5.427-6.92-3.961-8.765z"/>
            <path d="M50.762 129.252c4.738 4.067-.543 2.817 0 0zM140.34 71.31c3.815 2.51 6.493 6.636 5.426 11.492.048 3.898-2.534 5.225-2.575 4.458 1.312-.16 2.123-3.623 1.851-6.551 1.47-4.26-4.393-7.277-4.703-9.398zM130.325 94.136c-3.37.866-12.509 9.198-11.62 6.815 3.41-2.212 9.337-6.95 11.62-6.815z"/>
            <path d="M133.277 92.976c-4.72 3.163-4.855 1.208.299-.289l-.3.289zM131.514 77.034c-.615-1.839-5.106.423-4.64 3.282.36 1.941 4.297 3.268 4.797 2.648 1.16-3.05 2.614-4.093 1.325-.491-2.266 3.372-8.948-.988-6.253-4.394.707-1.755 6.347-3.52 4.77-1.045z"/>
            <path d="M139.296 90.117c-2.842 1.307-7.092 3.898-7.176 3.241-.049-1.472 4.495-2.766 5.7-3.527 2.92-.9 3.57-2.313 5.759-3.445 1.444 1.268 1.721-6.23 2.15-1.215-1.008 2.166-3.187 1.957-3.774 2.724-2.614 2.461-3.874 2.039-7.382 3.978-1.008.849-4.422 2.19-1.28.624 1.713-.135 5.794-3.626 6.003-2.38z"/>
            <path d="M144.509 85.983c-4.64 4.35-5.108 2.008 0 0z"/>
            <path d="M139.267 89.156c3.827-.578 1.568 4.677-.135 4.026-4.349 2.048-2.59-6.458-1.947-.483 2.93.036 3.795.126 3.049-2.923 1.358-.678-2.519.655-.967-.62zM78.397 142.146c-1.052 2.713 4.323 8.583 1.572 8.97.692-2.803-4.236-6.974-1.572-8.97zM81.61 152.154c1.732 2.081 12.124 9.128 4.96 5.027-.788-.938-6.886-4.105-4.96-5.027z"/>
            <path d="M90.688 159.013c-4.798-1.937-10.204-2.976-12.297 1.987.407-5.226 9.239-5.228 12.692-2.123l-.395.136zM78.22 161.714c-1.646 1.638-5.282-5.804-9.917-3.12-4.128-.879-6.718.434-8.778 1.433-3.241 1.275 3.485-2.965 6.747-2.285 5.872-2.429 11.539 4.88 11.948 3.972zM58.802 158.984c2.5-2.792 11.108-6.793 10.45-5.372.008-.124-8.313 3.852-10.45 5.372zM71.58 152.15c.926-2.101.76-7.481 1.11-7.87 1.936 3.911-.366 10.8-.067 2.313-.143-7.79 2.14 5.02-1.042 5.557z"/>
            <path d="M74.095 146.705c1.487 4.318-.123 6.744-.548 1.431-.555-.179-.214-1.987.548-1.431zM74.228 154.598c3.725 2.571 1.68 9.332.974 2.066.192-.758-2.826-1.751-.974-2.066zM53.64 136.306c1.875 3.22 17.814 5.064 11.65 5.225-3.389-1.3-11.631-2.11-11.65-5.225zM69.947 142.412c3.292.148-1.765 1.467 0 0zM85.564 141.242c3.957-.074 13.448-4.8 5.964-.845-.654.339-7.929 2.576-5.964.845z"/>
            <path d="M90.114 139.718c-4.559 1.918-13.156 2.788-3.457.467 5.924-1.723 11.872-5.045 15.126-9.416 2.203-.562-3.17 4.223-5.11 5.335-3.67 2.425-12.555 6.787-14.85 5.161 1.624.213 9.194-3.094 8.291-1.547zM125.555 85.933c-5.477 3.814-9.338 9.354-14.147 13.842-2.752 3.648-5.359 4.76-1.148.18 4.853-3.839 8.036-9.43 13.083-13.087.01-.208 3.693-2.782 2.212-.935zM106.172 105.337c-1.145 2.556-10.667 13.87-5.987 7.347 1.953-2.075 3.677-6.65 5.987-7.347z"/>
            <path d="M107.32 105.337c-2.137 3.145-9.938 13.484-9.844 12.103 1.901-2.601 6.432-8.317 9.105-12.138l.38-.19.36.225zM130.779 92.492c-3.617 1.124-6.544 4.065-9.202 5.221-5.525 3.085-10.917 7.809-15.465 13.284-1.472.495-2.853 3.042-5.441 4.896.17.55-3.286 3.923-3.575 3.963-2.002.273.805-.836 1.006-1.506 1.543-1.757 2.374-2.973 3.697-4.186 2.451-2.645 3.486-2.86 5.518-5.51 4.273-4.734 9.392-8.896 14.594-11.702 1.601-.602 7.932-5.88 8.868-4.46z"/>
            <path d="M116.943 95.27c-6.022 5.496-9.842 13.138-16.156 18.232 2.826-3.686 7.08-8.479 10.36-12.588 1.727-1.335 3.614-5.722 5.796-5.644zM127.35 79.736c5.377-2.57-1.14 5.798-.483 1.037.231 1.304 2.54.869 2.09-1.162-.581-.08-1.288 1.276-1.606.125z"/>
            <path d="M126.616 80.005c3.245-2.699 1.839 1.245 0 0zM133.065 78.057c1.603 3.88-2.281.32 0 0z"/>
            <path d="M133.248 74.744c1.817 5.802-.77 3.134.511-1.346 2.007-.652-.702 9.227-.758 2.696-.853-.092-.517-1.85.247-1.35z"/>
            <path d="M134.194 74.61c-.01 2.828.09 6.223 2.048 7.506.574 1.018 2.179 2.538 4.364 3.68 4.626.216 5.723.219 3.905 1.59-3.79.888-7.89-1.779-9.343-4.261-.661-.492-2.908-3.217-2.127-5.756-.733-.963-.627-4.205 1.153-2.758z"/>
            <path d="M134.468 82.338c.986 1.274 2.11 2.354 3.548 4.36 2.093.705-2.468.253-2.545-2.485.415.021-3.235-1.104-1.003-1.875z"/>
            <path d="M137.99 85.827c1.87 1.983 7.94 2.647 7.072 2.317-.242 1.686-8.635-.722-7.072-2.317zM132.987 75.54c-.052 5.678-2.11 2.06 0 0z"/>
        </g>
    </g>
</svg>
