<svg xmlns="http://www.w3.org/2000/svg" width="560" height="640" viewBox="0 0 148.16666 169.33333">
    <g>
        <path d="M116.849 133.399c-8.672 6.415-20.39 7.954-32.084 9.532-10.112-.034-15.434-4.06-22.087-6.975L51.983 121.31c-4.925 1.216-4.442-1.354-3.255-4.417-1.166-3.82-2.663-3.354-3.685-7.217-2.156-8.142-4.062-19.939 7.405-32.772 7.867-7.492 15.535-12.4 22.784-11.857 12.806 1.734 23.228 5.32 30.457 11.392l-1.86-34.409 10.695 45.336z" fill="#fafafa" fill-rule="evenodd"/>
        <path d="M81.979 141.543s-1.008 9.67-.806 10.88c.201 1.208 3.828 4.029 3.828 4.029l-6.045 3.828s-15.312-3.425-16.32-3.022c-1.007.403 15.514-1.813 15.514-1.813s.403-4.03 0-6.85c-.402-2.821-2.619-7.657-2.619-7.657z" fill="#00c8e1" fill-rule="evenodd"/>
        <path d="M50.95 118.372s8.664 21.559 9.067 23.573c.403 2.015 9.47 18.134 9.873 18.94.403.805-4.03-24.178-4.433-26.797-.215-1.4-1.577-9.669-2.724-13.318-2.022-1.58-3.857-4.446-3.723-4.614-3.686 2.368-4.875 2.855-8.06 2.216zM96.082 141.744l-2.216 9.268v3.022l9.268 4.433-6.85 1.612s-.202-.605-1.612.806c-1.41 1.41-2.015 3.022-2.015 3.022s-4.634-2.821-7.052-3.224c-2.418-.403-7.253.202-7.253.202s5.44-5.037 8.06-5.037c2.618 0 4.23-.605 4.23-.605l.202-12.693z" fill="#00c8e1" fill-rule="evenodd"/>
        <path d="M93.866 84.524s6.246 28.61 7.656 32.438c1.41 3.828 16.924 18.335 16.924 18.335s5.44-17.126 4.231-23.775c-1.209-6.649-6.648-23.774-7.656-25.386-1.007-1.612-19.543-15.716-19.543-15.716-2.2 3.515-3.164 7.91-1.612 14.104z" fill="#917c6f" fill-rule="evenodd"/>
        <g>
            <path d="M64.026 68.584c-3.295 1.68-6.076 4.873-9.677 7.01-3.37 4.13-7.692 7.806-8.913 13.194-1.197 3.654-1.273 8.33-1.137 12.473.372 3.666.338 7.586 2.161 10.826 1.019.834 1.563 2.828 3.403 2.815 2.056 1.68 4.356 1.504 6.075.887 1.839-.42 1.523-.3 3.388-1.255 1.633-.654 3.483-2.319 5.249-3.439 1.791-.694 2.185.62-.122.873-1.393 1.21-3.693 2.771-5.654 3.625-.965.611-3.404 1.142-5.3 1.356-2.465.134-4.407-1.635-6.129-2.353-1.605-2.219-2.994-4.047-3.15-6.757-.62-3.892-.857-7.904-.744-12.205.353-3.885.958-7.16 2.467-10.766 1.961-3.003 4.207-5.743 6.66-8.432 2.678-2.83 5.387-4.087 8.329-6.732.502-.078 3.72-3.33 3.094-1.12zM65.312 67.114c4.537-1.885 9.52-2.866 14.346-1.469 6.785 1.24 13.74 2.506 19.64 6.262 3.334.997 6.293 4.262 8.905 6.822 2.764 3.587 5.652 7.031 7.727 11.007a73.773 73.773 0 0 1 3.463 12.229c.512 5.018.835 10.082.656 15.19-.279 4.266 1.005 8.68-.847 12.657-1.166 2.55-2.515 7.716-3.052 5.82.405-1.093 1.079-3.257 1.629-4.154.753-1.683.944-2.754 1.427-4.477.664-4.12-.288-8.479.052-12.765.06-4.544-.092-9.09-1.087-13.432-.322-4.139-2.031-8.21-3.61-12.008-2.255-3.536-4.752-7.082-7.724-10.302-2.75-3.044-6.098-5.378-9.857-6.998-6.468-3.492-13.965-4.41-21.085-5.738-3.321-.999-8.902 2.476-10.583 1.354z"/>
            <path d="M94.743 84.35c.7 4.736.996 9.579 2.655 14.116 1.183 5.508 2.288 11.026 3.909 16.397 1.97 4.674 4.31 9.346 7.948 12.918 2.34 2.433 5.066 4.65 7.162 7.285.358 2.231-3.291-2.687-4.441-3.642-3.984-3.337-7.39-7.37-9.523-12.194-3.072-5.542-3.712-11.921-5.316-17.99-.52-3.634-2.48-8.056-2.502-12.22.206-.882-1.68-5.455.108-4.67z"/>
            <path d="M96.045 85.594c.472 4.057 1.986 8.23 3.21 11.923-2.758-1.644-2.39-7.063-3.782-10.098-.006-.502-.67-2.651.572-1.825z"/>
            <path d="M98.942 93.047c1.771 1.984 1.667 8.241.276 2.607.017-.618-1.947-2.977-.276-2.607zM97.658 107.89c1.28 4.746 3.16 9.335 5.289 13.741 2.949 1.929.805 3.3-.65.469-2.125-4.551-4.292-9.286-5.288-14.186.17-.123.5-.262.65-.023zM108.04 125.645c2.52 1.664-1.733 1.267-.203-.026zM119.73 99.162c.297 6.706 2.046 13.252 1.528 20.001-.913 2.314.44 7.588-1.648 8.314.413-4.493 1.057-9.085.882-13.706-.27-4.918-1.543-10.405-1.43-14.65.186-.109.538-.22.668.04zM104.32 40.864c-.054 5.678-.022 11.36.422 16.985-.247 5.006.807 9.765 1.26 14.685-1.214 1.97-1.146-5.03-1.658-6.708-.635-4.442-.1-9.073-.813-13.558.581-3.427-1.069-9.455.79-11.404z"/>
            <path d="M104.41 41.13c.97 7.77 3.705 15.203 4.781 22.927a66.65 66.65 0 0 0 2.778 11.968c.141 3.424 1.633 6.75 2.297 10.111-1.839-.474-1.506-4.461-2.517-6.252-.278-3.131-1.294-6.071-2.092-9.11-1.372-5.905-1.866-11.938-3.608-17.789-.77-3.9-2.457-8.283-2.061-11.99h.27l.151.134zM106.527 59.144c.9 4.705 2.06 9.441 3.199 14.017-2.505-1.709-1.743-7.524-3.333-10.623.28-.699-1.586-4.008.134-3.394zM73.773 81.975c-3.653.142-6.571 3.772-7.044 7.28-.73 4.713-.112 9.47.951 14.077-.235 2.041 1.364 7.716-.942 7.682.942-4.09.019-8.48-.845-12.608-.3-4.33-.763-9.094 1.384-13.098.783-1.461 6.25-5.963 6.496-3.333z"/>
            <path d="M71.688 83.39c-3.42.425-3.833 5.856-4.032 8.968-2.277-1.487.375-9.45 4.334-9.66 3.684-.283-2.772.878-2.591 2.786-2.382 1-1.293 8.818-2.566 6.192.482-3.35.91-8.973 5.081-9.021.264.173.088.743-.226.734z"/>
            <path d="M71.927 83.946c1.347-2.526 10.824-1.024 5.152-.458-1.843-.346-7.257.435-7.093-1.171 1.976.35 9.003.073 8.097.982-1.698-1.455-6.253 2.22-6.156.647zM45.406 113.71c2.237.794 3.071 1.036 5.43 1.6 2.18.082 4.801 1.14 6.485.021.93-.282.562-.114 1.885-.994-1.81.956 2.143-1.426.458-.466 1.69-1.705 2.04-1.065 1.699-1.493l.93-.477c-1.528.709 1.434-.719.168-.24.757-.394 2.588-1.556 1.404-.77 1.945-.99.767-.526 3.096-1.532 3.022-.299-1.846.756 1.46-.21.984 2.711-.167 1.487-2.653 2.714 1.612-.859-1.702.814-.544.3-1.498 1.11-.558.023-2.127 1.318.493-.278-.56.368-.748.338.22.194-2.027 1.846-1.774 1.647.016.191-2.695 1.917-1.167.73-.988 1.953-6.04 1.495-8.06 1.175-2.772-.574-5.075-1.325-6.826-2.233-.04-.506.198-1.528.884-1.427z"/>
            <path d="M60.61 116.316c-.526 1.903.41 2.83 2.475 2.876.96-.464 2.644-3.955 1.236-5.226-1.206-1.562-4.032-2.305-.7-1.813 2.384 1.369 2.25 3.873 1.232 6.16-1.233 2.32-3.98 2.045-5.03-.1.146-.558-.458-2.736.787-1.897z"/>
            <path d="M63.163 118.536c-4.834-.237 1.719-5.122 1.32-.202-2.059 2.52.277-2.28-2.104-1.63.545.267-1.608 1.478 1.076 1.235.03.212-.004.576-.292.597zM67.555 112.528c-.422 3.347-.279 7.35-2.935 9.622.142 1.04-2.43 1.434-.432-.594.647-.204 1.53-2.125 1.826-3.345.765-1.215-.08-6.093 1.541-5.683zM50.99 121.015c-1.325-2.626-1.074-4.296.731-.653 2.41 4.193 4.883 8.346 6.827 12.75 1.585 4.702 3.84 9.102 5.082 13.923 1.582 3.633 3.435 7.07 4.905 10.68.444 1.412 3.601 5.319 1.776 5.087-1.28-2.402-2.87-5.38-3.805-7.794-1.217-2.948-3.152-5.684-3.866-8.813-1.4-3.967-2.85-7.913-4.578-11.792-1.291-4.378-4.13-8.04-6.042-12.152-1.764-1.33-3.044-7.226-.816-3.125.185.482 1.142 2.44-.215 1.889z"/>
            <path d="M63.406 120.55c-.196 4.329 1.448 8.4 1.892 12.623.712 4.147 1.904 8.322 2.169 12.519.991 4.55 1.499 9.275 3.42 13.61.85 1.93 1.056 5.054-.55 1.307-1.232-3.782-2.42-7.594-3.009-11.531-.877-4.558-1.264-9.217-2.453-13.727-.539-3.992-1.458-7.94-2.234-11.95.339-.616-.71-3.695.765-2.85zM48.211 118.696c-.306 2.274 2.72 4.558 3.198 2.408 2.133-.278-.97 2.608-2.295 1.308-.652-.3-2.806-4.536-.903-3.716zM47.79 116.81c2.212.668 8.056.006 7.745 1.79-1.637.897-3.484 1.034-5.941.308-2.356-2.517 2.394.58 3.826-.294 1.152-.933 3.413.286-.276-.32-.877-.845-6.91.202-5.354-1.485zM112.95 135.988c-3.106 1.555-6.531 4.126-9.577 4.732-2.998.155-3.982.597-7.478.814-1.125-1.729 4.604-.528 5.403-1.393 4.457.26 7.833-3.556 11.74-4.822.097.195.182.556-.088.669z"/>
            <path d="M93.517 142.629c-5.359.37-10.87.711-16.166-.343-2.95-.455-5.682-.587-8.055-2.05-.575-1.41-4.802-2.29-2.929-3.099 2.359 2.47 8.407 3.361 9.456 5.028-3.283-.418-8.291-2.422-9.612-4.836 2.046.264 3.518 2.881 5.354 3.186 4.653.828 9.382 1.936 14.228 1.654 1.533.709 8.221-1.286 7.724.46z"/>
            <path d="M78.132 140.903c2.956 1.703 9.491-.468 10.531 2.067-3.263-1.335-9.106.612-10.733-2.038l.202-.029z"/>
            <path d="M69.873 137.474c4.837 1.964 10.102 3.898 15.39 2.836-2.208 2.498-8.373.304-11.776-.615-.5-.562-5.5-1.243-3.614-2.22z"/>
            <path d="M84.172 140.773c2.417-.325 9.913 1.68 3.416 1.055-.535-.529-4.874.397-3.416-1.055zM94.983 141.476c2.59-.538 5.374 1.188.925.841-.78.902-1.806-.635-.925-.84zM94.506 154.345c2.67 2.482 6.792 2.423 9.247 4.02-2.913.146-7.87-1.46-9.659-3.857-.127-.021.412-.322.412-.163z"/>
            <path d="M103.352 159.11c-3.127-1.105-6.98-.497-9.387 1.351-1.38.558-3.23 3.25-2.072.409 1.836-1.075 4.196-2.973 6.973-2.985.645-.043 6.478-.16 4.486 1.225zM89.317 161.348c-2.468-.272-5.411-1.877-8.098-.539-2.08.79-5.13.82-1.419-.478 3.413-1.593 6.958-.397 9.867.452.008.214-.061.574-.35.565zM78.491 159.294c2.497-.916 4.049-2.585 7.155-3.1 2.144-1.34 7.568-.321 2.057.229-3.687.344-6.2 2.526-9.268 3.55-.108-.193-.21-.552.056-.68zM89.714 142.874c.05 3.937 1.324 8.729-.043 12.206-.804-2.408.206-6.68-.581-10.02.3-.474-.811-2.948.624-2.186z"/>
            <path d="M90.968 161.378c2.773.416 1.048 5.122.713 1.334.655.634-2.43-1.148-.713-1.334zM91.834 158.023c1.044 2.025-1.974 2.373-.22 1.477-.735 2.398-1.084-2.779.22-1.477zM82.161 143.3c-.886 3.468-.553 7.27-.986 10.894-1.818-.763.37-6.01-.262-8.432.078-.28.088-3.69 1.248-2.461zM81.298 154.427c.22 1.545 5.817 2.054 1.371 1.993-.884.169-3.16-1.973-1.37-1.993zM76.074 155.395c-1.251-.257-6.867-.47-2.374-1.108-.606.576 4.24-.448 2.374 1.108z"/>
            <path d="M71.543 154.767c4.582-1.81-1.156 2.577 0 0zM64.17 156.823c-2-.561-4.096 3.24-2.936.444-.066-.77 4.297-2.093 2.936-.444zM64.228 157.487c3.177-.81 5.35 1.66 1.623.766-.504-.119-2.858.358-1.623-.766zM73.41 158.235c4.125.533 6.633 3.39 1.295 1.226-.474-.185-2.79-.577-1.295-1.226zM77.1 155.53c-1.658-.197-3.507 2.71-2.36.358-.002-.77 3.644-1.872 2.36-.357zM49.581 120.119c3.118.54.114 2.677.497 1.481 1.562-1.287-1.509-.156-.497-1.482zM55.102 123.402c1.195 1.241 4.792 7.783 2.55 6.672.43-1.984-4.247-6.087-2.55-6.672zM59.136 131.86c2.255 2.43.563 5.148-.184 1.148-.82-.16-.5-1.517.184-1.148zM63.56 113.652c-2.085 2.963-4.983 2.495-.788 1.08 1.534-1.438 5.189-2.919 1.847-.375-1.39 2.053-6.65 1.932-3.087.366-.425 1.105 1.249-2.885 2.027-1.071zM69.996 82.496c-2.851.716-2.87 5.297-4.103 7.931-1.87-.26 1.169-3.647.787-5.43.028-.915 3.535-4.955 3.316-2.501z"/>
            <path d="M65.738 155.876c4.927.12-2.509 1.034-3.644 1.818-2.137-1.806 9.497-2.078 3.481-1.055-.283-.151-.153-.748.163-.763zM70.754 154.974c1.86-1.607 6.647-.424 2.4.347-1.61 1.134-6.749 1.227-2.286-.048 3.263-1.4 5.248-.37.853.116-.414 1.066-1.632.046-.967-.415zM71.986 157.884c3.237-.76 4.145 1.635.91.754-.734.93-1.747-.504-.91-.754zM95.747 143.338c-1.452 3.466-1.95 6.985-1.487 10.657-2.27-.565.136-3.568.01-.206-1.748-.575-.963-5.32-.244-7.643.253-.452.662-4.229 1.721-2.808zM76.911 143.643c1.196 3.304 1.141 6.74.824 10.159-2.53 1.703.684-4.382-.35-.084-1.11-.246.339-4.45-.38-6.618.29-.46-1.96-4.102-.094-3.457z"/>
            <path d="M76.7 142.93c1.953 4.728-2.504-.468 0 0zM105.28 74.728c-1.217-4.294 2.42-.7 0 .001z"/>
        </g>
    </g>
</svg>
