<svg xmlns="http://www.w3.org/2000/svg" viewBox="0 0 198.4375 187.85416" height="710" width="750">
    <g stroke-width="1.267">
        <path d="M51.277 94.443s10.452 7.601 13.303 18.765c2.85 11.165 2.375 16.866 2.375 20.904s2.375 8.79 2.375 8.79-6.888 1.9-11.877-5.227c-4.988-7.126-4.038-10.69-4.75-19.953-.713-9.264-6.414-11.165-8.552-15.203s4.038-12.827 4.038-12.827z" fill="#917c6f" fill-rule="evenodd"/>
        <path d="M59.354 56.198L86.67 19.38s-6.889 15.915-8.551 20.903c-1.663 4.989-3.089 13.065-4.039 16.628-.95 3.563-7.126-.475-9.026-.713-1.9-.237-5.701 0-5.701 0zM124.203 118.91s-5.701-7.127.237-13.303c5.939-6.176 5.939-7.601 5.939-7.601s-7.364-6.889-.713-13.778c6.651-6.888 14.015-6.413 14.015-6.413s-7.364-1.9-8.552-5.939c-1.187-4.038-1.425-5.226-1.425-5.226s-3.325-1.187-6.413-2.138c-3.088-.95-7.127-3.8-7.127-3.8s-1.187 6.888.713 12.114c1.9 5.226 3.8 9.502 3.8 9.502l-.95 14.253s-4.038 3.088-8.076 7.838c-4.038 4.751-3.326 15.203-3.326 15.203s6.414 4.038 11.878-.713zM92.134 147.89s2.613-3.326 7.84-2.138c5.225 1.187 2.375 3.563 2.375 3.563s-4.625 13.721-2.138 14.965c3.325 1.663 6.203 1.173 12.114 2.613 4.41 1.074-16.444 3.129-16.152 5.463l-17.816-5.226s8.314-5.463 11.877-4.988c3.563.475 6.414 2.375 6.414 2.375z" fill="#00c8e1" fill-rule="evenodd"/>
        <g stroke-width=".487">
            <path d="M122.601 82.387c-2.175-.867-3.044-3.192-3.086-5.387-.82-2.672-1.368-5.452-1.216-8.27-.036-2.284-.131-4.709 1.16-6.72.32-.733.741-3.474 1.503-2.081-.04 1.53-1.62 3.535-1.81 5.309.102 2.668-.23 5.347.338 7.97.492 1.927.767 4.438 1.633 6.564-.323 1.197 3.513 2.094 1.478 2.615z"/>
            <path d="M122.062 63.553c1.465 1.952 3.9 2.81 6.25 3.014 1.697-.87 1.952 1.001.051.77-2.516-.106-5.127-1.004-6.721-3.047-.697-.209.001-1.038.42-.737zM130.43 65.077c1.033-.464 3.126-.425 2.678-.99.523-.303 1.744-.922.458-.284.434-1.236 2.692-.983.917.112-1.486.593.25.326-1.098 1.011-.51.12-4.667 1.66-2.956.151zM134.593 65.28c-.516 2.7-.488 5.701.231 8.282 1.146 1.666 2.544 3.417 4.562 3.952 1.528 1.06-2.305.804-2.636-.514-2.196-1.519-3.827-4.116-3.206-6.88-.01-1.2-.673-5.199 1.05-4.84z"/>
            <path d="M122.663 81.746c-2-1.59-2.062-4.04-2.471-6.345-.67-2.85-2.056-5.6-1.649-8.617-.354-2.148.48-4.035 2.064-5.454 2.215-1.355-.362 1.702-1.02 2.438-.484 2.787-.28 5.679.505 8.395.923 2.178 1.22 4.55 1.586 6.859-.058.909 2.94 2.557.985 2.724z"/>
            <path d="M120.806 62.147c-.53 2.57.575 5.024 3.13 5.9.96.715 3.735-.301 3.747.869-1.388.797-3.51-.002-4.97-.58-2.122-.954-3.214-2.963-2.695-5.244-.157-.55.061-1.472.788-.945z"/>
            <path d="M121.918 64.26c2.05 2.249 5.166 2.32 7.987 2.34 1.196.071 4.524-.205 4.302-.22.148-1.194 2.695-1.552.967-.34 1.264-.686-1.432 1.925-2.407 1.21-2.945-.047-6.033.354-8.855-.65-.431-.329-4.105-2.197-1.994-2.34z"/>
            <path d="M134.366 65.818c-1.625 2.201.065 4.656.259 6.99-.29 1.449.933 2.861.867 4.448-1.777-.215-1.482-3.415-1.779-4.916-.544-2.131-1.793-5.128.23-6.76l.29.06.133.178zM102.637 149.905c-1.87 3.094-2.09 6.847-2.078 10.37-.039 1.837.135 4.07.462 5.5-2.154-.177-.814-3.689-1.24-5.233-.21-2.644.217-5.305.84-7.865.46-.7.835-3.675 2.016-2.772zM94.191 151.293c.865 2.044.573 4.246.929 6.384.077 1.184.942 4.521.753 3.58.186.861 1.36 4.222-.298 2.96-.476-3.02-1.461-5.947-1.576-9.033.63-1.184-1.337-3.354.003-4.007l.117.033zM93.46 163.471c-2.128-.093-4.267.173-6.37-.277-1.864.09-3.773-.136-5.598.284-1.35 1.005-3.676.737-3.94 2.635-2.185.965.11-2.404 1.447-2.309 1.308-.16 2.67-1.509 4.577-1.335 2.235-.107 4.448.038 6.665.233.881.241 4.725-.537 3.219.77z"/>
            <path d="M78.247 166.082c2.89.63 5.842.678 8.772.926 2.233.229 4.518.608 6.376 1.958 1.367 1.301-1.475.696-1.96-.13-3.741-1.643-7.982-.981-11.912-1.822-.556-.113-2.968-.19-1.276-.932zM95.104 170.37c.62.623 2.211 3.489.51 2.295 1.592-1.938 3.494-2.6 5.958-3.833-1.137.572 1.871-1.185 2.68-.669 1.221-.58 4.035-.392 4.006-.626 1.694-.323 3 1.127 4.747.876 1.77-.078-1.147 1-1.277-.478-1.805-.711-2.547-2.9-4.542-2.845-2.278-.305-4.794-.395-6.953.36-.6-.03-2.652.444-1.398.103-2.2-.19 1.452-1.125 2.173-1.061 2.245-.662 4.68-.372 6.972-.229 2.154.786 3.484 2.749 5.516 3.895 1.028 1.85-3.295.903-4.341.145-.827-.1-.885-.132-.266-.426-1.891 1.008-4.252.638-6.288 1.257-1.034.104-1.796.973-3.53 1.622-1.383.661-1.874 1.599-3.608 2.49 1.177-.123-2.502-3.085-.36-2.876zM69.56 142.2c5.894 1.528 10.872 5.935 17.151 6.077 1.255-.068 2.189 1.35.353.892-5.812-.67-11.105-3.34-16.26-5.933-.472-.178-2.881-.285-1.245-1.036z"/>
            <path d="M81.806 147.085c6.06 1.877 12.46.972 18.69 1.15 1.682 1.051-2.632.746-3.418.726-4.946-.067-10.009.401-14.82-1.007-.583.004-1.706-.538-.452-.87z"/>
            <path d="M92.169 149.904c-1.32-.109-4.07-.131-4.571.866 8.55 1.217 17.098-.633 25.616-1.258 1.16 1.113-2.882.797-3.704 1.031-7.529.698-15.145 2.053-22.694.822-.194-2.494 3.559-2.356 5.272-1.984.543.09.626.494.081.523z"/>
            <path d="M92.295 151.64c.861 3.958 3.23 7.44 3.717 11.489.84.93-.479 3.986-.75 1.803.041-2.024-.507-4.06-1.24-5.95a49.261 49.261 0 0 1-2.52-7.12c.1-.245.603-.497.793-.222zM93.875 163.706c-2.13.68-4.303.044-6.478.232-2.12.395-4.1 1.042-5.343 2.14-.915.445.24.061-1.011.753-.589.329-1.249.479-.496.334-2.056.766.726-1.506-.26-.626.558-.447 1.988-1.239 1.414-1.019 1.588-1.13 3.556-1.97 5.596-2.273 2.307-.365 4.64.436 6.899-.297.276.173-.007.834-.32.756z"/>
            <path d="M79.375 165.203c-1.477.352-2.79 2.863-3.61 2.752.225-.374-1.165.373-.034-.404 1.535-1.51 3.306-2.849 5.505-2.987 2.879-.202-.416 2.285-.858 2.2-2.06 1.208-1.446.774.547.668 2.046-.044 4.053.36 6.08.495 1.997.906 4.209 1.637 5.96 2.926 1.333 1.01 2.855 2.023 3.993 3.004-.843 1.9-2.05-1.234-3.248-1.342-2.161-1.745-4.727-2.973-7.362-3.883-2.379-.165-4.752-.7-7.139-.28-1.96.359-.383-2.081-.314-1.31.047-.638 3.487-1.658 2.341-1.69-2.616-.142-3.748 1.997-5.983 3.242-.3-1.17 1.63-2.42 2.664-3.134.362-.26 1.164-1.082 1.458-.257zM100.566 169.588c1.469-1.321 3.9-1.977 5.381-2.075 2.215.19 4.799-.68 6.735.054.84.182 4.049-.094 1.662.938-1.9-.363-3.662-1.34-4.772-2.986-1.81-1.096-4.055-1.455-6.176-1.344-2.435-.179-4.89.242-6.366 1.165-1.202-1.231 2.196-1.898 3.335-1.969 1.393.369 4.575-1.138 4.83.584-1.907.19-4.306-.06-6.372.438-2.164.646-1.552-.09.552-.722 2.309-.4 4.808-.42 7.137-.076 2.39.05 4.096 1.662 5.657 3.238.703.602 4.033.705 2.31 1.626-2.265-.253-4.22-.442-6.577-.263-2.245.112-4.754.045-6.547 1.623-.564.597-1.885.74-.789-.23zM141.764 147.989c-3.662-1.188-7.386-1.737-11.206-2.15-3.894-.566-7.833-.072-11.515 1.267-5.194 2.12-10.882 2.113-16.372 1.59-3.718-.118-7.48-.815-11.203-.055-4.217.218-8.463.167-12.68-.016-5.249-.352-9.882-3.233-13.737-6.594-2.117-3.213 2.576.954 3.54 1.62 4.26 3.537 9.93 4.579 15.33 4.347 3.929-.05 7.855.122 11.751-.513 2.947-.034 5.855.667 8.821.494 5.588.809 11.216-.285 16.484-2.16 5.336-1.887 11.012-.56 16.438.097.61.42 6.413 1.163 4.35 2.073zM121.998 98.875c-1.636 1.645-2.597 3.848-4.508 5.23-1.626 1.999-3.12 4.2-3.475 6.812-.502 2.221-.392 4.461-.768 6.705-.325 1.196.916 3.715-.9 2.578-.203-2.594.549-5.09.46-7.663.473-2.178.868-4.728 2.408-6.675 1.183-2.042 3.339-3.223 4.38-5.312.727-.348 1.606-2.625 2.403-1.675zM126.57 103.227c.974 1.15.421.472 1.26 1.547.217.278.367.415.495.73.047.118.07.243.104.364l.184.4c.068.161.13.326.205.485.082.172.199.329.262.509.222.635.25 1.32.349 1.976.034.229.092.453.139.679.024.208.038.417.073.623.113.68.173.564.249 1.284.082.78.008 1.575-.041 2.355.078 1.826-.707 3.512-1.206 5.23-.202 1.347-1.113 2.443-1.454 3.74-.045.173-.045.354-.068.53-.128 1.4-.842 2.638-1.202 3.972-.106.96-.511 1.83-.85 2.722-.099.278-.212.52-.237.813.075.332-.809.53-.883.2-.005-.334.013-.638.196-.932.298-.861-.2.534.236-.515.063-.153.094-.317.156-.47.065-.158.162-.303.222-.463.153-.406.209-.799.292-1.223.042-.216.057-.44.127-.649.072-.215.209-.402.295-.612.355-.86.628-1.762.771-2.681.027-.204.03-.411.08-.61.318-1.308 1.246-2.386 1.457-3.727.379-1.154.192-.564.56-1.77.359-1.093.788-2.172.68-3.351.05-.974.123-1.957-.048-2.925-.038-.216-.112-.424-.152-.639-.038-.2-.053-.406-.08-.609-.52-2.578.167.992-.18-1.335-.03-.204-.1-.401-.146-.603-.044-.194-.06-.397-.126-.585-.125-.358-.381-.66-.504-1.02-.121-.317-.227-.698-.4-.993-.417-.712-.949-1.365-1.52-1.955-.185-.265.52-.757.704-.492z"/>
            <path d="M125.278 129.404c.91 2.6 3.427 3.954 4.755 6.3 2.405 2.2 4.606 4.76 7.465 6.385 2.264.88 3.912 1.884 6.019 3.688 1.378.304 3.288 2.146.582 1.34-2.79-2.266-6.116-3.767-9.133-5.654-2.555-2.372-5.366-4.53-7.31-7.475-.718-.647-4.445-4.354-2.378-4.584z"/>
            <path d="M127.045 134.007c2.207 3.78 6.549 4.956 10.056 7.106 2.892 1.564 6.313 2.445 8.922 4.277-1.984 1.205-6.593-1.483-7.559-1.437 1.9.27 4.153 2.112 6.365 2.496-1.344 1.327-5.648.742-6.57-.17 1.577.087 5.428-.424 6.238.487-1.503.002-6.322-1.17-6.276-3.284 2.238-.07 5.986 1.11 7.175 1.982-1.602.214-5.22-2.44-7.636-3.135-3.453-2.29-7.832-3.298-10.447-6.7-.397-.443-1.803-1.78-.268-1.622zM128.765 99.5c-2.597 2.142-4.29 5.098-6.184 7.825-1.018 1.86-1.465 4.056-2.004 6.01-.2 1.754.315 3.908-.528 4.674-1.238-1-.122-3.79-.152-4.907.102-1.723.962-3.794 1.69-5.521 1.704-2.671 3.398-5.382 5.74-7.554.348-.343.99-1.375 1.438-.527z"/>
            <path d="M122.353 117.823c.527 3.311-3.335 1.79-4.999 2.986-1.232.177-3.635.419-4.305-.07 1.199-1.813 3.99.721 1 .789-1.368.219-4.348-3.547-1.732-3.082 1.935 1.27 4.164 1.475 6.421 1.253 1.958.06 1.694-.922 3.742-1.526-.903.548.806-1.182.355-.316.307 2.58-2.62 3.55-4.794 3.726-2.018-.08-5.445 1.595-5.858-1.403-.637-1.927-1.943-3.75-.92-5.908.757-1.87 1.169-4.775 3.023-5.725.459 1.096-2.017 3.458-2.056 5.289-.613 1.685-.658 3.485.516 4.91-.104 3.506 3.272 2.261 5.646 2.052 1.867-.277 3.772-.472 3.458-2.876.71-1.796 3.15-.515 1.107.598-1.768.791-2.24 1.895-4.669 1.957-2.426.41-4.659-.412-6.806-1.37.251-1.8 2.135 2.202 3.13 1.808.628.352-2.56-.1-.826-.751 2.467.476 4.784-.71 7.116-.883.927 1.548.103-2.282 1.45-1.458z"/>
            <path d="M117.98 104.96c1.746-1.177 3.577-4.876 4.589-5.275-1.659 1.462-3.803 3.007-5.806 4.315-2.085 2.122-3.636 4.886-4.242 7.805.606 1.139-1.026 3.096-.968.959.149-2.319 1.219-4.396 2.426-6.335 1.18-2.525 3.66-3.886 5.922-5.286.483-.951 3.88-3.39 3.342-1.412-1.654 1.298-3.181 5.664-5.264 5.23zM122.5 96.238c-.209-2.633-.316-5.323.056-7.941.625-1.974-.038-5.162 2.09-6.21.457.806-1.375 2.803-.927 4.37-.601 2.185-.476 4.427-.568 6.8-.394.796.926 3.458-.651 2.981zM141.188 76.064c1.127-.018 4.327.939 1.646 1.468-2.462.193-5.52-.713-7.567.635-2.587 1.52-4.455 4.002-4.988 6.959-1.797 1.52-.23-2.146.119-3.065 1.128-2.12 3.14-3.466 5.074-4.838 2.442-1.017 5.23-.306 7.822-.488.579-.189-.783.667-.073.594-.451-.444-3.962-.416-2.033-1.265z"/>
            <path d="M122.598 95.912c1.382-.924 1.453-.827.348-1.844-.625-2.99.496-5.95 1.2-8.83-.6-.993 1.106-4.433 1.47-2.539-2.06 1.88-2.969 4.789-3.294 7.501-.625 1.545.868 5.7-1.221 5.56.625-2.823-.09-5.852 1.059-8.595.459-1.77 2.19-5.128 3.208-4.377-.496 1.015-.368 2.201-.358 1.859-.392 2.575-1.564 5.018-1.37 7.671-.637 1.68 2.598 2.483.117 3.517-.28.3-.956.695-1.159.077zM138.815 72.539c.998.84 3.708-.313 3.742.81-.866.729-4.61.364-3.965-.799l.223-.011zM140.466 77.346c1.264.367 4.663-.008 4.533.625-2.052.72-3.86-.464-6.068.007-2.23.782-3.556.999-5.743 2.2-.197.64-3.471 2.308-3.251 2.781.027.86-1.306 3.42-1.332 1.53-.087-1.117 1.345-3.209 2.044-2.786.3-1.182 3.373-2.635 4.437-3.15 2.788-1.37 5.89-1.636 8.911-1.163 2.99.313-.653 1.777-1.954.811-.529-.088-3.326.09-1.577-.855z"/>
            <path d="M129.977 83.33c1.74-1.555 3.481-3.163 5.72-3.979 1.796-1.266 4.051-1.807 6.223-1.445.874 1.434-3.12.139-4.054 1.077-1.732.83-3.525 1.573-5.08 2.704-.855.312-1.96 2.608-2.809 1.643zM128.295 72.834a10.765 10.765 0 0 0-1.856 6.165c-1.913.387-.26-3.509.166-4.5.457-.472.737-2.615 1.69-1.665zM50.126 116.165c.695 5.052-.255 10.511 2.686 14.97 1.754 3.905 3.838 7.696 7.139 10.54 1.651 2.117 4.628 1.434 6.302 3.313 3.09 1.617.374 2.202.201-1.039-1.223-4.248-1.082-8.748-.356-13.042.77-4.235.44-8.523-.565-12.66-.28-3.144-2.46-5.682-3.437-8.59-2.247-4.263-5.422-8.039-8.34-11.92-2.463-2.142-.378-3.364.828-.414 2.76 3.496 5.347 7.155 7.818 10.796.964 3.244 3.593 5.915 3.779 9.385.792 3.334 1.683 6.79 1.134 10.33-.602 3.75-.942 7.512-.92 11.383-.364 1.92 3.336 8.584.274 7.063-3.24-2.326-7.74-2.695-9.805-6.66-3.195-3.143-4.35-7.667-6.436-11.478-.638-3.782-1.573-8.93-.48-12.101l.178.124zM68.132 93.093c1.817-1.13 3.817-1.805 5.702-2.795 1.853-.268 3.525-1.088 5.336-1.544 1.03-.444 3.264-.807 3.641-.938-.224.19 2.966-.437 2.18-.388 1.92-.247 3.856-.34 5.814-.256 2.93.078 5.889-.223 8.786.275 2 .173 3.845 1.02 5.814 1.296 1.78.746 3.484.76 5.234 1.474 1.641.423 3.361.66 4.861 1.449 1.426.566 2.81 1.78 3.586 2.238.998 1.01-1.326.919-1.637-.036a13.09 13.09 0 0 0-5.412-2.441c-1.618-.408-3.18-.92-4.82-1.27-1.791-.45-3.55-.934-5.333-1.406-2.398-.704-4.919-.92-7.409-.822-2.54.032-5.09-.063-7.621.066-1.642.142-3.241.51-4.875.747-1.845.396-3.644.966-5.434 1.54-1.507.622-3.22.648-4.589 1.648-1.417.41-2.97 1.623-4.17 1.785-.026-.215.052-.647.346-.622z"/>
            <path d="M130.197 83.372c-1.101 2.633-2.212 5.417-1.746 8.332-.395 2.385.379 4.599 1.76 6.468.994 1.26-1.475 1.885-.618 1.695-1.133 2.259-3.257 3.854-4.256 6.186-.992 2.504-3.013 4.8-2.588 7.662.104 1.626 1.24 4.167-.215 4.077-.887.415.821-.411-.526.62-.59.732-1.307 1.008-1.124.974-.774.955-1.834 1.283-1.874 1.613-1.984 3.104-4.961.8-6.839-1.096-1.707-1.479-.416-6.176 1.37-4.404-.664.876-1.694.287-1.349.64-.168 2.037.873 4.015 2.915 4.907.689 1.224 2.548.655 2.328.505.744-1.054 2.097-1.581 2.034-1.761.49-.812 1.884-1.382 1.26-1.154.692-.606 1.652-1.631 1.683-1.51.722.347-1.22-2.697-.59-4.14.033-2.934 2.116-5.23 3.062-7.92 1.512-1.881 2.86-4.108 4.383-5.76.588-.63-.182.569.266-.422-.764-1.61-2.256-3.138-1.956-5.094.041-2.84-.396-5.832 1.052-8.429.45-.507.49-2.914 1.568-1.989zM46.983 104.251c-1.352-6.392.558 3.187 1.885 5.205 2.12 3.581 1.766 8.495 4.82 11.38-2.927 1.095-3.346-6.294-4.646-8.695-1.063-3.446-4.271-7.53-2.356-10.987.352.387 1.928 3.605.297 3.097zM53.233 132.908c-1.111 2.927 3.385 6.08 2.872 7.59-2.223-1.042-4.82-5.534-2.872-7.59zM60.276 139.778c1.613 1.75 3.989 2.566 5.62 4.269-.904-.866 1.43.04.586.824-1.702-.586-3.417-1.905-5.092-2.86-.688-.502-1.384-1.313-1.114-2.233z"/>
            <path d="M65.82 139.018c-.017 1.568-.893 3.573-.89.738.011-2.961-.652-5.874-.822-8.785-.207-1.871 3.701-3.929 1.143-1.272-.336 3.888.927 7.843.318 11.68-1.596 3.728-1.19-3.155.251-2.361zM118.09 147.418c6.601-.333 13.221.07 19.827-.166 3.844 1.386-2.023 1.49-3.625.56-5.496-1.184-11.178-.852-16.755-.635-4.318.919-8.165 3.292-12.203 4.979-1.551 1.533-3.96.184-1.36-1.186 2.89-2.341 6.832-2.233 10.288-3.12 4.613-1.136 9.35-.866 14.044-.752 2.739-.073 5.745-.007 8.035 1.65 1.894-.19 4.278 1.975 1.205 1.193-3.055-1.174-6.122-2.64-9.55-2.163-4.397-.118-8.838-.446-13.165.605-1.793.31.034.025-2.162.44-3.059.722-6.654.771-8.923 3.228.744-.167 3.881-1.573 5.481-2.377 3.743-1.57 7.476-3.731 11.69-3.29 5.356-.257 10.76-.06 15.988 1.194 1.174-.187 4.015.444 1.518.843-2.99-.823-6.241-.24-9.337-.427-3.787.118-7.585-.283-11.362.13-.235-.225.048-.769.367-.706zM52.385 72.401c-1.435 2.897.15 8.386-1.777 9.9.242-2.989-.346-8.38 1.777-9.9z"/>
            <path d="M52.031 72.028c-1.324 5.075-1.608 10.33-2.072 15.494-1.588-1.614.177-7.291.204-10.31 1.125-.969.149-5.737 1.868-5.184zM47.399 97.662c.13 4.066.6 9.414.657 12.626-1.84-3.561-1.584-9.539-.828-12.762l.17.136zM49.155 107.677c1.678 1.707.335 6.858-.093 2.315.05-.59-1.517-2.705.093-2.315zM57.259 58.517c3.52-4.283 6.471-9.027 9.547-13.58 2.259-4.983 7.011-8.31 8.823-13.535 2.411-3.433 4.563-7.05 7.437-10.105.776-2.287 5.182-7.647 2.595-2.587-1.574 2.748-3.846 4.93-5.6 7.568-2.69 3.181-4.26 7.08-6.553 10.5-2.992 2.967-5.312 7.58-7.321 10.416-1.867 3.023-6.371 9.196-6.984 10.149-.536.37-1.226 2.213-1.944 1.174z"/>
            <path d="M86.741 17.81c-1.603 3.896-3.734 7.588-4.86 11.732-1.503 4.196-2.546 8.452-4.332 12.552-1.837 4.625-3.21 9.416-4.242 14.272-.387 1.685.588 8.042-1.095 3.99-.205-2.59.446-4.947.902-7.293.891-2.912 1.76-5.976 2.686-8.923 1.047-2.459 1.946-5.1 2.976-7.58.883-2.33 1.177-5.093 2.402-7.346a45.554 45.554 0 0 1 2.977-7.735c1.072-.654 1.048-4.528 2.586-3.669zM58.184 59.943c1.465-1.287 8.243-.136 4.025.188-.568-.597-5.913 1.391-4.025-.188zM66.162 61.233c2.539.019 3.587 2.834.49.958-1.305.726-1.385-1.18-.49-.958zM68.289 55.869c2.16-6.402 5.02-12.534 7.55-18.757.92-1.709 3.876-7.83 2.265-2.393-2.574 4.037-3.958 9.187-5.727 12.6-1.615 2.179-1.852 7.953-4.088 8.55zM56.823 57.339c-1.474-1.232-2.777.11-3.172-.373-1.08-.642-2.464 4.707-.673 5.825 3.26 2.176-3.814.327-1.656-2.885-.625-3.039 2.995-4.123 3.259-3.247.167-1.304 4.372.17 2.242.68z"/>
            <path d="M54.072 59.187c-.345-3.912 4.44-1.964 1.839 1.055-4.274.782-.079-1.447-.096-.625.183-2.842-1.064-2.64-1.264-.338l-.296.036-.183-.127zM74.08 64.502c2.656 2.764 1.747 7.29 1.006 10.672-.973 3.7-3.38 8.564.04 11.48-3.432.199-2.938-5.442-2.016-7.764 1.333-3.444 1.998-6.955 1.798-10.661.599-1.273-2.852-3.595-.828-3.727z"/>
            <path d="M72.649 59.533c3.661-.57 1.56 7.469.229 4.127 2.548 1.672-.46-2.359.9-2.924-.478-.436-2.763-.449-1.129-1.203zM49.207 79.35c-.493-4.787 1.102-9.442 3.557-13.493 1.415-2.148 3.405-5.81 1.026-1.615-3.24 5.736-4.195 12.397-5.654 18.725.428 1.893-1.372 8.644-1.09 3.317.318-5.164 1.873-10.162 3.14-15.153 1.078-2.926 2.552-9.775 5.65-9.142-2.269 3.826-4.514 7.86-5.802 12.269-.591.93 1.008 5.783-.827 5.091zM72.604 48.901c-.629 1.726-2.028 10.204-3.066 8.172 1.263-2.108 1.007-7.711 3.066-8.172z"/>
            <path d="M55.085 62.786c-2.632 1.846-3.162 3.66-4.958 7.078-1.364 4.135-2.903 8.226-3.428 12.549-1.261 4.745-1.14 9.914-.633 14.741.562 3.543.821 7.059 1.937 10.483-.205 2.365 2.773 7.467.764 8.216-.84-3.598-1.219-7.512-2.532-11.053-.316-4.224-1.683-8.332-1.337-12.66-.561-4.276.764-8.22 1.366-12.299.627-3.62 2.156-7.01 3.177-10.53 1.124-2.89 2.934-4.194 3.845-6.205.417-.323 3.153-1.96 1.8-.32z"/>
        </g>
    </g>
</svg>
