<svg xmlns="http://www.w3.org/2000/svg" viewBox="0 0 198.4375 187.85416" height="710" width="750">
    <g stroke-width="1.267">
        <path d="M113.794 81.467s-6.055 12.11-18.164 13.624c-12.11 1.513-28.545-1.73-31.356-.433-2.812 1.298-7.137 4.541-7.137 4.541l3.677-9.947s6.487-3.893 11.677-4.109c5.19-.216 22.057.865 22.057.865s7.137-1.081 10.38-3.027c3.244-1.947 6.055-3.46 6.055-3.46z" fill="#917c6f" fill-rule="evenodd"/>
        <path d="M87.845 118.013s-9.299-8.65-12.543-14.272c-3.46-2.163-.383-19.36 1.298-22.274 1.677-2.908 6.27-8.001 6.27-8.001s-9.514 1.297-11.244 0c-1.73-1.298-4.757-5.406-4.757-5.406s-5.25 6.598-7.57 8.65c-5.622 4.973-11.46 3.243-11.46 3.243s12.326 4.974 15.353 9.515c3.028 4.541 4.542 17.084 4.542 17.084s7.568 3.892 9.73 7.568c2.163 3.677.866 4.758.866 4.758s-3.46 2.379-2.379 5.839c1.081 3.46 5.406 3.243 8.001 1.946 2.595-1.298 4.109-4.541 4.974-6.055.865-1.514-1.081-2.595-1.081-2.595zM99.306 46.651s-35.897 3.676-37.627 3.892c-1.73.217-10.38 1.082-10.38 1.082s17.948 1.297 24.436 1.73c6.487.432 23.787 1.946 23.787 1.946 4.225-.802 4.21-4.316-.216-8.65zM104.928 151.099s-2.378 6.055-2.811 8.217c-.432 2.163-.649 3.46-.649 3.46l13.84 8.218s-5.19-1.73-8.001-.649c-2.811 1.081-6.92 1.946-6.92 1.946-4.622-1.496-9.445-2.158-15.786-.216 0 0 3.46-6.92 6.704-7.352 3.243-.433 6.487-1.947 6.487-1.947l.865-10.596z" fill="#00c8e1" fill-rule="evenodd"/>
        <g stroke-width=".487">
            <path d="M52.683 52.137c.96.085 9.03-1.017 14.783-.9 3.037-.61 6.284-.97 9.452-1.327 3.875-.742 7.796-.977 11.692-1.627 3.046-.232 5.987-.817 8.908-1.431.916-.656 4.98-.688 1.025.544-2.145.851-6.302 1.128-9.221 1.798-7.074.55-14.124 1.873-21.2 2.62-5.169.418-10.416.622-15.614 1.143-.302-.163-.166-.798.175-.82zM56.344 53.008c4.975-.194 9.906-.425 14.828-.805 6.253-.748 12.707-.493 19.134-.539 4.632-.981 9.146.039 13.706.23.764 2.18-5.029.025-7.002.181-6.687.365-13.432.622-20.208.401-5.313.714-10.717.987-16.122 1.098-.396-.072-6.03 1.14-4.336-.566zM111.104 44.945c2.553 2.23.983 6.586-.991 6.454-1.102.73-5.126.849-5.792-1.856-1.702-3.186.025-3.382 1.115.002.805 2.969 4.619.734 5.154.984 1.643-.945.827-3.835.05-5.48-.136-.046.494-.272.464-.104zM93.864 46.112c-.325-3.031 3.794-4.273 5.71-.978-1.253-.498-3.599-1.804-5.002-.665.924-1.157.269 3.008-.708 1.643z"/>
            <path d="M90.155 53.004c3.397-.293 6.688.48 9.885.432 2.548-.08 5.234 1.164.91 1.136-3.405-.596-6.485-.688-10.235-.743-.777.631-1.27-.66-.56-.825zM100.663 54.593c3.315.989 6.368 3.004 8.894 5.409 2.616 3.63 2.243 8.156 2.557 12.332-.727 4.237-2.083 8.745-5.294 11.739-1.917 1.426-3.856 3.183-6.793 3.28-.685.258-4.679.522-6.449 1.084-4.223.125-8.58.453-12.801.019-1.347.433-5.772-1.31-3.205-1.493 2.237.86 5.524.788 8.26.854 4.507.122 8.841-.427 13.268-1.102 1.77.012 4.42-.992 5.66-2.013 2.058-1.21 3.386-3.372 4.598-5.645 1.249-3.184 2.417-6.649 1.656-10.134.212-4.246-1.268-9.175-5.548-10.982-.438-1.445-6.392-2.116-4.803-3.347zM57.455 97.333c-2.78 4.774-5.846 9.973-5.426 15.719.12 5.555-.176 11.087.993 16.538.65 3.01 2.361 5.658 4.044 8.29 1.988 3.032 4.575 5.662 8.04 6.914 4.123 2.838 8.968 4.373 13.736 5.83 3.15 1.426 7.936 1.357 11.814 1.27 7.816.368 15.542-1.285 22.818-3.972 3.194-.564 5.765-3.15 8.28-4.435 3.074-1.71 5.612-3.787 8.48-6.034 1.507-2.857 4.32-7.526 6.7-10.394-.334 2.836-3.429 5.926-5.181 9.24-1.512 2.722-3.619 3.782-5.744 5.453-1.59 1.007-3.285 2.123-5.291 3.33-2.961 2.278-6.725 3.948-10.605 4.724-8.85 3.392-18.505 3.186-27.804 2.756-6.469-1.808-12.974-3.9-18.69-7.484-3.607-1.67-6.137-4.778-8.198-8.126-1.892-2.61-2.898-5.51-3.546-8.61-.835-4.991-.62-10.11-.712-15.206-.516-4.862 1.86-9.1 3.787-13.335 1.07-1.75 4.629-7.703 2.505-2.468zM50.902 113.133c-.477 4.1.138 8.712-.394 12.579-1.503-3.081-.422-8.745-.312-12.679.206-.1.59-.187.706.1z"/>
            <path d="M100.218 42.053c2.849-1.091 6.35-1.004 9.635-.573 3.244.921 6.29 3.477 9.01 5.838 2.946 1.724 5.195 4.437 6.507 7.45.956 2.138 1.643 4.384 3.054 6.407 1.672 3.232 2.335 5.623 3.908 8.93.824 2.708 1.407 4.99 2.293 7.776 1.024 3.502 1.755 7.022 2.36 10.565.654 1.74.935 3.535 1.323 5.767.602 2.52.55 5.216.852 8.382.26 3.214.256 6.42-.226 9.502-.985 4.039-.6 8.3-1.209 12.394-.658 2.144-1.394 5.998-2.845 6.679-.836-.887 1.035-2.155 1.299-4.214.575-2.188 1.245-4.514 1-7.462.142-2.904.678-5.587.938-8.418.61-2.561.26-6.288.057-9.703-.122-2.724-.078-4.857-.742-7.146-.49-3.42-1.642-6.755-2.164-10.305-.953-4.65-2.558-9.15-3.771-13.615-1.806-4.17-3.517-8.319-5.777-12.352-.948-2.884-2.257-5.393-4.33-7.62-3.638-2.771-7.172-6.068-11.089-7.974-2.495-.498-7.117-.207-8.487-.095-.628.341-2.376 1.193-1.596-.213z"/>
            <path d="M140.493 98.498c.658 6.34.934 12.815.45 19.195-1.545 1.767-.5 8.977-1.996 7.613-.546-3.04.933-6.235 1.104-8.61.454-5.59.428-11.4-.419-16.978-.67-.536.297-1.988.861-1.22zM138.022 88.332c.742 4.48 1.435 9.863.704 14.002-1.13-3.533-.46-8.483-1.187-12.494-.28-.511-.649-2.098.483-1.508zM76.522 117.719c-.325 2.683-1.817 5.76 1.813 7.01 2.458 1.295 5.676.192 6.365-.66 1.764-1.717 3.927-5.01 2.407-6.982-3.665-3.889 3.992 1.036.987 3.757-.949 1.554-1.926 3.266-3.27 4.064-1.082 1.18-5.427 2.018-7.703.12-2.732-1.13-2.012-4.57-1.56-6.47-.427-.62.57-1.548.96-.84zM86.317 72.622c-3.36 2.602-7.834 2.87-11.992 2.957-2.986.29-4.28-2.08-6.014-4.276-.534-1.178-3.374-4.946-.944-3.086 1.925 1.862 2.64 5.353 5.183 6.133 3.167.988 7.254.167 10.427-.917 1.284.743 2.812-2.585 3.34-.811z"/>
            <path d="M67.2 68.944c.547 3.958-3.899 6.596-5.614 8.545-1.476 1.221-3.94 2.642-6.889 3.459-.63.192-5.068 1.27-3.982-.222 1.552.31 4.016-.604 6.51-1.488 1.014-.533 2.914-1.546 3.552-2.102 1.724-2.22 5.224-3.654 5.477-7.125-.593-.591.489-1.861.947-1.067z"/>
            <path d="M51.198 80.591c3.959 1.794 8.127 3.919 10.446 7.768 2.268 2.431 3.343 6.062 4.619 8.8.63 2.19.97 4.4 1.24 7.059-.657 2.975 2.449 2.1 3.773 3.68 1.66.987 3.595 3.001 5.02 4.958.762 2.136 2.735 3.92 2.657 5.769-1.743-.446-2.007-3.867-3.485-5.331-1.701-2.452-4.015-4.774-6.53-5.741-2.609.144-2.23-3.455-2.706-5.51.104-4.069-2.303-7.68-3.861-11.447-2.628-3.135-5.227-7.043-9.554-8.116-.514-.268-3.457-1.411-1.619-1.889zM85.016 74.364c-3.658 1.59-5.354 5.673-7.264 8.853-1.868 5.704-3.638 11.529-3.097 17.608-1.257 2.476.81 3.688 1.809 5.482 1.585 2.354 3.294 4.082 5.14 6.006 1.297 1.784 1.622 3.416 3.014 5.02-.169 5.022-1.129-1.14-2.497-2.385-1.17-2.928-4.045-4.41-5.659-7.226-1.198-2.15-3.925-3.965-2.69-6.804-.005-3.714-.142-7.276 1.102-10.603.23-2.14 1.153-4.082 1.691-6.127.18-1.182 1.194-2.918 1.968-4.168 1.749-2.225 3.677-6.629 6.668-6.106.508.054-.366.473-.185.45zM98.565 153.816c-.403 2.466.758 7.689-1.043 8.51.408-1.96-.79-8.376 1.043-8.51zM97.208 163.032c-1.692.37-4.057 1.284-4.8 1.652-2.76.963-5.71 1.999-6.681 5.386-.445 2.314-3.778 3.855-1.551.946 1.14-1.925 2.162-5.086 4.795-5.732 2.613-1.278 5.077-2.193 8.141-3.093.341.059.416.708.096.84z"/>
            <path d="M83.638 171.328c3.416-1.86 4.78-1.417 8.85-1.707 1.845.673 4.098.159 5.534 1.478 2.173.305 2.727 3.398.094.965-1.232-1.051-3.677-1.115-5.72-1.611-2.929-.45-5.893.824-8.768 1.097l.01-.22zM101.505 171.171c2.91-1.467 6.128-1.547 9.353-1.554 1.177.218 6.783 1.943 2.799 1.756-2.845-1.442-6.693-.919-10.295-.133-.415-.068-2.605 1.719-1.857-.069zM114.03 170.103c-2.735-2.568-5.927-4.54-9.545-5.709-1.286-.694-6.192-1.79-2.2-1.755 3.167 1.123 6.75 2.346 9.654 4.651.352.602 4.263 2.4 2.091 2.813zM102.39 159.462c.256-1.883 2.002-8.433 3.104-6.776-.73.831-.863 2.447-1.335 3.475-1.151-.887.096 4.746-1.768 3.301z"/>
            <path d="M99.784 165.978c1.695 1.884.564 9.658.079 3.445.248-.89-2-3.898-.08-3.445zM106.982 151.66c-1.85 1.725-1.554 10.311-3.336 8.457.833-1.805 1.101-9.028 3.336-8.458zM132.486 129.628c-2.191 2.845-3.524 6.009-6.198 8.405-.565.033-7.024 6.09-4.701 2.388 2.23-1.606 3.888-2.431 5.604-4.503 1.938-1.801 2.666-5.348 4.978-6.674l.256.164.061.22zM55.06 131.679c1.332 2.753 3.061 4.253 4.718 5.939 2.482 1.65 2.853 6.11.34 1.75-1.915-2.454-4.69-4.383-5.765-7.447.146-.191.462-.455.707-.242zM97.94 41.956c3.477 1.532-2.796 1.115 1.757.622 1.562 1.161 5.845.723 6.932.255 1.044-.03 6.261-.64 4.06.106 2.503-2.765 4.047 1.92 1.374 1.545-.38-.3-6.514.98-9.249.908-1.803-.032-5.43-.585-3.57-1.25-1.774 1.33-4.525-1.92-1.304-2.186zM104.116 46.732c.342 3.26-2.076-.808.002 0z"/>
            <path d="M104.317 45.26c2.797-3.479 3.627-.787.28.402l-.239-.182-.041-.22zM77.535 89.099c1.377-.053 6.958-1.257 4.565.557-1.749-1.05-3.726 1.34-4.77-.438l.205-.119zM112.823 80.866c-1.727 2.381-3.327 4.854-5.012 6.076-2.286 1.822-3.779 3.103-6.442 4.403-1.914.554-2.453.861-4.736 1.642-1.553.6-2.918 1.476-5.583 1.359-1.147.427-5.297.729-7.798 1.228-3.397-.76-6.845 1.218-8.263-.589 2.745-.313 6.383-.252 9.886-.532 3.494-.597 5.694-.64 8.736-1.172 1.82-.778 5.279-2.01 7.672-2.86 2.102-.927 2.675-1.564 4.534-3.052 1.12-.545 2.172-1.462 3.324-3.147.832.278 2.383-5.086 3.682-3.356zM62.792 97.561c-2.827 1.395-2.659.708-4.215 1.96-1.4 2.1-2.825 1.309-1.538-2.028.316-2.165 1.834-5.29 2.841-6.045 1.362-1.244 1.889.267.187.963-.958 1.485-1.43 2.722-1.9 4.05.116 2.154-1.93 5.256-1.197 3.28 1.472-1.17 3.463-2.76 6.026-2.668.322.334-.22.3-.204.488zM105.65 48.05c4.726-4.2 1.121 6.57 1.154 2.74 1.081.376 1.208-5.074-.96-2.348-.012.163-.352-.406-.194-.392zM105.714 48.693c-1.55 2.82-1.216-1.712 0 0z"/>
            <path d="M101.712 45.112c6.148 1.149-6.817.484-.61.136 2.118.173 6.798.951 1.921 1.117-3.306-.032-5.452-1.94-.579-1.161 4.015.035-2.184 1.844-.732-.092zM83.29 112.869c-.125 2.004 1.867 1.715 2.574 3.764-1.925.17-1.51-2.44-2.877-2.444-1.003-.21-.388-1.924.303-1.32zM78.334 120.323c-.918 2.194 4.091.474 1.721 2.135.313.123-4.71-1.611-1.72-2.135zM95.258 45.27c4.29-1.509-.483 4.48.756 1.512.602-1.593.545-.629-.939-1.077-.062-.153.026-.376.183-.435z"/>
        </g>
    </g>
</svg>
