<svg xmlns="http://www.w3.org/2000/svg" viewBox="0 0 21.166667 20.108333" height="76" width="80">
    <g fill="#333" stroke-width="1.087">
        <path d="M14.057 5.037c2.77-.41 4.778 3.893.914 3.281-1.895-.145-4.48.58-5.761-1.19-.636-1.242 1.51-1.66.312-.462 1.085 2.21 4.402 1.084 6.465 1.3 2.976-.888-1.312-2.496-1.93-2.93z"/>
        <path d="M9.923 5.131C8.637 3.181 12.194.22 12.015 3.406c-.907-1.73 2.754-1.76 1.844.456.44 1.76-.608 1.575-.35-.086.17-2.067-1.235-1.274-1.735-.316-.264-2.91-2.2.451-1.623 1.756z"/>
        <path d="M12.637 4.402c.386-1.08.99 1.143-.132.806-.1-.946.14-.617.132-.806zM11.291 4.31c.15-.867 1.163 1.31-.28.727.248-.682-.029-.576.28-.727zM9.96 4.308C8.191 6.053 7.64 8.78 6.877 10.953c-.385-1.766 1.163-4.154 1.99-5.931.117-.225.884-1.43 1.091-.714zM14.404 8.292c.787 1.295-.596 3.674.822 1.498 1.4-2.196 5.85-1.883 5.408 1.258-.339 1.97-2.599 4.517-4.326 4.324 2.14-.914 5.068-3.566 3.48-6.03-1.905-2.2-4.29 1.17-5.544 1.423.484-.605-.684-2.471.16-2.473zM16.572 15.468c1.197.28 2.396.578 3.625.675.175-.01.546.203.232.318-.213.113-.456.026-.678.076-.341.105-.518.447-.698.726-.185.14-.385-.078-.583-.078-.283-.042-.596.152-.61.455-.168.184-.456-.084-.676-.061-.257-.046-.382.192-.479.37-.29.057-.386-.3-.43-.518-.086-.361-.157-.796-.509-.997-.188-.195-.365-.402-.601-.542-.15-.09-.565-.384-.204-.463.254-.033.402.208.594.329.482.386.939.864 1.102 1.477-.022.16.23.507-.038.522-.318-.02-.063-.35.09-.428.316-.17.82-.123 1.086.1.237.171-.217.421-.29.216.092-.505.511-.871 1.028-.804.212.031.445.151.523.358-.146.19-.461-.051-.287-.261.14-.266.354-.506.621-.65.21-.105.447-.047.663-.145.343.022.003.408-.21.335-.269-.047-.534-.12-.81-.136-.908-.14-1.79-.397-2.684-.602-.009-.122.077-.301.223-.272z"/>
        <path d="M17.9 10.8c-.593.983-1.757 3.1-2.707 2.913 1.057-.618 1.886-2.853 2.707-2.913zM6.753 10.859c-.047-2.446-2.684-5.1-4.895-2.901-1.885 2.166-.839 5.499 1.848 6.4.469.749 4.006 2.107 1.494 1.442C3.468 14.457.568 13.546.533 10.949c-.343-2.525 2.215-5.11 4.68-3.795.794.584 2.472 3.352 1.54 3.705z"/>
        <path d="M6.35 15.841c-.771.824-1.67 1.52-2.592 2.165-.373.166-.74.387-1.154.426-.223.072-.425-.357-.104-.255.535.022 1.122.051 1.56.397.154.108.335.431.287.523-.26-.173.036-.409.24-.425.374-.083.796-.099 1.14.092.122.103.274.273.328.385-.119-.053-.31-.04-.135-.18.276-.225.66-.258 1.002-.24.186-.025.461.163.193.3-.357-.583-.378-1.307-.278-1.964.03-.248.14-.478.158-.726.019-.25.387-.287.456-.05.087.257-.207.402-.247.633-.197.633.126 1.27.09 1.909-.01.156-.048.348-.238.23-.44-.058-.837.188-1.228.35-.183-.303-.534-.505-.893-.447-.254.03-.495.125-.728.226-.358-.386-.876-.583-1.383-.684-.212-.072-.447.065-.632-.082-.203-.188.215-.282.348-.332.356-.118.744-.167 1.054-.395.828-.51 1.555-1.164 2.262-1.828.06-.24.473-.357.495-.028zM4.572 11.083c.475 1.05 3.7 2.705 1.11 1.624-.243-.243-2.06-1.557-1.11-1.624zM13.4 10.172c-.364 1.901-.542 4.677-1.16 6.05-.07-1.957.555-4.383.99-6.172zM11.343 10.414c-.341 1.715.042 4.79-.458 5.706-.233-1.635-.262-4.816.458-5.706zM9.056 10.272c.427 1.456 1.264 5.502.29 5.76.399-1.782-.68-4.684-.29-5.76zM9.832 16.232c-.156.72-.665 1.314-1.264 1.718-.192.13-.394.245-.603.344-.153.065-.35-.075-.146-.19.175-.131.438-.224.637-.093.088.115.242.137.345.241.154.137.317.288.383.489-.005.13-.349-.021-.168-.09.208-.18.51-.091.724.03.14.083.291.173.38.314-.04.048-.18-.063-.034-.014.137.048.259-.043.38.003.181.006.113.237-.007.292-.044.033-.171.08-.045.048.018-.017-.187-.03-.257-.014-.138.01-.318-.057-.396-.164-.047-.135-.17-.29-.329-.217-.174.06-.359.108-.544.078-.035-.29-.292-.486-.55-.58-.191-.084-.411-.11-.584-.234-.147-.142.036-.269.174-.292.715-.313 1.331-.923 1.534-1.69 0-.208.324-.164.369-.004v.025z"/>
        <path d="M11.226 16.249c.6 1.068-1.089 4.388-.408 1.696.372-.369-.313-1.967.408-1.696zM12.594 15.994c.43.602 1.141.944 1.859 1.056.231.037.466.054.7.053.12.05.414.15.26.31-.22.172-.538.248-.658.522-.088.165.129.4-.089.506-.248.074-.493-.081-.742-.066-.103.09-.056.317-.21.408-.197.154-.458.056-.683.04-.147-.024-.34.03-.37.198-.009.18-.215.387-.373.208-.144-.093-.053-.264.091-.143.063.032.206.116.06.069-.163-.01-.278-.199-.149-.325.203-.238.523-.367.833-.368.173-.007.43.117.44.284-.076.093-.318.16-.243-.038.105-.28.313-.53.58-.667.19-.123.37.027.55.062.193-.013.31.235.09.309-.216.116-.234-.188-.139-.31-.004-.161-.024-.358.102-.496.143-.18.361-.326.597-.332.176.025.034.283-.102.182-.702-.097-1.438-.211-2.03-.629a2.175 2.175 0 0 1-.415-.383c-.144-.059-.313-.22-.245-.389.058-.097.192-.083.286-.061z"/>
        <path d="M11.6 16.758c.555.763 1.209 3.375.162 1.379.13-.357-.932-1.51-.163-1.38zM11.21.904c-.515.06-.75.39-.826.326.048-.174.315-.733 1.05-.456.005.038.073.073-.004.116zM6.109 17.043c-.432.257-.789.633-1.132.997-.282.386-.46-.182-.067-.307.351-.294.667-.694 1.075-.887.063.03.174.117.124.197zM6.279 17.415c-.228.261-.073.927-.43.99-.29-.22.16-.805.224-1.089.068-.009.207.008.206.1zM10.043 17.274c-.144.24-.568.735-.671.75.04-.192-.122.43-.268.063.123-.37.552-.602.744-.934.068 0 .205.028.195.12zM10.466 17.494c-.251.255-.13.827-.426.956-.31-.198.12-.809.223-1.067.068-.005.208.017.203.11zM12.502 17.371c.132.198.77.793.218.74-.026-.238-.816-.766-.218-.74zM12.962 17.148c.155.194 1.02.457.499.632-.1-.144-1.136-.527-.499-.632zM16.925 16.374c.05.278.9.6.347.707-.142-.103-.978-.79-.347-.707zM17.184 16.209c.23-.056.903.326.62.538-.244-.368-.716-.299-.62-.538z"/>
    </g>
</svg>
