<svg xmlns="http://www.w3.org/2000/svg" viewBox="0 0 34.395834 34.395832" height="130" width="130">
    <path d="M1.767 7.146c.856-2.249 2.328-4.34 4.28-5.75 1.3-.813 2.857 0 3.571 1.205.931 1.302 1.817 2.64 2.86 3.854 1.067 1.626.429 4.02-1.287 4.924-1.673 1.197-1.99 3.941-.397 5.343 1.396 1.731 2.56 3.756 4.552 4.885 1.258.94 2.542 2.566 4.302 2.057 1.1.048 2.012-1.086 2.884-1.984.93-1.23 2.38-2.24 3.975-1.61 2.002.627 3.383 2.322 5.153 3.346 1.644 1.227 1.463 3.861-.1 5.076-1.043 1.027-2.134 2.078-3.549 2.592-1.856.771-3.893 1.282-5.897.818-3.697-.663-6.844-2.836-10.106-4.558-2.099-1.918-4.233-3.81-6.317-5.736-1.512-1.877-3.174-3.85-3.542-6.315-.919-1.88-.57-4.044-.702-6.055-.184-1.128 1.54-2.844 1.3-.812-.974 4.434.594 9.222 3.718 12.462 1.12 1.316 2.657 2.18 3.81 3.474 1.45 1.502 3.113 2.804 5.042 3.628 3.067 1.68 6.457 3.58 10.087 2.9 1.634-.52 3.52-.883 4.603-2.32 1.202-.861 2.43-2.683 1.312-4.071-1.08-.802-2.199-1.571-3.251-2.436-1.008-.694-2.366-1.58-3.597-.936-1.373 1.206-2.369 2.993-4.265 3.461-1.98.654-3.974-.59-5.302-1.979-2.525-1.658-4.228-4.247-5.884-6.707-.93-1.94.092-4.368 1.89-5.41 1.283-1.237 1.422-3.495-.177-4.507C9.59 4.632 8.96 2.651 7.16 2c-1.572.482-2.534 2.193-3.49 3.388-.291.653-.9 3.216-1.904 1.758z"/>
</svg>
