<svg xmlns="http://www.w3.org/2000/svg" viewBox="0 0 34.395834 34.395832" height="130" width="130">
    <path d="M3.082 4.3C4.688 1.519 8.198.979 11.128.834c4.37-.208 8.738.224 13.107.18 2.406.216 5.03.98 6.448 3.089 1.535 1.715 2.56 3.86 2.654 6.181.217 3.673-.32 7.342-.275 11.018-.11 1.899.015 3.825-.185 5.707-.82 2.003-2.596 3.447-4.014 5.017-1.664 1.185-3.8.971-5.726 1.234-2.186.174-4.365-.142-6.5-.571-2.106-.127-4.196.487-6.303.169-1.977.184-3.77-.59-5.418-1.578-1.724-.979-3.145-2.744-3.19-4.794-.37-1.995-1.031-4.036-.626-6.092.074-1.744-.283-3.478-.181-5.226.044-2.132.749-4.21.501-6.355-.04-1.404.085-3.063 1.21-4.038 1.439-.92 1.833 1.008.618 1.649-.772 1.814-.01 3.851-.469 5.739-.698 2.612-.247 5.3-.228 7.952-.392 2.028.304 4.017.569 5.98.053 1.839 1.347 3.391 2.985 4.106 1.654 1.274 3.749 1.177 5.716 1.256 1.891.113 3.755-.577 5.642-.097 2.09.376 4.224.79 6.342.366 1.79-.181 3.91-.096 5.055-1.763 1-1.46 2.967-2.59 2.673-4.607-.026-2.666.134-5.337.174-8.007.072-2.862.57-5.794-.114-8.617-.35-1.94-1.808-3.433-3.095-4.82-2.682-1.905-6.12-1.342-9.209-1.53-4.198-.12-8.556-.652-12.614.72-1.365.117-3.07 3.82-3.706 1.45z"/>
    <path d="M25.937 7.648c-1.533-.31 1.157 1.953.283.34-1.062-.113-1.802-1.406-.3-1.595 1.978-.293 2.842 3.033.86 3.588-1.649.422-3.512-1.289-2.623-2.955.318-1.615 3.427-1.138 2.648.514-.237.207-.586.168-.868.108zM11.374 10.903a8.276 8.276 0 0 1 5.185-2.299c2.575-.31 5.332.835 6.917 2.883 1.331 2.27 2.554 4.994 1.84 7.67-1.075 2.958-3.649 5.538-6.863 5.975-3.549.777-7.69-.837-9.337-4.163-.8-1.738-.711-3.722-.496-5.574.27-1.365.95-2.692 2.063-3.555.343-1.514 3.281-.58 1.491.572-1.615 1.188-2.411 3.208-2.204 5.18-.062 1.763.516 3.637 2.05 4.65 2.95 2.468 7.84 2.065 10.313-.893 1.192-1.402 2.246-3.288 1.551-5.164-.506-1.748-1.087-3.746-2.63-4.855-1.547-1.17-3.591-1.598-5.469-1.124-1.736-.291-3.158 2.641-4.536 1.517-.13-.263-.104-.617.125-.82z"/>
</svg>
