<svg xmlns="http://www.w3.org/2000/svg" viewBox="0 0 34.395834 34.395832" height="130" width="130">
    <path d="M2.957 1.002C5.97.166 9.123.758 12.194.509c6.183.15 12.371.6 18.557.26 1.664-.071 3.174 1.253 3.075 2.965.144 2.535-.748 4.994-.682 7.533-.266 6.6 1.382 13.16.7 19.755-.604 2.031-3.044 2.297-4.833 2.32-3.616.401-7.256.307-10.87-.043-3.071-.305-6.166-.504-9.241-.142-1.884-.197-3.723.63-5.566.386-1.701-.508-2.402-2.39-2.224-4.013-.279-3.17.01-6.354-.217-9.522-.293-2.254-.436-4.542.023-6.786.368-3.025.472-6.118-.115-9.123C-.417 2.642 3.288.013 3.035 2.089.975 3.161 2.52 5.69 2.391 7.44c.14 4.294-1.084 8.578-.303 12.861.192 2.04.079 4.09.002 6.132.52 1.916-.473 4.354 1.279 5.812 2.097.582 4.18-.601 6.31-.31 3.13-.164 6.264-.108 9.375.273 3.181.271 6.395.423 9.567.027 1.797.2 4.378-.337 4.343-2.62a164.17 164.17 0 0 0-.725-11.23 49.96 49.96 0 0 1 .403-13.376c.949-2.564-2.105-3.666-4.115-3.052-7.852.322-15.707-.632-23.561-.178-.614-.16-3.092.688-2.009-.776z"/>
    <path d="M6.622 6.676c-1.75 1.476.355 4.74 2.426 3.694 2.088-.59 1.936-4.157-.316-4.326-.752-.142-3.244.854-2.075-.74 2.199-1.384 5.49.686 5.08 3.292-.338 3.047-5.226 4.1-6.607 1.26-.658-.903.015-4.813 1.492-3.18zM6.582 12.852c1.584.34 5.195-1.173 4.628 1.787-.376 1.986-.322 3.995-.075 5.99.22 2.409.53 4.833.294 7.254-1.362 1.593-4.071 1.114-5.77.545-1.224-1.465-.28-3.456-.577-5.158.198-2.832.984-5.622.796-8.478-1.019-1.227 1.55-2.544 1.182-.583.346 4.274-1.436 8.477-.66 12.745 1.126.799-1.5 2.22-.678 1.022 1.442-.767 4.726.748 4.597-1.863.116-3.96-1.015-7.927-.251-11.872-.913-1.075-4.05 1.033-3.642-1.302l.082-.046.074-.041zM14.188 12.247c1.573.301 3.52-.946 4.799.423.979.572-.35 2.397-.553 1.181 1.615-1.554 4.144-2.16 6.313-1.585 2.638 1.255 3.522 4.309 4.307 6.886.529 2.05.856 4.182.337 6.237.547 2.302-1.304 3.98-3.534 3.749-2.473.356-2.594-2.303-2.447-4.064-.202-1.994-.377-3.996-.25-6.004-.45-2.296-4.035-1.258-3.625.883-.3 2.31.102 4.66-.062 6.985-.078 2.559-3.377 1.855-5.093 1.765-1.764-.229-1.58-2.576-1.407-3.925.088-3.684.498-7.386.148-11.073.61-1.732 2.158.577 1.272 1.463.084 3.067-.156 6.146-.247 9.197.206 1.357-.646 4.03 1.684 3.304 1.978.439 3.098-1.17 2.512-2.923-.053-2.665-.463-5.775 1.534-7.894 1.639-1.465 4.128.12 4.304 2.09.168 2.079.114 4.174.363 6.253-.03.9.433 2.213.01 2.832 1.294-.916 3.555.717 3.661-1.557.161-1.844.49-3.681.055-5.524-.455-2.367-1.282-4.742-2.703-6.7-1.697-1.71-4.72-1.326-6.294.36-1.785 1.652-.957-2.516-3.056-1.327-.85.184-2.682.435-2.028-1.032z"/>
</svg>
