<svg xmlns="http://www.w3.org/2000/svg" viewBox="0 0 34.395834 34.395832" height="130" width="130">
    <path d="M17.85 33.247c-.195.086-1.254-.054-.369-.163-2.025.884-4.208.327-6.27-.006-3.085-.294-6.205-.043-9.283-.265-1.403-.209-1.33-3.033.108-1.445 1.731.904 3.769.09 5.634.416 2.406.048 4.83.182 7.173.75.955.038 3.535-1.166 3.296.427l-.142.148z"/>
    <path d="M.451 30.341c.112-3.43-.025-6.865.292-10.287.15-3.008.242-6.015.453-9.019.102-2.916-.333-5.847-.068-8.752C1.783.238 4.329.503 6.008.795c6.656.141 13.32.025 19.975.064 2.375-.228 4.76-.055 7.141-.08 1.492 1.793.512 4.22.537 6.308-.314 4.657-.403 9.334-.164 13.994-.072 3.298-1.235 6.67-.277 9.917.413 1.226-2.078 2.583-1.534.785.819-1.475-.506-3.453.068-5.157.322-2.615.744-5.237.489-7.88-.105-4.164.001-8.34.304-12.492.047-1.387 1.113-4.92-1.286-4.32-3.273-.15-6.539.24-9.813.077-5.962-.14-11.942.272-17.89-.283-2.08-.011-1.11 2.384-1.295 3.689-.031 2.893.303 5.791-.107 8.671-.139 2.274-.075 4.554-.312 6.824-.266 2.466-.062 4.934-.22 7.403.129.754.157 2.967-1.173 2.026z"/>
    <path d="M31.453 32.893c-1.459.36-3.096.388-4.7.468-1.061-.09-2.692.483-3.75-.372.974-1.54 3.138-.206 4.628-.814 1.374.102 3.2-.774 4.26.126-.033.265-.25.436-.438.592zM18.484 20.763c-.156 3.934-.51 7.892-.323 11.814-1.42 1.362-1.292-1.856-1.201-2.758.07-2.942.105-5.896.435-8.826.105-.473.784-.59 1.09-.23z"/>
    <path d="M16.979 21.422c-1.72.91-3.976-.966-3.158-2.823-.12-1.474-.005-4.676 2.428-3.69 1.182-.188 2.82.338 2.172-1.364-.158-2.15.2-4.415 1.616-6.12 1.424-2.098 4.17-2.215 6.458-2.318 2.515-.885 2.842 2.085 2.288 3.832.527 2.387-2.372 2.283-3.93 2.005-1.048-.05-.311 1.539-.69 2.416.093.92-.144 2.37 1.163 1.54 2.208-.386 3.98 1.514 3.362 3.663.283 1.655-1.192 3.224-2.762 2.184-.927.254-2.077-.133-2.406.231.171.76.672 2.639.674 3.938.097 1.939-.174 3.868-.282 5.8.684 1.042-.64 3.063-1.091 1.057-.338-1.992.43-3.985.24-5.998.445-1.842-1.485-4.237-.11-5.637 1.11-.59 2.876-.492 4.257-.401 1.088.316-.06.707.191-.32-.175-1.006.49-2.437-.137-3.1-1.568-.062-4.795.128-4.238-2.354-.21-1.747.2-4.351 2.522-4.193.55-.336 2.796.57 1.912.143-.115-1.259 1.386-4.174-1.01-3.704-1.632.259-3.55.05-4.886 1.165-1.512 1.412-2.229 3.523-1.93 5.567.585 1.934-.796 3.687-2.796 2.913-.543.31-2.086.39-1.721-.088.295 1.386-.528 3.828.263 4.54.727-.128 2.942-.11 1.6 1.116z"/>
</svg>
