<svg xmlns="http://www.w3.org/2000/svg" viewBox="0 0 34.395834 34.395832" height="130" width="130">
    <path d="M32.434 7.317c-1.863-1.02-2.842 1.593-4.406 2.082-2.205 1.36-3.78 3.602-6.222 4.607-1.382.854-2.317 2.413-3.965 2.818-.785-1.817 2.069-2.247 2.93-3.414 1.672-1.104 3.387-2.17 4.805-3.6 1.551-1.226 3.21-2.313 4.726-3.583.749-1.069 3.648-.123 2.305 1.027z"/>
    <path d="M17.306 16.669c-2.426-1.63-4.391-3.947-7.119-5.113C8.622 10.262 6.932 9.14 5.25 8.023c-.972-.98-3.075-1.516-3.186.434C.988 9.81.242 6.89 1.549 6.487c1.342-1.343 3.148-.356 4.326.647 2.479 1.72 4.937 3.471 7.549 4.986 1.48 1.092 2.75 2.422 4.23 3.506.382.377.1.893-.348 1.043z"/>
    <path d="M5.18 30.933c-1.35.467-3.485-.847-3.414-2.26C.64 25.24 1.194 21.537.732 17.995.7 15.123.928 12.237.569 9.377c.687-1.966 1.974.353 1.331 1.428-.048 4.52-.013 9.045.313 13.555.145 1.634.075 3.451.892 4.848.434 1.16 3.233-.102 2.074 1.725zM33.543 7.756c-.43 1.225-.12 2.526-.283 3.957-.085 4.267.108 8.54-.092 12.803.144 1.991.623 4.424-1.028 5.95-.568.816-3.516.656-2.242-.407 1.966-.305 2.861-2.281 2.225-4.034-.204-3.913.103-7.829-.027-11.744.113-1.937-.232-4.008.378-5.84-.432-.907.882-1.912 1.07-.685z"/>
    <path d="M29.988 12.963c.09 2.309.044 4.63.315 6.925-.142 3.113-.277 6.227-.25 9.336-.047 1.503-1.544.84-1.307-.388.213-1.539.393-3.056.24-4.605.122-2.636.237-5.282-.088-7.908.196-1.101-.605-3.374.588-3.75.2.079.372.22.502.39z"/>
    <path d="M29.473 13.205c-3.582 2.551-7.225 5.084-10.328 8.213-1.122 1.092-2.428-.35-.86-1.018 1.292-.935 2.6-1.877 3.644-3.092 1.829-1.528 3.87-2.776 5.733-4.26.634-.256 1.89-1.306 1.811.157z"/>
    <path d="M17.178 21.829c-3.448-2.835-6.97-5.608-10.73-8.018-.625-.029-2.56-1.823-2.61-2.234-.047-.375.147-.717.583-.676.14.013 1.9 1.41 2.089 1.514 1.702 1.4 3.715 2.373 5.358 3.854 1.684.83 2.802 2.355 4.355 3.318.762.414 1.966 1.382.955 2.242z"/>
    <path d="M5.823 13.02c-.086 4.099.108 8.201-.076 12.299.01 1.689.041 3.379-.039 5.067-2.06-.034-.877-2.65-1.09-3.923-.065-4.093.187-8.187-.01-12.277 0-.672.314-2.303 1.215-1.167z"/>
</svg>
