<svg xmlns="http://www.w3.org/2000/svg" xmlns:xlink="http://www.w3.org/1999/xlink" viewBox="0 0 37.041668 27.78125" height="105" width="140">
    <defs>
        <radialGradient r="9.195" fy="156.587" fx="30.049" cy="156.587" cx="30.049" gradientTransform="matrix(1.36246 -.45377 .12938 .29372 -68.331 180.665)" gradientUnits="userSpaceOnUse" id="j" xlink:href="#a"/>
        <linearGradient id="a">
            <stop offset="0" stop-color="#da571f"/>
            <stop offset=".5" stop-color="#f8e73c"/>
            <stop offset="1" stop-color="#da5920"/>
        </linearGradient>
        <linearGradient gradientTransform="matrix(.85242 -.27573 .3171 .74122 -82.95 104.038)" y2="154.763" x2="30.563" y1="158.677" x1="30.49" gradientUnits="userSpaceOnUse" id="i" xlink:href="#b"/>
        <linearGradient id="b">
            <stop offset="0" stop-color="#f8e73c"/>
            <stop offset="1" stop-color="#da571f"/>
        </linearGradient>
        <radialGradient gradientUnits="userSpaceOnUse" gradientTransform="matrix(1.2366 -.01224 .00296 .3145 -34.056 164.238)" r="9.195" fy="156.587" fx="30.049" cy="156.587" cx="30.049" id="h" xlink:href="#a"/>
        <linearGradient gradientTransform="matrix(.7709 0 0 .79084 -19.627 87.987)" gradientUnits="userSpaceOnUse" y2="154.763" x2="30.563" y1="158.677" x1="30.49" id="g" xlink:href="#b"/>
        <linearGradient gradientTransform="matrix(.7709 0 0 .79084 -19.627 87.987)" gradientUnits="userSpaceOnUse" y2="168.931" x2="30.243" y1="170.27" x1="24.762" id="f" xlink:href="#c"/>
        <linearGradient id="c">
            <stop offset="0" stop-color="#c87137"/>
            <stop offset="1" stop-color="#c6a923"/>
        </linearGradient>
        <linearGradient gradientTransform="matrix(.7709 0 0 .79084 -19.627 87.987)" gradientUnits="userSpaceOnUse" y2="169.879" x2="15.967" y1="167.51" x1="20.396" id="e" xlink:href="#d"/>
        <linearGradient id="d">
            <stop offset="0" stop-color="#c6a923"/>
            <stop offset="1" stop-color="#c87137"/>
        </linearGradient>
    </defs>
    <path d="M19.922 26.386c1.724-2.4 2.682-5.23 3.576-8.018 1.277-1.09 2.562.35 2.769 1.615.49 1.51 1.067 3.2 2.6 3.944.7.302 1.797 1.325.34.999-2.402-.367-3.95-2.597-4.718-4.734-.988-.891-.337-3.12.699-1.76-.804 2.803-1.944 5.537-3.528 7.986-.436.67-1.319.63-1.738-.032z" fill="#465d25"/>
    <path d="M19.282 26.007c1.885-5.842-1.981-18.948.117-24.686.638-1.375 7.305 4.295 11.516 6.337C28.25 7.43 20.239 2.3 20.258 3.818c-.283 5.506 1.559 16.99.67 22.454-.45.498-1.38.52-1.646-.265zM22.35 26.386c1.16-3.07 2.24-6.264 4.336-8.846.365-1.318 1.788-2.866 3.177-2.332 1.44.715 1.445 1.138 3.223 3.337-1.725-.443-4.7-3.655-3.573-2.784-.696.785-2.164 2.049-2.548 3.757-1.285 2.14-2.114 4.511-2.854 6.883-.319.609-1.504.69-1.76-.015zM15.366 25.953c.644-3.936-1.298-7.615-2.752-11.138-.91-1.948-10.07-4.323-11.697-5.55 3.894.556 9.68 2.091 10.708 2.819 1.613.834 2.682 2.387 3.281 4.066.842 2.417 2.092 4.743 2.226 7.35.215 1.204.256 3.817-1.635 2.67z" fill="#465d25"/>
    <path d="M12.667 24.932c-.24-2.304-2.004-4.366-4.306-4.799-1.616-.59-3.162-1.372-4.818-1.855 1.986-.587 3.7.965 5.537 1.429 2.047.674 4.534 1.65 5.036 4.014.868 1.109-.522 2.524-1.449 1.21zM16.974 24.932c.367-6.016-1.578-11.829-3.219-17.525-.645-3.318-4.15-5.291-4.22-6.36 1.786.277 4.931 4.365 5.352 5.278a37.068 37.068 0 0 1 1.667 5.006c1.153 4.02 2.032 8.142 2.244 12.324.29 1.208-.73 2.61-1.824 1.277zM24.06 24.572c1.505-1.531 2.636-3.654 4.744-4.426 2.04-.395 4.203-.166 6.1.686-.896 1.017-2.269-.449-3.33-.616-.723-.078-1.339-.294-.261-.236.907.073-1.375.059-1.668.578-1.729 1.078-2.689 2.982-4.172 4.311-.46.364-1.144.236-1.412-.297zM20.084 23.07c1.33-4.566 2.037-9.28 2.746-13.97.513-2.016 5.682-6.18 7.058-7.584-.326 1.599-1.855 2.76-2.756 3.92-2.102 1.449-2.906 4.04-3.187 6.46-.527 3.043-.883 6.126-1.7 9.111.112 1.088-.848 3.688-2.16 2.063z" fill="#465d25"/>
    <path d="M-11.01 217.528s4.169-.61 5.161-1.059c.993-.448 2.78-1.14 2.78-1.14-.236-.194-.968 1.633-.318 3.095.127 1.222 2.045 4.114 2.501 4.236.16.123 1.35 2.648.834 3.544-.516.896-1.061 1.254-1.628 1.304-1.169.102-3.176-.611-3.851-1.426-1.026-1.531-2.803-4.92-3.057-5.621-.51-1.797-.948-2.134-2.422-2.933z" fill="url(#e)" fill-rule="evenodd" transform="translate(21.9 -201.237)"/>
    <path d="M-.647 215.98s.953 1.263 1.111 1.915c.16.651.08 1.262-.238 1.873-.317.611-.715 2.567-.715 3.015 0 .448-.476 4.154 0 4.888.477.733 1.033 1.71 2.82.488 1.786-1.222 2.104-1.792 1.905-3.258-.198-1.467-.516-3.177-.079-4.847.437-1.67 2.224-4.074 2.224-4.074z" fill="url(#f)" fill-rule="evenodd" transform="translate(21.9 -201.237)"/>
    <path d="M21.103 14.663c1.086.841 2.144 2.45 1.279 3.814-.952 1.766-.79 3.852-.75 5.796-.716 1.33-.023 3.507 1.73 2.765 1.429-.248 2.828-1.677 2.396-3.247-.226-1.297-.817-2.72-.141-3.982.45-1.338.476-2.912 1.494-3.979-.018-.916 1.698-.69.672.054-1.187 1.176-1.22 2.982-1.758 4.487-.366 1.187.12 2.336.38 3.47.245 1.792-1.15 3.472-2.848 3.757-1.438.454-3.424-.477-2.693-2.266.45-1.36.029-2.776.199-4.172a6.818 6.818 0 0 1 1.02-3.264c.645-1.237-1.626-2.363-1.043-3.225l.063-.009z"/>
    <path d="M18.727 14.895c-.684 1.665.373 3.353 1.185 4.741.368.37 1.651 1.991.666 1.846-1-1.079-1.684-2.444-2.3-3.778-.372-.5-.711-3.849.449-2.809zM11.043 16.288c1.628-.017 2.257 1.814 2.641 3.142.585 1.556 1.643 2.864 2.267 4.4 1.074 1.14 2.514 2.203 4.14 2.03 1.394.194-.003 1.18-.716.652-1.394-.303-2.7-1.088-3.68-2.135-.928-1.487-1.711-3.068-2.532-4.615-.28-1.313-.84-2.723-2.226-2.998-.116-.154-.046-.378.106-.476z"/>
    <path d="M3.21 216.143c-4.22.019-6.978-.85-7.072-2.558-.093-1.707 2.512-3.615 6.73-3.672 4.219-.057 7.368 2.655 7.539 4.328-.016 1.675-2.976 1.883-7.197 1.902z" fill="url(#g)" fill-rule="evenodd" transform="translate(21.9 -201.237)"/>
    <path d="M3.323 213.862c6.453.023 5.739-2 6.472-1.059.477.652 1.588 2.281-.754 2.933-2.64.734-9.053.489-10.482-.04-1.43-.53-2.462-1.264-2.303-2.526.158-1.263.675-1.548 1.23-1.874-.529 1.078 2.717 2.2 5.837 2.566z" fill="url(#h)" fill-rule="evenodd" transform="translate(21.9 -201.237)"/>
    <path d="M22.288 8.38c2.812-.258 5.85-.144 8.295 1.529 1.06.882 2.177 2.032 1.914 3.511-.555 1.398-2.224 1.523-3.488 1.657-2.73.169-5.482.103-8.207-.12-.571.069-2.23-.806-.846-.884 2.2.756 4.545.396 6.819.517 1.41-.051 2.892.03 4.23-.482 1.426-.661.891-2.08-.038-2.957-1.37-1.666-3.529-2.235-5.518-2.376-1.064-.069-2.13.079-3.185.136-.25-.077-.14-.422.024-.531z"/>
    <path d="M-6.313 215.984c-4.66 1.527-8.057 1.698-8.845.132-.788-1.566 1.566-3.88 6.208-5.442 4.641-1.562 7.662-3.12 9.197-.676.733 1.942-1.9 4.459-6.56 5.986z" fill="url(#i)" fill-rule="evenodd" transform="translate(21.9 -201.237)"/>
    <path d="M-7.102 213.806c7.144-2.287 4.987-5.516 6.176-4.896.788.44 2.527 1.106.5 4.281-2.039 3.194-9.417 4.022-11.21 4.037-1.793.015-3.506-.1-3.837-1.34-.33-1.24.523-1.692 1.007-2.196-.153 1.2 3.768.887 7.364.114z" fill="url(#j)" fill-rule="evenodd" transform="translate(21.9 -201.237)"/>
    <path d="M13.786 8.745c2.32-.162 5.133-2.02 7.489-1.114 1.517.728 1.704 2.89.886 4.233-.884 1.603-2.658 2.343-4.235 3.019-2.937 1.068-6.066 1.795-9.195 1.586-1.169-.086-2.743-.788-2.584-2.228.289-1.864 1.756-2.782 3.15-3.71 1.36-.829 3.173-1.52 4.718-1.89.854 1.163-2.191.759-2.69 1.417-1.787.878-3.001 1.791-4.336 3.325-.862 1.273.465 2.561 1.733 2.498 2.065.22 4.136-.219 6.147-.667 2.332-.57 4.781-1.367 6.483-3.186.825-1.03 1.112-2.912-.144-3.724-1.497-.87-3.179.028-4.661.467-.455.153-3.065 1.004-2.761-.026z"/>
    <g fill="#f1d129" stroke-width="1.281">
        <path d="M13.181 16.974c.076.084.149.17.22.255.048.049.078.117.136.154a.404.404 0 0 1 .123.165c.016.027.008.015.023.036.025.034-.068.107-.093.073-.028-.043-.017-.021-.036-.065a.311.311 0 0 0-.088-.113c-.063-.05-.105-.116-.155-.179-.064-.09-.142-.17-.219-.25-.026-.032.063-.108.09-.075zM13.816 16.776c.067.104.14.207.231.29.064.058.135.107.197.167.051.05.077.112.104.176a.517.517 0 0 1 .047.218.832.832 0 0 0 .027.221.188.188 0 0 0 .093.11c.036.021-.023.126-.059.105a.318.318 0 0 1-.144-.178.767.767 0 0 1-.028-.248c-.01-.06-.01-.125-.042-.178a.447.447 0 0 0-.076-.14c-.063-.06-.134-.111-.197-.17a1.926 1.926 0 0 1-.249-.308c-.023-.035.073-.1.096-.065zM14.198 18.252a.977.977 0 0 0-.01.336c.019.074.074.123.125.175.052.05.094.11.13.171.02.038-.085.095-.105.057a.434.434 0 0 0-.11-.148.474.474 0 0 1-.15-.234 1.186 1.186 0 0 1 .006-.372c.005-.04.119-.026.114.015z"/>
        <path d="M14.053 17.809c.048.119.087.242.136.36.038.098.087.19.152.272.035.044.017.022.056.065.028.031-.057.113-.086.082-.043-.05-.022-.024-.062-.077a1.14 1.14 0 0 1-.166-.296c-.043-.12-.083-.243-.137-.359-.016-.039.091-.086.107-.047zM13.895 17.183c.058.108.126.21.198.31.023.035-.074.102-.098.067-.06-.108-.14-.202-.196-.311-.023-.035.073-.101.096-.066zM14.445 16.608c.007.147.03.292.068.433.032.128.085.248.14.366.05.104.106.205.163.305l.02.05c.015.038-.09.083-.106.045l-.015-.042c-.051-.104-.121-.197-.16-.306a1.894 1.894 0 0 1-.15-.386 2.792 2.792 0 0 1-.075-.45c-.005-.042.11-.057.115-.015zM15.044 18.997c.027.13.05.262.082.391.03.11.063.22.112.322.02.06.008.033.036.081.019.036-.08.092-.1.055-.032-.058-.019-.028-.041-.09a2.113 2.113 0 0 1-.113-.339c-.031-.129-.057-.258-.085-.388-.01-.04.098-.071.109-.032zM14.607 19.649c.034.112.088.21.165.295.028.03-.055.11-.083.08a.877.877 0 0 1-.192-.343c-.01-.04.099-.072.11-.032zM14.714 18.618a1.417 1.417 0 0 0-.009.416c.005.054.021.106.031.16.007.042-.106.063-.114.022l-.031-.166c-.01-.15-.011-.297.008-.446.005-.042.12-.027.115.014zM14.197 19.148a.6.6 0 0 0 .051.368l.024.035c.024.033-.068.102-.092.069l-.034-.053a.731.731 0 0 1-.062-.434c.005-.04.118-.026.113.015zM13.54 17.89a2.398 2.398 0 0 1 .11.537c.006.042-.109.06-.115.019l-.015-.15a1.684 1.684 0 0 0-.088-.36c-.016-.038.091-.085.107-.047zM12.856 16.649c.008.101.023.207.1.278.03.03-.05.115-.08.086a.539.539 0 0 1-.133-.35c-.005-.04.108-.055.113-.014zM13.456 16.485c.032.13.065.262.144.371.024.033-.067.103-.09.07a1.319 1.319 0 0 1-.167-.415c-.01-.041.104-.067.113-.026z"/>
        <path d="M14.175 16.482c.085.089.187.155.283.23.072.073.093.167.101.266.006.098.018.195.037.291.012.082.039.163.068.24.014.04-.095.08-.108.04-.03-.084-.062-.168-.075-.257-.016-.101-.034-.202-.035-.305-.007-.07-.015-.13-.064-.184-.092-.085-.202-.146-.289-.237-.029-.03.053-.114.082-.084zM15.235 18.04c-.01.156.016.31.056.459.031.121.089.233.14.347.018.036-.082.09-.1.053-.072-.14.021.047-.044-.102-.04-.089-.086-.175-.104-.272a1.889 1.889 0 0 1-.063-.484c0-.042.115-.042.115 0zM14.921 18.278c.006.064.012.127.025.19.006.04-.106.06-.112.019a2.016 2.016 0 0 1-.026-.195c-.005-.04.108-.055.113-.014zM15.477 19.826c.02.137.053.27.098.402a.296.296 0 0 0 .087.134c.032.026-.04.118-.072.091a.409.409 0 0 1-.118-.184 2.53 2.53 0 0 1-.108-.429c-.005-.04.108-.055.113-.014zM14.768 20.076c.068.12.14.236.201.36.052.102.117.195.172.295.04.084.095.159.157.228l.026.024c.03.03-.052.117-.082.087l-.03-.033c-.064-.076-.128-.152-.167-.245a3.746 3.746 0 0 1-.172-.302c-.064-.118-.134-.233-.199-.35-.022-.034.072-.098.094-.064zM15.474 20.408c.002.147.05.285.11.417.053.112.133.203.217.292.03.027-.047.113-.077.085a1.081 1.081 0 0 1-.238-.33 1.223 1.223 0 0 1-.128-.464c0-.042.116-.042.116 0zM14.684 20.477a.947.947 0 0 0 .114.379c.034.047.015.027.056.06.03.028-.045.116-.075.089-.059-.054-.031-.024-.082-.09a1.319 1.319 0 0 1-.128-.423c-.005-.041.11-.056.115-.015zM15.764 22.047c.06.138.131.269.205.4.034.054.073.104.108.157.025.034-.068.104-.092.07a1.945 1.945 0 0 1-.112-.17c-.078-.132-.141-.27-.212-.405-.018-.037.085-.09.103-.052zM15.96 21.673c.071.125.152.244.238.36.07.091.137.187.208.278.05.068.108.128.16.194.056.061.126.105.188.158.052.042.026.023.078.057.033.024-.033.12-.066.095l-.08-.057a1.54 1.54 0 0 1-.205-.178c-.06-.061-.111-.13-.166-.196-.072-.09-.136-.19-.207-.282a8.244 8.244 0 0 1-.248-.37c-.02-.037.08-.095.1-.059zM15.442 21.598a.7.7 0 0 0 .157.227c.03.029-.05.115-.08.087a.89.89 0 0 1-.18-.269c-.016-.037.087-.083.103-.045zM16.2 21.378c.067.105.138.207.212.308.065.077.134.15.192.232.037.048.07.097.107.146.024.033-.069.102-.093.068a1.204 1.204 0 0 0-.105-.142c-.059-.083-.125-.157-.191-.233-.078-.101-.142-.212-.221-.312-.024-.036.075-.103.098-.067zM16.556 23.123c.096.114.195.225.3.33.062.061.13.114.206.156.035.019-.017.12-.052.101a.818.818 0 0 1-.23-.173c-.108-.105-.203-.221-.304-.332-.028-.03.051-.111.08-.082zM16.356 23.613c.097.097.204.185.319.261.07.044.14.089.22.113.039.013 0 .126-.038.112a1.01 1.01 0 0 1-.245-.13c-.117-.085-.236-.169-.335-.276-.027-.028.051-.109.079-.08zM17.227 22.582c.035.124.08.245.128.365.038.108.096.201.164.29l.033.038c.026.032-.06.108-.086.077l-.032-.04a1.126 1.126 0 0 1-.185-.323c-.043-.125-.095-.247-.134-.374-.011-.041.1-.074.112-.033z"/>
        <path d="M16.199 22.854c.034.056.065.118.105.17.014.017.032.03.046.047.076.092-.004.016.078.089.032.03.065.059.102.084.034.023-.03.12-.063.098a.648.648 0 0 1-.115-.098 1.494 1.494 0 0 1-.253-.332c-.02-.036.08-.094.1-.058zM17.666 24.041c.046.13.12.248.202.357.055.07.118.133.168.206.035.037.06.087.104.113.034.024-.032.123-.066.098-.052-.04-.09-.09-.133-.141-.049-.072-.106-.137-.161-.203a1.623 1.623 0 0 1-.219-.384c-.015-.038.09-.084.105-.046zM18.22 24.15c.057.08.12.154.176.233.024.033-.07.101-.093.068-.057-.08-.12-.157-.177-.237-.022-.034.073-.099.095-.064zM17.667 24.633c.084.105.174.207.285.283.035.03.074.042.117.05.04.01.013.125-.026.115a.444.444 0 0 1-.158-.07 1.867 1.867 0 0 1-.307-.302c-.026-.032.063-.108.089-.076zM17.26 23.58c-.001.125.034.238.08.35.03.073.08.13.136.183.03.027-.045.115-.075.088a.64.64 0 0 1-.166-.225c-.015-.042-.033-.082-.047-.124-.029-.088-.035-.18-.045-.272 0-.042.116-.042.116 0zM17.785 23.471c.046.1.105.196.178.277.068.071.113.136.149.228.012.054.005.029.02.077.01.04-.1.072-.111.031-.015-.05-.01-.026-.018-.07-.026-.075-.076-.129-.127-.188a1.51 1.51 0 0 1-.197-.308c-.016-.039.09-.085.106-.047zM18.88 25.083a.309.309 0 0 0 .147.02c.042 0 .04.12 0 .12a.54.54 0 0 1-.18-.027c-.038-.011-.007-.124.032-.113zM17.271 21.94c.086.099.184.187.262.293.058.07.086.16.134.236.025.072.064.137.086.21.013.046.016.106.06.132.034.023-.03.121-.065.098a.298.298 0 0 1-.105-.196c-.019-.065-.056-.123-.08-.186-.038-.076-.068-.157-.12-.224-.071-.103-.169-.188-.253-.28-.029-.029.053-.112.081-.082zM16.944 22.128c.097.054.14.163.213.24.017.016.029.025.051.025.04.01.014.126-.026.116a.18.18 0 0 1-.112-.065c-.065-.072-.102-.17-.19-.216-.035-.024.03-.124.064-.1zM16.175 20.596c.132.022.247.08.34.177.084.1.115.224.137.35.017.08-.003.171.033.247.023.05.068.053.115.055.035-.008.019-.001.049-.017.037-.017.083.093.045.11-.06.026-.029.017-.095.026-.095.002-.181-.038-.22-.132-.034-.087-.029-.179-.043-.27a.61.61 0 0 0-.1-.289.485.485 0 0 0-.275-.14c-.04-.005-.026-.122.014-.117zM15.84 19.608c.023.118.07.227.086.347.022.091.023.185.021.28.004.063.01.126.054.175.033.03.076.046.12.046.041.002.035.122-.006.12a.306.306 0 0 1-.205-.095.366.366 0 0 1-.074-.245c-.003-.087-.005-.173-.018-.259-.02-.115-.06-.225-.091-.336-.012-.041.101-.074.113-.033zM15.645 18.857c.076.116.135.242.177.375l.03.103c.013.04-.093.077-.106.038-.026-.067-.015-.032-.031-.103a1.354 1.354 0 0 0-.164-.344c-.024-.035.07-.104.094-.07z"/>
    </g>
    <g fill="#f1d129" stroke-width="1.281">
        <path d="M22.742 15.446c.1.07.192.152.28.238.058.052.114.107.166.164.028.046.015.022.038.07.017.04-.09.09-.107.051-.01-.027-.004-.014-.017-.04-.054-.053-.102-.112-.158-.162a1.924 1.924 0 0 0-.266-.222c-.034-.023.03-.122.064-.099zM23.105 16.35c.026.116.049.232.06.351.009.048.007.097.007.146.002.04-.11.045-.111.004-.003-.046 0-.092-.01-.138a1.731 1.731 0 0 0-.057-.331c-.012-.04.1-.073.111-.033zM23.46 15.915c.01.136.021.271.028.407.001.041-.112.047-.114.006a2.67 2.67 0 0 0-.031-.398c-.006-.042.112-.057.117-.015zM23.74 15.494c.035.152.048.309.061.464.013.139.005.278.01.417-.002.08-.003.04.001.117 0 .042-.115.042-.115 0v-.117a7.638 7.638 0 0 0-.008-.408 2.514 2.514 0 0 0-.06-.44c-.012-.04.1-.074.111-.033zM23.427 17.861c-.073.129-.134.265-.202.396-.032.075-.016.04-.048.107-.015.038-.118-.008-.103-.045.032-.076.014-.038.055-.113.065-.135.13-.27.197-.404.02-.036.121.023.101.06zM23.087 17.89L23.05 18c-.012.039-.118.005-.106-.034.021-.074.012-.037.027-.11.012-.042.127-.009.115.033zM23.726 17.152c-.017.125-.028.251-.057.374-.007.076-.022.149.003.222l.01.025c.016.038-.089.085-.105.047l-.014-.032a.574.574 0 0 1-.003-.28c.016-.124.044-.246.054-.37.005-.041.117-.027.112.014zM23.443 18.792c-.043.173-.128.328-.207.486-.066.14-.13.28-.159.433-.014.097-.033.2-.016.298.002.011.007.034.023.028.034.024-.03.123-.065.1-.037-.033-.064-.063-.071-.116-.017-.11.001-.226.018-.336.019-.072.034-.148.062-.218.033-.08.08-.156.11-.24.072-.15.16-.293.194-.46.008-.041.12-.016.111.025zM23.03 19.41c-.091.106-.2.191-.316.268-.081.069-.178.113-.263.178-.05.055-.057.1-.055.172.011.06.045.106.086.15.07.075.077.128.084.228a.627.627 0 0 1-.099.221.367.367 0 0 0-.05.095c-.018.038-.123-.014-.105-.052.018-.036.036-.072.059-.104.029-.053.062-.105.076-.165a.16.16 0 0 0-.05-.141.438.438 0 0 1-.116-.225.316.316 0 0 1 .1-.27c.083-.068.182-.114.269-.178.102-.07.202-.148.28-.246.024-.036.124.032.1.068zM22.71 18.96c-.067.09-.138.177-.195.274a.326.326 0 0 0-.041.143c-.003.042-.119.034-.116-.008a.438.438 0 0 1 .06-.195c.056-.1.13-.187.197-.28.022-.034.118.031.095.066zM22.932 20.98a.825.825 0 0 1-.173.427 1.38 1.38 0 0 1-.382.275c-.089.046-.18.088-.257.154-.04.04-.074.08-.083.138-.02.064.02.13.047.187.028.052.013.029.044.072.022.033-.071.099-.094.065-.035-.053-.018-.026-.05-.08-.048-.08-.085-.18-.06-.274a.371.371 0 0 1 .126-.203c.087-.063.178-.117.276-.162.124-.068.25-.133.344-.243a.678.678 0 0 0 .149-.37c.005-.041.118-.026.113.015zM22.157 20.957a.63.63 0 0 0-.11.28.166.166 0 0 0 .05.132c.026.032.047.067.07.102.022.034-.073.1-.095.066-.021-.03-.04-.06-.064-.09-.05-.065-.09-.14-.073-.227a.869.869 0 0 1 .124-.33c.023-.035.12.032.098.067zM22.649 22.291c-.06.165-.079.338-.094.511a1.9 1.9 0 0 0 .004.515c.017.059.034.117.055.174.014.038-.092.08-.106.042a2.363 2.363 0 0 1-.06-.199 2.767 2.767 0 0 1-.005-.543c.021-.178.042-.357.095-.528.01-.04.12-.012.11.028zM22.152 22.867c.02.129.072.248.12.369.044.097.06.197.055.303-.014.1-.049.193-.075.29-.023.086-.022.177-.029.266.006.067.021.132.037.197.01.04-.099.071-.11.032a.877.877 0 0 1-.04-.233c.004-.099.005-.199.033-.295.024-.089.055-.175.07-.266a.564.564 0 0 0-.043-.251 2.032 2.032 0 0 1-.131-.38c-.012-.04.101-.073.113-.032zM21.955 23.782a.68.68 0 0 1 .114.344 1.262 1.262 0 0 1-.064.278c-.017.076-.015.154-.02.232.004.073.03.14.062.204.022.064.065.117.095.177.027.047.06.089.106.117l.024.004c.04.014.003.128-.037.115a3.77 3.77 0 0 0-.039-.014.426.426 0 0 1-.15-.155 1.456 1.456 0 0 1-.103-.191.7.7 0 0 1-.074-.26c.006-.086.003-.173.027-.258.019-.083.053-.164.06-.25.009-.1-.05-.193-.097-.277-.022-.035.073-.1.096-.066zM21.912 25.392c.034.125.047.254.063.382.013.096.01.194.009.29.003.063-.006.127.013.188.01.03.027.058.039.088.048.072.102.154.175.201l.027.014c.036.019-.017.124-.053.105l-.042-.021a.84.84 0 0 1-.21-.248.68.68 0 0 1-.065-.326c.004-.094-.002-.187-.004-.28a2.195 2.195 0 0 0-.06-.36c-.011-.04.097-.072.108-.033zM22.626 24.619c.045.136.086.274.117.414.027.114.035.232.034.348a1.07 1.07 0 0 1-.051.285c-.01.067-.037.145-.011.21.002.03.019.041.036.061.028.03-.054.112-.082.083-.028-.035-.055-.067-.064-.112a.48.48 0 0 1 .012-.27c.02-.084.043-.167.05-.254-.01-.109-.008-.219-.032-.326a4.293 4.293 0 0 0-.119-.407c-.011-.04.099-.072.11-.032zM22.938 23.703c.001.132-.01.265.005.397.008.08.019.162.028.243.004.042-.113.052-.117.01-.003-.082-.017-.162-.026-.244-.006-.135-.005-.27-.005-.406 0-.042.115-.042.115 0zM23.097 22.033c.001.134.034.264.054.396.013.107.022.215.026.323 0 .062 0 .03-.005.095-.004.041-.118.028-.114-.013.004-.05.003-.024.003-.08-.002-.102-.002-.205-.023-.306-.019-.138-.05-.275-.056-.415 0-.042.115-.042.115 0zM22.667 15.745c.023.128.07.249.09.376.025.092.044.185.054.28.008.07.026.14.037.212a.66.66 0 0 0 .046.177.873.873 0 0 0 .09.185c.037.066.059.14.083.211l.012.037c.01.042-.104.07-.115.03l-.007-.03a1.04 1.04 0 0 0-.068-.184c-.016-.023-.035-.044-.049-.069-.022-.041-.032-.092-.054-.133-.022-.068-.046-.135-.053-.207-.01-.073-.028-.144-.038-.217a1.716 1.716 0 0 0-.048-.27c-.028-.124-.06-.246-.092-.369-.01-.04.102-.07.112-.028zM23.363 16.912c-.032.111-.071.221-.09.336a1.704 1.704 0 0 0-.018.259l-.001.04c0 .042-.114.041-.114 0v-.042c.005-.093-.001-.188.022-.28.024-.117.063-.23.09-.346.011-.04.122-.008.11.033zM23.401 20.048c-.019.107-.059.216-.054.326.009.07.051.124.074.19.03.076.025.159.035.24a.862.862 0 0 1-.028.23c-.015.072-.052.134-.075.202 0 .012-.002.023-.003.035-.009.041-.123.015-.114-.026l.009-.042c.02-.065.047-.126.07-.19a.624.624 0 0 0 .023-.205.731.731 0 0 0-.023-.202c-.032-.077-.08-.146-.083-.234.006-.12.03-.24.06-.356.011-.04.12-.008.109.032z"/>
    </g>
    <path d="M23.704 27.265c1.724-2.4 5.1-6.945 5.993-9.732 1.278-1.09 2.562.35 2.77 1.615.49 1.51 1.067 3.199 2.6 3.944.7.302 1.797 1.325.34.998-2.402-.367-3.95-2.596-4.718-4.733-.989-.891-.337-3.12.698-1.76-.803 2.802-4.362 7.252-5.946 9.7-.435.671-1.318.63-1.737-.032z" fill="#83bd2a"/>
    <path d="M12.857 26.13c-.197-1.78.053-3.723-.926-5.318-1.55-1.418-3.393-2.459-4.988-3.82 2.542.074 3.978 2.556 6.112 3.572 1.566.987 1.125 3.035 1.429 4.584.887 1.26-1.245 2.472-1.627.982z" fill="#465d25"/>
    <path d="M14.619 26.86c.944-4.741 3.003-13.802 4.39-18.43.064 1.995-.339 3.557-.388 5.147-1.25 4.148-1.619 9.108-2.257 13.39-.392.546-1.45.536-1.745-.107z" fill="#83bd2a"/>
    <path d="M17.125 27.096c.644-3.936-1.386-8.318-2.84-11.84-.91-1.949-2.992-2.83-4.618-4.057 2.135.117 2.601.597 3.63 1.324 1.612.835 2.68 2.388 3.28 4.067.841 2.417 2.092 4.743 2.226 7.35.215 1.204.344 4.52-1.547 3.374z" fill="#9fe822"/>
    <path d="M13.55 27.075c-.216-2.38-1.72-6.283-3.192-8.109.699-.238 2.292.15.94.831-1.405 1.762-3.026 3.761-5.413 4.064-.567.438-2.176.972-2.507.402 1.023-.555 2.298-.548 3.214-1.357 1.101-.788 1.98-1.836 2.69-2.972.757-1.06 2.588-1.65 3.404-.339.867 1.642 2.52 4.981 2.447 6.94.055 1.036-1.066 1.493-1.583.54z" fill="#83bd2a"/>
    <path d="M19.972 27.079c1.504-1.532 4.613-4.842 6.721-5.614 2.04-.395 4.204-.166 6.101.687-.897 1.016-2.27-.45-3.331-.617-.722-.078-1.338-.294-.26-.236.906.073-1.375.06-1.668.578-1.73 1.078-4.668 4.169-6.151 5.498-.46.365-1.145.237-1.412-.296z" fill="#9fe822"/>
</svg>
