<svg xmlns="http://www.w3.org/2000/svg" viewBox="0 0 198.4375 187.85416" height="710" width="750">
    <g stroke-width="1.325">
        <path d="M91.234 103.099s-3.265 29.126-5.776 32.892c-2.51 3.767-11.298 14.814-12.554 16.07-1.255 1.255-19.083 9.792-19.083 9.792-2.128-1.419 3.89-28.877 13.56-35.905 5.684-9.86 20.528-19.066 20.84-18.832zM119.606 105.359s13.56 16.822 14.563 20.087c1.005 3.264 9.542 11.55 10.546 18.831 1.005 7.282 1.507 15.819 1.256 17.325-.251 1.507-10.546-4.268-14.312-8.286-3.767-4.017-10.295-14.814-10.546-15.818-.251-1.005-4.52-25.36-4.52-25.36l-2.762-9.793z" fill="#917c6f" fill-rule="evenodd"/>
        <path d="M109.563 93.557l-5.775 13.308-7.282-11.801-.502-1.507 2.26-3.013 7.784 1.005 2.26-1.758z" fill="#00c8e1" fill-rule="evenodd"/>
        <g stroke-width=".615">
            <path d="M89.662 97.149c-1.657-2.435-2.047-6.23-.868-9.568.77-1.155 4.284-4.675 4.628-4.25 1.472-.606 1.882-1.632 5.195-1.548 1.247-.426 7.101-.409 9.441.2 2.173.59 4.685.988 5.773 3.299 1.411.964 1.451 3.409 1.806 4.632.821 2.169.506 5.311.057 7.763-2.28.178.44-3.988-.651-6.242-.65-2.072-.558-4.526-2.217-5.927-.603-1.547-1.998-1.525-3.482-2.234-2.5-.948-7.768-.683-9.77-.897-3.22.476-4.286.746-6.017 1.862-.547-.218-3.625 3.369-3.85 3.743-.957 2.253-.778 6.019.452 8.102.927.384.105 1.586-.497 1.065zM90.31 98.234c.553 1.536.068 7.84-1.14 5.557.873-.363-.634-5.659 1.14-5.557zM142.245 164.315c-2.16 3.112-3.41 6.067-6.49 8.19-.416.228-3.548 2.682-5.569 3.489-1.958.535-3.463 1.19-5.533 1.962-2.126.407-3.602 1.128-4.982 1.742-2.23.42-2.902.792-3.554.94-1.941.943-2.83 1.49-5.14 1.831-.693.259-4.78.848-6.84.951-1.916.374-8.461.703-11.936-.554-3.54-.034-6.926-.812-10.38-1.738-2.43-.788-4.399-1.575-6.644-2.538-2.088-1.277-3.716-2.188-5.825-3.916-1.346-1.224-3.06-3.55-4.205-4.95-1.478-1.28-2.809-3.68-3.727-5.09-1.246-1.988.801-2.095 1.361.35 1.522 2.607 3.44 4.372 5.214 6.679 1.485 2.364 4.48 4.055 6.738 5.577 2.389 1.313 5.555 2.388 8.512 3.223 3.614 1.24 7.339 1.104 11.04 1.943 3.093.304 8.312.712 10.158.072 3.03-.476 5.687-.426 8.06-1.248 2.442-.984 3.484-1.543 5.969-2.237 2.68-.767 5.06-1.782 7.812-2.661 1.994-.622 5.631-1.976 6.342-2.758 2.595-1.78 2.885-1.806 5.176-4.153 1.503-.918 2.678-6.559 4.443-5.106z"/>
            <path d="M128.31 173.812c-2.839 1.38-2.12 1.67-4.4 2.605-1.394 1.801-3.753 1.135-6.527 2.43-.335.518-5.064 2.172-1.647-.231.966-.998 5.803-1.441 7.29-2.568 2.016-.686 3.157-2.834 5.273-2.496l.012.259zM92.086 180.218c4.036.116 8.335-.064 12.117.584.437 1.577-4.81.41-6.81.363-.74-.38-7.185.887-5.307-.947zM97.766 95.019c2.148 1.765 3.118 4.169 4.614 6.445 1.662 1.599-.62 8.029.967 3.301 1.42-3.018 1.81-6.402 3.79-9.155.69-.526 1.424-2.77 1.966-1.49-.623 1.656-1.115 1.489-2.05 3.663-.974 1.226-1.246 3.466-1.975 5.443-.517 2.554-3.659 6.431-3.047 1.205-.173-3.114-2.618-5.954-4.562-8.323-.858-.216-.366-1.421.297-1.089z"/>
            <path d="M96.81 94.69c1.865 1.309.87.608 1.824 1.851-1.586-.118 1.009-.068-1.534-.58-1.154.293-1.212-1.453-.29-1.272z"/>
            <g>
                <path d="M95.001 86.598c1.821-.392 2.785 4.269 2.22 1.337 1.245.75 2.415 1.587 3.563 1.942 1.483 1.017 5.182-.051 5.234.127-1.48.133 2.727-.928.337-.255 2.746-1.255-1.687 1.37 1.081-.537 1.384-.578-1.638.833.512-.327 1.722-.263-1.382-.08 1.418-.628-2.878 1.166 3.49-1.955.912-.72 2.79-2.657 2.066 2.692 1.601 1.666 1.814-1.177-3.28 2.155-1.01.55-2.38 1.444-.525.332-2.281 1.187 3.15-1.83-2.221 1.637.13.058-2.173 1.227.66-.182-1.96.992 1.73-.541-4.482 1.474-4.94.577-1.385-.187-3.168-.95-3.708-1.17-.953-.968-3.01-1.177-2.913-2.719 1.67 2.935-5.062-1.973-.196-2.08z"/>
            </g>
            <g>
                <path d="M88.877 105.76c-2.44 2.078-4.233 3.979-7.108 5.943-2.523 2.446-5.246 4.802-7.937 7.468-2.14 3.072-4.608 5.906-6.987 8.896-2.41 3.395-5.303 6.525-6.76 10.514-1.904 3.187-4.298 6.38-4.683 10.163.018 4.14-.33 8.2-.333 12.307 1.249.872.447 6.254-.449 1.778-1.275-3.107-.031-5.901-.286-8.957.057-3.175-.306-6.12.994-8.687 1.063-2.393 2.458-4.788 3.943-7.14.78-2.003 1.823-3.806 3.023-5.505 1.757-2.318 3.766-5.064 5.793-7.544 2.866-2.995 4.585-6.888 8.16-9.306 2.22-1.877 4.045-4.355 6.367-5.635 2.534-2.17 3.243-2.91 5.69-4.93.27.065.685.294.573.635z"/>
                <path d="M55.964 163.312c2.357-1.74 4.701-1.843 7.373-2.809 1.268-.282 3.578-2.319 5.52-3.933 3.305-1.83 6.359-5.162 8.98-8.262a256.85 256.85 0 0 0 7.531-9.706c1.86-3.3 3.018-6.785 3.462-10.506 1.087-2.804.785-7.205 2.487-9.052.503 2.719-1.009 5.617-1.317 8.408-.9 3.395-.843 7.046-3.104 10.14a42.91 42.91 0 0 1-5.478 7.719c-2.471 3.198-4.948 6.283-7.893 9.06-2.763 2.13-5.422 3.84-7.523 5.723-1.649 1.138-3.201 1.666-5.488 2.142-1.25-.08-4.182 2.738-4.55 1.076zM92.596 110.782c.528 1.867-.023 8.915-1.33 6.742 1.076-2.178-.353-5.306 1.141-6.91l.19.169zM91.878 107.872c-.861-3.49 2.573-1.784.642.094-2.126-1.244 1.543-4.108.365-.464.187.622-.78.904-1.007.37z"/>
                <path d="M92.58 107.773c.913 2.497-.92 6.47-.763 2.344.256-.657-.884-3.22.762-2.344zM81.161 114.86c-3.352 2.684-6.294 6.29-8.725 9.8-.42 1.805-5.966 6.225-3.01 2.326 2.41-3.165 4.54-6.43 7.506-9.354.413-.744 4.633-5.483 4.229-2.772z"/>
            </g>
            <g>
                <path d="M116.908 98.755c1.635 2.723 2.705 5.77 4.4 8.304 2.02 3.28 5.345 5.475 7.49 8.744 1.86 3.305 3.974 6.289 6.08 9.385 2.611 2.127 3.934 5.219 5.732 7.701 1.6 2.235 2.235 5.2 3.249 7.786 1.068 3.476 1.493 6.942 1.337 10.573.395 4.365-.698 9.733.509 13.413-2.308 1.57-1.302-5.982-1.48-8.028-.09-4.31.302-8.634-.578-12.747-.557-2.875-1.868-6.339-2.867-8.542-1.588-2.949-3.258-6.138-5.75-8.423-2.567-3.129-4.598-6.485-6.676-9.941-1.812-3.425-5.352-5.364-7.31-8.588-1.96-2.292-2.591-5.261-4.283-7.673-.163-.643-1.56-2.422.146-1.964z"/>
                <path d="M143.352 163.683c-2.475-.523-.782-3.387-1.193-1.248-2.373-1.609-3.883-2.122-5.967-3.179-3.595-1.106-5.94-4.336-8.866-6.557-2.684-2.908-3.94-6.586-5.827-9.977-1.895-3.238-3.338-6.958-3.98-10.624-.567-4.578.42-9.03.081-13.63-.135-2.449-.774-4.958-1.81-7.059-.283-2.005-1.203-3.249-1.122-5.007 2.001.781 1.534 4.365 2.571 6.299 1.78 3.451 1.22 7.538 1.382 11.396-.36 3.545-.846 7.616.707 10.955 1.09 4.008 3.082 7.685 5.205 11.171 1.295 4.676 5.564 7.345 8.886 10.524 2.827 1.826 5.896 2.453 8.634 4.531-2.09.46 3.602.338 1.544 2.454l-.246-.05z"/>
                <path d="M121.307 133.845c.692 2.115 2.199 3.651 2.917 5.845.007 1.52 3.703 7.705 1.128 6.288-1.425-3.163-1.828-7.011-4.1-9.546-.206-.59-1.67-3.284.054-2.587z"/>
            </g>
        </g>
        <path d="M108.329 90.11c-.104-3.584 5.257-3.29 5.005.074.647 3.526-1.368 3.873-3.41 3.854-2.277.011-2.716-5.443-.411-4.764-1.208 1.361-.095 4.509 1.175 3.977 2.37.072 2.133-1.756 1.216-4.315-2.263-3.107-1.71 2.243-3.575 1.175z"/>
        <path d="M110.878 90.662c4.184 2.629-3.878 3.6-1.37-.242 2.987-.725.416 1.497.83.551-.731 1.668 2.59 1.916-.134.198.089-.257.337-.652.674-.507zM94.047 88.444c3.428-1.595 4.55 3.463 2.673 5.458-1.266.896-4.487 1.247-4.509-1.688-1.836-2.767 4.02-5.936 3.66-3.458-2.362-.282-3.243 1.634-2.442 4.334.61 1.318 2.686.231 3.09-.239.091-2.615.104-4.6-2.761-3.628-.063-.26-.067-.718.29-.779z"/>
        <path d="M95.396 91.543c1.21 5.37-5.46-2.153-.248-1.732 1.864 3.102-2.17-1.141-.98 2.399 2.607 1.778-1.181-.45 1.228-.667z"/>
    </g>
</svg>
