<svg xmlns="http://www.w3.org/2000/svg" viewBox="0 0 198.4375 187.85416" height="710" width="750">
    <g stroke-width="1.325">
        <path d="M93.227 59.615l6.063 33.597 6.568-33.597-5.305 1.263-6.316-1.263z" fill="#00c8e1" fill-rule="evenodd"/>
        <path d="M88.932 110.895c1.01-2.526-4.8 23.24-6.567 27.787-1.769 4.547-5.305 10.61-7.326 12.378-2.021 1.769-19.199 13.136-19.199 13.136s0-22.482 4.042-29.808c4.042-7.326 14.399-15.915 15.915-17.43 1.515-1.516 12.883-13.641 12.883-13.641zM113.183 101.8l17.936 18.947s9.852 8.841 9.599 13.136c-.253 4.294 8.336 21.22 6.063 23.745-2.274 2.526-2.78 4.547-2.78 4.547s-16.419-9.094-18.692-11.367c-2.274-2.274-8.842-18.946-8.842-20.967 0-2.021-2.02-19.957-2.273-20.967-.253-1.01-1.01-7.073-1.01-7.073z" fill="#917c6f" fill-rule="evenodd"/>
        <g stroke-width=".615">
            <path d="M110.002 181.212c-2.844-.644-5.889.906-10.055.398-2.465.296-8.41-2.305-2.308-1.426 3.371 1.215 8.567.081 10.75-.093.704.018 3.164.03 1.613 1.12zM114.819 179.885c2.892-1.697 4.667.053 1.024.6-.635 1.253-1.863-.157-1.024-.6zM56.445 140.936c-2.04 2.075-1.651 8.204-4.004 8.51.383-2.404 1.335-4.19 1.84-6.372.735-.542 1.046-3.635 2.164-2.138zM101.672 47.863c2.63.37 4.87.656 7.406 1.907 1.754 1.5 3.14 2.743 4.052 4.472.795 1.75 1.587 3.434 1.608 4.81.48 2.788.3 5.958-1.35 8.298-.938 2.394-2.711.51-.945-.052.874-1.916 1.932-3.272 1.487-5.917.27-2.667-.685-4.73-1.872-7.094-1.225-1.94-3.717-4.503-6.186-4.647-.451-.905-5.576-.07-4.2-1.777zM100.217 49.13c-3.275-.132-5.22.29-7.383.916-1.393.358-3.486 1.174-5.019 3.683-1.66 2.836-2.575 6.257-2.345 9.735.13 1.664.683 3.896 1.716 5.383 1.08.821 2.292 4.649-.13 1.497-1-1.497-2.391-3.546-2.17-5.54-.78-2.955-.113-5.703.638-8.584.909-1.258 1.583-4.005 2.974-4.542.62-.757 2.803-2.35 4.522-2.633 1.133.08 6.908-2.092 7.197.085z"/>
            <path d="M100.411 47.487c5.09.035 1.888 1.915-.353.4-.226.072.324-.59.353-.4zM113.143 68.775c-1.208 1.86-2.831 6.89-2.372 2.377.335-.173 1.255-4.162 2.372-2.377zM89.472 99.708c-.469 5.032-4.002 9.188-6.775 13.288-1.37 1.67-4.2 4.118-6.257 6.182-2.892 2.898-5.377 6.053-7.681 8.33-1.986 2.982-5.262 5.522-7.122 7.882-1.933 1.516-1.843 7.748-3.783 6.852.502-1.365.798-3.748 2.082-5.429.835-2.434 2.631-3.7 4.327-5.456 1.685-1.255 2.745-3.727 4.725-5.475 1.12-.994 2.207-2.145 3.679-4.03 1.975-2.388 4.207-4.285 6.417-6.425 2.058-1.956 3.181-3.024 4.808-5.746 1.53-1.842 2.353-4.327 3.746-6.1.761-.588.25-5.012 1.834-3.873z"/>
            <path d="M58.856 140.27c-1.56 4.047-2.94 8.346-4.272 12.466-.355 2.474-1.736 7.275-1.466 1.885.632-4.3 3.308-8.06 3.73-12.49.545-.435.98-3.301 2.008-1.86z"/>
            <path d="M54.126 157.719c-1.263 1.582-.2 5.476-1.942 5.59.12-1.981.102-4.058 1.5-5.913l.318.105.124.218zM53.3 163.083c3.006-1.887 2.647-1 5.588-2.648 2.087-1.244 5.32-2.601 7.648-5.206 3.486-3.38 7.167-7.01 9.45-11.385 2.17-4.696 5.936-8.658 8.563-12.219 2.126-3.153 3.21-6.789 4.647-10.287 1.255-2.826.76 2.544-.227 3.233-.94 2.019-1.688 4.581-3.036 6.648-1.584 2.857-3.6 4.302-5.513 7.033-2.283 3.182-3.643 7.029-6.144 10-2.602 2.828-4.408 5.446-6.988 7.491-1.296 1.693-4.539 3.674-6.5 4.58-1.405 1.048-4.298 2.26-5.17 2.362.78-.602-2.502 2.232-2.318.398zM89.336 73.438c.066 2.909.442 1.243 1.135 3.886.284 4.223 1.01 7.28.845 11.4.17 4.008-.112 7.92-1.406 11.647-1.744-.811.581-4.289.456-5.714-.323-3.492.54-7.525-.268-10.714.242-2.414-1.372-7.749-.39-8.07-1.072.881-2-3.445-.372-2.435z"/>
            <path d="M87.838 71.17c1.187 1.776 3.712 8.168.47 3.032-.269-.694-2.338-3.317-.47-3.032zM111.354 82.942c-.33 2.62-.25 6.397.636 8.762.434 2.766.99 5.022 1.447 7.993.553 2.496 2.34 4.112 4.163 5.839 2.599 3.09 5.752 5.514 7.961 8.728 2.063 2.036 3.298 4.857 5.372 6.954 4.116 4.213 7.184 9.133 10.248 14.134 1.578 2.898 2.967 5.911 3.458 9.12 1.154 4.047.288 8.58.849 12.764-.746 2.995 1.446 4.282 1.747 6.982.133 4.776-1.228-.964-2.091-3.02-1.282-4.211-.598-9.129-.885-13.676-.612-3.722-1.373-7.466-3.5-10.776-2.278-4.425-5.201-8.506-8.22-12.435-2.265-2.415-4.407-4.764-6.128-7.574-1.296-1.68-2.985-3.745-4.538-5.429-2.581-2.323-5.158-5.471-7.385-7.53-2.035-2.163-1.917-5.099-2.754-7.71.228-2.176-1.299-4.346-1.13-6.664-.056-1.423-1.28-6.839.75-6.462z"/>
            <path d="M115.593 119.587c-.878 4.2 2.018 7.33 2.479 11.213 1.512 2.587 3.59 6.44 4.945 9.69 2.382 5.304 5.65 10.434 9.854 14.312 2.58 1.442 4.582 4.54 6.853 5.734a54.473 54.473 0 0 1 6.285 5.425c3.297 1.63-2.765.446-2.97-1.616-2.933-2.581-6.328-4.36-8.792-7.466-3.33-2.031-5.76-5.09-7.82-8.379-2.734-3.518-4.435-8.158-6.134-11.696-1.424-2.774-3.447-5.684-3.745-8.543-1.206-2.146-3.343-7.841-.95-8.674zM105.982 61.539c-2.136 2.288-1.33 5.364-2.563 9.251-.58 5.515-2.355 10.926-2.48 16.538.692 2.177-2.214 9.879-1.337 4.205.43-3.712.372-7.34 1.157-10.964.661-2.467.797-5.11 1.507-7.486.227-2.359.553-4.799 1.215-7.063.278-1.884.266-4.422 2.5-4.481z"/>
            <path d="M93.412 64.815c-1.215-3.653.414-4.087 1.004.408 1.34 3.568.675 7.486 1.793 11.026.214 2.724.911 5.654 1.793 7.484 1.019 2.888.974 6.2 1.37 8.652 1.115 3.477-1.116 1.502-1.25-.888.339-3.455-.853-6.777-1.854-9.92a56.105 56.105 0 0 1-1.782-10.353c.057-2.483-2.526-11.122-.477-8.823.151.706.922 3.296-.597 2.414zM92.277 92.614c.271 4.064-.245 9.058-3.49 11.685-.56-1.42 1.73-2.875 1.896-4.638 1.391-1.65-.59-7.347 1.594-7.047zM110.962 76.094c.558 2.54-.86 12.558-1.207 4.864.78-1.107-.722-5.854 1.207-4.864z"/>
            <path d="M110.727 73.784c.959 2.726-1.405 5.985-.923 1.16-.665-.618.379-1.94.923-1.16zM109.269 80.555c-.85 3.043.235 7.1.083 10.923 1.246 4.527-1.43 2.695-1.027-.953.382-3.372-1.5-8.265.818-10.174l.124.204zM91.683 56.14c2.74.556 1.703 3.05 2.209 1.63 1.472 2.502 1.865 1.6 6.427 1.642 1.174.285 4.948-1.107 2.907-.22 3.227-1.474 1.494-.422 3.73-1.59-2.608.986 1.773-.788-.46.172 2.939-2.01.807-.5 2.999-1.67-3.32.592 3.909-.999.532 2.171.8-.906-1.423.954-.246-.301-1.372 1.44-.12.179-2.463 1.854 2.063-1.355-2.738 1.422.285-.388-.383.981-3.397 1.475-2.894 1.464-3.144 1.002-7.622 1.61-10.751.157-1.257.376-3.013-4.769-2.496-2.512-1.742.103-1.041-2.604.221-2.41z"/>
            <path d="M106.601 57.147c-2.977.655-2.714 1.979-4.322.624.546.52 4.754-2.685 4.322-.624zM60.41 162.375c.544 2.448 1.507 3.653 2.718 5.574 1.124 2.292 4.05 4.103 6.077 6.167 1.286 1.049 2.557 2.295 3.92 2.996 1.682 2.002 4.318 2.028 6.593 3.384 2.866.654 5.909 1.306 8.876 1.7 4.586-.293 8.949.689 13.519.628 4.014.013 4.567-.63 8.813-.61 2.427-.087 4.627-.803 6.68-1.527 1.921-.633 3.023-1.46 5.014-2.162 2.66-.735 5.236-1.827 6.631-2.831 2.143-1.404 4.157-2.524 5.847-4.286 3.044-1.547 4.09-4.461 5.827-6.596.41 2.538-1.678 3.24-2.399 5.096-2.09 1.833-3.449 2.605-5.06 4.154-2.28 1.226-3.962 2.758-5.893 3.576-2.425 1.219-5.773 1.947-8.018 3.157-2.398.98-5.182 2.294-7.92 2.179-4.242.16-6.747.797-11.218.784-4.221-.506-8.559-.448-12.752-.929-3.847-.12-8.38-1.34-11.54-2.918-2.206-.43-3.684-2.154-5.488-3.431-2.398-1.722-4.762-4.087-7.113-6.304-1.333-1.87-2.889-4.04-3.74-6.508-.791-.454-.06-1.921.626-1.293z"/>
            <path d="M141.275 163.595c-1.692 1.839-4.041 7.13-2.591 1.806.48-.455 2.022-3.525 2.59-1.806z"/>
        </g>
        <path d="M105.589 60.136c1.384-2.998 4.46-1.999 5.225.298 1.029 3.414-.311 5.378-3.341 5.216-1.711-.452-3.304-3.297-1.57-5.035.846.942-.215 5.004 2.815 4.183.262-.169 2.476-1.104 1.358-3.362-1.22-3.636-2.404-2.25-4.442-1.058l-.046-.243z"/>
        <path d="M108.203 61.349c4.682.343-1.894 5.029-1.48.389 3-1.127-.828 1.03 2.113 1.403-.914.4 1.132-1.336-.883-1.33-.432-.32.358-.307.25-.462zM93.064 61.347c.564-3.762-5.726-2.897-3.44.89-.41 1.217 2.245 2.383 2.25 1.747.967.224 1.593-4.672 1.718-.68-.212 1.479-3.644 2.663-4.597.063-2.068-3.234 1.16-7.282 4.477-4.495.04.713 1.234 3.116-.408 2.475z"/>
        <path d="M91.648 61.468c1.207 3.421.573-3.43-.775.077-2.22-2.868 4.822-1.861 2.112 1.228-1.393 2.541-3.488-2.188-1.337-1.305z"/>
    </g>
</svg>
