<svg xmlns="http://www.w3.org/2000/svg" viewBox="0 0 198.4375 187.85416" height="710" width="750">
    <g stroke-width="1.325">
        <path d="M94.77 115.328c1.84 2.823 4.132 5.535 6.478 7.514 2.619-3.047 6.61-5.978 9.398-8.687l.804-4.141-9.206 2.74-8.198-2.41z" fill="#00c8e1" fill-rule="evenodd"/>
        <path d="M85.356 112.86s-2.841.797-6.891 1.633c-2.837.585-17.59 19.965-17.41 21.58 0 0-7.617 18.68-7.254 24.12.362 5.441.906 4.172.906 4.172S68.31 153.12 72.48 148.587c4.171-4.534 14.508-21.581 14.87-23.213.364-1.632 1.996-8.342 1.996-8.342zM119.45 114.493c-.263-1.579 5.947-1.137 7.254.906 1.089.726 9.793 10.519 9.793 10.519s8.887 11.244 9.068 16.866c.113 3.486-1.813 17.954-1.995 18.679-1.632-2.902-5.803-5.985-9.974-6.891-4.171-.907-8.705-5.26-8.886-10.156-.182-4.897-3.99-24.664-3.99-24.664z" fill="#917c6f" fill-rule="evenodd"/>
        <g stroke-width=".615">
            <path d="M90.581 106.706c2.25-.476 3.204-.957 5.937-1.02 2.96-.607 6.362-.55 9.574-.53 2.634-.168 5.137.302 7.447 1.356 1.64 1.08 3.112 1.675 4.539 3.184 1.084 1.514 1.738 3.054 1.491 5.446 1.07 2.228-2.856 3.884-1.68 2.328 1.24-1.614 1.054-4.953-.28-6.661-1.321-1.736-3.352-2.757-5.258-3.664-2.258-1.149-4.864-1.003-7.405-1.004-3.667-.045-7.296.226-10.864.721-1.627.296-1.027.162-3.488.83-.388-.109-.398-.87-.013-.986z"/>
            <path d="M90.13 108.09c-1.979.438-2.05 1.751-3.086 2.547-.508 2.91.671 3.966 2.44 5.736.404 1.017 3.765 1.906 1.957 2.524-2.669-.857-3.254-2.765-5.066-4.583-.588-2.894-.537-4.826 1.326-5.425-.542-.968 3.726-2.764 2.43-.798zM110.44 114.66c-2.39.155-4.037 2.772-5.64 5.256-.634 1.33-2.025 5.373-3.162 1.842-1.66-1.875-3.402-3.155-5.29-4.57-.937-.905-5.33-1.972-3.154-2.525 2.998.467 4.998 3.023 7.185 4.309 1.573.268 2.791 4.61 2.275 3.006.928-1.66 1.557-3.848 3.178-5.093.184-1.133 5.304-4.927 4.607-2.225zM121.253 114.37c2.09.568 3.666 2.022 5.526 3.007 1.447.791 2.332 2.136 3.921 2.77 1.077.92 1.944 1.77 2.84 3.039 1.104 1.4 2.066 2.763 3.213 4.067 1.418 1.28 2.103 3.001 3.201 4.44.363 1.232.964 2.564 1.302 4.234.606 1.68 1.722 3.053 2.441 4.562.585 1.539 1.148 3.163 1.12 4.796.72 1.561.256 3.441.823 5.064-.086 3.384-.004 6.804-.046 10.198-.324 1.588-.51 4.116-.495 5.196-1.961-.317-1.833-3.717-3.954-4.23-1.066-1.26-2.767-1.896-4.126-2.598-.957-.462-1.943-.793-2.872-1.33-1.803-.831-3.28-2.192-5.054-3.093-1.086-1.712-2.175-3.324-2.775-5.362-.628-1.687-.59-3.48-1.084-5.181-.604-1.472-.837-2.973-1.047-4.523-.503-.288-.54-2.437-1.112-3.064-.517-1.595-1.51-3.329-1.921-4.46-.168-.722-2.11-3.907-.096-3.447.453 2.12 1.48 4.13 2.437 6.114.648 1.545.818 1.828 1.18 3.454.508 1.173.78 2.73.987 4.09.776 1.675.92 3.472 1.257 5.247.312 1.754 1.044 3.54 2.095 5.001.428 1.541 1.953 2.018 3.155 2.818 1.051.965 2.758 1.636 3.905 2.277 1.534.581 1.93.604 3.56 1.753 1.342.59 3.112 1.818 3.966 3.235.733.99 3.142 4.362.575 3.78-.403-1.802.353-3.469.177-5.296.57-1.866.06-4.214.243-6.258.126-2.224-.146-4.33-.23-6.498-.191-1.63-.617-3.12-.776-4.78-.316-1.713-1.175-3.25-2.098-4.706-1.117-1.585-1.43-3.546-2.062-5.272-.265-1.563-1.471-2.7-2.228-4.074-1.22-1.626-2.655-2.994-3.77-4.626-.963-1.305-1.865-2.416-2.84-3.4-1.226-.805-2.415-1.504-3.535-2.528-1.47-.833-2.839-1.84-4.283-2.705-.365-.44-3.49-.842-1.52-1.712z"/>
            <path d="M90.973 108.567c3.354.288 1.508.182 2.925.521.634.185 2.653.49 3.948 1.003 1.287.076 1.654.677 3.499 1.016 1.24.998 6.116-.725 3.415.347 1.598-1.26 3.594-.678 3.017-1.216 2.489-.906-1.186.819.941-.407.518-.203.265-.457 1.777-.627-2.958 1.234 1.858-1.001.146-.207 1.659-1.16 2.815-.261.425.267 1.57-2.93 6.416.194 2.848 1.512-2.5.319.906-.953-1.245-.04-1.464.557.627-.427-1.287.54-1.717.61 1.994-1.092-1.215.248-1.098 1.144.96-.546-.88.67-1.298.664.872-.483-1.03.56-2.63 1.034-1.095-.123-2.044.454-1.34.96-5.119.748-7.27-.132.575.205-1.228-.456-1.061-.276-.861-.617-1.81-.434-3.746-1.21-.57.39-2.937-1.188-.956-.259.14-.274-5.909-.064-2.207-2.764zM61.652 139.586c.253-1.554 1.087-2.96 1.84-4.328.507-1.132 1.295-2.104 1.867-3.204.612-1.163 1.744-1.941 2.21-3.158.79-.912 1.44-1.935 2.18-2.878a8.221 8.221 0 0 1 2.32-3.338c.632-.373.366-.073.396-.372.616-1.143 1.806-1.759 2.655-2.687.86-.42 1.713-1.17 2.516-1.488-.993.505 1.165-.942.81-.712.67-1.038 2.243-1.486 3.039-1.956.72.064.82-1.001 1.645-.238-.05 1.108-1.396 1.029-2.003 1.48-.551.23-1.39.664-1.783 1.135-.713.762-1.782 1.348-2.562 1.92-.946.466-1.343.785-2.288 1.797-.79.43-1.72 2.047-2.063 2.028-.372.536-1.311 1.694-1.284 1.733-.38 1.173-1.219 2.008-1.858 3.053-.947.836-1.193 2.137-2.214 2.941-.758 1.038-1.028 1.653-1.769 2.712-.617.968-1.039 2.02-1.616 2.843-.258.823-.804 1.62-1.013 2.553-.15.994-.928 1.928-1.033 2.695-.189.66-.413 1.288-.594 1.98-.251 1.126-1.268 2.942-1.533 4.408-.296 1.317-.946 2.882-.99 3.497-.126 1.67-.768 1.832-.548 3.373-.604 1.106-.484.504-.505 1.979-.675 1.459-.779 2.983-.795 4.669.322 1.111-.66 3.21.062 1.977 1.213-.428-.233.144 1.028-.492.739-.976 2.308-2.096 2.102-2.176a76.051 76.051 0 0 1 3.996-3.23c-.002.058 1.662-1.815 2.21-1.905 1.231-1.388 2.531-2.3 3.59-3.111 1.427-1.327 2.664-2.765 3.826-4.282 1.09-1.569 2.225-2.642 3.421-3.7 1.155-1.034 1.6-2.001 2.67-2.945.766-1.485 1.973-3.226 2.697-4.42.844-1.533 1.436-3.19 2.343-4.685.564-1.493 1.472-2.835 2.012-4.277.521-1.47.802-3.42 1.564-4.515-.206.892.071-3.218 1.316-1.863-.101.739-.61 3.207-1.006 2.746.77-.439-.601 1.918-.512 2.623-.186 1.816-1.526 3.059-1.948 4.759-.868 1.346-1.428 2.78-2.16 4.183-.604 1.475-1.579 2.699-2.313 4.105-.835 1.49-2.584 3.32-3.119 4.033-1.38 1.553-2.092 1.88-3.168 3.218-1.184 1.277-2.039 2.867-3.312 4.082-1.216 1.323-2.454 2.179-3.731 3.272-1.19 1.108-2.477 2.116-3.625 3.305-.397.085-1.85 1.518-2 1.637-1.542 1.19-2.71 1.866-3.315 3.062-.49.31-1.959 1.685-2.008 1.209.596.047-.625.26.087.168-1.75 1.478-2.047-1.018-1.715-2.26-.22-2.11.406-4.063.795-6.043.543-1.536.725-3.139 1.042-4.788.666-1.842 1.023-3.788 1.788-5.631.457-.394.09-.549.38-1.16l.25-.785c.439-1.548.83-3.154 1.726-4.548z"/>
            <path d="M84.255 113.987c-3.443-.908-5.457 3.277-8.036 5.603-1.156 2.607-3.033.952-.849-.543 2.387-2.232 4.33-5.69 7.825-6.134.77-.142 2.37.264 1.06 1.074zM81.174 119.026c-3.27.578-5.893 3.814-8.29 6.648-1.928-.955 2.338-4.067 3.676-5.075.4-.848 5.652-4.201 4.614-1.573zM73.205 152.22a760.887 760.887 0 0 0-9.303 7.833c.485.22-5.216 3.299-2.582.624 2.592-1.673 4.97-3.907 7.485-6 1.007-.42 3.677-4.376 4.4-2.457z"/>
            <path d="M66.1 159.797c-2.246.608-5.058 5.434-6.843 4.006 1.815-.89 5.257-5.4 6.842-4.006z"/>
            <g>
                <path d="M60.768 161.536c.122 2.758 1.462 5.452 3.074 7.713.913 2.617 3.123 4.484 4.76 6.639 2.105 1.392 3.794 3.177 6.013 4.346 2.954.716 5.836 1.85 9.03 1.93 3.572.766 7.221.56 10.866.565 2.536.145 5.467-.816 8.46-.718 2.947-.63 5.974-.394 8.962-.791 2.938-.45 5.883-.772 8.792-1.4 2.494-.41 5.06-2.313 7.221-2.601 1.936-.95 3.338-2.486 5.076-3.26 1.103-1.052 2.731-2.862 4.342-4.282 1.424-1.826 2.859-3.843 3.446-6.142.379-1.376 1.01-3.234 1.4-.882-.836 2.772-2.17 5.443-4.072 7.625-1.716 1.35-2.919 2.997-4.15 4.046-1.613 1.132-3.522 2.442-4.925 3.349-2.514.831-4.593 1.983-6.975 2.75-2.427.981-5.118.875-7.66 1.398-2.9.92-6 .287-8.933.94-3.01.026-5.885.736-8.934.715-1.25.541-5.567.112-7.916.246-2.997-.113-5.957-.699-8.939-1.047-2.61-.953-5.454-.94-7.618-2.916-2.164-1.536-4.482-3.259-6.178-5.44-1.877-2.307-3.44-4.778-4.62-7.47-.283-1.663-2.98-4.334-.598-5.263z"/>
                <path d="M138.742 162.584c-1.369 3.006-2.904 6.223-5.887 7.779-1.487.954-.573 1.186-2.362 1.415.056-1.283 1.469-1.763 3.164-3.16 1.385-.354 2.166-3.115 3.477-4.689.324-.573.68-2.715 1.608-1.345zM138.556 168.432c-3.194 2.013-5.45 5.203-8.57 7.278-2.8.311 1.621-2.02 2.678-3.578 1.477-.559 4.457-5.584 5.892-3.7z"/>
            </g>
        </g>
        <path d="M111.18 110.91c1.58-3.416 4.953.39 4.267 1.997 1.78 2.867-1.835 5.095-3.8 2.63-1.664-.825-2.259-3.569-.183-4.93 2.717-.58-1.329 1.754-.31 3 .878 1.667 4.442 3.648 3.627.157-.086-1.67-1.606-4.762-2.438-2.657-.195.678-1.274.472-1.162-.196z"/>
        <path d="M113.452 113.51c3.507 2.694-3.976 2.22-1.69-.95 2.033-2.653 3.349 3.283 1.452 1.416-.31-2.563-1.563.859.316.511.422 1.098-1.152-.918-.61-.766l.27-.222.262.01zM90.005 111.145c1.442-2.862 4.529-.426 4.95 1.56 1.739 3.034-1.73 6.09-4.012 3.789-2.092-1.1-2.236-5.59.254-5.8-.057-.593 2.187.371.541.745-1.873-.16-1.878 3.541.177 4.64 1.517 0 2.906.803 2.151-1.854.474-2.31-1.786-2.932-2.039-3.763-.703.208-1.392 2.105-2.022.683z"/>
        <path d="M93.189 114.146c1.922 3.793-5.663.756-2.116-1.745 2.62-1.922 3.133 3.91 1.795 1.92-.65-3.278-2.769.694-.352.562 1.172 1.825-1.4-1.058.673-.737z"/>
    </g>
</svg>
