<svg xmlns="http://www.w3.org/2000/svg" viewBox="0 0 198.4375 187.85416" height="710" width="750">
    <g stroke-width="1.325">
        <path d="M94.658 44.24c.414 16.678 3.215 33.357 6.255 50.035-.394.984-.283-20.555 2.001-32.273 1.983-10.175 4.003-22.015 4.003-22.015-5.103 1.81-12.071.814-12.259 4.253z" fill="#00c8e1" fill-rule="evenodd"/>
        <path d="M90.119 98.425s-8.375 17.01-16.488 25.647c-8.113 8.636-17.796 20.413-17.272 28.788.523 8.374 2.093 11.776 2.093 11.776s21.198-13.085 23.554-21.721c2.355-8.636 9.945-34.284 9.945-34.284l-1.309-4.187zM109.485 100.519s12.823 13.085 18.057 20.15c5.235 7.067 15.703 17.535 16.488 22.508.785 4.972-.785 18.58-.785 18.58s-5.758-.785-12.562-5.495c-6.804-4.71-8.113-7.328-9.945-12.562-1.832-5.234-5.757-27.48-5.757-27.48z" fill="#917c6f" fill-rule="evenodd"/>
        <g stroke-width=".615">
            <path d="M96.063 30.683c-2.564-.784-4.006 1.348-5.562 1.872-2.334 2.266-3.146 4.131-3.918 7.827-.494 6.042 1.285 11.27 3.554 16.208 1.859 7.571 1.285 15.412 1.742 23.14.841 3.046.704 5.92 1.562 9.142.758 4.062-2.907 8.474-1.035 2.7-.09-4.725-.948-9.12-1.75-13.695.04-8.235.365-17.17-2.866-24.56-1.76-4.11-2.828-9.087-1.94-13.692.024-1.427 1.325-4.997 2.194-5.36.937-2.596 4.378-3.714 5.965-4.51 2.595-.014 7.359-2.069 2.054.928z"/>
            <path d="M97.713 29.13c3.984-.457 8.455.078 11.961 2.772 2.287 3.234 4.979 7 4.86 10.767 1 7.897-4.013 14.99-3.86 22.797-.013 5.476-1.385 10.752-1.246 16.28.257 4.419 1.27 9.056 1.227 13.022.732 4.3-.953 2.528-1.222-1.19.573-5.245-1.796-9.947-1.016-15.244.89-4.869 1.076-9.7 1.258-14.72.519-3.175 1.017-6.673 2.454-9.63.638-2.155.77-3.511 1.279-6.142.978-4.788-.133-9.825-3.387-13.659-1.757-3.827-6.944-4.012-10.388-4.31.058-.043-3.385.947-1.92-.742zM95.131 46.817c1.316 7.521 1.367 15.195 1.344 22.817.43 4.227 1.355 8.217 1.929 12.373-.136 3.564.736 6.624 1.518 10.506.306 7.571-1.331-2.705-2.25-5.194.294-5.763-1.638-11.207-1.96-16.95-.727-7.26.307-14.806-1.505-22.025-.815-.449.176-2.4.924-1.527z"/>
            <path d="M105.886 47.4c-1.294 7.623-2.882 15.406-4.288 23.053-1.733 6.668-2.87 13.9-1.318 20.673.46 7.5-3.01-6.575-1.6-8.82.153-5.13 1.403-10.267 2.75-15.39.79-6.546 2.582-13.048 3.525-19.581l.484-.23.447.295z"/>
            <path d="M106.014 45.488c.604 5.263-2.939.45 0 0zM94.146 48.692c.929 3.779 1.193 18.594-.182 7.848.209-1.845-1.934-7.986.182-7.848zM90.735 36.996c2.493 2.325 2.672 2.097 6.277 3.435 3.027.23 2.04-.77 6.291-.887.642-.235 1.522-.572 4.375-1.047-2.51.714 2.879-1.25.989-.53.764.499.944-2.204 3.453-.1-1.993 3.184-2.28 1.203-4.153 2.86-.783.11-3.428.65-5.564 1.196-3.134.342-5.535 1.59-9.872-.547.99-.151-6.721-3.165-1.796-4.38zM60.706 162.185c.464.954 1.14 1.803 1.51 2.797.119.495.471.863.698 1.303.448.87-.049-.014.376.725.175.287.56.408.748.678.25.359.356.81.543 1.202.053.097.091.204.16.29.017.02-.007-.083.016-.073.071.031.122.098.174.156.243.267.424.527.592.85.055.095.102.196.165.287.119.17.32.271.432.445.242.373.323.796.582 1.16.226.24.53.42.69.718.08.147.104.319.173.471.088.197.264.452.384.636.14.182.378.25.532.413.126.134.22.294.33.441.279.373.556.73.81 1.12.34.37.787.606 1.162.937.139.122.25.272.392.39.069.057.676.447.763.503.165.094.677.393.837.445.15.048.313.037.468.067.191.039.382.082.568.14 1.384.424-.105.053 1.095.335 1.195.26 2.106.945 3.343 1.04 1.105.214 2.16.626 3.276.78.226.058.449.125.677.174.594.126.553.033 1.134.254.19.072.36.188.55.262.104.041 1.047.293 1.06.297l.609.072c.181-.002.364-.025.545-.006.2.02.391.092.59.122.206.031.418.017.622.06.433.094.894.317 1.297.491 1.215.287-.015.036 1.144.163.2.022.396.075.596.103.48.067.95.068 1.432.053 1.176.392 2.389.285 3.6.22.611.014 1.223-.015 1.833-.003.245.005.923.062 1.182.026.193-.027.377-.103.565-.155.84-.242 1.7-.19 2.559-.146.23.012.461.048.692.033.235-.016.465-.085.697-.127.224-.05.446-.12.674-.149.903-.116.516.045 1.375-.053 1.574-.18-.38-.07 1.212-.219.236-.022.474-.017.71-.025.221 0 .442-.003.663.001.191.004.383.037.574.022a22.3 22.3 0 0 0 1.152-.25c.171-.05.33-.138.501-.184.23-.062.466-.092.699-.137.854-.266 1.748-.357 2.625-.51.42-.073.834-.184 1.251-.275.392-.152.818-.144 1.22-.244.174-.043.333-.13.505-.176.178-.047.364-.059.542-.103 1.19-.298-.447-.007 1.15-.255.646-.224 1.358-.201 2.004-.418.173-.058.328-.161.493-.24 1.158-.555.063-.017 1.202-.58.21-.058.42-.119.63-.173.173-.045.35-.072.52-.125.465-.142.48-.203.922-.421.196-.097.602-.27.805-.359.701-.254 1.279-.693 1.944-1.02.398-.196.811-.361 1.213-.55.398-.428 1.02-.518 1.519-.773.338-.173.362-.13.238-.232.844-.562 1.47-1.366 2.261-1.985.341-.283.766-.434 1.124-.69.03-.021-.005-.082.02-.111.086-.103.208-.17.3-.268.1-.105.334-.465.4-.564.079-.113.14-.24.235-.339.342-.35.494-.377.886-.62.38-.237.707-.484 1.013-.809.514-.642 1.07-1.336 1.335-2.125.265-.424.17-.868.218-1.328.05-.485.196-.941.4-1.377.028-.108.042-.222.085-.326.057-.14.271-.455.3-.647.014-.083-.027-.168-.014-.25.047-.292.158-.57.231-.857.01-.116.005-.233.027-.346.033-.171.098-.335.137-.504.11-.27.075-.564.137-.84 1.402 1.504 2.514.981.981.435-.076.446-.26.854-.271 1.31-.031.154-.054.31-.093.463-.023.094-.078.18-.093.275-.024.165.004.334-.022.498-.064.394-.135.273-.28.627-.059.147-.09.303-.137.455-.57.762-.197 1.751-.58 2.591-.315.894-.903 1.666-1.444 2.437-.143.158-.268.335-.429.475-.112.098-.259.149-.382.233-.122.084-.23.187-.352.271-.22.15-.488.226-.696.392-.092.073-.15.18-.225.27-.172.252-.302.536-.502.766-.08.09-.197.137-.289.215-.24.204-.457.435-.705.629-.149.116-.515-.215-.497.272-.129.087-.269.16-.387.26-.281.24-.507.538-.767.8-.338.342-.296.292-.69.598l-.358.277c-.469.367-.564.504-1.055.711a1.492 1.492 0 0 1-.353.11c-.023.004.052-.072.032-.06-.137.08-.26.18-.39.27l-.743.41c-.463.214-.963.4-1.406.655-.58.336-1.133.722-1.77.946-.916.42-1.83.835-2.821 1.05-.608.298-1.229.635-1.88.827-.675.199-1.388.217-2.061.424-.741.138-1.452.371-2.186.535-.186.042-.38.048-.565.09-.221.048-.436.12-.654.18-1.29.229-2.584.416-3.85.752-.85.212-1.675.511-2.56.554-.179.009-.358-.023-.537-.026-.201-.004-.403.004-.604.006-.661.059-1.31.187-1.97.25-.648.062-1.31 0-1.941.212-.285.035-.567.091-.853.104-.232.01-.463-.029-.695-.037-.798-.028-1.582-.044-2.357.186-.243.04-.484.097-.73.117-.187.016-.376-.01-.565-.009-.804.001-1.607-.014-2.41.004-1.218.07-2.431.11-3.618-.228-.773.043-1.346-.072-2.101-.167-.233-.029-.47-.03-.7-.072-.245-.045-.481-.127-.722-.19-.168-.084-.327-.187-.504-.25-.967-.347-2.038-.22-3.027-.448-.492-.126-.74-.172-1.2-.353-.55-.216-.323-.209-.91-.349-.202-.048-.41-.069-.612-.11-.21-.043-.417-.096-.626-.144-1.104-.186-2.167-.553-3.266-.769a6.813 6.813 0 0 1-1.622-.428c-.185-.076-.352-.193-.536-.27-.512-.216-.726-.24-1.268-.362-2.292-.597 1.013.29-1.07-.353-.738-.228-1.524-.272-2.146-.796-.274-.199-.571-.365-.834-.578-.132-.108-.231-.251-.36-.363-.441-.38-.971-.656-1.32-1.14-.463-.713-.979-1.37-1.62-1.928-.294-.39-.323-.378-.515-.825-.055-.128-.067-.321-.182-.43-.1-.095-.227-.162-.327-.258-.11-.104-.2-.228-.3-.342-.196-.328-.273-.414-.392-.77-.028-.081-.003-.183-.055-.254-.085-.116-.232-.173-.332-.278-.22-.232-.282-.389-.425-.661-.112-.25-.284-.438-.465-.643-.103-.117-.564.205-.344-.315-.051-.07-.062-.163-.093-.244-.182-.323-.264-.415-.357-.764-.017-.064.02-.146-.02-.199-.185-.246-.825-.535-.917-.903-.59-.925.018.087-.384-.741-.24-.495-.691-.887-.782-1.46-.123-.53.013-.108-.356-.724-.402-.672-.774-1.364-1.15-2.052.557-1.36-.382-1.178.96-.364z"/>
            <path d="M80.531 117.788c-1.933 2.284-5.484 5.988-8.037 8.928-4.779 5.44-9.27 11.223-12.852 17.53-2.163 5.562-4.91 11.108-4.321 17.208.207 5.06-2.26 3.886 1.275 1.888 3.512-1.077 6.09-2.5 8.824-5.028 3.883-3.633 7.68-8.747 10.852-13.41 1.276-3.905 3.676-5.05 5.233-9.005 1.07-2.838 4.95-13.644 3.16-4.927-1.694 4.347-3.543 8.68-6.37 11.58-.456 2.187-3.62 7.119-6.09 9.499-2.61 3.32-5.412 7.262-8.836 8.912-2.774 2.31-6.962 3.707-9.377 4.3.683-4.261.005-8.605 1.271-12.41 1.475-3.859 2.88-7.86 4.89-11.777 4.368-6.17 8.796-12.243 14.058-17.68 2.118-1.885 5.786-7.535 5.792-5.517zM125.253 122.41c4.183 3.192 7.146 8.319 10.24 11.9 2.34 3.232 6.37 5.117 7.198 9.465 3.925 5.942 2.506 13.95 2.453 20.996-1.95 3.377-3.468-2.616-6.46-2.245-4.291-1.298-8.84-3.661-10.523-8.458-3.472-4.06-4.47-9.025-6.139-13.894-.417-2.748-2.08-6.25-3.005-9.61-1.954-7.407 2.647 3.112 2.965 5.614 1.364 4.312 2.219 8.746 4.185 12.661 2.372 4 4.7 9.546 9.113 11.283 2.58.909 9.003 3.29 8.356 5.166 1.48-4.12.712-11.137.201-16.205-.771-3.138-2.567-6.183-4.255-9.237-5.95-4.63-9.245-11.97-14.765-16.554-1.47-.435-.738-2.426.436-.882z"/>
            <path d="M91.923 95.474c-.743 4.068-3.134 9.51-4.948 12.224-1.896 3.95-3.865 7.668-6.479 9.531-2.255 4.059-3.168 1.132-.372-.864 1.85-1.483 2.743-3.266 3.526-4.24 1.175-2.536 2.506-4.785 3.275-6.272 1.578-2.274 2.365-6.054 3.607-8.291-.034-.892.147-3.29 1.39-2.088zM80.063 120.034c-5.074 4.412-9.704 9.608-13.555 15.089-1.224 2.058-8.059 14.678-4.414 6.129 2.97-8.17 9.72-13.877 15.237-20.42.726-.174 2.249-2.482 2.732-.798z"/>
            <path d="M92.837 98.928c-1.723 3.755-3.822 8.97-6.44 13.468-2.45 3.559-2.758 1.48-.643-1.05 1.939-3.261 3.532-6.696 5.027-10.2-.067.768.718-4.032 2.056-2.218zM58.053 161.268c3.293-1.401 5.695-2.982 8.682-4.64 1.501-1.564 4.59-4.803 6.378-6.795 3.932-2.44-2.059 3.743-3.197 4.85-1.996 2.379-3.597 3.313-6.71 5.06-.568-.43-5.415 4.23-5.153 1.525zM111.003 97.087c.203 2.807.716 4.11 2.238 6.464 1.988 3.642 4.152 7.377 6.914 10.613 1.5 2.965 3.7 5.525 6.109 8.393-2.622.986-4.81-5.475-6.745-7.321-2.023-2.805-4.442-6.101-6-9.086-1.907-2.9-3.356-5.69-3.457-8.743l.381-.424.56.104z"/>
            <path d="M90.859 73.415c.498 3.345.12 6.131 1.108 10.464.28 6.384-1.062 12.393-1.766 18.563-2.19 6.27-.834-1.906-.339-3.968-.093-3.974 1.304-6.653 1.055-11.25.088-3.307-.937-10.513-.655-11.317.31-.705-1.298-3.147.597-2.492z"/>
            <path d="M89.938 64.305c.132 2.633.766 4.654 1.262 8.17 1.357 5.998-1.48 5.45-.955-.376-1.061-4.571-.678-5.16-.307-7.794z"/>
            <path d="M89.03 58.758c.09 1.93 2.815 10.359.031 5.404.047-1.141-2.222-5.873-.03-5.404zM109.618 36.983c-.75.404-1.458.922-2.279 1.17-.244.091-.834.233-.83.04.183-.119.814-.223.331.071-.455.416-1.085.677-1.706.535.27-.086.58-.067.138.078-.279.078-.792.44-.88.384.437-.102-.433.435-.654.332-.588-.003-1.174-.185-1.76-.041-.502-.04-1.353-.479-.78-1.042.387-.546.871.272 1.394-.023.34.022 1.062-.004 1.17.173-.5.28.381-.276.518-.39.291-.255.778-.269.32-.124.316-.18 1.113-.723 1.183-.6-.28.166-.469.377-.022.23.003.17.39-.378.693-.13.548.123.188-.564.723-.47.697-.155 1.255-.732 1.912-.897.267.078.693.387.529.704z"/>
        </g>
        <path d="M91.663 40.773c-1.33-2.431-3.58.615-3.02 3.165 1.202 2.003 5.4 3.07 5.778-.484-.313-2.467-5.36-2.39-3.633-3.752 2.089.591 6.236 2.785 3.78 5.518-2.19 3.972-8.781-.415-6.717-3.719-.603-2.34 5.935-3.489 3.812-.728z"/>
        <path d="M90.863 43.459c1.866 2.77-.024-2.125-.31-.667-.819 4.11-1.052-4.312 2.108.133 1.57 1.437-4.664 4.118-1.798.534zM106.96 40.215c1.514-3.465 5.238-.723 5.008 2.565 2.12 5.156-7.596 4.39-5.796-.977 2.261-3.968 1.463-1.344 1.03 1.807.041 1.882 3.338 2.145 3.914 1.273.332-1.56-.138-5.711-3.01-5.673 2.155-1.402-.652 2.632-1.146 1.005z"/>
        <path d="M108.222 42.068c5.638-2.808-1.923 6-.524-.47 3.777-1.617-1.612 2.083 1.74 1.656.376-3.335.21.565-1.216-1.186z"/>
    </g>
</svg>
