<svg xmlns="http://www.w3.org/2000/svg" viewBox="0 0 198.4375 187.85416" height="710" width="750">
    <g stroke-width="1.325">
        <path d="M88.362 121.132c-1.332 6.193-8.207 18.843-11.43 21.709-3.15 5.364-13.214 9.26-16.297 12.276-2.241 2.256-5.934 5.042-5.934 5.042s1.464-19.026 3.659-22.684c2.195-3.66 20.977-22.685 20.977-22.685l8.78-7.805zM122.022 110.4s12.928 8.293 15.123 12.927c2.195 4.635 10 20.49 9.269 23.173-.732 2.683-1.707 8.049-2.195 10.488-.488 2.44-2.196 3.415-2.196 3.415s-15.122-10.489-17.318-15.123c-2.195-4.634-4.878-19.27-5.122-20.49l-3.659-18.293z" fill="#917c6f" fill-rule="evenodd"/>
        <path d="M95.435 71.13h4.879c1.951 0 6.83-2.44 6.83-2.44-.123 1.59-1.207 3.394.243 4.635l-6.342 18.293L96.9 78.691l-2.37-4.121c.364-.647.73-1.28.906-3.44z" fill="#00c8e1" fill-rule="evenodd"/>
        <g stroke-width=".615">
            <path d="M89.675 80.243c-2.142-4.089-3.22-9.11-2.408-13.867 2.262-2.887 2.385-2.985 5.78-4.849.963-.803 4.745-1.263 5.752-1.784 4.112.8 9.286-.788 12.28 2.561 3.88 3.94 5.601 11.504 2.7 16.806-1.458-1.948 2.095-6.637-.046-10.029-.869-3.04-2.678-6.277-5.21-7.458-2.942-.58-7.543-.756-9.551-.92-2.21.377-4.97 1.293-5.768 1.649-1.896 1.144-3.385 2.168-4.455 3.48-2.093 3.37-.097 8.135.802 11.904.087.679 2.101 2.972.124 2.507zM60.711 155.952c-.256 3.605 2.167 7.473 3.847 10.97 1.81 4.495 4.941 8.68 9.356 10.828 5.653 3.674 12.754 4.939 19.502 4.735 4.466 1.118 8.543-.27 12.495-.753 3.5-.257 5.401-.487 7.858-1.038 1.145-.971 5.8-1.032 8.192-1.483 1.811-.894 4.682-1.327 5.637-2.53 2.354-1.344 4.21-2.847 5.685-4.004 2.944-1.394 6.117-7.005 7.939-9.854.61-1.18 1.21-1.26 2.305-1.927-.959 1.926-2.24 3.59-3.074 4.612-1.544 3.256-3.577 6.245-6.421 7.525-1.172 1.625-5.126 3.727-7.016 5.245-3.767 2.105-9.036 2.365-12.664 2.98-1.703 1.04-5.812.956-10.035 1.571-4.658 1.587-10.277.686-15.37.563-5.666-.231-11.41-2.17-16.145-5.16-1.96-1.124-4.108-2.778-5.405-4.426-3.19-4.274-4.724-8.453-6.906-13.265-.197-.836-2.012-5.623.22-4.59z"/>
            <path d="M90.467 80.274c.878 3.501 1.024 9.422.67 15.043-.764 5.083-.887 10.652-5.04 14.56-2.01 2.173-3.486 2.958-5.335 4.667-2.505 3.363-4.893 4.624-7.661 8.018-2.546 2.672-5.709 5.587-7.782 9.485-3.388 6.5-8.07 12.227-10.527 19.178-2.512 4.64 1.271 10.63-1.26 13.55 1.81-3.075 3.32-5.002 5.333-6.633 3.653-4.138 5.846-4.577 9.666-7.28 3.644-2.26 6.453-5.946 9.281-9.309 2.6-6.144 8.987-9.942 10.602-16.726.041-5.726 2.557-4.75.982.142-1.55 5.745-6.077 9.955-9.428 14.507-2.167 4.604-6.011 8.173-9.744 11.334-1.831 1.333-3.888 2.543-5.37 3.46-2.176 1.418-3.18 2.243-4.591 3.727-2.101 2.163-3.102 2.865-4.463 4.757-2.544 5.707-2.659-1.319-2.571-4.629-1.15-4.956 1.715-10.233 4.023-14.523 3.367-4.636 5.454-9.784 8.755-14.359 1.467-2.688 3.706-4.185 5.44-6.25 1.461-2.175 3.275-3.243 4.484-4.777 1.274-.653 1.92-2.038 3.54-3.7 1.26-.937 2.098-2.14 3.6-2.96 1.371-1.177 4.184-4.115 4.978-6.346 1.177-1.714 1.25-4.735 1.718-6.876.567-4.65.913-12 .104-15.637.259-.7-1.175-3.164.596-2.423zM113.253 79.775c.158 5.536.174 12.218.946 17.03 2.225 6.5 7.49 10.892 12.56 15.353 4.314 4.688 7.494 10.756 11.143 16.104 2.075 6.306 7.055 11.597 6.807 18.526.938 4.077.69 8.605.585 12.814 2.216 6.88-2.661 3.65-5.993 2.202-3.054-.619-5.556-3.695-6.52-5.21-2.86-2.34-5.736-4.418-7.504-7.623-3.708-6.376-7.642-13.505-6.88-21.084 2.061 1.045.372 7.093 2.27 9.682 2.012 4.874 4.807 10.716 8.038 14.38 3.577 2.215 5.524 5.703 8.94 8.097 3.67-.142 9.149 7.589 6.854.798-.494-4.152.451-8.56-.541-12.726.128-5.892-2.86-10.829-5.519-15.882-2.732-6.543-7.159-12.25-11.129-18.145-3.985-4.044-8.895-7.246-11.688-12.294-4.512-5.6-2.16-13.247-3.546-19.892.308-.625-.27-3.306 1.177-2.13z"/>
            <path d="M66.363 129.991c-4.397 4.507-7.35 9.714-8.916 15.758-1.931 6.286-3.23 12.7-2.59 19.365-1.472 4.84-1.06-7.455-.856-9.263.944-5.222 2.6-10.434 4.318-15.559 1.468-4.34 4.65-8.147 7.733-10.748l.31.447zM55.94 164.732c2.378-3.166 6.437-7.603 8.655-10.062 6.068-4.713 11.912-10.326 15.49-17.267 2.743-.737-4.235 8.671-6.638 10.599-2.615 3.76-7.56 5.74-9.723 9.087-2.604 2.138-5.147 7.44-7.784 7.643zM120.595 134.043c1.74 4.731 4.08 9.345 7.602 12.986 1.845 4.248 3.761 8.699 7.742 11.12 5.601 3.358-4.008-.289-4.644-2.81-2.358-4.28-4.212-8.707-7.507-12.374-1.02-2.035-5.01-7.805-3.193-8.922zM135.705 169.386c-3.626 3.924-8.038 7.186-12.74 8.313-.408.88-6.764.798-7.867.616 2.628-2.093 6.898.02 8.82-1.819 4.385-1.31 7.752-4.46 11.215-7.75.268.068.689.285.572.64zM87.222 68.528c-.234-2.975 6.433-8 2.904-3.168-1.665.255-1.224 4.538-2.904 3.168zM94.978 75.58c1.593 2.813 2.869 5.198 4.038 8.896.131 3.958 1.419 8.266 2.198 11.224-.086 4.723-.607-7.421 1.081-9.691 1.143-4.35 2.622-8.937 4.433-12.978 1.734 1.042-1.018 3.458-1.084 5.422-.876 1.932-1.444 5.045-2.358 7.437-1.57 3.797-.66 8.12-1.645 12.064-2.473-.614-1.419-5.347-2.93-8.009-.41-3.769-1.065-7.389-2.77-10.726.294-.517-3.509-3.413-.963-3.64z"/>
            <path d="M96.163 80.346c1.865 3.837.175 6.83-.56 1.355-.838-.425-.2-1.924.56-1.355zM92.298 67.537c.867 1.275 2.027 1.971 4.736 2.218 1.191.1 7.17-.29 4.048.404 3.987-1.482.134-.147 3.643-1.204-1.365.378.164-.126 1.376-1.038-2.177.911 2.875-1.426.857-.636-.05-.321 3.903-2.204 2.24-1.254 4.043-.302.506 2.926.138 2.414-2.662 1.792-3.514 2.435-4.38 2.6-2.408 1.083-.1 0-2.314.901-.344.598-10.96.179-10.36-1.107-1.994-.635-3.198-4.015.017-3.298z"/>
            <path d="M107.163 66.212c-2.538.86-1.413 1.544-4.36 2.557-5.2-.587.556-.883 1.302-1.555 1.907.448-.176-1.44 3.069-1.254l-.012.252z"/>
        </g>
        <path d="M90.53 70.564c.461-4.421 5.277-.268 5.228 1.698-.156 3.624-3.866 4.375-5.806 1.51-2.071-2.211 1.73-6.19 2.128-4.182-1.647 1.151-2.075 1.31-1.173 4.04 1.848 1.863 4.32.886 3.812-1.162-.481-1.914-3.4-4.77-3.203-1.787-.16.374-.92.284-.986-.117z"/>
        <path d="M92.96 71.9c2.66 5.037-5.761-2.286.48-.826.469 4.516-2.012-1.79-1.21 1.212 2.391 1.679-1.156.265.73-.386zM106.456 71.1c-.942-3.338 2.651-4.644 4.752-2.05 1.897 3.001.438 6.697-3.165 5.29-4.061-1.257.222-7.04-.743-4.41-1.38 3.107 2.678 4.739 3.891 3.092.416-2.076-1.725-6.127-3.423-3.838-1.654-1.687.925 2.717-1.312 1.915z"/>
        <path d="M108.112 70.318c5.522-2.135.303 6.22-.565.52 2.65-1.872 1.372.143 1.15.408 1.079 2.862 2.497-1.041-.585-.928z"/>
    </g>
</svg>
