<svg xmlns="http://www.w3.org/2000/svg" viewBox="0 0 43.251283 79.926929" height="302.086" width="163.469">
    <g fill-rule="evenodd">
        <path d="M12.44 32.138l-7.977 5.878c-.183 1.248.988 2.496 1.644 3.743l1.12-.35.175-.874 6.612-5.878c-.077-1.048-.133-2.107-1.574-2.519zM1.56 40.325l2.763 2.974S1.21 46.238 1.21 46.098c0-.14-1.224-2.45-1.05-3.604.176-1.155 1.4-2.17 1.4-2.17z" fill="#a00"/>
        <path d="M27.834 47.287l-4.023-6.61c-.693.49-1.682.742-1.54 1.819.633.637 1.684 3.081 3.593 4.763-.126 1 1.537.909 1.97.028zM29.023 49.456l3.394 4.758-1.295.98-3.743-5.108z" fill="#ffe62e"/>
        <path d="M32.942 70.694c.01-4.043-.691-4.273-1.203-5.52-.842-.818-2.007-.56-3.034-.758l.026 1.831-2.014-.052-.157-.942-.654.236-.811-.759-1.674-.47-.184 1.595-1.988.13-.314-1.464-1.334.183-.549.916.47 4.525s-3.007.968-3.452 2.485c-.445 1.517-.968 2.878 2.197 3.296 3.165.419 6.017.183 6.017.183l1.439-.967c-.185.079.462.974.706 1.124 1.072.659 7.205.087 7.429-1.255.427-2.747-.442-3.178-.916-4.317z" fill="#a80"/>
        <path d="M22.199 41.727l1.575-1.085-1.05-2.031-2.171 1.54z" fill="#faa"/>
    </g>
    <g fill="#333">
        <path d="M28.962 11.428c-.55 1.235 1.477 2.337 1.765 3.665 1.181.914-.318-1.963-1.058-2.422-.228-.392-.271-1.028-.707-1.243zm-8.027 3.233c-1.413 1.165-.43 4.225 1.44 4.34 1.976-.143 3.273 1.85 5.214 1.935-.608-.941-2.155-1.052-3.085-1.832-.96-.874-2.665-.016-3.316-1.397-.932-.934-.031-2.37-.253-3.046zM29.902 18.545c-1.197-1.865-.643.656-1.411-.185-.686-2.273 3.016-.005 1.411.185zM30.94 17.741c-1.195-1.817 1.095-.816 0 0zM22.96 10.643c.916-1.096 3.578-1.413 3.714.434.326 1.663-2.02 1.938-3.22 1.79-1.834-.443.453-3.42-.234-1.213-.06 1.41 2.078.733 2.815.232.723-.436-.136-2.145-1.105-1.608-.72-.489-1.82 1.407-1.97.365z"/>
        <path d="M26.688 10.125c.011-1.515 2.153-1.984 3.194-1.345 1.405 1.691-1.004 3.367-2.6 2.674-1.025-.48-.143-2.304.047-.63.623.698 2.216.144 2.499-.694.124-.901-.608-1.484-1.473-1.093-1.23-.348-.963 1.728-1.667 1.088z"/>
        <path d="M26.347 10.578c1.101-.987.362 1.11 0 0zM24.258 11.162c1.622-2.032 1.33 1.443.547.027.344-.414.27-.467-.38.176l-.135-.09-.032-.113zM27.646 9.95c2.246-1.449-.087 2.046.569-.203.49.395.09.487.036.246-.061.395-.67.316-.605-.043zM23.645 8.234c-.549-.647-1.694 1.852-1.13-.205.256-1.256 2.553.244 1.13.205zM25.59 7.909c.821-1.613 2.894.375.901-.201-.332.125-.727.984-.901.2zM22.6 11.871c-1.198.14-4.1-.962-4.173.583-1.596-1.07 2.227-1.548 3.471-1.129.35.023 1.28.015.703.546zM28.41 4.267c3.06-2.474 3.775 2.988 1.77 2.618 1.4-1.377 3.708.226 2.334 2.032-1.143-.558 3.738-.343 1.562 1.695-1.086 1.604-2.682-.328-.524.126.901 1.467-.605.841 1.133 1.48-1.17 1.633-.226.182.513 1.783-.38 2.006-3.89.052-1.024.674-.064 1.124.82 2.006.42 3.398-.366 1.327-.134-1.56-.75-2.046.707-1.342-1.95-1.477.55-1.589 1.213-.972-1.85-1.11-.181-2.172-.795.045-1.145-1.658-1.37-1.413 2.223-.73.783-2.529-.875-1.83.429-.513.876-2.156-.103-2.183-1.826.612-2.06.342-.954-1.177.896-2.535-2.383-.496-2.501-1.396z"/>
        <path d="M28.335 3.899c2.26-1.086-.319-4.317-1.184-1.939-.45-.94-1.57-1.636-2.315-.577-.656-1.285-2.08.48-2.92-.746-.764 2.803-1.849-2.243-3.037.625.261 1.55.36 3.11-.548.794-1.731-1.244-1.249 2.277-2.357.05-2.201.065.458 3.205-1.036.6-1.764-1.934-2.122 2.962-1.704 1.569-2.583.646.48 1.515.65 1.732-1.316.598-3.22 1.743-1.732 2.05-1.904.866-2.166 2.913-.158 1.8-.52.516-3.135 2.557-.674 2.28 3.19-1.615-2.366 1.892-.157 1.424.285.946-.88 4.12 1.54 2.192-.444-1.207-3.621 2.17-1.376 3.06-.475 1.273-1.727 2.213.144 2.786 1.476.987 1.231 2.437 2.577 3.195.74 1.237-.415 2.004-.275.36-1.549-.244-.47-2.169-1.772-2.322-1.392-1.345-2.767-2.128-1.152-4.06-3.046-1.7 3.864-5.491 1.722-2.503-2.457 2.088-1.854-2.094-1.633-2.288-2.778-.574 3.99-3.627.663-1.613-2.931 1.445-1.304-3.063.227-2.217-2.338 1.865-1.912-1.86-.007-2.363-1.064 1.157-.333-1.612 1.241-1.792 3.244-.622-2.63.946-.98-1.633 1.349-1.932 2.326 1.774.611.261-1.257-3.505 4.578-2.567 2.567-.503-2.71-2.054 2.805-3.1 1.312-1.027-.812-3.765 4.255.34 2.173.063-1.759-2.353 2.532-4.964 2.575-1.43-1.826-1.375 2.9-1.782 1.347-.538.652-2.59 3.57 1.315 2.025.038.549-2.584 3.283.852 2.174.321.882-2.411 4.672 1.096 1.62 2.7-.098-.07-.244-.216-.15-.35z"/>
        <path d="M15.087 15.55c-2.344.474 2.178.727-.094 1.957-2.634 1.308 2.363 1.145-.215 2.42-1.265 1.177 1.887.603.823 2.254 1.467.34.923.713.783 2.06 1.684.098 1.934.81.09.545-1.903-1.04 1.53-3.17-.3-1.855-1.418-.476-.331-2.135-2.183-2.28.488-1.364 2.082-1.534-.177-2.094.258-1.085 2.655-2.107.193-2.386-.652-.576 1.59-1.628 1.08-.621z"/>
        <path d="M18.158 13.835c-1.855 1.578 1.974.847-.414 1.275-1.886 1.232 1.628 1.175-.44 2.18 2.433.117-2.075 2.223 1.136 2.056-1.276 1.408 1.416 1.926.399 3.393-.088-1.06-.872-1.516-1.196-2.52 1.762-1.226-2.42-.333-.314-2.275 2.113-.201-2.04-.14.363-1.541 1.766.931-2.98-.508-.087-1.593 2.723-1.145.187 1.956-.318-.154.019-.31.74-1.852.871-.82zM24.82 4.293c-.493 1.53 2.405-.298 2.265 1.14-1.58-.259-1.028-.46-2.467-.056-.367-.245-.453-1.719.202-1.084zM9.803 28.299c-1.528 1.507-3.124 2.948-4.64 4.467-1.355 2.06-4.24 3.807-4.06 6.453.572 2.862 3.41 4.467 5.341 6.345 1.972.637 4.587-1.763 3.642-3.379-.563.257-2.16 1.57-2.46-.05-.012-.724-.147-1.808-.367-1.833-.156-.018-.37.304-.317.523.136.56-.8 1.06-1.005.55-.207-1.103-2.31-2.773-.765-3.51 1.874-1.856 4.094-3.33 6.199-4.824-1.984.332-4.273 2.63-6.01 4.135-2.32.866-.42 2.885.15 4.3.465 1.575 1.041.082 1.677.35-.474 1.886 2.128 1.852 2.694.989-.039 1.057-2.113 3.064-3.606 2.164-1.738-2.087-4.998-3.536-4.833-6.695 1.256-2.124 2.89-4.084 4.587-5.905 1.278-1.06 2.436-2.238 3.582-3.428.783-.805.274-.563.191-.652z"/>
        <path d="M11.137 32.7c1.07-1.354 2.157-.158 2.465 1.01 1.09 2.026-.976-.406-1.183-1.231-.442-.073-1.256 1.164-1.282.22zM13.825 34.785c-2.032 2.473-4.734 4.234-6.846 6.616-.408-1.12 2.551-2.765 3.439-3.764 1.054-.351 2.635-3.564 3.407-2.852z"/>
        <path d="M13.916 34.844c-.77.506 1.254-1.087.625.51 1.265-.398-.294.882.902.337.384.78-.659.72-.126.368-1.417.268.329-.844-1.197-.56.852-1.312-1.41.56-.389-.82.193-.079.103.133.185.165zM16.135 37.004c-2.17 1.924-4.626 3.545-6.494 5.785-.641-.912 1.698-1.903 2.21-2.826 1.339-.657 3.372-3.29 4.284-2.96zM13.04 36.905c-.87 1.134-5.475 5.066-2.567 2.107.735-.193 2.09-3.015 2.568-2.107zM13.069 38.395c-1.081.922-5.238 3.62-2.032 1.09.542.004 1.844-2.143 2.032-1.09zM1.874 46.518c-.09-.09.635.162.846.41.262.15.892 1.244-.015.572-.432-.542-.798-.494-1.287-.937-.092-.368.453-.316.456-.045zM6.09 45.538c-.367.532-3.858 3.94-2.402 1.823.473-.107 2.154-2.9 2.402-1.823zM3.836 45.153c-1.174 2.31-1.517-.062-.018-.11zM3.893 46.277c-.966 1.232-.4-1.066 0 0zM7.084 45.646c-2.148 1.012 1.515 1.53-1.023 2.264-1.704 1.427 1.099.873-.13 2.394 1.803-.379-1.241 1.874.18 2.627 1.919-1.172 2.528.05 1.482 1.822 1.23 3.335 2.236-1.498 2.89-1.182-.981 1.335-.63 5.82 1.91 3.788.51-2.197.608-1.403 1.065.131 1.4.59 2.492-2.366 2.292.57 1.116 2.73 3.138-2.153 2.338-1.697-1.86 2.644 1.933 4.631 2.441 1.85.051 1.914 1.408 1.559 2.09.49-.474 2.815 4.088 2.467 4.402.355-.187 1.853 1.7 2.774 2.967.835.817 1.18 1.99.62 2.958-.825 2.013 2.631 4.617-1.037 2.386-2.881.91-.044 2.968.993 3.139-.347 1.717-1.201-.457-2.9 1.932-3.866 1.369-1.8-2.99-1.489-.099-2.838.202-1.816 1.617-1.814 2.187-3.598-.233-.407-.12-2.532.387-1.288.52 1.594-1.2.614.035 1.264.464 1.956-3.959 2.429-1.63 2.209.51 1.872-3.538 2.552-.685 2.615 2.15 1.548-3.12 4.12-1.188 3.056 1.074 2.119-1.064 2.476-1.07 3.386-1.785 1.19-3.993-2.177-2.052.332 1.287 3.083-2.183 3.521-3.557 2.579-.092 2.041-3.335 1.28-2.37.42-1.16 2.524-4.674.54-3.18-.62-.373 2.072-5.082 2.44-4.865-.288 1.189-.457-2.369 2.57-2.048-.504 1.288-.813-1.047 2.77-2.249 1.03-1.8-1.03.754-6.234.48-2.453-.205 2.907-4.074 1.82-3.151-.326.343 1.823-4.209.419-2.182-.895.106 3.39-4.798 2.321-3.428-.785-.488-1.62 1.526-2.914.439-.74-.606 3.663-4.571.339-2.376-1.693-1.046.738-3.304.577-2.153-1.692.341-1.772 2.225-.421.215-.427-1.003-1.318 1.154-1.285-.794-1.486-.602-1.84 3.264-2.227 1.043-2.139-.976-.468 1.017-2.694.972-1.447zM31.618 20.821c-1.765 2.458.73-1.626 1.835.443.34 1.76-2.133 2.806.704 1.747 2.612-.9-.393 1.999 1.518.887 3.149.064-1.71 3.475 1.221 3.848-.028 1.917.409-.34 1.516 1.317.059 1.89-2.248 2.812-.343.5-.495-1.058-1.705-.554-1.921-2.037-2.07-.357 2.286-4.153-1.142-3.131-1.39.117 1.311-1.891-.984-1.022-2.44 1.06-1.182-.576-.964-1.984-1.078-.821-3.156 1.829-1.733-.725-.003-.904.283-2.24.612-.566l-.12.33-.2.393z"/>
        <path d="M36.805 31.384c2.905-.416 1.721 4.816.52 4.226 2.62-2.314 5.633 1.88 2.718 2.993.709-1.202 2.122.795.839 1.062 1.303.658 3.687 3.18 1.448 4.272-.135-.608 1.384-2.06-.507-2.934-.814-.922-1.83-1.416-.886-2.304-3.166.806 2.04-2.453-.993-3.21-1.617-.154-3.947 1.299-1.844-1.116 1.292-2.082-1.08-2.135-1.295-2.99zM26.083 23.446c1.58-1.24 3.42 0 1.604 1.183 1.96-.703 1.498 2.093 1.36 1.61 1.835-.323 2.118 2.679.641 2.08 2.084-1.55-2.167-1.4-.9-3.024-2.007.149-1.31-1.2-.672-1.95-.625-.468-2.045 1.065-2.033.1zM21.776 31.22c.292-1.616 2.137-1.473 1.656.155-.472-1.155 1.531-.013 1.01.003.974-1.378 3.197-.088 1.75.64.67-2.264-2.54.72-2.177-.785-1.557 1.403-.652-2.665-1.893.223-.132.099-.39-.077-.346-.236zM22.267 41.623c1.526-1.729 1.905-.105.059.241l-.078-.132.02-.109z"/>
        <path d="M23.587 40.815c-.564-2.076-1.172-2.555-2.778-.84-.588.424 2.63 2.28.697 1.44-2.536-.867-.454-2.427.975-3.05.527-.083 2.054 2.646 1.106 2.45zM22.604 42.452c1.303 1.496 2.165 3.313 3.533 4.742-.374.895-1.817-1.722-2.349-2.35-.035-.788-2.177-2.053-1.184-2.392z"/>
        <path d="M24.009 40.76c1.046 1.613 2.293 3.122 3.04 4.913.29.402 1.414 2.46.43 1.66-.895-1.52-1.525-3.195-2.661-4.57.112-.56-1.909-1.992-.809-2.003zM29.645 49.757c.74 1.647 2.552 2.763 2.875 4.581-.838 1.324-2.044 1.13-2.707-.344-.887-1.282-1.656-2.64-2.586-3.873.795-.39 1.524 1.627 2.058 2.329.21.832 2.304 2.34 1.612 2.614.676-.598 1.796-.63.81-1.71-.434-.958-2.974-3-2.062-3.597z"/>
        <path d="M32.693 54.527c.182 1.16 1.053 3.655-.762 1.951-1.427-.973-.539-1.539.281-.329 1.564 1.557-.134.27.103-1.175-.342-.3.157-.752.378-.447zM25.97 47.402c-.005.704 2.059.38 1.68-.475 1.248-.75-.42 2.32-1.697 1.155-.735.021-.492-1.465.017-.68z"/>
        <path d="M33.445 37.137c.325 2.578.276 5.662-1.489 7.741-1.189 1.031-2.869 1.927-4.45 2.047.005-.181-.19-.402-.049-.502.066-.046.669-.073.755-.108.683-.28 1.927-.265 2.353-.931 2.67-1.522 2.713-5.063 2.55-7.765-.347-.258.077-.754.33-.482z"/>
        <path d="M35.993 36.695c-.493 3.043.327 6.62-1.998 9.091-1.764 1.965-4.058 3.594-6.572 4.437-1.625.582-1.155-1.251-1.732-.614-1.296-1.228.395-2.864.054-.47.608-.124.687 1.278 1.752.623 2.995-1.27 6.075-3.224 7.403-6.326.65-2.24.268-4.694.756-6.913.12-.009.324.01.337.172zM15.395 45.06c-2.391.576-1.473 3.936.071 2.402-.923 1.503-.655 2.86.952 1.677-.925 2.877 3.141-.188 1.374 2.514.197 3.029-1.083-2.196.523-1.17-1.528 2.491-2.863-1.65-2.176-.87-2.392 2.249-1.778-3.178-.394-2.351-1.99 3.214-3.362-2.126-.512-2.606.171-.008.292.292.162.404zM20.832 59.884c.003 1.864.775 4.083.275 5.787-.497-1.196-.368-3.237-.548-4.765.117-.31-.52-1.367.273-1.022zM24.049 61.165c-.007.904-1.109 6.588-.927 3.198.395-.646-.082-3.822.927-3.198zM26 60.82c-.179 1.245 1.55 3.873.387 4.555.3-1.282-1.527-4.275-.386-4.556zM28.935 61.392c.204.904-.274 5.048-.476 2.239.188-.437-.41-2.945.476-2.239z"/>
        <path d="M19.588 65.049c-.915 1.106 2.998.41 3.756.731 1.746-.385 3.377.706.694.43-1.348.124-6.618-.217-4.43-1.27l-.02.109z"/>
        <path d="M26.54 65.456c-1.61.966 2.368.637 2.947.597.472-.226 2.134-.435 1.937-.918-.8-.536-1.985-.292-2.584-.594.735-.703 2.887-.105 3.065.826-.772 1.01-2.326 1.128-3.535 1.179-1.306.588-4.26-.925-1.805-1.336l.03.15-.056.096z"/>
        <path d="M28.903 64.52c.48 2.457-1.312.125 0 0zM26.8 65.318c-.245.826-.839-.508 0 0zM32.048 65.207c.782 1.528 1.375 3.143 1.214 4.895-.495 1.993-.425-1.875-.646-2.557-.055-.54-1.521-2.314-.568-2.338z"/>
        <path d="M28.976 70.645c2.158-1.501 5.609-.188 5.155 2.738.778 2.651-2.412 3.145-4.294 3.288-1.546.351-4.398.138-4.524-1.896.596.016.997 1.761 2.29 1.518 1.9.114 4.007-.065 5.713-.972.936-1.3.524-4.129-1.099-4.694-.947-.745-2.894.769-3.24.018zM25.868 66.144c.29 2.043-1.06 1.607-.354-.131.118-.022.322-.028.354.13z"/>
        <path d="M25.834 67.899c.177 1.22.208 2.493-.13 3.628a25.66 25.66 0 0 0 .201 3.94c-.94-.18-.507-2.433-.635-3.427.063-1.156.397-2.25.207-3.442.007-.335-.265-1.073.357-.699zM19.295 65.706c-.084 1.448.08 2.871.417 4.296-.837.281-.783-2.104-.8-2.818.101-.317-.446-2.208.383-1.478z"/>
        <path d="M22.12 71.135c-1.859-1.704-5.13-.55-5.867 1.78-1.174 1.638.897 2.885 2.387 2.83 2.113.044 4.418.471 6.426-.292 1.425-1.092-.335 1.466-1.46.8-2.485-.017-5.248.398-7.48-.919-1.41-1.138-.121-3.086.724-4.159 1.386-1.472 4.185-1.841 5.575-.26-.047.11-.156.283-.305.22zM19.251 64.644c.993-.68 2.806.068.866.222-.339-.007-1.055.48-.866-.222zM28.901 65.613c-.098 1.491-.97-.657 0 0zM26.846 65.476c.304 1.497-1.173-.294 0 0zM31.772 67.659c-1.742 2.328-1.631-.524 0 0z"/>
        <path d="M31 67.181c1.409 1.087.34 1.82-.385.215-.03-.17.255-.33.385-.215zM31.762 68.97c-1.882 2.068-1.407-.765 0 0z"/>
        <path d="M30.781 68.665c2.587 1.208.112 1.747 0 0zM32.13 67.034c1.709-.954 3.219.235 3.268 1.51 1.967-.22 2.087 1.476 1.575 2.7 1.683-.312 3.588 5.09 1.626 2.182-.284-1.748-3.325-1.77-1.72-3.926-1.298-.533-2.35-.794-2.36-2.142-.408-.936-2.617.723-2.388-.324zM22.725 66.842c-1.348 1.674-2.125.485-.094-.229l.097.118-.003.11z"/>
        <path d="M21.792 66.483c1.825 1.71.189 2.116-.231.09l.12-.095.111.005zM22.522 68.645c-2.886 2.457-1.079-.82 0 0z"/>
        <path d="M21.513 68.224c1.751 1.157.762 2.021-.325.194.057-.106.182-.269.325-.194z"/>
        <path d="M23.182 66.741c2.513.053-.542 2.666.858 3.823 1.041 1.703-1.438 3.324-.22 5.002 1.426 1.96-1.072 3.167-2.445 4.023-1.611.93-2.837-.371-.48-.22.907-.889 3.07-1.223 2.878-2.815-.998-1.45-.794-3.17.09-4.617.027-1.329-1.255-2.637-.183-3.898.778-1.334-.858-.411-.498-1.298zM29.732 67.607c-2.138-.255-2.94 2.718-2.153 4.218.775.697 2.788 2.263.978 2.877-.282 1.152 1.439 2.622-.22 3.478-.857.366-1.349 3.115-1.24.837 1.365-1.26 1.796-2.433.943-4.184 1.704-.83.13-1.808-.776-2.679-1.49-1.72.81-6.14 2.569-4.603l-.1.056zM20.998 66.745c-1.142.1-3.344-.223-3.334 1.524.35.56 1.07 2.342.07 2.187-.068-1.512-1.322-3.63 1.116-4.049.423.218 2.612-.561 2.148.338zM16.164 75.242c-.67 2.975-4.166-.18-5.497 1.922-.138-2.692 4.572.5 5.054-2.03.097-.152.426-.071.443.108zM30.936 14.411c1.119 1.514 1.708 3.965.045 5.36-.935 1.16-2.773 1.782-4.093 1.067.56-.578 2.022.33 2.824-.51 1.434-.817 2.39-2.52 1.724-4.152.056-.507-1.553-1.847-.5-1.765zM1.715 40.503c-.843.823-1.6 1.606-1.092 2.928-.184 1.133 1.002 1.904.775 2.97C.524 45.966.113 43.926.08 42.697c-.457-.78 1.198-2.94 1.636-2.193z"/>
        <path d="M4.115 43.707c-1.145.211-2.026 2.86-2.978 2.203.595-.437 2.607-3.45 2.978-2.203zM13.046 25.367c-1.178-1.158-1.762-.573-1.58.556-1.222-.14.116 1.263-1.41.917-1.258-.053.502 2.946-.932.601-.554-1.857 2.137-.732 1.392-.878-.654-1.386 1.618-1.061.521-.943-.915-2.074 3.09-1.607 2.009-.253z"/>
    </g>
    <path d="M23.524 64.114c.132.024.266 0 .399.004.115-.011.23.003.343.018.093.017.185.037.27.079.088.035.176.07.262.109.08.03.158.062.236.094.046.032.098.052.145.082.01.007.019.017.03.023.007.003.015.002.023.003l.046.031a.916.916 0 0 1 .199.157c.075.07.148.142.212.222.018.015.076.221.09.23.017.037.009.021.025.047.076.144-.331.358-.407.214-.03-.056-.019-.03-.035-.077-.022-.05-.053-.11-.06-.162 0-.028-.102-.108-.124-.134-.026-.021-.054-.04-.081-.06l-.032-.025c-.002-.002 0-.008-.003-.01-.011-.008-.025-.012-.038-.019-.056-.043-.125-.07-.183-.11-.084-.024-.153-.072-.236-.099-.077-.034-.16-.057-.235-.096a6.324 6.324 0 0 1-.04-.014c-.007 0-.015 0-.022-.002-.045-.013-.078-.043-.128-.04-.022-.002-.065-.016-.087-.016-.052 0-.104.004-.156-.001a2.442 2.442 0 0 0-.399.002c-.159.005-.173-.445-.014-.45z"/>
</svg>
