<svg xmlns="http://www.w3.org/2000/svg" viewBox="0 0 158.75001 104.775" height="396" width="600">
    <path d="M73.44 17.37s7.634 5.837 11.775 3.65c4.141-2.186 6.171-4.1 6.758-7.35.586-3.25-.036-6.897-.036-6.897s-2.882 1.316-4.482.093-1.145 1.617-4.01 2.116c-2.867.5-4.55 1.44-5.366 2.31-.816.87-1.25 1.643-2.194 2.878-.946 1.235-2.446 3.2-2.446 3.2z" fill="#536c53" fill-rule="evenodd" stroke="#000" stroke-width=".265"/>
    <g fill="#333">
        <path d="M29.545 50.647c-6.275 2.303-9.1 9.916-8.65 16.2.337 2.303 2.734 9.901-.19 4.141-2.338-6.878-.015-15.016 5.4-19.761.81-.02 3.845-2.92 3.44-.58zM29.348 49.069c-4.263-3.695-7.423-10.718-.497-13.446 2.862-2.406 3.817-4.966.44-6.997-1.507-5.722 2.432-3.573 3.913-.336 4.139 3.208-4.62-.728-3.09-2.614-.614 3.94 5.451 6.42.099 9.895-4.19 2.644-6.598 6.303-2.193 10.4.336.666 3.807 3.145 1.328 3.098z"/>
        <path d="M34.413 29.066c4.381 4.145-3.594 7.565-4.635 11.503-2.16-1.885 3.823-5.79 4.982-8.352 1.18-1.549-2.581-2.564-.347-3.151zM29.705 40.983c.773 2.35 5.518 11.7 1.086 5.397-.064-.857-3.8-6.544-1.086-5.397z"/>
        <path d="M32.716 48.086c3.889-1.056 7.529 2.463 1.638 1.003-.757.006-2.684.356-1.638-1.003zM37.984 47.317c3.22-3.133 5.677-6.971 9.295-9.673 3.136-2.683 2.488-8.96 6.503-10.255 3.133-1.528 10.106-2.232 4.71 2.071-3.372 2.098-5.303-.295-.729-.805 5.206-3.807-2.557.028-4.846-.047-1.904 3.534-2.8 8.565-6.43 11.113-2.875 1.057-6.235 9.196-8.503 7.596z"/>
        <path d="M55.31 30.077c-3.718 2.765-.826 8.936-5.243 10.91-3.872 1.081-7.08 8.172-9.784 7.662 2.884-3.747 6.373-6.84 10.447-9.286 1.93-2.365.933-10.443 4.58-9.286zM41.249 48.97c6.075 2.839 6.339 10.595 7.122 16.371-.724 5.28-2.334 11.008-6.444 14.688-1.033-2.442 4.877-6.008 4.298-9.811 2.375-5.493.279-11.68-1.666-16.975.114-1.902-5.112-2.975-3.31-4.272zM22.187 73.916c-2.393 5.36-7.64 8.728-10.587 13.777-2.008 3.814-5.31 6.03-9.087 7.622-3.276.527 6.55.364 7.023-.836 1.539-6.424 7.4-10.384 11.218-15.434 2.498-3.03 5.864-1.746 1.279.3-3.723 4.344-8.279 8.078-10.89 13.294-.123 5.072-7.278 3.938-10.605 3.407 1.649-3.46 8.42-3.348 9.664-8.291 3.111-4.565 7.21-8.358 10.443-12.818-.659-1.042 1.305-2.17 1.542-1.021z"/>
        <path d="M24.613 77.171c2.567 2.336 1.776 5.01-.492 1.274-.95-.393-.238-1.734.492-1.274zM22.507 72.83c1.026 2.017-2.391.34 0 0zM47.66 70.538c3.906 5.577 5.931 12.352 10.692 17.335 3.197 4.844-.465 2.705-1.836-.587-4.116-4.881-6.362-11.144-9.7-16.445.181-.22.544-.542.844-.303z"/>
        <path d="M60.13 90.925c1.955.554 8.617 1.583 3.288 3.392-2.527.94-9.694-.385-3.435-.722 2.925-.051 6.812-.906 1.678-.922-.92.208-3.64-1.458-1.53-1.748z"/>
        <path d="M45.91 75.164c5.813 3.559 6.7 10.998 9.942 16.438 2.04 1.375 3.404 3.157-.29 1.63-3.4-5.205-4.184-12.305-9.154-16.477-1.198.34-1.581-1.664-.499-1.59zM42.707 81.476c2.355 2.253 6.772 5.019 4.5 8.82-1.94.555.984-4.309-2.152-5.252-.384-1.052-4.992-3.013-2.348-3.568z"/>
        <path d="M42.931 79.197c2.967 3.226 9.753 6.684 6.446 11.847-4.22 3.05 2.9-4.747-1.75-6.1-.675-1.46-6.912-4.627-4.696-5.747zM26.39 80.403c-2.7 2.293-6.913 5.567-5.704 9.573 1.66 2.297-2.666 5.512-.568.88-2.386-3.092 1.418-7.828 4.188-10.136.657-.546 2.034-2.025 2.083-.317z"/>
        <path d="M21.313 90.385c4.126 1.524-2.755 1.786 0 0zM20.352 93.244c2.673 1.643 4.897 4.798.395 2.036-.718-.48-2.284-2.308-.395-2.036z"/>
        <path d="M23.65 95.473c2.866-.84 12.12.603 4.514.889-.9-.37-5.895 1.272-4.514-.889z"/>
        <path d="M20.067 94.05c-1.732 2.364-10.634 2.626-3.303 2.668 2.275-.12 9.65-1.932 4.027.448-3.129 2.104-12.837-.713-4.718-2.097 1.087.043 4.281-3.705 3.994-1.019zM34.234 85.33c1.628 1.014 5.271.47 1.061 1.784-.79-.212-2.788-1.293-1.061-1.784zM40.545 88.612c3.076-.866 10.17 3.66 8.359 5.745-1.527-3.733-6.548-3.959-8.559-5.577l.2-.168z"/>
        <path d="M44.494 95.37c2.384-2.935 12.5-1.17 6.735 2.221-2.563 2.074-9.963-.44-5.868-1.236-.51 2.481 4.86-.157 6.607-.086.655-4.062-7.479 1.293-7.474-.898z"/>
        <path d="M45.141 98.862c-5.15 2.241-9.902-1.535-14.993-1.695 1.868-2.837 7.754 1.975 11.114 1.336 1.036.612 4.572-1.919 3.88.359z"/>
        <path d="M26.771 96.161c4.706-1.774 4.353 1.992 1.053 1.12-.052-2.537 4.182 1.36-.504.304-1.068-2.79 6.158-.418.348-.513-.69.66-1.54-.447-.897-.91zM40.746 97.25c-2.433 1.8-6.81 5.967-2.442 1.173.57.056 2.23-2.527 2.442-1.174zM38.469 96.686c-2.164 1.318-5.942 5.246-2.13.786.248-.198 2.369-2.165 2.13-.786zM36.483 96.006c-1.934 1.64-7.558 5.833-2.713 1.508.551-.008 2.445-2.927 2.713-1.508zM119.61 39.425c-1.638-7.851-5.788-14.92-11.008-20.893-3.696-2.773-.214 1.537 1.097 2.88 4.212 5.41 7.612 11.475 8.894 18.29.234.342.988.136 1.016-.277z"/>
        <path d="M107.055 17.315c-5.078-3.781-4.633 3.472-.646 3.098-.932-1.892-4.848-4.37.38-2.25.212-.187.515-.56.266-.848zM106.553 21.018c4.493 4.758 6.172 11.256 8.515 17.19 3.068 6.2.741-3.05-.832-5.014-1.736-4.594-3.43-9.767-7.25-12.972-.249.146-.626.46-.433.796zM136.006 19.955c2.57-3.361-.511-8.639-3.256-3.437-1.924 5.431 1.16-.054 2.968-1.397 1.289.72-2.028 5.41.288 4.834z"/>
        <path d="M131.839 19.225c-1.194 5.58-3.884 10.89-6.3 16.008-1.737 2.772-.271 9.89.447 3.058.87-5.673 4.733-10.387 6.154-15.98.388-.662 1.639-4.649-.301-3.086zM134.984 19.914c-2.674 6.09-4.841 12.392-7.57 18.461-1.351 5.086 1.24 3.894 1.257-.409 2.633-5.803 4.698-11.867 7.293-17.699.005-.41-.723-.672-.98-.353zM137.238 50.692c4.44-6.627-8.608-6.782-6.176-3.4-1.118-4.29-8.95-3.709-7.062 1.339 1.592-5.97-9.742-.776-4.685 2.23-.841-5.148 2.84-4.145 5.543-2.546-.632-5.564 5.074-1.134 6.407-.457 1.844-4.826 6.872-.217 5.397 2.96l.364.03.212-.156z"/>
        <path d="M136.489 43.682c-.143-4.832-9.679-1.52-6.538-.223.165-4.36-9.046-3.356-6.58-.116 2.699-5.84 6.212 3.815 8.165-1.281 2.499-1.578 3.594 3.068 4.953 1.62z"/>
        <path d="M125.46 40.268c-2.594-4.205-8.835 2.315-7.644.88-2.891-3.892-6.106 5.105-4.368 3.562-3.733-2.467-6.423 3.662-5.054 3.422-4-1.332-4.936 6.31-2.127 4.402-2.741-3.634 4.987-2.696 3.282-6.571 2.98-.543 5.355.5 4.942-3.49 2.476-2.018 3.703 1.636 6.102-2.246 1.367-1.145 5.102 2.364 4.867.04zM111.856 52.33c-4.199-2.576-6.542 3.979-3.452 4.17-4.975.73-.3 5.873-.667 4.642-6.513 1.683 1.268 7.583 1.6 3.523-7.087-1.76-2.229 9.024-.874 4.829-4.82-.673-.318-3.831.456-4.632-5.756.64.293-2.79-.26-4.267-4.865-1.574 3.855-3.705-.9-6.393.068-2.64 4.943.44 4.097-1.873z"/>
        <path d="M107.782 69.683c-5.905-.135.113 7.872.403 4.79-2.896 2.035.964 3.294-.267 5.981 2.55 3.306 5.7-3.538 2.379.213-1.035 5.77 10.392.488 2.915 2.012-3.156-1.047-.271-4.154-4.325-2.633.125-1.706.089-3.062-1.057-4.145 3.425-1.555-5.75-3.99.274-5.39.048-.279.051-.76-.322-.828zM138.98 44.303c3.538-.812 2.367 3.257.73 1.908 3.91-1.165 5.139 4.037 3.97 4.924 2.88 1.546-1.495 5.616 1.077 7.34 1.67-3.388-1.603-3.45 1.262-5.38.543-4.8-6.38-1.438-1.255-1.928 4.304-3.957-8.216-8.637-5.294-3.987 7.352 1.28-.524-7.325-.49-2.877z"/>
        <path d="M137.971 52.28c5.624.268 1.405 4.172.175 4.438 3.742.84-.739 3.761 3.69 3.846 3.285 2.991-1.431 2.826 3.1 4.009 3.229 4.46-2.786 6.533-3.15 8.902.943 2.312.268 4.199-1.11 5.494 5.03-.335.139-5.236 3.211-6.322-2.17-3.117-.734 1.077 1.83-2.199 4.007-2.634-2.173-11.014-4.191-6.473 7.316 2.257-2.155-8.891-2.496-3.844 5.938-.274-2.386-7.162-1.25-3.18 7 1.163 3.631-8.11.191-4.671zM137.821 80.663c-.034-.333.58-1.064 1.5-.188 2.972 2.391-1.74 3.271-1.75 5.058-2.365-.935-2.33 4.472-5.03 1.223-.523 2.193-5.798.547-1.26 2.555 3.584-1.749-.913-1.98 3.324-.625 1.568-2.325 3.114-1.768 4.685-3.67-2.041-.658 4.697-1.86 1.366-5.263-2.283-2.039-3.656-.325-3.64.82z"/>
        <path d="M137.016 80.572c-.008 1.141.432 2.76 3.689 1.62 2.407-.844.434-6.796-.54-3.995 3.134 3.005-2.351 4.082-2.344 2.466zM143.747 58.348c5.64 1.103-1.158 2.364.247 3.744 2.264-2.08-3.266-.313 1.181-.592 5.604-1.007-1.559-5.97-1.428-3.152zM136.514 87.142c6.086 3.491 10.197 9.586 14.553 14.67 2.601 1.806 10.114-.561 3.322-.46-3.888.712-4.608-3.51-6.907-5.594-2.966-2.78-7.605-9.78-10.968-8.616z"/>
        <path d="M139.956 85.022c5.31 5.456 8.734 13.104 16.123 16.155 1.645.337-.266 3.43 2.133.707-2.217-2.706-6.487-3.612-8.692-6.703-2.794-2.657-6.675-10.57-9.564-10.16zM108.617 80.247c-4.73 3.75-8.653 8.396-13.708 11.834-3.804 2.976-1.294 3.938 1.305.196 4.01-2.734 7.475-6.088 10.83-9.518.364-.254 4.02-2.359 1.573-2.512z"/>
        <path d="M92.286 94.334c-2.74-.773-10.773 2.26-4.485 3.556 3.541 1.116 9.05-1.892 2.473-1.035-2.603.742-6.112-.975-1.387-1.08.618-.231 5.565.136 3.4-1.44z"/>
        <path d="M94.248 97.59c2.957-2.726 5.525-5.813 8.954-8.035 1.81-2.995 6.931-4.88 7.689-7.523-4.902 2.094-7.836 7.166-12.484 9.842-.518 1.355-6.061 4.889-4.16 5.716zM130.284 88.984c1.116 3.169 2.604 6.383-.032 8.456 5.074-.483 1.626-6.51.55-8.732l-.356.07-.162.206z"/>
        <path d="M129.514 97.86c.462-4.969-5.135.369-1.908-.476-1.791-5.18-4.96 2.933-2.285.504-1.706-4.14-4.34 1.624-3.317.56-4.997-.426.377 2.476-3.244 2.27-1.228 2.364 3.703 4.933 4.99.863-3.836 1.295 3.578 1.484 1.388.896 1.3 3.433 4.583-2.62 2.155-.517 2.53 3.48 2.896-2.272 4.043-.324 2.96-1.798-2.79-3.144-.029-1.717.842-3.716-1.825-1.318-1.424-3.32-2.055 1.275 1.58 1.86 1.066 3.57-.05.257-2.033 2.315-2.713 1.375-2.25.826-3.485.576-5.672-.183-.241 3.575-5.848-.566-1.445-.68-2.171-2.538 2.943-.053 1.997-3.287 2.277 1.639 2.052-1.426 4.525.313.575-3.296.45 2.03 1.873.154z"/>
        <path d="M131.7 97.59c4.722-.67 9.88 1.29 12.687 5.234-.805-1.664-6.503-3.31-9.719-1.856-6.839-.616 1.179 2.413 3.893.24 1.846 1.123 9.606 3.494 5.123-.623-2.958-3.245-8.18-4.707-12.323-3.83-.044.284-.042.771.339.836zM115.101 97.216c2.91 1.447 6.066-1.395 1.376-.788-.582-.828-2.035.06-1.376.788zM102.603 98.723c4.93 1.15 9.971 1.569 14.963 2.32 3.592-1.48-6.614-1.61-8.39-2.188-1.659.591-6.769-2.524-6.573-.132z"/>
        <path d="M102.964 97.239c-4.1-3.177 3.08-7.909 6.645-7.319 2.458.619 10.98-2.772 4.011-1.7-3.468 1.088-7.643.107-10.573 2.952-3.716.426-2.232 9.995-.083 6.067z"/>
        <path d="M114.186 83.72c-4.543.605.27 4.137-2.76 3.325-1.917 3.619 3.352-.054 1.728-1.81.695-.41 2.399-.569 1.032-1.515zM121.237 63.29c-3.981 2.087 3.18 1.507-1.506 4.577 1.773.896 3.335 7.403.448 2.525-2.97-1.375.332-7.268 1.454-4.663-5.96 2.153-.876-6.13-.396-2.438zM132.452 65.812c4.614.412-1.946 3.37 2.29 4.894 1.36 4.4-7.334 2.126-2.337 3.188 1.525 3.249-4.811 4.484-.724 1.234-4.075-2.879 5.691-2.542.623-5.828.029-2.962 1.877-1.145.148-3.488zM128.074 86.607c-.942-3.116-4.06.602-4.726-2.363-1.66-.171-4.915 2.949-1.67-.918 3.653-2.577 2.586 5.731 2.003 1.493 3.326-2.24 2.146 3.131 2.453-.391 1.174-1.504 4.457 2.717 1.94 2.179zM117.009 87.672c4.087-.146 7.123 4.062 1.875 1.475-.721-.41-3.28-.122-1.875-1.475zM33.88 86.506c-3.645 3.316-3.843-.058-.066-.916.168.239.385.686.066.916zM67.977 8.242c-.922-.05-1.836.07-2.744.215-1.434.246-2.807.718-4.138 1.292-1.107.479-2.208.991-3.244 1.61-.467.278-.885.567-1.334.869-.253.168-.73-.545-.477-.714 1.55-.881 3.084-1.802 4.722-2.515 1.39-.58 2.782-1.18 4.277-1.443.981-.211 1.978-.326 2.974-.454.402.013.366 1.152-.036 1.14zM65.284 12.256c-1.041.213-2.05.571-3.07.87-1.685.53-3.333 1.162-4.893 1.996-.378.202-.745.427-1.117.64-1.553.925-3 2.026-4.31 3.271-.711.676-.932.952-1.563 1.66-.165.179-.668-.288-.503-.466.88-.85 1.796-1.728 2.73-2.516a31.726 31.726 0 0 1 3.344-2.44c.963-.587 1.23-.777 2.226-1.284 1.227-.625 2.515-1.135 3.797-1.635a89.358 89.358 0 0 0 3.077-1.22c.398-.1.68 1.024.282 1.124zM64.955 17.73c-1.126-.007-2.225.337-3.283.686a20.395 20.395 0 0 0-3.655 1.64c-.642.373-.952.597-1.553 1.003-.232.156-.673-.5-.44-.656 1.736-1.013 3.49-2.002 5.36-2.75 1.182-.423 2.36-.88 3.607-1.074.406.013.37 1.163-.036 1.15zM92.58 6.68c.326 2.378.597 4.95-.566 7.158-.71 1.873-1.055 4.108-2.832 5.325-2.046 1.796-4.775 2.668-7.442 2.932-2.674-.174-5.015-1.655-7.252-2.994-.662-.472-2.243-2.176-.701-2.4.582.667 1.227 1.74 2.23 2.144 2.092 1.097 4.32 2.57 6.799 2.125 2.495-.55 5.1-1.483 6.71-3.589.72-1.114 1.07-2.437 1.583-3.659.513-1.402 1.095-2.865.818-4.387.023-.879-.55-2.072-.03-2.751.205-.09.56-.16.683.096z"/>
        <path d="M73.206 16.131c1.762-.13 2.717-1.87 3.18-3.379.792-.737 1.116 1.34.462 1.893-.62 1.323-1.997 2.01-3.32 2.429-.668.163-.502-.584-.322-.943zM92.66 6.61c-1.085 1.47-3.39 2.05-4.896.882-1.53-.494.277-2.276.768-.72.938.845 2.124.004 3.003-.492.38-.274 1.313-.407 1.125.33z"/>
        <path d="M76.185 12.757c-1.818-.637-3.653.262-5.398.718-1.698 1.19-1.635 3.47-2.037 5.296-.03 1.748 1.308 3.776 3.236 3.579 1.077-.004 2.032-.882 2.002-1.98.241-1.087-.908-1.776-.962-2.695 1.226-.684 1.837 1.13 1.998 2.062.27 1.65-.886 3.537-2.662 3.581-1.938.36-4.05-.999-4.347-2.986-.585-1.55-.145-3.213.319-4.724.25-1.497 1.183-3.108 2.812-3.348 1.753-.454 3.666-1.178 5.442-.418.117.312.016.903-.403.915zM87.667 6.521c-.976 1.856-3.119 3.042-5.212 2.833-.208-1.414 1.647-1.085 2.505-1.46 1.042-.277 1.285-1.648 2.208-1.983.258.101.378.381.499.61z"/>
        <path d="M82.59 9.387c-.56.514-4.134 2.145-3.8.59.702-.172 4.043-2.432 3.8-.59z"/>
        <path d="M79.01 10.896c-.543.824-1.554 1.992-2.61 1.666-.514-1.032 1.175-1.007 1.486-1.963.417-.719 1.038-.453 1.125.297z"/>
        <path d="M78.099 10.256c-.342-1.547-2.169-1.93-3.52-1.707-1.269.074-2.457.696-3.189 1.748-.211.647 1.302-.213 1.788.136.917.155 2.28.505 2.586 1.327-.907.99-2.12-.3-3.164-.387-.87.02-2.296.63-2.34-.822.283-1.51 1.725-2.506 3.144-2.842 1.422-.39 3.04-.373 4.36.323.595.438 2.315 2.737.335 2.224zM84.803 20.545c-.419-1.119-.178-2.488-.96-3.455-1.141-.363-2.074 1.054-2.858 1.725-1.204.983.731 2.188-.015 3.027-1.187.282-1.226-1.438-1.373-2.255.053-1.173.97-2.048 1.88-2.643.797-.926 2.519-1.511 3.418-.42.44.991.421 2.144.807 3.184.263.692-.212 1.24-.9.837z"/>
        <path d="M84.6 15.795c.965-.862 2.192-1.912 3.577-1.633 1.214.672 1.05 2.4 1.684 3.521-.292 1.598-1.52-.054-1.454-.955.032-1.13-.933-2.238-1.874-1.127-.58.455-1.857 1.838-1.933.194z"/>
        <path d="M87.998 14.094c.904-1.093 2.853-.85 3.28.574-.514 1.69-1.406-1.025-2.09-.072-.578.415-1.365.498-1.19-.502z"/>
        <path d="M89.179 13.26c.423-1.69-.308-3.361-.399-5.044-1.064-1.475 1.605-1.56 1.062-.01.126 1.629.684 3.247.39 4.89.269.711-.97.745-1.053.164zM85.984 14.516c.325-1.587-1.199-2.58-1.96-3.75-1.2-.638.24-3.195.657-1.3.345 1.722 2.578 2.585 2.335 4.5.228.67-.624 1.077-1.032.55zM82.34 16.431c-.923-1.39-3.086-1.784-3.363-3.619-.685-.604-.227-1.92.73-1.184.388.98.489 2.227 1.71 2.666.873.18 2.473 2.099.922 2.137zM79.837 18.342c-1.294-.94-3.289-.683-4.262-2.087-.252-1.246 1.874-.11 2.501.324.647.656 2.896.315 2.016 1.658l-.255.105z"/>
        <path d="M85.997 5.134c-1.133.29-1.957-.706-2.365-1.626-.359-.997-1.625-2.05-2.538-.98-.894 1.032.068 2.28.383 3.351.583 1.11 1.532 1.964 2.188 3.024-.941 1.228-1.844-.813-2.433-1.458-.632-.801-.913-1.875-1.333-2.818-.509-1.213-.153-2.887 1.195-3.363 1.177-.538 2.988-.027 3.19 1.39.063 1.294 1.93 1.195 2.007 2.122-.012.16-.122.339-.294.358zM72.913 19.984c.385-.843-1.055.307 0-.021 1.067.035-1.191 1.24-.824-.201-.039-1.363 2.407.406.824.222zM91.594 6.72c-.702-1.214.26-2.462.107-3.622-.993-.394-1.88.644-2.524 1.332-.894.528-.99 1.658-1.427 2.324-1.1.149-.473-1.446-.115-1.94.827-.832 1.554-1.818 2.572-2.427.908-.555 2.562-.251 2.471 1.07-.16.97-.758 1.92-.3 2.933-.08.255-.555.563-.784.33z"/>
        <path d="M86.13 4.244c.708.202 2.585.824 1.56 1.65-.586-.12-1.262-.815-2.023-.954-.073-.253.148-.763.462-.696zM70.394 20.152c.569-.915-1.401-.615-.368-1.815 1.358-.28 1.54 2.646.368 1.815z"/>
    </g>
</svg>
