<?xml version="1.0" standalone="no"?>
<!DOCTYPE svg PUBLIC "-//W3C//DTD SVG 20010904//EN"
 "http://www.w3.org/TR/2001/REC-SVG-20010904/DTD/svg10.dtd">
<svg version="1.0" xmlns="http://www.w3.org/2000/svg"
 width="450.000000pt" height="450.000000pt" viewBox="0 0 450.000000 450.000000"
 preserveAspectRatio="xMidYMid meet">
<metadata>
Created by potrace 1.11, written by Peter Selinger 2001-2013
</metadata>
<g transform="translate(0.000000,450.000000) scale(0.100000,-0.100000)"
fill="#000000" stroke="none">
<path d="M2455 4492 c-45 -5 -135 -32 -135 -40 0 -4 -15 -16 -34 -26 -39 -21
-54 -46 -58 -96 -3 -34 -4 -35 -58 -42 -83 -11 -158 -18 -225 -23 -33 -3 -82
-8 -110 -11 -27 -3 -69 -8 -93 -10 -25 -2 -61 -6 -81 -8 -20 -3 -61 -8 -91
-11 -30 -3 -71 -7 -90 -10 -19 -2 -91 -9 -160 -15 -69 -6 -136 -13 -150 -15
-88 -13 -112 -16 -170 -20 -36 -3 -74 -8 -85 -10 -11 -2 -38 -4 -60 -6 -24 -1
-31 -3 -17 -6 19 -4 34 -25 15 -22 -25 4 -44 -3 -40 -13 2 -7 8 -12 13 -11 71
13 361 25 368 15 2 -4 -28 -9 -67 -10 -182 -7 -196 -10 -183 -30 3 -6 25 -8
49 -6 99 10 274 17 442 18 172 1 237 -3 515 -28 36 -3 101 -8 145 -12 44 -3
91 -8 105 -10 14 -1 77 -6 140 -10 63 -4 124 -12 135 -19 11 -7 43 -21 70 -31
28 -10 63 -28 78 -41 16 -13 32 -23 36 -23 12 0 73 -63 96 -100 46 -74 58
-137 59 -310 1 -136 -3 -158 -44 -259 -38 -94 -43 -100 -105 -135 -177 -101
-340 -142 -518 -131 -210 13 -255 15 -366 20 -62 2 -116 6 -119 9 -5 6 53 126
93 191 39 65 111 141 152 160 33 16 35 19 18 25 -18 6 -17 9 13 24 31 16 43
36 21 36 -7 0 -28 -10 -47 -22 -20 -12 -53 -23 -74 -24 -21 -1 -64 -5 -95 -9
-85 -10 -172 -11 -223 -3 -52 10 -93 45 -146 128 -19 30 -47 63 -60 74 -25 18
-26 18 -22 -1 3 -18 -14 -40 -127 -173 -155 -182 -276 -247 -450 -242 l-50 1
40 -15 c21 -8 42 -18 45 -22 3 -4 21 -14 40 -23 161 -73 193 -95 277 -192 l42
-49 -17 -36 c-9 -20 -24 -46 -33 -57 -19 -23 -69 -116 -69 -128 0 -5 -13 -27
-28 -50 -69 -101 -153 -286 -176 -389 -9 -35 -16 -127 -18 -211 -1 -82 -5
-150 -9 -152 -3 -2 -4 43 -3 101 2 74 0 104 -8 102 -12 -4 -14 -22 -22 -212
-4 -81 -1 -145 6 -173 13 -54 24 -41 23 27 -1 68 11 63 20 -7 8 -68 13 -109
20 -160 22 -150 164 -396 289 -498 43 -35 206 -131 281 -165 165 -75 413 -157
503 -165 64 -6 404 -6 470 0 50 5 52 4 52 -20 0 -14 -4 -25 -8 -25 -20 0 -29
-53 -28 -160 1 -63 5 -120 9 -127 4 -6 3 -14 -3 -18 -5 -3 -10 1 -10 10 0 19
-23 14 -140 -31 -201 -77 -221 -91 -280 -199 -19 -33 -37 -62 -40 -65 -4 -3
-10 -15 -14 -27 -7 -23 2 -30 20 -14 23 22 136 43 244 47 137 4 187 -4 238
-40 44 -30 64 -34 55 -9 -5 12 -2 15 9 10 9 -3 65 8 125 25 78 22 127 31 178
30 74 -1 75 -2 144 -21 31 -9 47 -9 54 -2 13 13 33 -1 -173 121 -184 108 -218
131 -160 107 90 -37 174 -84 239 -133 68 -52 91 -64 91 -46 0 21 -124 114
-207 156 -68 34 -203 87 -226 89 -14 1 -16 7 -12 29 3 15 8 43 11 60 9 51 25
110 29 106 2 -2 0 -21 -5 -43 -6 -24 -5 -44 0 -49 15 -15 23 0 28 56 3 29 11
58 18 66 8 7 14 22 14 33 0 10 4 19 9 19 5 0 5 -16 0 -37 -5 -21 -13 -59 -19
-84 -5 -25 -10 -52 -12 -60 -2 -8 4 -14 12 -14 10 0 19 19 28 60 22 98 48 199
57 219 8 19 8 19 -26 0 -19 -10 -40 -26 -47 -34 -12 -13 -13 -12 -7 5 4 11 10
28 12 38 3 9 14 17 24 17 10 0 28 4 41 9 13 6 57 20 98 31 198 57 255 83 425
194 230 149 284 193 330 267 15 24 58 89 95 144 56 84 93 160 104 218 4 19 16
86 28 157 6 36 13 74 15 85 15 64 22 658 9 820 -6 74 -9 99 -20 165 -3 14 -5
33 -5 43 -1 20 -27 23 -34 5 -3 -7 -6 -3 -6 10 -1 36 -59 290 -87 379 -14 45
-27 92 -29 104 -14 70 -137 377 -185 459 -29 51 -68 133 -72 152 -6 29 -72
146 -105 186 -20 24 -59 61 -87 83 -28 21 -64 50 -81 63 -147 119 -198 156
-216 156 -11 0 -30 5 -42 12 -21 11 -267 19 -342 10z m402 -1017 c0 -8 -4 -12
-9 -9 -5 3 -6 10 -3 15 9 13 12 11 12 -6z m-1034 -144 c-62 -61 -171 -240
-187 -303 -3 -16 -13 -28 -21 -28 -12 0 -14 7 -9 28 7 32 52 134 62 142 4 3
21 23 37 45 67 90 118 145 135 145 6 0 -2 -13 -17 -29z m-680 -451 c-6 -6 -33
30 -33 43 0 5 9 -1 19 -14 11 -13 17 -26 14 -29z m2592 -302 c10 -124 13 -220
8 -215 -5 6 -10 46 -18 172 -3 49 -8 101 -11 115 -4 21 -3 22 5 8 6 -9 13 -45
16 -80z m14 -285 c-1 -62 -6 -56 -11 15 -2 23 0 42 4 42 5 0 7 -26 7 -57z
m-2983 -518 c1 -14 -2 -25 -7 -25 -5 0 -8 13 -7 30 3 34 10 31 14 -5z m416
-769 c63 -43 51 -48 -14 -7 -56 35 -121 97 -174 166 -29 37 -17 28 48 -37 48
-48 111 -103 140 -122z m1568 -200 c0 -2 -7 -7 -16 -10 -8 -3 -12 -2 -9 4 6
10 25 14 25 6z m-50 -15 c-30 -18 -248 -58 -350 -66 l-65 -4 75 13 c41 8 89
16 105 19 137 24 209 38 213 42 3 3 12 5 21 5 14 -1 14 -2 1 -9z m-390 -465
c0 -2 -7 -7 -16 -10 -8 -3 -12 -2 -9 4 6 10 25 14 25 6z m-40 -10 c0 -2 -7 -7
-16 -10 -8 -3 -12 -2 -9 4 6 10 25 14 25 6z m-241 -113 c-8 -10 -20 -24 -26
-31 -7 -7 -17 -21 -22 -30 -5 -9 -12 -14 -16 -10 -4 3 10 25 30 47 37 41 60
57 34 24z"/>
<path d="M3793 2539 c-6 -6 -7 -25 -2 -52 26 -134 30 -585 5 -625 -5 -8 -9
-25 -23 -102 -13 -74 -10 -140 7 -140 11 0 17 36 25 128 3 41 13 95 22 120 24
68 22 442 -2 632 -2 14 -4 31 -4 38 -1 15 -13 16 -28 1z"/>
</g>
</svg>
